<svg width="103" height="108" viewBox="0 0 103 108" fill="none" xmlns="http://www.w3.org/2000/svg">
<g clip-path="url(#clip0)">
<path d="M52.2022 0.160174C52.6076 0.872805 53.0131 1.57089 53.4185 2.28352C54.3018 3.83968 55.1852 5.38129 56.0685 6.93744C56.7925 8.21727 57.531 9.4971 58.255 10.7769C59.2542 12.5221 60.2533 14.2819 61.238 16.0417C62.1213 17.5978 63.0046 19.1394 63.888 20.6956C64.9885 22.6153 66.0745 24.5351 67.175 26.4548C68.0728 28.0255 68.9561 29.5817 69.8539 31.1524C71.4613 34.0029 73.0831 36.8389 74.6904 39.6894C76.095 42.1472 77.4997 44.6196 78.9043 47.0775C80.5551 49.9716 82.2058 52.8512 83.8421 55.7454C85.2178 58.1596 86.579 60.5738 87.9546 62.9881C89.3592 65.4605 90.7638 67.9183 92.1684 70.3907C93.5007 72.7322 94.8329 75.0882 96.1651 77.4298C97.4973 79.7713 98.8295 82.0982 100.162 84.4397C101.074 86.0395 101.986 87.6538 102.899 89.2536C102.927 89.3118 102.899 89.3409 102.841 89.3554C102.464 88.9627 102.088 88.5555 101.726 88.1628C101.031 87.392 100.292 86.6503 99.6114 85.8795C99.3218 85.5596 99.0177 85.2542 98.7136 84.9342C97.9896 84.1634 97.2656 83.3926 96.556 82.6072C96.252 82.2727 95.9334 81.9528 95.6293 81.6183C94.9198 80.8475 94.1812 80.1058 93.5007 79.3059C93.24 79.015 92.9649 78.7241 92.6897 78.4478C91.9802 77.7206 91.3141 76.9644 90.6045 76.2372C90.1267 75.7427 89.6633 75.2337 89.1999 74.7247C88.6497 74.1429 88.0994 73.5466 87.5636 72.9649C87.0713 72.4413 86.5934 71.9178 86.1011 71.3942C85.3191 70.5507 84.5372 69.7072 83.7408 68.8636C83.2629 68.3401 82.7851 67.831 82.2927 67.3075C81.7714 66.7403 81.2501 66.1876 80.7288 65.6204C80.2365 65.0823 79.7297 64.5442 79.2373 64.0061C78.4699 63.1917 77.7169 62.3772 76.9494 61.5483C76.4426 60.9956 75.9213 60.4575 75.4145 59.9048C74.9221 59.3813 74.4298 58.8432 73.9375 58.3196C73.17 57.4906 72.388 56.6616 71.6206 55.8327C71.1282 55.3091 70.6359 54.771 70.1435 54.2474C69.3616 53.4039 68.5797 52.5749 67.8122 51.7314C67.3198 51.2078 66.842 50.6843 66.3497 50.1607C65.8284 49.608 65.3215 49.0554 64.8002 48.4882C64.2934 47.9501 63.7866 47.3974 63.2798 46.8593C62.5268 46.0449 61.7738 45.2305 61.0208 44.4306C60.514 43.8779 59.9927 43.3398 59.4859 42.7872C59.2976 42.5835 59.1239 42.3654 58.9067 42.1763C58.6026 41.9291 58.5302 41.5946 58.4867 41.2455C58.4288 40.6929 58.313 40.1548 58.2406 39.6167C58.1681 39.1222 58.0957 38.6277 58.0233 38.1332C57.9654 37.726 57.893 37.3333 57.8351 36.9261C57.7772 36.548 57.7048 36.1553 57.6613 35.7626C57.6179 35.3554 57.5165 34.9628 57.4586 34.5555C57.4007 34.1629 57.3572 33.7702 57.2993 33.3775C57.2414 32.9848 57.1835 32.6067 57.1111 32.214C57.0531 31.8068 56.9807 31.3996 56.9228 30.9924C56.8649 30.5997 56.7925 30.2216 56.7346 29.8434C56.6767 29.4653 56.6187 29.0726 56.5608 28.6945C56.4739 28.1709 56.387 27.6619 56.3146 27.1384C56.2567 26.7311 56.1988 26.3385 56.1409 25.9312C56.083 25.5386 56.025 25.1604 55.9671 24.7678C55.9092 24.3751 55.8513 23.9824 55.7933 23.5897C55.7209 23.0807 55.6341 22.5862 55.5617 22.0772C55.5037 21.6555 55.4313 21.2482 55.3734 20.8265C55.2865 20.332 55.1996 19.823 55.1128 19.3285C55.0548 18.9358 55.0114 18.5431 54.9535 18.1505C54.8955 17.7578 54.8231 17.3797 54.7652 16.987C54.7073 16.5798 54.6494 16.1726 54.577 15.7653C54.5191 15.3872 54.4611 14.9945 54.3887 14.6164C54.3598 14.4855 54.4322 14.3255 54.3018 14.2237C54.3598 13.9183 54.2294 13.6274 54.2005 13.3366C54.157 12.9294 54.0702 12.5221 53.9978 12.1149C53.9253 11.6932 53.8674 11.2859 53.8095 10.8642C53.7516 10.4715 53.6792 10.0788 53.6357 9.68616C53.5923 9.30803 53.5199 8.9299 53.462 8.55177C53.4041 8.13001 53.3316 7.72279 53.2592 7.30103C53.1724 6.80655 53.071 6.29753 52.9986 5.80305C52.9552 5.42492 52.8972 5.04679 52.8248 4.66866C52.7524 4.2469 52.6945 3.83968 52.6221 3.41792C52.5497 2.93798 52.4773 2.4435 52.4049 1.96357C52.347 1.55635 52.3035 1.13459 52.2022 0.72737C52.1732 0.581935 52.1877 0.421957 52.1442 0.276522C52.1587 0.232891 52.1008 0.131087 52.2022 0.160174Z" fill="#2E3540"/>
<path d="M11.3237 69.4742C11.5699 69.1833 11.7147 68.8197 11.9174 68.4998C12.2505 67.9471 12.5546 67.3945 12.8732 66.8273C13.1773 66.2892 13.4958 65.7511 13.7999 65.1984C14.133 64.6167 14.466 64.0349 14.7846 63.4677C15.1032 62.9151 15.4073 62.3479 15.7258 61.7952C16.2182 61.0099 16.6526 60.1954 17.116 59.381C18.202 57.4904 19.2736 55.5997 20.3451 53.709C20.3886 53.6363 20.4175 53.5636 20.4465 53.5054C21.2284 52.1238 22.0249 50.7276 22.8068 49.346C23.4874 48.1389 24.1825 46.9609 24.8486 45.7392C25.2106 45.0557 25.6305 44.4157 26.007 43.7467C26.398 43.0632 26.7745 42.3651 27.1654 41.6816C27.5419 41.0126 27.9474 40.3581 28.3239 39.6891C28.6425 39.1365 28.9465 38.5693 29.2651 38.0021C29.5692 37.464 29.8878 36.9258 30.2064 36.3732C30.5249 35.8205 30.829 35.2679 31.1476 34.7152C31.4662 34.1626 31.7847 33.5954 32.1033 33.0427C32.4219 32.4901 32.7404 31.9229 33.0445 31.3702C33.3486 30.8321 33.6527 30.2795 33.9713 29.7414C34.2899 29.1742 34.6229 28.607 34.9415 28.0543C35.2601 27.5017 35.5786 26.949 35.8972 26.3818C36.2158 25.8292 36.5199 25.2765 36.824 24.7239C37.1425 24.1712 37.4611 23.604 37.7797 23.0514C38.0982 22.4987 38.4168 21.9315 38.7209 21.3789C39.025 20.8407 39.3291 20.2881 39.6477 19.75C39.9662 19.1828 40.2993 18.6156 40.6179 18.0629C40.9364 17.5103 41.255 16.9576 41.5736 16.3904C41.8921 15.8378 42.1962 15.2706 42.5148 14.7179C42.8334 14.1653 43.1375 13.6272 43.456 13.0745C43.7746 12.5219 44.0932 11.9547 44.3973 11.402C44.7158 10.8494 45.0344 10.2967 45.353 9.72951C45.6571 9.20595 45.9467 8.66784 46.2508 8.14427C46.7286 7.30075 47.2065 6.45723 47.6843 5.62825C48.7414 3.78122 49.784 1.9342 50.8411 0.0726318C50.9859 0.0726318 50.899 0.159893 50.899 0.218067C50.7977 0.872524 50.6818 1.54153 50.5804 2.19598C50.4356 3.05405 50.3053 3.91211 50.175 4.77018C50.0302 5.73005 49.8854 6.67538 49.7406 7.63525C49.5958 8.59512 49.4365 9.55499 49.2772 10.5294C49.1469 11.3584 49.031 12.1874 48.9007 13.0018C48.7704 13.8744 48.6256 14.7325 48.4953 15.6051C48.3504 16.565 48.2056 17.5248 48.0608 18.4702C47.945 19.2119 47.8292 19.9681 47.6988 20.7099C47.583 21.4661 47.4816 22.2224 47.3658 22.9786C47.2499 23.7204 47.1341 24.4621 47.0182 25.1892C46.859 26.1637 46.6997 27.1526 46.5549 28.127C46.439 28.8542 46.3377 29.5814 46.2363 30.294C46.0915 31.2539 45.9322 32.2138 45.7729 33.1882C45.6571 33.9153 45.5557 34.628 45.4399 35.3552C45.3095 36.2132 45.1647 37.0713 45.0344 37.9294C44.9041 38.7583 44.7738 39.6019 44.6579 40.4308C44.6 40.7944 44.5566 41.1726 44.4841 41.5361C44.4552 41.6816 44.3828 41.7834 44.2814 41.8997C43.3691 42.8741 42.4569 43.8486 41.5446 44.823C40.2848 46.1755 39.025 47.5281 37.7652 48.8806C36.7805 49.9423 35.7958 51.004 34.8112 52.0656C33.5513 53.4182 32.2915 54.7707 31.0317 56.1233C30.0615 57.1704 29.0914 58.2175 28.1067 59.2647C26.8469 60.6172 25.6015 61.9552 24.3417 63.3078C23.3571 64.3694 22.3579 65.4456 21.3732 66.5073C20.1134 67.8599 18.8681 69.1979 17.6083 70.5504C16.6236 71.6121 15.6389 72.6738 14.6543 73.7354C13.3945 75.088 12.1347 76.4405 10.8748 77.7931C9.89017 78.8548 8.9055 79.9164 7.92082 80.9781C6.66102 82.3306 5.40121 83.6832 4.1414 85.0357C3.4029 85.8356 2.66439 86.621 1.92588 87.4209C1.36114 88.0317 0.810882 88.628 0.246141 89.2388C0.159258 89.2388 0.159258 89.1952 0.188219 89.137C0.666077 88.2935 1.11497 87.4209 1.62179 86.5919C2.11413 85.7629 2.56303 84.9339 3.04088 84.0904C3.50426 83.2905 3.93868 82.4761 4.40205 81.6762C4.77855 81.0072 5.184 80.3527 5.56049 79.6837C5.95147 79.0002 6.32796 78.3166 6.71894 77.6331C7.09543 76.9641 7.4864 76.3096 7.87738 75.6406C8.19595 75.088 8.50004 74.5208 8.81861 73.9681C9.13719 73.4155 9.45576 72.8774 9.75985 72.3247C10.0639 71.7866 10.368 71.234 10.6866 70.6958C10.8748 70.3759 11.0631 70.0414 11.2513 69.7214C11.2658 69.6633 11.3237 69.576 11.3237 69.4742Z" fill="#2E3540"/>
<path d="M74.4734 62.13C74.9947 62.7263 75.5015 63.3225 76.0228 63.9043C77.0075 65.0096 77.9777 66.1294 78.9623 67.2347C79.585 67.9328 80.1932 68.6164 80.8159 69.3145C81.1199 69.6635 81.424 69.998 81.7426 70.3616C81.6412 70.4343 81.5399 70.4052 81.453 70.4052C78.2094 70.4052 74.9657 70.4052 71.7221 70.4052C71.1573 70.4052 70.7809 70.7106 70.694 71.2051C70.6505 71.3505 70.6505 71.496 70.694 71.656C70.7809 72.0777 71.0415 72.4122 71.2297 72.7758C71.809 73.8957 72.4172 75.001 73.0109 76.1063C73.3294 76.7171 73.648 77.3279 73.9955 77.9097C74.4444 78.6514 75.0961 79.1022 75.9794 79.1604C76.0807 79.204 76.1821 79.1749 76.2979 79.1749C80.6276 79.1749 84.9573 79.1749 89.2725 79.1749C89.3738 79.1749 89.4897 79.1458 89.5766 79.204C90.1268 79.8294 90.6626 80.4548 91.2129 81.0801C92.1396 82.1418 93.0664 83.1889 94.0076 84.2506C94.5868 84.9196 95.1805 85.5741 95.7598 86.2285C96.672 87.2611 97.5698 88.2937 98.4821 89.3263C98.54 89.3845 98.6124 89.4426 98.6703 89.5008C98.6848 89.5445 98.6559 89.5735 98.6269 89.5735C98.54 89.5881 98.4531 89.5735 98.3662 89.5735C88.0561 89.5735 77.7315 89.5735 67.4214 89.5735C67.32 89.5735 67.2042 89.5881 67.1028 89.559C65.8285 89.4281 64.9307 88.7591 64.337 87.6392C64.0908 87.1739 64.0329 86.6503 63.9026 86.1413C63.584 84.9051 63.2799 83.6543 62.9758 82.4181C62.6718 81.1819 62.3677 79.9312 62.0491 78.695C61.7595 77.5315 61.4554 76.368 61.1658 75.2046C60.8472 73.8956 60.5286 72.5867 60.2101 71.2924C59.8336 69.7653 59.4426 68.2382 59.0661 66.7112C58.9213 66.1294 58.7186 65.5477 58.6317 64.9514C58.429 63.5698 59.2109 62.319 60.7169 62.1009C60.8038 62.0718 60.8907 62.0863 60.9775 62.0863C65.3796 62.0863 69.7817 62.0863 74.1693 62.0863C74.2851 62.1009 74.3865 62.0573 74.4734 62.13Z" fill="#2E3540"/>
<path d="M35.7812 89.5008C35.955 88.89 36.1433 88.2646 36.317 87.6538C36.6211 86.6503 36.9107 85.6322 37.2148 84.6287C37.6927 83.0435 38.1561 81.4437 38.6339 79.8584C38.9235 78.884 39.1987 77.9096 39.4883 76.9497C39.8358 75.8153 40.1833 74.681 40.5309 73.5466C40.7481 72.8485 40.9363 72.1504 41.1535 71.4523C41.1825 71.3359 41.168 71.3069 41.0522 71.3069C40.9942 71.3069 40.9363 71.3069 40.8639 71.3069C39.3579 71.3069 37.852 71.3069 36.3315 71.3069C36.2591 71.3069 36.1577 71.3505 36.1143 71.2778C36.0709 71.1905 36.1577 71.1178 36.1867 71.0451C36.346 70.696 36.5053 70.3324 36.6646 69.9689C36.8238 69.6053 37.0121 69.2271 37.1424 68.849C37.3451 68.2964 37.6058 67.7728 37.8375 67.2347C38.0547 66.7257 38.2719 66.2166 38.5181 65.7222C38.7642 65.2131 38.967 64.6896 39.1987 64.1805C39.4014 63.7006 39.6186 63.2207 39.8213 62.7407C39.9082 62.5371 39.9951 62.3335 40.0964 62.1299C40.1689 62.0427 40.2557 62.0863 40.3426 62.0863C45.2081 62.0863 50.0735 62.0863 54.939 62.0863C55.0259 62.0863 55.1128 62.0572 55.1852 62.1154C55.2865 62.7989 55.3734 63.497 55.4748 64.1805C55.5906 64.9804 55.7065 65.7658 55.8223 66.5657C55.9382 67.351 56.054 68.1364 56.1698 68.9217C56.2857 69.6489 56.3871 70.3906 56.4884 71.1178C56.5174 71.2923 56.3871 71.2487 56.3002 71.2487C55.3589 71.2487 54.4177 71.2487 53.4909 71.2487C52.8393 71.2487 52.2022 71.2196 51.5506 71.2778C51.4926 71.3796 51.5216 71.4814 51.5216 71.5832C51.5216 77.4733 51.5216 83.3634 51.5216 89.2535C51.5216 89.6171 51.5506 89.5735 51.1885 89.5735C46.1348 89.5735 41.0956 89.5735 36.0419 89.5735C35.984 89.5735 35.8537 89.6608 35.7812 89.5008Z" fill="#2E3540"/>
<path d="M4.32959 89.5441C4.43095 89.2823 4.66264 89.1224 4.83641 88.9188C5.34323 88.3225 5.89349 87.7407 6.41479 87.159C7.02297 86.4754 7.61667 85.7773 8.21037 85.0938C8.60135 84.6575 8.99232 84.2212 9.38329 83.7849C9.84667 83.2613 10.2956 82.7523 10.7589 82.2287C11.1499 81.7779 11.5554 81.3416 11.9463 80.8907C12.2794 80.5126 12.6125 80.1199 12.9455 79.7418C13.293 79.3491 13.6406 78.971 13.9881 78.5783C14.5094 77.982 15.0307 77.3857 15.552 76.804C15.9285 76.3968 16.305 75.9896 16.667 75.5678C17.2752 74.8843 17.8689 74.1862 18.4626 73.5026C18.8536 73.0663 19.2445 72.6446 19.6355 72.2083C20.0989 71.6847 20.5478 71.1611 21.0112 70.6521C21.4021 70.2158 21.7931 69.7795 22.1696 69.3432C22.5171 68.9505 22.8502 68.5578 23.1977 68.1797C23.5308 67.8016 23.8783 67.4089 24.2258 67.0308C24.7616 66.4345 25.2829 65.8382 25.8187 65.2419C26.4558 64.5148 27.1075 63.8021 27.7446 63.075C27.9329 62.8568 28.1356 62.6532 28.3093 62.4205C28.4976 62.1442 28.7438 62.0714 29.0479 62.1005C29.1347 62.0714 29.2216 62.086 29.3085 62.086C31.8716 62.086 34.4346 62.086 36.9977 62.086C37.0845 62.086 37.2149 62.0133 37.2728 62.1587C37.0121 62.6386 36.737 63.104 36.4764 63.584C35.1586 65.9837 33.8554 68.3833 32.5377 70.783C31.7847 72.1646 31.0317 73.5608 30.2787 74.9424C28.9899 77.2985 27.7012 79.6545 26.4269 82.0106C25.558 83.6104 24.7037 85.2102 23.8349 86.7954C23.3715 87.6535 22.8936 88.497 22.4302 89.3551C22.4013 89.4132 22.3868 89.4714 22.3723 89.5296C22.2999 89.6023 22.1986 89.5587 22.1262 89.5587C16.276 89.5587 10.4404 89.5587 4.59024 89.5587C4.50336 89.5732 4.40199 89.6023 4.32959 89.5441Z" fill="#2E3540"/>
<path d="M66.8134 99.5504C66.9003 99.5795 66.9872 99.5795 67.0741 99.5504C67.1899 99.594 67.3058 99.5504 67.4216 99.594C68.0298 99.6958 68.58 99.914 68.9855 100.408C69.2751 100.743 69.4054 101.136 69.4778 101.557C69.5068 101.994 69.5068 102.43 69.4778 102.881C69.4778 103.172 69.4634 103.463 69.4634 103.753C69.4054 104.132 69.4778 104.51 69.4199 104.888C69.4199 105.266 69.4054 105.644 69.4054 106.022C69.3765 106.284 69.362 106.531 69.4054 106.793C69.4199 107.04 69.5937 107.142 69.7819 107.2C70.0426 107.288 70.3032 107.346 70.5639 107.375C70.7376 107.389 70.8824 107.448 70.8245 107.68C70.7666 107.724 70.7087 107.709 70.6508 107.709C69.1158 107.709 67.5809 107.709 66.0604 107.709C66.0025 107.709 65.9301 107.724 65.8867 107.68C65.8432 107.477 65.9301 107.389 66.1328 107.389C66.379 107.375 66.6107 107.331 66.8569 107.258C67.2768 107.128 67.4071 106.968 67.4071 106.517C67.4071 105.062 67.4071 103.608 67.4071 102.154C67.4071 101.805 67.4506 101.456 67.3782 101.107C67.2044 100.336 66.6396 100.016 65.9011 100.292C65.626 100.394 65.3798 100.554 65.1916 100.772C64.511 101.514 64.1924 102.401 64.1056 103.404C64.0621 103.608 64.0911 103.826 64.0911 104.03C64.0911 104.888 64.0911 105.746 64.0911 106.604C64.0911 106.691 64.0621 106.779 64.12 106.866C64.2214 107.244 64.5545 107.258 64.8441 107.331C65.0178 107.375 65.1916 107.418 65.3798 107.433C65.6115 107.462 65.5681 107.564 65.4812 107.695C65.4233 107.738 65.3654 107.724 65.3074 107.724C63.8015 107.724 62.281 107.724 60.775 107.724C60.7316 107.724 60.6881 107.724 60.6447 107.709C60.4854 107.549 60.5289 107.448 60.7461 107.404C61.0212 107.36 61.3108 107.346 61.5859 107.244C61.8321 107.142 62.0638 107.026 62.0783 106.706C62.1072 106.648 62.0928 106.589 62.0928 106.531C62.0928 104.917 62.0928 103.303 62.0928 101.703C62.0928 101.63 62.1072 101.557 62.0783 101.499C62.0493 100.961 61.919 100.481 61.3543 100.249C61.1805 100.219 61.0212 100.205 60.8619 100.249C60.2248 100.336 59.8483 100.772 59.5152 101.267C59.0084 102.037 58.8202 102.91 58.8057 103.826C58.7622 104.364 58.7912 104.888 58.7912 105.426C58.7912 105.891 58.7622 106.357 58.8202 106.808C58.8202 107.055 58.9939 107.142 59.1822 107.229C59.4283 107.331 59.689 107.36 59.9496 107.404C60.1089 107.418 60.3117 107.433 60.2248 107.709C60.1813 107.767 60.1089 107.738 60.051 107.738C58.4726 107.738 56.8798 107.738 55.3014 107.738C55.258 107.738 55.2145 107.738 55.1711 107.724C55.1566 107.695 55.1421 107.68 55.1131 107.651C55.0697 107.608 55.0697 107.549 55.1131 107.506C55.229 107.375 55.3883 107.433 55.5331 107.389C55.62 107.346 55.7213 107.404 55.8082 107.346C56.1992 107.317 56.5612 107.229 56.7494 106.822C56.7929 106.764 56.7784 106.691 56.7784 106.619C56.7784 104.757 56.7784 102.895 56.7784 101.019C56.7784 100.947 56.7929 100.874 56.7639 100.816C56.6915 100.51 56.4598 100.408 56.1992 100.35C55.9096 100.278 55.62 100.234 55.3304 100.19C55.2 100.176 55.1711 100.118 55.1856 100.001C55.2 99.8849 55.2435 99.8413 55.3593 99.8267C55.591 99.8122 55.8227 99.7831 56.0689 99.7686C56.2716 99.7249 56.4743 99.7831 56.677 99.7249C56.8508 99.7249 57.0101 99.7104 57.1839 99.7104C57.3576 99.6668 57.5459 99.7249 57.7341 99.6668C57.8789 99.6668 58.0382 99.6522 58.183 99.6522C58.2699 99.6231 58.3568 99.6231 58.4437 99.6522C58.8346 99.7831 58.7622 100.132 58.8057 100.423C58.7767 100.728 58.7622 101.034 58.8057 101.339C58.8926 101.368 58.9215 101.325 58.965 101.252C59.4573 100.379 60.1813 99.7977 61.1805 99.594C61.4846 99.565 61.7742 99.565 62.0783 99.594C62.4403 99.6813 62.8023 99.7686 63.1064 99.9867C63.5119 100.278 63.7725 100.67 63.9318 101.121C63.9752 101.237 64.0042 101.427 64.12 101.441C64.2504 101.441 64.2938 101.252 64.3662 101.15C64.8296 100.467 65.3943 99.914 66.2052 99.6813C66.3211 99.6522 66.4224 99.6231 66.5383 99.594C66.6252 99.5504 66.7265 99.594 66.8134 99.5504Z" fill="#2E3540"/>
<path d="M19.0562 97.0195C18.5494 96.9904 18.5204 97.005 18.5204 97.5285C18.5204 100.466 18.5349 103.39 18.5059 106.327C18.5059 106.895 18.6508 107.229 19.4617 107.287C19.5485 107.345 19.6499 107.287 19.7368 107.331C19.8382 107.331 19.9395 107.345 20.0409 107.345C20.1278 107.389 20.2291 107.345 20.316 107.389C20.4463 107.462 20.7649 107.374 20.5767 107.709C20.5187 107.767 20.4463 107.738 20.3739 107.738C18.3901 107.738 16.4208 107.738 14.4369 107.738C14.379 107.738 14.3211 107.753 14.2632 107.724C14.2487 107.709 14.2197 107.68 14.2052 107.665C14.1907 107.564 14.1473 107.447 14.2921 107.404C14.9148 107.36 15.5374 107.287 16.1167 106.982C16.3628 106.851 16.4932 106.662 16.4932 106.371C16.4932 103.404 16.4932 100.437 16.4932 97.4704C16.4932 97.1213 16.3918 97.034 16.0443 97.0195C15.0451 96.9759 14.4369 97.5285 13.988 98.343C13.5246 99.1719 13.2495 100.074 13.0757 101.004C13.0323 101.252 12.9454 101.295 12.6993 101.208C12.6703 100.801 12.6848 100.394 12.6848 100.001C12.6848 98.9683 12.6848 97.9357 12.6848 96.9032C12.6848 96.6995 12.7137 96.6268 12.9454 96.6268C16.0008 96.6414 19.0707 96.6268 22.1261 96.6268C22.2854 96.6268 22.3867 96.6268 22.3867 96.845C22.3723 98.1975 22.3867 99.5355 22.3867 100.888C22.3867 100.917 22.3867 100.961 22.3723 100.99C22.3578 101.15 22.2854 101.266 22.1116 101.252C21.9523 101.237 21.9668 101.121 21.9523 100.99C21.822 100.277 21.6337 99.5646 21.3297 98.8956C21.1848 98.5757 21.0545 98.2557 20.8518 97.9648C20.5187 97.4558 20.0554 97.1213 19.4327 97.0777C19.2734 97.005 19.1576 97.0631 19.0562 97.0195Z" fill="#2E3540"/>
<path d="M43.7893 106.546C43.7893 106.895 43.9196 107.084 44.2526 107.186C44.5567 107.288 44.8608 107.346 45.1794 107.317C45.2808 107.346 45.3821 107.346 45.498 107.317C46.2799 107.273 47.0329 107.171 47.67 106.691C48.0321 106.415 48.3217 106.066 48.5244 105.644C48.814 105.077 48.9733 104.466 49.1036 103.855C49.1326 103.739 49.1615 103.608 49.1615 103.477C49.1615 103.361 49.205 103.245 49.3063 103.201C49.4077 103.157 49.4656 103.274 49.5236 103.346C49.567 103.434 49.538 103.535 49.538 103.637C49.538 104.815 49.538 105.993 49.538 107.157C49.538 107.259 49.5236 107.346 49.5525 107.448C49.4801 107.535 49.4946 107.68 49.3498 107.695C49.2774 107.724 49.205 107.709 49.1471 107.709C46.1496 107.709 43.1376 107.709 40.1402 107.709C40.0678 107.709 39.9954 107.724 39.9374 107.695C39.8506 107.651 39.8071 107.579 39.8361 107.477C39.865 107.331 40.0098 107.404 40.0967 107.36C40.1836 107.317 40.285 107.375 40.3719 107.317C40.7918 107.302 41.2117 107.273 41.5448 106.953C41.6027 106.895 41.6606 106.822 41.6751 106.735C41.7185 106.662 41.7041 106.575 41.7041 106.502C41.7041 103.623 41.7041 100.743 41.7041 97.8635C41.7041 97.7908 41.7185 97.7035 41.6751 97.6308C41.5013 97.1799 41.0814 97.1654 40.7194 97.1072C40.5891 97.0927 40.4587 97.0054 40.3284 97.049C40.2415 97.0054 40.1402 97.049 40.0533 97.0054C39.9374 96.9909 39.8216 96.9763 39.8361 96.8164C39.8506 96.6564 39.9809 96.6855 40.0823 96.6855C40.1257 96.6855 40.1691 96.6855 40.2126 96.6709C40.2415 96.6564 40.285 96.6564 40.3139 96.6564C42.1095 96.6564 43.8906 96.6564 45.6862 96.6564C45.7152 96.6564 45.7586 96.6564 45.7876 96.6709C45.9613 96.8891 45.831 96.9618 45.6283 97.0054C45.5414 97.0345 45.44 97.0054 45.3387 97.049C45.2373 97.049 45.1504 97.0636 45.0491 97.0636C44.9622 97.1072 44.8608 97.0636 44.7595 97.1072C44.5133 97.1072 44.2671 97.1654 44.0499 97.2817C43.8617 97.3836 43.7748 97.5581 43.7748 97.7762C43.7458 97.8489 43.7603 97.9362 43.7603 98.0089C43.7603 100.772 43.7603 103.55 43.7603 106.313C43.7748 106.401 43.7603 106.473 43.7893 106.546Z" fill="#2E3540"/>
<path d="M26.8033 101.718C26.7598 102.314 26.7743 102.91 26.8033 103.521C26.8467 103.652 26.7888 103.783 26.8467 103.899C26.9191 105.048 27.1653 106.124 28.0341 106.953C28.4106 107.317 28.874 107.491 29.3953 107.535C30.322 107.593 31.1764 107.404 31.9294 106.822C32.3928 106.459 32.7258 106.008 32.943 105.484C33.1457 105.004 33.2326 104.481 33.2761 103.957C33.3485 103.841 33.2182 103.666 33.3919 103.579C33.8263 103.579 33.8408 103.594 33.7974 104.045C33.696 104.961 33.5222 105.863 32.8996 106.604C32.3783 107.215 31.6977 107.593 30.9157 107.753C30.6985 107.797 30.4958 107.826 30.2786 107.87C30.1917 107.913 30.0904 107.855 30.0035 107.913C29.7718 107.913 29.5256 107.913 29.2939 107.913C29.207 107.855 29.1057 107.913 29.0188 107.87C28.15 107.739 27.397 107.346 26.673 106.866C25.9779 106.415 25.5869 105.717 25.1815 105.034C24.8774 104.495 24.7181 103.914 24.5443 103.332C24.5154 103.245 24.5588 103.143 24.5298 103.056C24.4864 102.968 24.5443 102.867 24.4864 102.779C24.4864 102.677 24.4719 102.576 24.4719 102.474C24.443 102.299 24.443 102.125 24.4719 101.95C24.4864 101.296 24.6312 100.685 24.8484 100.074C25.1525 99.2597 25.6014 98.5471 26.1372 97.8781C26.8178 97.0491 27.6866 96.5692 28.7002 96.3365C28.903 96.2929 29.1202 96.2638 29.3229 96.2347C29.5111 96.2056 29.7139 96.2056 29.9021 96.2347C30.742 96.322 31.5094 96.6128 32.19 97.1364C32.5955 97.4564 32.8706 97.34 33.0299 96.8455C33.0589 96.7292 33.0878 96.6128 33.1457 96.511C33.1892 96.4383 33.2182 96.2783 33.3485 96.322C33.4498 96.3511 33.5222 96.4529 33.5222 96.5837C33.5222 96.9037 33.5222 97.2382 33.5367 97.5582C33.5367 97.8781 33.5512 98.1981 33.5512 98.5035C33.5946 98.838 33.5512 99.1725 33.5657 99.507C33.5657 99.5943 33.5512 99.6961 33.5802 99.7833C33.5367 100.074 33.6381 100.365 33.5367 100.641C33.5078 100.714 33.5657 100.801 33.4354 100.801C33.334 100.801 33.2616 100.743 33.2326 100.656C33.1023 100.278 33.0009 99.8851 32.8561 99.507C32.5955 98.838 32.2914 98.1981 31.8425 97.6309C31.437 97.1073 30.9302 96.7437 30.2786 96.5983C30.018 96.5401 29.7573 96.4819 29.4967 96.5256C29.4098 96.5692 29.3084 96.511 29.2215 96.5692C28.3093 96.671 27.7156 97.18 27.3825 98.009C27.1363 98.6198 26.9915 99.2597 26.9626 99.9288C26.9191 100.016 26.9626 100.118 26.9191 100.205C26.9191 100.292 26.9046 100.38 26.9046 100.452C26.8467 100.569 26.9046 100.714 26.8612 100.83C26.8612 100.947 26.8467 101.063 26.8467 101.179C26.7888 101.383 26.8467 101.558 26.8033 101.718Z" fill="#2E3540"/>
<path d="M4.47421 107.695C4.27149 107.622 4.28597 107.506 4.41629 107.36C4.50318 107.302 4.60454 107.36 4.69142 107.317C5.0824 107.302 5.48785 107.273 5.84986 107.069C6.06707 106.953 6.16844 106.749 6.16844 106.502C6.16844 103.608 6.16844 100.714 6.16844 97.8197C6.16844 97.4852 5.92227 97.2234 5.54577 97.1507C5.21272 97.078 4.87967 97.0198 4.54662 97.0053C4.25701 96.9907 4.34389 96.8453 4.37285 96.6853C4.43077 96.6562 4.4887 96.6708 4.54662 96.6708C6.29876 96.6708 8.05091 96.6708 9.78857 96.6708C9.86097 96.6708 9.93337 96.6562 9.9913 96.6998C10.0927 96.9616 10.0782 96.9762 9.73065 97.0198C9.64376 97.0634 9.5424 97.0053 9.45552 97.0634C9.13695 97.0198 8.84733 97.1652 8.54324 97.267C8.38396 97.3252 8.23915 97.4416 8.25363 97.6452C8.21019 97.7179 8.22467 97.8051 8.22467 97.8779C8.22467 100.743 8.22467 103.608 8.22467 106.473C8.22467 106.546 8.21019 106.633 8.23915 106.706C8.23915 106.982 8.45636 107.084 8.65909 107.171C9.03558 107.302 9.42656 107.317 9.80305 107.375C9.90441 107.389 10.0058 107.375 10.0203 107.506C10.0347 107.622 9.96233 107.68 9.86097 107.709C9.81753 107.724 9.75961 107.724 9.70169 107.724C7.99298 107.724 6.29876 107.724 4.59006 107.724C4.57558 107.709 4.53214 107.724 4.47421 107.695Z" fill="#2E3540"/>
<path d="M78.3688 96.4815C78.3833 96.496 78.3978 96.5105 78.4122 96.5251C78.4702 96.5978 78.4412 96.6996 78.4412 96.7869C78.4412 97.6304 78.4412 98.4594 78.4412 99.3029C78.4412 99.3902 78.4267 99.4774 78.4557 99.5647C78.4702 99.7537 78.615 99.7247 78.7308 99.7247C79.2956 99.7247 79.8458 99.7247 80.4106 99.7392C80.483 99.7392 80.5698 99.7392 80.6422 99.7537C80.7726 99.7683 80.845 99.841 80.8305 99.9864C80.816 100.132 80.7291 100.146 80.6133 100.146C80.0341 100.146 79.4404 100.132 78.8611 100.146C78.7018 100.146 78.4702 100.103 78.4702 100.394C78.4267 100.466 78.4412 100.525 78.4412 100.597C78.4412 102.517 78.4412 104.422 78.4412 106.342C78.4412 106.415 78.4267 106.487 78.4702 106.546C78.4991 107.389 79.4114 107.578 79.9761 107.258C80.4395 106.996 80.6712 106.575 80.7291 106.051C80.7436 105.964 80.8305 105.906 80.7871 105.804C80.845 105.644 80.7726 105.469 80.8305 105.309C80.8884 105.208 80.7581 104.989 81.0043 105.004C81.2359 105.018 81.2794 105.164 81.2649 105.368C81.178 106.066 81.0622 106.735 80.5988 107.302C80.2802 107.68 79.8893 107.854 79.4259 107.971C79.339 108.014 79.2376 107.971 79.1363 108.014C79.0059 108.014 78.8901 108.014 78.7598 108.014C78.6439 107.971 78.5281 108.014 78.4122 107.971C78.0357 107.942 77.6882 107.84 77.3552 107.665C76.8483 107.389 76.5732 106.938 76.5008 106.371C76.4718 106.284 76.4863 106.182 76.4863 106.08C76.4863 104.277 76.4863 102.459 76.4863 100.655C76.4863 100.554 76.5008 100.466 76.4718 100.365C76.4139 100.161 76.2546 100.117 76.0664 100.117C75.8202 100.117 75.5741 100.117 75.3279 100.117C75.1976 100.117 75.0962 100.088 75.0962 99.9137C75.0962 99.7537 75.1976 99.7247 75.3134 99.7247C76.5008 99.7101 77.2104 99.0557 77.6448 98.0085C77.8185 97.5868 77.9199 97.1359 77.9778 96.6705C77.9923 96.5833 78.0213 96.5251 78.0792 96.4669C78.195 96.4524 78.2964 96.4233 78.3688 96.4815Z" fill="#2E3540"/>
<path d="M55.113 107.476C55.113 107.52 55.113 107.578 55.113 107.622C55.0696 107.622 55.0117 107.607 54.9972 107.68C54.9393 107.724 54.8813 107.709 54.8234 107.709C53.2306 107.709 51.6377 107.709 50.0448 107.709C49.9869 107.709 49.9435 107.709 49.8856 107.695C49.7987 107.52 49.8421 107.418 50.0304 107.389C50.291 107.331 50.5372 107.258 50.7834 107.2C51.2902 107.069 51.4495 106.88 51.4495 106.371C51.4495 104.626 51.4639 102.881 51.4495 101.135C51.4495 100.597 51.1888 100.35 50.6385 100.277C50.4358 100.248 50.2186 100.263 50.0159 100.19C49.929 100.161 49.8276 100.205 49.8276 100.045C49.8276 99.8993 49.9145 99.8702 50.0304 99.8702C50.1896 99.8266 50.3634 99.8847 50.5227 99.8266C50.7109 99.8266 50.8992 99.812 51.0874 99.812C51.2467 99.7684 51.4205 99.8266 51.5798 99.7684C51.7825 99.7684 51.9852 99.7538 52.188 99.7538C52.3183 99.7102 52.4486 99.7684 52.5789 99.7102C53.3464 99.7247 53.3464 99.7247 53.3464 100.51C53.3464 102.503 53.3609 104.495 53.3464 106.502C53.3464 107.084 53.5347 107.171 54.0125 107.273C54.389 107.346 54.751 107.404 55.113 107.476Z" fill="#2E3540"/>
<path d="M73.7639 99.7102C74.4734 99.7247 74.4734 99.7247 74.4734 100.437C74.4734 102.473 74.4879 104.495 74.4734 106.531C74.4734 107.098 74.7341 107.186 75.0961 107.258C75.3857 107.331 75.6898 107.375 75.9939 107.418C76.1966 107.447 76.1966 107.535 76.1097 107.68C76.0518 107.724 75.9939 107.709 75.9359 107.709C74.3576 107.709 72.7792 107.709 71.1863 107.709C71.1429 107.709 71.0995 107.709 71.056 107.695C70.8967 107.52 70.9257 107.447 71.1719 107.375C71.4904 107.287 71.8235 107.229 72.1276 107.113C72.4172 106.996 72.6054 106.793 72.6054 106.487C72.6054 104.64 72.6054 102.793 72.6054 100.946C72.6054 100.568 72.3158 100.321 71.838 100.277C71.7221 100.263 71.6063 100.205 71.4904 100.234C71.4036 100.19 71.3022 100.234 71.2153 100.19C71.0705 100.205 70.9836 100.117 70.9691 100.001C70.9402 99.8556 71.0995 99.8993 71.1719 99.8556C71.3746 99.7975 71.5773 99.8702 71.7656 99.812C71.9393 99.812 72.0986 99.7975 72.2724 99.7975C72.4317 99.7538 72.6054 99.812 72.7647 99.7538C72.9385 99.7538 73.0978 99.7393 73.2715 99.7393C73.4308 99.6957 73.6046 99.7684 73.7639 99.7102Z" fill="#2E3540"/>
<path d="M51.2755 97.4849C51.2321 96.8304 51.7534 96.4086 52.3471 96.3941C52.9408 96.3795 53.4766 96.9177 53.4621 97.4994C53.4476 98.0375 52.9842 98.5611 52.3905 98.5902C51.7968 98.6338 51.2031 98.0666 51.2755 97.4849Z" fill="#2E3540"/>
<path d="M74.5893 97.5869C74.4156 98.285 73.9956 98.605 73.3585 98.5759C72.8951 98.5468 72.591 98.2705 72.4172 97.6887C72.3883 97.5724 72.3883 97.4415 72.4172 97.3252C72.5186 96.6271 72.9675 96.4235 73.4454 96.3944C73.8219 96.3653 74.4011 96.598 74.5604 97.2234C74.5749 97.2524 74.5893 97.2815 74.6038 97.3252C74.6183 97.4124 74.6183 97.4997 74.5893 97.5869Z" fill="#2E3540"/>
<path d="M0.159286 89.1808C0.173766 89.2099 0.188247 89.2535 0.217208 89.2826C0.173766 89.3553 0.130325 89.428 0 89.4425C0.0579221 89.3407 0.115844 89.268 0.159286 89.1808Z" fill="#2E3540"/>
<path d="M102.855 89.3409C102.869 89.3119 102.884 89.2682 102.913 89.2391C102.971 89.3119 103.029 89.37 103.014 89.4864C102.913 89.4573 102.869 89.4137 102.855 89.3409Z" fill="#2E3540"/>
<path d="M52.2023 0.159978C52.1733 0.189065 52.1443 0.232696 52.1154 0.261783C52.1009 0.174522 52.1154 0.101804 52.043 0C52.1878 0.029087 52.1733 0.116348 52.2023 0.159978Z" fill="#2E3540"/>
<path d="M98.4531 107.287C98.2504 107.287 98.0476 107.287 97.8449 107.273C97.4395 107.229 97.1499 107.026 97.1499 106.648C97.1064 106.56 97.1209 106.458 97.1209 106.357C97.1209 103.157 97.1209 99.972 97.1209 96.7725C97.1209 96.6707 97.1354 96.5834 97.1064 96.4816C96.9471 96.1907 96.672 96.2925 96.4258 96.278C96.3245 96.3362 96.2086 96.278 96.0928 96.3216C95.9769 96.3216 95.8611 96.3362 95.7452 96.3362C95.6149 96.3798 95.4846 96.3362 95.3543 96.3798C95.2384 96.3798 95.1226 96.3943 95.0067 96.3943C94.8764 96.4525 94.7461 96.3943 94.6158 96.438C94.4999 96.438 94.3841 96.4525 94.2682 96.4525C94.1379 96.5107 94.0076 96.4525 93.8772 96.4961C93.7759 96.5398 93.6456 96.4671 93.5442 96.5543C93.5152 96.6852 93.5152 96.787 93.689 96.8161C93.8772 96.8161 94.0655 96.8306 94.2537 96.8306C94.3406 96.8743 94.442 96.8161 94.5289 96.8743C94.8764 96.9324 95.1081 97.1361 95.2095 97.4851C95.2529 98.0668 95.2239 98.6486 95.2239 99.2303C95.2239 99.7393 95.2529 100.248 95.2095 100.757C95.166 100.801 95.1371 100.801 95.0936 100.743C94.6447 100.103 94.0365 99.7103 93.2546 99.5648C93.0519 99.5357 92.8347 99.5357 92.6319 99.5648C92.2699 99.623 91.9224 99.6957 91.6038 99.8557C90.6046 100.336 89.9385 101.136 89.5331 102.168C89.4462 102.401 89.3883 102.633 89.3304 102.866C89.229 103.288 89.2724 103.739 89.2724 104.161C89.3159 104.248 89.2724 104.35 89.3159 104.437C89.3883 105.106 89.6344 105.717 89.9965 106.269C90.5178 107.084 91.2563 107.622 92.2265 107.767C92.3134 107.811 92.4292 107.767 92.5161 107.811C92.603 107.782 92.6898 107.796 92.7767 107.811C92.8636 107.767 92.965 107.811 93.0663 107.767C93.2691 107.709 93.4718 107.68 93.66 107.607C94.2103 107.418 94.6302 107.055 94.9923 106.618C95.0647 106.531 95.1081 106.429 95.2384 106.517C95.2963 106.837 95.2239 107.171 95.2819 107.491C95.2963 107.666 95.3977 107.738 95.5715 107.738C95.6873 107.738 95.7887 107.738 95.9045 107.753C96.1073 107.695 96.31 107.767 96.4982 107.709C96.672 107.709 96.8313 107.695 97.005 107.695C97.1788 107.636 97.3671 107.709 97.5553 107.651C97.7001 107.651 97.8594 107.636 98.0042 107.636C98.1635 107.578 98.3373 107.651 98.4965 107.593C98.5979 107.564 98.7572 107.593 98.7427 107.433C98.7282 107.244 98.5689 107.287 98.4531 107.287ZM94.8474 106.022C94.7171 106.328 94.5578 106.618 94.3117 106.866C93.689 107.506 92.6754 107.462 92.0961 106.778C91.6762 106.269 91.5314 105.659 91.4445 105.019C91.2997 103.812 91.2997 102.619 91.6183 101.426C91.7196 101.048 91.8789 100.699 92.1396 100.394C92.6898 99.7539 93.5442 99.6957 94.1669 100.263C94.7026 100.743 94.9343 101.383 95.0791 102.066C95.195 102.575 95.2384 103.084 95.2384 103.695C95.2529 104.451 95.1805 105.266 94.8474 106.022Z" fill="#2E3540"/>
<path d="M83.6685 103.492C84.1753 103.492 84.6822 103.463 85.189 103.506C85.2759 103.463 85.3772 103.477 85.4786 103.477C86.4343 103.477 87.4045 103.477 88.3602 103.477C88.4471 103.477 88.5485 103.506 88.6353 103.448C88.7801 103.244 88.6933 103.012 88.7367 102.794C88.6933 102.677 88.7367 102.561 88.6933 102.459C88.6788 102.372 88.6498 102.27 88.6353 102.183C88.4616 101.441 88.1575 100.787 87.5348 100.307C87.0135 99.8995 86.4198 99.7104 85.7972 99.594C85.6668 99.5504 85.5365 99.6086 85.4062 99.5504C85.3338 99.5795 85.2614 99.5795 85.189 99.5504C85.0876 99.594 84.9573 99.5504 84.8559 99.594C83.9002 99.7395 83.1038 100.161 82.4666 100.888C81.8585 101.572 81.453 102.372 81.3806 103.303C81.3516 103.608 81.3516 103.899 81.3806 104.204C81.5399 106.037 83.0459 107.797 85.0731 107.869C85.2469 107.898 85.4207 107.898 85.5944 107.869C85.7682 107.84 85.942 107.826 86.1012 107.797C86.8253 107.651 87.4624 107.346 87.9692 106.779C88.3168 106.386 88.5195 105.92 88.6498 105.426C88.6643 105.31 88.6933 105.179 88.6353 105.062C88.4036 104.902 88.2733 104.932 88.2299 105.15C88.172 105.513 88.0272 105.833 87.8534 106.153C87.39 106.968 86.695 107.404 85.7682 107.433C85.6668 107.462 85.5655 107.462 85.4641 107.433C84.9718 107.462 84.5663 107.288 84.2188 106.939C83.683 106.415 83.5092 105.746 83.4803 105.019C83.4224 104.873 83.4803 104.713 83.4368 104.568C83.4368 104.437 83.4368 104.321 83.4368 104.19C83.4803 104.03 83.4224 103.855 83.4803 103.71C83.4658 103.564 83.5382 103.492 83.6685 103.492ZM83.5092 102.779C83.5816 102.11 83.654 101.427 83.9581 100.816C84.3491 100.03 85.1166 99.7249 85.942 100.016C86.3619 100.161 86.6081 100.467 86.7384 100.859C86.9411 101.456 86.9556 102.066 86.8542 102.677C86.7963 103.012 86.6515 103.128 86.3185 103.128C85.913 103.143 85.4931 103.128 85.0876 103.128C84.6822 103.128 84.2622 103.128 83.8568 103.128C83.6251 103.143 83.4803 103.012 83.5092 102.779Z" fill="#2E3540"/>
</g>
<defs>
<clipPath id="clip0">
<rect width="103" height="108" fill="white"/>
</clipPath>
</defs>
</svg>
