<svg width="148" height="72" viewBox="0 0 148 72" fill="none" xmlns="http://www.w3.org/2000/svg">
<path d="M138.834 23.9666C141.688 23.9666 144.542 23.9833 147.395 23.95C147.91 23.95 148.109 24.0166 147.943 24.6166C147.711 25.4666 147.545 26.3333 147.412 27.1999C147.346 27.6666 147.146 27.8166 146.682 27.8C144.84 27.7666 142.999 27.7999 141.157 27.7833C140.659 27.7666 140.46 27.9333 140.361 28.4166C139.033 34.7166 137.673 40.9999 136.329 47.2999C136.213 47.8333 136.03 48.0999 135.417 48.0666C134.255 47.9999 133.077 48.0166 131.899 48.0666C131.269 48.0999 131.136 47.9166 131.269 47.2999C132.198 43.0833 133.094 38.8499 134.006 34.6166C134.438 32.5833 134.869 30.5499 135.334 28.5166C135.466 27.95 135.35 27.7833 134.753 27.7833C132.961 27.8166 131.186 27.7666 129.394 27.8166C128.78 27.8333 128.747 27.5999 128.863 27.1166C129.062 26.3166 129.294 25.5166 129.394 24.7C129.477 24.0333 129.809 23.9666 130.356 23.9666C133.193 23.9833 136.014 23.9666 138.834 23.9666Z" fill="#2E3540"/>
<path d="M96.6763 48.0335C94.5194 48.0335 92.3626 48.0169 90.2057 48.0502C89.6582 48.0502 89.5919 47.9002 89.708 47.4002C91.3173 39.8502 92.8935 32.3002 94.4862 24.7502C94.6024 24.1836 94.7849 23.9002 95.4651 23.9502C96.5767 24.0336 97.7049 24.0002 98.8165 23.9502C99.3806 23.9336 99.4802 24.1002 99.364 24.6336C98.0201 30.9336 96.7094 37.2335 95.349 43.5169C95.2162 44.1669 95.3822 44.2169 95.9297 44.2169C98.6008 44.2002 101.255 44.2169 103.927 44.2002C104.474 44.2002 104.623 44.3169 104.474 44.8669C104.242 45.7169 104.059 46.5835 103.91 47.4502C103.827 47.9335 103.628 48.0502 103.18 48.0502C100.99 48.0335 98.8331 48.0335 96.6763 48.0335Z" fill="#2E3540"/>
<path d="M35.87 5.156e-05C16.0934 -0.0332818 0 16.1 0 35.9667C0 55.8 16.0602 72 35.7206 72C55.4806 72 71.657 55.8333 71.6735 36.0667C71.6901 16.2167 55.6134 0.0333849 35.87 5.156e-05ZM58.3509 57.7667C53.5229 62.9333 47.5169 65.9833 40.5652 67.1167C39.0554 67.3667 37.5125 67.5333 35.8534 67.4667C36.2847 66.7 36.6663 66 37.0645 65.3167C41.6602 57.2833 46.256 49.2667 50.8185 41.2334C51.1504 40.65 51.4988 40.4334 52.179 40.45C54.5515 40.5 56.9241 40.45 59.2966 40.5C59.8939 40.5167 60.1925 40.3 60.4746 39.8C61.9346 37.1834 63.4444 34.6 64.921 32C65.0039 31.8667 65.1367 31.75 65.0869 31.5667C64.9376 31.4334 64.7385 31.5 64.5726 31.5C56.9241 31.5 49.2756 31.5 41.6105 31.4834C41.0962 31.4834 40.8141 31.6167 40.5486 32.0834C39.1052 34.6667 37.612 37.2334 36.152 39.8167C36.0525 40 35.87 40.15 35.9197 40.4C36.1686 40.5334 36.4341 40.4667 36.6829 40.4667C39.5698 40.4667 42.44 40.4834 45.3269 40.45C45.9408 40.45 46.0569 40.55 45.7251 41.1334C42.9378 45.9667 40.167 50.8167 37.3797 55.6667C35.3224 59.2667 33.2486 62.85 31.2079 66.45C30.9258 66.9667 30.6106 67.0667 30.0631 66.9667C17.3543 64.45 7.6485 54.7833 5.04369 42.05C2.55503 29.9167 7.89736 16.9 18.1507 10.0334C20.3739 8.53338 22.7132 7.30005 25.2351 6.40005C25.4839 6.31671 25.7328 6.23338 26.0978 6.11671C19.4945 17.6 12.9576 28.9834 6.3378 40.4834C6.7028 40.4834 6.9019 40.4834 7.10099 40.4834C14.6665 40.4834 22.2487 40.4834 29.8142 40.5C30.3949 40.5 30.7101 40.3167 31.0088 39.8167C32.4024 37.35 33.8293 34.9167 35.2561 32.4667C35.4054 32.2 35.5547 31.9167 35.7538 31.5334C29.3828 31.5334 23.1114 31.5334 16.6906 31.5334C17.4538 30.1834 18.1507 28.9667 18.8475 27.75C23.128 20.3167 27.4085 12.8834 31.689 5.45005C31.971 4.95005 32.3029 4.73338 32.867 4.68338C48.9603 3.38338 63.1125 13.75 66.4308 29.6167C68.7037 40.3167 65.8169 49.7834 58.3509 57.7667Z" fill="#2E3540"/>
<path d="M128.05 35.6833C128.166 35.0333 127.95 34.9166 127.386 34.9333C126.474 34.9666 125.578 34.9833 124.665 34.9333C124.052 34.9 123.935 35.1166 123.869 35.7C123.67 37.5166 122.957 39.15 121.845 40.7C120.684 39.0166 119.572 37.4166 118.444 35.7833C118.726 35.6666 118.941 35.5833 119.157 35.5C120.584 34.8833 121.978 34.2166 123.073 33.0666C125.711 30.3333 125.014 26.15 121.646 24.4333C120.07 23.6333 118.394 23.45 116.669 23.65C111.476 24.2833 109.219 29.1833 112.089 33.55C112.206 33.7333 112.438 33.8833 112.388 34.1666C110.878 34.6666 109.468 35.3333 108.29 36.4333C106.299 38.2666 105.569 40.55 106.117 43.1833C106.631 45.6166 108.24 47.0833 110.513 47.8333C113.666 48.8666 116.785 48.6 119.754 47.2166C120.584 46.8333 121.065 46.7166 121.414 47.6666C121.497 47.8833 121.662 48.05 121.961 48.05C123.521 48.0333 125.08 48.05 126.806 48.05C125.993 46.85 125.279 45.7666 124.516 44.7166C124.135 44.2 124.085 43.8833 124.566 43.3333C126.524 41.15 127.552 38.5333 128.05 35.6833ZM115.308 29.2833C115.557 27.8 116.652 26.9833 118.278 26.9833C119.19 26.9666 120.003 27.2 120.435 28.0666C120.883 28.95 120.7 29.85 120.169 30.65C119.373 31.85 118.079 32.3333 116.785 32.75C116.602 32.8 116.469 32.7666 116.37 32.6166C115.723 31.6 115.092 30.55 115.308 29.2833ZM118.328 43.9333C117.216 44.5833 116.005 44.8166 114.495 44.8666C114.196 44.9 113.666 44.7833 113.151 44.65C110.596 44.0333 109.684 40.9666 111.459 39.0166C112.189 38.2 113.168 37.75 114.147 37.3333C114.462 37.2 114.628 37.3333 114.794 37.6C116.038 39.5 117.266 41.4 118.543 43.2833C118.792 43.65 118.593 43.7833 118.328 43.9333Z" fill="#2E3540"/>
</svg>
