<svg width="99" height="87" viewBox="0 0 99 87" fill="none" xmlns="http://www.w3.org/2000/svg">
<path d="M14.4995 16.6885C15.3719 14.9693 16.4188 13.4889 17.6244 12.1199C20.8127 8.52232 24.7465 5.99129 29.1086 4.06516C33.2962 2.21863 37.6741 1.08842 42.2107 0.483522C46.6045 -0.089541 50.9984 -0.153215 55.408 0.292501C61.6895 0.945155 67.6854 2.56883 73.253 5.60925C77.0916 7.71048 80.4861 10.3848 83.0558 13.9823C83.6586 14.8101 84.1979 15.6856 84.6579 16.6407C82.8654 16.2587 81.1365 15.8766 79.3916 15.5105C75.4419 14.6987 71.4764 14.046 67.495 13.5207C63.0695 12.9317 58.6439 12.5656 54.1866 12.4382C53.7425 12.4223 53.2984 12.4542 52.8701 12.5974C52.0928 12.884 51.5694 13.3774 51.3949 14.237C51.2046 15.208 51.1887 16.195 51.1887 17.166C51.2363 23.0877 51.2839 28.9934 51.3473 34.915C51.3949 39.6746 51.4425 44.4342 51.5059 49.1938C51.5059 49.6236 51.3949 49.7192 50.9825 49.7032C50.0308 49.6714 49.079 49.6714 48.1432 49.7032C47.7466 49.7192 47.6514 49.6077 47.6673 49.2098C47.7625 41.6963 47.8259 34.1669 47.9052 26.6534C47.937 23.4856 47.9687 20.3019 48.0004 17.1342C48.0163 16.2109 47.9528 15.3036 47.8101 14.3803C47.6356 13.2978 46.8742 12.5656 45.7797 12.4542C44.6852 12.3587 43.6066 12.4542 42.5121 12.5019C40.1645 12.6133 37.8169 12.8044 35.4693 13.0431C33.1217 13.2819 30.79 13.5844 28.4741 13.9505C23.8106 14.6827 19.1789 15.5742 14.4995 16.6885Z" fill="#2E3540"/>
<path d="M38.1183 17.5797C38.9907 17.5956 39.9583 17.5956 40.8942 17.8822C42.3694 18.3279 43.0039 19.2989 42.9563 21.0977C42.9087 22.5781 42.6549 24.0267 42.4011 25.4752C41.2432 32.161 39.879 38.8149 38.3404 45.4369C38.1342 46.3283 37.8962 47.2198 37.7059 48.1112C37.6583 48.3659 37.5631 48.4137 37.3252 48.3659C30.9803 46.8696 25.1113 44.4022 20.1306 40.0883C17.0058 37.414 14.6264 34.2144 13.3416 30.2826C12.374 27.3218 12.2313 24.3291 12.8499 21.2728C12.9292 20.9067 13.0878 20.7634 13.4526 20.6838C17.8465 19.7128 22.272 18.9487 26.7451 18.4234C29.6003 18.0891 32.4714 17.8822 35.3424 17.723C36.2307 17.6752 37.119 17.6275 38.1183 17.5797Z" fill="#2E3540"/>
<path d="M61.118 17.5956C64.2905 17.7389 67.3677 17.9299 70.4291 18.2324C73.5381 18.5348 76.6312 18.9487 79.7085 19.4899C81.723 19.8561 83.7375 20.2699 85.7361 20.6838C86.1009 20.7634 86.2437 20.9226 86.323 21.2887C87.3858 26.5418 86.1326 31.2855 83.0712 35.5834C80.3588 39.372 76.774 42.1259 72.7133 44.3067C69.3505 46.1214 65.7815 47.4108 62.0698 48.3022C61.6891 48.3977 61.5463 48.35 61.4511 47.9361C59.6587 40.5022 58.1042 33.0206 56.8194 25.4912C56.5339 23.8675 56.2008 22.2438 56.2642 20.5883C56.3118 19.1238 57.0256 18.2324 58.4532 17.8662C58.9132 17.7389 59.3732 17.6593 59.8491 17.6593C60.3091 17.6275 60.7532 17.532 61.118 17.5956Z" fill="#2E3540"/>
<path d="M50.6334 86.9362C50.4907 86.9362 50.3479 86.9521 50.221 86.9521C47.3183 86.9521 44.3996 86.9521 41.4968 86.9681C41.1479 86.9681 41.0051 86.8566 40.8941 86.5383C39.3237 81.9538 37.7534 77.3852 36.1672 72.8007C36.1196 72.6574 36.0561 72.5141 35.9609 72.2594C35.7865 72.737 35.6437 73.119 35.5168 73.5011C34.0416 77.8309 32.5664 82.1607 31.123 86.4905C31.012 86.8407 30.8533 86.984 30.4568 86.9681C27.6174 86.9521 24.7623 86.9521 21.9229 86.9681C21.4947 86.9681 21.4312 86.8725 21.574 86.4746C24.5878 78.5313 27.5857 70.588 30.5837 62.6288C30.7106 62.2945 30.8692 62.1831 31.234 62.1831C34.3747 62.199 37.5313 62.199 40.672 62.1831C41.0051 62.1831 41.1637 62.2627 41.2906 62.597C44.352 70.5562 47.4293 78.5154 50.5065 86.4587C50.5541 86.6178 50.6493 86.7452 50.6334 86.9362Z" fill="#2E3540"/>
<path d="M84.3403 72.2119C83.7058 74.0743 83.1189 75.8094 82.532 77.5446C81.5168 80.5372 80.4858 83.5299 79.4865 86.5384C79.3754 86.8727 79.2168 86.9682 78.8837 86.9682C76.0126 86.9523 73.1257 86.9523 70.2547 86.9682C69.8898 86.9682 69.7947 86.9205 69.9374 86.5384C72.9671 78.5474 75.9968 70.5564 79.0106 62.5653C79.1216 62.2788 79.2644 62.1992 79.5499 62.1992C82.7382 62.2151 85.9265 62.2151 89.1306 62.1992C89.4003 62.1992 89.5431 62.2788 89.6541 62.5494C92.7472 70.5564 95.8403 78.5474 98.9334 86.5384C99.0762 86.9046 98.9969 86.9842 98.6162 86.9842C95.7134 86.9683 92.7948 86.9683 89.892 86.9842C89.5272 86.9842 89.3844 86.8568 89.2734 86.5225C87.7031 81.9221 86.1168 77.3376 84.5465 72.7372C84.483 72.5939 84.4354 72.4666 84.3403 72.2119Z" fill="#2E3540"/>
<path d="M60.3409 62.1992C64.1478 62.1992 67.9547 62.1992 71.7617 62.1833C72.1741 62.1833 72.301 62.2629 72.2851 62.6927C72.2534 64.7939 72.2693 66.911 72.2851 69.0123C72.2851 69.3943 72.1741 69.4898 71.8093 69.4898C69.8582 69.4739 67.923 69.4898 65.972 69.4739C65.5437 69.4739 65.4168 69.5694 65.4168 70.0151C65.4327 75.4911 65.4168 80.9511 65.4327 86.427C65.4327 86.8568 65.3375 86.9842 64.8933 86.9842C61.9271 86.9682 58.945 86.9682 55.9788 86.9842C55.5347 86.9842 55.4712 86.8409 55.4712 86.4429C55.4871 80.9511 55.4712 75.4751 55.4871 69.9833C55.4871 69.5535 55.376 69.458 54.9636 69.458C52.9333 69.4739 50.8871 69.458 48.8567 69.4739C48.5236 69.4739 48.3808 69.3943 48.3967 69.0282C48.4126 66.8951 48.4126 64.7461 48.3967 62.6131C48.3967 62.2469 48.5077 62.1674 48.8567 62.1674C52.6795 62.1992 56.5181 62.1992 60.3409 62.1992Z" fill="#2E3540"/>
<path d="M11.9614 62.199C15.7683 62.199 19.5752 62.199 23.3821 62.1831C23.7787 62.1831 23.8897 62.2786 23.8897 62.6766C23.8739 64.7778 23.8739 66.8631 23.8897 68.9643C23.8897 69.3782 23.8104 69.5056 23.3663 69.5056C21.4152 69.4737 19.48 69.5056 17.529 69.4896C17.1166 69.4896 17.0055 69.5852 17.0055 70.015C17.0214 75.4909 17.0055 80.9668 17.0214 86.4268C17.0214 86.8885 16.9104 86.9999 16.4504 86.9999C13.5 86.984 10.5338 86.984 7.58342 86.9999C7.18687 86.9999 7.09169 86.8885 7.09169 86.4905C7.10756 80.9986 7.09169 75.5068 7.10756 70.0309C7.10756 69.5852 6.98066 69.4896 6.55238 69.4896C4.52202 69.5056 2.50753 69.4896 0.477171 69.5056C0.112341 69.5056 -0.0145562 69.426 0.00130597 69.0439C0.0171681 66.9109 0.0171681 64.7937 0.00130597 62.6607C0.00130597 62.2786 0.0964789 62.1831 0.477171 62.1831C4.31581 62.199 8.1386 62.199 11.9614 62.199Z" fill="#2E3540"/>
</svg>
