<svg width="124" height="139" fill="none" xmlns="http://www.w3.org/2000/svg"><path d="M57.637 2.022a9 9 0 0 1 9 0l48.444 27.969a9 9 0 0 1 4.5 7.794v55.938a8.998 8.998 0 0 1-4.5 7.794l-48.444 27.969a8.999 8.999 0 0 1-9 0L9.194 101.517a8.999 8.999 0 0 1-4.5-7.794V37.785a9 9 0 0 1 4.5-7.794L57.637 2.02z" fill="#fff" filter="url(#filter0_d)"/><defs><filter id="filter0_d" x=".694" y=".816" width="122.887" height="137.876" filterUnits="userSpaceOnUse" color-interpolation-filters="sRGB"><feFlood flood-opacity="0" result="BackgroundImageFix"/><feColorMatrix in="SourceAlpha" values="0 0 0 0 0 0 0 0 0 0 0 0 0 0 0 0 0 0 127 0"/><feOffset dy="4"/><feGaussianBlur stdDeviation="2"/><feColorMatrix values="0 0 0 0 0 0 0 0 0 0 0 0 0 0 0 0 0 0 0.25 0"/><feBlend in2="BackgroundImageFix" result="effect1_dropShadow"/><feBlend in="SourceGraphic" in2="effect1_dropShadow" result="shape"/></filter></defs></svg>