<svg width="397" height="400" fill="none" xmlns="http://www.w3.org/2000/svg"><circle cx="198.636" cy="198.658" r="197.995" fill="#2E353F"/><path d="M212.896 399.653h-5.576c-7.817-1.9-15.608-1.949-23.425 0h-8.912c-7.617-4.36-16.529-3.532-24.744-5.724-12.646-3.386-24.943-7.186-36.668-12.861 1.643-1.802 3.834-.974 5.751-.974 14.861-.073 29.722-.122 44.584.024 3.236.025 4.555-.706 4.555-4.214-.124-36.17-.099-72.341-.025-108.511 0-3.02-.896-4.116-4.107-4.092-28.055.073-56.085.073-84.14-.049-3.46-.024-4.406 1.121-4.381 4.385.124 30.178.124 60.332.15 90.511-2.838-1.705-6-2.947-7.991-5.748 1.294-1.632-.697-1.291-1.17-1.876l.1.098c-.4-.39-.797-.78-1.196-1.194l.075.073c-.523-.852-1.245-1.339-2.315-1.145l.075.049c.024-.779-.374-1.169-1.195-1.169l.074.073c.05-.804-.348-1.194-1.17-1.145l.075.073c.05-.828-.349-1.218-1.17-1.145l.075.074c.05-.829-.349-1.218-1.17-1.145l.074.073c.05-.828-.348-1.218-1.17-1.145l.075.073c.05-.828-.348-1.218-1.17-1.145l.075.073c.05-.828-.349-1.217-1.17-1.144l.075.073c.05-.828-.349-1.194-1.17-1.145l.074.073c.025-.804-.348-1.194-1.17-1.145l.075.073c0-.779-.398-1.169-1.195-1.169l.05.073c.199-1.047-.274-1.754-1.17-2.289l.075.073c-.125-2.728-.349-5.432-.349-8.16-.025-52.88-.025-105.735-.025-158.614 0-21.629.124-43.234-.1-64.864-.05-4.384 1.37-5.65 5.726-5.48 7.792.292 15.608.244 23.4.024 6.447-.17 12.944.902 19.317-.681 1.469.097 2.962.267 4.431.267 52.699 0 105.424-.024 158.123-.024.373.195.747.365 1.095.56.1 2.29.199 4.579.299 6.845l-.349.073.274-.122c5.85 1.023 11.526 3.434 17.65 2.314 3.335-.609 7.269.779 9.758-.39 3.136-1.461-.672-5.699.697-8.622 3.236 0 6.447.024 9.683.024.05.536.1 1.096.1 1.632 0 88.319 0 176.663.025 264.982 0 1.803.174 3.654-1.17 5.164-1.668 1.291-2.689 3.605-5.402 3.191-.896-.025-1.543.341-1.917 1.169l.075-.049c-.846 0-1.643.073-1.743 1.145l.075-.049c-1.021-.097-2.066-.268-2.315 1.145l.075-.049c-1.021-.121-2.066-.268-2.315 1.145l.074-.049c-1.02-.097-2.066-.268-2.315 1.145l.075-.049c-1.021-.097-2.066-.267-2.315 1.145l.074-.048c-1.02-.074-2.066-.293-2.315 1.144l.075-.048c-.996-.073-2.091-.293-2.315 1.144l.075-.048c-1.569.073-3.56-.731-3.909 1.851-1.095.219-2.29.219-3.236.706-7.169 3.849-14.886 6.601-22.727 8.282-10.754 2.314-21.533 5.358-32.81 4.53-1.394-.268-1.917.731-2.066 1.949zm-26.138-207.037c4.381 9.402 11.426 16.052 21.234 19.924 16.504 8.306 36.892 5.262 51.031-7.599 14.04-12.788 18.421-32.98 10.929-50.468-7.369-17.196-25.093-28.352-43.464-27.353-15.733.146-28.229 6.454-36.867 19.315-9.883 14.712-11.178 30.227-2.863 46.181zm-109.58 44.866v.341h194.591v-.341H77.177zm59.594-109.924c0-.317 0-.633-.025-.95H76.356c0 .317 0 .633.025.95h60.391zm43.588 145.12v.926h60.018v-.926H180.36zm.523 13.884v.365h92.006v-.365h-92.006zm.224 67.543c-.025.146-.05.268-.1.414h91.758v-.414h-91.658zm-12.422-213.394c.175-.122.349-.219.523-.341h-92.08v.341h91.557zm.548 40.409v-.39H77.127v.39h92.106zm-92.08 26.866v.365h92.03v-.365h-92.03z" fill="#FAFBFD"/><path d="M321.307 355.3c-6.497 5.87-13.468 11.107-21.433 14.955 1.369-1.51 1.17-3.337 1.17-5.164 0-88.32 0-176.664-.025-264.984 0-.535-.075-1.096-.1-1.632 2.838-2.143 6.124-1.022 9.136-.852 9.41.487 18.794 1.486 28.229 2.095 3.634.243 4.232 2.216 4.008 5.115-.846 11.375-1.618 22.774-2.564 34.124-.921 11.181-2.066 22.336-3.062 33.516-1.444 15.857-2.913 31.714-4.257 47.57-1.244 14.615-2.315 29.229-3.56 43.843-1.344 15.492-2.837 30.983-4.207 46.499-.896 10.279-1.941 20.557-2.34 30.861-.199 4.7-1.966 9.28-.995 14.054z" fill="#537F99"/><path d="M113.571 381.045c-5.601-3.581-12.397-4.994-17.55-9.378 2.714-1.437 2.116-3.97 2.116-6.26.025-20.631 0-41.261 0-61.892 0-9.037.025-18.098-.025-27.134 0-1.656.673-4.092-2.215-4.043-2.639.048-5.526-1.121-7.941.925-1.344 1.608-.722 3.483-.722 5.237a4580.69 4580.69 0 0 0-.025 36.999c.075 15.954.224 31.884.324 47.838a53.218 53.218 0 0 1-.548 1.875c-.796-.17-1.568-.341-2.365-.487l.075.049c-.075-.95-.697-1.096-1.494-.95l-7.244-5.7c-.025-30.179 0-60.333-.149-90.512-.025-3.264.921-4.408 4.381-4.384 28.055.146 56.085.146 84.14.049 3.211 0 4.107 1.071 4.107 4.092-.074 36.17-.099 72.341.025 108.512 0 3.483-1.319 4.238-4.555 4.214-14.862-.122-29.723-.098-44.584-.025-1.917.025-4.108-.828-5.751.975zm23.798-39.752c0-8.695-.199-17.415.075-26.111.149-4.335-2.464-3.994-5.327-3.97-2.788.024-5.427-.536-5.377 3.873.199 17.22.199 34.441 0 51.686-.05 3.946 1.742 4.482 5.028 4.336 3.062-.122 5.875.389 5.701-4.263-.324-8.476-.1-17.026-.1-25.551zm-30.345 7.624c0 5.992.224 12.008-.074 17.976-.2 4.116 2.066 4.311 5.177 4.214 3.062-.098 6 .292 5.95-4.263-.174-11.813-.199-23.626 0-35.415.075-4.531-2.913-3.727-5.601-3.751-2.713-.025-5.726-.707-5.526 3.799.273 5.797.074 11.619.074 17.44zm49.912 13.348v-6.528c0-1.339-.324-2.314-1.942-2.801-5.999-1.705-8.812.268-8.837 6.406 0 1.997.174 3.995-.05 5.968-.448 4.019.622 5.797 5.352 5.699 4.332-.097 6.199-1.193 5.502-5.529-.15-.998 0-2.119-.025-3.215z" fill="#E5E5E5"/><path d="M226.488 127.119c18.371-.998 36.07 10.133 43.464 27.354 7.493 17.488 3.136 37.68-10.928 50.468-14.14 12.885-34.528 15.905-51.032 7.599 3.759-4.408 5.029-9.962 7.369-15.028 1.419.438 2.813.95 4.231 1.315 21.284 5.627 40.452-12.325 35.623-33.369-2.838-12.423-13.343-20.266-28.627-21.459a3799.33 3799.33 0 0 1-.1-16.88z" fill="#2E353F"/><path d="M282 90.827c1.27 0 2.539-.024 3.784-.024 5.999.097 7.07 1.583 5.427 7.624-1.345 2.923 2.464 7.161-.697 8.622-2.49 1.17-6.423-.243-9.759.39-6.123 1.145-11.799-1.291-17.649-2.314l.075.049c-.1-2.29-.199-4.579-.299-6.845-.373-.194-.747-.365-1.095-.56-52.7.024-105.424.024-158.123.024-1.469 0-2.963-.17-4.431-.268-.672-4.579 1.244-8.963 1.07-13.494-.124-3.434 2.44-3.093 4.63-2.947 11.426.755 22.852 1.51 34.254 2.436 10.853.877 21.657 2.046 32.51 2.972 16.903 1.461 33.831 2.85 50.733 4.238 12.696 1.047 25.367 2.046 38.062 3.069 6-4.847 13.343-2.07 19.965-3.435.547.025.547 1.998 1.543.463zm-55.512 36.293l.074 16.904c-6.721.877-13.044 2.728-18.172 7.38-10.455 9.5-11.824 20.777-6.746 33.297-4.954 2.655-9.932 5.286-14.886 7.941-8.314-15.954-7.02-31.47 2.888-46.207 8.613-12.861 21.109-19.194 36.842-19.315z" fill="#537F99"/><path d="M186.758 192.616c4.954-2.655 9.933-5.285 14.886-7.94 3.635 5.237 8.041 9.694 13.717 12.836-2.34 5.066-3.635 10.62-7.369 15.029-9.808-3.849-16.853-10.523-21.234-19.925z" fill="#C7CCD2"/><path d="M77.177 237.482h194.592v.343H77.177v-.343zm59.595-109.923H76.381c0-.317 0-.634-.025-.951h60.391c.025.317.025.634.025.951z" fill="#6CB7DE"/><path d="M180.36 272.68h60.018v.926H180.36v-.926z" fill="#E55539"/><path d="M180.883 286.562h92.006v.366h-92.006v-.366zm-12.198-145.851H77.127v-.341h92.081c-.174.121-.348.219-.523.341zm.548 40.41H77.127v-.391h92.106v.391zm-92.081 26.864h92.031v.367h-92.03v-.367z" fill="#6CB7DE"/><path d="M263.131 105.125l-.274.122.349-.073-.075-.049zM87.01 365.212a53.9 53.9 0 0 1 .548-1.876c.15-1.607.398-3.215.398-4.822.025-28.426 0-56.827 0-85.252 2.415-2.046 5.302-.901 7.941-.925 2.888-.049 2.216 2.387 2.216 4.043.05 9.037.025 18.098.025 27.134v61.893c0 2.289.597 4.823-2.117 6.26-3.012-.975-5.476-2.85-7.965-4.677-.424-.317-.847-.633-1.27-.974l-.1-.098c.15-.219.25-.463.324-.706z" fill="#537F99"/><path d="M137.369 341.294c0 8.525-.224 17.049.1 25.574.174 4.653-2.639 4.141-5.701 4.263-3.285.146-5.078-.414-5.028-4.336.199-17.22.199-34.465 0-51.685-.05-4.433 2.589-3.849 5.377-3.873 2.863-.024 5.476-.39 5.327 3.97-.274 8.696-.075 17.391-.075 26.087zm-49.413-68.029c0 28.424.025 56.825 0 85.249 0 1.608-.274 3.215-.398 4.823-.1-15.954-.25-31.883-.324-47.837-.05-12.325-.05-24.65.025-36.999 0-1.753-.647-3.629.697-5.236z" fill="#6CB7DE"/><path d="M215.361 197.513c-5.676-3.143-10.082-7.576-13.717-12.837-5.053-12.52-3.709-23.773 6.746-33.297 5.128-4.652 11.451-6.504 18.173-7.38 15.309 1.193 25.789 9.036 28.652 21.459 4.829 21.045-14.339 38.997-35.623 33.37-1.419-.365-2.813-.877-4.231-1.315z" fill="#FAFBFD"/></svg>