<svg width="450" height="187" viewBox="0 0 450 187" fill="none" xmlns="http://www.w3.org/2000/svg">
<g clip-path="url(#clip0)">
<path d="M256.043 0C256.043 12.2 256.043 23.9 256.043 35.8C256.643 35.7 257.343 35.6 257.943 35.4C280.943 26 300.743 36.7 304.643 61.2C306.743 74.5 304.643 87.2 295.943 98.1C288.743 107.2 278.843 111.3 267.643 112.4C256.443 113.5 245.443 111.7 234.543 109.6C232.143 109.1 232.443 107.7 232.443 106C232.543 81.1 232.743 56.3 232.743 31.4C232.743 27.9 232.543 24.4 232.343 20.9C231.943 13.6 230.243 11.7 223.343 9.6C222.643 9.4 221.843 8.5 221.643 7.7C221.543 7.3 222.443 6.1 222.943 6C234.043 4 244.943 2 256.043 0ZM255.743 73.8C255.943 73.8 256.043 73.8 256.243 73.8C256.243 83.7 256.343 93.5 256.243 103.4C256.243 105.8 257.043 106.6 259.443 106.8C266.243 107.4 271.143 104.6 274.343 98.9C281.243 86.6 282.243 73.3 279.943 59.7C279.243 55.5 277.543 51.3 275.443 47.6C271.843 41.2 265.743 39.3 258.643 41.2C256.343 41.8 255.743 42.9 255.743 45.1C255.843 54.6 255.743 64.2 255.743 73.8Z" fill="#2E3540"/>
<path d="M71.4428 74.7998C69.9428 74.7998 68.6428 74.7998 67.1428 74.7998C66.2428 72.1998 65.4428 69.3998 64.2428 66.8998C62.2428 62.5998 58.9428 60.0998 53.9428 60.0998C49.9428 60.0998 46.0428 60.0998 42.0428 60.0998C42.0428 66.2998 41.8428 72.6998 42.1428 78.9998C42.4428 84.7998 42.9428 90.6998 43.8428 96.4998C44.6428 101.9 47.9428 105 53.7428 105.5C56.2428 105.7 60.5428 105.1 58.8428 110.4C39.6428 110.4 20.4428 110.4 1.24283 110.4C0.242827 107.7 0.742827 106.3 3.84283 105.7C12.8428 103.8 14.7428 102 15.8428 92.9998C16.6428 86.6998 16.9428 80.2998 16.9428 73.8998C16.9428 57.7998 16.7428 41.6998 16.4428 25.5998C16.4428 22.6998 16.0428 19.8998 15.4428 17.0998C14.1428 10.5998 11.3428 8.1998 4.84283 7.2998C3.64283 7.1998 2.44283 6.8998 1.14283 6.6998C1.14283 5.1998 1.14283 3.8998 1.14283 2.2998C31.3428 2.2998 61.4428 2.2998 92.2428 2.2998C92.2428 9.6998 92.2428 16.8998 92.2428 24.0998C92.2428 25.4998 92.0428 26.8998 92.3428 28.1998C93.1428 32.1998 91.1428 33.5998 87.1428 33.7998C86.1428 31.4998 85.0428 28.9998 83.9428 26.4998C79.1428 15.2998 70.8428 9.2998 58.2428 9.8998C53.2428 10.0998 48.2428 9.8998 42.5428 9.8998C42.5428 24.3998 42.5428 38.6998 42.5428 53.6998C47.1428 53.3998 52.4428 53.5998 57.4428 52.4998C62.8428 51.3998 64.9428 46.4998 65.9428 41.5998C66.6428 38.2998 68.2428 37.4998 71.4428 38.4998C71.4428 50.4998 71.4428 62.4998 71.4428 74.7998Z" fill="#2E3540"/>
<path d="M159.843 75.6C159.543 87.6 154.043 101.3 138.543 108.4C123.543 115.3 108.343 114.8 94.5428 104.6C86.1428 98.4 82.5428 89.2 81.2428 79C79.6428 65.7 81.8428 53.3 91.2428 43C107.543 25.2 140.343 27 153.143 46.3C158.043 54 159.843 62.5 159.843 75.6ZM104.543 70.6C104.743 70.6 104.943 70.7 105.143 70.7C105.343 74.2 104.943 77.8 105.743 81.2C107.243 87.8 108.843 94.5 111.243 100.9C112.843 105 116.443 107.6 121.343 107.3C126.143 107 129.143 104.2 131.143 100.2C132.143 98.2 133.143 96 133.343 93.9C134.143 83.9 135.243 73.8 134.843 63.7C134.543 57.1 132.343 50.5 130.143 44.2C128.443 39.4 124.643 36.1 118.943 36.3C113.243 36.5 110.543 40.5 108.543 45.2C108.243 46 107.843 46.8 107.743 47.7C106.743 55.3 105.643 63 104.543 70.6Z" fill="#2E3540"/>
<path d="M383.943 68.3002C367.543 68.3002 351.943 68.3002 336.443 68.3002C334.143 77.1002 339.043 90.8002 346.843 96.1002C357.843 103.6 369.143 102.7 380.343 95.9002C383.443 97.3002 382.343 99.1002 380.543 100.9C369.543 111.7 356.243 114.7 341.443 111.5C322.543 107.5 311.143 91.1002 311.843 69.8002C312.643 48.4002 327.343 32.7002 348.143 31.1002C366.743 29.6002 379.843 39.8002 382.843 58.2002C383.443 61.3002 383.543 64.5002 383.943 68.3002ZM360.743 62.0002C359.343 54.9002 358.743 48.4002 356.743 42.3002C354.343 35.0002 347.443 34.0002 342.643 40.1002C337.643 46.5002 336.343 54.2002 335.843 62.0002C343.943 62.0002 351.643 62.0002 360.743 62.0002Z" fill="#2E3540"/>
<path d="M442.343 56.0998C440.243 52.0998 438.543 48.1998 436.343 44.5998C433.043 39.3998 428.143 36.6998 421.843 36.6998C417.243 36.6998 413.543 39.2998 411.943 43.4998C410.243 47.9998 410.943 52.5998 414.643 55.3998C417.843 57.8998 421.643 59.6998 425.243 61.5998C429.243 63.5998 433.543 65.0998 437.543 67.0998C445.043 70.8998 449.843 76.6998 449.843 85.6998C449.843 95.1998 446.043 102.6 437.843 107.5C428.643 113 418.543 113.2 408.343 112.1C402.943 111.5 397.543 110 392.243 109C390.043 108.6 389.243 107.5 389.243 105.1C389.343 99.4998 389.043 93.8998 388.943 88.1998C388.843 84.9998 388.943 84.9998 392.443 84.1998C393.943 87.2998 395.343 90.4998 397.043 93.4998C401.243 101 407.343 105.6 416.443 105.1C422.343 104.7 426.343 101.5 427.743 95.8998C429.043 90.6998 427.143 86.3998 421.643 83.4998C417.543 81.3998 413.143 79.7998 408.943 77.9998C406.743 77.0998 404.543 76.1998 402.443 75.0998C386.443 67.2998 386.643 45.8998 400.543 36.9998C405.243 33.9998 410.943 31.9998 416.443 31.1998C425.243 29.7998 434.143 31.2998 442.643 33.9998C444.643 34.5998 445.343 35.6998 445.243 37.7998C445.143 42.4998 445.243 47.2998 445.643 51.9998C445.843 54.7998 445.043 56.0998 442.343 56.0998Z" fill="#2E3540"/>
<path d="M208.043 110.4C192.043 110.4 176.343 110.4 160.443 110.4C160.443 109 160.443 107.8 160.443 106.7C170.543 103.4 170.943 103.4 171.143 92.2999C171.443 78.2999 171.243 64.2999 170.843 50.3999C170.643 44.0999 168.843 42.5999 162.643 41.2999C161.743 41.0999 161.043 40.1999 160.243 39.5999C160.843 38.8999 161.443 37.5999 162.143 37.4999C172.943 35.2999 183.643 33.2999 194.743 31.0999C194.743 36.5999 194.743 41.7999 194.743 47.1999C197.143 44.0999 199.143 40.8999 201.743 38.1999C207.843 31.9999 215.143 29.1999 223.843 31.7999C226.243 32.4999 227.143 33.3999 225.943 36.0999C223.343 41.9999 221.143 48.0999 218.843 53.9999C215.243 52.8999 211.943 51.3999 208.643 50.9999C205.243 50.6999 201.743 51.2999 198.343 51.9999C195.643 52.4999 194.243 54.3999 194.343 57.4999C194.643 70.1999 194.543 82.9999 195.043 95.6999C195.343 104.1 197.043 105.4 205.343 106.3C208.443 106.3 208.443 106.3 208.043 110.4Z" fill="#2E3540"/>
</g>
<g clip-path="url(#clip1)">
<path d="M260.772 159.949H230.491L226.928 168.363C225.656 171.167 225.147 173.462 225.147 175.247C225.147 177.541 226.165 179.326 227.946 180.601C228.964 181.366 232.017 181.876 236.343 182.131V184.425H207.843V182.131C210.896 181.621 213.441 180.346 215.477 178.306C217.513 176.267 219.803 171.932 222.857 165.303L253.647 96.4648H254.92L285.965 167.088C289.018 173.717 291.309 178.051 293.344 179.836C294.871 181.111 296.907 181.876 299.452 182.131V184.425H257.464V182.131H259.246C262.554 182.131 264.844 181.621 266.371 180.856C267.389 180.091 267.643 179.326 267.643 178.051C267.643 177.286 267.643 176.521 267.389 175.757C267.389 175.502 266.625 173.717 265.607 170.912L260.772 159.949ZM258.737 155.105L246.013 125.53L232.781 155.105H258.737Z" fill="#848D9A"/>
<path d="M342.457 123.236L343.475 143.378H341.439C338.894 137.259 336.095 133.18 333.551 131.14C330.751 128.845 327.952 127.826 325.153 127.826C323.372 127.826 321.845 128.336 320.827 129.61C319.555 130.885 319.046 132.16 319.046 133.69C319.046 134.709 319.555 135.984 320.318 137.004C321.59 138.789 325.408 141.593 331.769 145.928C337.876 150.262 341.948 153.831 343.984 156.636C346.019 159.695 347.037 162.755 347.037 166.579C347.037 169.894 346.274 173.208 344.493 176.268C342.711 179.327 340.421 181.877 337.622 183.661C334.568 185.446 331.26 186.211 327.698 186.211C324.899 186.211 321.082 185.446 316.247 183.661C314.974 183.151 314.211 182.896 313.702 182.896C312.43 182.896 311.157 183.916 310.139 185.956H308.104L307.086 164.54H309.121C310.903 170.149 313.702 174.228 317.01 177.032C320.318 179.837 323.372 181.112 326.425 181.112C328.461 181.112 329.988 180.602 331.515 179.327C332.787 178.052 333.551 176.523 333.551 174.738C333.551 172.698 333.042 170.913 331.769 169.384C330.497 167.854 327.698 165.559 323.372 162.755C317.01 158.166 312.684 154.851 310.903 152.557C308.104 148.987 306.831 145.163 306.831 141.083C306.831 136.494 308.358 132.415 311.666 128.591C314.974 124.766 319.3 122.981 325.408 122.981C328.716 122.981 331.769 123.746 334.823 125.276C335.841 125.786 336.859 126.296 337.622 126.296C338.385 126.296 338.894 126.041 339.403 125.786C339.912 125.531 340.676 124.511 341.694 122.981H342.457V123.236Z" fill="#848D9A"/>
<path d="M378.592 125.021V172.188C378.592 176.268 379.1 179.072 380.118 180.347C381.136 181.622 382.918 182.132 385.717 182.387V184.681H353.654V182.387C356.198 182.387 358.234 181.622 359.506 180.092C360.27 179.072 360.779 176.523 360.779 172.443V137.259C360.779 133.18 360.27 130.375 359.252 129.1C358.234 127.826 356.453 127.316 353.654 127.061V124.766H378.592V125.021ZM369.685 96.2109C372.484 96.2109 374.774 97.2308 376.556 99.0155C378.337 101.055 379.355 103.35 379.355 105.899C379.355 108.704 378.337 110.998 376.556 112.783C374.774 114.568 372.23 115.588 369.685 115.588C366.886 115.588 364.596 114.568 362.814 112.783C361.033 110.998 360.015 108.449 360.015 105.899C360.015 103.095 361.033 100.8 362.814 99.0155C364.596 97.2308 366.886 96.2109 369.685 96.2109Z" fill="#848D9A"/>
<path d="M424.141 175.503C417.016 181.876 410.4 185.191 404.802 185.191C401.494 185.191 398.695 184.171 396.404 181.876C394.114 179.582 393.096 176.777 393.096 173.463C393.096 168.874 395.132 164.794 398.949 161.225C402.766 157.656 411.418 152.811 424.396 146.692V140.828C424.396 136.239 424.141 133.435 423.633 132.415C423.124 131.14 422.106 130.12 420.833 129.355C419.561 128.59 418.034 128.08 416.253 128.08C413.454 128.08 411.164 128.59 409.382 129.865C408.364 130.63 407.855 131.395 407.855 132.415C407.855 133.18 408.364 134.454 409.637 135.729C411.164 137.514 411.927 139.299 411.927 141.083C411.927 143.123 411.164 144.908 409.637 146.437C408.11 147.967 406.074 148.732 403.529 148.732C400.985 148.732 398.695 147.967 396.913 146.437C395.132 144.908 394.114 142.868 394.114 140.828C394.114 137.769 395.386 134.964 397.677 132.16C399.967 129.355 403.529 127.316 407.855 125.786C412.181 124.256 416.762 123.491 421.342 123.491C426.941 123.491 431.521 124.766 434.575 127.061C437.883 129.355 439.919 132.16 440.936 134.964C441.445 136.749 441.7 140.828 441.7 147.202V170.148C441.7 172.953 441.7 174.483 441.954 175.248C442.209 176.012 442.463 176.522 442.972 176.777C443.481 177.032 443.99 177.287 444.499 177.287C445.517 177.287 446.789 176.522 447.807 174.993L449.588 176.522C447.553 179.582 445.262 181.876 442.972 183.406C440.682 184.936 438.137 185.446 435.338 185.446C432.03 185.446 429.231 184.681 427.45 183.151C425.668 181.112 424.65 178.817 424.141 175.503ZM424.141 170.913V151.027C419.052 154.086 415.235 157.146 412.69 160.715C411.164 163.01 410.146 165.304 410.146 167.599C410.146 169.639 410.909 171.168 412.181 172.698C413.199 173.718 414.726 174.483 416.507 174.483C419.052 174.483 421.342 173.208 424.141 170.913Z" fill="#848D9A"/>
</g>
<defs>
<clipPath id="clip0">
<rect width="449" height="113" fill="white" transform="translate(0.842834)"/>
</clipPath>
<clipPath id="clip1">
<rect width="242" height="90" fill="white" transform="translate(207.843 96.2109)"/>
</clipPath>
</defs>
</svg>
