<svg width="532" height="270" viewBox="0 0 532 270" fill="none" xmlns="http://www.w3.org/2000/svg">
<g clip-path="url(#clip0)">
<path d="M216.87 66.2657C219.136 66.2657 220.904 66.2657 222.626 66.2657C243.565 66.2657 264.459 66.2657 285.398 66.2657C303.391 66.2657 308.603 71.4293 308.558 89.23C308.558 94.7106 308.603 100.237 308.059 105.672C307.198 113.734 303.165 117.856 295.233 119.396C292.06 120.03 288.752 120.528 285.534 120.528C261.785 120.619 238.081 120.574 214.332 120.528C212.111 120.528 209.936 120.03 207.715 119.849C197.155 118.943 189.903 113.915 191.943 96.93C195.297 96.2959 198.787 95.6618 202.231 95.0277C205.585 94.4388 208.939 93.8953 212.746 93.2612C212.746 96.613 212.746 99.8289 212.746 103.407C214.604 103.543 216.009 103.679 217.459 103.679C239.124 103.679 260.788 103.588 282.452 103.769C286.44 103.815 287.619 102.547 287.392 98.6965C287.075 93.7141 287.302 88.6864 287.302 83.2058C284.9 83.2058 283.177 83.2058 281.41 83.2058C259.745 83.1152 238.081 83.0246 216.462 82.8888C214.695 82.8888 212.927 82.617 211.16 82.3905C200.871 80.9864 196.43 76.5023 195.886 66.1298C195.569 59.4716 195.523 52.768 196.112 46.155C196.838 37.8661 200.554 33.9708 208.712 32.2949C212.474 31.5249 216.326 31.072 220.179 31.0267C241.118 30.8908 262.012 30.8002 282.951 31.1172C288.163 31.2078 293.556 32.2496 298.542 33.8802C304.524 35.8279 308.649 44.7056 307.062 50.8203C306.881 51.5903 305.929 52.6321 305.159 52.768C298.95 54.1268 292.695 55.3045 286.35 56.5727C286.169 55.7121 285.942 55.1233 285.897 54.5798C285.398 46.5626 285.398 46.5626 277.421 46.5626C258.748 46.5626 240.03 46.6532 221.357 46.4721C217.822 46.4268 216.689 47.5138 216.87 51.0015C217.097 55.8933 216.87 60.7851 216.87 66.2657Z" fill="#2E3540"/>
<path d="M24.2944 119.668C24.2944 90.2717 24.2944 60.9662 24.2944 31.4343C25.0649 31.2078 25.7447 30.8908 26.4245 30.8908C51.6239 30.936 76.8233 30.619 102.023 31.2078C114.396 31.5249 126.225 35.0125 136.604 42.4861C156.727 56.9803 156.908 91.0417 137.148 107.484C127.539 115.501 116.254 118.898 104.289 119.26C78.0923 119.985 51.8505 119.94 25.6541 120.166C25.2915 120.166 25.0195 119.985 24.2944 119.668ZM48.7686 46.6079C48.7686 65.8128 48.7686 84.2476 48.7686 103.135C61.8668 103.135 74.7385 103.452 87.5648 102.999C94.4538 102.728 101.388 101.55 108.141 100.01C114.804 98.47 120.424 94.8012 123.642 88.4147C132.978 69.9345 122.916 50.0503 102.385 47.6044C92.0064 46.3814 81.4009 46.8344 70.886 46.6532C63.6797 46.5173 56.4281 46.6079 48.7686 46.6079Z" fill="#2E3540"/>
<path d="M439.948 63.5933C439.948 58.8827 439.858 54.625 439.994 50.3673C440.084 47.9214 439.223 46.8797 436.685 46.925C416.834 46.9702 396.937 46.9702 377.086 46.925C374.457 46.925 373.868 48.1479 373.868 50.5032C373.913 67.081 373.959 83.704 373.868 100.282C373.868 103.045 374.865 103.86 377.539 103.815C397.118 103.724 416.698 103.724 436.277 103.815C439.268 103.815 440.13 102.728 440.039 99.9194C439.858 94.8917 439.994 89.9093 439.994 84.4287C447.744 85.7423 454.995 86.8746 462.202 88.2787C463.063 88.4599 464.332 90.0452 464.287 90.9964C464.241 96.477 464.241 101.958 463.471 107.393C462.61 113.553 458.802 117.584 452.593 118.807C448.696 119.577 444.707 120.257 440.719 120.302C418.193 120.438 395.623 120.392 373.097 120.347C371.013 120.347 368.973 120.121 366.934 119.849C354.424 118.128 350.391 114.957 349.802 102.501C348.986 84.7458 348.986 66.9451 349.756 49.1897C350.345 35.9637 355.648 31.6607 369.653 31.2078C383.748 30.7548 397.844 30.8454 411.894 30.936C424.04 31.0266 436.232 30.8001 448.288 31.7966C459.346 32.7025 463.018 37.3225 464.105 48.465C465.284 60.5133 465.284 60.5133 453.182 61.9627C448.967 62.4156 444.752 62.9592 439.948 63.5933Z" fill="#2E3540"/>
<path d="M506.799 120.302C506.799 90.1813 506.799 60.9211 506.799 31.208C514.821 31.208 522.707 31.208 531.002 31.208C531.092 32.7027 531.228 34.1068 531.228 35.5563C531.228 62.1894 531.137 88.8678 531.319 115.501C531.364 119.577 530.05 120.529 526.243 120.347C519.943 120.121 513.598 120.302 506.799 120.302Z" fill="#2E3540"/>
<path d="M281.138 235.893C281.954 235.667 282.271 235.576 282.543 235.531C289.84 235.169 289.84 235.169 291.834 242.053C292.967 246.039 294.145 250.025 295.324 253.966C295.46 254.373 295.732 254.736 296.502 256.276C298.406 249.844 300.128 244.318 301.624 238.747C302.258 236.391 303.346 235.576 305.884 235.35C310.235 234.942 311.731 236.482 312.229 240.785C313.181 249.617 314.767 258.359 316.082 267.146C316.127 267.554 315.946 268.007 315.81 268.686C313.498 268.686 311.232 268.686 308.467 268.686C307.516 262.164 306.609 255.642 305.657 249.164C305.385 249.119 305.113 249.119 304.842 249.074C303.346 254.237 301.85 259.401 300.309 264.565C299.675 266.739 299.675 269.139 296.094 269.094C292.695 269.049 292.831 266.739 292.242 264.746C290.746 259.809 289.296 254.826 286.803 249.799C286.123 254.102 285.443 258.45 284.809 262.753C283.812 269.411 283.857 269.411 276.107 268.596C277.829 257.725 279.461 246.854 281.138 235.893Z" fill="#2E3540"/>
<path d="M86.8396 268.687C84.0749 268.687 81.6275 268.687 78.7269 268.687C78.7269 257.816 78.7269 246.991 78.7269 236.12C85.9785 234.353 86.749 234.671 90.7374 240.649C94.2725 245.904 97.853 251.112 102.068 257.272C102.068 249.527 102.068 242.733 102.068 235.712C105.014 235.712 107.461 235.712 110.362 235.712C110.362 246.628 110.362 257.499 110.362 268.324C102.974 269.955 102.34 269.683 98.2609 263.659C94.6351 258.314 91.0546 253.015 86.8849 246.855C86.8396 254.736 86.8396 261.575 86.8396 268.687Z" fill="#2E3540"/>
<path d="M236.087 252.109C236.132 242.461 244.019 234.67 253.763 234.716C263.553 234.761 271.484 242.506 271.529 252.063C271.575 261.756 263.371 269.864 253.582 269.773C243.928 269.683 236.087 261.711 236.087 252.109ZM244.834 252.244C244.834 258.133 248.596 262.3 253.808 262.209C258.748 262.119 262.601 257.906 262.691 252.471C262.827 246.809 258.93 242.37 253.808 242.325C248.596 242.234 244.834 246.401 244.834 252.244Z" fill="#2E3540"/>
<path d="M148.796 268.732C144.082 268.958 139.55 270.498 138.689 264.112C138.598 263.568 137.057 262.889 136.196 262.843C133.25 262.662 130.259 262.662 127.313 262.843C126.361 262.934 124.775 263.795 124.639 264.474C123.642 270.725 119.2 268.686 114.894 268.867C115.982 265.516 116.843 262.572 117.84 259.673C120.197 252.652 122.69 245.677 125.001 238.656C125.726 236.391 126.86 235.395 129.443 235.395C137.329 235.395 137.329 235.259 139.867 242.642C142.722 251.203 145.668 259.673 148.796 268.732ZM136.604 256.638C135.018 251.429 133.567 246.809 132.162 242.144C131.8 242.189 131.482 242.234 131.12 242.28C129.805 246.9 128.446 251.565 126.995 256.593C130.531 256.638 133.114 256.638 136.604 256.638Z" fill="#2E3540"/>
<path d="M172.726 237.796C171.91 239.562 171.185 241.147 170.369 242.914C168.194 242.325 166.109 241.328 164.024 241.283C162.71 241.238 161.35 242.597 160.036 243.367C160.942 244.68 161.622 246.266 162.846 247.217C163.933 248.077 165.61 248.213 167.015 248.621C170.958 249.617 173.723 251.791 174.312 256.004C174.947 260.579 173.768 264.564 169.825 267.373C165.021 270.815 156.229 270.543 151.968 266.467C148.569 263.206 152.965 261.575 153.645 259.084C155.957 260.397 157.906 261.802 160.036 262.662C162.755 263.749 165.202 262.934 166.154 260.035C167.061 257.317 165.202 256.004 162.846 255.234C161.169 254.69 159.446 254.192 157.77 253.558C153.736 252.063 151.379 249.391 151.651 244.861C151.878 240.377 154.37 236.98 158.676 235.576C163.163 233.991 167.65 234.625 172.726 237.796Z" fill="#2E3540"/>
<path d="M181.247 259.129C183.286 260.307 185.235 262.119 187.411 262.391C189.314 262.617 192.305 261.666 193.212 260.216C194.753 257.771 192.849 255.868 190.175 255.053C188.498 254.555 186.776 254.011 185.099 253.377C181.02 251.882 178.89 249.074 179.162 244.59C179.479 240.106 181.7 237.071 185.87 235.576C190.81 233.81 195.433 234.806 200.237 237.524C199.376 239.426 198.605 241.147 197.835 242.823C195.387 242.235 193.167 241.283 190.946 241.283C189.722 241.283 188.498 242.869 187.275 243.775C188.09 244.862 188.68 246.311 189.767 247.036C191.082 247.896 192.849 248.078 194.39 248.576C199.738 250.342 201.823 252.833 201.959 257.68C202.095 262.753 199.421 267.418 194.617 268.641C191.444 269.456 187.818 269.638 184.646 268.958C177.394 267.373 176.805 265.108 181.247 259.129Z" fill="#2E3540"/>
<path d="M231.147 259.311C231.917 268.234 228.518 271.223 219.907 269.411C209.664 267.283 204.135 258.133 206.627 247.625C208.848 238.203 217.958 233.04 227.385 235.259C233.776 236.754 230.603 241.329 231.419 244.771C228.609 243.956 225.889 242.416 223.442 242.733C220.995 243.05 218.23 244.816 216.553 246.764C213.788 249.935 214.468 255.506 217.188 258.677C220.405 262.436 224.53 262.662 231.147 259.311Z" fill="#2E3540"/>
<path d="M12.4199 78.1328C10.335 84.9723 7.16243 93.5782 5.16823 102.411C4.03517 107.348 4.03517 112.783 4.80565 117.811C7.11711 132.803 19.0823 141.319 34.9452 140.413C47.0464 139.688 57.9691 135.43 68.8012 130.584C54.9778 138.737 40.5199 144.987 23.9318 143.9C10.2897 142.994 0.862583 132.894 0.454679 118.988C0.137421 105.762 5.7121 87.6899 12.4199 78.1328Z" fill="#2E3540"/>
<path d="M147.935 30.9361C146.484 33.5178 145.079 36.009 143.312 39.1343C141.181 36.2355 139.414 33.7896 137.646 31.3437C138.054 31.389 138.507 31.389 138.915 31.4343C139.369 29.7584 140.456 28.0372 140.23 26.4972C137.782 9.51179 127.041 1.72115 108.957 3.8047C94.2725 5.48059 80.993 11.233 68.2573 18.4801C66.8977 19.2501 65.538 20.0654 63.9517 20.926C63.997 20.3372 63.9517 19.9748 64.0877 19.8842C79.6786 8.10767 96.8559 0.271732 116.753 -3.4227e-05C131.936 -0.226506 141.544 8.37943 143.538 23.4172C144.354 29.6225 144.354 29.6225 147.935 30.9361Z" fill="#2E3540"/>
<path d="M56.2922 268.505C53.0743 269.955 51.3067 268.958 50.7628 266.059C49.8111 261.168 46.8651 259.628 42.1969 260.398C41.4717 260.534 40.7012 260.488 39.976 260.398C35.0812 259.673 31.682 260.896 30.8209 266.422C30.3676 269.411 28.1922 269.547 25.2462 268.641C29.4159 258.495 33.4949 248.395 37.8006 238.385C38.9789 235.622 42.7407 235.712 43.9644 238.566C48.1794 248.485 52.1678 258.495 56.2922 268.505ZM41.4264 241.963C41.0638 241.917 40.7012 241.872 40.3386 241.827C38.4804 246.673 36.6222 251.475 34.6733 256.638C39.1602 256.638 42.8314 256.638 47.0917 256.638C45.0522 251.52 43.2393 246.764 41.4264 241.963Z" fill="#2E3540"/>
<path d="M68.2573 123.699C66.4444 125.783 65.538 128.138 61.5043 128.364C57.4706 128.546 53.6634 131.761 49.5391 132.758C43.5565 134.162 37.3473 135.43 31.2287 135.566C17.9492 135.838 8.97532 126.87 8.43145 113.508C8.06887 104.947 10.2897 96.8848 13.9608 89.1394C13.3263 93.0347 12.5105 96.9753 12.1479 100.916C11.8306 104.132 11.7853 107.393 12.0119 110.609C13.145 125.239 22.7987 134.071 37.4379 132.803C44.8255 132.169 52.1678 129.859 59.3288 127.73C62.2294 126.87 64.6315 124.333 67.2602 122.567C67.6681 122.929 67.9854 123.337 68.2573 123.699Z" fill="#2E3540"/>
<path d="M531.5 261.077C529.325 268.415 525.019 270.997 519.263 269.638C513.28 268.279 510.062 262.391 511.377 255.325C512.646 248.485 517.087 245.043 523.523 245.903C529.234 246.673 531.727 250.478 531.047 258.224C526.016 258.224 520.94 258.224 515.682 258.224C515.365 262.164 516.226 265.063 519.535 266.331C522.481 267.509 524.883 266.377 526.741 263.614C527.421 262.572 529.189 262.255 531.5 261.077ZM515.592 254.917C519.625 254.917 523.206 254.917 526.922 254.917C527.33 251.067 525.472 249.119 522.073 248.848C518.266 248.576 516.226 250.75 515.592 254.917Z" fill="#2E3540"/>
<path d="M432.833 252.562C433.784 246.719 436.866 245.133 442.668 245.903C447.064 246.492 449.602 249.119 449.693 253.558C449.829 258.541 449.738 263.568 449.738 269.411C448.016 268.822 446.52 268.279 445.387 267.916C442.668 268.596 439.903 269.864 437.184 269.774C433.648 269.638 431.11 267.418 430.838 263.568C430.612 259.854 432.425 257.182 435.96 256.231C438.906 255.415 441.988 255.279 446.112 254.645C445.07 252.698 444.571 250.206 443.302 249.708C441.58 249.074 439.178 249.708 437.184 250.252C435.643 250.614 434.283 251.746 432.833 252.562ZM445.251 258.178C442.577 258.45 440.039 258.178 437.999 259.039C436.64 259.628 435.053 261.983 435.235 263.251C435.461 264.565 437.637 266.241 439.178 266.512C443.121 267.282 445.251 264.338 445.251 258.178Z" fill="#2E3540"/>
<path d="M366.934 269.502C366.027 268.505 364.35 267.509 364.305 266.467C364.033 260.715 364.124 254.962 364.214 249.21C364.214 248.349 364.985 246.719 365.302 246.764C366.39 246.855 367.432 247.489 368.837 248.078C370.333 247.489 372.282 246.311 374.366 245.994C379.896 245.088 383.34 247.625 383.884 253.196C384.337 257.725 384.156 262.345 384.065 266.92C384.065 267.69 382.796 268.369 382.117 269.094C381.437 268.369 380.213 267.645 380.168 266.875C379.941 263.025 380.168 259.175 380.032 255.37C379.896 251.792 378.763 248.893 374.457 248.848C370.605 248.802 368.474 251.022 368.384 255.415C368.248 259.809 368.338 264.248 368.338 268.641C367.885 268.913 367.387 269.23 366.934 269.502Z" fill="#2E3540"/>
<path d="M78.319 17.6196C91.0093 11.2783 103.836 5.29948 118.656 9.05892C129.171 11.7313 135.471 21.6508 134.111 33.065C133.069 30.5738 132.253 28.3996 131.256 26.3161C125.319 13.8601 113.308 8.33421 98.5329 11.6407C91.6891 13.1807 85.0267 15.5813 78.319 17.6196Z" fill="#2E3540"/>
<path d="M96.584 160.704C98.1703 164.373 99.8019 167.997 101.751 172.481C103.654 167.997 105.195 164.373 106.691 160.795C107.189 160.75 107.688 160.704 108.187 160.659C109.682 166.004 111.178 171.349 112.719 176.739C110.226 177.328 110.226 177.328 106.646 169.039C104.969 172.3 103.564 175.063 101.705 178.641C99.9379 175.108 98.4875 172.209 97.0372 169.31C94.0006 171.394 96.4933 177.056 90.3748 177.735C92.0517 171.666 93.5474 166.23 95.043 160.84C95.5869 160.795 96.0854 160.75 96.584 160.704Z" fill="#2E3540"/>
<path d="M469.317 268.777C467.187 269.14 465.012 270.227 463.652 269.592C461.884 268.687 459.709 266.603 459.528 264.791C458.984 259.854 459.346 254.781 459.346 249.844C457.533 249.346 456.038 248.983 454.587 248.576C454.542 248.213 454.497 247.851 454.452 247.443C455.902 246.945 457.352 246.447 458.077 246.22C459.618 244.092 460.797 242.461 462.02 240.785C462.428 240.966 462.791 241.102 463.199 241.283C463.425 242.778 463.697 244.318 463.969 245.994C465.556 246.402 467.233 246.809 468.909 247.217C468.909 247.67 468.909 248.123 468.909 248.621C467.368 248.983 465.782 249.346 463.697 249.844C463.697 254.509 463.38 259.356 463.879 264.157C464.015 265.425 466.598 266.512 469.317 268.777Z" fill="#2E3540"/>
<path d="M415.202 268.505C413.389 269.004 411.712 269.91 410.171 269.774C407.271 269.502 405.276 267.871 405.276 264.61C405.276 259.764 405.276 254.917 405.276 249.889C403.554 249.391 402.104 248.984 400.654 248.576C400.563 248.214 400.518 247.896 400.427 247.534C401.832 246.991 403.237 246.447 403.917 246.221C405.503 244.137 406.727 242.461 407.95 240.831C408.313 241.012 408.676 241.148 409.084 241.329C409.31 242.824 409.537 244.318 409.763 245.949C411.44 246.356 413.117 246.764 414.794 247.172C414.794 247.625 414.794 248.078 414.794 248.531C413.253 248.893 411.667 249.255 409.491 249.754C409.491 254.509 409.22 259.492 409.673 264.384C409.854 265.607 412.483 266.558 415.202 268.505Z" fill="#2E3540"/>
<path d="M506.663 246.492C503.672 253.92 501.043 260.624 498.143 267.237C497.735 268.143 496.148 269.003 495.151 268.958C494.154 268.913 492.613 268.007 492.205 267.101C489.395 260.624 486.812 254.011 484.093 247.307C486.993 245.722 488.262 246.719 489.169 249.3C490.936 254.419 492.885 259.537 495.786 264.791C497.01 261.349 497.916 257.725 499.593 254.464C501.134 251.565 500.001 246.266 506.663 246.492Z" fill="#2E3540"/>
<path d="M514.957 160.342C518.447 163.694 521.982 167.046 526.424 171.349C526.424 167.68 526.288 165.234 526.515 162.833C526.56 162.109 527.602 161.475 528.192 160.841C528.781 161.384 529.823 161.882 529.823 162.426C529.959 167.499 529.914 172.617 529.914 177.69C529.37 178.007 528.871 178.279 528.327 178.596C525.336 174.655 522.39 170.669 519.399 166.729C518.628 167.182 517.813 167.635 517.042 168.088C517.042 170.443 517.223 172.844 516.951 175.199C516.861 176.014 515.728 176.739 515.093 177.509C514.595 176.784 513.688 176.059 513.643 175.289C513.507 170.579 513.598 165.868 513.598 161.158C514.051 160.886 514.504 160.614 514.957 160.342Z" fill="#2E3540"/>
<path d="M75.5543 178.098C69.8436 178.098 66.1725 174.565 66.1725 169.175C66.2178 164.056 70.2062 160.342 75.7809 160.252C81.8541 160.161 85.6612 163.649 85.5706 169.22C85.4799 174.565 81.5369 178.098 75.5543 178.098ZM75.3277 175.516C78.9535 175.652 81.7635 172.979 81.7182 169.129C81.6728 165.642 80.1319 163.151 76.3248 162.788C72.699 162.471 70.2969 164.781 70.1156 168.631C69.9796 172.753 71.9738 175.38 75.3277 175.516Z" fill="#2E3540"/>
<path d="M177.213 160.297C180.703 163.694 184.147 167.091 187.637 170.533C188 170.398 188.317 170.262 188.68 170.126C188.68 167.952 188.498 165.778 188.77 163.694C188.906 162.697 189.949 161.837 190.583 160.931C191.127 161.792 192.124 162.652 192.169 163.513C192.305 168.223 192.26 172.934 191.172 178.46C187.592 175.018 184.011 171.53 180.431 168.088C180.023 168.133 179.615 168.223 179.207 168.269C179.207 170.624 179.343 172.979 179.117 175.335C179.071 176.105 178.165 176.829 177.666 177.599C177.032 176.965 175.853 176.376 175.853 175.742C175.717 170.896 175.763 166.095 175.763 161.248C176.261 160.886 176.76 160.569 177.213 160.297Z" fill="#2E3540"/>
<path d="M136.287 169.039C136.287 174.474 132.434 178.052 126.497 178.098C120.741 178.188 117.115 174.791 117.024 169.311C116.979 163.966 121.104 160.116 126.814 160.206C132.751 160.342 136.287 163.603 136.287 169.039ZM126.588 175.516C130.395 175.38 132.48 172.934 132.389 168.722C132.298 165.053 130.123 162.788 126.678 162.833C122.962 162.833 120.741 165.415 120.922 169.582C121.104 173.342 123.234 175.607 126.588 175.516Z" fill="#2E3540"/>
<path d="M497.281 160.252C503.128 160.252 506.799 163.558 506.845 168.948C506.89 174.565 502.856 178.234 496.738 178.143C491.208 178.052 487.718 174.746 487.628 169.446C487.492 164.056 491.525 160.252 497.281 160.252ZM503.037 168.858C502.992 165.098 500.499 162.652 496.919 162.833C493.384 162.969 491.299 165.506 491.435 169.446C491.571 173.025 493.112 175.425 496.964 175.516C500.681 175.607 503.128 172.844 503.037 168.858Z" fill="#2E3540"/>
<path d="M375.001 178.098C369.2 178.098 365.755 174.746 365.8 169.129C365.846 163.92 369.698 160.297 375.273 160.206C381.391 160.116 385.017 163.513 384.927 169.175C384.836 174.701 381.029 178.143 375.001 178.098ZM381.165 168.903C381.119 165.098 378.763 162.698 375.137 162.833C371.602 162.969 369.472 165.506 369.608 169.401C369.744 172.979 371.284 175.38 375.137 175.516C378.899 175.606 381.165 173.025 381.165 168.903Z" fill="#2E3540"/>
<path d="M233.232 160.976C238.489 160.705 244.245 159.436 247.735 164.645C249.049 166.638 249.14 170.67 248.007 172.889C245.061 178.732 239.124 177.464 233.232 177.6C233.232 172.074 233.232 166.684 233.232 160.976ZM236.223 163.739C236.223 166.684 235.996 169.718 236.359 172.753C236.45 173.659 238.081 174.972 239.078 175.018C242.75 175.244 245.469 172.164 245.242 168.541C245.061 164.6 242.024 162.834 236.223 163.739Z" fill="#2E3540"/>
<path d="M210.48 168.54C212.383 168.405 214.378 168.269 216.372 168.133C218.049 174.791 217.55 176.422 213.788 177.418C206.899 179.275 200.69 177.101 198.968 172.209C197.336 167.589 199.648 162.788 204.497 161.248C208.214 160.07 212.066 159.3 215.239 163.422C213.516 163.241 211.839 162.969 210.117 162.879C206.083 162.607 202.82 165.053 202.412 168.631C202.004 172.119 204.089 174.972 207.896 175.335C209.709 175.516 211.613 174.474 213.516 173.976C212.655 172.39 211.794 170.896 210.48 168.54Z" fill="#2E3540"/>
<path d="M45.732 160.75C48.1794 160.75 50.1736 160.342 51.8959 160.84C54.5699 161.565 57.6518 162.38 59.3288 164.237C60.1446 165.143 58.0597 168.586 57.0626 171.666C57.9691 172.753 59.646 174.746 61.323 176.739C61.1417 177.056 61.0057 177.418 60.8244 177.735C59.4647 177.146 57.9238 176.784 56.7907 175.923C55.431 174.836 54.4792 173.206 53.1649 172.073C52.3944 171.439 51.1254 171.303 50.1283 170.941C49.811 171.847 49.5844 172.798 49.1765 173.704C48.6326 174.972 47.9528 176.195 47.3636 177.418C46.8197 176.105 45.9133 174.791 45.8226 173.478C45.596 169.446 45.732 165.37 45.732 160.75ZM51.7146 169.401C53.6181 167.77 54.7965 166.729 55.9749 165.732C54.7965 164.917 53.6181 163.513 52.3944 163.422C51.3973 163.332 49.9017 164.69 49.4031 165.732C49.1312 166.276 50.5362 167.635 51.7146 169.401Z" fill="#2E3540"/>
<path d="M359.546 178.324C356.419 175.697 353.291 173.025 349.167 169.537C348.94 172.345 349.031 173.795 348.669 175.108C348.397 176.014 347.49 176.739 346.901 177.509C346.357 176.829 345.315 176.15 345.269 175.425C345.133 171.304 345.179 167.136 345.224 163.015C345.224 162.381 345.587 161.52 346.085 161.112C348.125 159.572 357.869 160.976 358.413 163.286C358.911 165.551 357.688 168.269 357.234 170.76C356.736 170.76 356.237 170.76 355.694 170.76C357.461 172.844 359.183 174.927 360.951 177.011C360.498 177.418 360.044 177.871 359.546 178.324ZM351.479 169.401C353.246 167.68 354.379 166.638 355.467 165.551C354.243 164.781 353.019 163.422 351.75 163.377C350.799 163.332 349.348 164.781 348.94 165.868C348.759 166.457 350.209 167.68 351.479 169.401Z" fill="#2E3540"/>
<path d="M427.031 177.192C422.726 177.192 418.42 177.192 413.706 177.192C413.706 171.938 413.706 166.593 413.706 161.293C418.329 161.293 422.68 161.293 427.077 161.293C427.077 161.792 427.122 162.29 427.122 162.788C424.811 162.924 422.499 162.833 420.233 163.196C419.009 163.377 417.921 164.328 416.788 164.917C417.921 165.642 419.009 166.593 420.233 167.091C421.275 167.544 422.544 167.499 423.723 167.68C423.723 168.178 423.723 168.631 423.723 169.129C422.272 169.265 420.731 169.129 419.417 169.673C418.329 170.126 417.604 171.349 416.698 172.209C417.65 173.161 418.511 174.791 419.598 174.972C422.046 175.38 424.584 175.108 427.077 175.108C427.077 175.833 427.031 176.512 427.031 177.192Z" fill="#2E3540"/>
<path d="M324.24 160.569C328.273 160.84 331.582 160.614 334.618 161.429C336.341 161.927 338.743 164.283 338.652 165.596C338.516 167.408 336.386 169.22 334.8 170.669C334.075 171.349 332.534 171.394 331.401 171.349C328.862 171.213 327.593 172.028 327.639 174.836C327.639 175.697 326.415 176.603 325.781 177.509C325.237 176.648 324.285 175.788 324.285 174.927C324.149 170.397 324.24 165.868 324.24 160.569ZM328.137 169.537C330.675 168.676 332.67 168.087 334.528 167.227C334.845 167.091 334.845 165.053 334.528 164.917C332.67 164.011 330.675 163.422 328.137 162.516C328.137 165.143 328.137 166.683 328.137 169.537Z" fill="#2E3540"/>
<path d="M28.7813 171.711C28.6453 172.39 28.6 172.979 28.3734 173.478C27.7842 174.836 27.0591 176.15 26.4245 177.463C25.8807 176.014 24.9742 174.565 24.8836 173.07C24.657 169.129 24.7929 165.189 24.7929 160.976C28.2828 160.976 31.2287 160.704 34.0841 161.067C36.8034 161.384 39.3868 162.471 39.2962 165.959C39.2055 169.265 36.8487 170.488 34.0841 171.077C32.4524 171.439 30.6849 171.485 28.7813 171.711ZM28.6453 162.335C28.6453 165.37 28.6453 166.91 28.6453 169.446C31.0928 168.676 33.087 168.178 34.9905 167.408C35.3531 167.272 35.4437 165.279 35.1265 165.143C33.2683 164.102 31.3194 163.422 28.6453 162.335Z" fill="#2E3540"/>
<path d="M254.125 176.875C256.981 171.439 259.791 166.049 263.235 159.436C266.68 165.913 269.535 171.258 272.436 176.648C272.209 177.01 271.983 177.373 271.756 177.735C270.578 177.056 269.399 176.286 268.13 175.742C266.499 175.063 264.822 174.112 263.145 174.066C261.604 174.021 259.972 174.836 258.476 175.561C257.207 176.15 256.12 177.101 254.941 177.871C254.669 177.599 254.397 177.237 254.125 176.875ZM263.235 165.279C262.012 167.997 261.286 169.582 260.289 171.847C262.646 171.711 264.096 171.62 266.136 171.485C265.139 169.31 264.414 167.77 263.235 165.279Z" fill="#2E3540"/>
<path d="M291.517 177.871C294.825 171.53 297.681 166.095 301.125 159.527C304.57 165.959 307.38 171.349 310.235 176.693C310.054 176.965 309.872 177.282 309.691 177.554C306.881 176.331 304.116 174.202 301.306 174.202C298.406 174.248 295.46 176.331 291.517 177.871ZM304.162 171.53C303.029 169.265 302.258 167.725 301.034 165.279C299.901 167.816 299.176 169.446 298.27 171.53C300.355 171.53 301.85 171.53 304.162 171.53Z" fill="#2E3540"/>
<path d="M356.283 253.015C356.283 257.454 356.373 261.892 356.192 266.286C356.147 267.237 355.014 268.143 354.334 269.049C353.609 268.188 352.34 267.328 352.294 266.467C352.158 257.454 352.158 248.44 352.294 239.426C352.294 238.475 353.518 237.569 354.153 236.618C354.878 237.66 356.147 238.611 356.192 239.698C356.419 244.137 356.328 248.576 356.283 253.015Z" fill="#2E3540"/>
<path d="M449.013 175.607C447.88 176.286 446.837 177.283 445.614 177.645C441.036 178.958 436.187 177.464 434.102 174.112C431.971 170.579 432.198 167.001 434.782 163.785C437.727 160.116 442.622 159.346 449.239 161.973C447.381 162.471 446.475 163.015 445.659 162.924C442.214 162.517 438.725 162.788 437.456 166.412C436.776 168.45 437.048 171.53 438.226 173.297C440.356 176.467 443.801 175.924 447.019 174.565C447.381 174.429 447.789 174.52 448.197 174.474C448.514 174.837 448.786 175.244 449.013 175.607Z" fill="#2E3540"/>
<path d="M148.252 163.649C145.396 163.241 143.221 162.924 141.091 162.607C141.136 162.154 141.181 161.746 141.227 161.293C147.119 161.293 153.011 161.293 158.903 161.293C158.948 161.701 158.993 162.109 159.084 162.562C156.954 162.924 154.824 163.241 152.014 163.694C152.014 167.227 152.15 170.896 151.923 174.519C151.878 175.561 150.881 176.512 150.337 177.509C149.657 176.467 148.478 175.471 148.388 174.429C148.071 170.941 148.252 167.363 148.252 163.649Z" fill="#2E3540"/>
<path d="M391.77 268.505C391.77 261.394 391.77 254.328 391.77 247.036C394.082 246.085 395.804 245.994 395.804 249.255C395.804 254.872 395.94 260.533 395.668 266.15C395.623 267.328 394.082 268.46 393.221 269.592C392.767 269.275 392.269 268.913 391.77 268.505Z" fill="#2E3540"/>
<path d="M420.414 268.687C420.414 262.074 420.369 255.415 420.505 248.802C420.505 248.032 421.774 247.308 422.408 246.538C423.134 247.262 424.448 247.942 424.448 248.666C424.629 254.736 424.675 260.805 424.403 266.875C424.357 267.826 422.544 268.687 421.547 269.547C421.185 269.275 420.777 268.958 420.414 268.687Z" fill="#2E3540"/>
<path d="M475.98 245.994C476.886 246.99 477.929 247.896 478.608 249.029C478.971 249.708 478.699 250.75 478.699 251.656C478.699 257.227 478.699 262.798 477.657 269.456C476.614 268.596 474.665 267.781 474.665 266.875C474.393 260.307 474.529 253.694 474.529 247.081C474.983 246.719 475.481 246.356 475.98 245.994Z" fill="#2E3540"/>
<path d="M273.75 161.248C279.506 161.248 285.262 161.248 291.018 161.248C291.063 161.701 291.109 162.109 291.154 162.562C289.024 162.879 286.939 163.241 284.084 163.694C284.084 167.363 284.174 171.122 283.993 174.882C283.948 175.788 282.996 176.603 282.497 177.463C281.908 176.648 281.319 175.878 280.775 175.018C280.639 174.791 280.73 174.429 280.73 174.157C280.73 171.213 281.546 167.861 280.413 165.46C279.551 163.649 276.107 163.06 273.795 161.927C273.75 161.701 273.75 161.475 273.75 161.248Z" fill="#2E3540"/>
<path d="M461.295 163.558C458.485 163.196 456.31 162.924 454.134 162.652C454.18 162.199 454.225 161.792 454.27 161.339C460.072 161.339 465.918 161.339 471.719 161.339C471.765 161.747 471.81 162.199 471.855 162.607C469.725 162.924 467.55 163.196 464.74 163.604C464.74 167.227 464.876 170.896 464.649 174.52C464.604 175.516 463.561 176.467 463.018 177.464C462.428 176.512 461.386 175.561 461.341 174.565C461.159 170.987 461.295 167.318 461.295 163.558Z" fill="#2E3540"/>
<path d="M390.184 161.248C395.94 161.248 401.741 161.248 407.497 161.248C407.543 161.701 407.588 162.109 407.679 162.562C405.594 162.879 403.464 163.241 400.608 163.694C400.608 167.317 400.699 171.122 400.518 174.882C400.472 175.788 399.566 176.648 399.022 177.554C398.387 176.648 397.254 175.833 397.118 174.882C396.846 172.572 396.846 170.171 397.073 167.816C397.345 164.509 396.439 162.697 392.722 163.196C391.861 163.332 390.909 162.788 390.048 162.562C390.093 162.063 390.139 161.656 390.184 161.248Z" fill="#2E3540"/>
<path d="M481.328 169.492C481.328 171.53 481.464 173.613 481.237 175.652C481.147 176.331 480.059 176.875 479.424 177.509C478.926 176.92 478.019 176.331 478.019 175.697C477.883 171.439 477.883 167.182 478.019 162.924C478.065 162.199 479.062 161.52 479.606 160.84C480.195 161.52 481.192 162.154 481.237 162.879C481.464 165.053 481.328 167.272 481.328 169.492Z" fill="#2E3540"/>
<path d="M168.42 169.401C168.42 171.303 168.602 173.251 168.33 175.153C168.194 176.014 167.151 176.739 166.517 177.509C165.973 176.784 165.021 176.105 164.976 175.38C164.84 171.258 164.84 167.136 164.976 162.969C165.021 162.244 165.973 161.565 166.517 160.84C167.151 161.61 168.239 162.335 168.33 163.196C168.602 165.234 168.42 167.317 168.42 169.401Z" fill="#2E3540"/>
<path d="M393.629 241.782C392.36 240.151 391.272 239.336 391.226 238.43C391.181 237.796 392.631 236.437 393.221 236.528C394.172 236.709 395.26 237.66 395.668 238.566C395.849 239.064 394.716 240.151 393.629 241.782Z" fill="#2E3540"/>
<path d="M480.059 238.384C478.201 239.562 477.294 240.559 476.614 240.423C475.663 240.242 474.892 239.154 474.076 238.475C474.756 237.75 475.391 236.573 476.161 236.482C477.068 236.437 478.019 237.343 480.059 238.384Z" fill="#2E3540"/>
<path d="M422.091 235.214C423.315 236.709 424.539 237.66 424.357 238.203C424.085 239.109 423.043 240.106 422.136 240.423C421.683 240.559 420.278 239.245 420.142 238.475C420.052 237.75 421.094 236.844 422.091 235.214Z" fill="#2E3540"/>
<path d="M322.245 231.092C321.656 232.995 321.248 234.217 320.886 235.486C320.614 235.44 320.342 235.44 320.07 235.395C320.07 232.36 320.07 229.326 320.07 225.793C321.837 225.793 323.922 225.385 325.69 225.974C326.596 226.246 327.412 228.329 327.412 229.597C327.458 231.409 326.732 233.221 326.188 235.486C325.191 234.399 323.922 232.995 322.245 231.092Z" fill="#2E3540"/>
</g>
<defs>
<clipPath id="clip0">
<rect width="531" height="270" fill="white" transform="translate(0.5)"/>
</clipPath>
</defs>
</svg>
