<svg width="104" height="77" fill="none" xmlns="http://www.w3.org/2000/svg"><path d="M45.717 48.374c-1.63-3.927-3.287-7.825-4.916-11.751-2.967-7.068-5.934-14.108-8.843-21.176C28.672 7.477 34.838-.55 43.302.613c5.643.756 9.54 6.428 8.523 12.624-1.63 10.035-3.316 20.07-4.974 30.105-.262 1.658-.553 3.345-.815 5.003-.087 0-.203.029-.32.029z" fill="#454545"/><path d="M48.888 55.995c-.873.058-1.338.087-1.803.087-11.053 0-22.107 0-33.16-.03-4.624 0-8.435-2.617-9.976-6.864-1.571-4.276-.262-9.162 3.17-12.013 3.607-2.966 8.203-3.461 12.158-.901 8 5.177 15.911 10.558 23.852 15.823 1.774 1.25 3.577 2.443 5.759 3.898z" fill="#AFAFAF"/><path d="M56.538 55.734c4.13-2.764 8.29-5.527 12.42-8.29 5.264-3.52 10.53-7.068 15.823-10.588 4.858-3.2 10.064-2.88 13.904 1.076 3.199 3.258 3.752 7.243 2.268 11.46-1.396 3.927-5.177 6.662-9.22 6.662-11.49.058-22.979.029-34.468.029-.233 0-.466-.03-.698-.058a.472.472 0 0 0-.03-.291z" fill="#777"/><path d="M59.126 52.097a1966.54 1966.54 0 0 1 4.916-11.605c2.938-6.865 5.875-13.7 8.784-20.565 1.774-4.13 5.614-6.777 9.831-6.719 4.305.058 8.174 2.705 9.715 6.66 1.658 4.219.728 8.843-2.588 11.868-1.367 1.251-2.996 2.298-4.567 3.345a12397.911 12397.911 0 0 1-25.393 16.87c-.145.117-.32.204-.465.292a.634.634 0 0 1-.233-.146z" fill="#5D5D5D"/><path d="M45.514 52.329c-6.544-4.421-13.06-8.872-19.604-13.293-3.113-2.123-6.254-4.247-9.366-6.37-3.549-2.472-5.207-6.893-4.218-11.17 1.018-4.362 4.537-7.59 8.959-8.202 4.188-.582 8.493 1.455 10.413 5.41 2.094 4.305 3.81 8.785 5.672 13.206 2.705 6.428 5.352 12.885 8.028 19.314.116.29.233.61.349.901a.782.782 0 0 1-.233.204z" fill="#7A7A7A"/><path d="M59.069 48.577c-.466-2.763-.873-5.119-1.251-7.475-1.134-7.184-2.123-14.369-3.403-21.524-.553-3.084-.03-5.352 2.996-6.69.203-.088.378-.291.727-.582-1.512-1.134-3.2-.204-4.625-.727C52.553 6.954 56.538 1.573 61.57.67c4.13-.756 7.592.407 10.239 3.694 2.676 3.345 3.141 7.127 1.512 11.082-3.374 8.087-6.864 16.144-10.296 24.2-1.106 2.59-2.182 5.178-3.287 7.738-.146.262-.32.553-.67 1.192z" fill="#565656"/><path d="M34.432 76.297h-6.34V59.892c3.14 0 6.282-.029 9.394.03.407 0 .873.552 1.164.959 2.53 3.49 5.032 6.98 7.853 10.442V59.98h6.341v16.376c-2.356 0-4.654-.145-6.952.03-1.861.145-2.996-.466-4.072-2.008-2.24-3.257-4.712-6.34-7.388-9.453v11.373zm38.219-8.725c1.076.61 2.24 1.047 3.112 1.832 1.862 1.63 1.571 4.102-.552 5.382-.902.523-1.95 1.047-2.967 1.105-5.701.32-11.402.494-17.22.698V60.097c.175-.059.35-.146.524-.146 4.712.03 9.395-.058 14.107.117 1.542.058 3.17.523 4.596 1.163 2.734 1.28 2.763 3.927.203 5.497-.581.32-1.221.553-1.803.844zM62.005 73.04c1.978-.145 3.81-.174 5.614-.465.553-.087 1.25-.785 1.367-1.338.087-.378-.669-1.28-1.134-1.367-1.92-.32-3.84-.407-5.847-.611v3.781zm.058-10.238v3.577c1.746-.087 3.346-.058 4.887-.32.64-.116 1.164-.872 1.745-1.367-.552-.523-1.047-1.367-1.687-1.483-1.512-.32-3.112-.291-4.944-.407zm41.509 2.443c-2.327 0-4.625.03-6.952-.029-.262 0-.61-.233-.785-.465-2.124-2.793-7.068-2.705-8.988.203-1.367 2.095-1.193 5.527.378 7.04 1.687 1.6 5.526 1.861 7.475.494.088-.058.204-.087.233-.175.93-2.065 2.792-1.541 4.45-1.57 1.309-.03 2.618 0 4.48 0-.698 1.163-1.018 2.268-1.745 2.821-1.193.93-2.59 1.745-4.044 2.182-4.74 1.454-9.57 1.367-14.34.174-3.083-.785-5.293-2.618-5.73-5.992-.465-3.52.786-6.283 3.81-8.144 2.386-1.454 5.033-1.978 7.767-2.182 3.403-.29 6.777-.087 10.035 1.048 2.618.93 3.927 2.443 3.956 4.595zm-76.994-.002c-2.53 0-4.828.03-7.155-.029-.262 0-.611-.262-.757-.494-1.454-2.415-3.752-2.095-5.962-1.775-2.007.291-3.52 1.978-3.81 4.101-.292 2.007-.292 4.13 1.686 5.352 2.124 1.28 4.567 1.688 6.72.204 1.308-.902 2.18-2.181 4.13-1.861 1.541.261 3.17.058 4.886.058-.087 1.687-.901 2.821-2.152 3.52-1.25.697-2.589 1.337-3.985 1.686-4.48 1.193-9.017 1.106-13.496-.029-3.665-.93-5.498-3.025-5.876-6.34-.349-3.462 1.134-6.574 4.334-8.058 5.905-2.763 11.984-2.792 18.063-.582 1.774.64 3.112 1.92 3.374 4.247z" fill="#000"/><path d="M45.717 48.374c-1.63-3.927-3.287-7.825-4.916-11.751-2.967-7.068-5.934-14.108-8.843-21.176C28.672 7.477 34.838-.55 43.302.613c5.643.756 9.54 6.428 8.523 12.624-1.63 10.035-3.316 20.07-4.974 30.105-.262 1.658-.553 3.345-.815 5.003-.087 0-.203.029-.32.029z" fill="#454545"/><path d="M48.888 55.995c-.873.058-1.338.087-1.803.087-11.053 0-22.107 0-33.16-.03-4.624 0-8.435-2.617-9.976-6.864-1.571-4.276-.262-9.162 3.17-12.013 3.607-2.966 8.203-3.461 12.158-.901 8 5.177 15.911 10.558 23.852 15.823 1.774 1.25 3.577 2.443 5.759 3.898z" fill="#AFAFAF"/><path d="M56.538 55.734c4.13-2.764 8.29-5.527 12.42-8.29 5.264-3.52 10.53-7.068 15.823-10.588 4.858-3.2 10.064-2.88 13.904 1.076 3.199 3.258 3.752 7.243 2.268 11.46-1.396 3.927-5.177 6.662-9.22 6.662-11.49.058-22.979.029-34.468.029-.233 0-.466-.03-.698-.058a.472.472 0 0 0-.03-.291z" fill="#777"/><path d="M59.126 52.097a1966.54 1966.54 0 0 1 4.916-11.605c2.938-6.865 5.875-13.7 8.784-20.565 1.774-4.13 5.614-6.777 9.831-6.719 4.305.058 8.174 2.705 9.715 6.66 1.658 4.219.728 8.843-2.588 11.868-1.367 1.251-2.996 2.298-4.567 3.345a12397.911 12397.911 0 0 1-25.393 16.87c-.145.117-.32.204-.465.292a.634.634 0 0 1-.233-.146z" fill="#5D5D5D"/><path d="M45.514 52.329c-6.544-4.421-13.06-8.872-19.604-13.293-3.113-2.123-6.254-4.247-9.366-6.37-3.549-2.472-5.207-6.893-4.218-11.17 1.018-4.362 4.537-7.59 8.959-8.202 4.188-.582 8.493 1.455 10.413 5.41 2.094 4.305 3.81 8.785 5.672 13.206 2.705 6.428 5.352 12.885 8.028 19.314.116.29.233.61.349.901a.782.782 0 0 1-.233.204z" fill="#7A7A7A"/><path d="M59.069 48.577c-.466-2.763-.873-5.119-1.251-7.475-1.134-7.184-2.123-14.369-3.403-21.524-.553-3.084-.03-5.352 2.996-6.69.203-.088.378-.291.727-.582-1.512-1.134-3.2-.204-4.625-.727C52.553 6.954 56.538 1.573 61.57.67c4.13-.756 7.592.407 10.239 3.694 2.676 3.345 3.141 7.127 1.512 11.082-3.374 8.087-6.864 16.144-10.296 24.2-1.106 2.59-2.182 5.178-3.287 7.738-.146.262-.32.553-.67 1.192z" fill="#565656"/><path d="M34.432 76.297h-6.34V59.892c3.14 0 6.282-.029 9.394.03.407 0 .873.552 1.164.959 2.53 3.49 5.032 6.98 7.853 10.442V59.98h6.341v16.376c-2.356 0-4.654-.145-6.952.03-1.861.145-2.996-.466-4.072-2.008-2.24-3.257-4.712-6.34-7.388-9.453v11.373zm38.219-8.725c1.076.61 2.24 1.047 3.112 1.832 1.862 1.63 1.571 4.102-.552 5.382-.902.523-1.95 1.047-2.967 1.105-5.701.32-11.402.494-17.22.698V60.097c.175-.059.35-.146.524-.146 4.712.03 9.395-.058 14.107.117 1.542.058 3.17.523 4.596 1.163 2.734 1.28 2.763 3.927.203 5.497-.581.32-1.221.553-1.803.844zM62.005 73.04c1.978-.145 3.81-.174 5.614-.465.553-.087 1.25-.785 1.367-1.338.087-.378-.669-1.28-1.134-1.367-1.92-.32-3.84-.407-5.847-.611v3.781zm.058-10.238v3.577c1.746-.087 3.346-.058 4.887-.32.64-.116 1.164-.872 1.745-1.367-.552-.523-1.047-1.367-1.687-1.483-1.512-.32-3.112-.291-4.944-.407zm41.509 2.443c-2.327 0-4.625.03-6.952-.029-.262 0-.61-.233-.785-.465-2.124-2.793-7.068-2.705-8.988.203-1.367 2.095-1.193 5.527.378 7.04 1.687 1.6 5.526 1.861 7.475.494.088-.058.204-.087.233-.175.93-2.065 2.792-1.541 4.45-1.57 1.309-.03 2.618 0 4.48 0-.698 1.163-1.018 2.268-1.745 2.821-1.193.93-2.59 1.745-4.044 2.182-4.74 1.454-9.57 1.367-14.34.174-3.083-.785-5.293-2.618-5.73-5.992-.465-3.52.786-6.283 3.81-8.144 2.386-1.454 5.033-1.978 7.767-2.182 3.403-.29 6.777-.087 10.035 1.048 2.618.93 3.927 2.443 3.956 4.595zm-76.994-.002c-2.53 0-4.828.03-7.155-.029-.262 0-.611-.262-.757-.494-1.454-2.415-3.752-2.095-5.962-1.775-2.007.291-3.52 1.978-3.81 4.101-.292 2.007-.292 4.13 1.686 5.352 2.124 1.28 4.567 1.688 6.72.204 1.308-.902 2.18-2.181 4.13-1.861 1.541.261 3.17.058 4.886.058-.087 1.687-.901 2.821-2.152 3.52-1.25.697-2.589 1.337-3.985 1.686-4.48 1.193-9.017 1.106-13.496-.029-3.665-.93-5.498-3.025-5.876-6.34-.349-3.462 1.134-6.574 4.334-8.058 5.905-2.763 11.984-2.792 18.063-.582 1.774.64 3.112 1.92 3.374 4.247z" fill="#000"/></svg>