<svg width="58" height="91" fill="none" xmlns="http://www.w3.org/2000/svg"><path d="M47.92 24.542c.32.641.762 1.242 1.002 1.924.48 1.322 1.122 2.684 1.162 4.046.04 1.563.922 3.246-.32 4.729-.12.12-.08.36-.08.56-.08.521-.12 1.042-.241 1.523-.16.681-.4 1.363-.601 2.044-.04.2-.08.44-.24.56-1.162 1.002-1.363 2.485-2.004 3.727-.641 1.202-1.362 2.364-1.963 3.606-.2.441-.12 1.002-.12 1.483-.08 1.723-.08 3.446-.16 5.129 0 .36-.081.761-.241 1.082-.802 1.522-.521 2.965.16 4.447.32.641.36 1.443.48 2.164.201 1.242.522 1.563 1.804 1.563 1.523 0 1.923.28 2.564 1.763.12.24.28.44.481.6.601.562.761 1.203.561 2.004-.08.36.12.842.32 1.202a7 7 0 0 0 .722 1.162c1.002 1.322 1.843 2.645 1.723 4.408-.04.28.32.64.52.921.482.601.522 1.603.121 2.244-.36.601-.601 1.282-.842 1.963-.28.882-.4 1.804-.76 2.645-.842 1.883-2.165 3.286-4.328 3.686-.842.16-1.122.561-1.042 1.443.12 1.522-.681 2.644-2.244 2.845-1.843.24-3.686.32-5.53.28-8.213-.08-16.428-.2-24.642-.32-.2 0-.4 0-.6-.04-2.205-.32-3.046-1.563-2.405-3.767-.961-.16-1.923-.32-2.885-.44-1.202-.16-1.963-.762-2.444-1.924a11.448 11.448 0 0 1-.962-4.608c0-.24-.2-.56-.4-.721-.802-.561-.882-1.483-.441-2.044.841-1.121.52-2.404.801-3.566.16-.761.24-1.522.4-2.284.081-.28.241-.56.482-.72.56-.522 1.242-.963 1.763-1.523.2-.2.2-.682.12-1.002-.2-.962-.12-1.763.841-2.364.321-.2.561-.681.682-1.042.32-.922.841-1.322 1.803-1.162 1.202.16 1.482-.04 1.723-1.242.16-.762.16-1.523.24-2.284.08-.761.04-1.563.24-2.284.441-1.483.281-2.885.04-4.367-.32-2.164-.4-4.328-.6-6.492 0-.08.04-.16 0-.2a81.928 81.928 0 0 0-1.764-3.206c-.12-.2-.44-.32-.48-.48-.24-1.403-1.403-2.244-2.044-3.406-.2-.36-.24-.762-.36-1.162-.16-.521-.28-1.042-.481-1.563-.521-1.563-.12-3.165-.08-4.768.08-1.923 1.242-3.446 1.843-5.169.16-.44.04-.962.04-1.763-.32.48-.44.721-.601.922-.762 1.122-1.924 1.122-2.685.04-.721-1.082-1.442-2.204-2.164-3.246-.16-.24-.48-.36-.68-.56a16.39 16.39 0 0 1-1.043-1.283c-.08-.12-.12-.32-.24-.44C.88 18.811.76 18.25 1.24 17.048c.12-.32.24-.64.48-.881.922-.922 1.363-2.004 1.644-3.286.12-.56.921-.961 1.402-1.402.761-.681 1.683-1.242 2.244-2.044.841-1.202 1.442-2.524 3.206-2.604.16 0 .28-.16.4-.28 1.363-1.042 2.484-.962 3.767.24.44.4 1.001.6 1.562.841.601.24 1.202.44 1.803.641.321.08.842.2.922.08.561-1.001 1.122-2.043 1.482-3.125.16-.56-.12-1.242-.2-1.883-.16-1.322.681-2.204 1.964-2.204 1.001 0 2.003-.12 3.005-.16.04 0 .08 0 .08-.04C25.48.02 26.323.18 27.084.22c.922.04 1.884.24 2.805.24.802.04 1.643-.08 2.445-.12.4 0 .921-.12 1.121.08.561.522 1.122.482 1.763.442 1.283-.08 1.844.4 2.204 1.602.36 1.323 1.082 2.605.842 4.087-.04.24.24.521.4.802.16.24.361.48.521.72.28.442.641 1.363.762 1.323 1.081-.28 2.364-.08 3.165-1.082 2.324-2.925 5.85-2.484 7.293.962.48 1.162 1.001 1.763 2.283 1.963 1.924.32 2.405 1.162 2.485 3.086.04.56.32 1.162.68 1.602 1.724 2.044 1.804 3.286-.16 5.009-1.602 1.402-2.684 3.166-4.126 4.648-.401.4-.962.761-1.483.801-.681 0-1.042-.56-1.162-1.282-.04-.28-.36-.56-.561-.841-.16.12-.32.2-.44.28zm-5.89 8.094c-.36-.841.12-1.523.481-2.244.12-.24 0-.6-.04-.881-.24.16-.601.24-.721.48-.561.922-.441 1.804.28 2.645.16.32.28.681.4 1.042.121.44.201.882.361 1.442.361-.921.642-1.562.842-2.203.16-.642.801-1.323 0-2.004-.641.521-.36 1.843-1.603 1.723zM7.731 74.107c.08 1.403.2 2.765.32 4.248.401-.36.722-.681 1.002-.962 1.042-.962.521-2.925-.68-2.684-.08-.441-.161-.842-.241-1.283-.08-.44-.2-.921-.28-1.362h-.08c0 .681 0 1.362-.04 2.043-.161-.76-.321-1.562-.562-2.604v12.301c.32-1.122.481-2.284.521-3.446.08-2.083.04-4.167.04-6.25zm21.277-44.436c.36.2.68.44 1.042.601 1.081.44 1.723 1.122 1.562 2.364-.6-.44-1.202-.921-1.803-1.362-.641 1.082-.32 1.763.922 2.043.881.2 1.242.601.921 1.483-.04.08 0 .24.08.641.521-.48 1.042-.721 1.122-1.082.08-.28-.44-.681-.68-1.042-.201-.24-.401-.48-.602-.761.44-.36.962-.641 1.282-1.082.08-.08-.52-.681-.76-1.042-.201-.28-.361-.56-.602-.801-.52-.641-1.042-1.242-1.563-1.883-.12.04-.24.04-.36.08-.16.641-.36 1.282-.561 1.843-.641-.841-1.202-.841-1.643-.04-.28.52-.801.922-1.082 1.442-.24.401-.4.922-.32 1.323.04.32.48.6.72.921.08-.04.161-.08.241-.16-.28-1.002.16-1.603.922-2.164.44-.32.761-.881 1.162-1.322zm9.656-11.46c-.16.24-.44.521-.44.762.04 1.362-.922 2.724.16 4.087.2.24.2.72.28 1.082.401 1.362.802 2.764 1.242 4.127 0 .04.12.04.16.04.842-.962 1.163-1.763.962-2.605-.36.481-.68.922-1.001 1.363-.842-1.403 1.001-2.324.44-3.807-.44.561-.8.962-1.161 1.402-.08-.04-.2-.08-.281-.12.2-.52.28-1.082.561-1.522.56-.882.641-1.763.4-2.685-.12-.04-.28-.08-.4-.12-.36.801-.681 1.603-1.002 2.324-.64-1.443 1.042-2.565.802-4.087-.28.12-.481.2-.722.32-.04-.24-.04-.4 0-.56 1.082-.682.441-1.804.802-2.645-.12-.04-.24-.04-.36-.08a55.36 55.36 0 0 1-.442 2.724zm-9.496-4.648c.16.12.36.2.44.32 1.403 1.964 3.647 2.044 5.13.201.16-.2.56-.28.921-.44-.08-.16-.2-.441-.44-.962-.682 1.162-1.403 1.963-2.685 1.883-1.523-.08-2.484-.56-2.685-1.563 1.202.922 2.485 1.563 3.887.641.32-.2.44-.72.641-1.081-2.244 1.282-2.845 1.322-3.927.28 2.204.4 2.525.36 2.965-.44.32-.562.521-1.163-.16-1.804-.08.401-.08.641-.16.882-.2.721-1.122 1.202-1.843 1.042-.441-.08-.922 0-1.363 0-.28 0-.56.04-.761-.04-1.122-.361-2.404-.642-2.084-2.324 0-.04-.12-.12-.2-.2-.56.8-.16 1.882.641 2.283.641.32 1.162.882 1.683 1.322-1.282.722-2.645 1.162-4.207 1.002.4.16.801.32 1.282.521-.4.2-.641.36-.962.561 1.202.52 3.126-.52 3.887-2.084zM13.621 23.941c.36.4.762.762 1.122 1.202.16.2.24.481.32.721-.24 0-.48.04-.68-.04-.681-.24-1.403.16-1.283.802.08.36.441.64.642 1.002.24.4.4.8.6 1.202-.4-.16-.76-.32-1.161-.481-.04-.04-.12-.04-.2-.04-.802.68-.802.801-.08 1.442.28.24.64.441.8.761.12.24.04.642-.04.922 0 .04-.44 0-.68 0-.281-.04-.562-.08-.802-.12.04.36-.04.721.08 1.002.16.36.641.56.761.921.12.36-.04.802-.08 1.202-.28-.16-.56-.32-.801-.48-.12-.08-.24-.2-.36-.321-.642.721-.602 1.402.16 1.723.921.36 1.482.881 1.201 2.003 1.122-.761 1.082-1.001-.08-2.244.401-.4.962-.76 1.082-1.202.12-.44-.2-1.041-.32-1.402.4-.52 1.042-1.002 1.082-1.523.04-.48-.561-1.001-.882-1.562 2.043-.401 2.084-.802.48-2.885 1.764.04 2.205-.561 1.323-2.124-.4-.721-1.242-1.162-2.083-1.923-.04.721-.08 1.122-.12 1.442-.361-.4-.722-.801-1.082-1.242.84-.681 1.242-1.723.64-2.404-.76-.922-1.242-2.244-3.005-2.484.802 1.081 1.443 2.003 2.164 2.845.521.56.48 1.001.12 1.442-.48-.52-1.001-1.042-1.602-1.683-.401 1.082-.08 1.723.48 2.244.882.801 1.443 1.643.401 2.845.44.04.922.08 1.082-.08.4-.4.56-.962.801-1.483zm26.806-9.296c-.12.24-.2.481-.36.681-.4.561-.481 1.042.04 1.403.44-.32.801-.761 1.202-.802 1.282-.2 1.683-.68 1.523-2.003-.842.24-1.643.48-2.405.721.16-.32.321-.921.601-1.002 1.924-.56 2.004-.64 2.004-2.564 0-.16.08-.28.12-.44h.24c.12.56.2 1.161.361 1.923.32-.361.48-.521.601-.722.08.04.2.08.28.16-.24.522-.52 1.043-.76 1.603-.201.441-.482.882-.562 1.363-.04.24.28.52.441.761.2-.2.44-.4.601-.641.32-.44.561-1.082 1.002-1.362.881-.521 2.084-.601 2.164-2.004 0-.12.48-.28.72-.24.602.08 1.123.04 1.283-.641.08-.441.561-1.162-.48-1.202-.04 0-.08-.361-.08-.561-.281.24-.522.44-.922.801.4-1.362.16-1.923-.842-2.244-1.563-.52-2.725.24-3.566 2.404-2.164-.24-2.164-.24-2.845.28-1.282.962-1.563 1.523-1.282 2.365 1.002-.561 1.963-1.082 2.965-1.643.04.08.12.16.16.24-.64 1.363-2.644 1.082-3.325 2.725.28.16.68.4 1.121.641zm-18.351-5.61c-.12-1.482.2-2.764 1.322-3.846.24-.24.12-.801.16-1.202h-.2c-.28.36-.56.721-1.002 1.282-.12-.721-.2-1.082-.24-1.402.881-.842 1.643-.401 2.324.48.04-.08.08-.2.08-.28-.2-.36-.4-.681-.601-1.042.04-.04.12-.08.16-.12.401.44.802.882 1.202 1.362l.24-.12c-.16-.4-.28-.841-.48-1.242-.601-1.042-1.042-1.082-2.044-.52-.24.12-.6.04-.841.16-.4.2-.962.4-1.082.76-.12.321.16.842.36 1.483-.36.32-.24.842.121 1.563.24.48.04 1.162.04 1.763-.08 0-.16-.04-.24-.04-.16-.4-.361-.761-.561-1.242-1.122 1.202-1.122 2.644-.16 3.686.32.32.56.761.68 1.202.08.28-.12.641-.2.962-.2-.24-.48-.481-.6-.761-.201-.401-.321-.842-.482-1.243-.16.04-.28.04-.44.08 0 .521-.16 1.082.04 1.483.4.802.72 1.483-.12 2.204 1.362.841 1.682-.681 2.484-.882.08-.04.12-.881-.04-1.242-.521-1.162-.802-2.244.12-3.285-.24.961.28 1.602.962 2.243.8.722.8 1.243.24 2.164-.2.32-.2.721-.2 1.122-.04.44 0 .882.04 1.322.04.441 0 1.042.28 1.283.601.52 1.363.841 2.044 1.282.4-.842.32-1.122-.722-1.403-.72-.2-.961-.52-.921-1.282.04-.6-.16-1.242-.28-1.843.16.08.4.24.64.4-.68-1.842.682-3.005 1.363-4.287-.721-.44-1.443-.841-2.124-1.242.802 0 1.483.2 2.204.4.801.201 1.482.081 1.843-.8.28-.762 0-1.363-.641-1.723-.801-.441-1.483-.2-1.963.6l.04-.04c-.28.12-.601.24-.882.361a3.733 3.733 0 0 1 1.122-1.362c.922-.681 1.923-.681 2.685-.04.841.68 1.162 1.843.841 2.805-.12.4-.28 1.081-.12 1.202.44.28 1.042.48 1.563.44.881-.04 1.041-.52.72-1.322-.16-.44-.44-.881-.44-1.282 0-.882 1.483-2.164 2.364-2.204 1.042-.08 1.883.641 2.124 2.004-.32-.2-.44-.521-.681-.802-.561-.6-1.282-.841-1.964-.24-.64.52-1.242 1.242-.841 2.083.4.842 1.282.521 2.003.36.401-.08.762-.28 1.122-.4.2-.08.441-.12.681-.2.04.08.08.16.08.2-.56.4-1.121.762-1.722 1.162.48.722.881 1.363 1.282 1.964 1.482-1.042 2.284-2.084 1.041-3.647-.12-.16-.08-.44-.12-.68-.16-1.163-.801-2.004-1.843-2.485-.64-.28-1.282-.601-1.963-.761-.842-.2-1.162-.561-.802-1.443.08-.32.12-.721.04-1.042-.04-.24-.32-.44-.48-.64-.16.2-.481.44-.521.68-.04.441.08.922.16 1.363.16.68-.08.881-.721.68.04-.56.16-1.121.12-1.642-.04-.32-.36-.6-.52-.881-.121.32-.402.68-.402 1.001 0 .481.2.962.361 1.523-.48.04-.761.04-1.202.08.12-.44.28-.761.24-1.082-.04-.52-.24-1.042-.4-1.522 0-.04-.481.08-.722.12.12.48.08 1.042.321 1.482.4.842.32 1.082-.601 1.363-.881.28-1.723.56-2.564.921-1.002.4-1.363 1.162-1.363 2.244-.04.48-.52.962-.801 1.443zm22.438 74.489c.28-.882.561-1.763.802-2.565h-1.964v3.486c.481-.4.842-.681 1.162-.921.16.2.24.44.361.68.32-.24.801-.4 1.002-.68.44-.642.801-1.363 1.122-2.124.36-.842.801-1.683.961-2.564.28-1.844-1.081-2.845-2.845-2.324-.28.08-.8 0-.921-.2-.2-.281-.16-.722-.16-1.083 0-.16.28-.32.32-.52 0-.361.04-.962-.16-1.042-.32-.12-.882-.12-1.162.08-.641.44-1.202 1.042-1.843 1.643-.12-.401-.2-.681-.28-.922 1.602-.48 2.003-2.885.84-4.287-.32.32-.6.961-.961.961-1.002.12-.761-.841-1.002-1.482-.32 1.162-.6 2.324-.68 3.486-.04.921.44 1.643 1.682 1.883-.641.28-1.042.4-1.643.681.481.12.681.16.842.16-.16.561-.361 1.082-.561 1.763.48-.32.801-.56 1.081-.76l.08.08c-.32.36-.6.68-.92 1.041l.12.12c.4-.32.84-.68 1.241-1.001-.28.56-.72 1.001-1.081 1.482-.12.16-.04.44-.08.681.2-.12.52-.16.64-.32.361-.521.682-1.082 1.002-1.603.04.04.12.04.16.08-.4.882-.84 1.723-1.242 2.605.12.08.24.12.401.2.44-.801.841-1.643 1.282-2.484.04 1.562-.72 2.724-1.843 3.005-1.482-1.322-1.563-3.126-1.523-4.929-.6 1.563-.24 3.326-1.202 4.728-.961 1.363-2.003 2.605-2.965 3.847.722 0 1.603-.08 2.525.04 1.242.16 1.602-.761 2.083-1.522.24-.401.441-.842.641-1.283.12.08.24.12.401.2-.44.842-.841 1.684-1.282 2.525 1.162.24 1.442-.721 1.763-1.442.36-.722.48-1.563.721-2.324.44.64 1.002 1.682.761 1.923-.56.6-.16 1.242-.56 1.803.961-.04 1.121-.2 1.161-.882.12-1.282.24-2.524.361-3.806 0-.08.08-.16.12-.28.36-.762.721-1.523 1.082-2.325.521 1.002-.12 1.884-.52 2.805 1.201.601 2.083.16 2.964-.52-.16 1.923-1.522 2.884-2.284 4.207zM18.11 40.93c-.2.28-.4.401-.4.521-.12 1.403-1.363 2.084-2.204 2.845-.722.681-.962 1.202-.922 2.084.04.36.04.761.08 1.122.521 3.125.521 6.17-.681 9.215-.521 1.363-.521 2.966-.721 4.448.08 0 .16.04.2.04.12-.6.24-1.162.4-1.763.12.04.201.04.321.08-.24 1.122-.48 2.204-.68 3.326l.48.12c.2-.881.4-1.723.601-2.604.12 0 .24.04.36.04-.12.801-.2 1.603-.32 2.404.12 0 .2.04.32.04.2-.56.441-1.122.642-1.683.08.04.2.08.28.12-.28.842-.48 1.723-.921 2.485-.481.801-1.363.52-2.124.4-.12-.04-.44.361-.44.561 0 .32.2.601.32.962-.641.2-1.242.32-.882 1.242.24-.2.441-.36.761-.6v1.201c1.283-.6 2.405-1.162 3.567-1.723l-.12-.24c-.281.08-.521.16-.802.24 1.883-2.244 1.843-5.129 2.805-7.853.08.48.16.72.2 1.001.4-.841.4-1.843.842-2.564 1.081-1.763 1.122-3.566.68-5.49-.16-.64-.16-1.322-.32-2.003-.56-2.164.401-4.568-.961-6.651-.08-.12 0-.32 0-.481-.12-.28-.2-.481-.361-.842zm20.395 2.044c-.08.04-.16.04-.24.08.12.841.36 1.683.36 2.524 0 1.162-.12 2.324-.2 3.526-.12 1.283-.28 2.565-.36 3.887-.04.721-.16 1.483 0 2.164.32 1.162.92 2.284 1.322 3.446.28.721.48 1.442.64 2.204.321 1.723.802 3.365 1.764 4.848.16.24.24.52.44.681.401.36.842.681 1.283 1.002.12-.481.28-1.002.4-1.483.04-.24 0-.44 0-.68.12 0 .24-.041.361-.041.16.761.32 1.483.44 2.244.602-.842.962-.32 1.403.32-.08-.44-.28-.76-.48-1.081l-.962-1.563c-.2-.32-.36-.802-.641-.882-1.002-.24-1.443-.921-1.563-1.763-.24-1.923-.521-3.886-.561-5.81-.08-2.684.16-5.369.08-8.053-.04-.922-.32-1.964-.841-2.725-.722-1.122-1.723-1.924-2.645-2.845zm-10.859 4.648c-.08.801-.24 1.483-.2 2.164.12 2.644.32 5.249-.4 7.893-.321 1.282 0 2.725.08 4.087.08 1.723.24 3.406.36 5.17.842.04 1.483.08 2.124.12 1.563.04 1.923-.602 1.282-2.084-.2-.521-.36-1.242-.2-1.723.921-2.284.961-4.528.4-6.892-.4-1.603-.44-3.326-.52-5.009-.08-1.122 0-2.284 0-3.526-1.002-.08-1.884-.16-2.926-.2zm-9.857 29.65c.401-.08.642-.12.922-.16 1.683-.24 1.763-.36 1.923-2.083.04-.641.08-1.282.2-1.923.08-.441.241-.882.361-1.363-.08-.04-.16-.04-.24-.08.28-.36.52-.721.801-1.082-.08-.04-.2-.12-.28-.16-1.082 1.282-2.444 2.404-1.803 4.448.12.4-.08 1.122-.401 1.322-.36.24-1.002.12-1.483.08-.56-.04-1.081-.28-1.642-.32-.762-.04-1.563 0-2.084 0-.16-.682-.28-1.202-.4-1.723h-.08c-.121-.521-.241-1.002-.361-1.523h-.08c-.2-.801-.401-1.563-.642-2.444-.36.28-.52.4-.76.56.04-.4.04-.68.08-.96-1.003-.321-1.724-.201-2.165.76-.64 1.283-.72 3.286-.2 3.727.2-.44.44-.842.641-1.282.2.52.32 1.001.2 1.402-.44 1.322.441 2.725-.4 4.007-.12.2.08.721.24 1.042.28.52.08.721-.36.921-1.002.481-1.363 2.084-.641 3.005.24.281.64.441.961.642.08-.08.16-.2.24-.28-.2-.201-.48-.402-.6-.642a8.739 8.739 0 0 1-.441-1.763c0-.12.32-.4.56-.44 1.243-.281 2.004-1.002 2.125-2.285.44.32.8.601 1.162.882 1.001.921 1.001.921 1.642.04 1.042.36 2.084.681 3.046 1.122 1.883.801 3.085 1.923 3.085 3.686.761-.12.761-.56.6-1.162-.16-.761-1.281-.962-1.081-1.923 0-.04-.28-.16-.4-.24-.441-.361-1.043-.682-1.323-1.163-.4-.881-.601-1.722-.922-2.644zm7.894-19.793v-.4a.741.741 0 0 0-.08-.281c-1.362-2.845-1.402-5.77-.802-8.775.281-1.363-.08-2.605-1.282-3.366-.56-.36-1.402-.561-2.043-.4-.32.08-.601 1.04-.601 1.602.04 1.242.32 2.444.44 3.686.2 2.084.441 4.207.561 6.291.08 1.963 0 3.927 0 5.85.12 0 .24 0 .361.04.08-.44.2-.881.28-1.362.201 2.003-.24 2.845-1.522 2.965-.04.28-.08.6-.16.922.36.12.6.24.961.4-.2.601-.44 1.162-.6 1.683-.08.2-.08.4-.12.641 0 .04.24.12.24.08.16-.16.32-.32.36-.52.641-2.284 1.242-4.528 1.883-6.772.12.6.2 1.242.321 1.883h.4c.04-.641.12-1.282.201-2.164.24.762.44 1.363.641 1.964.681-1.563-.12-3.005-.16-4.608.4.28.52.44.721.64zm11.5 9.576c.08-.04.16-.04.24-.08-.08-.881-.12-1.763-.24-2.644-.04-.24-.32-.521-.561-.642-.721-.36-.842-1.001-.641-1.642.48-1.363.2-2.645-.28-3.927-.762-2.084-.802-4.127-.08-6.29.8-2.485 1.522-5.05.72-7.694-.08-.28-.24-.681-.48-.761-.24-.08-.642.12-.882.28-.681.48-1.683.882-1.963 1.563-.28.761.16 1.763.2 2.644.12 3.005-.12 5.97-.681 8.936-.32 1.763-1.002 3.526-.28 5.128.36-2.283.76-4.728 1.161-7.212.28.721.28 1.443.361 2.164.12 1.082.32 2.163.48 3.285.08.521.201 1.042.361 1.523.16.561.24 1.483.601 1.643 1.002.48 1.002 1.442 1.443 2.164.24.44.32 1.041.52 1.562zM7.17 18.011c.561.681.962 1.362 1.483 1.883.881.842.12 1.643 0 2.445-.04.32-.641.72-1.042.76-.761.08-.962.522-1.122 1.083-.04.24.08.56.12.801.28-.08.641-.04.842-.2.801-.641 1.522-1.323 2.284-2.044.12-.12.12-.4.16-.641.2-1.402.48-2.765.08-4.207-.08-.28.04-.601.12-.882.4-1.683-.36-2.724-2.083-2.764-.16 0-.32-.08-.521-.12.721-.321 1.402-.562 2.043-.882.681-.36.481-.802 0-1.162a33.508 33.508 0 0 0-2.003-1.322c-.842.48-1.563.881-2.284 1.282-.681.36-1.443.721-1.443 1.643 0 1.081-.44 1.963-1.282 2.644a1.94 1.94 0 0 0-.68 1.082c-.041.36.2.801.32 1.202.36-.24.76-.4 1.041-.681.401-.4.682-.962 1.082-1.363.561-.52.802-1.081.16-1.602-.56-.481-.4-1.002-.08-1.403.2-.28.762-.6.962-.52.601.24 1.082.72 1.483 1.001-.641.521-1.283.802-1.603 1.322-.4.561-.521 1.323-.761 2.004.08-.04.24-.08.4-.16 1.002-.521 2.004-1.443 3.126-.08.08.08.4 0 .56-.04.281-.12.481-.281.762-.481.08 1.041-.28 1.282-2.124 1.402zm4.207-7.733c.882.52 1.122 1.362 1.162 2.284.12 1.322-1.041 1.602-1.682 1.963.4.48.76.881 1.122 1.322-.321.2-.642.36-1.162.682.4.24.76.56 1.162.64.68.16.921.441.76 1.122-.04.16 0 .321 0 .642.802-.521 1.002-1.242.722-1.924-.24-.6-.761-1.122-1.162-1.683.36-.04.561.08.761.16.24.08.481.12.722.201.08-.28.24-.56.2-.841-.08-.441-.32-.882-.521-1.283-.04-.08-.04-.2-.08-.28.24-.12.48-.24.681-.36-.16-.321-.32-.602-.44-.842.12 0 .24 0 .36.04.12-.681.4-1.402.36-2.044-.04-.68-.4-1.322-.6-1.963-.361-1.082-1.122-1.362-2.044-.681-.681.48-1.282 1.002-2.324.16.28.601.44.882.681 1.362-.801-.32-1.482-.68-1.763.28-.24.762.16 1.403 1.042 1.684.24.08.44.12.681.2 1.282.44 1.483 1.122.641 2.164-.12.12-.2.24-.28.4.08.08.16.2.2.281.44-.32 1.002-.56 1.282-1.002.561-1.001.08-1.843-.48-2.684zm44.517 8.735c.52-.681.52-1.202-.28-2.004-.762-.72-1.122-1.522-1.162-2.564-.04-.962-.481-1.723-1.603-1.923-.4-.08-.802-.2-1.122-.401-1.042-.641-2.004-1.002-2.765.4-.04.12-.2.16-.32.2-.642.281-.441.722-.281 1.203.16.48.4.761.962.561.921-.28 1.362.32 2.003 1.162-.922-.12-1.563-.28-2.204-.32-.6-.04-1.081.16-.961.921.08.601.16 1.162.24 1.803.882-.04 1.763-.16 2.645-.12 1.001.04 2.364 1.883 2.163 2.805-.08.28.04.6.08.921.16-.04.281-.04.441-.08-.12-.6-.2-1.202-.36-1.963.4.48.64.801.921 1.122.08-.04.16-.12.24-.16l-.961-1.563c.08-.04.12-.12.2-.16.521.4 1.002.84 1.523 1.242.04-.401-.04-.802-.28-.922-.722-.4-1.443-.721-2.164-1.082-.16-.44-.2-1.162-.521-1.322-1.282-.601-.802-1.282-.24-2.004.2-.28.36-.6.56-.841.24-.24.561-.4.842-.641.24.36.641.721.641 1.042-.08.881-.36 1.723-.48 2.604-.04.28 0 .721.2.802.56.52 1.242.881 2.043 1.282zM13.661 69.82c-.48 1.362.04 2.324.481 3.366.441 1.082.521 2.564 2.404 1.963.04 0 .16.12.24.16.682.2 1.403.401 2.165.642-.12-.922-.24-1.683-.281-2.164.2-.601.32-1.042.561-1.443.32-.48.761-.921 1.122-1.402.24-.28.44-.601.681-.881-.28-.16-.601-.521-.881-.521-2.204.08-4.408.16-6.492.28zm8.014 5.89c.04 5.25 3.326 8.976 7.533 9.096 3.526.12 6.732-2.244 7.773-5.73 1.122-3.686-.28-7.894-3.365-9.817-2.404-1.482-4.969-1.763-7.493-.4-3.005 1.562-4.328 4.207-4.448 6.851zM34.457 4.227c.28-.2.481-.4.721-.56.521-.321 1.202-.722.802-1.363-.24-.36-1.042-.52-1.563-.44-.48.08-.962.52-1.362.92-.16.161-.08.522-.12 1.043 1.362-1.603 1.482-1.643 2.043-.802-.2.04-.36 0-.48.08-.321.24-.842.481-.882.762-.04.28.4.68.68.961.161.16.442.16.682.2.962.241 1.402.842 1.202 1.764-.2.841-.04 1.482.48 2.163.722.922.963 1.924.281 3.006-.56.881-.841 1.803-.16 2.885-.881-.361-1.042.04-.922.64.16.602.361 1.203.642 1.804.08.24.36.36.56.56.08-.04.16-.08.281-.12-.04-.6-.12-1.201-.16-1.803.04-.04.08-.08.16-.12.12.28.28.561.4.882.241-.521.241-.842.321-1.162.12-.601.521-1.242.401-1.723-.24-.882.4-1.924-.56-2.645-.041-.04.12-.32.12-.48 0-.682.16-1.403-.08-2.004-.241-.561-.842-1.002-1.323-1.523.721-1.001.721-2.284-.12-3.365-.12-.12-.401-.12-.601-.2 0 .2-.12.44-.04.6.16.36.4.721.6 1.082-.08.04-.12.04-.2.08-.52-.32-1.082-.68-1.803-1.122zM13.261 84.044c.28-.76.56-.52.761-.12.801-.08 1.523-.2 2.244-.24.16 0 .36.28.6.48.081-.2.201-.36.322-.64.16.28.28.44.44.68.16-.28.24-.44.36-.64.201.2.361.32.522.44.12-.16.4-.36.4-.52-.04-.361-.16-.962-.4-1.042-1.162-.36-2.044-1.443-3.406-1.282-.721.08-1.443.08-2.004-.641-.16-.2-.801-.2-1.121-.08a5.083 5.083 0 0 0-1.563 1.041c-.24.2-.4.721-.32.962.2.44.6.801.92 1.162.321.12.642.24 1.043.4.08-.08.2-.28.36-.6.12.28.16.44.24.6.08-.2.16-.32.281-.6.12.32.2.48.32.64zm3.726-67.035c.4-.32.761-.48.721-.56-.16-.802-.36-1.603-.56-2.405 1.121-.32 1.322-.721.8-1.883-.24-.561-.6-1.042-.92-1.523.12-.08.2-.16.32-.2.48.761 1.001 1.482 1.482 2.244.12-.04.24-.08.36-.16-.12-.441-.12-1.002-.4-1.243-.6-.56-1.322-1.041-2.083-1.322-1.323-.52-1.804-.12-1.884 1.242-.08 1.002.601 1.162 1.363 1.202.64.04 1.282.04 1.402.882-1.202.44-2.124.12-3.005-1.122.04.4.2.801.12 1.122-.36 1.162.521 1.723 1.242 2.084.681.32 1.202.52 1.042 1.642zM9.895 35.201c0-.04.32-.361.24-.521-.36-.681 0-.922.521-1.242.641-.401.681-.962.12-1.523-.28-.28-.52-.561-.64-.681.64-.2 1.682-.4 1.682-.601 0-.681-.36-1.363-.6-2.084.08 0 .4-.04.64-.16.882-.44.842-1.443-.04-2.204-.48-.44-1.162-.841-.36-1.482-.16-.321-.32-.642-.521-.962-1.082 1.202-1.082 1.923-.2 2.765.2.2.52.36.64.6.12.241.04.562.08.842-.24-.04-.52.04-.72-.08-.321-.16-.562-.44-.802-.681l-.24.12c.08.36.08.761.24 1.082.24.44.601.801.841 1.242.12.2.04.52.04.801-.24-.12-.56-.16-.76-.32-.321-.28-.602-.641-.882-.962-.16.08-.28.16-.441.24.16.481.24 1.002.48 1.443.241.521.682 1.002.882 1.563.08.24-.16.64-.24.961-.24-.16-.481-.28-.681-.48-.2-.2-.28-.441-.521-.802-.481.842-.32 1.242.24 1.723.4.32.641.842 1.002 1.403zm34.58 27.687c-.401-1.402-.802-2.564-1.002-3.766-.2-1.082-.28-2.164-.24-3.246.12-2.564.32-5.129.44-7.733.04-.561-.08-1.202-.882-1.403-.04.2-.08.321-.08.441-.08 2.484-.08 4.969-.2 7.413-.16 2.364-.48 4.688.28 7.012.16.48.441.962.682 1.442.08-.04.12-.08.2-.08-.12-.44-.2-.841-.32-1.282.04-.04.12-.04.16-.08.28.36.56.761.961 1.282zm1.562-31.173c.44-.481.922-.922 1.282-1.483.2-.28.16-.681.24-1.042-.36.08-.8.04-1.121.2-.24.12-.28.521-.481.762-.2.2-.48.36-.681.52-.12-.28-.401-.64-.36-.84.2-.482.56-.882.84-1.323.2-.32.321-.721.441-1.042-.12-.08-.24-.12-.36-.2-.641.56-1.283 1.122-2.044 1.763-.04-.28-.24-.681-.08-.922.24-.44.681-.801 1.002-1.202.24-.32.44-.72.68-1.082l-.24-.12a50.2 50.2 0 0 1-2.324.681c-.08-.08-.12-.2-.2-.28.36-.32.761-.641 1.042-1.002.16-.2.36-.56.28-.721-.12-.2-.48-.4-.72-.4-.762.04-1.603 1.121-1.243 1.762.721 1.202.561 2.685 1.763 3.727.801.801.922 2.203 2.284 2.244zm-20.275 23.64c.922-1.042.922-2.324 1.162-3.566.36-1.883-.56-3.806.2-5.69.08-.24-.6-.801-.961-1.242-.28.28-.641.561-.761.882-.2.4-.28.921-.28 1.362.2 2.805.44 5.53.64 8.254zm3.045-36.102c.361 1.002.962 1.082 1.523.481.16-.16.4-.2.641-.28.08.2.16.44.28.64 1.764 0 2.244-1.682 1.323-3.726-.08.04-.2.08-.24.16-.2.281-.401.561-.562.842-1.162 1.883-2.965 1.883-4.247.08-.24-.32-.52-.641-.761-.962-.12 0-.2.04-.32.04-.08.882-.241 1.764-.16 2.645.08.761 1.08 1.322 1.562 1.002.2-.32.52-.601.961-.922zM43.032 70.1c-.12-.04-.24-.04-.36-.08.08.601-.08 1.443.24 1.803.6.682 1.522 1.163 2.404 1.804v2.163h1.522v-3.846c-1.162-.481-2.163-1.964-4.007-1.242.12-.321.16-.441.2-.602zm-28.81-50.446c.401.24.762.6 1.162.721.681.16 1.122.36 1.242 1.122.04.16.441.24.682.36.16-.36.44-.72.4-1.041-.04-.32-.32-.681-.6-.922-.361-.28-.842-.44-1.243-.721a24.132 24.132 0 0 1-1.643-1.162c-.68 1.002-.72 1.963-.44 3.085.2.922.48 1.523 1.362 1.763.681.2 1.202.481.962 1.443.48-.24.961-.521 1.001-.842.04-.4-.16-.921-.44-1.202-.28-.28-.762-.36-1.162-.52-1.042-.441-1.403-1.042-1.283-2.084zm17.43 34.5h.36c.041-.081.121-.121.161-.201.08-.28.12-.601.2-.882.321-2.083.602-4.167-.04-6.29-.12-.361-.32-.682-.52-1.002-.321.36-.962.761-.962 1.082.2 2.404.52 4.848.801 7.292zM46.718 17.37c-.881 1.122-1.643.6-2.324.28-.68.842-.921 2.084-.44 2.525.28.24.72.28 1.081.4.04-.08.04-.2.08-.28-.2-.24-.44-.48-.8-.882 1.802-.56 3.605-1.122 3.044-3.766-.48.48-.841.882-1.242 1.242-.4-.721-.2-1.402.842-2.043.6-.361.72-.682.4-1.283a67.6 67.6 0 0 0-2.484 1.523c-.12.08-.16.48-.08.721.2.962.681 1.643 1.923 1.563zm-17.63 14.866c-.44.04-.841.04-1.162.12-.2.08-.36.28-.48.48-.201.361-.281.842-.562 1.122-.721.802-.721 2.204 0 2.525.561-1.002 1.162-2.004 1.763-3.085.2.4.36.72.601 1.001.32.44.601 1.082 1.042 1.242.962.36 1.683.842 1.763 2.004.922-.722.882-1.082.12-1.643-.4-.28-.64-.681-.961-1.042-.2-.2-.361-.52-.642-.6-1.041-.281-1.442-1.003-1.482-2.124zm3.806 33.497c.12-.04.2-.08.321-.12.16.36.36.681.641 1.242v-1.563c.08-.04.16-.04.2-.08.24.641.521 1.242.762 1.883.12-.04.2-.12.32-.16-.08-.24-.2-.44-.24-.681 0-.2.04-.48.16-.601.08-.12.44-.16.521-.04.12.12.2.4.2.6 0 .241-.08.522-.16 1.003.922-1.283.681-1.884-.641-2.164V63.77h-.28l-.602 1.081h-.24c-.12-2.163-.2-4.327-.32-6.49h-.401c-.32 2.003-.24 3.966.12 6.05-.28-.24-.48-.36-.721-.561v3.125h.2c.08-.4.12-.841.16-1.242zm4.769-20.876c-.16 0-.28-.04-.441-.04-.44 3.646-.842 7.333-1.282 10.979.16 0 .32.04.48.04 1.243-3.566 1.563-7.212 1.243-10.979zM47.92 19.694c0 .681-.04 1.643.04 2.564.04.36.24.842.481 1.002.681.44 1.202.882 1.443 1.723.04.2.72.2 1.081.32.08-.32.2-.6.16-.921-.08-.962-.44-1.643-1.642-1.563-.28.04-.801-.52-.922-.881-.08-.24.32-.681.521-1.002.12-.2.36-.32.401-.52l.681-2.044c-.6.4-1.322.801-2.244 1.322zM20.874 80.679c.44.881.801 1.562 1.162 2.203.08.16.44.24.44.401.12.962.12.962 1.283.601-.922-1.442-1.843-2.845-2.885-4.447-.08-.441-.2-1.162-.32-1.964-.401 0-.882.04-1.283.08 0 .642-.08 1.243 0 1.803.16.922.962 1.203 1.603 1.323zm-5.089-50.407c0 .2-.04.32 0 .4.36.642 1.002 1.283.28 2.084-.04.04.2.28.281.401.12-.12.36-.2.36-.36.321-1.323.562-2.645.882-3.967.12-.561.32-1.122.481-1.683.08-.28.16-.601.08-.842-.24-.6-.56-1.122-.881-1.803-.642 1.202-.16 2.404-.04 3.606-.481-.32-.762-.52-1.082-.72.08.44.12.92.24 1.361.12.401.4.722.681 1.163-.48.16-.881.28-1.282.36zm34.74 51.689h.32c.802-3.526.762-7.012-.32-10.458v10.458zm-28.77-62.508c-.4-.28-.761-.52-1.202-.84.641 1.281 1.202 2.403 1.803 3.485.08.16.32.36.441.32.2-.04.36-.24.521-.4.32-.36.601-.721.922-1.082.2-.24.36-.48.68-1.002-.52.16-.72.24-.92.28-.081-.24-.201-.44-.321-.72-.2.28-.361.48-.521.72-.16-.68-.28-1.241-.481-2.043-.4.601-.641.922-.922 1.282zm-2.484 43.315c.48-.36 1.082-.641 1.402-1.082.321-.52.561-1.242.521-1.843-.04-1.483-.24-2.965-.4-4.488-.04-.36-.04-.681-.08-1.082-.441 2.805-.922 5.53-1.443 8.495zm18.672.16c.08-.08.2-.16.28-.24-.04-1.924 0-3.887-.64-5.97-.281.32-.401.4-.401.48-.04 1.683-.12 3.406-.12 5.09 0 .16.56.4.881.64zm-2.845-40.31c-.04 0 .2 0 .32-.12.522-.48 1.043-1.001 1.483-1.562 1.042-1.282.641-2.805-.881-3.005.2.28.4.48.56.721h-.32l-.12 2.124h-.2c-.08-.521-.16-1.002-.28-1.643-.321.52-.522.922-.762 1.282-.16-.08-.36-.2-.601-.36.24.921.52 1.723.801 2.564zm-11.98 42.594c.36-.52.6-.881 1.001-1.402.28.841.521 1.522.722 2.043.44-.48.841-.921 1.402-1.562-.44.16-.681.24-.922.36-.2-.921-.36-1.843-.56-2.724-.08 0-.12-.04-.2-.04-.201.4-.402.8-.602 1.242-.761-.24-1.002.24-1.082.961-.12.681-.32 1.363-.44 2.044-.04.28.08.64.12 1.001.72-.44-.28-1.482.801-1.442.24 0 .48.641.721.962.32-.722-.08-1.162-.961-1.443zm-1.242-50.206c-.602.24-1.042.36-1.403.56-.2.121-.48.522-.44.602.44.761.92 1.442 1.442 2.123.08.08.6-.04.801-.24.441-.32.601-2.083.32-2.725-.12.321-.2.601-.36 1.002-.16-.52-.28-.921-.36-1.322zm19.433 19.273c.08.04.16.04.24.08-.36 1.242-1.562 2.404-.64 3.887.12-.441.12-.962.36-1.162 1.362-1.082.921-2.324.44-3.687-.28.16-.52.28-.84.481.16-.48.28-.841.48-1.322-.641.12-1.082.2-1.442.24.12.602.2 1.203.36 1.764.04.2.24.36.4.52.161-.12.321-.24.482-.4.04-.12.08-.24.16-.401zm-23.08-8.615c.08 0 .12.04.2.04.281-.841.642-1.683.842-2.524.24-.882.32-1.763.48-2.645-.08 0-.16-.04-.24-.04-.12.12-.2.24-.28.28-.36-.44-.681-.84-1.042-1.281-.08.04-.16.08-.28.16.32 1.282.64 2.564.961 3.806-.08 0-.12.04-.2.04-.28-.28-.561-.52-.841-.8-.08.04-.12.08-.2.12.2.96.4 1.923.6 2.844zm30.573 56.658c.12 0 .24 0 .36.04-.12-3.687.321-7.413-.32-11.06h-.4l.36 11.02zm-34.86-30.373c0-2.324.881-4.728-.521-6.972-.48 2.364-.04 4.648.52 6.972zm24.242 21.958c.72-.6.841-2.805.28-4.087h-1.883c.52 1.403 1.042 2.725 1.602 4.087zM31.01 16.448c-.681-.32-1.122-.6-1.602-.761-.561-.2-1.764.561-1.523 1.002.28.6.761 1.402 1.322 1.522 1.042.28 1.923-.52 2.004-1.442-1.042.641-1.323.761-1.563.6.4-.24.801-.56 1.362-.92zm-4.808 13.263c.601-.6 1.122-1.082 1.603-1.563.24-.24.64-.44.761-.76.12-.442.04-.922 0-1.403-.44.12-1.122.08-1.322.4-.561.762-.962 1.643-1.323 2.525-.12.24.24.68.28.801zM48.12 34.88c-.12-1.082 1.843-1.282 1.122-2.725-.521.561-.922 1.002-1.483 1.603-.4-1.402 1.603-2.124.681-3.526-.36.48-.681.841-.962 1.242-.921 1.282-.921 1.443.16 2.605.201.24.321.56.482.801zM14.903 15.567c-.64 1.322-.4 2.003.722 2.524.52.24.961.641 1.482.962.722-.762.722-.962-.12-1.643-.681-.561-1.322-1.162-2.083-1.843zm28.93 1.963c-.841-1.162-1.282-1.242-2.404-.721-1.402.681-1.723 1.603-.841 2.564.04-.841.52-1.001 1.242-1.122.681-.12 1.322-.44 2.003-.72zm.842 6.331c.32-.601.48-1.082.761-1.402.2-.24.601-.28.882-.481 1.041-.641 1.362-1.803.841-2.685h-.08c-.922 1.122-1.923 2.164-2.765 3.366-.32.44-.08 1.082.36 1.202zm-12.582 6.21c1.042-.4 1.242-1.121.721-1.883-.44-.64-.881-1.282-1.402-1.803-.32-.32-.802-.44-1.242-.64-.12.16-.24.28-.36.44.52.681.96 1.523 1.642 1.963.721.521 1.202.882.641 1.924zm17.83 41.632h-.2v10.659h.2V71.703zM24.16 21.417c-.08.4-.28.761-.16 1.002.32.68.721 1.322 1.202 1.883.16.2.561.28.882.28.08 0 .24-.4.28-.64.12-.522.2-1.003.28-1.323-.92-.04-1.602-.601-2.484-1.202zm16.309-.12c.28.4.48.68.68.921 0 .04.441-.2.401-.28-.12-.681.401-.802.842-1.042.56-.32.801-1.202.32-1.603-.2-.16-.921-.04-1.162.2-.4.522-.68 1.163-1.081 1.804zM27.925 42.092c-.12-1.522.44-2.404 1.843-2.804.36.64.721 1.322 1.122 2.003.12-.04.28-.08.4-.16-.04-.36.08-.842-.12-1.082-.32-.4-.8-.721-1.242-1.002-.801-.56-1.763-.24-2.043.681-.08.24-.2.521-.4.681-.802.682-.321 1.082.44 1.683zM53.33 22.66l-.24-.24c-.321.2-.682.44-1.003.64-.08-.04-.12-.12-.2-.16.28-.4.521-.801.801-1.242l-.16-.16c-.24.24-.48.44-.761.721-.32-.28-.641-.6-.962-.881-.2.16-.44.36-.64.52-.121-.04-.201-.12-.321-.16l1.081-2.404c-.56.681-1.041 1.363-1.442 2.124-.08.16.2.761.32.761 1.042.12 1.683.802 2.044 1.443.48-.32.962-.641 1.483-.962zM10.977 36.082c-.32.962.08 1.523.68 2.084.201.2.241.6.322.921-.361.04-.762.16-1.122.12-.28-.04-.521-.32-.882-.6-.08 1.161 1.843 1.322.922 2.684h.36c.12-.48.24-.922.32-1.402 1.163-.441 1.403-.922.762-1.844-.32-.64-.801-1.202-1.362-1.963zM6.97 18.492c-.12.08-.24.2-.36.28.28.36.56.681.8 1.082.16.32.441.882.321 1.002-.48.44-1.042.801-1.603 1.082-.12.04-.48-.4-.72-.601a8.055 8.055 0 0 1-.562-.641c-.04.04-.08.12-.16.16.04.4.12.801.16 1.162-.12 0-.2.04-.32.04.16.32.36.641.6 1.042 1.123-.681 2.205-1.323 3.447-2.084a88.11 88.11 0 0 0-1.603-2.524zm26.485 14.545c-.12.08-.2.12-.32.2.28.802.52 1.603.881 2.364.24.601.642 1.122.962 1.723 1.122-.6 1.162-1.282 0-2.123-.24-.16-.36-.441-.56-.682a51.006 51.006 0 0 0-.963-1.482zm1.763-1.122c.802-.12 1.202-.561.762-1.242-.521-.802-1.282-1.483-2.044-2.324-.32 1.482-.28 1.442.561 2.204.28.32.441.801.721 1.362zm-14.945 17.79c-.32-1.923.761-3.846.04-5.97-1.202 2.164-.521 4.087-.04 5.97zM24.28 28.83c.36-.481.56-.882.881-1.202.32-.361.761-.682 1.042-1.082.16-.2.08-.521.12-.802-.32-.04-.64-.16-.921-.04-.682.24-1.563 1.763-1.483 2.485.04.12.2.32.36.64zm-.361 7.172c.4-.561.721-1.122 1.162-1.563.641-.68.32-1.242-.08-1.843-1.923 1.683-2.164 2.885-1.082 3.406zm6.13-13.704c-.08.08-.16.12-.24.2.882.722.36 1.403-.04 2.044 1.042.4 2.044.2 2.164-.44.08-.521-.08-1.082-.16-1.884-.361.4-.481.561-.601.681-.401-.2-.762-.4-1.122-.6zm3.687-.24c-.4.28-.641.48-.962.681-.04-.04-.24-.12-.4-.2.04.681.08 1.362.12 2.324.64-.481 1.402-.761 1.562-1.282.24-.682.08-1.523.08-2.284h-.24c-.08.36-.16.68-.16.761zM13.902 42.894c.16-.16.32-.32.48-.521.241-.36.482-.721.602-1.082.16-.52.48-1.122.32-1.563-.2-.56-.801-.961-1.242-1.442-.12.08-.2.2-.32.28.2.32.36.681.6.962.361.44.882.922.321 1.483-.6.64-.801-.321-1.202-.401-.04 0-.08 0-.24.04.2.721.4 1.402.68 2.244zm19.634-12.221c-.04.16-.04.32-.08.44-.441 1.563 1.362 2.044 1.482 3.366.721-.36.962-.921.601-1.442-.52-.842-1.282-1.523-2.003-2.364zM3.324 20.255c.68-.44 1.282-.761 1.763-1.242.48-.481.801-1.122 1.202-1.723l-.24-.24c-.842 1.041-2.605.8-3.166 2.403.36-.2.6-.32 1.002-.56-.24.64-.361.921-.561 1.362zM6.569 81.12c.802-2.685.28-9.377-.961-10.298 1.402 3.446.881 6.932.961 10.297zm35.02-56.498c.642-.68 1.203-1.242 1.683-1.843.2-.24.28-.64.36-.961 0-.04-.36-.28-.48-.24-.36.16-.681.32-.962.6-.24.24-.32.641-.56.882-.562.6-.441 1.082-.04 1.562zM27.084 22.7c-.24.721-.28 1.402.481 1.923.601.441 1.082.2 1.643-.36-.961-.32-.6-.962-.44-1.363-.521-.04-1.042-.12-1.684-.2zm8.134 6.09c.521-.28.561-.76-.04-1.282-.44-.36-.881-.68-1.362-1.041-.32-.2-.601-.401-.962-.602-.04 0-.32.281-.28.321.2.36.4.721.641 1.042.08.08.24.12.32.2.521.441 1.002.802 1.683 1.363zm-1.763-10.858c.601-.4 1.203-.681 1.683-1.122.24-.2.441-.601.441-.922 0-.48-.16-.921-.28-1.402-.521.761-.962 1.523-1.563 2.084-.44.52-.601.881-.28 1.362zM48.041 28.31c-.08-.802-.16-1.523-.24-2.124-.482-.04-1.083-.04-1.123-.16-.12-.441-.08-.922 0-1.403.04-.36.24-.72.4-1.282-1.201.4-1.281 1.162-1.281 1.883 0 1.082.841 1.323 1.803 1.323-.16.36-.32.64-.441.921.32.32.56.561.882.842zm4.006 51.648c.642-2.043.681-5.77 0-7.092v7.093zm-6.891-47.401c-1.203 1.202-1.603 2.725-1.002 3.446.36-.521.801-1.002 1.122-1.563.28-.64.56-1.282-.12-1.883zm-23.24 4.808c.72-1.602.72-1.602.24-2.043-.881 1.082-.841 2.043.12 2.845-.16.52-1.082.841-.4 1.602 1.081-.72 1.121-1.723.04-2.404zm18.15.481c-.52 1.443-.96 2.725-1.442 4.007 1.483-.801 2.164-2.644 1.443-4.007zm-18.792-7.252c.561-.481 1.122-.882 1.603-1.363.2-.2.2-.6.16-.921 0-.12-.44-.28-.64-.24-.882.24-1.483 1.722-1.122 2.524zm5.41 8.815c.08 0 .2-.04.28-.04.441-.481.922-.922 1.283-1.443.24-.36.32-.801.44-1.242 0-.04-.52-.28-.6-.24-.482.52-1.003 1.041-1.323 1.643-.16.36-.04.881-.08 1.322zm17.67 4.247c-.52.08-1.002.24-1.523.28-.24 0-.64-.08-.76-.28-.121-.16.04-.56.16-.801.12-.24.32-.481.52-.681-.841.08-1.041.64-1.001 1.242.08 1.081 1.081.72 1.763.961-.2.641-.401 1.323.4 1.483.12-.721.24-1.363.441-2.204zM47.2 63.57c-.08.08-.2.16-.28.24a449.557 449.557 0 0 1 1.923 4.288c-.04-.32-.12-.681-.08-1.042 0-.12.24-.28.36-.4.24.28.441.52.681.801-.12-.48-.32-1.002-.68-1.202-.762-.44-1.323-.842-1.243-1.843 0-.28-.44-.561-.681-.842zM23.92 32.236c.4-.76.721-1.242.962-1.803.12-.24.2-.64.08-.801-.12-.16-.681-.24-.761-.12-.321.4-.642.881-.722 1.322-.04.44.28.882.441 1.403zm2.164 8.856c-.12-.08-.24-.12-.36-.2-.762.6-1.283 1.402-1.443 2.363-.04.28.28.601.48.922.481-1.162.922-2.124 1.323-3.085zM23.8 38.607c1.803-.52 2.244-1.442 1.162-2.524-.24.922-1.403 1.362-1.162 2.524zm19.553-1.883c-.12-.04-.28-.08-.4-.12-.922.52-1.242 1.322-1.042 2.324.08.36.28.721.36.962.241-.642.441-1.202.642-1.723.12-.481.28-.962.44-1.443zm-26.926.36c.28-.16.641-.28.721-.48.08-.24-.12-.561-.16-.681-.881.28-1.603.48-2.204.681.401.52.842 1.042 1.283 1.603.08-.32.24-.762.36-1.122zm28.77 27.047c.72 1.202 1.362 2.284 2.003 3.326-.08-.601-.2-1.322-.24-2.044-.08-1.001-.361-1.282-1.763-1.282zm-10.82-21.918c.4-.962-.48-3.246-1.282-3.366.56 1.082-.24 2.684 1.282 3.366zm-11.78-10.498c-1.723 1.282-1.964 2.003-.802 2.804-.44-1.202 1.563-1.482.802-2.804zM33.255 1.262c-1.563.16-2.084 1.403-1.242 2.845.44-1.002.801-1.843 1.242-2.845zm-3.927 40.27c-.761.52-1.242.881-1.763 1.202-.761.48-.841 1.362-.16 1.883.601-.962 1.202-1.924 1.923-3.086zm.08-5.29c-.08.08-.16.12-.24.2.4.602.761 1.283 1.202 1.844.16.16.561.12.882.16-.08-.32-.04-.761-.24-.962-.482-.52-1.043-.841-1.604-1.242zm14.185 5.49c.28-1.042.56-2.124.841-3.246-1.763 1.843-1.843 2.525-.841 3.246zM12.179 63.89c-.04-.08-.12-.2-.16-.28-.321.08-.722.08-.922.28-.641.641-.36 1.362-.04 2.123 1.322-.32.32-1.642 1.122-2.123zm11.22-39.107c-1.724 1.242-1.724 1.242-1.644 2.003 1.563-.32 2.004-.801 1.643-2.003zm11.62 14.344c.2-.44-.642-2.123-1.684-3.085-.2.841-.28 1.483.601 2.003.441.24.721.722 1.082 1.082zM48 36.082c-1.562 2.565-1.642 3.005-.16 3.366-1.082-.842-.52-1.282.04-1.803.4-.4.681-.922.12-1.563zM19.03 16.568v-3.045c-.44.32-.88.681-1.322 1.002.401.601.802 1.282 1.323 2.043zm7.173-12.741c.12 0 .24-.04.36-.04-.04-.561 0-1.122-.12-1.643-.08-.24-.52-.32-.841-.481-.08.32-.28.681-.2.962.2.4.56.8.8 1.202zm-16.99 76.05c-.56-.12-1.241-.6-1.281.361-.08 1.122 0 2.244 0 3.566.68-1.362-.321-3.005 1.282-3.927zm8.816-13.302c.2-.321.4-.642.641-.962.28.24.52.48.641.56.36-.88.761-1.882 1.162-2.924-.12-.04-.2-.08-.32-.12-.16.28-.441.56-.481.881-.12.641-.32 1.082-1.042 1.322-.601.12-.801.681-.601 1.243zm27.968-28.69c-.4-1.122 1.282-1.843.52-3.085-1.121 1.322-1.241 2.043-.52 3.085zm-9.416-9.296c.48-.12.921-.44.681-1.122-.2-.6-.641-1.082-1.362-.841.2.64.4 1.242.68 1.963zM25.44 38.727c-.64.2-1.762 2.003-1.602 2.604.04.16.2.28.2.32.28-.48.441-1.081.842-1.362.64-.48.68-.921.56-1.562zM5.769 73.507h-.16v6.25h.16v-6.25zm32.776-43.435c.802-.521.922-1.242.24-1.723-.16-.12-.48-.16-.64-.08-.12.08-.2.4-.16.6.12.441.36.802.56 1.203zm-8.775 11.86c-.04 1.683.24 2.124 1.282 2.084-.36-.721.16-1.924-1.282-2.084zm-14.264-8.895c-.16.04-.321.12-.481.16.16.36.36.681.44 1.042.08.32-.04.681-.04 1.002-.28-.04-.52-.08-.801-.12-.12 0-.2-.04-.32-.08.4.68 1.081.76 1.522.32 1.042-.922-.28-1.523-.32-2.324zm21.757-7.333c-.12.12-.24.2-.36.32.24.442.44.922.76 1.323.12.16.482.16.722.24.04-.28.24-.64.12-.8-.36-.402-.801-.722-1.242-1.083zM9.334 37.684c.12-.08.56-.36.52-.44-.36-.841-.8-1.643-1.241-2.444-.08.04-.2.12-.28.16.32.842.64 1.723 1 2.725zm7.934 26.286c.04.721.08 1.202.12 1.763 1.643-1.523 1.643-1.523 1.482-2.444-.44.4-.44 1.522-1.602.681zm20.435-30.132c.32-.801.2-1.362-.401-1.643-.2-.08-.52.04-.801.04.04.24 0 .561.16.722.28.32.641.56 1.042.881zm-.24 3.045c.56-1.122-.842-1.522-.602-2.604-.921.881-.921.881.601 2.604zM10.415 63.41c-.12-.04-.24-.08-.36-.16-.722.801-.08 2.524-1.844 2.524.28.681.761.882 1.082.36.52-.84.761-1.802 1.122-2.724zm27.006-32.095c.04-.561.2-1.002.12-1.443-.04-.24-.44-.48-.68-.6-.12-.04-.562.2-.562.24.08.28.2.56.36.841.161.32.442.561.762.962zM16.545 40.01c-.08.04-.2.12-.28.16a33.77 33.77 0 0 0-.32 2.124c.961 0 1.001-.802 1.161-1.403.08-.24-.36-.56-.56-.881zm4.127-14.705c1.323-1.122 1.403-1.403.561-2.084-.36.641-1.162 1.122-.56 2.084zm24.563 17.55c-.481-.641-.24-1.122.24-1.603.32-.32.44-.841.681-1.282-1.883 1.803-2.043 2.284-.921 2.885zM47.8 81.56c-.12.04-.2.04-.32.08-.08.802-.16 1.643-.2 2.445l.24.12c.24-.481.56-.962.64-1.483.04-.32-.24-.761-.36-1.162zM20.954 67.536c-.761-.08-1.202.2-1.402.842-.04.2.08.44.16.68.24-.08.6-.12.721-.28.24-.36.36-.841.52-1.242zM18.71 16.93c-.12.04-.28.08-.4.12-.842 1.042.52 1.403.72 2.124.12-.04.201-.08.321-.08a44.19 44.19 0 0 1-.64-2.164zm4.328 69.44c.6-.682 1.041-1.162 1.442-1.643-.561.04-1.042.24-1.483.48-.24.12-.56.481-.52.602.16.28.48.48.56.56zm-.12-1.763c-.802.08-1.563.12-1.804.881-.08.2.32.52.441.721.52-.6.881-1.001 1.362-1.602zm-5.29-15.667c1.323.36 1.082-.842 1.643-1.323-1.162-.16-1.483.401-1.643 1.323zm13.984-25.685c.12.04.2.12.32.16.201-.36.602-.72.562-1.081 0-.28-.441-.601-.721-.882-.08.04-.12.12-.2.16.04.522.04 1.082.04 1.643zm6.892 20.355c-.16.04-.32.08-.52.12.32 1.082.64 2.204 1 3.286.081-.04.201-.04.281-.08a80.813 80.813 0 0 0-.76-3.326zM53.21 14.405c-.52.56-.921 1.042-1.402 1.603 1.322.08 1.843-.481 1.402-1.603zM38.544 33.437c.36.962.721 1.804 1.042 2.645.4-1.402.04-2.484-1.042-2.645zm-7.413-21.156c.521-.32 1.002-.44 1.162-.761.2-.36.08-.882.12-1.362h-.28c-.32.6-.56 1.202-1.002 2.123zm7.573 20.315c.882-.36 1.002-.801.682-1.282-.12-.2-.561-.16-.882-.24.08.48.12.961.2 1.522zm-18.311.36c-.16-.08-.32-.12-.48-.2-.482.561-1.003 1.122-.522 2.324.4-.841.722-1.482 1.002-2.123zm6.651-20.034c-.36-.48-.64-.881-.961-1.282-.12-.16-.36-.2-.521-.28-.04.24-.2.52-.12.68.28.642.76 1.083 1.602.882zm-8.053 71.363c.961.2 1.001-.4 1.081-.841.12-.842-.48-1.203-1.041-1.643.44.841.841 1.602-.04 2.484zM40.748 29.43l.36.12c1.002-.962 1.082-1.202.401-2.044-.32.722-.52 1.323-.761 1.924zm-19.914 6.29c-1.202.08-1.523.602-1.122 1.723.4-.64.761-1.162 1.122-1.723zm20.715 4.128c-.08-.04-.2-.04-.28-.08-.922 1.282-1.002 1.803-.32 2.444.04-.441.08-.882.16-1.283.12-.36.28-.72.44-1.081zM26.283 59.442c-.08 0-.16 0-.24.04.12 1.443.28 2.845.4 4.288.08 0 .16 0 .24-.04-.12-1.443-.28-2.845-.4-4.288zm-3.446 28.69c.44.52.721.881 1.042 1.202.12-.2.36-.401.36-.561 0-.681-.44-.802-1.402-.641zm-2.324-50.327c-.2.601-.36 1.082-.48 1.603 0 0 .32.12.48.2.12-.52.24-1.002.36-1.522 0-.04-.04-.04-.36-.281zm-1.042-9.096c.32-.24.521-.32.642-.48.24-.24.44-.521.64-.802 0 0-.28-.32-.32-.28-.32.24-.681.48-.922.801-.12.12-.04.4-.04.761zm14.505 59.022c-.28.48-.52.681-.48.841.12.32.36.561.56.842.16-.2.481-.4.481-.561 0-.32-.28-.601-.56-1.122zm-7.733.962c-.12-.2-.24-.361-.36-.561-.321.2-.642.36-.882.64-.04.04.24.401.36.642.281-.28.561-.521.882-.722zm-7.012-57.019c.16.04.32.12.48.16.201-.6.361-1.201.562-1.802-.16-.04-.36-.12-.521-.16-.2.6-.36 1.201-.521 1.802zM41.87 69.46c.08-.08.16-.12.24-.2-.12-1.042-.44-1.402-1.402-1.282.4.56.761 1.002 1.162 1.482zM36.3 88.011l-.36.481c.28.28.6.561.881.882.12-.24.4-.601.36-.681-.24-.281-.56-.481-.88-.682zm-.28.882c-.32-.36-.521-.641-.721-.882-.12.2-.401.401-.361.521.08.32.32.561.48.842.121-.08.321-.24.602-.481zM21.074 68.658c.12.08.2.2.32.28.321-.44.682-.881 1.083-1.482-1.122-.08-1.203.641-1.403 1.202zm-11.38-2.204c1.323.08.361 1.002.722 1.683.28-.56.56-.921.56-1.242 0-.24-.36-.52-.64-.641-.12-.08-.401.12-.641.2zm21.998 21.958c.401.4.642.721.922 1.002.16-.16.4-.36.4-.521 0-.641-.36-.802-1.322-.481zM12.06 44.577c.32-.24.68-.401.72-.601.081-.521.281-1.162-.44-1.523-.12.601-.16 1.202-.28 2.124zm19.914 44.156c-.481-.28-.721-.481-1.002-.521-.16 0-.36.24-.52.4.2.2.36.521.6.601.16.08.441-.2.922-.48zm5.049-49.686c.08 0 .16 0 .28-.04 0-.24.16-.56.04-.681-.24-.24-.56-.44-.881-.601-.08-.04-.24.16-.401.24.2.2.4.401.6.641.121.12.241.28.362.441zM20.754 84.846c-.04-.08-.12-.16-.16-.24-.321.32-.682.56-.922.921-.04.08.36.48.6.761.201-.64.361-1.041.482-1.442zm-6.492-15.948l.481.361c.32-.48.641-1.002.962-1.482-.12-.08-.24-.16-.36-.28-.361.48-.722.92-1.083 1.401zm7.974-26.405c.2-.681.4-1.322.641-2.164-1.202 1.202-1.242 1.363-.64 2.164zm5.53 46.2c-.441-.24-.681-.441-.882-.441-.16 0-.48.36-.44.48.04.2.32.481.52.522.16 0 .4-.281.802-.562zM14.984 8.273c.12 1.162.44 1.282 1.883.762-.721-.28-1.202-.481-1.883-.762zm9.777 4.408c.28 1.082 1.041 1.402 2.163 1.082-.56-.32-1.402-.721-2.163-1.082zm-6.612 73.406c-.08-.761-.12-1.122-.16-1.523-.4.24-.641.561-.681.922-.04.16.4.32.841.601zm24.162-17.91c.48.28.12 1.322 1.282 1.201-.32-.68-.24-1.482-1.282-1.202zM22.316 89.292c.16-.12.28-.24.441-.4-.24-.32-.48-.681-.761-1.002-.12.2-.401.521-.36.641.12.32.44.521.68.761zM40.307 69.1c.08-.08.16-.2.24-.28-.4-.361-.8-.722-1.201-1.123l-.24.24c.4.361.28 1.323 1.201 1.163zm-5.53-43.074c.161.08.281.12.441.2.2-.32.441-.641.521-1.002.04-.08-.32-.32-.52-.48-.12.44-.281.841-.441 1.282zm-6.13 19.633c1.042-.64 1.082-.961.4-1.682a89.78 89.78 0 0 0-.4 1.682zm-8.254 19.514c-.721.24-.681.841-.641 1.443 0 .16.32.32.48.52.08-.76.12-1.322.161-1.963zM36.06 69.02c-.48-.561-.882-.962-1.242-1.363l-.36.361c.84-.08.12 1.402 1.602 1.002zm-9.376-2.244c.04 0 .08 0 .08.04-.16-.48-.32-.962-.561-1.403-.04-.08-.641 0-.641.08-.08.521-.08 1.042-.12 1.764.24-.681.36-1.122.52-1.563l.722 1.082zM36.3 39.849c-.16.04-.28.08-.44.12.16.6.28 1.202.48 2.043.361-.961.561-1.643-.04-2.163zm1.202 29.17c-.52-.561-.921-.962-1.282-1.363l-.28.28c.64.161.12 1.483 1.562 1.083zM9.574 78.114c-.12-.12-.24-.2-.36-.32-.32.4-.681.801-1.122 1.322 1.362.36.841-.921 1.482-1.002zm6.171-9.336c1.443.441 1.202-.6 1.603-.961-.08-.08-.16-.16-.2-.24-.441.32-.842.68-1.403 1.201zm4.528-26.726c.16 0 .32.04.48.04.08-.52.12-1.041.2-1.602-.16 0-.28-.04-.44-.04-.04.52-.12 1.081-.24 1.602zm12.942 42.954l-.16.16c.12.321.16.682.36 1.002.08.12.361.16.561.24.04-.2.2-.48.12-.56-.28-.32-.6-.561-.881-.842zm12.02-15.466c-.48-.561-.88-.962-1.242-1.403l-.2.2c.44 1.162.44 1.162 1.443 1.203zm-7.211 18.51l-.32.321c.2.32.36.601.56.921.201-.24.361-.48.562-.72-.28-.201-.561-.361-.802-.522zm-17.27 1.203c.12-.12.241-.2.361-.321-.28-.32-.52-.641-.801-.922-.08.2-.32.441-.24.561.16.24.44.441.68.681zm17.07-21.517c.28 1.442.28 1.442 1.082 1.162-.4-.441-.721-.802-1.082-1.162zM35.9 86.369c.08.08.2.12.28.2.16-.24.561-.561.48-.681-.16-.32-.52-.521-.8-.762l-.2.2c.12.321.16.682.24 1.043zm-8.735.28c.16-.12.32-.2.48-.32-.2-.321-.36-.602-.56-.922-.16.12-.481.32-.481.32.16.361.36.641.56.922zm12.621 1.362c-.16.08-.32.12-.44.2.16.361.28.722.44 1.082.16-.12.441-.28.441-.36a6.53 6.53 0 0 0-.44-.922z" fill="#2E353F"/><path d="M29.49 68.42c5.449.12 9.095 6.45 6.57 11.499-1.842 3.686-5.689 5.33-9.175 3.887-2.885-1.202-4.688-4.087-4.688-7.493 0-3.206 1.883-6.13 4.768-7.253.802-.32 1.683-.44 2.525-.64zm6.01 5.128c-1.443.761-2.845 1.563-4.448 2.404 1.723-.28 3.246-.52 4.809-.801-.12-.521-.24-1.042-.361-1.603-.28-.44-.521-.922-.801-1.402-.361.32-.722.68-1.122 1.001-.962.722-1.964 1.443-2.925 2.164a929.285 929.285 0 0 0 3.526-3.205c-.28-.441-.521-.882-.802-1.323-.44-.28-.881-.56-1.362-.881-.12.36-.2.721-.36 1.042-.522 1.242-1.083 2.524-1.604 3.766.561-1.643 1.082-3.286 1.643-4.888-.44-.12-.881-.24-1.282-.361-.2 1.603-.4 3.125-.56 4.688 0 .16.12.36.2.561.16.04.32.08.48.08l.12.481c.321-.04.682.04 1.002-.08a85.455 85.455 0 0 0 3.847-1.643zm-12.221.12c1.523.601 3.085 1.202 4.608 1.803-.32-.4-.721-.68-1.082-1.001-.801-.722-1.563-1.483-2.364-2.244 1.082.841 2.123 1.683 3.205 2.524.16.12.441.08.682.08.68.04.24-.32.2-.52l-1.563-4.328c.681 1.523 1.403 3.085 2.204 4.848-.24-1.963-.44-3.646-.681-5.409-.561.2-1.042.4-1.483.56-.48.322-.961.682-1.442 1.003-.36.4-.721.841-1.042 1.242-.44.48-.841.961-1.242 1.442-.04.561-.12 1.162-.16 1.723 1.482.2 3.005.4 4.567.601-.28-.28-.6-.4-.921-.56a142.513 142.513 0 0 1-3.486-1.764zm.52 5.33c-.64.76.642.961.321 1.722 1.403-1.202 2.645-2.203 3.887-3.245l-.08-.08c-1.402.56-2.765 1.122-4.127 1.602 1.282-.68 2.604-1.362 4.087-2.163-1.723.28-3.286.48-5.009.761.36.561.641 1.002.922 1.402zm6.973-1.523c-.04.12-.12.28-.16.4-.2.281-.601.561-.601.802.16 1.563.4 3.125.6 4.648.401-.12.722-.2 1.082-.28.722-.12 1.683-.962 1.643-1.563.12.12.24.24.28.32.441-.4.802-.721 1.203-1.082.24-.52.44-1.041.68-1.602-1.321-.561-2.684-1.162-4.046-1.723-.2-.08-.48.04-.681.08zm-2.444.6c-.2 0-.441-.12-.561 0-1.122.922-2.244 1.924-3.326 2.806.36.4.721.841 1.042 1.242 1.482.801 2.965 1.643 4.728 1.202-.2-1.643-.441-3.246-.641-4.889-.04 0-.08 0-.12.04-.2 1.523-.361 3.046-.561 4.528-.08 0-.2-.04-.281-.04.16-1.562.32-3.085.52-4.648-.04 0-.08-.04-.12-.04-.48 1.282-1.001 2.565-1.482 3.887.2-1.242.641-2.364 1.042-3.526.04-.16-.16-.36-.24-.561zm-.682-1.522v-.2c-1.562-.2-3.085-.44-4.648-.641v1.522c1.563-.24 3.126-.48 4.648-.68zm3.807.32c0 .08-.04.121-.04.201 1.402.601 2.805 1.202 4.167 1.803.16-.56.28-1.001.44-1.522l-4.567-.481zm-2.044-2.323c.04 0 .08-.04.12-.04.201-1.683.361-3.366.562-5.049h-1.403c.24 1.723.481 3.406.721 5.089zm1.964 1.763v.12c1.522.2 3.085.44 4.608.641v-1.522c-1.523.24-3.086.52-4.608.76zm-.681.32v-.48c-.401-.28-.802-.762-1.242-.842-.682-.08-.962.48-.962 1.122 0 .641.36 1.122.962 1.002.48-.04.84-.481 1.242-.802z" fill="#2E353F"/></svg>