<svg width="1351" height="525" viewBox="0 0 1351 525" fill="none" xmlns="http://www.w3.org/2000/svg">
<g clip-path="url(#clip0)">
<path d="M390.472 263.76C390.472 346.182 390.243 428.605 390.739 511.027C390.816 522.328 387.533 525 376.616 524.962C267.712 524.58 158.808 524.58 49.9427 525C39.2928 525.038 36.3154 521.87 36.5826 511.562C37.1933 485.946 36.7734 460.253 36.7734 434.637C36.7734 430.552 37.7277 426.429 32.7654 423.757C30.2843 422.42 25.8563 418.679 33.9487 418.412C37.0788 418.297 37.1552 414.861 35.2848 414.251C28.7192 412.151 22.4209 404.21 15.7027 408.677C9.44253 412.876 5.62536 412.762 2.91517 406.806C0.357668 401.118 -0.787483 394.628 5.93073 389.932C14.214 384.168 21.8483 377.678 29.0628 370.577C34.9412 364.812 37.0025 358.628 37.0025 350.42C36.7353 239.403 36.7734 128.387 36.8116 17.3702C36.8116 0.305418 36.8498 0.305419 53.6072 0.305419C160.793 0.267243 268.017 0.419948 375.242 8.65801e-06C386.96 -0.0381676 390.93 2.82505 390.854 15.2323C390.32 98.0748 390.587 180.917 390.587 263.76C390.51 263.76 390.51 263.76 390.472 263.76ZM246.87 238.449C247.71 237.876 248.55 237.304 249.428 236.693C250.306 236.769 251.184 236.884 252.062 236.96C252.749 238.411 253.474 239.9 254.161 241.35C254.39 242.114 254.543 242.839 254.657 243.641C254.161 249.367 258.131 245.092 259.811 245.932C258.894 252.536 262.177 249.787 264.926 248.26C265.422 249.94 265.918 251.62 266.414 253.3C267.14 253.452 267.865 253.605 268.59 253.719C270.308 253.719 271.987 253.719 273.705 253.681C274.621 253.605 275.537 253.567 276.492 253.49L276.415 253.109C278.209 255.437 276.263 259.446 279.927 260.973C280.003 262.615 280.843 263.493 282.523 263.531C282.752 265.974 283.973 267.73 286.073 268.952V268.875C287.371 267.921 288.63 266.967 289.928 265.974C291.493 265.86 292.295 265.02 292.333 263.454C296.646 264.485 299.127 262.729 299.929 258.491C300.807 258.301 301.685 258.148 302.563 257.957C313.976 256.545 323.634 254.216 320.542 238.602C318.557 228.447 325.046 221.69 332.795 215.887C336.536 221.957 327.756 223.408 328.367 225.125C339.208 235.815 348.407 225.164 358.026 227.607C361.118 228.409 365.699 231.195 368.142 227.492C370.279 224.209 368.256 220.353 365.89 217.07C364.477 215.123 363.867 212.642 362.874 210.389C369.898 214.627 373.829 220.392 371.921 228.943C368.447 244.519 353.484 237.838 344.399 242.534C352.759 261.966 351.194 269.181 335.39 278.992C331.459 281.435 332.986 283.879 333.177 286.322C333.596 291.819 338.406 294.912 341.803 298.157C357.568 313.236 359.4 332.859 347.262 350.344C335.925 366.683 321.038 372.219 302.028 368.554C303.326 374.013 308.098 375.349 312.068 377.525C334.322 389.589 354.743 403.561 368.676 425.665C372.302 431.43 370.661 439.065 376.807 443.799C378.143 444.83 367.493 440.821 371.73 448.342C373.486 451.473 377.417 453.267 379.593 456.245C382.074 459.68 381.387 463.613 380.051 468.461C367.378 456.894 356.041 445.899 342.948 438.607C338.292 453.572 348.369 465.216 352.033 478.616C344.666 478.578 342.3 471.859 337.223 471.248C336.383 476.478 345.697 479.952 340.467 483.77C335.925 487.129 335.161 478.616 331.764 476.325C328.71 474.264 328.1 473.615 327.336 476.249C325.237 483.464 322.794 481.135 319.168 477.432C315.503 473.653 310.693 469.606 305.464 472.813C299.853 476.249 305.349 482.014 304.586 486.48C303.746 491.367 307.449 491.825 309.434 494.115C310.922 495.872 311.495 498.124 309.777 499.765C307.525 501.903 306.227 499.231 304.7 498.124C298.02 493.199 290.768 489.038 283.859 484.61C275.728 479.379 265.651 474.913 260.421 466.934C255.497 459.413 249.695 456.626 241.946 455.252C231.983 446.586 222.746 437.195 213.852 427.46C196.675 408.639 190.872 405.05 182.742 406.157C189.536 417.152 203.011 421.428 210.302 432.384C207.744 431.315 203.24 426.314 205.111 434.637C206.103 438.913 208.088 442.959 209.615 447.12C207.592 444.334 204.805 442.807 201.408 442.272C200.721 441.509 199.996 440.745 199.308 439.981C197.82 437.5 196.369 435.019 194.881 432.499C192.438 432.461 190.033 432.461 187.59 432.423C187.017 432.575 186.406 432.728 185.834 432.843C183.925 432.728 181.979 432.613 180.07 432.499C175.031 433.721 170.298 436.889 164.763 435.019C163.465 435.019 162.206 434.98 160.908 434.98L161.328 435.362C159.266 428.91 154.609 424.558 149.571 420.473C146.212 418.565 142.891 416.618 139.532 414.709C136.745 413.983 133.92 412.914 131.057 414.365C130.981 415.358 130.905 416.35 130.828 417.343C125.065 414.022 119.759 408.562 108.574 414.098C119.873 414.251 123.958 420.473 129.187 424.978C133.157 428.376 137.05 432.003 140.753 424.749C144.227 427.002 147.051 429.788 148.578 433.721C149.876 437.615 152.472 440.516 155.831 442.768C157.052 442.807 158.236 442.807 159.457 442.845C160.755 442.921 162.053 442.997 163.313 443.074C166.404 451.129 171.825 456.932 179.803 460.291C182.818 468.957 192.552 471.171 197.094 478.349C192.667 478.425 189.575 476.287 186.139 473.538C181.101 469.492 175.871 464.987 168.695 464.949C163.618 461.895 158.617 458.535 151.67 458.459C162.511 472.699 180.49 479.418 185.567 497.513C180.833 492.856 173.657 496.94 168.733 491.748C161.289 483.846 152.968 476.631 144.341 470.064C134.455 462.544 126.973 451.778 114.491 447.731C110.903 449.526 106.36 443.112 103.345 448.8C101.207 452.847 104.07 456.13 106.284 458.917C111.361 465.292 112.621 473.233 115.712 480.41C114.796 481.441 113.842 482.433 112.926 483.464C109.261 481.288 105.177 478.654 104.452 474.646C102.238 462.658 91.8933 458.726 83.1139 449.831C85.7477 459.986 93.3439 463.765 96.6266 470.79C91.4353 464.681 83.0757 465.483 77.1591 460.597C67.9597 453.076 55.0959 449.716 53.0728 434.942C52.6147 431.659 46.7744 428.605 42.6137 429.407C38.0713 430.285 40.3616 435.057 40.3616 438.034C40.1707 461.169 40.8196 484.342 39.8654 507.439C39.4073 518.815 42.9954 521.259 53.9507 521.221C159.953 520.801 265.956 520.801 371.997 521.221C383.143 521.259 386.808 518.892 386.77 507.019C386.35 343.777 386.388 180.536 386.693 17.2939C386.693 6.79538 384.861 3.09229 373.104 3.13046C266.681 3.66493 160.221 3.62675 53.798 3.16864C42.6519 3.13046 39.9035 5.87915 39.9417 17.0266C40.3616 126.402 40.1707 235.815 40.2471 345.19C40.2471 348.282 38.9492 351.794 42.461 355.879C51.2023 346.793 61.356 339.731 69.2957 329.919C78.3806 318.657 75.7849 299.76 93.0767 293.919C94.031 293.614 94.3745 290.903 94.6035 289.262C95.367 283.65 97.0465 279.565 104.146 281.015C107.925 281.779 108.956 278.649 109.872 275.709C110.903 272.426 109.147 271.319 106.437 270.326C101.36 268.494 98.9551 264.523 96.7411 259.599C94.031 253.643 90.481 247.649 84.7552 243.794C67.7307 232.303 57.9587 216.536 58.8748 195.921C59.791 175.191 61.6614 154.423 64.8296 133.922C67.3108 117.85 69.8683 100.862 77.1209 86.6983C86.0149 69.3281 97.0847 51.1944 120.369 48.942C122.698 48.7129 123.958 49.5146 125.294 45.8879C130.752 32.0681 145.906 24.9673 160.526 27.3342C169.382 28.7467 178.581 29.2049 187.552 28.6322C207.897 27.4106 227.861 22.3713 248.664 25.8072C260.383 27.7542 263.666 33.9769 264.773 44.2845C265.536 51.3089 261.108 57.9134 263.551 65.4723C268.857 61.731 267.674 56.3482 267.025 52.4924C265.155 41.0395 272.484 44.6662 277.713 45.4298C280.232 45.7734 280.423 50.469 284.279 49.9727C283.095 43.101 282.904 36.1148 279.393 29.1667C296.837 27.2579 298.898 44.4372 308.708 51.4234C313.594 40.0087 313.175 37.4128 307.296 35.6566C305.273 35.0458 304.471 41.7648 302.716 36.2675C302.028 34.0914 304.166 32.8316 306.495 32.2208C315.121 30.0447 329.627 38.8634 330.161 48.2166C330.734 58.6006 327.489 68.9082 331.382 79.5593C332.795 83.4151 328.749 89.1798 322.412 89.676C329.741 83.1097 326.496 75.36 324.97 67.6865C324.435 64.9378 324.015 62.4946 320.542 63.8689C317.641 65.0142 317.641 67.1139 319.091 69.8626C322.527 76.3525 324.13 82.3844 316.495 87.8818C314.282 89.447 314.129 95.0207 320.313 91.8139C323.557 100.633 315.427 98.9147 310.655 101.014C323.863 114.834 329.703 132.052 338.177 147.78C327.413 141.596 326 129.418 320.504 119.873C314.282 109.07 307.182 98.0748 294.776 95.6316C282.37 93.1883 270.957 87.8436 259.696 83.606C247.061 78.8722 237.213 82.308 230.609 88.8744C221.257 98.1894 213.737 94.5244 205.645 90.4014C199.499 87.2328 193.774 84.1787 186.406 85.553C202.782 88.8362 211.523 103.687 226.296 110.177C216.944 119.759 205.378 120.064 194.308 119.415C185.796 118.919 180.604 121.515 175.718 131.021C194.766 118.041 216.677 131.059 234.655 117.354C219.578 125.218 222.669 140.565 216.944 152.056C223.395 148.467 228.09 142.894 235.953 140.565C233.205 149.804 224.12 151.293 217.555 158.775C227.632 158.584 231.182 151.369 236.526 148.697C237.976 154.499 231.067 155.187 229.96 160.035C235.113 159.5 239.58 155.759 244.695 158.279C244.618 158.928 244.542 159.577 244.542 160.264C243.664 160.989 242.786 161.715 241.908 162.478L241.603 162.669C240.877 163.242 240.152 163.853 239.389 164.425C240.381 170.304 243.206 166.449 245.076 165.303C249.81 162.44 252.329 156.599 258.322 155.339C258.78 156.179 259.238 157.019 259.696 157.821C247.367 170.381 242.023 185.804 239.694 205.465C244.771 202.22 246.794 196.684 251.604 199.7L251.489 199.433C251.604 200.425 251.184 200.998 250.191 201.113L250.115 201.876C250.764 210.428 236.64 212.947 241.45 223.217C239.083 224.057 238.663 225.011 241.297 226.118C241.488 226.958 241.679 227.798 241.87 228.638L242.213 228.18C239.847 228.638 239.541 230.432 239.351 232.379C239.732 233.601 240.114 234.822 240.496 236.044C241.908 236.082 243.359 236.12 244.771 236.158L244.236 235.815C245.114 236.693 245.992 237.571 246.87 238.449ZM189.117 195.768C185.452 197.295 186.025 198.86 189.04 200.464C189.422 201.074 189.804 201.723 190.185 202.334C190.567 201.685 190.949 201.074 191.331 200.425C193.125 198.86 194.842 197.257 191.292 195.73C191.369 194.546 191.14 193.515 189.689 193.859C189.384 193.974 189.307 195.119 189.117 195.768ZM206.714 224.438C206.714 223.369 206.714 222.262 206.714 221.193C207.324 219.055 209.119 216.116 208.317 214.932C206.714 212.642 205.759 216.383 204.08 216.574C202.858 216.459 200.835 215.849 200.568 216.307C193.01 228.79 176.215 215.925 168.657 228.065C166.443 226.309 164 224.782 162.053 222.759C159.877 220.468 160.412 216.154 155.144 214.512C159.152 229.096 170.031 235.357 181.33 241.007C192.972 246.81 199.003 244.175 205.149 231.081C205.683 228.905 206.179 226.652 206.714 224.438ZM198.736 33.9005C194.842 33.9769 191.216 30.0447 187.208 32.9461C186.75 36.382 192.17 37.7563 189.536 42.872C182.398 39.0162 178.085 30.5028 168.084 31.6863C175.947 36.8401 182.78 42.5665 184.002 52.2251C179.65 52.187 176.215 53.5231 174.421 58.0661C185.91 62.7236 198.011 65.9304 201.37 79.9793C201.675 81.2391 203.66 82.4607 205.111 82.9952C207.783 83.9878 209.92 88.9125 213.356 85.1331C215.455 82.8043 214.844 79.6739 212.707 77.1542C207.477 70.9697 206.256 63.1817 204.118 53.9049C199.69 61.5401 195.568 61.8456 191.56 55.5847C195.72 57.3408 197.667 55.9664 198.24 51.4616C198.927 46.1551 200.148 40.8868 201.141 35.6185C210.531 38.978 210.416 49.3237 216.18 56.6154C218.051 49.0565 215.989 42.7192 213.623 36.8783C210.989 30.1593 203.24 29.0521 198.736 33.9005ZM103.307 284.948C100.482 284.337 99.8331 286.398 98.8788 288.307C95.7105 294.568 98.8406 297.317 104.452 299.149C137.89 310.144 169.687 325.3 201.522 340.036C213.088 345.381 214.844 342.403 217.86 332.515C220.952 322.36 213.127 321.826 208.088 319.917C175.566 307.739 142.853 295.981 109.3 286.704C107.277 286.169 105.253 285.558 103.307 284.948ZM287.065 432.881C299.585 435.782 310.541 438.302 323.176 441.203C316.839 428.987 310.655 419.595 298.364 416.274C301.914 421.084 302.143 426.734 304.09 431.545C298.784 433.911 293.936 427.498 287.065 432.881ZM233.205 57.608C236.831 40.276 233.167 34.2823 218.471 35.5803C225.227 42.7574 225.761 51.0417 223.28 61.731C230.189 54.8211 223.776 47.644 228.472 42.6047C233.93 46.2696 228.968 52.4924 233.205 57.608ZM41.0868 419.29C49.7518 428.3 61.3942 430.934 72.3876 434.98C63.5318 426.658 53.5308 420.473 41.0868 419.29ZM143.349 60.5476C153.617 71.1606 158.961 56.8826 166.901 57.7225C158.694 54.2103 151.059 55.5847 143.349 60.5476ZM288.363 418.412C279.431 411.884 269.315 408.104 258.551 405.966C267.407 412.685 277.942 415.205 288.363 418.412ZM257.062 418.755C262.826 422.115 258.665 441.814 275.003 428.3C268.17 426.124 262.75 422.191 257.062 418.755Z" fill="#2E3540"/>
<path d="M196.522 452.198C204.08 468.766 213.966 483.464 229.808 493.352C232.747 495.184 235.114 497.322 234.388 501.254C224.12 497.246 218.165 487.74 209.5 481.785C199.499 474.913 193.43 462.506 179.917 460.559C171.939 457.199 166.519 451.396 163.427 443.341L164.19 442.501C165.259 442.845 166.672 443.761 167.397 443.379C169.687 442.196 167.626 441.165 166.977 440.02C166.099 438.531 163.58 437.729 164.839 435.248C170.374 437.118 175.108 433.988 180.146 432.728C183.162 436.698 186.216 440.631 189.231 444.601C189.422 447.922 190.72 450.785 192.934 453.229C194.155 452.885 195.339 452.542 196.522 452.198Z" fill="#2E3540"/>
<path d="M114.644 447.96C127.24 464.109 139.837 480.257 154.304 498.773C137.738 495.833 133.081 477.051 117.201 481.212C116.781 481.021 116.323 480.792 115.903 480.639C112.811 473.462 111.552 465.521 106.475 459.146C104.261 456.359 101.398 453.076 103.536 449.029C106.513 443.341 111.056 449.793 114.644 447.96Z" fill="#2E3540"/>
<path d="M115.903 480.639C116.361 480.83 116.781 481.021 117.201 481.212C121.095 489.878 131.248 490.641 137.05 496.788C136.172 499.689 133.5 498.048 132.012 499.116C129.302 501.063 137.165 507.248 129.187 506.79C123.232 506.446 127.698 500.453 125.141 497.78C120.866 493.314 117.087 488.389 113.079 483.655C114.033 482.663 114.949 481.67 115.903 480.639Z" fill="#2E3540"/>
<path d="M269.544 153.049C266.605 155.377 264.009 158.393 259.658 157.821C259.2 156.981 258.742 156.141 258.284 155.339C258.818 152.705 259.314 150.071 259.849 147.475L259.352 147.857C261.376 147.895 262.177 146.711 262.368 144.879L261.91 145.337C263.59 145.184 264.582 144.344 264.697 142.588C266.414 143.39 268.857 142.588 269.85 144.955C269.124 147.628 263.361 150.109 269.544 153.049Z" fill="#2E3540"/>
<path d="M148.693 433.988C151.441 435.057 154.266 436.584 156.098 432.613C157.854 433.606 159.648 434.599 161.404 435.629L160.984 435.248C162.053 437.653 163.122 440.096 164.229 442.501L163.465 443.341C162.167 443.265 160.87 443.188 159.61 443.112C158.35 444.906 157.167 444.792 155.984 443.036C152.548 440.783 149.991 437.882 148.693 433.988Z" fill="#2E3540"/>
<path d="M198.85 442.73C197.896 444.372 199.041 447.044 196.369 447.808L196.751 448.228C196.484 446.51 195.797 445.212 193.735 445.25L194.193 445.67C193.239 443.112 192.285 440.554 191.292 437.996C192.514 436.202 193.735 434.446 194.957 432.652C196.446 435.133 197.896 437.615 199.385 440.134L199.156 440.287C197.934 440.44 196.827 440.859 197.285 442.31C197.438 442.73 198.545 442.845 199.232 443.112C199.232 443.15 198.85 442.73 198.85 442.73Z" fill="#2E3540"/>
<path d="M149.647 420.702C149.342 422.306 149.036 423.909 148.731 425.513C144.494 423.031 140.371 420.435 139.608 414.938C142.929 416.885 146.288 418.794 149.647 420.702Z" fill="#2E3540"/>
<path d="M244.58 227.798C245.458 230.623 246.374 233.41 247.252 236.235C246.26 236.082 245.267 235.968 244.275 235.815L244.809 236.158C243.435 233.524 241.984 235.395 240.534 236.044C240.152 234.822 239.77 233.601 239.389 232.379C240.343 230.966 241.297 229.592 242.252 228.18L241.908 228.638C242.748 228.332 243.664 228.065 244.58 227.798Z" fill="#2E3540"/>
<path d="M276.453 253.567C275.537 253.643 274.621 253.681 273.667 253.758C273.247 252.803 272.865 251.849 272.445 250.894L271.987 251.314C274.01 251.353 274.697 250.131 274.927 248.375L274.507 248.757C275.461 248.604 276.415 248.489 277.408 248.337C277.293 250.131 277.179 251.963 277.064 253.758L276.453 253.567Z" fill="#2E3540"/>
<path d="M282.599 255.934C280.538 255.017 278.477 254.101 276.415 253.223L276.492 253.605L277.14 253.834C278.935 253.758 280.767 253.643 282.561 253.567C282.446 254.521 282.332 255.476 282.217 256.392L282.599 255.934Z" fill="#2E3540"/>
<path d="M203.965 220.01C204.881 220.392 205.798 220.811 206.714 221.193C206.714 222.262 206.714 223.369 206.714 224.438C205.798 224.973 204.843 225.507 203.927 226.08C203.774 224.286 203.622 222.529 203.469 220.735L203.965 220.01Z" fill="#2E3540"/>
<path d="M252.062 236.998C252.94 236.616 253.818 236.235 254.696 235.853C254.619 237.609 254.543 239.365 254.466 241.159L254.123 241.427C253.436 239.938 252.749 238.487 252.062 236.998Z" fill="#2E3540"/>
<path d="M257.291 240.854C256.413 241.809 255.535 242.725 254.657 243.679C254.543 242.916 254.39 242.152 254.161 241.427L254.505 241.16C255.421 241.045 256.337 240.969 257.291 240.854Z" fill="#2E3540"/>
<path d="M247.176 157.553C246.26 158.431 245.382 159.348 244.466 160.226C244.466 159.577 244.542 158.89 244.618 158.241L244.275 157.172C245.267 157.324 246.221 157.439 247.176 157.553Z" fill="#2E3540"/>
<path d="M266.414 253.338C267.598 252.536 268.781 251.734 269.964 250.933C269.506 251.887 269.048 252.841 268.59 253.796C267.865 253.643 267.14 253.49 266.414 253.338Z" fill="#2E3540"/>
<path d="M244.504 160.226C243.626 160.951 242.748 161.677 241.87 162.44C242.748 161.715 243.626 160.989 244.504 160.226Z" fill="#2E3540"/>
<path d="M241.564 162.631C240.839 163.204 240.114 163.814 239.351 164.387C240.076 163.814 240.801 163.242 241.564 162.631Z" fill="#2E3540"/>
<path d="M254.772 197.944C253.665 198.44 252.558 198.937 251.451 199.433C251.451 199.433 251.565 199.7 251.527 199.7C252.634 199.089 253.703 198.517 254.772 197.944Z" fill="#2E3540"/>
<path d="M250.153 201.113L250.688 201.571C250.688 201.571 250.077 201.914 250.077 201.876L250.153 201.113Z" fill="#2E3540"/>
<path d="M286.073 269.028C286.569 268.036 287.103 267.081 287.6 266.089C287.103 267.043 286.607 267.997 286.073 268.952V269.028Z" fill="#2E3540"/>
<path d="M131.096 414.594C132.928 414.938 133.615 416.121 133.615 417.877C132.699 417.763 131.783 417.687 130.867 417.572C130.981 416.618 131.057 415.587 131.096 414.594Z" fill="#2E3540"/>
<path d="M187.704 432.652C188.2 433.644 188.697 434.637 189.193 435.629C188.086 434.789 187.017 433.911 185.91 433.072C186.521 432.957 187.093 432.804 187.704 432.652Z" fill="#2E3540"/>
<path d="M201.522 442.463C200.644 442.539 199.728 442.654 198.85 442.73L199.27 443.15C199.232 442.196 199.194 441.279 199.194 440.325L199.423 440.172C200.11 440.936 200.797 441.699 201.522 442.463Z" fill="#2E3540"/>
<path d="M246.87 238.449C246.87 237.571 246.87 236.655 246.87 235.777C247.71 236.082 248.588 236.387 249.428 236.693C248.55 237.304 247.71 237.876 246.87 238.449Z" fill="#2E3540"/>
<path d="M227.861 463.116C235.457 463.269 238.816 469.988 244.313 473.462C246.603 474.913 247.977 479.99 251.985 475.753C255.383 477.471 256.604 483.312 262.063 481.097C265.384 485.297 268.552 489.649 272.064 493.695C274.316 496.291 275.156 498.811 272.56 501.254C269.506 504.118 267.521 501.407 265.384 499.346C252.94 487.244 240.381 475.18 227.861 463.116Z" fill="#2E3540"/>
<path d="M363.294 210.962C351.117 198.058 334.627 187.369 342.147 165.074C344.208 158.928 336.65 153.965 337.719 147.36C344.361 153.469 347.758 161.524 344.59 169.617C340.62 179.772 344.781 186.224 350.774 193.096C355.545 198.555 362.301 202.792 363.294 210.962Z" fill="#2E3540"/>
<path d="M189.231 444.601C190.872 444.983 192.552 445.326 194.193 445.708L193.735 445.288C193.964 447.044 194.957 448.075 196.751 448.266L196.369 447.846C196.446 448.838 196.522 449.869 196.636 450.862C195.415 451.663 194.193 452.465 192.972 453.267C190.72 450.785 189.422 447.96 189.231 444.601Z" fill="#2E3540"/>
<path d="M208.393 496.177C208.584 495.223 208.813 494.268 209.004 493.314C209.958 494.268 210.913 495.223 211.905 496.177C210.722 496.139 209.538 496.139 208.393 496.177Z" fill="#2E3540"/>
<path d="M211.485 495.795C212.439 496.711 213.356 497.666 214.31 498.582C213.356 497.628 212.439 496.711 211.485 495.795Z" fill="#2E3540"/>
<path d="M269.315 190.652C271.987 187.178 273.323 183.742 269.01 180.459C285.271 171.373 302.601 164.998 320.771 161.447C330.924 159.501 336.803 166.525 332.909 176.069C329.054 185.537 338.75 188.629 340.544 196.761C334.703 194.661 329.665 192.561 324.473 191.072C318.442 189.316 311.877 183.781 307.22 193.974C305.197 198.364 300.54 191.416 296.494 194.852C300.578 196.379 304.242 197.715 308.899 199.471C299.089 202.716 292.066 199.013 285.653 194.508C280.5 190.843 275.499 188.82 269.315 190.652Z" fill="#2E3540"/>
<path d="M259.849 147.437C255.573 146.826 254.581 151.063 251.947 152.858C251.565 150.949 251.909 148.658 249.428 147.78C251.375 139.611 258.322 143.886 262.941 142.321C262.597 143.314 262.254 144.306 261.91 145.261L262.368 144.803C260.574 144.993 259.582 146.024 259.352 147.78L259.849 147.437Z" fill="#2E3540"/>
<path d="M285.042 236.082C285.92 234.288 286.836 232.494 287.714 230.661L287.218 231.081C289.126 231.31 290.157 230.432 290.424 228.561C292.027 228.981 294.356 228.027 294.661 230.852L295.081 230.661C293.44 230.967 292.142 231.616 292.218 233.601L292.638 233.181C290.844 233.333 289.661 234.135 289.737 236.158L290.157 235.815C288.325 235.815 286.531 235.815 284.698 235.815C284.698 235.815 285.042 236.082 285.042 236.082Z" fill="#2E3540"/>
<path d="M280.003 230.585C278.209 230.737 276.377 230.89 274.583 231.081C274.736 230.165 274.888 229.21 275.079 228.294L274.621 228.676C276.301 228.37 277.484 227.607 277.56 225.698L277.179 226.194C278.82 226.996 280.461 227.798 282.103 228.638L282.561 228.218C280.614 228.218 279.316 228.867 279.66 231.119L280.003 230.585Z" fill="#2E3540"/>
<path d="M299.318 225.164C299.127 224.973 298.898 224.744 298.707 224.553C298.975 224.438 299.28 224.209 299.547 224.286C299.776 224.324 299.967 224.667 300.196 224.858C299.891 224.935 299.585 225.049 299.318 225.164Z" fill="#2E3540"/>
<path d="M307.716 246.39C305.922 246.199 304.128 246.046 302.372 245.855L302.716 246.237C302.716 245.283 302.716 244.328 302.754 243.374L302.372 243.794C304.128 244.634 305.922 245.512 307.716 246.39Z" fill="#2E3540"/>
<path d="M299.662 232.761C298.059 232.875 296.417 233.028 294.814 233.143L295.119 233.601C295.119 232.608 295.119 231.654 295.119 230.661L294.699 230.852C296.341 231.501 297.982 232.15 299.662 232.761Z" fill="#2E3540"/>
<path d="M287.714 230.699C285.882 230.699 284.088 230.661 282.256 230.661L282.523 231.081C282.523 230.127 282.523 229.134 282.561 228.18L282.103 228.599C283.821 228.561 285.538 228.523 287.256 228.447C287.256 229.325 287.294 230.203 287.294 231.119L287.714 230.699Z" fill="#2E3540"/>
<path d="M275.041 228.294C273.171 228.37 271.3 228.485 269.43 228.561C270.689 226.5 272.751 226.233 274.85 226.118L274.583 225.698C274.583 226.691 274.583 227.683 274.583 228.638L275.041 228.294Z" fill="#2E3540"/>
<path d="M300.234 243.641C300.043 241.923 301.15 241.236 302.563 240.892C302.486 241.847 302.41 242.801 302.296 243.755L302.677 243.336C301.723 243.336 300.769 243.336 299.814 243.336L300.234 243.641Z" fill="#2E3540"/>
<path d="M272.407 148.658C271.453 147.36 270.46 146.101 269.506 144.803C270.46 146.101 271.453 147.36 272.407 148.658Z" fill="#2E3540"/>
<path d="M302.372 253.872C302.372 252.04 303.593 251.314 305.12 250.933C305.12 251.849 305.082 252.765 305.044 253.643C304.166 253.719 303.25 253.796 302.372 253.872Z" fill="#2E3540"/>
<path d="M257.215 194.126C256.299 195.501 255.344 196.875 254.428 198.288C255.344 196.913 256.261 195.501 257.215 194.126Z" fill="#2E3540"/>
<path d="M288.668 216.727L288.477 215.887L288.401 216.803L288.668 216.727Z" fill="#2E3540"/>
<path d="M288.401 216.803L287.905 216.269C287.905 216.269 288.592 216.727 288.63 216.727C288.668 216.727 288.401 216.803 288.401 216.803Z" fill="#2E3540"/>
<path d="M280.118 220.773C280.003 220.621 279.851 220.506 279.736 220.354C279.736 220.392 280.118 220.773 280.118 220.773Z" fill="#2E3540"/>
<path d="M277.98 223.599C277.255 221.575 278.744 221.193 280.118 220.773L279.736 220.354C279.049 221.346 278.324 222.339 277.637 223.293C277.599 223.331 277.98 223.599 277.98 223.599Z" fill="#2E3540"/>
<path d="M274.85 226.118C275.881 225.278 276.911 224.438 277.942 223.598C277.942 223.598 277.599 223.293 277.599 223.331C277.446 224.286 277.293 225.24 277.14 226.194L277.522 225.698C276.53 225.698 275.575 225.698 274.583 225.698C274.621 225.698 274.85 226.118 274.85 226.118Z" fill="#2E3540"/>
<path d="M269.926 228.18C268.934 229.172 267.979 230.165 266.987 231.157C267.979 230.165 268.934 229.172 269.926 228.18Z" fill="#2E3540"/>
<path d="M267.445 230.699C266.452 231.692 265.46 232.684 264.467 233.677C265.422 232.684 266.414 231.692 267.445 230.699Z" fill="#2E3540"/>
<path d="M256.757 233.601C255.955 234.44 255.154 235.318 254.39 236.158C255.192 235.318 255.993 234.44 256.757 233.601Z" fill="#2E3540"/>
<path d="M261.91 236.235C261.948 235.319 262.025 234.364 262.063 233.448C263.017 233.41 263.933 233.372 264.887 233.295C263.895 234.288 262.902 235.242 261.91 236.235Z" fill="#2E3540"/>
<path d="M201.408 224.591C202.362 224.973 203.278 225.354 204.233 225.736C204.652 227.531 205.072 229.325 205.492 231.081C203.545 229.325 201.637 227.492 201.408 224.591Z" fill="#2E3540"/>
<path d="M209.309 493.734C208.355 492.321 207.439 490.909 206.485 489.496C207.439 490.909 208.393 492.321 209.309 493.734Z" fill="#2E3540"/>
<path d="M133.195 417.496C135.027 417.686 135.829 418.832 136.211 420.473C134.149 420.511 133.119 419.595 133.195 417.496Z" fill="#2E3540"/>
<path d="M135.714 420.015C136.821 420.97 137.89 421.962 138.997 422.917C136.974 423.031 135.6 422.382 135.714 420.015Z" fill="#2E3540"/>
<path d="M148.311 425.055C150.105 425.245 151.098 426.238 151.327 428.032C149.304 428.109 148.54 426.849 148.311 425.055Z" fill="#2E3540"/>
<path d="M150.869 427.574C151.861 428.567 152.854 429.559 153.846 430.552C152.014 430.399 150.869 429.559 150.869 427.574Z" fill="#2E3540"/>
<path d="M153.388 430.094C154.38 431.086 155.335 432.041 156.327 433.033C154.609 432.804 153.617 431.85 153.388 430.094Z" fill="#2E3540"/>
<path d="M274.545 238.716C274.774 236.96 275.804 236.044 277.484 235.738C276.53 236.731 275.537 237.724 274.545 238.716Z" fill="#2E3540"/>
<path d="M282.561 238.678C282.217 236.693 283.439 236.235 285.042 236.12L284.698 235.815C284.966 237.724 283.859 238.296 282.217 238.373L282.561 238.678Z" fill="#2E3540"/>
<path d="M272.064 241.236C272.178 239.365 273.285 238.525 275.003 238.258C274.01 239.289 273.018 240.281 272.064 241.236Z" fill="#2E3540"/>
<path d="M280.08 241.236C279.965 239.442 280.881 238.678 282.599 238.678L282.255 238.373C281.416 239.213 280.538 240.052 279.698 240.93L280.08 241.236Z" fill="#2E3540"/>
<path d="M269.506 243.832C269.621 241.961 270.728 241.083 272.484 240.816C271.491 241.808 270.499 242.801 269.506 243.832Z" fill="#2E3540"/>
<path d="M277.522 243.717C277.293 241.808 278.324 241.159 280.08 241.236L279.66 240.892C279.66 241.847 279.622 242.763 279.622 243.717L280.042 243.335C279.087 243.335 278.095 243.374 277.141 243.374L277.522 243.717Z" fill="#2E3540"/>
<path d="M266.987 246.313C267.216 244.595 267.903 243.297 269.926 243.374C268.972 244.328 267.979 245.321 266.987 246.313Z" fill="#2E3540"/>
<path d="M274.965 246.237C275.041 244.634 275.728 243.641 277.522 243.717L277.14 243.374C277.14 244.328 277.102 245.321 277.102 246.275L277.484 245.817C276.53 245.855 275.537 245.855 274.583 245.893L274.965 246.237Z" fill="#2E3540"/>
<path d="M264.506 248.795C264.506 246.848 265.689 246.084 267.445 245.855C266.452 246.848 265.46 247.84 264.506 248.795Z" fill="#2E3540"/>
<path d="M272.445 248.757C272.102 246.733 273.247 246.161 274.965 246.237L274.583 245.893C274.583 246.848 274.583 247.802 274.545 248.757L274.965 248.375C274.01 248.375 273.056 248.413 272.064 248.413L272.445 248.757Z" fill="#2E3540"/>
<path d="M272.484 250.894C271.491 251.047 270.499 251.2 269.506 251.314C269.697 249.558 270.46 248.489 272.445 248.757L272.102 248.451C272.064 249.406 272.064 250.36 272.026 251.353L272.484 250.894Z" fill="#2E3540"/>
<path d="M279.622 233.715C279.736 232.684 279.851 231.654 280.003 230.623L279.622 231.119C280.576 231.119 281.53 231.119 282.523 231.081L282.255 230.661C281.378 231.654 280.5 232.684 279.622 233.715Z" fill="#2E3540"/>
<path d="M277.064 236.197C278.018 235.204 279.011 234.25 279.965 233.257C279.927 235.128 278.744 235.929 277.064 236.197Z" fill="#2E3540"/>
<path d="M249.313 155.416C249.733 153.85 250.382 152.552 252.253 152.476C251.26 153.469 250.306 154.461 249.313 155.416Z" fill="#2E3540"/>
<path d="M246.794 157.935C247.061 156.255 247.939 155.148 249.733 154.996C249.466 156.714 248.512 157.706 246.794 157.935Z" fill="#2E3540"/>
<path d="M256.871 241.236C257.864 240.243 258.856 239.213 259.849 238.22C259.62 239.976 258.627 240.969 256.871 241.236Z" fill="#2E3540"/>
<path d="M267.445 238.258C266.452 239.251 265.498 240.205 264.506 241.198C265.498 240.205 266.491 239.251 267.445 238.258Z" fill="#2E3540"/>
<path d="M264.849 240.892C263.895 241.847 262.941 242.839 261.986 243.794C262.941 242.801 263.895 241.847 264.849 240.892Z" fill="#2E3540"/>
<path d="M262.368 243.412C261.376 244.404 260.421 245.397 259.429 246.39C259.62 244.595 260.498 243.526 262.368 243.412Z" fill="#2E3540"/>
<path d="M274.965 230.661C273.972 231.654 272.98 232.646 272.025 233.639C272.98 232.646 273.972 231.654 274.965 230.661Z" fill="#2E3540"/>
<path d="M272.445 233.219C272.293 235.051 271.109 235.815 269.506 236.197C270.46 235.204 271.453 234.211 272.445 233.219Z" fill="#2E3540"/>
<path d="M259.391 238.678C259.582 236.922 260.536 235.891 262.33 235.738C262.444 237.838 261.376 238.716 259.391 238.678Z" fill="#2E3540"/>
<path d="M269.926 235.777C269.812 237.609 268.666 238.373 267.025 238.716C267.025 236.769 268.17 235.929 269.926 235.777Z" fill="#2E3540"/>
<path d="M188.735 435.171C190.529 435.362 191.789 436.087 191.712 438.149C189.689 438.187 188.811 437.08 188.735 435.171Z" fill="#2E3540"/>
<path d="M294.738 256.392C296.57 256.239 298.402 256.086 300.234 255.972C300.196 256.926 300.158 257.881 300.158 258.835C298.402 258.682 296.608 258.568 294.852 258.415L295.119 258.873C295.119 257.881 295.119 256.926 295.119 255.934L294.738 256.392Z" fill="#2E3540"/>
<path d="M294.852 258.415C293.974 259.255 293.096 260.133 292.218 261.011L292.638 261.431C292.638 260.477 292.676 259.484 292.676 258.53L292.257 258.911C293.211 258.911 294.203 258.911 295.158 258.911C295.119 258.873 294.852 258.415 294.852 258.415Z" fill="#2E3540"/>
<path d="M292.6 263.913C291.646 263.76 290.653 263.645 289.699 263.493L290.119 263.913C290.004 262.996 289.928 262.042 289.813 261.126C290.768 261.24 291.684 261.317 292.638 261.431C292.638 261.431 292.256 261.011 292.218 261.011C292.333 261.966 292.485 262.92 292.6 263.913Z" fill="#2E3540"/>
<path d="M282.103 263.913C282.255 262.958 282.408 261.966 282.599 261.011L282.141 261.431C283.935 261.317 285.729 261.202 287.523 261.088C287.409 262.042 287.294 262.996 287.18 263.951L287.6 263.493C285.805 263.607 283.973 263.76 282.103 263.913Z" fill="#2E3540"/>
<path d="M290.081 266.432C289.126 266.432 288.134 266.432 287.18 266.432C287.332 265.44 287.447 264.485 287.6 263.493L287.18 263.951C288.134 263.951 289.126 263.951 290.081 263.913C290.081 263.913 289.699 263.531 289.661 263.493C289.813 264.485 289.966 265.44 290.081 266.432Z" fill="#2E3540"/>
<path d="M282.561 258.835C282.561 257.881 282.561 256.888 282.561 255.934L282.141 256.392C283.172 256.239 284.202 256.086 285.195 255.934C284.164 256.812 283.133 257.69 282.103 258.568L282.561 258.835Z" fill="#2E3540"/>
<path d="M282.599 261.011C281.607 261.126 280.614 261.278 279.622 261.393C280.614 260.553 281.607 259.713 282.561 258.873L282.141 258.606C282.141 259.56 282.141 260.515 282.141 261.469L282.599 261.011Z" fill="#2E3540"/>
<path d="M191.636 200.807C190.682 200.807 189.727 200.807 188.773 200.807C188.773 199.013 188.773 197.219 188.811 195.424C189.766 195.424 190.682 195.424 191.636 195.424C191.636 197.219 191.636 199.013 191.636 200.807Z" fill="#2E3540"/>
<path d="M302.754 253.452C302.677 254.33 302.563 255.247 302.486 256.125C301.609 256.201 300.731 256.277 299.853 256.354C299.776 254.368 300.921 253.567 302.754 253.452Z" fill="#2E3540"/>
<path d="M295.158 253.49C295.005 254.445 294.89 255.437 294.738 256.392L295.119 255.896C293.363 256.125 292.18 256.888 292.218 258.835L292.638 258.453C291.684 258.568 290.73 258.682 289.775 258.797C289.89 257.003 289.966 255.208 290.081 253.414L289.737 253.796C291.531 253.719 293.363 253.605 295.158 253.49Z" fill="#2E3540"/>
<path d="M297.219 238.754C298.173 237.8 299.089 236.884 300.043 235.929C299.127 236.884 298.173 237.8 297.219 238.754Z" fill="#2E3540"/>
<path d="M294.738 241.274C294.852 239.442 295.845 238.449 297.715 238.296C297.524 240.129 296.532 241.083 294.738 241.274Z" fill="#2E3540"/>
<path d="M292.256 243.756C292.218 241.732 293.363 240.931 295.196 240.778C295.043 242.61 293.936 243.488 292.256 243.756Z" fill="#2E3540"/>
<path d="M290.157 246.161C289.928 244.29 291.035 243.565 292.676 243.336C292.524 244.29 292.371 245.206 292.218 246.161L292.638 245.893C291.684 245.893 290.73 245.893 289.775 245.932L290.157 246.161Z" fill="#2E3540"/>
<path d="M300.196 245.817C299.547 245.435 298.937 245.054 298.288 244.672C298.937 244.328 299.585 243.985 300.196 243.641L299.814 243.374C299.814 244.328 299.776 245.283 299.776 246.237L300.196 245.817Z" fill="#2E3540"/>
<path d="M292.218 246.161C292.867 246.695 293.478 247.229 294.127 247.802C293.516 247.993 292.905 248.222 292.295 248.413L292.6 248.795C292.6 247.84 292.638 246.886 292.638 245.893L292.218 246.161Z" fill="#2E3540"/>
<path d="M302.372 245.855C302.601 247.726 301.303 248.298 299.891 248.757C300.005 247.764 300.12 246.81 300.234 245.817L299.853 246.237C300.807 246.237 301.761 246.199 302.716 246.199C302.677 246.237 302.372 245.855 302.372 245.855Z" fill="#2E3540"/>
<path d="M292.295 248.375C292.18 249.978 291.264 250.818 289.699 250.933L290.043 251.276C290.043 250.322 290.081 249.367 290.081 248.413L289.699 248.795C290.653 248.795 291.608 248.757 292.562 248.757L292.295 248.375Z" fill="#2E3540"/>
<path d="M300.196 248.413C299.204 249.406 298.249 250.36 297.257 251.353C298.249 250.398 299.204 249.406 300.196 248.413Z" fill="#2E3540"/>
<path d="M289.699 250.933C289.699 251.887 289.699 252.841 289.699 253.834L290.043 253.452C289.088 253.452 288.134 253.452 287.18 253.49L287.485 253.834C287.523 252.88 287.523 251.925 287.561 250.971L287.18 251.391C288.134 251.391 289.088 251.353 290.004 251.353L289.699 250.933Z" fill="#2E3540"/>
<path d="M297.677 250.971C296.723 251.925 295.768 252.918 294.814 253.872C294.852 251.963 295.806 251.009 297.677 250.971Z" fill="#2E3540"/>
<path d="M277.102 248.757C277.255 247.802 277.37 246.81 277.522 245.855L277.14 246.313C278.858 246.084 280.194 245.397 280.08 243.336L279.66 243.717C281.454 243.717 283.286 243.717 285.08 243.717L284.737 243.45C283.935 245.168 283.133 246.848 282.37 248.566C280.576 248.604 278.82 248.68 277.102 248.757Z" fill="#2E3540"/>
<path d="M285.118 253.452C284.126 253.567 283.172 253.719 282.179 253.834C282.217 252.116 282.294 250.36 282.332 248.642C284.05 248.718 285.767 248.795 287.485 248.871L287.18 248.451C287.18 249.406 287.18 250.398 287.18 251.353L287.561 250.933C285.462 250.78 284.469 251.734 284.66 253.872L285.118 253.452Z" fill="#2E3540"/>
<path d="M292.218 235.929C292.371 237.685 291.34 238.258 289.813 238.334L290.081 238.678C290.081 237.724 290.081 236.807 290.119 235.853L289.699 236.197C290.653 236.197 291.608 236.197 292.562 236.197L292.218 235.929Z" fill="#2E3540"/>
<path d="M289.813 238.296C288.974 239.136 288.134 239.976 287.256 240.816L287.523 241.16C287.447 239.403 288.363 238.602 290.081 238.602L289.813 238.296Z" fill="#2E3540"/>
<path d="M287.294 240.816C286.416 241.694 285.576 242.572 284.698 243.45L285.042 243.717C284.851 241.847 285.844 241.16 287.561 241.198L287.294 240.816Z" fill="#2E3540"/>
<path d="M287.523 248.871C288.401 247.955 289.279 247.077 290.157 246.161L289.775 245.893C289.775 246.848 289.737 247.84 289.737 248.795L290.119 248.413C289.165 248.413 288.21 248.413 287.256 248.413L287.523 248.871Z" fill="#2E3540"/>
<path d="M294.814 233.143C293.974 234.059 293.096 234.975 292.256 235.891L292.638 236.12C292.638 235.128 292.676 234.173 292.676 233.181L292.256 233.601C293.211 233.601 294.203 233.601 295.158 233.601L294.814 233.143Z" fill="#2E3540"/>
<path d="M287.218 253.452C287.561 255.476 286.645 256.354 284.698 256.354C284.851 255.361 285.004 254.407 285.118 253.414L284.66 253.834C285.615 253.834 286.569 253.796 287.485 253.796L287.218 253.452Z" fill="#2E3540"/>
<path d="M287.218 261.393C288.172 260.438 289.126 259.484 290.119 258.491C290.119 259.446 290.119 260.4 290.081 261.355C289.126 261.393 288.172 261.393 287.218 261.393Z" fill="#2E3540"/>
</g>
<g clip-path="url(#clip1)">
<path d="M927.327 156.769C927.327 179.173 927.327 201.83 927.327 224.234C926.322 225.241 925.316 226.248 924.562 227.255C921.546 224.738 916.268 222.22 916.268 219.451C915.766 191.76 915.766 164.321 915.766 136.881C933.359 132.854 933.611 133.105 938.889 148.461C945.675 168.6 952.461 188.488 960.252 211.899C968.547 187.732 975.835 166.838 982.873 145.944C987.146 133.609 987.146 133.609 1002.98 135.875C1002.98 163.817 1003.23 191.76 1002.73 219.703C1002.73 222.22 997.451 224.99 994.686 227.507C993.429 226.752 992.424 225.997 991.167 225.241C991.167 202.837 991.167 180.432 991.167 158.279C990.413 158.279 989.408 158.027 988.654 158.027C981.616 177.915 974.83 198.054 967.541 217.689C966.285 221.214 962.012 223.227 958.996 226.248C956.482 223.479 952.712 221.214 951.456 217.941C944.167 197.55 937.129 176.908 930.343 156.517C929.338 156.517 928.333 156.517 927.327 156.769Z" fill="#2E3540"/>
<path d="M597.069 263.505C590.282 288.176 584.502 309.825 577.715 331.475C576.459 335.251 571.935 338.02 569.17 341.292C566.154 338.02 561.63 335.251 560.624 331.475C553.084 305.042 546.298 278.358 539.261 251.674C547.806 247.898 551.325 249.912 553.336 258.219C557.86 279.365 563.138 300.511 568.919 325.433C574.448 305.546 579.223 289.183 583.748 272.568C585.256 267.281 586.01 261.743 588.523 256.96C590.282 253.688 594.555 249.912 597.823 249.912C601.09 249.912 606.117 253.688 607.122 256.96C612.903 276.596 617.93 296.483 623.208 316.37C623.459 317.881 623.962 319.139 626.726 320.65C631.753 299.756 637.283 279.113 642.058 257.967C643.817 250.163 647.336 247.142 655.882 251.17C648.342 278.861 640.801 306.804 632.759 334.244C632.005 337.013 627.983 340.285 625.47 340.285C622.956 340.285 618.935 336.761 618.181 333.992C611.897 312.846 606.117 291.448 600.336 270.051C599.833 269.295 599.079 267.785 597.069 263.505Z" fill="#2E3540"/>
<path d="M1056.26 134.867C1068.58 134.867 1080.64 134.616 1092.71 134.867C1103.77 135.119 1113.32 138.14 1118.09 149.468C1122.87 160.545 1118.09 168.852 1110.3 175.649C1114.57 180.935 1120.1 185.467 1122.37 191.257C1128.4 205.354 1119.85 221.717 1104.77 223.983C1089.19 226.248 1073.1 225.996 1056.26 226.752C1056.26 196.04 1056.26 166.586 1056.26 134.867ZM1068.08 214.668C1078.13 214.668 1087.18 214.92 1096.23 214.668C1105.53 214.417 1111.31 209.382 1111.56 200.067C1111.81 190.501 1106.03 185.215 1096.98 184.46C1087.68 183.705 1078.13 184.208 1068.08 184.208C1068.08 194.278 1068.08 203.34 1068.08 214.668ZM1068.33 146.196C1068.33 156.013 1068.33 164.069 1068.33 173.635C1078.63 173.132 1088.44 173.887 1097.23 171.621C1101.5 170.362 1107.03 163.062 1106.78 158.531C1106.53 154.251 1100.25 147.706 1095.72 146.699C1087.43 144.685 1078.13 146.196 1068.33 146.196Z" fill="#2E3540"/>
<path d="M822.016 343.558C816.99 340.285 810.706 337.768 806.685 333.488C801.658 327.95 797.888 321.153 794.369 314.608C786.326 300.762 774.262 298.245 758.428 301.266C758.428 311.587 758.176 322.16 758.428 332.23C758.679 340.537 755.412 342.803 746.866 340.285C746.866 310.832 746.866 280.875 746.866 249.912C763.455 249.912 779.792 249.156 795.877 250.163C809.449 250.918 817.241 258.974 818.749 271.057C820.257 283.141 814.728 291.952 802.161 297.238C800.653 297.993 799.145 298.497 797.888 299C807.187 312.091 816.236 325.181 825.535 338.271C824.278 340.285 823.273 341.796 822.016 343.558ZM758.93 289.686C770.743 289.686 781.048 290.19 791.353 289.434C800.401 288.931 806.433 283.644 806.182 274.33C806.182 265.016 799.396 260.988 791.353 260.484C780.797 259.729 769.989 260.233 758.679 260.233C758.93 270.302 758.93 279.365 758.93 289.686Z" fill="#2E3540"/>
<path d="M566.154 135.119C583.496 135.119 599.331 134.616 615.165 135.371C629.994 135.874 637.031 142.671 639.042 156.265C640.801 168.097 635.021 177.411 622.705 182.446C621.197 183.201 619.689 183.453 618.181 183.956C627.48 197.298 636.78 210.64 646.582 224.234C635.775 228.262 629.743 225.241 625.721 216.682C623.208 211.396 618.935 207.116 616.422 201.83C608.379 185.97 595.812 182.698 578.721 186.977C578.721 199.312 578.721 211.647 578.721 224.738C571.683 226.248 566.405 227.759 566.657 218.193C566.405 191.257 566.154 164.069 566.154 135.119ZM578.469 174.139C590.785 174.139 602.598 175.649 613.657 173.383C618.684 172.376 624.967 164.573 625.47 159.286C625.972 155.006 618.935 146.951 614.16 146.196C602.598 144.182 590.534 145.692 578.469 145.692C578.469 155.258 578.469 163.817 578.469 174.139Z" fill="#2E3540"/>
<path d="M837.348 340.789C837.348 310.58 837.348 281.127 837.348 249.408C859.968 252.681 885.605 240.849 902.947 263.505C917.022 281.631 915.514 303.028 905.963 322.915C897.669 340.034 880.83 344.061 837.348 340.789ZM849.664 330.216C865.749 328.454 883.343 336.258 894.653 318.636C902.947 305.546 901.942 280.12 892.642 269.799C880.578 255.953 864.744 261.743 849.664 261.24C849.664 284.651 849.664 306.804 849.664 330.216Z" fill="#2E3540"/>
<path d="M547.555 160.041C543.785 161.048 541.271 162.055 538.507 162.81C527.95 143.678 515.384 138.392 494.522 147.203C479.442 153.496 473.159 176.404 479.693 195.788C484.972 211.144 501.057 219.451 518.4 215.927C534.737 212.654 538.004 208.627 536.999 191.005C530.715 190.753 524.18 190.753 517.646 189.998C515.132 189.746 512.87 186.977 510.608 185.215C513.121 183.201 515.384 179.929 517.897 179.677C527.95 178.922 537.753 179.425 549.566 179.425C549.566 189.998 550.068 199.312 549.314 208.878C549.063 211.899 546.047 215.424 543.282 217.437C524.683 231.283 494.774 230.528 478.939 216.179C463.608 202.585 459.838 175.146 470.897 154.755C480.447 136.881 496.784 132.098 515.635 133.357C532.977 134.616 541.774 141.916 547.555 160.041Z" fill="#2E3540"/>
<path d="M716.454 47.7664C710.673 45.7525 705.395 45.5007 703.636 42.7316C693.582 29.1378 679.508 24.1031 664.427 30.9C651.106 36.9417 646.08 48.5216 645.577 62.3672C645.074 76.9679 648.09 90.31 662.416 97.3587C675.737 103.904 689.812 102.897 701.374 93.5826C705.144 90.5618 705.144 82.7579 707.406 75.4575C696.347 75.4575 687.55 75.4575 679.256 75.4575C678.754 63.1224 691.32 60.3533 717.46 65.8915C717.46 74.7023 717.962 83.7648 717.208 92.8274C716.957 96.3517 713.69 100.128 710.673 102.393C690.566 116.491 661.662 114.98 645.577 99.3726C630.497 84.7718 628.234 56.5772 640.55 36.4382C649.85 21.0822 664.93 16.5509 681.77 17.5579C697.855 18.8166 710.925 25.3618 716.454 47.7664Z" fill="#2E3540"/>
<path d="M753.401 171.621C770.241 171.621 784.818 171.621 800.653 171.621C800.653 159.538 800.653 147.958 800.653 135.623C805.428 135.623 808.695 135.623 813.471 135.623C813.471 163.817 813.722 191.257 813.22 218.948C813.22 221.969 807.941 224.738 805.177 227.759C803.92 227.003 802.915 226.248 801.658 225.241C801.658 211.899 801.658 198.557 801.658 184.208C785.572 184.208 770.241 184.208 754.155 184.208C754.155 197.55 754.155 210.64 754.155 224.234C745.861 227.507 741.588 227.255 741.588 217.437C741.839 192.767 741.839 167.845 741.588 143.175C741.337 133.861 745.61 133.609 753.652 136.378C753.401 147.454 753.401 159.034 753.401 171.621Z" fill="#2E3540"/>
<path d="M1140.21 135.623C1162.83 135.623 1183.94 135.623 1204.8 135.623C1207.57 143.427 1205.31 146.196 1197.77 145.944C1183.19 145.692 1168.61 145.944 1153.28 145.944C1153.28 155.258 1153.28 163.314 1153.28 173.635C1166.6 173.635 1180.17 173.383 1193.75 173.887C1196.76 174.139 1199.78 177.159 1202.79 178.922C1199.78 180.684 1196.76 183.956 1193.75 183.956C1180.42 184.46 1167.1 184.208 1153.03 184.208C1153.03 194.529 1153.03 203.592 1153.03 214.417C1170.87 214.417 1188.97 214.417 1207.07 214.417C1207.82 215.675 1208.57 216.934 1209.33 218.193C1207.07 220.71 1204.8 225.745 1202.29 225.745C1181.93 226.248 1161.57 225.997 1139.71 225.997C1139.71 214.92 1139.71 204.851 1139.71 195.033C1140.21 175.397 1140.21 155.762 1140.21 135.623Z" fill="#2E3540"/>
<path d="M993.178 278.61C987.648 274.834 982.873 273.071 980.862 269.799C973.573 258.974 956.231 254.695 945.675 261.995C937.129 267.785 937.632 278.861 947.183 282.637C955.728 285.91 964.777 287.672 973.573 290.19C990.162 295.224 998.707 305.294 996.697 318.384C994.937 331.474 982.622 341.292 967.039 342.299C941.151 344.061 926.071 333.488 924.814 308.566C930.343 312.594 934.867 314.356 936.878 317.881C944.67 330.971 964.274 336.006 977.344 327.95C987.9 321.405 987.397 309.573 976.087 304.539C967.793 300.762 958.493 299.504 949.696 296.735C933.359 291.7 925.819 282.889 927.327 271.057C929.087 257.715 939.643 249.408 956.231 248.401C978.098 247.142 991.418 256.457 993.178 278.61Z" fill="#2E3540"/>
<path d="M767.476 79.737C770.743 82.2544 775.267 84.0166 777.027 87.0374C784.818 100.631 805.679 106.169 818.498 97.3587C827.797 90.8135 827.546 78.9818 816.738 74.4505C808.444 70.9262 799.145 69.4158 790.348 66.6467C774.011 61.8637 766.722 53.3046 767.979 40.7177C768.984 28.1308 779.289 19.5718 795.375 17.8096C816.738 15.2922 831.567 25.3617 833.829 48.0181C828.048 44.242 823.273 42.7316 821.262 39.459C814.225 29.1378 796.129 24.8583 785.572 31.9069C776.775 37.9486 777.278 48.2698 787.332 52.5494C795.374 55.822 804.171 57.5841 812.466 59.8498C830.059 64.8845 837.599 73.1919 836.594 87.0374C835.84 99.876 825.535 109.19 809.449 112.211C785.824 116.239 768.23 105.163 764.711 83.7648C765.717 82.2544 766.722 80.9957 767.476 79.737Z" fill="#2E3540"/>
<path d="M552.833 110.701C552.833 79.4854 552.833 50.2838 552.833 19.5718C572.94 19.5718 592.293 19.3201 611.897 19.8236C613.908 19.8236 615.919 23.5996 617.93 25.6135C615.668 27.124 613.406 30.1448 610.892 30.1448C596.063 30.3966 580.983 30.1448 565.149 30.1448C565.149 39.4591 565.149 47.7664 565.149 56.5773C580.983 61.3603 600.085 53.3047 615.416 61.1085C614.914 63.6259 614.662 65.8915 614.16 68.4089C598.074 68.4089 581.988 68.4089 565.149 68.4089C565.149 79.2336 565.149 88.7996 565.149 100.128C580.48 100.128 595.812 99.8761 610.892 100.38C614.16 100.38 617.176 103.4 620.192 105.163C617.176 106.925 614.16 110.197 611.143 110.197C592.293 110.953 573.191 110.701 552.833 110.701Z" fill="#2E3540"/>
<path d="M652.112 339.782C663.171 311.084 673.978 282.637 685.288 254.443C686.294 252.177 691.069 249.912 694.085 250.163C697.101 250.415 701.123 253.184 702.128 255.953C713.69 283.644 725 311.335 736.561 339.782C726.759 343.81 722.235 340.789 719.47 331.726C717.711 325.433 714.695 315.867 710.673 314.86C699.866 312.594 687.802 312.342 677.245 314.86C672.973 315.867 670.208 326.188 667.946 332.481C665.433 340.034 661.662 343.558 652.112 339.782ZM708.914 303.532C703.887 289.686 699.112 277.351 693.331 261.995C687.802 277.603 683.529 290.189 678.753 303.532C689.31 303.532 698.107 303.532 708.914 303.532Z" fill="#2E3540"/>
<path d="M542.779 339.782C534.234 342.803 529.207 342.048 526.442 333.237C524.18 326.44 521.164 315.867 516.389 314.356C506.335 311.336 494.271 311.587 484.218 314.356C479.442 315.615 476.426 325.936 473.913 332.481C471.148 339.53 468.132 343.306 458.832 339.53C460.843 333.74 462.602 328.202 464.865 322.412C472.907 301.266 480.699 280.12 489.496 259.226C491.255 255.198 496.03 250.667 500.052 249.912C502.817 249.408 508.095 254.443 509.854 258.219C520.913 285.658 531.721 312.594 542.779 339.782ZM515.132 303.532C509.854 289.434 505.079 277.099 499.549 262.498C494.02 277.854 489.496 290.19 484.72 303.532C495.025 303.532 504.073 303.532 515.132 303.532Z" fill="#2E3540"/>
<path d="M822.77 224.486C833.829 195.788 844.386 167.593 855.696 139.902C858.46 132.602 869.017 132.35 872.033 139.399C884.097 167.593 895.659 196.292 907.471 224.738C894.905 229.773 892.14 221.717 889.124 213.41C887.113 208.123 884.348 199.816 880.83 199.564C869.519 198.054 857.204 197.802 846.145 200.319C842.375 201.075 840.364 211.648 838.353 217.689C836.091 224.99 832.321 228.01 822.77 224.486ZM863.739 146.699C858.209 162.055 853.936 174.642 849.161 187.732C859.717 187.732 868.765 187.732 878.819 187.732C874.043 174.39 869.519 162.055 863.739 146.699Z" fill="#2E3540"/>
<path d="M732.037 224.738C723.492 227.507 718.214 226.752 715.449 217.941C713.438 211.396 710.673 201.075 706.401 199.816C695.844 197.047 683.78 197.047 672.973 199.564C668.7 200.571 665.684 210.641 663.422 216.934C660.657 224.486 657.138 228.514 647.588 224.486C658.646 195.788 669.454 167.09 680.764 138.644C683.278 132.35 694.085 132.854 696.599 139.147C708.914 167.342 720.224 196.04 732.037 224.738ZM704.139 187.984C699.112 174.139 694.336 161.803 688.807 146.447C683.278 162.055 679.005 174.39 674.229 187.984C684.534 187.984 693.331 187.984 704.139 187.984Z" fill="#2E3540"/>
<path d="M542.779 109.19C531.972 113.218 528.202 108.687 525.186 100.128C523.175 94.086 519.908 85.0235 515.886 84.0165C505.079 81.7509 493.266 82.0026 482.458 84.2683C478.688 85.2752 476.175 95.093 474.415 101.386C471.902 109.442 467.881 112.463 458.33 109.19C469.137 80.9957 479.945 52.5494 491.255 24.3548C492.26 21.8374 497.036 19.5718 499.801 19.8235C502.817 20.0752 506.838 22.5926 508.095 25.11C519.656 52.8011 530.967 80.744 542.779 109.19ZM514.63 72.4366C509.603 59.0945 504.827 46.5077 499.298 31.9069C494.02 46.7594 489.496 59.0945 484.72 72.4366C495.025 72.4366 504.073 72.4366 514.63 72.4366Z" fill="#2E3540"/>
<path d="M1224.16 135.874C1232.7 133.105 1235.72 135.623 1235.72 144.434C1235.47 167.342 1235.47 190.25 1235.47 214.668C1248.03 214.668 1259.35 214.165 1270.4 214.92C1273.67 215.172 1276.94 218.696 1280.21 220.71C1277.19 222.472 1274.17 225.745 1270.91 225.745C1255.58 226.248 1240.24 225.996 1224.16 225.996C1224.16 195.285 1224.16 165.58 1224.16 135.874Z" fill="#2E3540"/>
<path d="M1305.34 214.668C1318.16 214.668 1329.47 214.165 1340.53 214.92C1343.79 215.172 1347.06 218.696 1350.33 220.71C1347.31 222.472 1344.3 225.493 1341.28 225.745C1325.95 226.248 1310.62 225.997 1294.28 225.997C1294.28 195.536 1294.28 166.083 1294.28 136.126C1301.32 133.105 1305.59 133.861 1305.59 143.678C1305.09 166.587 1305.34 189.495 1305.34 214.668Z" fill="#2E3540"/>
<path d="M736.31 20.8305C745.107 18.0614 748.626 19.8235 748.374 28.3826C748.123 52.8011 748.123 76.9679 748.374 101.386C748.374 109.442 745.861 112.463 736.31 109.442C736.31 95.3448 736.31 80.2405 736.31 65.388C736.31 50.7872 736.31 36.1865 736.31 20.8305Z" fill="#2E3540"/>
</g>
<defs>
<clipPath id="clip0">
<rect width="390" height="525" fill="white" transform="translate(0.853882)"/>
</clipPath>
<clipPath id="clip1">
<rect width="892" height="326" fill="white" transform="translate(458.33 17.5579)"/>
</clipPath>
</defs>
</svg>
