<svg width="864" height="296" viewBox="0 0 864 296" fill="none" xmlns="http://www.w3.org/2000/svg">
<g clip-path="url(#clip0)">
<path d="M453.689 148.962C452.28 166.131 445.413 180.747 430.709 190.696C421.2 197.124 410.37 198.708 399.188 196.155C380.875 192.017 373.215 174.584 375.504 159.704C377.793 144.472 386.246 133.29 400.509 127.038C405.968 124.661 411.603 124.309 417.062 128.887C420.76 124.397 424.722 120.259 427.804 115.592C429.3 113.391 428.86 109.957 429.653 107.228C430.357 104.851 431.325 102.297 432.91 100.624C433.527 99.92 436.872 100.977 438.193 102.121C440.57 104.234 441.363 107.404 439.426 110.045C435.816 114.976 431.942 119.819 427.627 124.133C415.653 136.371 403.503 148.434 391.264 160.496C383.604 168.068 387.39 176.256 393.73 181.187C402.622 188.143 412.571 187.967 422.433 184.005C437.665 177.841 446.646 166.483 448.671 150.019C449.639 142.359 447.526 139.717 439.778 138.661C435.728 138.132 432.03 140.51 431.149 144.384C430.445 147.113 431.149 149.49 434.143 150.283C438.017 151.251 439.69 153.452 438.457 157.326C437.489 160.408 432.998 161.993 429.564 160.76C424.282 158.911 421.64 153.364 423.665 147.377C426.659 138.396 433.615 133.29 442.419 131.177C450.343 129.24 456.331 132.938 461.085 139.013C462.758 141.214 464.695 143.239 466.72 145.088C468.833 146.937 471.211 147.113 473.412 145C475.613 142.887 474.997 141.126 473.324 138.837C472.179 137.34 471.034 134.963 471.387 133.378C471.739 131.793 473.852 129.856 475.525 129.504C476.845 129.152 479.311 130.56 480.103 131.881C481.16 133.554 481.688 136.107 481.424 138.044C480.367 145.616 471.739 153.54 464.167 153.012C460.645 152.924 457.299 150.459 453.689 148.962ZM383.34 162.081C391 154.069 398.044 146.937 404.735 139.541C406.76 137.34 405.264 135.491 402.534 134.963C398.308 134.258 394.698 135.667 391.704 138.573C385.365 144.648 382.724 152.132 383.34 162.081Z" fill="#2E3540"/>
<path d="M319.242 34.5013C324.437 41.8972 329.103 49.117 334.386 55.8966C336.235 58.2739 339.581 59.5065 342.222 61.3555C343.191 62.0599 343.719 63.2045 344.511 64.085C343.543 64.7013 342.574 65.8459 341.518 65.8459C337.556 66.022 333.594 66.2861 329.631 65.7579C327.87 65.5818 325.845 63.9969 324.877 62.5001C320.034 55.0161 315.192 47.4441 310.877 39.696C308.676 35.6459 305.595 36.2622 302.337 36.5263C301.721 36.6144 300.664 38.1112 300.664 38.9916C300.488 44.9788 300.488 51.0541 300.664 57.0412C300.752 60.475 303.57 60.9153 306.123 61.7077C307.444 62.1479 308.5 63.2045 309.733 63.9969C308.324 64.7013 306.915 65.8459 305.507 65.9339C298.199 66.11 290.891 66.11 283.495 65.9339C282.174 65.9339 280.854 64.7893 279.533 64.2611C280.677 63.4686 281.734 62.236 282.879 62.0599C287.017 61.4436 288.778 59.5065 288.69 55.0162C288.426 41.545 288.602 28.0739 288.602 14.6027C288.602 9.23186 287.897 8.52749 281.998 7.29483C281.03 7.11874 280.325 5.88608 279.445 5.18171C280.325 4.56538 281.118 3.42078 281.998 3.42078C294.149 3.50882 306.299 3.24468 318.45 4.2132C326.638 4.82952 331.657 10.0243 332.361 16.0995C333.417 24.9042 330.952 28.9543 321.971 33.0925C321.179 33.1806 320.739 33.5328 319.242 34.5013ZM300.488 19.8855C300.488 21.0301 300.488 22.2628 300.488 23.4074C300.488 31.9479 301.633 32.8284 310.085 30.9794C318.361 29.2185 321.531 24.3759 320.21 16.0115C319.33 10.4645 313.343 6.76655 306.387 7.38288C302.425 7.73507 299.696 8.96772 300.488 13.8103C300.752 15.7473 300.488 17.8604 300.488 19.8855Z" fill="#2E3540"/>
<path d="M442.507 1.92398C461.79 2.27617 474.292 13.0179 476.141 32.036C477.286 43.5701 471.915 52.7269 463.022 59.8587C448.759 71.3048 425.514 69.4558 413.452 55.8086C398.836 39.2558 403.943 10.1123 432.03 3.24468C435.552 2.45226 439.074 2.36421 442.507 1.92398ZM463.286 36.2622C463.022 26.8412 460.293 18.5648 453.161 12.1374C444.004 3.86101 429.3 6.23827 423.929 17.1561C418.206 29.0424 418.735 41.0167 425.514 52.3747C429.564 59.1543 436.08 62.5001 444.004 61.8838C452.985 61.1794 458.796 56.0727 461.173 47.3561C462.318 43.8342 462.67 40.0482 463.286 36.2622Z" fill="#2E3540"/>
<path d="M810.366 248.279C810.366 261.134 810.19 272.756 810.455 284.466C810.543 288.604 813.624 290.365 817.498 290.981C818.643 291.157 819.611 292.302 820.668 293.006C819.523 293.623 818.379 294.855 817.234 294.855C810.19 295.031 803.147 295.031 796.103 294.855C795.046 294.855 793.99 293.799 793.021 293.183C793.99 292.39 794.87 291.245 795.927 290.893C802.002 289.132 803.411 287.636 803.411 281.384C803.499 269.322 803.235 257.347 803.587 245.285C803.675 240.443 801.826 237.889 797.424 236.657C796.279 236.304 795.487 235.072 794.43 234.191C795.575 233.575 796.719 232.959 797.864 232.342C798.128 232.254 798.48 232.342 798.744 232.342C807.285 231.11 813.536 233.751 818.907 241.059C826.567 251.448 835.46 260.869 843.824 270.643C845.057 272.051 846.29 273.372 848.491 274.517C848.491 270.907 848.491 267.297 848.491 263.775C848.491 256.995 848.403 250.304 848.491 243.524C848.579 239.386 846.818 236.921 842.504 236.304C841.447 236.128 840.567 235.072 839.598 234.455C840.743 233.839 841.799 232.606 842.944 232.606C848.491 232.43 854.126 232.43 859.673 232.694C860.817 232.694 861.874 233.927 863.018 234.631C862.05 235.248 861.169 236.216 860.113 236.48C856.327 237.361 855.534 239.914 855.534 243.436C855.623 258.228 855.534 273.108 855.534 287.9C855.534 289.22 855.711 290.541 855.446 291.862C855.182 293.359 854.566 294.767 854.126 296.176C852.541 295.384 850.516 294.943 849.459 293.799C842.063 285.522 834.844 276.982 827.536 268.529C822.165 261.838 816.618 255.499 810.366 248.279Z" fill="#2E3540"/>
<path d="M172.732 234.896C164.72 238.153 164.72 238.153 164.632 246.606C164.544 255.851 164.456 265.096 164.016 274.252C163.399 286.755 156.003 294.767 143.501 295.824C138.042 296.264 132.319 295.912 126.948 294.767C117.615 292.918 112.596 286.227 112.508 276.454C112.42 265.448 112.508 254.442 112.508 243.436C112.508 237.801 111.716 237.009 106.169 236.128C105.2 235.952 104.32 234.896 103.439 234.279C104.408 233.663 105.376 232.43 106.345 232.43C114.005 232.254 121.577 232.342 129.237 232.43C130.206 232.43 131.174 233.663 132.231 234.279C131.262 234.896 130.382 235.952 129.413 236.128C125.803 236.657 124.483 238.594 124.571 242.203C124.659 253.033 124.571 263.863 124.659 274.781C124.747 284.114 129.765 289.132 139.01 289.396C152.217 289.749 157.236 285.17 157.588 271.963C157.852 262.63 157.676 253.209 157.5 243.788C157.412 238.241 156.003 237.097 150.456 236.128C149.4 235.952 148.519 234.984 147.551 234.367C148.519 233.663 149.488 232.518 150.456 232.43C156.796 232.342 163.047 232.43 169.386 232.694C170.267 232.782 171.235 233.927 172.732 234.896Z" fill="#2E3540"/>
<path d="M708.496 228.908C710.962 235.864 713.075 241.587 715.1 247.398C719.15 259.02 723.2 270.555 727.338 282.177C728.835 286.491 731.036 290.189 736.143 291.069C736.848 291.157 737.464 292.302 738.08 292.918C737.288 293.623 736.495 294.855 735.703 294.855C727.603 295.031 719.59 294.943 711.49 294.855C710.786 294.855 710.081 293.799 709.377 293.183C710.081 292.478 710.61 291.422 711.49 291.157C717.741 289.044 717.741 289.044 715.54 283.057C711.578 272.315 711.578 272.58 700.396 272.227C694.673 272.051 689.919 272.315 689.126 279.447C688.95 280.68 687.894 281.736 687.453 282.969C685.604 287.9 686.485 289.485 691.591 290.981C692.648 291.334 693.529 292.214 694.497 292.83C693.44 293.535 692.384 294.855 691.239 294.855C685.34 295.031 679.529 295.031 673.63 294.855C672.661 294.855 671.693 293.623 670.724 292.918C671.517 292.214 672.133 291.069 673.014 290.893C677.592 289.925 679.705 286.755 681.202 282.617C687.013 266.68 692.648 250.744 699.075 235.072C700.044 232.43 704.71 231.286 708.496 228.908ZM702.157 245.637C701.805 245.637 701.453 245.637 701.101 245.725C698.635 252.417 696.258 259.196 693.617 266.416C699.428 266.416 704.27 266.416 709.817 266.416C707.176 259.108 704.71 252.329 702.157 245.637Z" fill="#2E3540"/>
<path d="M205.221 23.6715C206.63 23.6715 207.951 23.6715 209.536 23.6715C209.536 30.4511 209.536 37.1427 209.536 44.0103C207.951 44.0103 206.63 44.0103 205.309 44.0103C203.901 36.7024 203.549 36.3502 196.065 36.3502C186.115 36.3502 186.115 36.3502 186.115 46.2115C186.115 49.029 186.115 51.7584 186.115 54.5759C186.203 59.8587 187.7 61.4436 193.071 62.1479C194.304 62.324 195.36 63.2045 196.505 63.7328C195.272 64.4371 194.128 65.8459 192.895 65.8459C184.707 66.022 176.518 66.022 168.242 65.8459C167.097 65.8459 165.953 64.6132 164.808 63.9969C165.865 63.2925 166.833 62.0599 167.89 61.8838C172.556 61.1794 174.053 58.7141 173.965 54.0476C173.701 41.1928 173.877 28.2499 173.877 15.3951C173.877 9.76014 172.996 8.70357 167.449 7.29483C166.481 7.03069 165.688 5.97413 164.808 5.26975C165.777 4.65343 166.745 3.42077 167.714 3.42077C182.946 3.33272 198.178 3.33272 213.41 3.42077C214.378 3.42077 216.051 3.94905 216.051 4.38929C216.315 8.61553 216.227 12.7537 216.315 16.98C215.083 16.8039 212.793 16.8919 212.705 16.4517C211.033 9.14381 205.486 8.87967 199.674 8.96771C196.329 8.96771 192.895 9.05576 189.549 8.96771C186.996 8.87967 185.851 9.84818 185.939 12.5776C186.115 17.6843 186.115 22.8791 185.939 27.9858C185.851 30.6272 186.644 31.7718 189.461 31.5957C191.838 31.4196 194.128 31.5957 196.505 31.5957C203.284 31.3316 203.725 30.9794 205.221 23.6715Z" fill="#2E3540"/>
<path d="M587.872 279.095C592.539 266.768 597.293 254.53 601.784 242.203C603.281 238.241 601.96 236.657 597.646 236.304C596.941 236.216 596.061 236.48 595.444 236.216C594.652 235.864 593.948 235.16 593.243 234.543C593.948 233.839 594.652 232.43 595.444 232.43C602.048 232.254 608.651 232.342 615.255 232.43C615.871 232.43 616.84 233.311 617.016 234.015C617.192 234.631 616.488 236.04 616.047 236.04C610.324 236.657 609.004 241.323 607.243 245.373C602.224 257.083 597.558 268.882 592.715 280.68C590.954 284.906 589.457 289.132 587.432 293.182C586.728 294.503 584.703 295.912 583.294 295.912C581.885 295.912 579.596 294.679 579.068 293.359C571.584 276.013 564.364 258.58 556.792 241.235C555.912 239.21 553.27 237.889 551.509 236.216C550.805 235.512 550.012 234.808 549.308 234.103C550.1 233.487 550.981 232.254 551.773 232.254C559.433 232.078 567.005 232.166 574.665 232.254C575.458 232.254 576.162 233.575 576.867 234.279C576.25 234.896 575.546 236.04 574.93 236.04C570.087 236.128 569.823 239.65 570.967 242.468C575.898 254.794 581.357 266.945 586.64 279.095C586.992 279.183 587.432 279.183 587.872 279.095Z" fill="#2E3540"/>
<path d="M709.289 0.251099C708.849 6.23828 708.496 11.2569 707.88 16.2756C707.792 16.8919 706.031 17.8604 705.239 17.6843C704.27 17.5083 702.949 16.4517 702.685 15.5712C700.66 8.87968 700.748 8.79163 693.705 8.87968C682.611 8.96772 684.196 7.47093 684.107 18.3887C684.019 29.9228 684.107 41.545 684.107 53.0791C684.107 60.387 684.284 60.475 691.415 62.0599C692.56 62.324 693.617 63.2925 694.673 63.9969C693.44 64.7013 692.208 65.9339 690.887 65.9339C682.875 66.11 674.775 66.11 666.674 65.9339C665.354 65.9339 664.121 64.7013 662.8 63.9969C663.857 63.2925 664.825 62.1479 665.97 61.9718C670.548 61.2675 672.309 58.9783 672.221 54.2237C671.957 40.5765 672.045 26.9293 672.221 13.3701C672.309 9.58405 670.989 8.3514 667.467 8.70358C665.442 8.87968 663.328 8.87968 661.303 8.79163C657.165 8.61554 654.524 10.3765 653.907 14.6027C653.379 17.6843 651.706 18.3887 648.184 17.2441C648.889 12.4015 649.505 7.38288 650.474 2.45227C650.914 0.163052 652.675 0.251099 654.524 1.5718C655.844 2.45227 657.693 3.15664 659.278 3.15664C672.573 3.24469 685.956 3.24469 699.252 3.15664C700.924 3.15664 702.509 2.36422 704.182 1.83594C705.591 1.48375 706.912 1.04352 709.289 0.251099Z" fill="#2E3540"/>
<path d="M288.161 278.479C287.369 283.057 286.841 287.636 285.696 292.126C285.432 293.271 283.319 294.767 281.998 294.767C267.03 294.943 252.15 294.943 237.182 294.767C236.038 294.767 234.981 293.535 233.837 292.83C234.893 292.126 235.862 291.069 237.006 290.893C241.145 290.277 242.993 288.34 242.905 283.85C242.641 270.554 242.905 257.171 242.817 243.876C242.817 237.889 242.289 237.449 236.302 236.04C235.421 235.864 234.717 234.808 233.925 234.191C234.717 233.487 235.51 232.342 236.302 232.254C244.754 232.078 253.295 232.078 261.747 232.166C262.54 232.166 263.244 233.487 264.037 234.191C263.332 234.808 262.804 235.776 262.012 235.952C254.968 238.153 254.704 238.506 254.704 245.637C254.704 257.524 254.704 269.41 254.704 281.208C254.704 287.195 256.465 288.956 262.628 289.132C264.389 289.22 266.15 289.044 267.911 289.22C274.866 289.837 279.797 286.843 282.791 280.68C283.847 278.743 284.992 276.982 288.161 278.479Z" fill="#2E3540"/>
<path d="M402.71 278.567C401.566 283.233 400.597 287.636 399.188 291.95C398.748 293.183 396.987 294.855 395.755 294.855C381.139 295.032 366.435 295.032 351.819 294.943C350.675 294.943 349.618 293.711 348.473 293.006C349.53 292.302 350.498 291.069 351.643 290.893C356.222 290.277 357.542 287.812 357.542 283.321C357.278 270.29 357.366 257.259 357.542 244.229C357.63 239.65 355.957 237.097 351.379 236.304C350.41 236.128 349.53 235.072 348.561 234.367C349.618 233.663 350.675 232.342 351.731 232.342C359.831 232.166 367.844 232.166 375.944 232.342C376.913 232.342 377.881 233.575 378.85 234.191C377.969 234.896 377.177 236.04 376.208 236.304C370.661 237.713 369.341 239.034 369.341 244.757C369.252 257.083 369.252 269.41 369.341 281.648C369.341 287.9 370.837 289.308 377.177 289.485C378.938 289.485 380.699 289.397 382.459 289.573C389.415 290.189 394.346 287.371 397.427 281.12C398.22 279.007 399.276 276.894 402.71 278.567Z" fill="#2E3540"/>
<path d="M22.7006 231.11C26.4866 231.462 30.2726 231.638 34.0586 232.342C35.2032 232.606 36.5239 234.191 36.8761 235.424C37.4925 237.449 37.4925 239.738 37.4925 241.939C37.4925 243.084 36.8761 244.14 36.612 245.285C35.5554 244.581 33.9706 244.052 33.4423 242.996C30.0085 236.48 27.191 234.631 20.7636 235.072C16.2732 235.424 13.3677 238.065 11.9589 242.027C10.6382 245.901 11.4306 249.775 15.1286 252.153C19.619 255.058 24.3735 257.788 29.128 260.341C35.3793 263.687 41.1904 267.297 41.7187 275.309C42.4231 287.371 35.2032 295.296 22.3484 295.824C16.6254 296.088 10.7263 294.943 5.00322 293.975C3.68252 293.711 2.18572 291.686 1.74549 290.101C1.04111 287.459 0.953067 284.642 0.865021 281.824C0.865021 280.856 1.74549 279.887 2.18572 278.919C3.15424 279.447 4.38689 279.711 4.91517 280.504C5.97173 281.913 6.41196 283.673 7.29243 285.17C10.9023 291.245 18.2983 293.711 24.9018 291.157C31.8575 288.428 33.6184 280.592 27.9834 275.573C24.8137 272.756 21.0277 270.731 17.5939 268.265C14.3362 266.064 10.8143 264.127 7.90876 261.486C2.18572 256.379 0.424787 248.719 3.15424 242.292C6.23587 235.072 11.9589 231.638 19.619 231.022C20.6755 230.934 21.644 231.022 22.7006 231.022C22.6126 231.198 22.7006 231.11 22.7006 231.11Z" fill="#2E3540"/>
<path d="M544.289 50.7019C547.899 49.2931 549.22 50.3497 550.188 53.1672C553.006 61.5316 558.553 64.6132 567.181 63.0284C574.401 61.7077 577.659 52.903 572.552 47.268C569.735 44.1864 565.949 42.0733 562.427 39.696C559.521 37.759 556.264 36.3502 553.534 34.1491C547.283 29.1304 545.17 20.4138 548.075 13.1059C550.717 6.32632 556.88 2.27617 565.068 2.45226C569.559 2.54031 574.137 2.8925 578.628 3.50882C579.684 3.68492 581.093 5.26976 581.357 6.41437C581.797 8.70358 581.621 11.0808 581.445 13.4581C581.357 14.5147 580.477 15.5712 579.948 16.6278C578.98 15.8354 577.483 15.131 577.043 14.0744C575.018 9.05577 571.76 6.15023 566.037 6.32632C561.723 6.41437 558.553 8.26335 557.144 12.2254C555.735 16.1876 555.559 20.6779 559.433 23.4954C563.484 26.489 567.974 29.1304 572.464 31.5077C577.923 34.5013 583.294 37.4068 584.967 44.1864C587.784 56.0727 580.389 66.11 567.358 67.0786C561.811 67.5188 556 66.3742 550.453 65.4057C548.956 65.1415 547.195 62.8523 546.579 61.1794C545.346 57.7456 544.994 54.2237 544.289 50.7019Z" fill="#2E3540"/>
<path d="M475.261 232.166C479.399 232.166 483.449 232.078 487.587 232.254C488.644 232.342 489.524 233.399 490.581 234.015C489.7 234.719 488.996 235.864 488.027 236.128C482.216 237.625 481.688 238.153 481.688 244.14C481.688 257.171 481.864 270.202 481.6 283.233C481.512 287.636 482.833 290.189 487.411 290.717C488.556 290.893 489.524 292.038 490.581 292.83C489.348 293.535 488.116 294.767 486.795 294.767C479.223 294.943 471.563 294.943 463.991 294.767C462.758 294.767 461.525 293.447 460.293 292.83C461.349 292.126 462.406 291.069 463.551 290.893C467.777 290.277 469.45 288.252 469.362 283.85C469.097 270.378 469.185 256.907 469.362 243.436C469.45 238.946 467.689 236.657 463.198 236.128C462.23 236.04 461.349 234.896 460.381 234.279C461.437 233.575 462.406 232.342 463.551 232.254C467.337 231.99 471.299 232.166 475.261 232.166Z" fill="#2E3540"/>
</g>
<defs>
<clipPath id="clip0">
<rect width="862.33" height="295.749" fill="white" transform="translate(0.865021 0.251099)"/>
</clipPath>
</defs>
</svg>
