<svg width="142" height="39" viewBox="0 0 142 39" fill="none" xmlns="http://www.w3.org/2000/svg">
<path d="M109.457 6.46996C108.323 7.63983 107.3 8.73658 106.203 9.90646C104.668 8.84626 103.315 7.85918 101.889 6.94522C96.4053 3.4356 90.0807 3.54528 85.5475 7.16457C80.2099 11.4419 78.1992 17.9859 80.3927 24.1643C83.7195 33.6329 96.9537 37.0329 104.156 30.0502C105.837 28.405 106.715 25.846 107.738 23.6159C108.287 22.446 107.775 21.4589 106.24 21.4589C102.876 21.4224 99.5494 21.3493 96.186 21.3127C95.8935 21.3127 95.601 21.2761 95.1623 21.2396C95.1623 19.8504 95.1623 18.4977 95.1623 16.9988C101.158 16.9988 107.154 16.9988 113.149 16.9988C112.966 21.9708 112.528 26.7965 109.457 30.891C105.106 36.7038 96.2591 39.5554 88.9474 37.4716C80.7948 35.1318 75.6767 28.99 74.7627 21.1299C73.4831 9.97957 82.1475 1.57112 90.1538 0.291574C97.5021 -0.841739 103.936 1.35177 109.457 6.46996Z" fill="#2E353F"/>
<path d="M52.3516 17.5108C49.9022 17.2915 47.5624 16.9624 45.2227 16.9624C40.6529 16.9259 37.0702 20.9839 37.4357 25.5902C37.8013 29.9773 41.2378 33.0847 45.7711 33.0847C50.5968 33.1213 53.8139 30.3063 53.9967 25.4806C54.2526 17.9495 54.2892 10.3819 54.3989 2.85085C54.3989 2.11969 54.3989 1.42507 54.3989 0.584229C55.8978 0.584229 57.287 0.584229 58.7493 0.584229C58.8225 0.949813 58.9321 1.35196 58.9321 1.7541C58.859 9.46794 58.8956 17.2183 58.6762 24.9322C58.53 30.3063 56.4827 34.6567 51.1086 36.704C45.9173 38.6782 39.9583 37.3255 36.3024 33.4503C33.0122 29.9773 32.1713 23.2871 34.4014 18.7172C36.339 14.7324 41.64 11.9174 46.4657 12.3195C47.3797 12.3926 48.2936 12.5389 49.171 12.7582C52.315 13.5625 52.571 13.9646 52.3516 17.5108Z" fill="#2E353F"/>
<path d="M127.918 37.3616C119.692 37.3616 115.013 32.4993 115.013 24.0177C115.013 17.6566 120.899 12.2825 127.881 12.2825C135.193 12.2825 141.042 17.8394 141.042 24.822C141.079 32.2434 135.705 37.3616 127.918 37.3616ZM136.326 24.9317C136.326 19.5211 133.255 17.0351 127.223 16.7426C123.64 16.5964 119.436 20.1791 119.473 24.7489C119.509 29.6112 122.946 32.7187 127.954 33.0477C132.232 33.3767 137.167 29.1359 136.326 24.9317Z" fill="#2E353F"/>
<path d="M29.9777 37.6525C28.8078 37.6525 27.6745 37.6525 26.2487 37.6525C26.2487 35.2396 26.3219 32.8999 26.2122 30.5601C26.066 27.5258 26.066 24.4548 25.5176 21.4936C24.6402 16.9604 20.1435 15.2421 16.2317 17.7646C14.3672 18.9711 13.1974 20.3603 13.3436 22.9194C13.5995 27.7451 13.4167 32.6074 13.4167 37.5793C11.5522 37.5793 10.1996 37.5793 8.4082 37.5793C8.66411 31.6569 8.4082 25.771 9.28561 20.0678C10.4189 12.7561 19.9972 9.79489 26.1391 14.4013C28.5519 16.1926 29.9412 18.4227 29.9412 21.4936C29.9412 26.8311 29.9777 32.1687 29.9777 37.6525Z" fill="#2E353F"/>
<path d="M0 0.51123C1.46234 0.51123 2.77845 0.51123 4.20423 0.51123C4.20423 12.868 4.20423 25.1151 4.20423 37.545C2.88812 37.545 1.53546 37.545 0 37.545C0 25.2979 0 12.9777 0 0.51123Z" fill="#2E353F"/>
<path d="M69.3502 37.6168C67.8513 37.6168 66.5352 37.6168 65.1094 37.6168C65.1094 29.3546 65.1094 21.202 65.1094 12.8667C66.4986 12.8667 67.8513 12.8667 69.3502 12.8667C69.3502 21.1289 69.3502 29.2815 69.3502 37.6168Z" fill="#2E353F"/>
</svg>
