<svg width="210" height="70" viewBox="0 0 210 70" fill="none" xmlns="http://www.w3.org/2000/svg">
<path d="M19.3251 0.0207953C20.0276 0.131704 20.7371 0.159431 21.4466 0.277271C23.4838 0.616928 25.4156 1.27545 27.221 2.25976C28.8577 3.15396 30.34 4.26304 31.6185 5.60781C32.6652 6.70303 33.5924 7.88836 34.316 9.21926C34.4846 9.53119 34.4494 9.59358 34.0842 9.60051C33.5714 9.60744 33.0515 9.59358 32.5387 9.60744C32.2999 9.61437 32.1453 9.51733 32.0259 9.32324C31.3234 8.22802 30.4664 7.25064 29.511 6.35644C27.8672 4.81758 25.9706 3.6877 23.8421 2.92521C22.5003 2.44692 21.1235 2.15578 19.7045 2.03794C16.3607 1.75374 13.2347 2.46771 10.3194 4.06895C8.66154 4.98395 7.22146 6.16928 5.9851 7.59029C3.88469 9.99562 2.62024 12.7683 2.14958 15.8946C2.10743 16.1926 2.08636 16.4907 2.05123 16.7888C2.02313 17.0175 2.10743 17.1284 2.36032 17.1284C5.85865 17.1215 9.35699 17.1215 12.8623 17.1215C12.8834 17.1215 12.8975 17.1076 12.9466 17.0868C12.476 16.9482 12.0475 16.7749 11.6471 16.5392C10.8954 16.0887 10.4529 15.4579 10.4599 14.5567C10.4669 13.6209 11.1834 12.8931 12.1247 12.8307C13.2276 12.7545 14.0636 13.2605 14.7801 14.0022C15.4966 14.7439 16.1991 15.5064 16.9086 16.255C17.0913 16.4491 17.302 16.6085 17.5549 16.761C17.6462 16.5808 17.5619 16.4283 17.5338 16.2827C17.3512 15.2638 16.9297 14.321 16.6417 13.3298C16.4169 12.5604 16.2764 11.784 16.438 10.973C16.7189 9.60744 18.1239 8.92813 19.3181 9.62824C19.9714 10.0095 20.2454 10.6403 20.3086 11.3681C20.3859 12.2069 20.1821 12.9971 19.9222 13.7804C19.6342 14.633 19.3181 15.4787 19.1425 16.3659C19.1214 16.4768 19.0441 16.6224 19.1565 16.6848C19.2689 16.7472 19.3673 16.6224 19.4516 16.5461C20.1189 15.9154 20.7582 15.2568 21.3623 14.5637C21.8962 13.9467 22.4792 13.3783 23.252 13.0525C23.9053 12.7753 24.5726 12.7129 25.233 12.9971C26.3639 13.4892 26.6168 14.9934 25.7668 15.9362C25.0854 16.6986 24.1722 16.9967 23.2168 17.2116C22.2615 17.4196 21.285 17.5721 20.3507 17.877C20.2102 17.9256 19.9855 17.9394 19.9784 18.085C19.9714 18.2514 20.2032 18.2444 20.3437 18.293C21.4045 18.6673 22.5284 18.792 23.6173 19.0624C24.39 19.2565 25.1065 19.5476 25.6755 20.1229C26.5325 20.9963 26.4693 22.3688 25.521 23.0135C24.8255 23.4849 24.0668 23.4571 23.3082 23.1452C22.3669 22.757 21.7416 21.9945 21.0743 21.2806C20.5404 20.7121 20.0627 20.0952 19.4375 19.6239C19.3603 19.5615 19.29 19.4228 19.1776 19.4852C19.0512 19.5545 19.1144 19.6932 19.1355 19.8041C19.3181 20.6428 19.585 21.4538 19.8731 22.2579C20.1681 23.0897 20.3788 23.9424 20.3016 24.8366C20.2383 25.5644 19.9433 26.1744 19.283 26.5626C18.2503 27.1726 16.9789 26.6943 16.5363 25.5297C16.2272 24.7118 16.3396 23.8938 16.5574 23.0759C16.8313 22.0569 17.2669 21.0934 17.4846 20.0606C17.5268 19.8595 17.5619 19.6585 17.6111 19.402C17.1615 19.6169 16.8875 19.9496 16.5995 20.2477C15.9322 20.927 15.307 21.6479 14.6326 22.3203C14.1619 22.7917 13.5929 23.1521 12.9256 23.2977C11.921 23.5195 11.0219 23.1729 10.6144 22.4174C10.214 21.6757 10.4599 20.622 11.1905 19.9635C11.6471 19.5545 12.2161 19.3397 12.771 19.0762C12.6727 19.0762 12.5673 19.0762 12.469 19.0762C9.15327 19.0762 5.8446 19.0762 2.52892 19.0762C2.03718 19.0762 2.00206 19.1178 2.05123 19.5892C2.34627 22.4659 3.32271 25.1 5.04378 27.436C7.16526 30.3265 9.94707 32.3367 13.4033 33.4389C15.6582 34.1598 17.9693 34.3539 20.3016 34.0766C22.5565 33.8132 24.671 33.0854 26.6309 31.9347C28.8156 30.6454 30.6069 28.961 32.0048 26.8606C32.1594 26.6319 32.328 26.5279 32.609 26.5418C33.0866 26.5626 33.5714 26.5418 34.049 26.5487C34.4354 26.5556 34.4916 26.6388 34.3019 26.9785C33.7751 27.9073 33.1709 28.7877 32.4755 29.5987C31.2462 31.0336 29.8482 32.2882 28.2325 33.3003C25.7177 34.8738 22.985 35.8096 20.0136 36.066C17.021 36.3225 14.1338 35.9205 11.352 34.7975C9.50451 34.0558 7.83964 33.023 6.32931 31.7337C4.32023 30.0146 2.75371 27.9697 1.65082 25.5783C0.702477 23.5264 0.16157 21.3776 0.0561981 19.1248C0.0491734 19.0069 0.0561981 18.896 0 18.7851C0 18.3207 0 17.8632 0 17.3988C0.0632229 17.2809 0.0561981 17.1492 0.0561981 17.0244C0.0561981 16.4352 0.133471 15.846 0.231817 15.2707C0.997517 10.668 3.21032 6.88325 6.87724 3.95111C9.32186 1.99635 12.1247 0.769427 15.2367 0.270339C15.9181 0.159431 16.5995 0.0901131 17.2809 0C17.9623 0.0207953 18.6437 0.0207953 19.3251 0.0207953Z" fill="#2E353F"/>
<path d="M197.937 18.8753C197.845 19.208 197.782 19.5477 197.663 19.8735C197.255 21.0103 196.447 21.8144 195.366 22.3273C193.04 23.4364 190.624 23.5542 188.2 22.7293C186.142 22.0292 185.046 20.4765 184.66 18.4039C184.611 18.1336 184.59 17.8563 184.54 17.579C184.505 17.3503 184.597 17.2602 184.829 17.2602C185.426 17.2671 186.023 17.2671 186.62 17.2602C186.866 17.2532 186.978 17.3434 187.006 17.586C187.083 18.2445 187.259 18.8753 187.652 19.4298C188.383 20.4627 189.444 20.9271 190.659 21.0657C191.79 21.1905 192.893 21.038 193.947 20.5458C195.127 19.9982 195.724 18.8683 195.352 17.7801C195.106 17.0592 194.509 16.664 193.841 16.3729C192.788 15.9085 191.65 15.7283 190.533 15.4718C189.289 15.1806 188.046 14.8895 186.936 14.2379C185.454 13.3714 184.955 11.9712 185.109 10.3977C185.306 8.41523 186.543 7.27842 188.348 6.66842C190.266 6.02377 192.212 5.95445 194.122 6.68922C196.033 7.41705 197.059 8.85886 197.312 10.8483C197.459 12.0198 197.389 11.7633 196.44 11.791C196.075 11.7979 195.717 11.7841 195.352 11.7979C195.057 11.8118 194.916 11.7286 194.895 11.4028C194.832 10.5156 194.481 9.75306 193.771 9.17773C193.174 8.6925 192.457 8.47068 191.706 8.3875C190.497 8.2558 189.345 8.40137 188.341 9.15C187.287 9.94022 187.336 11.486 188.411 12.2416C189.317 12.8793 190.378 13.0803 191.425 13.3299C192.598 13.6071 193.806 13.718 194.937 14.1617C196.511 14.7925 197.607 15.8392 197.895 17.5652C197.902 17.6068 197.93 17.6484 197.951 17.6899C197.937 18.0851 197.937 18.4802 197.937 18.8753Z" fill="#2E353F"/>
<path d="M197.937 35.5045C197.684 35.5253 197.424 35.5669 197.171 35.5738C196.181 35.5946 195.766 35.2064 195.766 34.236C195.759 33.0368 195.766 31.8376 195.766 30.6314C195.766 30.1254 195.766 30.1046 195.26 30.0977C194.874 30.0977 194.916 29.8482 194.909 29.6055C194.902 29.3491 194.888 29.1203 195.267 29.1203C195.766 29.1203 195.766 29.0995 195.766 28.6143C195.766 28.3024 195.773 27.9904 195.766 27.6785C195.766 27.4775 195.857 27.3943 196.061 27.3804C196.897 27.3181 196.904 27.325 196.904 28.1429C196.904 28.3648 196.911 28.5796 196.904 28.8015C196.897 29.0441 197.002 29.1342 197.241 29.1272C197.473 29.1203 197.712 29.1272 197.944 29.1272C197.944 29.453 197.944 29.7719 197.944 30.0977C197.782 30.0977 197.621 30.0977 197.452 30.0977C196.904 30.0977 196.904 30.0977 196.904 30.6245C196.904 31.6019 196.904 32.5793 196.904 33.5566C196.904 34.5479 196.939 34.5895 197.944 34.6033C197.937 34.9083 197.937 35.2064 197.937 35.5045Z" fill="#2E353F"/>
<path d="M123.854 10.4808C123.741 10.8413 123.615 11.2087 123.509 11.5761C122.449 15.1529 121.395 18.7366 120.348 22.3203C120.25 22.653 120.102 22.7847 119.744 22.7709C119.182 22.7431 118.62 22.757 118.058 22.7639C117.798 22.7709 117.651 22.6877 117.567 22.4312C116.738 19.8457 115.895 17.2601 115.059 14.6746C114.49 12.9278 113.914 11.1809 113.345 9.43413C113.099 8.6855 112.853 7.9438 112.614 7.19517C112.46 6.72381 112.502 6.66142 112.986 6.66142C113.569 6.66142 114.16 6.66836 114.743 6.65449C114.974 6.64756 115.094 6.71688 115.164 6.95949C115.867 9.30936 116.583 11.6523 117.3 13.9952C117.812 15.6727 118.318 17.3572 118.831 19.0416C118.852 19.1109 118.852 19.2079 118.979 19.2565C119.189 18.5217 119.407 17.8008 119.618 17.073C120.573 13.7526 121.529 10.4323 122.47 7.10506C122.568 6.7654 122.723 6.64063 123.081 6.65449C123.664 6.68222 124.254 6.67529 124.837 6.65449C125.139 6.64756 125.28 6.75847 125.357 7.03574C125.771 8.49141 126.193 9.94709 126.614 11.3958C127.261 13.6279 127.907 15.8599 128.553 18.085C128.666 18.4732 128.778 18.8544 128.968 19.2426C129.122 18.7435 129.291 18.2444 129.438 17.7453C130.169 15.3331 130.893 12.9208 131.623 10.5086C131.974 9.34402 132.333 8.18641 132.677 7.02188C132.761 6.73767 132.909 6.64063 133.204 6.64756C133.78 6.66836 134.349 6.65449 134.925 6.65449C135.381 6.65449 135.416 6.70995 135.262 7.17438C134.791 8.60232 134.321 10.0303 133.85 11.4582C132.684 14.9934 131.532 18.5356 130.359 22.0638C130.085 22.8887 130.232 22.7362 129.403 22.7501C128.926 22.757 128.441 22.7431 127.963 22.757C127.724 22.7639 127.612 22.6669 127.542 22.4381C126.966 20.4765 126.383 18.5148 125.8 16.5531C125.209 14.5844 124.619 12.6089 124.029 10.6403C124.001 10.5917 123.994 10.5155 123.854 10.4808Z" fill="#2E353F"/>
<path d="M44.9445 11.7355C44.9445 8.22801 44.9445 4.7136 44.9445 1.20612C44.9445 0.707031 44.9445 0.707031 45.4503 0.707031C50.2974 0.707031 55.1375 0.707031 59.9845 0.707031C60.4903 0.707031 60.4903 0.707031 60.4903 1.20612C60.4903 1.64282 60.4763 2.08645 60.4973 2.52316C60.5114 2.84895 60.3779 2.93906 60.0688 2.93906C57.7998 2.93213 55.5308 2.93213 53.2548 2.93213C51.4846 2.93213 49.7214 2.93213 47.9511 2.93213C47.4945 2.93213 47.4875 2.93906 47.4875 3.40349C47.4875 5.51768 47.4875 7.63188 47.4875 9.74607C47.4875 10.266 47.4875 10.266 48.0003 10.266C51.7094 10.266 55.4184 10.266 59.1275 10.266C59.6895 10.266 59.6895 10.266 59.6895 10.8274C59.6895 11.2295 59.6895 11.6384 59.6895 12.0405C59.6825 12.4841 59.6614 12.5049 59.2048 12.5049C55.5098 12.5049 51.8077 12.5049 48.1127 12.5049C47.4805 12.5049 47.4805 12.5049 47.4805 13.1149C47.4805 15.4232 47.4805 17.7315 47.4805 20.0467C47.4805 20.525 47.4805 20.525 47.9722 20.525C52.0114 20.525 56.0507 20.525 60.0829 20.525C60.6238 20.525 60.6238 20.525 60.6238 21.0657C60.6238 21.4954 60.6097 21.9183 60.6308 22.348C60.6519 22.6738 60.5114 22.7639 60.2023 22.7639C58.6077 22.757 57.0201 22.757 55.4255 22.757C52.1238 22.757 48.8222 22.757 45.5276 22.757C44.9375 22.757 44.9375 22.757 44.9375 22.1609C44.9445 18.6881 44.9445 15.2152 44.9445 11.7355Z" fill="#2E353F"/>
<path d="M77.8132 20.6152C77.3496 21.1905 76.8368 21.7035 76.2045 22.0917C74.7223 23.0136 73.1347 23.3879 71.3856 23.1592C69.5732 22.9165 68.0769 22.1332 66.9459 20.7053C66.0186 19.5338 65.5128 18.1683 65.267 16.7126C64.9719 14.9935 65.0492 13.2814 65.5339 11.6039C66.0467 9.82241 66.9599 8.29049 68.5827 7.26459C70.1 6.308 71.7579 6.0238 73.5281 6.28721C75.186 6.52982 76.5628 7.26459 77.5603 8.62322C77.5955 8.67174 77.6165 8.72719 77.6657 8.81037C77.7921 8.61628 77.757 8.47072 77.757 8.33901C77.757 5.96141 77.757 3.58381 77.757 1.19928C77.757 0.700195 77.757 0.700195 78.2698 0.700195C78.7475 0.700195 79.2322 0.700195 79.7099 0.700195C80.2227 0.700195 80.2227 0.700195 80.2297 1.22701C80.2297 1.26167 80.2297 1.29633 80.2297 1.33099C80.2297 8.26276 80.2297 15.1876 80.2297 22.1194C80.2297 22.2372 80.2227 22.3481 80.2297 22.466C80.2368 22.667 80.1454 22.764 79.9347 22.764C79.3587 22.7571 78.7897 22.7571 78.2136 22.764C77.9818 22.764 77.9045 22.6531 77.9045 22.4452C77.9116 21.9738 77.9045 21.4955 77.9045 21.0242C77.9045 20.8994 77.9045 20.7746 77.9045 20.6498C77.8694 20.636 77.8413 20.6291 77.8132 20.6152ZM77.764 14.8202C77.75 13.517 77.5603 12.3456 77.0686 11.2226C75.755 8.2281 72.3831 7.79833 70.3459 8.8381C69.1657 9.44116 68.5054 10.4879 68.0909 11.6871C67.4306 13.6002 67.4095 15.5411 67.9785 17.482C68.3649 18.7783 69.0393 19.8943 70.2827 20.5875C71.1608 21.0796 72.1161 21.1905 73.0996 21.0865C74.7153 20.9202 75.9727 20.1854 76.7876 18.7644C77.5041 17.5098 77.736 16.1511 77.764 14.8202Z" fill="#2E353F"/>
<path d="M147.675 15.541C145.813 15.541 143.952 15.541 142.09 15.541C141.605 15.541 141.577 15.5826 141.648 16.0678C141.823 17.3849 142.252 18.5979 143.137 19.6308C143.706 20.2893 144.415 20.7329 145.237 20.9409C146.516 21.2597 147.766 21.1627 148.946 20.525C150.014 19.9496 150.618 19.0138 151.026 17.9186C151.314 17.1353 151.307 17.1353 152.15 17.1353C152.585 17.1353 153.014 17.1353 153.449 17.1353C153.66 17.1353 153.758 17.1977 153.702 17.4265C153.133 19.8249 152.023 21.8143 149.543 22.7431C148.328 23.1937 147.071 23.2977 145.778 23.2006C144.661 23.1175 143.614 22.8471 142.645 22.2856C141.226 21.4608 140.299 20.2408 139.779 18.7366C138.845 16.0332 138.817 13.3021 139.884 10.6333C140.91 8.06856 142.821 6.52278 145.673 6.24551C147.724 6.05142 149.585 6.47425 151.152 7.84675C152.185 8.75481 152.81 9.92628 153.224 11.2087C153.632 12.4702 153.765 13.7803 153.758 15.1043C153.758 15.4648 153.625 15.5549 153.281 15.5479C151.419 15.5341 149.55 15.541 147.675 15.541ZM146.438 13.3852C147.914 13.3852 149.389 13.3783 150.857 13.3922C151.201 13.3991 151.278 13.2813 151.229 12.9693C151.019 11.6592 150.527 10.4947 149.55 9.54503C147.935 7.97152 145.181 7.95072 143.544 9.50344C142.512 10.4878 141.957 11.7077 141.69 13.0733C141.64 13.3367 141.739 13.3922 141.985 13.3852C143.467 13.3852 144.949 13.3852 146.438 13.3852Z" fill="#2E353F"/>
<path d="M94.1741 15.541C92.3266 15.541 90.4791 15.541 88.6246 15.541C88.0696 15.541 88.0766 15.541 88.1399 16.0816C88.2804 17.1977 88.6105 18.2513 89.2709 19.1732C90.1489 20.4001 91.3502 21.0517 92.8956 21.0933C94.1812 21.128 95.3262 20.8022 96.2886 19.9357C96.7593 19.5129 97.0965 18.9791 97.3564 18.4107C97.5039 18.0849 97.6514 17.7522 97.7287 17.4056C97.7708 17.2254 97.8692 17.1283 98.0729 17.1283C98.6911 17.1353 99.3163 17.1283 99.9345 17.1283C100.152 17.1283 100.265 17.2046 100.208 17.4403C99.8502 18.9306 99.2882 20.317 98.1572 21.433C97.1316 22.445 95.8671 22.9302 94.4762 23.1313C93.2539 23.3046 92.0246 23.2768 90.8233 22.958C88.4981 22.341 86.9948 20.823 86.2502 18.6117C85.3089 15.8182 85.3159 13.0039 86.5242 10.2867C87.5919 7.88136 89.4886 6.48807 92.1861 6.2316C93.6543 6.09296 95.0593 6.26625 96.3799 6.93864C97.7427 7.63181 98.684 8.72703 99.3163 10.0857C100.054 11.68 100.307 13.3713 100.258 15.1181C100.251 15.437 100.138 15.534 99.8291 15.534C97.9394 15.534 96.0568 15.541 94.1741 15.541ZM92.9659 13.3852C94.427 13.3852 95.8882 13.3852 97.3493 13.3852C97.7638 13.3852 97.827 13.3228 97.7568 12.9208C97.5741 11.8602 97.2018 10.8828 96.5204 10.0233C94.9188 7.98533 91.7928 7.76352 89.9452 9.58658C89.018 10.5016 88.4841 11.6314 88.2101 12.8861C88.1047 13.3575 88.1399 13.3921 88.6105 13.3921C90.0647 13.3921 91.5188 13.3852 92.9659 13.3852Z" fill="#2E353F"/>
<path d="M178.345 11.7979C178.043 11.7979 177.733 11.791 177.431 11.7979C177.207 11.8048 177.101 11.7216 177.08 11.479C176.926 9.75301 176.012 8.76177 174.291 8.44291C173.146 8.22802 172.029 8.30427 170.976 8.85188C170.498 9.10143 170.112 9.45495 169.915 9.96097C169.529 10.9799 169.901 11.8949 170.87 12.4217C171.748 12.8931 172.704 13.108 173.659 13.3298C174.818 13.6001 176.019 13.7249 177.129 14.1755C178.612 14.7716 179.707 15.749 180.009 17.3641C180.466 19.8249 179.272 21.6965 176.989 22.5907C175.001 23.374 172.95 23.4571 170.891 22.8957C168.819 22.3273 167.484 20.9964 166.957 18.9168C166.852 18.494 166.754 18.0642 166.74 17.6206C166.733 17.378 166.81 17.2601 167.077 17.2601C167.66 17.274 168.25 17.2671 168.833 17.2601C169.093 17.2532 169.184 17.378 169.205 17.6136C169.43 19.8873 171.193 20.9894 173.238 21.0934C174.397 21.1489 175.5 20.9617 176.497 20.3378C177.719 19.5823 178.014 18.1959 177.143 17.1354C176.813 16.7333 176.343 16.5046 175.865 16.3105C174.755 15.8599 173.568 15.6797 172.409 15.4024C171.186 15.1113 169.978 14.8063 168.917 14.0992C167.864 13.3991 167.365 12.4148 167.309 11.181C167.274 10.4046 167.358 9.65597 167.709 8.95586C168.257 7.86064 169.184 7.17439 170.315 6.75849C172.388 6.00292 174.488 5.91281 176.539 6.80008C178.401 7.60416 179.356 9.09449 179.532 11.0701C179.595 11.7979 179.574 11.7979 178.829 11.7979C178.668 11.7979 178.506 11.7979 178.345 11.7979Z" fill="#2E353F"/>
<path d="M105.428 11.7079C105.428 8.20731 105.428 4.70676 105.428 1.20622C105.428 0.707127 105.428 0.700195 105.934 0.700195C106.474 0.700195 107.008 0.707127 107.549 0.700195C107.788 0.700195 107.9 0.783377 107.893 1.02599C107.886 1.12997 107.893 1.23394 107.893 1.33792C107.893 8.25583 107.893 15.1737 107.893 22.0917C107.893 22.2164 107.893 22.3481 107.886 22.4729C107.879 22.6531 107.795 22.7571 107.605 22.7571C106.973 22.7571 106.341 22.7571 105.709 22.7571C105.519 22.7571 105.428 22.667 105.428 22.4798C105.428 22.362 105.428 22.2511 105.428 22.1333C105.428 18.6604 105.428 15.1876 105.428 11.7079Z" fill="#2E353F"/>
<path d="M158.957 14.7092C158.957 12.2069 158.957 9.69755 158.957 7.19518C158.957 6.68916 158.971 6.67529 159.49 6.67529C159.933 6.67529 160.383 6.67529 160.825 6.67529C161.331 6.67529 161.345 6.69609 161.352 7.20904C161.352 7.31302 161.352 7.41699 161.352 7.52097C161.352 12.4009 161.352 17.2878 161.352 22.1678C161.352 22.757 161.352 22.757 160.748 22.757C160.312 22.757 159.884 22.757 159.448 22.757C158.985 22.757 158.957 22.7293 158.957 22.2579C158.957 19.7417 158.957 17.2255 158.957 14.7092Z" fill="#2E353F"/>
<path d="M52.3414 29.8691C52.4327 29.7513 52.3976 29.6334 52.3976 29.5225C52.4046 28.76 52.4116 27.9975 52.3976 27.235C52.3906 26.9439 52.4749 26.8191 52.798 26.8191C53.5356 26.8191 53.5356 26.8052 53.5356 27.5469C53.5356 30.0424 53.5356 32.5378 53.5356 35.0333C53.5356 35.1927 53.6129 35.4284 53.3811 35.4769C53.1141 35.5324 52.805 35.5878 52.5592 35.4353C52.3695 35.3105 52.5381 35.0402 52.3906 34.7699C52.2711 34.9154 52.1868 35.0541 52.0674 35.1511C50.9926 36.0384 49.3418 35.7611 48.4637 34.555C47.6278 33.4043 47.6137 31.2139 48.4005 30.0424C49.3348 28.6422 51.4492 28.6768 52.236 29.7859C52.2641 29.8136 52.3063 29.8414 52.3414 29.8691ZM52.3976 32.4061C52.3625 31.907 52.3063 31.2901 51.9831 30.7286C51.674 30.181 51.1893 29.9661 50.5852 29.98C49.9459 30.0008 49.4261 30.2711 49.2224 30.8881C48.9063 31.8308 48.8852 32.7943 49.2575 33.737C49.4823 34.3054 49.9108 34.6451 50.5641 34.6797C51.2666 34.7144 51.7935 34.451 52.1236 33.8341C52.3414 33.432 52.4046 32.9884 52.3976 32.4061Z" fill="#2E353F"/>
<path d="M161.619 34.9707C161.521 35.0954 161.563 35.2271 161.563 35.345C161.556 36.0936 161.556 36.8422 161.563 37.5978C161.563 37.8473 161.471 37.9513 161.212 37.9513C160.312 37.9444 160.432 38.0068 160.432 37.2027C160.425 34.6726 160.432 32.1494 160.432 29.6193C160.432 29.4599 160.362 29.2311 160.586 29.1757C160.853 29.1133 161.141 29.0925 161.415 29.1965C161.5 29.2311 161.485 29.3351 161.5 29.4114C161.514 29.5569 161.471 29.7094 161.535 29.855C161.563 29.855 161.598 29.855 161.605 29.8481C162.497 28.5102 165.054 28.6419 165.785 30.5828C166.304 31.9623 166.255 33.3694 165.391 34.631C164.541 35.8649 162.883 36.0243 161.738 35.0538C161.703 35.0122 161.661 34.9984 161.619 34.9707ZM161.563 32.5307C161.549 32.7871 161.577 33.106 161.647 33.4249C161.781 34.0972 162.3 34.5894 162.94 34.6657C163.762 34.7558 164.345 34.4924 164.626 33.7922C165.019 32.8149 165.012 31.8028 164.647 30.8185C164.436 30.2432 163.811 29.9382 163.129 29.9798C162.462 30.0214 161.984 30.3679 161.788 30.9641C161.619 31.4493 161.556 31.9553 161.563 32.5307Z" fill="#2E353F"/>
<path d="M67.1567 32.5168C67.1567 33.0853 67.1567 33.6467 67.1567 34.2151C67.1567 34.4993 67.262 34.6865 67.5852 34.6796C67.7538 34.6726 67.8661 34.742 67.8521 34.9222C67.838 35.1371 67.9645 35.4005 67.6835 35.5391C67.1496 35.7956 66.3769 35.553 66.1521 35.0331C66.0397 34.7697 65.9484 34.8251 65.7868 34.9707C65.0844 35.6084 64.2414 35.7471 63.3352 35.6223C62.1831 35.4629 61.5088 34.4162 61.8108 33.3001C62.0286 32.4822 62.6819 31.9554 63.6092 31.8375C64.1782 31.7682 64.7472 31.6989 65.3091 31.6157C65.5691 31.5741 65.8781 31.5603 65.9414 31.2275C66.0116 30.8671 65.9976 30.5136 65.6815 30.2432C64.8947 29.5639 63.5178 29.9036 63.1877 30.8602C63.1104 31.075 63.005 31.1652 62.7802 31.1236C62.71 31.1097 62.6397 31.1028 62.5695 31.0958C62.0637 31.082 62.0286 31.0542 62.155 30.569C62.3658 29.7511 62.8997 29.252 63.7286 29.0787C64.3257 28.9539 64.9298 28.94 65.541 29.044C66.5806 29.2243 67.1286 29.8481 67.1567 30.9017C67.1707 31.4355 67.1567 31.9762 67.1567 32.5168ZM66.0186 32.7803C65.9695 32.6763 66.117 32.3713 65.8219 32.4406C65.1265 32.6 64.4029 32.607 63.7215 32.8218C63.1596 33.0021 62.8926 33.3833 62.9769 33.8755C63.0753 34.4439 63.4616 34.7697 64.0658 34.7212C65.0422 34.638 66.0538 34.2706 66.0186 32.7803Z" fill="#2E353F"/>
<path d="M147.085 32.7387C146.431 32.7387 145.778 32.7456 145.118 32.7387C144.823 32.7318 144.752 32.8496 144.816 33.1199C145.125 34.5063 146.256 35.0816 147.457 34.4509C147.745 34.2984 147.97 34.0696 148.082 33.7785C148.173 33.5497 148.307 33.4943 148.532 33.4943C149.361 33.4873 149.417 33.5636 149.045 34.3122C148.743 34.9084 148.258 35.3104 147.619 35.5114C146.712 35.7956 145.118 35.8164 144.261 34.7628C143.853 34.2568 143.65 33.6745 143.593 33.0437C143.53 32.3297 143.551 31.6158 143.797 30.9226C144.478 28.9609 146.635 28.5034 148.061 29.3629C148.946 29.8967 149.361 30.7839 149.41 31.789C149.466 32.9328 149.529 32.7248 148.504 32.7456C148.019 32.7456 147.548 32.7387 147.085 32.7387ZM146.481 31.8168C146.958 31.8168 147.436 31.8168 147.921 31.8168C148.054 31.8168 148.202 31.8098 148.195 31.6296C148.181 31.0335 147.745 30.1947 147.014 30.0422C145.912 29.8135 145.012 30.4374 144.823 31.5395C144.781 31.7752 144.886 31.8237 145.09 31.8237C145.546 31.8168 146.01 31.8168 146.481 31.8168Z" fill="#2E353F"/>
<path d="M110.05 32.7389C109.404 32.7389 108.764 32.7458 108.118 32.7389C107.816 32.7319 107.732 32.8498 107.781 33.1409C108.013 34.5273 109.312 35.1165 110.513 34.3817C110.752 34.2361 110.935 34.042 111.026 33.7856C111.103 33.5568 111.244 33.4736 111.469 33.4944C111.708 33.5222 112.045 33.3766 112.164 33.5776C112.312 33.8341 112.087 34.1322 111.946 34.3748C111.539 35.0957 110.914 35.5254 110.071 35.6156C109.256 35.6987 108.462 35.6918 107.739 35.2135C107.106 34.7907 106.741 34.2084 106.601 33.4944C106.376 32.3299 106.425 31.1931 107.12 30.1602C107.725 29.266 108.61 28.9541 109.656 28.9611C111.153 28.9749 112.122 30.1602 112.312 31.5674C112.347 31.8169 112.361 32.0734 112.382 32.323C112.41 32.6141 112.284 32.7389 111.975 32.7319C111.335 32.725 110.689 32.7389 110.05 32.7389ZM109.404 31.8169C109.895 31.8169 110.38 31.8169 110.872 31.8169C110.998 31.8169 111.153 31.8377 111.139 31.6367C111.089 31.0544 110.914 30.4999 110.366 30.2018C109.305 29.6196 107.97 30.1464 107.746 31.6367C107.718 31.8516 107.879 31.8169 107.999 31.8169C108.469 31.8239 108.933 31.8169 109.404 31.8169Z" fill="#2E353F"/>
<path d="M92.4949 32.7389C91.8416 32.7389 91.1813 32.7458 90.528 32.7389C90.2962 32.7389 90.2259 32.8082 90.254 33.0438C90.3805 34.2777 91.3429 34.9432 92.5371 34.6035C92.9726 34.4787 93.2887 34.1945 93.4854 33.8271C93.6329 33.5429 93.8015 33.4598 94.0896 33.4875C94.1949 33.5013 94.3003 33.4944 94.4057 33.4875C94.6726 33.4806 94.7358 33.6053 94.6656 33.841C94.3986 34.7213 93.8015 35.2967 92.9305 35.5393C92.221 35.7403 91.4974 35.7126 90.7879 35.4838C90.1065 35.2689 89.6218 34.8253 89.3619 34.1876C88.7859 32.7943 88.8139 31.3941 89.6499 30.1117C90.233 29.2175 91.1602 28.9194 92.2069 28.961C93.3028 29.0096 94.0334 29.578 94.511 30.5207C94.8131 31.1168 94.8693 31.7545 94.8552 32.4131C94.8482 32.6557 94.7429 32.7389 94.511 32.7319C93.8296 32.7319 93.1623 32.7319 92.4949 32.7389ZM91.9048 31.8169C92.3825 31.8169 92.8602 31.8169 93.3379 31.8169C93.5135 31.8169 93.6259 31.7684 93.6259 31.5674C93.6329 31.0128 93.1131 30.2434 92.5862 30.084C91.4201 29.7305 90.5139 30.389 90.2611 31.4981C90.2049 31.7407 90.2751 31.8377 90.535 31.8308C90.9916 31.81 91.4482 31.8169 91.9048 31.8169Z" fill="#2E353F"/>
<path d="M185.51 32.7387C184.857 32.7387 184.196 32.7457 183.543 32.7387C183.255 32.7318 183.178 32.8358 183.227 33.12C183.459 34.4647 184.667 35.0817 185.868 34.4578C186.142 34.3122 186.346 34.1043 186.444 33.8339C186.55 33.5567 186.725 33.4874 187.006 33.4943C187.779 33.5012 187.814 33.5428 187.47 34.2429C187.069 35.0539 186.409 35.5114 185.503 35.6293C184.26 35.7818 183.171 35.5669 182.433 34.4439C182.04 33.8409 181.948 33.1685 181.955 32.4823C181.955 31.6574 182.082 30.8464 182.595 30.1462C183.332 29.1411 184.484 28.753 185.805 29.0649C186.732 29.2867 187.575 30.2849 187.744 31.3662C187.793 31.7059 187.835 32.0525 187.835 32.3991C187.828 32.6486 187.73 32.7526 187.477 32.7457C186.817 32.7318 186.163 32.7387 185.51 32.7387ZM184.878 31.8168C185.355 31.8168 185.833 31.8168 186.318 31.8168C186.479 31.8168 186.655 31.8029 186.613 31.5811C186.507 30.9989 186.332 30.4582 185.742 30.1601C184.702 29.6402 183.48 30.2918 183.241 31.4771C183.192 31.7267 183.255 31.8237 183.508 31.8168C183.965 31.8099 184.421 31.8168 184.878 31.8168Z" fill="#2E353F"/>
<path d="M132.059 32.4891C132.059 33.0644 132.059 33.6467 132.059 34.2221C132.059 34.4924 132.15 34.6796 132.452 34.6726C132.649 34.6726 132.775 34.7419 132.754 34.9499C132.733 35.1717 132.86 35.4559 132.508 35.553C131.848 35.747 131.328 35.5391 131.012 34.936C130.879 34.6796 130.787 34.8667 130.703 34.943C129.93 35.6223 129.024 35.7609 128.041 35.5738C127.289 35.4282 126.783 34.839 126.664 34.0141C126.558 33.2655 126.931 32.5099 127.556 32.1564C128.181 31.8029 128.877 31.789 129.551 31.685C129.783 31.6504 130.015 31.6365 130.246 31.588C130.9 31.4632 131.139 30.8463 130.696 30.3541C130.296 29.9036 129.741 29.8412 129.179 29.9174C128.673 29.9798 128.279 30.2224 128.104 30.7354C127.984 31.082 127.366 31.2553 127.071 31.0334C126.959 30.9503 127.001 30.8255 127.015 30.7146C127.163 29.8412 127.802 29.2035 128.673 29.044C129.291 28.9331 129.902 28.9193 130.52 29.044C131.462 29.2381 132.01 29.8689 132.038 30.8186C132.073 31.38 132.059 31.9346 132.059 32.4891ZM130.928 32.9397C130.928 32.8912 130.928 32.8496 130.928 32.801C130.921 32.3851 130.921 32.3851 130.513 32.4753C130.253 32.5307 129.986 32.5654 129.72 32.607C129.27 32.6763 128.813 32.7317 128.399 32.9189C128.034 33.0852 127.837 33.3625 127.865 33.7715C127.893 34.229 128.104 34.5132 128.518 34.6518C129.663 35.04 130.914 34.1527 130.928 32.9397Z" fill="#2E353F"/>
<path d="M101.297 32.5307C101.297 33.0991 101.297 33.6606 101.297 34.229C101.297 34.4993 101.388 34.6865 101.698 34.6796C101.901 34.6796 102.014 34.7489 102 34.9638C101.978 35.1787 102.105 35.4629 101.775 35.546C101.241 35.6777 100.545 35.6708 100.264 34.9776C100.152 34.6934 100.04 34.8806 99.9413 34.9707C99.1756 35.6431 98.2835 35.7817 97.314 35.6015C96.5343 35.4559 96.0285 34.8737 95.9091 34.028C95.8037 33.2863 96.1831 32.5169 96.8153 32.1703C97.4405 31.8306 98.1359 31.7959 98.8173 31.6989C99.0843 31.6573 99.3512 31.6365 99.6111 31.5811C100.033 31.4979 100.215 31.2137 100.138 30.7978C100.103 30.5968 100.012 30.4235 99.864 30.2848C99.1686 29.5778 97.7145 29.862 97.3421 30.77C97.293 30.8948 97.3 31.082 97.1244 31.0958C96.8574 31.1097 96.5835 31.1582 96.3236 31.075C96.169 31.0265 96.2322 30.8602 96.2533 30.7354C96.4289 29.7649 97.0471 29.1965 98.157 29.0371C98.6909 28.9609 99.2318 28.9609 99.7657 29.0718C100.7 29.2589 101.255 29.9036 101.276 30.8463C101.304 31.3939 101.29 31.9623 101.297 32.5307ZM100.159 32.905C100.166 32.3921 100.166 32.3921 99.6463 32.4961C99.4145 32.5377 99.1826 32.5654 98.9578 32.6C98.5083 32.6624 98.0587 32.7248 97.6372 32.912C97.2719 33.0783 97.0752 33.3556 97.1033 33.7646C97.1314 34.2221 97.3421 34.5063 97.7566 34.6518C98.9087 35.047 100.152 34.1528 100.159 32.905Z" fill="#2E353F"/>
<path d="M58.3756 32.7386C57.7223 32.7386 57.062 32.7456 56.4087 32.7386C56.1418 32.7317 56.0715 32.8218 56.1066 33.0852C56.2823 34.4438 57.5256 35.0885 58.7409 34.4439C59.0219 34.2983 59.2467 34.0973 59.3451 33.7992C59.4294 33.5427 59.5909 33.4803 59.8438 33.4803C60.6376 33.4873 60.6727 33.515 60.3426 34.2428C60.0405 34.9152 59.4856 35.345 58.7831 35.5391C58.1087 35.7262 57.4132 35.7262 56.7389 35.5252C55.6079 35.1856 55.0529 34.3399 54.8913 33.2585C54.7649 32.4128 54.786 31.5602 55.1302 30.7353C55.5868 29.6263 56.7037 28.8915 57.919 28.94C59.1624 28.9885 60.1037 29.7094 60.4971 30.8878C60.6587 31.38 60.7008 31.8791 60.7008 32.392C60.7008 32.6485 60.5884 32.7386 60.3426 32.7317C59.6893 32.7317 59.0289 32.7317 58.3756 32.7386ZM57.7785 31.8167C58.2422 31.8167 58.7128 31.8167 59.1765 31.8167C59.3591 31.8167 59.5207 31.782 59.4785 31.5533C59.3872 31.0473 59.2537 30.5551 58.776 30.2571C58.2281 29.9105 57.6591 29.8966 57.0761 30.1669C56.4649 30.4511 56.219 30.978 56.0856 31.588C56.0434 31.789 56.1769 31.8236 56.3314 31.8236C56.8232 31.8167 57.3008 31.8167 57.7785 31.8167Z" fill="#2E353F"/>
<path d="M174.369 35.6501C172.774 35.7402 171.65 34.4856 171.432 33.2101C171.264 32.2119 171.313 31.2484 171.826 30.3611C172.423 29.3214 173.308 28.9471 174.488 28.9679C176.314 28.9956 177.242 30.4513 177.354 32.0456C177.396 32.6486 177.305 33.2448 177.087 33.8132C176.609 35.0401 175.703 35.6501 174.369 35.6501ZM172.577 32.1911C172.577 33.0923 172.704 33.5844 173.041 34.035C173.694 34.9084 175.015 34.8945 175.64 34.0073C176.314 33.0507 176.3 32.0109 175.879 31.0127C175.254 29.5432 173.624 29.7789 173.041 30.5968C172.683 31.1028 172.514 31.6713 172.577 32.1911Z" fill="#2E353F"/>
<path d="M153.126 35.657C152.514 35.6501 151.91 35.6154 151.369 35.2757C150.829 34.9361 150.548 34.4439 150.456 33.827C150.421 33.5567 150.505 33.4042 150.807 33.425C150.962 33.4388 151.109 33.425 151.264 33.4319C151.39 33.4319 151.496 33.4735 151.538 33.6052C151.664 34.0003 151.812 34.3677 152.255 34.5271C152.788 34.7143 153.329 34.7281 153.877 34.5895C154.32 34.4786 154.573 34.1667 154.601 33.7646C154.622 33.4111 154.474 33.2031 154.137 33.0853C153.463 32.8496 152.76 32.7249 152.072 32.5446C151.018 32.2604 150.618 31.7544 150.66 30.7077C150.695 29.8967 151.341 29.2035 152.233 29.0441C153.119 28.8916 153.983 28.8985 154.762 29.4323C155.205 29.7373 155.409 30.174 155.514 30.68C155.563 30.9226 155.458 31.0266 155.212 31.0127C155.071 31.0058 154.931 31.0058 154.79 31.0127C154.601 31.0196 154.488 30.9503 154.432 30.7632C154.306 30.3473 153.99 30.1116 153.582 30.0215C153.069 29.9105 152.564 29.8898 152.086 30.1809C151.826 30.3403 151.735 30.5829 151.749 30.8602C151.763 31.1583 151.981 31.3038 152.233 31.3939C152.774 31.588 153.329 31.7128 153.891 31.8307C154.25 31.9069 154.587 32.0386 154.917 32.1772C156.062 32.6625 155.928 34.4093 155.191 35.0193C154.622 35.4768 154.123 35.657 153.126 35.657Z" fill="#2E353F"/>
<path d="M71.4489 35.6569C70.7394 35.6569 70.1352 35.5876 69.5873 35.248C69.0113 34.8875 68.7865 34.3399 68.7162 33.7022C68.7092 33.6398 68.7162 33.5566 68.7584 33.5081C68.8778 33.3417 69.7278 33.3972 69.791 33.5843C69.9315 33.9933 70.1001 34.3746 70.5357 34.534C71.0555 34.7211 71.5894 34.735 72.1233 34.5964C72.5728 34.4785 72.8257 34.1874 72.8609 33.7784C72.889 33.4249 72.7414 33.21 72.4113 33.0852C71.7158 32.8357 70.9852 32.7248 70.2757 32.5307C68.8919 32.1425 68.4353 30.7215 69.3625 29.654C69.503 29.4946 69.6716 29.3629 69.8613 29.2797C70.9571 28.8153 72.039 28.7945 73.0646 29.4807C73.5001 29.7719 73.7249 30.2155 73.7811 30.7354C73.8022 30.9225 73.746 31.0265 73.5423 31.0126C73.3666 31.0057 73.191 31.0057 73.0154 31.0126C72.8328 31.0196 72.7414 30.9433 72.6852 30.77C72.5377 30.2987 72.1795 30.0699 71.7088 29.9867C71.3365 29.9244 70.9642 29.9382 70.5989 30.0422C70.2266 30.1531 69.9877 30.4442 69.9947 30.8047C70.0018 31.1651 70.2476 31.3176 70.5567 31.4216C71.2311 31.6504 71.9406 31.7474 72.622 31.9623C73.7108 32.302 74.0691 32.801 73.9918 33.9032C73.9356 34.7142 73.2191 35.4351 72.3199 35.5807C71.9968 35.6361 71.6877 35.6708 71.4489 35.6569Z" fill="#2E353F"/>
<path d="M140.98 34.7837C140.636 35.0956 140.348 35.4006 139.919 35.5462C138.943 35.8719 137.748 35.5808 137.25 34.8599C136.997 34.4925 136.912 34.0697 136.912 33.6399C136.898 32.2674 136.912 30.8949 136.898 29.5155C136.898 29.2313 136.997 29.1273 137.285 29.1273C138.043 29.1204 138.029 29.1135 138.043 29.8413C138.065 31.0405 137.98 32.2397 138.093 33.4389C138.17 34.243 138.381 34.5064 138.978 34.6312C139.687 34.7767 140.312 34.5133 140.657 33.9172C140.881 33.529 140.973 33.0992 140.98 32.6556C140.987 31.6366 140.98 30.6246 140.987 29.6056C140.987 29.1481 141.001 29.1343 141.45 29.1273C142.125 29.1204 142.125 29.1204 142.125 29.7789C142.125 31.5326 142.125 33.2864 142.125 35.0471C142.125 35.1996 142.195 35.4144 141.991 35.4699C141.71 35.5392 141.394 35.5947 141.141 35.4352C140.938 35.3174 141.092 35.0401 140.98 34.7837Z" fill="#2E353F"/>
<path d="M190.006 32.2674C190.006 32.9259 190.076 33.5013 190.406 34.0212C190.933 34.846 192.219 34.9015 192.795 34.1182C192.942 33.9241 193.09 33.73 193.139 33.4805C193.188 33.2309 193.329 33.1478 193.581 33.1478C194.347 33.1339 194.417 33.224 194.157 33.9518C193.722 35.1718 192.851 35.6987 191.39 35.6501C190.294 35.6085 189.31 34.8391 189.008 33.7647C188.678 32.5794 188.664 31.4148 189.268 30.2988C190.224 28.5381 192.893 28.6144 193.869 29.8621C194.171 30.2503 194.242 30.7008 194.312 31.1583C194.319 31.1999 194.305 31.2554 194.277 31.2831C194.136 31.4564 193.272 31.3316 193.181 31.1168C193.111 30.9573 193.069 30.784 192.984 30.6385C192.429 29.6888 191.003 29.7235 190.385 30.6939C190.076 31.1999 189.985 31.7545 190.006 32.2674Z" fill="#2E353F"/>
<path d="M78.3261 32.3435C78.298 31.6919 78.4245 31.1166 78.6703 30.5759C79.2534 29.2866 80.4265 28.7529 82.0282 29.044C82.9976 29.2173 83.7703 30.0838 83.8265 31.0404C83.8406 31.2691 83.7773 31.3661 83.5455 31.3523C83.4612 31.3454 83.384 31.3454 83.2997 31.3523C82.9344 31.4008 82.7307 31.283 82.6393 30.8879C82.4988 30.3125 82.0422 30.0352 81.4521 29.9659C80.7778 29.8897 80.2228 30.1254 79.9137 30.7076C79.3517 31.7682 79.3869 32.8773 79.8786 33.9448C80.1385 34.5132 80.6935 34.7211 81.3187 34.6587C81.972 34.5894 82.4075 34.229 82.6253 33.612C82.6815 33.4595 82.6323 33.2239 82.8501 33.1823C83.124 33.1268 83.4121 33.1199 83.686 33.1892C83.8335 33.2239 83.8125 33.3694 83.7984 33.4803C83.5807 34.7974 82.6534 35.5529 81.4732 35.65C79.3798 35.8302 78.4315 34.2983 78.3261 32.6693C78.3191 32.5446 78.3261 32.4198 78.3261 32.3435Z" fill="#2E353F"/>
<path d="M123.081 34.0489C123.558 32.6487 124.022 31.2831 124.493 29.9245C124.795 29.058 124.795 29.065 125.729 29.1343C125.968 29.1481 126.01 29.2383 125.933 29.4462C125.202 31.3802 124.472 33.3141 123.741 35.255C123.671 35.4491 123.544 35.5185 123.341 35.5185C122.231 35.5046 122.491 35.6571 122.118 34.6866C121.493 33.0438 120.868 31.401 120.243 29.7651C120.236 29.7443 120.222 29.7235 120.215 29.7027C120.004 29.1481 120.004 29.1343 120.622 29.1481C121.444 29.162 121.31 29.0026 121.599 29.8621C122.041 31.1653 122.463 32.4685 122.898 33.7716C122.926 33.8548 122.94 33.9657 123.081 34.0489Z" fill="#2E353F"/>
<path d="M178.914 32.3506C178.914 31.6575 178.907 31.0683 178.921 30.4791C178.928 30.1949 178.815 30.077 178.527 30.0909C178.373 30.0978 178.155 30.1602 178.099 29.9592C178.028 29.7166 178 29.4462 178.12 29.2175C178.197 29.0719 178.394 29.1274 178.541 29.1274C178.815 29.1412 178.921 29.0303 178.914 28.76C178.9 28.4134 178.914 28.0668 178.914 27.7202C178.914 27.4984 178.991 27.3806 179.237 27.3806C180.241 27.3875 180.087 27.2904 180.101 28.1916C180.101 28.247 180.101 28.3094 180.101 28.3649C180.101 29.058 180.101 29.065 180.803 29.1274C181.007 29.1482 181.098 29.2313 181.091 29.4324C181.084 29.5363 181.084 29.6403 181.091 29.7443C181.112 29.9938 181 30.1047 180.747 30.0978C180.03 30.0701 180.108 30.1047 180.101 30.7771C180.101 31.8169 180.101 32.8567 180.101 33.8895C180.101 34.4371 180.213 34.5619 180.761 34.5965C180.944 34.6104 181.105 34.6451 181.077 34.8669C181.049 35.1026 181.246 35.4353 180.831 35.5254C180.473 35.6086 180.108 35.6224 179.757 35.5323C179.244 35.4006 179.047 35.1372 178.97 34.5619C178.864 33.7924 178.935 33.0161 178.914 32.3506Z" fill="#2E353F"/>
<path d="M103.468 32.3922C103.468 31.7684 103.454 31.1445 103.475 30.5206C103.482 30.2087 103.383 30.0701 103.053 30.0978C102.913 30.1117 102.709 30.1533 102.653 29.973C102.583 29.7304 102.569 29.467 102.667 29.2244C102.716 29.1066 102.871 29.1412 102.983 29.1343C103.461 29.1135 103.461 29.1135 103.461 28.6352C103.461 28.3233 103.468 28.0113 103.461 27.6994C103.461 27.4845 103.552 27.4013 103.777 27.3875C104.599 27.3459 104.599 27.339 104.599 28.1361C104.599 28.1916 104.599 28.254 104.599 28.3094C104.599 29.065 104.599 29.0719 105.343 29.1274C105.547 29.1412 105.645 29.2244 105.638 29.4254C105.638 29.5433 105.631 29.6542 105.638 29.772C105.652 30.0146 105.526 30.0909 105.301 30.0978C104.606 30.1255 104.606 30.1325 104.606 30.8256C104.606 31.8307 104.606 32.8359 104.606 33.841C104.606 34.3886 104.767 34.5619 105.322 34.5965C105.512 34.6104 105.659 34.6589 105.631 34.8738C105.603 35.0956 105.793 35.4214 105.414 35.5115C105.027 35.6086 104.634 35.6086 104.233 35.5115C103.826 35.4145 103.629 35.1441 103.538 34.7698C103.398 34.2014 103.489 33.6191 103.461 33.0438C103.461 32.8289 103.468 32.6071 103.468 32.3922Z" fill="#2E353F"/>
<path d="M44.8952 31.1375C44.8952 29.8482 44.9022 28.552 44.8882 27.2627C44.8882 26.9369 44.9936 26.8121 45.3307 26.826C46.2721 26.8537 46.1526 26.7289 46.1526 27.6439C46.1597 30.0908 46.1526 32.5378 46.1526 34.9847C46.1526 35.5115 46.1526 35.5115 45.6328 35.5115C44.8882 35.5115 44.8882 35.5115 44.8882 34.7837C44.8952 33.5637 44.8952 32.3506 44.8952 31.1375Z" fill="#2E353F"/>
<path d="M168.791 29.9245C168.911 29.7858 169.023 29.6403 169.149 29.5086C169.48 29.1689 169.887 28.9887 170.365 28.954C170.639 28.9332 170.8 29.0233 170.779 29.3214C170.779 29.3561 170.779 29.3907 170.779 29.4254C170.786 30.077 170.786 30.077 170.126 30.1948C169.325 30.3334 168.812 30.9573 168.798 31.8654C168.777 32.919 168.791 33.9657 168.791 35.0193C168.791 35.4976 168.777 35.5046 168.299 35.5046C167.604 35.5046 167.604 35.5046 167.604 34.8044C167.604 33.0715 167.604 31.3386 167.604 29.6056C167.604 29.1342 167.611 29.1273 168.103 29.1273C168.138 29.1273 168.173 29.1273 168.208 29.1273C168.721 29.1273 168.721 29.1273 168.728 29.6195C168.728 29.7096 168.728 29.7997 168.728 29.8898C168.742 29.9106 168.77 29.9175 168.791 29.9245Z" fill="#2E353F"/>
<path d="M134.019 31.1445C134.019 29.8482 134.026 28.5589 134.012 27.2627C134.004 26.93 134.124 26.8191 134.461 26.826C135.15 26.8399 135.15 26.826 135.15 27.5053C135.15 30.0007 135.15 32.4962 135.15 34.9847C135.15 35.1441 135.227 35.3867 134.988 35.4214C134.693 35.4699 134.377 35.5254 134.096 35.3729C133.976 35.3105 134.026 35.1372 134.026 35.0124C134.019 33.73 134.019 32.4338 134.019 31.1445Z" fill="#2E353F"/>
<path d="M86.2853 30.0979C86.4328 29.9038 86.5382 29.7582 86.6576 29.6196C87.0089 29.2106 87.4584 28.9888 88.0064 28.9749C88.2522 28.968 88.3787 29.0789 88.3717 29.3284C88.3717 29.4185 88.3717 29.5156 88.3717 29.6057C88.3717 30.1395 88.3717 30.1395 87.8378 30.1672C86.9808 30.2088 86.3837 30.8465 86.3556 31.7962C86.3275 32.8429 86.3485 33.8965 86.3345 34.9501C86.3345 35.1234 86.4188 35.373 86.201 35.4492C85.913 35.5462 85.6039 35.5463 85.3089 35.4353C85.1965 35.3938 85.2105 35.262 85.2105 35.1581C85.2105 33.2726 85.2105 31.3941 85.2105 29.5087C85.2105 29.2799 85.2948 29.1621 85.5407 29.1759C85.5758 29.1759 85.6109 29.1759 85.6461 29.1759C86.2713 29.169 86.2713 29.169 86.2783 29.7929C86.2642 29.883 86.2783 29.9592 86.2853 30.0979Z" fill="#2E353F"/>
<path d="M161.352 2.48171C161.352 2.94614 161.345 3.40363 161.352 3.86806C161.359 4.10374 161.253 4.20079 161.014 4.19385C160.438 4.18692 159.869 4.18692 159.293 4.19385C159.062 4.19385 158.949 4.1176 158.949 3.87499C158.956 2.92534 158.956 1.98262 158.949 1.03297C158.949 0.797285 159.048 0.70024 159.286 0.70024C159.862 0.707172 160.431 0.707172 161.007 0.70024C161.267 0.693308 161.359 0.811148 161.352 1.06069C161.345 1.53205 161.352 2.01035 161.352 2.48171Z" fill="#2E353F"/>
<path d="M115.403 34.8461C115.403 35.2828 115.367 35.7264 115.269 36.1493C115.171 36.5998 114.932 36.9603 114.468 37.1266C114.328 37.1752 114.152 37.3415 114.047 37.1197C113.955 36.9326 113.955 36.7038 114.201 36.586C114.517 36.4335 114.581 36.1354 114.623 35.8373C114.651 35.6294 114.581 35.4908 114.342 35.5046C114.047 35.5254 113.998 35.359 113.998 35.1164C114.019 33.9796 113.85 34.1391 115.002 34.1183C115.29 34.1113 115.417 34.2084 115.396 34.4995C115.396 34.6174 115.403 34.7352 115.403 34.8461Z" fill="#2E353F"/>
</svg>
