<svg width="245" height="253" viewBox="0 0 245 253" fill="none" xmlns="http://www.w3.org/2000/svg">
<path d="M0.892292 0.345215C82.0006 0.345215 163.096 0.345215 244.205 0.345215C244.205 0.685141 244.217 1.01248 244.217 1.3524C244.217 18.739 244.217 36.1382 244.217 53.5248C244.217 105.911 244.217 158.298 244.217 210.684C244.217 211.011 244.217 211.339 244.217 211.654C163.059 211.654 82.0133 211.654 0.917508 211.654C0.917508 211.326 0.917508 211.037 0.917508 210.747C0.917508 140.886 0.917508 71.0247 0.917508 1.16356C0.9049 0.886579 0.892292 0.622192 0.892292 0.345215ZM55.637 58.246C55.637 58.5356 55.637 58.8126 55.637 59.0769C55.637 74.1092 55.637 89.1541 55.637 104.186C55.637 105.055 55.637 105.055 56.4817 105.055C63.5171 105.055 70.5524 105.055 77.5878 105.055C79.6933 105.055 81.7863 104.879 83.8288 104.338C91.5576 102.285 96.8278 97.5768 99.2486 89.9095C100.686 85.3394 100.787 80.6686 99.9421 75.9851C99.2486 72.12 97.7356 68.5949 95.1258 65.6237C90.9398 60.8773 85.594 58.4223 79.3403 58.2712C71.6367 58.0823 63.9205 58.2082 56.2169 58.2082C56.053 58.2082 55.8891 58.2334 55.637 58.246ZM9.28933 58.246C9.27672 58.4978 9.25151 58.7244 9.25151 58.951C9.25151 74.0715 9.25151 89.2045 9.2389 104.325C9.2389 104.954 9.44063 105.08 10.0332 105.08C13.5887 105.055 17.1316 105.068 20.6871 105.068C21.5571 105.068 21.5571 105.068 21.5571 104.224C21.5571 98.6469 21.5697 93.0696 21.5445 87.4797C21.5445 86.8628 21.6832 86.6613 22.3388 86.6739C28.0503 86.6991 33.7618 86.6865 39.4859 86.6865C39.7128 86.6865 39.9398 86.7117 40.2172 86.7243C40.2172 87.0265 40.2172 87.2657 40.2172 87.5175C40.2172 93.1451 40.2298 98.7602 40.2046 104.388C40.2046 104.954 40.3685 105.093 40.9106 105.093C44.567 105.068 48.2234 105.08 51.8797 105.08C52.1067 105.08 52.321 105.055 52.548 105.043C52.548 89.4059 52.548 73.8323 52.548 58.2586C48.4251 58.2586 44.3526 58.2586 40.2172 58.2586C40.2172 63.8359 40.2172 69.388 40.2172 74.9528C33.9635 74.9528 27.7855 74.9528 21.5445 74.9528C21.5445 69.3629 21.5445 63.8359 21.5445 58.2712C17.4216 58.246 13.387 58.246 9.28933 58.246ZM135.346 130.839C135.573 132.778 135.661 134.729 136.039 136.631C137.514 144.159 141.877 149.371 149.152 151.852C156.389 154.319 163.702 154.244 170.863 151.499C176.461 149.359 180.319 145.38 182.223 139.652C183.95 134.44 184.039 129.14 182.765 123.839C181.315 117.771 177.76 113.314 172.061 110.632C168.644 109.034 165.025 108.341 161.281 108.165C157.171 107.976 153.149 108.366 149.24 109.713C144.209 111.451 140.301 114.548 137.893 119.357C136.102 122.971 135.485 126.836 135.346 130.839ZM133.026 122.794C132.812 120.629 132.244 118.652 131.198 116.827C129.193 113.327 126.066 111.224 122.334 109.978C116.345 107.989 110.218 107.888 104.128 109.273C96.9287 110.909 92.2385 115.467 89.8934 122.429C88.2291 127.377 88.103 132.438 89.1747 137.512C90.1581 142.183 92.4528 146.098 96.3235 148.994C100.169 151.864 104.594 153.211 109.297 153.665C114 154.118 118.703 153.702 123.381 153.237C126.344 152.947 129.306 152.594 132.269 152.33C132.875 152.28 133.026 152.103 133.026 151.512C133.001 144.121 133.013 136.744 133.013 129.354C133.013 129.127 132.988 128.913 132.988 128.661C126.281 128.661 119.636 128.661 112.966 128.661C112.966 131.481 112.966 134.264 112.966 137.109C115.576 137.109 118.148 137.109 120.758 137.109C120.758 139.539 120.771 141.881 120.746 144.235C120.746 144.386 120.544 144.65 120.393 144.688C117.177 145.406 113.937 145.809 110.659 145.217C107.129 144.575 104.531 142.699 103.044 139.388C102.212 137.55 101.846 135.598 101.707 133.596C101.505 130.562 101.606 127.553 102.539 124.632C103.46 121.749 105.137 119.508 108.087 118.463C110.394 117.645 112.79 117.582 115.173 117.985C117.808 118.438 119.8 119.798 120.67 122.467C120.796 122.857 121.061 122.832 121.351 122.832C125.032 122.832 128.701 122.832 132.383 122.832C132.572 122.832 132.749 122.807 133.026 122.794ZM59.8859 153.035C59.8859 147.697 59.8859 142.422 59.8859 137.096C61.1467 137.096 62.3319 137.122 63.5045 137.084C63.9836 137.071 64.2609 137.222 64.5383 137.613C68.0434 142.611 71.5737 147.596 75.0788 152.582C75.3057 152.897 75.52 153.073 75.9361 153.073C80.2229 153.06 84.5097 153.06 88.7965 153.06C88.973 153.06 89.1369 153.035 89.4016 153.01C85.3166 147.37 81.2946 141.818 77.2348 136.228C77.4743 136.165 77.6508 136.102 77.8399 136.064C80.5885 135.346 82.8328 133.886 84.4088 131.506C86.3252 128.586 87.107 125.363 86.7791 121.875C86.4009 117.809 84.6862 114.485 81.2063 112.206C78.0543 110.141 74.524 109.336 70.8046 109.323C63.3279 109.298 55.8513 109.311 48.362 109.311C48.1351 109.311 47.9082 109.311 47.6308 109.311C47.6308 123.915 47.6308 138.469 47.6308 153.035C51.7032 153.035 55.7252 153.035 59.8859 153.035ZM182.336 62.9924C181.139 62.451 179.991 61.8719 178.819 61.4061C175.011 59.8953 171.04 59.1021 166.967 58.6992C161.659 58.1705 156.49 58.7118 151.497 60.6381C145.71 62.8665 141.448 66.7316 139.191 72.5733C137.477 77.0427 137.023 81.6632 137.767 86.4095C139.103 95.0336 143.856 100.838 152.115 103.721C157.297 105.534 162.63 105.962 168.064 105.37C172.716 104.866 177.104 103.595 181.177 101.291C182.021 100.812 182.828 100.258 183.686 99.717C181.58 95.8519 179.525 92.1002 177.444 88.3106C177.281 88.4239 177.18 88.4869 177.079 88.5624C171.544 93.0318 165.315 94.2153 158.494 92.4527C155.153 91.5966 152.619 89.6955 151.459 86.3088C150.841 84.5211 150.715 82.6704 150.879 80.7819C151.257 76.388 153.439 73.2783 157.524 71.5913C160.676 70.2945 163.966 69.9798 167.345 70.4708C170.976 70.9995 174.355 72.1452 177.281 74.4366C177.52 74.6254 177.772 74.8143 178.075 75.0409C179.512 71.0247 180.912 67.0589 182.336 62.9924ZM44.1383 143.756C43.7727 143.756 43.4827 143.756 43.1927 143.756C36.2204 143.756 29.2481 143.756 22.2631 143.769C21.6958 143.769 21.5066 143.618 21.5066 143.039C21.5319 140.735 21.5193 138.418 21.5193 136.114C21.5193 135.913 21.5445 135.711 21.5697 135.422C28.5294 135.422 35.4513 135.422 42.3606 135.422C42.3606 132.564 42.3606 129.782 42.3606 126.949C35.4008 126.949 28.5042 126.949 21.5319 126.949C21.5319 126.659 21.5319 126.433 21.5319 126.206C21.5319 123.915 21.5571 121.636 21.5193 119.345C21.5066 118.728 21.7084 118.577 22.301 118.589C29.2985 118.614 36.296 118.602 43.2936 118.602C43.5583 118.602 43.8231 118.602 44.1257 118.602C44.1257 115.48 44.1257 112.433 44.1257 109.348C32.501 109.348 20.9267 109.348 9.31455 109.348C9.31455 123.94 9.31455 138.481 9.31455 153.023C20.9519 153.023 32.5388 153.023 44.1383 153.023C44.1383 149.938 44.1383 146.904 44.1383 143.756ZM115.324 70.3449C122.41 70.3449 129.407 70.3449 136.405 70.3449C136.405 66.2658 136.405 62.2622 136.405 58.246C125.158 58.246 113.975 58.246 102.766 58.246C102.766 73.8575 102.766 89.4311 102.766 105.068C103.044 105.068 103.271 105.068 103.498 105.068C107.179 105.068 110.848 105.055 114.53 105.08C115.185 105.08 115.324 104.879 115.324 104.262C115.299 99.1253 115.311 93.9761 115.311 88.8394C115.311 88.575 115.337 88.3106 115.362 87.9581C121.893 87.9581 128.373 87.9581 134.841 87.9581C134.841 84.0804 134.841 80.3035 134.841 76.451C134.539 76.451 134.299 76.451 134.047 76.451C128.096 76.451 122.158 76.451 116.207 76.451C116.043 76.451 115.854 76.5013 115.702 76.4384C115.551 76.3754 115.324 76.2118 115.324 76.0859C115.324 74.2226 115.324 72.3341 115.324 70.3449ZM173.397 196.269C173.675 196.193 173.876 196.143 174.078 196.092C176.234 195.476 177.482 193.612 177.243 191.359C176.991 188.941 175.541 187.481 173.158 187.405C170.472 187.305 167.787 187.317 165.101 187.28C164.988 187.28 164.862 187.317 164.723 187.343C164.723 192.681 164.723 197.968 164.723 203.281C165.769 203.281 166.778 203.281 167.837 203.281C167.837 201.065 167.837 198.9 167.837 196.747C169.489 196.445 170.447 196.785 171.33 198.082C172.401 199.655 173.41 201.279 174.456 202.878C174.57 203.055 174.772 203.306 174.935 203.306C176.083 203.344 177.218 203.332 178.541 203.332C176.852 200.826 175.881 198.069 173.397 196.269ZM81.5846 203.306C79.8699 200.839 78.899 198.044 76.4152 196.269C76.6926 196.193 76.8943 196.155 77.0961 196.092C79.2647 195.476 80.5003 193.612 80.2481 191.359C79.9707 188.891 78.5838 187.494 76.1757 187.393C73.5784 187.292 70.9685 187.317 68.3712 187.254C67.7912 187.242 67.6778 187.431 67.6778 187.972C67.703 192.857 67.6904 197.742 67.6904 202.639C67.6904 202.841 67.7156 203.042 67.7282 203.256C68.7999 203.256 69.8085 203.256 70.8928 203.256C70.8928 201.04 70.8928 198.862 70.8928 196.697C72.4563 196.508 73.6793 196.848 74.5114 198.233C75.457 199.794 76.4783 201.305 77.4743 202.828C77.6004 203.017 77.8147 203.269 78.0038 203.269C79.1386 203.319 80.2733 203.306 81.5846 203.306ZM48.6394 197.855C48.4251 197.515 48.299 197.339 48.1981 197.15C46.6599 194.531 45.1217 191.913 43.5709 189.294C43.1801 188.627 42.9027 187.733 42.3101 187.393C41.7175 187.053 40.7971 187.317 40.028 187.267C39.4607 187.229 39.322 187.431 39.322 187.972C39.3472 192.857 39.3346 197.742 39.3346 202.627C39.3346 202.828 39.3598 203.029 39.3724 203.256C40.3559 203.256 41.2889 203.256 42.2723 203.256C42.2723 199.844 42.2723 196.483 42.2723 192.958C42.474 193.272 42.5875 193.436 42.701 193.6C44.1887 196.13 45.6765 198.661 47.1643 201.179C47.5803 201.884 47.8703 202.815 48.5007 203.181C49.0933 203.533 50.0515 203.244 50.8459 203.306C51.4763 203.357 51.6023 203.118 51.6023 202.526C51.5771 197.918 51.5897 193.298 51.5897 188.69C51.5897 188.35 51.615 188.01 51.5771 187.682C51.5645 187.531 51.4132 187.292 51.3124 187.292C50.4424 187.267 49.5724 187.28 48.652 187.28C48.6394 190.817 48.6394 194.242 48.6394 197.855ZM134.375 203.306C134.388 203.08 134.413 202.954 134.413 202.828C134.413 197.842 134.413 192.844 134.413 187.859C134.413 187.771 134.438 187.67 134.4 187.607C134.299 187.481 134.173 187.292 134.047 187.292C133.215 187.267 132.383 187.28 131.475 187.28C131.475 190.792 131.475 194.242 131.475 197.679C131.248 197.515 131.122 197.326 131.009 197.125C129.47 194.506 127.932 191.887 126.381 189.269C126.003 188.627 125.738 187.733 125.158 187.418C124.566 187.078 123.645 187.33 122.876 187.267C122.284 187.217 122.132 187.431 122.145 188.01C122.17 192.869 122.158 197.742 122.158 202.601C122.158 202.828 122.183 203.042 122.195 203.256C123.204 203.256 124.137 203.256 125.121 203.256C125.121 199.844 125.121 196.483 125.121 192.945C125.297 193.235 125.385 193.386 125.461 193.524C127.277 196.609 129.092 199.706 130.933 202.778C131.059 202.992 131.286 203.269 131.488 203.281C132.433 203.332 133.379 203.306 134.375 203.306ZM207.641 203.306C207.641 197.905 207.641 192.618 207.641 187.33C206.67 187.33 205.762 187.33 204.766 187.33C204.766 190.78 204.766 194.179 204.766 197.578C204.514 197.427 204.388 197.238 204.287 197.049C202.472 193.965 200.656 190.868 198.828 187.783C198.714 187.582 198.5 187.317 198.324 187.305C197.403 187.254 196.495 187.28 195.55 187.28C195.55 192.655 195.55 197.943 195.55 203.256C196.521 203.256 197.441 203.256 198.437 203.256C198.437 201.531 198.437 199.857 198.437 198.182C198.437 196.508 198.437 194.821 198.437 193.146C198.664 193.31 198.778 193.486 198.878 193.663C200.669 196.697 202.446 199.731 204.249 202.765C204.376 202.979 204.602 203.269 204.792 203.281C205.737 203.332 206.67 203.306 207.641 203.306ZM23.5996 194.745C21.3175 194.745 19.1237 194.745 16.8921 194.745C16.8921 195.45 16.9299 196.105 16.8795 196.747C16.829 197.339 17.0434 197.515 17.6233 197.477C18.5311 197.44 19.4515 197.465 20.3467 197.465C20.5989 199.378 20.3845 199.744 18.695 200.398C18.405 200.512 18.1024 200.6 17.7998 200.675C15.9338 201.091 14.1183 200.373 13.2987 198.711C12.1892 196.495 12.1514 194.166 13.1979 191.913C13.9165 190.364 15.3413 189.785 16.9929 189.823C18.4933 189.86 19.5776 190.566 20.1702 191.988C20.2332 192.127 20.435 192.316 20.5358 192.303C21.4814 192.152 22.4144 191.95 23.3348 191.762C23.2466 190.087 21.9227 188.337 20.2584 187.619C18.9724 187.066 17.6233 186.94 16.249 187.015C13.4879 187.179 11.4327 188.463 10.1845 190.956C9.28933 192.744 9.10021 194.657 9.33977 196.596C9.62975 198.938 10.5123 201.028 12.5801 202.375C15.8708 204.528 20.5484 203.659 23.3348 201.342C23.4609 201.229 23.587 201.028 23.587 200.877C23.6122 198.85 23.5996 196.823 23.5996 194.745ZM235.556 190.062C235.556 189.294 235.518 188.614 235.568 187.947C235.619 187.368 235.379 187.254 234.849 187.254C231.546 187.28 228.255 187.292 224.952 187.254C224.284 187.242 224.158 187.456 224.158 188.073C224.183 192.895 224.17 197.717 224.17 202.551C224.17 202.778 224.196 203.004 224.208 203.269C228.104 203.269 231.962 203.269 235.883 203.269C235.883 202.564 235.846 201.896 235.896 201.229C235.934 200.7 235.745 200.549 235.228 200.562C232.857 200.587 230.474 200.574 228.104 200.574C227.865 200.574 227.625 200.549 227.398 200.524C227.398 199.089 227.398 197.742 227.398 196.294C229.945 196.294 232.454 196.294 234.963 196.294C234.963 195.324 234.963 194.468 234.963 193.524C232.403 193.524 229.894 193.524 227.398 193.524C227.398 192.341 227.398 191.245 227.398 190.075C230.096 190.062 232.782 190.062 235.556 190.062ZM136.001 198.069C136.014 200.549 137.54 202.627 139.809 203.281C141.436 203.747 143.087 203.735 144.726 203.306C146.87 202.74 148.282 201.078 148.408 199.038C148.559 196.558 147.538 194.922 145.243 194.053C144.462 193.751 143.642 193.549 142.848 193.285C141.978 192.995 141.07 192.769 140.25 192.378C139.38 191.963 139.292 190.943 139.973 190.339C141.461 189.03 144.172 189.772 144.739 191.636C144.789 191.799 144.978 192.026 145.105 192.026C146.038 192.013 146.983 191.963 147.904 191.913C147.992 189.923 146.87 188.173 145.029 187.481C143.175 186.789 141.272 186.763 139.418 187.405C137.754 187.985 136.733 189.218 136.544 190.968C136.342 192.819 137.061 194.33 138.7 195.249C139.57 195.727 140.553 196.004 141.499 196.332C142.432 196.659 143.402 196.86 144.298 197.238C145.268 197.641 145.571 198.673 144.966 199.542C144.676 199.97 144.209 200.386 143.743 200.549C142.066 201.128 139.683 200.977 139.078 198.182C139.015 197.88 138.914 197.754 138.586 197.792C137.754 197.918 136.897 197.981 136.001 198.069ZM37.1786 203.269C37.1786 202.35 37.1786 201.494 37.1786 200.562C36.9012 200.562 36.6491 200.562 36.4095 200.562C34.077 200.562 31.7445 200.549 29.412 200.574C28.8824 200.574 28.6555 200.461 28.6807 199.882C28.7185 198.925 28.7185 197.956 28.6807 196.986C28.6681 196.47 28.8194 196.294 29.3615 196.294C31.4167 196.319 33.4718 196.307 35.5395 196.307C35.7917 196.307 36.0313 196.281 36.296 196.269C36.296 195.337 36.296 194.468 36.296 193.537C36.0313 193.537 35.8043 193.537 35.5774 193.537C33.4718 193.537 31.3788 193.549 29.2733 193.524C29.0842 193.524 28.7311 193.348 28.7311 193.235C28.6933 192.202 28.7059 191.157 28.7059 190.062C29.0337 190.062 29.2607 190.062 29.4876 190.062C31.7823 190.062 34.0644 190.049 36.3591 190.075C36.8004 190.075 36.9643 189.936 36.939 189.495C36.9138 188.967 36.9012 188.45 36.939 187.922C36.9769 187.38 36.7499 187.254 36.2456 187.267C32.9044 187.292 29.5633 187.28 26.2347 187.28C26.033 187.28 25.8312 187.305 25.5917 187.317C25.5917 192.668 25.5917 197.956 25.5917 203.281C29.4624 203.269 33.2953 203.269 37.1786 203.269ZM57.0617 196.294C59.6464 196.294 62.1554 196.294 64.6518 196.294C64.6518 195.324 64.6518 194.456 64.6518 193.524C62.1176 193.524 59.6211 193.524 57.0995 193.524C57.0995 192.341 57.0995 191.22 57.0995 190.049C57.3769 190.049 57.6038 190.049 57.8308 190.049C60.1003 190.049 62.3697 190.037 64.6392 190.062C65.1813 190.075 65.3452 189.886 65.3074 189.382C65.2696 188.904 65.2696 188.413 65.3074 187.934C65.3452 187.418 65.1687 187.254 64.6392 187.254C61.298 187.28 57.9569 187.28 54.6157 187.254C54.0736 187.254 53.897 187.38 53.9096 187.947C53.9349 192.857 53.9223 197.767 53.9223 202.664C53.9223 202.866 53.9475 203.067 53.9601 203.244C57.8686 203.244 61.7015 203.244 65.5344 203.244C65.5344 202.324 65.5344 201.456 65.5344 200.549C65.2318 200.549 64.9796 200.549 64.7275 200.549C62.3697 200.549 60.0246 200.549 57.6669 200.549C57.4147 200.549 57.0617 200.65 57.0617 200.209C57.0617 198.95 57.0617 197.679 57.0617 196.294ZM153.703 187.267C152.72 187.267 151.837 187.28 150.955 187.267C150.602 187.267 150.526 187.431 150.526 187.733C150.564 191.359 150.564 194.985 150.665 198.623C150.715 200.612 151.585 202.186 153.476 203.042C155.09 203.76 156.805 203.747 158.494 203.483C160.84 203.105 162.365 201.733 162.516 199.391C162.756 195.488 162.706 191.56 162.756 187.632C162.756 187.519 162.592 187.305 162.504 187.305C161.546 187.28 160.587 187.292 159.604 187.292C159.604 187.632 159.604 187.859 159.604 188.085C159.604 190.729 159.617 193.373 159.604 196.017C159.604 196.936 159.566 197.868 159.478 198.774C159.377 199.718 158.835 200.386 157.914 200.612C156.074 201.078 153.842 200.65 153.766 197.855C153.766 197.628 153.741 197.389 153.741 197.163C153.741 194.141 153.729 191.119 153.729 188.098C153.703 187.859 153.703 187.607 153.703 187.267ZM194.314 203.306C194.239 203.055 194.201 202.891 194.15 202.74C192.234 197.754 190.317 192.769 188.414 187.783C188.25 187.368 188.035 187.254 187.632 187.267C186.964 187.292 186.283 187.305 185.615 187.267C185.098 187.229 184.845 187.405 184.656 187.909C183.005 192.416 181.328 196.898 179.651 201.405C179.424 202.01 179.21 202.614 178.957 203.319C179.941 203.319 180.836 203.306 181.731 203.332C182.122 203.344 182.336 203.231 182.45 202.828C182.727 201.934 183.08 201.053 183.37 200.159C183.484 199.806 183.648 199.668 184.039 199.668C185.741 199.693 187.443 199.693 189.145 199.668C189.511 199.668 189.674 199.794 189.788 200.121C190.116 201.053 190.431 201.985 190.809 202.891C190.885 203.067 191.137 203.294 191.313 203.306C192.284 203.332 193.255 203.306 194.314 203.306ZM97.3826 203.306C96.9161 202.098 96.5 201.003 96.084 199.907C94.5332 195.878 92.9824 191.85 91.4568 187.821C91.2929 187.405 91.0911 187.229 90.6372 187.254C89.9438 187.292 89.2503 187.292 88.5569 187.254C88.0778 187.229 87.8634 187.405 87.6995 187.859C85.884 192.794 84.0432 197.717 82.215 202.639C82.1393 202.828 82.0889 203.029 82.0006 203.306C82.9967 203.306 83.8919 203.281 84.7871 203.319C85.2031 203.332 85.3796 203.168 85.4931 202.79C85.7705 201.909 86.1109 201.053 86.3883 200.172C86.5018 199.806 86.6783 199.643 87.0943 199.643C88.7712 199.668 90.4607 199.668 92.1376 199.643C92.5159 199.643 92.705 199.744 92.8184 200.121C93.121 201.04 93.4489 201.947 93.8019 202.841C93.8775 203.029 94.1171 203.269 94.281 203.281C95.2897 203.332 96.2857 203.306 97.3826 203.306ZM219.896 197.377C219.682 197.956 219.543 198.447 219.316 198.887C218.761 199.995 217.917 200.713 216.618 200.738C214.878 200.776 213.504 199.832 213.126 198.094C212.861 196.898 212.81 195.652 212.823 194.418C212.836 193.6 213.025 192.744 213.315 191.976C213.844 190.553 215.13 189.785 216.618 189.823C218.068 189.86 219.089 190.641 219.644 192.139C219.682 192.253 219.757 192.353 219.821 192.479C220.829 192.227 221.813 191.976 222.847 191.724C222.493 190.427 221.951 189.344 221.006 188.488C218.358 186.084 212.067 186.197 210.15 191.485C209.482 193.31 209.394 195.199 209.621 197.125C210.049 200.688 212.735 204.012 217.438 203.546C220.161 203.281 222.519 201.065 222.809 198.321C221.863 198.006 220.892 197.691 219.896 197.377ZM101.77 187.405C100.913 187.405 100.131 187.443 99.3621 187.393C98.7569 187.355 98.5804 187.544 98.5804 188.161C98.6056 192.97 98.593 197.767 98.593 202.576C98.593 202.803 98.6182 203.029 98.6308 203.269C102.249 203.269 105.805 203.269 109.398 203.269C109.398 202.362 109.398 201.494 109.398 200.549C106.839 200.549 104.33 200.549 101.77 200.549C101.77 196.155 101.77 191.837 101.77 187.405ZM119.245 203.269C119.245 197.931 119.245 192.63 119.245 187.267C118.438 187.267 117.682 187.305 116.938 187.254C116.295 187.204 116.118 187.405 116.118 188.048C116.144 192.882 116.131 197.729 116.131 202.564C116.131 202.79 116.156 203.017 116.169 203.256C117.228 203.269 118.237 203.269 119.245 203.269Z" fill="#2E3540"/>
<path d="M0.891925 0.345215C0.891925 0.622192 0.904533 0.886579 0.904533 1.16356C0.904533 71.0247 0.904533 140.886 0.904533 210.747C0.904533 211.037 0.904533 211.326 0.904533 211.654C82.0003 211.654 163.046 211.654 244.204 211.654C244.204 211.326 244.204 211.011 244.204 210.684C244.204 158.298 244.204 105.911 244.204 53.5248C244.204 36.1382 244.204 18.739 244.204 1.3524C244.204 1.01248 244.204 0.685141 244.192 0.345215C244.23 0.370395 244.305 0.382984 244.318 0.408164C244.33 0.571832 244.318 0.748091 244.318 0.911759C244.318 84.7729 244.318 168.634 244.318 252.495C163.134 252.495 81.9498 252.495 0.753235 252.495C0.765843 168.634 0.765843 84.7729 0.765843 0.911759C0.765843 0.722911 0.8541 0.534063 0.891925 0.345215ZM13.954 235.499C13.6262 235.499 13.4244 235.499 13.2101 235.499C11.218 235.499 9.21332 235.474 7.22123 235.511C6.59082 235.524 6.45213 235.322 6.46474 234.731C6.50256 232.679 6.48995 230.626 6.46474 228.562C6.46474 228.348 6.27561 227.97 6.16214 227.957C5.06523 227.907 3.95571 227.932 2.83358 227.932C2.83358 234.34 2.83358 240.673 2.83358 247.018C4.05658 247.018 5.22913 247.018 6.47734 247.018C6.47734 246.716 6.47734 246.477 6.47734 246.225C6.47734 243.934 6.48995 241.655 6.46474 239.364C6.46474 238.822 6.59082 238.634 7.17079 238.646C9.1881 238.684 11.2054 238.684 13.2227 238.646C13.7901 238.634 13.9792 238.785 13.9792 239.376C13.954 241.68 13.9666 243.984 13.9666 246.301C13.9666 246.54 14.0044 246.779 14.017 247.031C15.2526 247.031 16.4252 247.031 17.6104 247.031C17.6104 240.661 17.6104 234.315 17.6104 227.932C16.5765 227.932 15.5931 227.957 14.6096 227.92C14.1179 227.907 13.954 228.058 13.954 228.562C13.9792 230.538 13.9666 232.502 13.9666 234.479C13.954 234.781 13.954 235.096 13.954 235.499ZM53.4176 233.258C53.4176 233.585 53.4176 233.849 53.4176 234.114C53.4176 239.905 53.4176 245.684 53.4176 251.475C53.4176 251.664 53.3923 251.853 53.4428 252.042C53.468 252.155 53.5941 252.344 53.6697 252.344C54.754 252.369 55.8257 252.357 56.9857 252.357C56.9857 250.015 56.9857 247.774 56.9857 245.432C57.4396 245.835 57.7674 246.188 58.1582 246.452C58.5617 246.729 59.0156 247.006 59.4821 247.157C61.8776 247.938 64.5506 246.716 65.6853 244.249C66.8705 241.668 66.9587 238.961 65.8744 236.367C64.1219 232.162 59.1795 231.848 56.9478 234.945C56.91 234.995 56.8344 235.02 56.6831 235.108C56.6831 234.441 56.6831 233.862 56.6831 233.258C55.5988 233.258 54.5775 233.258 53.4176 233.258ZM127.428 233.27C127.428 233.572 127.428 233.812 127.428 234.063C127.428 239.893 127.428 245.722 127.428 251.551C127.428 251.714 127.402 251.891 127.44 252.054C127.465 252.168 127.591 252.357 127.667 252.357C128.751 252.382 129.823 252.369 130.983 252.369C130.983 250.027 130.983 247.774 130.983 245.445C131.424 245.835 131.765 246.2 132.156 246.465C132.559 246.741 133.013 247.018 133.479 247.17C135.85 247.938 138.523 246.754 139.657 244.324C140.868 241.718 140.969 238.961 139.847 236.33C138.069 232.175 133.164 231.885 130.945 234.957C130.907 235.008 130.832 235.033 130.68 235.134C130.68 234.466 130.68 233.887 130.68 233.27C129.609 233.27 128.587 233.27 127.428 233.27ZM232.025 227.97C232.025 234.34 232.025 240.673 232.025 247.031C233.185 247.031 234.294 247.031 235.492 247.031C235.492 246.779 235.492 246.553 235.492 246.326C235.492 244.161 235.454 242.008 235.517 239.842C235.543 238.936 235.706 238.004 235.996 237.148C236.387 236.015 237.598 235.511 238.972 235.713C240.006 235.864 240.472 236.418 240.636 237.752C240.687 238.13 240.687 238.508 240.687 238.885C240.699 241.366 240.699 243.833 240.712 246.313C240.712 246.553 240.712 246.792 240.712 247.044C241.922 247.044 243.032 247.044 244.154 247.044C244.179 246.905 244.204 246.817 244.204 246.716C244.192 243.506 244.23 240.295 244.129 237.085C244.066 234.92 242.855 233.472 240.964 233.069C239.085 232.666 237.421 233.081 236.034 234.454C235.883 234.605 235.732 234.743 235.442 234.995C235.442 232.54 235.442 230.287 235.442 227.995C234.307 227.97 233.197 227.97 232.025 227.97ZM147.033 237.992C146.983 237.966 146.92 237.941 146.869 237.916C146.869 234.617 146.869 231.306 146.869 227.983C145.672 227.983 144.537 227.983 143.427 227.983C143.427 234.366 143.427 240.698 143.427 247.006C144.6 247.006 145.722 247.006 146.882 247.006C146.882 245.697 146.882 244.438 146.882 243.179C146.882 242.977 146.869 242.713 146.983 242.574C147.474 241.983 148.004 241.429 148.571 240.812C148.735 241.089 148.849 241.29 148.962 241.479C149.895 243.191 150.828 244.903 151.774 246.603C151.875 246.779 152.076 247.018 152.228 247.031C153.375 247.069 154.51 247.056 155.745 247.056C155.594 246.754 155.493 246.553 155.38 246.364C153.955 243.821 152.543 241.277 151.106 238.734C150.904 238.382 150.917 238.168 151.194 237.866C152.392 236.581 153.577 235.26 154.762 233.963C154.951 233.749 155.14 233.547 155.443 233.22C154.926 233.22 154.548 233.22 154.182 233.22C153.173 233.233 152.026 232.943 151.194 233.321C150.337 233.724 149.794 234.781 149.126 235.549C148.407 236.38 147.714 237.186 147.033 237.992ZM98.0126 236.808C98.9456 236.984 99.8913 237.186 100.837 237.337C100.95 237.362 101.165 237.198 101.24 237.072C102.022 235.7 103.964 235.197 105.313 236.04C105.981 236.456 105.968 237.123 105.943 237.777C105.931 238.344 105.363 238.206 105.035 238.369C104.821 238.483 104.556 238.495 104.304 238.558C102.842 238.936 101.354 239.213 99.9417 239.716C98.2144 240.333 97.4705 241.781 97.5966 243.795C97.6974 245.382 98.807 246.729 100.433 247.17C102.224 247.661 103.888 247.358 105.376 246.25C105.641 246.049 105.893 245.848 106.221 245.583C106.347 246.011 106.435 246.364 106.574 246.704C106.637 246.842 106.801 247.044 106.927 247.044C107.96 247.069 109.007 247.056 109.978 247.056C109.776 246.074 109.511 245.155 109.423 244.236C109.322 243.279 109.385 242.31 109.373 241.34C109.347 239.729 109.373 238.117 109.272 236.506C109.158 234.68 108.301 233.673 106.523 233.22C104.808 232.779 103.069 232.754 101.354 233.17C99.5635 233.623 98.2522 235.071 98.0126 236.808ZM208.246 236.795C209.229 236.984 210.112 237.173 211.007 237.312C211.171 237.337 211.448 237.198 211.524 237.06C212.306 235.7 214.159 235.197 215.533 236.002C216.239 236.418 216.252 237.085 216.227 237.765C216.202 238.344 215.647 238.193 215.319 238.357C215.105 238.47 214.84 238.483 214.588 238.545C213.125 238.923 211.637 239.2 210.225 239.704C208.523 240.321 207.742 241.794 207.868 243.72C207.981 245.394 209.053 246.716 210.704 247.17C212.646 247.698 214.399 247.295 215.949 246.024C216.113 245.885 216.29 245.759 216.504 245.583C216.643 246.024 216.731 246.376 216.87 246.704C216.933 246.842 217.097 247.044 217.223 247.044C218.257 247.069 219.303 247.056 220.438 247.056C219.543 245.231 219.681 243.38 219.669 241.542C219.656 239.867 219.656 238.193 219.581 236.519C219.492 234.806 218.648 233.724 217.009 233.27C215.143 232.754 213.226 232.716 211.36 233.258C209.62 233.774 208.738 235.071 208.246 236.795ZM33.2697 247.069C32.3367 245.18 32.5132 243.254 32.5006 241.353C32.5006 240.006 32.5384 238.671 32.488 237.324C32.3997 234.819 31.5424 233.635 29.462 233.157C28.0121 232.83 26.5369 232.779 25.0744 233.031C22.8554 233.409 21.3676 234.844 21.1028 236.795C22.0232 236.972 22.9436 237.161 23.864 237.312C24.0027 237.337 24.2423 237.186 24.3179 237.047C25.0996 235.675 27.0539 235.171 28.3903 236.028C29.0586 236.443 29.046 237.11 29.0208 237.765C28.9955 238.331 28.4408 238.193 28.113 238.357C27.8986 238.47 27.6339 238.483 27.3817 238.545C25.9444 238.911 24.4692 239.188 23.0697 239.679C21.3046 240.308 20.5481 241.743 20.6741 243.795C20.775 245.382 21.8971 246.729 23.5236 247.17C25.3139 247.661 26.9782 247.358 28.466 246.238C28.7308 246.036 28.9829 245.822 29.2981 245.571C29.4242 245.986 29.4999 246.364 29.6638 246.691C29.7394 246.855 29.9664 247.031 30.1429 247.044C31.1515 247.081 32.135 247.069 33.2697 247.069ZM112.512 236.808C113.458 236.984 114.365 237.173 115.273 237.324C115.412 237.349 115.664 237.211 115.74 237.085C116.547 235.713 118.249 235.222 119.686 235.965C120.455 236.355 120.468 237.047 120.455 237.752C120.443 238.357 119.85 238.218 119.51 238.382C119.308 238.483 119.068 238.495 118.841 238.558C117.379 238.936 115.891 239.213 114.479 239.716C112.726 240.346 111.97 241.819 112.109 243.846C112.222 245.42 113.357 246.754 114.983 247.195C116.774 247.673 118.425 247.358 119.926 246.25C120.19 246.049 120.443 245.848 120.745 245.596C120.871 246.011 120.972 246.376 121.111 246.729C121.161 246.855 121.3 247.056 121.401 247.056C122.46 247.081 123.519 247.069 124.679 247.069C124.011 245.671 123.897 244.286 123.91 242.876C123.922 241.026 123.948 239.188 123.91 237.337C123.859 234.68 122.901 233.472 120.329 233.094C119.081 232.905 117.77 232.905 116.509 233.069C114.29 233.358 112.916 234.718 112.512 236.808ZM193.822 236.821C194.743 236.997 195.663 237.186 196.583 237.337C196.722 237.362 196.949 237.186 197.025 237.047C197.768 235.688 199.798 235.197 201.097 236.065C201.74 236.493 201.803 237.173 201.677 237.803C201.627 238.042 201.097 238.218 200.769 238.382C200.568 238.483 200.328 238.495 200.101 238.558C198.638 238.936 197.151 239.213 195.726 239.716C194.074 240.295 193.204 241.806 193.318 243.531C193.431 245.394 194.478 246.729 196.23 247.207C198.147 247.723 199.887 247.321 201.425 246.074C201.589 245.936 201.765 245.81 201.992 245.634C202.131 246.049 202.207 246.402 202.345 246.716C202.408 246.867 202.572 247.069 202.686 247.069C203.72 247.094 204.766 247.081 205.901 247.081C204.905 244.916 205.157 242.725 205.132 240.547C205.119 239.225 205.132 237.903 205.069 236.581C204.98 234.819 204.11 233.724 202.408 233.258C200.656 232.779 198.878 232.742 197.113 233.182C195.323 233.635 193.91 235.209 193.822 236.821ZM68.9886 236.808C69.909 236.984 70.7916 237.173 71.6742 237.312C71.8381 237.337 72.1281 237.161 72.2163 237.01C72.9476 235.662 75.1288 235.184 76.3644 236.116C76.9444 236.556 76.9822 237.224 76.8814 237.828C76.8435 238.054 76.3266 238.218 76.0114 238.369C75.8097 238.47 75.5701 238.495 75.3432 238.545C73.9058 238.911 72.4307 239.188 71.0312 239.666C69.3038 240.258 68.4087 241.768 68.5221 243.531C68.6356 245.407 69.7073 246.741 71.4977 247.207C73.4015 247.698 75.1036 247.295 76.6292 246.049C76.7931 245.911 76.9696 245.785 77.1966 245.608C77.3353 246.024 77.4235 246.364 77.5622 246.691C77.6252 246.842 77.7765 247.044 77.9026 247.044C78.9365 247.069 79.983 247.056 81.1051 247.056C80.1469 244.853 80.3738 242.625 80.3612 240.409C80.3486 239.137 80.3612 237.853 80.2982 236.581C80.2099 234.794 79.3273 233.698 77.6 233.233C75.8727 232.767 74.1076 232.742 72.3676 233.157C70.5395 233.61 69.1904 235.096 68.9886 236.808ZM165.895 242.738C164.924 244.538 164.042 245.029 162.642 244.576C161.318 244.161 160.448 242.713 160.65 241.164C163.588 241.164 166.525 241.164 169.539 241.164C169.551 239.54 169.413 238.029 168.82 236.594C167.837 234.177 165.971 232.993 163.411 232.905C160.927 232.817 159.061 233.875 157.914 236.065C156.729 238.331 156.678 240.749 157.397 243.153C158.053 245.382 159.541 246.842 161.886 247.232C162.806 247.384 163.777 247.384 164.697 247.283C166.904 247.069 168.719 245.457 169.287 243.317C168.139 243.128 167.005 242.927 165.895 242.738ZM190.594 236.531C190.128 234.957 189.371 233.95 188.136 233.497C185.892 232.653 183.61 232.603 181.378 233.522C179.802 234.177 178.995 235.448 179.02 237.186C179.033 238.898 179.877 240.031 181.428 240.673C181.832 240.849 182.248 241.013 182.664 241.126C183.975 241.492 185.299 241.819 186.61 242.184C187.064 242.31 187.48 242.524 187.531 243.09C187.581 243.657 187.354 244.06 186.888 244.362C185.312 245.407 182.903 244.715 182.147 243.002C182.084 242.864 181.895 242.675 181.781 242.688C180.71 242.826 179.638 243.002 178.528 243.166C179.008 244.941 180.016 246.15 181.643 246.804C183.332 247.484 185.072 247.535 186.837 247.22C188.085 246.993 189.17 246.465 190.065 245.52C191.502 243.997 191.742 240.572 188.842 239.364C188.048 239.036 187.228 238.772 186.409 238.533C185.312 238.206 184.189 237.929 183.08 237.589C182.651 237.463 182.273 237.186 182.273 236.657C182.286 236.103 182.664 235.813 183.13 235.7C183.66 235.574 184.202 235.499 184.744 235.486C185.816 235.474 186.724 235.801 187.215 236.871C187.266 236.984 187.468 237.11 187.581 237.085C188.577 236.934 189.561 236.733 190.594 236.531ZM229.402 244.085C229.138 244.161 228.948 244.236 228.747 244.286C227.511 244.626 227.032 244.286 227.032 243.027C227.019 240.887 227.019 238.747 227.007 236.607C227.007 236.443 227.045 236.292 227.07 236.065C227.877 236.065 228.633 236.065 229.377 236.065C229.377 235.083 229.377 234.177 229.377 233.207C228.583 233.207 227.826 233.207 226.982 233.207C226.982 231.571 226.982 229.997 226.982 228.31C225.897 228.965 224.926 229.556 223.943 230.11C223.565 230.324 223.413 230.576 223.426 231.004C223.464 231.722 223.439 232.452 223.439 233.245C222.821 233.245 222.329 233.245 221.837 233.245C221.837 234.227 221.837 235.146 221.837 236.103C222.38 236.103 222.884 236.103 223.439 236.103C223.439 236.405 223.439 236.657 223.439 236.896C223.464 239.389 223.464 241.882 223.54 244.387C223.59 246.011 224.485 247.056 225.897 247.295C227.019 247.484 228.104 247.358 229.201 247.056C229.617 246.943 229.718 246.716 229.667 246.326C229.579 245.608 229.503 244.878 229.402 244.085ZM84.0302 227.97C84.0302 234.378 84.0302 240.698 84.0302 247.031C85.1901 247.031 86.3123 247.031 87.4344 247.031C87.4344 240.648 87.4344 234.315 87.4344 227.97C86.2744 227.97 85.1649 227.97 84.0302 227.97ZM35.9805 247.031C37.1656 247.031 38.2751 247.031 39.4603 247.031C39.4603 246.741 39.4603 246.49 39.4603 246.25C39.4981 244.047 39.4981 241.844 39.5864 239.653C39.6242 238.873 39.8007 238.08 40.0655 237.337C40.3807 236.456 41.2885 236.015 42.2089 236.204C42.6502 236.292 43.0789 236.481 43.5706 236.644C43.911 235.65 44.2766 234.643 44.6297 233.61C43.8606 233.094 43.0663 232.893 42.2089 232.918C40.759 232.943 40.0529 234.013 39.3342 235.083C39.2838 235.058 39.2334 235.033 39.1829 235.008C39.1829 234.441 39.1829 233.875 39.1829 233.296C38.0608 233.296 37.0269 233.296 35.9679 233.296C35.9805 237.878 35.9805 242.423 35.9805 247.031Z" fill="white"/>
<path d="M55.637 58.2461C55.8891 58.2209 56.053 58.2083 56.217 58.2083C63.9205 58.2083 71.6367 58.0824 79.3403 58.2713C85.594 58.4224 90.9525 60.89 95.1258 65.6238C97.7483 68.595 99.2612 72.1201 99.9421 75.9852C100.774 80.6687 100.686 85.3521 99.2486 89.9096C96.8279 97.5895 91.5576 102.285 83.8288 104.338C81.7863 104.879 79.706 105.055 77.5878 105.055C70.5524 105.043 63.5171 105.055 56.4817 105.055C55.637 105.055 55.637 105.055 55.637 104.187C55.637 89.1542 55.637 74.1093 55.637 59.077C55.637 58.8127 55.637 58.5483 55.637 58.2461ZM68.7873 93.3592C69.0773 93.3592 69.3168 93.3592 69.5438 93.3592C72.2293 93.3592 74.9275 93.2963 77.613 93.3718C79.9077 93.4348 81.8368 92.6165 83.5641 91.2064C86.2244 89.0283 87.5609 86.1327 87.8256 82.746C88.0904 79.3593 87.46 76.1741 85.304 73.4421C83.3371 70.9367 80.8029 69.5015 77.4995 69.5896C74.8392 69.6525 72.1663 69.6022 69.4934 69.6022C69.2664 69.6022 69.0521 69.6022 68.7999 69.6022C68.7873 77.559 68.7873 85.415 68.7873 93.3592Z" fill="white"/>
<path d="M9.28934 58.246C13.387 58.246 17.4216 58.246 21.5319 58.246C21.5319 63.8233 21.5319 69.3503 21.5319 74.9276C27.7729 74.9276 33.9509 74.9276 40.2046 74.9276C40.2046 69.3628 40.2046 63.8107 40.2046 58.2334C44.34 58.2334 48.4125 58.2334 52.5354 58.2334C52.5354 73.8071 52.5354 89.3807 52.5354 105.017C52.3084 105.03 52.0815 105.055 51.8671 105.055C48.2108 105.055 44.5544 105.043 40.898 105.068C40.3559 105.068 40.1794 104.929 40.192 104.363C40.2172 98.735 40.2046 93.1199 40.2046 87.4923C40.2046 87.2405 40.2046 87.0012 40.2046 86.6991C39.9272 86.6865 39.7002 86.6613 39.4733 86.6613C33.7618 86.6613 28.0503 86.6739 22.3262 86.6487C21.6706 86.6487 21.5319 86.8376 21.5319 87.4545C21.5571 93.0318 21.5445 98.6091 21.5445 104.199C21.5445 105.043 21.5445 105.043 20.6745 105.043C17.119 105.043 13.5761 105.03 10.0206 105.055C9.42803 105.055 9.2263 104.929 9.2263 104.3C9.23891 89.1793 9.23891 74.0463 9.23891 58.9258C9.25152 58.7244 9.27674 58.4978 9.28934 58.246Z" fill="white"/>
<path d="M135.346 130.839C135.472 126.835 136.102 122.97 137.905 119.37C140.313 114.56 144.222 111.463 149.253 109.726C153.149 108.379 157.183 107.976 161.293 108.177C165.038 108.354 168.669 109.046 172.073 110.645C177.772 113.314 181.315 117.783 182.778 123.852C184.051 129.152 183.963 134.465 182.236 139.665C180.332 145.393 176.474 149.371 170.876 151.512C163.714 154.256 156.401 154.332 149.164 151.864C141.877 149.384 137.527 144.172 136.052 136.643C135.674 134.729 135.573 132.778 135.346 130.839ZM148.774 131.418C148.761 132.979 148.95 135.107 149.568 137.172C150.488 140.244 152.216 142.623 155.355 143.744C157.133 144.373 158.961 144.486 160.814 144.348C164.584 144.046 167.345 142.271 168.909 138.783C169.754 136.882 170.107 134.868 170.233 132.803C170.422 130.021 170.296 127.264 169.527 124.582C168.619 121.434 166.841 119.005 163.626 117.884C161.899 117.28 160.096 117.179 158.28 117.318C154.372 117.62 151.56 119.483 150.047 123.147C149.013 125.602 148.774 128.195 148.774 131.418Z" fill="white"/>
<path d="M133.026 122.794C132.761 122.807 132.572 122.832 132.383 122.832C128.701 122.832 125.032 122.832 121.351 122.832C121.061 122.832 120.796 122.857 120.67 122.467C119.8 119.81 117.795 118.451 115.173 117.985C112.79 117.569 110.394 117.645 108.087 118.463C105.137 119.508 103.46 121.749 102.539 124.632C101.606 127.553 101.505 130.562 101.707 133.596C101.833 135.598 102.212 137.537 103.044 139.388C104.531 142.699 107.129 144.575 110.659 145.217C113.95 145.808 117.177 145.406 120.393 144.688C120.544 144.65 120.746 144.398 120.746 144.235C120.771 141.88 120.758 139.539 120.758 137.109C118.148 137.109 115.589 137.109 112.966 137.109C112.966 134.251 112.966 131.481 112.966 128.661C119.636 128.661 126.281 128.661 132.988 128.661C133.001 128.913 133.013 129.127 133.013 129.354C133.013 136.744 133.013 144.121 133.026 151.512C133.026 152.103 132.875 152.28 132.269 152.33C129.306 152.594 126.344 152.947 123.381 153.237C118.69 153.702 114 154.118 109.297 153.665C104.595 153.211 100.169 151.864 96.3236 148.994C92.4402 146.098 90.1582 142.183 89.1747 137.512C88.103 132.438 88.2291 127.39 89.8934 122.429C92.2385 115.467 96.9287 110.922 104.128 109.273C110.218 107.888 116.345 107.989 122.334 109.978C126.066 111.212 129.193 113.314 131.198 116.827C132.244 118.652 132.799 120.629 133.026 122.794Z" fill="white"/>
<path d="M59.886 153.035C55.7253 153.035 51.7033 153.035 47.6308 153.035C47.6308 138.469 47.6308 123.915 47.6308 109.311C47.9082 109.311 48.1351 109.311 48.3621 109.311C55.8387 109.311 63.3154 109.298 70.8046 109.323C74.524 109.336 78.0543 110.141 81.2064 112.206C84.6862 114.485 86.3883 117.796 86.7792 121.875C87.107 125.363 86.3253 128.586 84.4088 131.506C82.8454 133.886 80.5886 135.346 77.84 136.064C77.6635 136.114 77.487 136.165 77.2348 136.228C81.282 141.818 85.3166 147.37 89.4017 153.01C89.1369 153.035 88.973 153.06 88.7965 153.06C84.5097 153.06 80.2229 153.06 75.9362 153.073C75.5201 153.073 75.3057 152.909 75.0788 152.582C71.5737 147.584 68.0434 142.611 64.5384 137.613C64.261 137.222 63.9836 137.071 63.5045 137.084C62.3319 137.122 61.1594 137.096 59.886 137.096C59.886 142.422 59.886 147.697 59.886 153.035ZM59.886 129.404C59.9994 129.442 60.0373 129.467 60.0751 129.467C63.3532 129.467 66.6313 129.58 69.9094 129.442C72.595 129.328 75.1671 127.893 75.457 124.217C75.6209 122.14 74.7258 120.402 72.8598 119.458C71.6746 118.866 70.4012 118.602 69.0899 118.602C66.2279 118.589 63.3784 118.614 60.5164 118.589C59.9742 118.589 59.8481 118.766 59.8481 119.269C59.8733 122.454 59.8607 125.64 59.8607 128.837C59.8607 129.014 59.886 129.203 59.886 129.404Z" fill="white"/>
<path d="M182.336 62.9925C180.912 67.059 179.512 71.0123 178.1 75.0536C177.798 74.827 177.545 74.6381 177.306 74.4493C174.381 72.1579 171.002 71.0123 167.371 70.4835C163.992 69.9925 160.701 70.2946 157.549 71.604C153.451 73.291 151.27 76.4007 150.904 80.7946C150.74 82.6831 150.879 84.5338 151.484 86.3215C152.644 89.7082 155.178 91.5967 158.52 92.4654C165.341 94.228 171.569 93.0445 177.104 88.5751C177.205 88.4996 177.306 88.4366 177.47 88.3233C179.537 92.1129 181.593 95.8772 183.711 99.7297C182.853 100.271 182.046 100.825 181.202 101.303C177.129 103.607 172.729 104.879 168.089 105.383C162.642 105.974 157.322 105.546 152.14 103.733C143.882 100.85 139.128 95.0463 137.792 86.4223C137.061 81.6759 137.502 77.0554 139.217 72.586C141.473 66.7317 145.722 62.8792 151.522 60.6508C156.515 58.7245 161.672 58.1832 166.992 58.712C171.065 59.1148 175.036 59.908 178.844 61.4188C180.004 61.872 181.139 62.4512 182.336 62.9925Z" fill="white"/>
<path d="M44.1383 143.757C44.1383 146.904 44.1383 149.938 44.1383 153.023C32.5262 153.023 20.9519 153.023 9.31458 153.023C9.31458 138.481 9.31458 123.94 9.31458 109.348C20.9267 109.348 32.5136 109.348 44.1257 109.348C44.1257 112.42 44.1257 115.48 44.1257 118.602C43.8231 118.602 43.5584 118.602 43.2936 118.602C36.2961 118.602 29.2985 118.615 22.301 118.589C21.7084 118.589 21.5067 118.728 21.5193 119.345C21.5571 121.636 21.5319 123.915 21.5319 126.206C21.5319 126.433 21.5319 126.659 21.5319 126.949C28.5042 126.949 35.4135 126.949 42.3606 126.949C42.3606 129.782 42.3606 132.564 42.3606 135.422C35.4513 135.422 28.542 135.422 21.5697 135.422C21.5445 135.712 21.5193 135.913 21.5193 136.114C21.5193 138.418 21.5319 140.735 21.5067 143.039C21.4941 143.631 21.6958 143.782 22.2632 143.769C29.2355 143.756 36.2078 143.757 43.1927 143.757C43.4827 143.757 43.7727 143.757 44.1383 143.757Z" fill="white"/>
<path d="M115.324 70.3449C115.324 72.3341 115.311 74.2226 115.337 76.1111C115.337 76.237 115.564 76.4006 115.715 76.4636C115.854 76.5265 116.043 76.4762 116.219 76.4762C122.17 76.4762 128.109 76.4762 134.06 76.4762C134.312 76.4762 134.551 76.4762 134.854 76.4762C134.854 80.3161 134.854 84.1056 134.854 87.9833C128.373 87.9833 121.905 87.9833 115.374 87.9833C115.349 88.3358 115.324 88.6002 115.324 88.8646C115.324 94.0013 115.311 99.1505 115.337 104.287C115.337 104.904 115.198 105.118 114.542 105.106C110.861 105.068 107.192 105.093 103.51 105.093C103.283 105.093 103.056 105.093 102.779 105.093C102.779 89.4563 102.779 73.8827 102.779 58.2712C113.988 58.2712 125.171 58.2712 136.417 58.2712C136.417 62.2874 136.417 66.291 136.417 70.3701C129.407 70.3449 122.422 70.3449 115.324 70.3449Z" fill="white"/>
<path d="M173.397 196.269C175.881 198.069 176.852 200.826 178.541 203.294C177.23 203.294 176.083 203.306 174.935 203.269C174.772 203.269 174.582 203.017 174.456 202.841C173.41 201.242 172.401 199.618 171.33 198.044C170.447 196.747 169.489 196.42 167.837 196.709C167.837 198.862 167.837 201.04 167.837 203.243C166.778 203.243 165.782 203.243 164.723 203.243C164.723 197.931 164.723 192.643 164.723 187.305C164.862 187.279 164.975 187.242 165.101 187.242C167.787 187.279 170.472 187.267 173.158 187.368C175.553 187.456 176.991 188.904 177.243 191.321C177.482 193.574 176.234 195.45 174.078 196.055C173.876 196.155 173.675 196.206 173.397 196.269ZM167.862 193.952C169.375 193.952 170.825 194.002 172.263 193.94C173.46 193.889 174.04 193.134 173.99 191.862C173.952 190.792 173.259 190.112 172.124 190.087C170.888 190.062 169.653 190.074 168.417 190.074C168.241 190.074 168.064 190.1 167.875 190.125C167.862 191.434 167.862 192.706 167.862 193.952Z" fill="white"/>
<path d="M81.5846 203.306C80.2607 203.306 79.1386 203.332 78.0165 203.281C77.8273 203.269 77.613 203.029 77.4869 202.841C76.4909 201.317 75.4696 199.806 74.524 198.245C73.6919 196.86 72.4689 196.521 70.9055 196.709C70.9055 198.875 70.9055 201.04 70.9055 203.269C69.8212 203.269 68.8125 203.269 67.7408 203.269C67.7282 203.055 67.703 202.853 67.703 202.652C67.703 197.767 67.7156 192.882 67.6904 187.985C67.6904 187.443 67.8039 187.254 68.3838 187.267C70.9811 187.33 73.591 187.305 76.1883 187.405C78.5964 187.494 79.9833 188.904 80.2607 191.371C80.5129 193.625 79.2647 195.488 77.1087 196.105C76.9069 196.168 76.7052 196.206 76.4278 196.281C78.9116 198.044 79.8699 200.839 81.5846 203.306ZM70.9055 193.94C72.4184 193.94 73.881 193.977 75.3435 193.927C76.3774 193.889 76.9826 193.197 77.0204 192.164C77.0709 191.019 76.5539 190.188 75.5201 190.125C74.0071 190.024 72.4689 190.1 70.9181 190.1C70.9055 191.409 70.9055 192.681 70.9055 193.94Z" fill="white"/>
<path d="M48.6395 197.855C48.6395 194.242 48.6395 190.817 48.6395 187.28C49.5599 187.28 50.4298 187.267 51.2998 187.292C51.4007 187.292 51.5393 187.544 51.5646 187.683C51.6024 188.01 51.5772 188.35 51.5772 188.69C51.5772 193.298 51.5646 197.918 51.5898 202.526C51.5898 203.118 51.4763 203.357 50.8333 203.307C50.039 203.244 49.0808 203.533 48.4882 203.181C47.8704 202.816 47.5678 201.871 47.1517 201.179C45.6639 198.648 44.1762 196.118 42.6884 193.6C42.5876 193.423 42.4741 193.26 42.2597 192.958C42.2597 196.495 42.2597 199.857 42.2597 203.256C41.2763 203.256 40.3433 203.256 39.3599 203.256C39.3473 203.03 39.322 202.828 39.322 202.627C39.322 197.742 39.3346 192.857 39.3094 187.972C39.3094 187.431 39.4481 187.217 40.0155 187.267C40.7846 187.33 41.705 187.066 42.2976 187.393C42.8901 187.733 43.1675 188.627 43.5584 189.294C45.1092 191.913 46.6474 194.531 48.1856 197.15C48.2991 197.339 48.4251 197.515 48.6395 197.855Z" fill="white"/>
<path d="M134.375 203.306C133.379 203.306 132.433 203.332 131.5 203.281C131.311 203.269 131.072 202.992 130.946 202.778C129.117 199.693 127.302 196.609 125.474 193.524C125.385 193.386 125.31 193.247 125.133 192.945C125.133 196.483 125.133 199.832 125.133 203.256C124.15 203.256 123.217 203.256 122.208 203.256C122.196 203.042 122.17 202.828 122.17 202.601C122.17 197.742 122.183 192.869 122.158 188.01C122.158 187.443 122.309 187.217 122.889 187.267C123.658 187.33 124.566 187.078 125.171 187.418C125.738 187.733 126.003 188.627 126.394 189.269C127.932 191.887 129.47 194.506 131.021 197.125C131.135 197.314 131.261 197.502 131.488 197.679C131.488 194.242 131.488 190.792 131.488 187.279C132.396 187.279 133.228 187.267 134.06 187.292C134.186 187.292 134.312 187.481 134.413 187.607C134.451 187.657 134.425 187.77 134.425 187.859C134.425 192.844 134.425 197.842 134.425 202.828C134.4 202.954 134.388 203.067 134.375 203.306Z" fill="white"/>
<path d="M207.641 203.306C206.67 203.306 205.737 203.332 204.792 203.281C204.602 203.269 204.376 202.979 204.249 202.765C202.446 199.731 200.669 196.697 198.878 193.663C198.778 193.486 198.664 193.31 198.437 193.146C198.437 194.821 198.437 196.508 198.437 198.182C198.437 199.857 198.437 201.531 198.437 203.256C197.441 203.256 196.508 203.256 195.55 203.256C195.55 197.943 195.55 192.655 195.55 187.279C196.495 187.279 197.416 187.254 198.324 187.305C198.5 187.317 198.714 187.594 198.828 187.783C200.656 190.868 202.472 193.965 204.287 197.049C204.401 197.238 204.527 197.427 204.766 197.578C204.766 194.179 204.766 190.779 204.766 187.33C205.762 187.33 206.67 187.33 207.641 187.33C207.641 192.618 207.641 197.905 207.641 203.306Z" fill="white"/>
<path d="M23.5996 194.745C23.5996 196.81 23.5996 198.85 23.587 200.877C23.587 201.04 23.4609 201.242 23.3348 201.342C20.561 203.659 15.8708 204.528 12.5801 202.375C10.5123 201.015 9.62975 198.938 9.33976 196.596C9.1002 194.657 9.28932 192.743 10.1845 190.956C11.4327 188.463 13.4752 187.179 16.249 187.015C17.6233 186.94 18.9724 187.065 20.2584 187.619C21.9227 188.337 23.2466 190.087 23.3348 191.761C22.4144 191.95 21.4814 192.139 20.5358 192.303C20.4349 192.315 20.2206 192.127 20.1702 191.988C19.5776 190.565 18.4933 189.86 16.9929 189.823C15.3412 189.785 13.9165 190.364 13.1979 191.913C12.1514 194.154 12.1892 196.483 13.2987 198.711C14.1309 200.373 15.9338 201.091 17.7998 200.675C18.1024 200.612 18.405 200.511 18.695 200.398C20.3845 199.743 20.5989 199.378 20.3467 197.465C19.4515 197.465 18.5311 197.44 17.6233 197.477C17.056 197.502 16.829 197.339 16.8794 196.747C16.9299 196.105 16.892 195.45 16.892 194.745C19.1237 194.745 21.3175 194.745 23.5996 194.745Z" fill="white"/>
<path d="M235.556 190.062C232.782 190.062 230.096 190.062 227.385 190.062C227.385 191.233 227.385 192.328 227.385 193.511C229.882 193.511 232.391 193.511 234.95 193.511C234.95 194.456 234.95 195.324 234.95 196.281C232.441 196.281 229.945 196.281 227.385 196.281C227.385 197.729 227.385 199.089 227.385 200.511C227.612 200.524 227.852 200.562 228.092 200.562C230.462 200.562 232.845 200.574 235.215 200.549C235.732 200.549 235.921 200.688 235.883 201.216C235.846 201.884 235.871 202.551 235.871 203.256C231.95 203.256 228.092 203.256 224.196 203.256C224.183 202.992 224.17 202.765 224.158 202.538C224.158 197.717 224.17 192.895 224.145 188.06C224.145 187.443 224.271 187.229 224.939 187.242C228.243 187.28 231.534 187.267 234.837 187.242C235.366 187.242 235.606 187.355 235.556 187.934C235.518 188.614 235.556 189.294 235.556 190.062Z" fill="white"/>
<path d="M136.001 198.069C136.884 197.981 137.741 197.905 138.599 197.817C138.927 197.78 139.027 197.905 139.09 198.208C139.696 200.99 142.066 201.154 143.755 200.574C144.235 200.411 144.688 199.995 144.978 199.567C145.571 198.699 145.281 197.666 144.31 197.263C143.402 196.886 142.432 196.684 141.511 196.357C140.566 196.03 139.582 195.753 138.712 195.274C137.073 194.355 136.354 192.844 136.556 190.994C136.758 189.231 137.767 188.01 139.431 187.431C141.297 186.776 143.188 186.814 145.041 187.506C146.882 188.186 147.992 189.936 147.916 191.938C146.983 191.976 146.05 192.039 145.117 192.051C144.991 192.051 144.789 191.825 144.751 191.661C144.184 189.798 141.473 189.055 139.986 190.364C139.305 190.956 139.393 191.988 140.263 192.404C141.083 192.794 141.99 193.021 142.86 193.31C143.655 193.575 144.474 193.776 145.256 194.078C147.551 194.947 148.572 196.584 148.42 199.064C148.307 201.103 146.882 202.765 144.739 203.332C143.1 203.76 141.461 203.772 139.822 203.306C137.54 202.627 136.014 200.562 136.001 198.069Z" fill="white"/>
<path d="M37.1786 203.269C33.2953 203.269 29.4624 203.269 25.5917 203.269C25.5917 197.943 25.5917 192.655 25.5917 187.305C25.8187 187.292 26.033 187.267 26.2347 187.267C29.5759 187.267 32.9171 187.28 36.2456 187.254C36.7499 187.254 36.9769 187.368 36.9391 187.909C36.9012 188.425 36.9138 188.954 36.9391 189.483C36.9643 189.923 36.8004 190.062 36.3591 190.062C34.0644 190.049 31.7823 190.049 29.4876 190.049C29.2607 190.049 29.0337 190.049 28.7059 190.049C28.7059 191.145 28.6933 192.19 28.7311 193.222C28.7311 193.335 29.0842 193.512 29.2733 193.512C31.3789 193.537 33.4718 193.524 35.5774 193.524C35.8043 193.524 36.0313 193.524 36.296 193.524C36.296 194.456 36.296 195.324 36.296 196.256C36.0313 196.269 35.7917 196.294 35.5395 196.294C33.4844 196.294 31.4293 196.307 29.3616 196.281C28.832 196.269 28.6681 196.458 28.6807 196.974C28.7185 197.943 28.7185 198.9 28.6807 199.869C28.6555 200.449 28.8824 200.574 29.412 200.562C31.7445 200.537 34.077 200.549 36.4095 200.549C36.6491 200.549 36.9012 200.549 37.1786 200.549C37.1786 201.506 37.1786 202.35 37.1786 203.269Z" fill="white"/>
<path d="M57.0617 196.294C57.0617 197.666 57.0617 198.938 57.0617 200.222C57.0617 200.662 57.4147 200.562 57.6669 200.562C60.0246 200.562 62.3697 200.562 64.7274 200.562C64.9796 200.562 65.2318 200.562 65.5344 200.562C65.5344 201.468 65.5344 202.337 65.5344 203.256C61.7015 203.256 57.8686 203.256 53.9601 203.256C53.9475 203.08 53.9222 202.878 53.9222 202.677C53.9222 197.767 53.9348 192.857 53.9096 187.959C53.9096 187.393 54.0735 187.254 54.6157 187.267C57.9569 187.292 61.298 187.292 64.6392 187.267C65.1687 187.267 65.3452 187.431 65.3074 187.947C65.2696 188.425 65.2696 188.916 65.3074 189.395C65.3452 189.911 65.1813 190.087 64.6392 190.074C62.3697 190.049 60.1002 190.062 57.8308 190.062C57.6038 190.062 57.3769 190.062 57.0995 190.062C57.0995 191.233 57.0995 192.353 57.0995 193.537C59.6337 193.537 62.1176 193.537 64.6518 193.537C64.6518 194.468 64.6518 195.337 64.6518 196.306C62.1428 196.294 59.6463 196.294 57.0617 196.294Z" fill="white"/>
<path d="M153.703 187.267C153.703 187.607 153.703 187.846 153.703 188.098C153.703 191.12 153.716 194.141 153.716 197.163C153.716 197.389 153.729 197.628 153.741 197.855C153.817 200.65 156.061 201.065 157.889 200.612C158.81 200.386 159.364 199.718 159.453 198.774C159.541 197.855 159.579 196.936 159.579 196.017C159.591 193.373 159.579 190.729 159.579 188.085C159.579 187.859 159.579 187.632 159.579 187.292C160.575 187.292 161.533 187.28 162.479 187.305C162.567 187.305 162.743 187.519 162.731 187.632C162.68 191.548 162.731 195.476 162.491 199.391C162.353 201.733 160.827 203.105 158.469 203.483C156.78 203.747 155.065 203.772 153.451 203.042C151.56 202.199 150.69 200.612 150.64 198.623C150.539 194.997 150.551 191.371 150.501 187.733C150.501 187.431 150.577 187.254 150.93 187.267C151.837 187.28 152.72 187.267 153.703 187.267Z" fill="white"/>
<path d="M194.314 203.306C193.255 203.306 192.284 203.332 191.326 203.281C191.15 203.269 190.897 203.055 190.822 202.866C190.456 201.947 190.128 201.028 189.801 200.096C189.687 199.781 189.523 199.643 189.157 199.643C187.455 199.668 185.753 199.668 184.051 199.643C183.66 199.643 183.496 199.769 183.383 200.134C183.093 201.028 182.74 201.909 182.463 202.803C182.336 203.206 182.135 203.306 181.744 203.306C180.849 203.281 179.954 203.294 178.97 203.294C179.222 202.589 179.437 201.985 179.664 201.38C181.328 196.886 183.017 192.391 184.669 187.884C184.858 187.368 185.11 187.204 185.627 187.242C186.295 187.28 186.976 187.28 187.644 187.242C188.061 187.229 188.275 187.342 188.426 187.758C190.33 192.756 192.246 197.729 194.163 202.715C194.201 202.891 194.239 203.055 194.314 203.306ZM186.548 191.145C185.842 193.146 185.199 194.997 184.543 196.886C185.955 196.886 187.241 196.886 188.603 196.886C187.922 194.972 187.266 193.146 186.548 191.145Z" fill="white"/>
<path d="M97.3826 203.307C96.2731 203.307 95.2897 203.332 94.3062 203.281C94.1297 203.269 93.9028 203.03 93.8271 202.841C93.4741 201.947 93.1337 201.04 92.8437 200.121C92.7176 199.756 92.5285 199.643 92.1629 199.643C90.486 199.655 88.7965 199.668 87.1196 199.643C86.7035 199.643 86.527 199.807 86.4135 200.172C86.1235 201.053 85.7957 201.909 85.5183 202.79C85.4049 203.168 85.2284 203.332 84.8123 203.319C83.9171 203.281 83.0093 203.307 82.0259 203.307C82.1141 203.03 82.1646 202.841 82.2402 202.639C84.0684 197.717 85.9092 192.794 87.7248 187.859C87.8887 187.406 88.103 187.229 88.5821 187.254C89.2756 187.292 89.969 187.292 90.6625 187.254C91.1164 187.229 91.3181 187.393 91.482 187.821C93.0076 191.85 94.571 195.879 96.1092 199.907C96.5001 201.003 96.9287 202.098 97.3826 203.307ZM91.6333 196.898C90.9399 194.959 90.2842 193.109 89.5782 191.132C88.8847 193.121 88.2417 194.972 87.5735 196.898C88.973 196.898 90.2464 196.898 91.6333 196.898Z" fill="white"/>
<path d="M219.896 197.377C220.892 197.704 221.863 198.019 222.809 198.334C222.506 201.078 220.148 203.294 217.438 203.558C212.735 204.024 210.049 200.7 209.621 197.138C209.394 195.211 209.482 193.323 210.15 191.497C212.067 186.21 218.358 186.096 221.006 188.501C221.951 189.37 222.494 190.44 222.847 191.736C221.813 192.001 220.829 192.24 219.821 192.492C219.758 192.366 219.682 192.253 219.644 192.152C219.102 190.654 218.081 189.873 216.618 189.835C215.13 189.798 213.844 190.578 213.315 191.988C213.025 192.756 212.836 193.612 212.823 194.431C212.81 195.652 212.861 196.911 213.126 198.107C213.517 199.844 214.891 200.801 216.618 200.751C217.917 200.726 218.762 199.995 219.316 198.9C219.543 198.434 219.682 197.943 219.896 197.377Z" fill="white"/>
<path d="M101.77 187.405C101.77 191.837 101.77 196.155 101.77 200.549C104.33 200.549 106.839 200.549 109.398 200.549C109.398 201.493 109.398 202.362 109.398 203.269C105.817 203.269 102.249 203.269 98.6308 203.269C98.6182 203.029 98.593 202.803 98.593 202.576C98.593 197.767 98.6056 192.97 98.5804 188.161C98.5804 187.544 98.7569 187.355 99.3621 187.393C100.144 187.443 100.913 187.405 101.77 187.405Z" fill="white"/>
<path d="M119.245 203.269C118.224 203.269 117.228 203.269 116.169 203.269C116.156 203.029 116.131 202.803 116.131 202.576C116.131 197.742 116.144 192.895 116.118 188.06C116.118 187.418 116.295 187.217 116.938 187.267C117.682 187.317 118.438 187.279 119.245 187.279C119.245 192.63 119.245 197.931 119.245 203.269Z" fill="white"/>
<path d="M13.9544 235.499C13.9544 235.096 13.9544 234.781 13.9544 234.479C13.9544 232.502 13.967 230.538 13.9418 228.562C13.9418 228.071 14.0931 227.907 14.5974 227.92C15.5808 227.957 16.5643 227.932 17.5981 227.932C17.5981 234.315 17.5981 240.661 17.5981 247.031C16.413 247.031 15.2404 247.031 14.0048 247.031C13.9922 246.779 13.9544 246.54 13.9544 246.301C13.9544 243.997 13.9292 241.693 13.967 239.376C13.9796 238.785 13.7779 238.634 13.2105 238.646C11.1932 238.671 9.17588 238.684 7.15858 238.646C6.59121 238.634 6.45252 238.835 6.45252 239.364C6.47773 241.655 6.46513 243.934 6.46513 246.225C6.46513 246.477 6.46513 246.716 6.46513 247.018C5.21692 247.018 4.03175 247.018 2.82137 247.018C2.82137 240.673 2.82137 234.353 2.82137 227.932C3.94349 227.932 5.0404 227.92 6.14992 227.957C6.2634 227.957 6.45252 228.348 6.45252 228.562C6.47773 230.614 6.49034 232.666 6.45252 234.731C6.43991 235.322 6.59121 235.524 7.20901 235.511C9.2011 235.474 11.1932 235.499 13.1979 235.499C13.4248 235.499 13.6266 235.499 13.9544 235.499Z" fill="black"/>
<path d="M53.418 233.258C54.5653 233.258 55.5992 233.258 56.6835 233.258C56.6835 233.862 56.6835 234.441 56.6835 235.108C56.8348 235.02 56.9104 234.995 56.9482 234.945C59.1799 231.848 64.1223 232.162 65.8748 236.367C66.9591 238.961 66.8709 241.668 65.6857 244.249C64.551 246.716 61.878 247.938 59.4825 247.157C59.016 247.006 58.5747 246.729 58.1586 246.452C57.7678 246.188 57.44 245.822 56.9861 245.432C56.9861 247.761 56.9861 250.002 56.9861 252.357C55.8261 252.357 54.7418 252.369 53.6701 252.344C53.5819 252.344 53.4684 252.155 53.4432 252.042C53.4054 251.866 53.418 251.664 53.418 251.475C53.418 245.684 53.418 239.905 53.418 234.114C53.418 233.849 53.418 233.585 53.418 233.258ZM63.0254 240.358C62.9371 239.578 62.8867 239.011 62.811 238.457C62.7606 238.168 62.6724 237.891 62.5589 237.614C62.0924 236.468 61.0711 235.725 59.9616 235.75C58.7008 235.776 57.793 236.405 57.3265 237.563C57.0869 238.155 56.9482 238.81 56.9104 239.452C56.8222 240.711 56.9104 241.982 57.5913 243.103C58.1712 244.072 59.0538 244.639 60.2012 244.551C61.4115 244.463 62.2437 243.758 62.5967 242.625C62.8363 241.819 62.9119 240.975 63.0254 240.358Z" fill="black"/>
<path d="M127.428 233.27C128.575 233.27 129.596 233.27 130.681 233.27C130.681 233.875 130.681 234.454 130.681 235.134C130.832 235.046 130.908 235.02 130.946 234.958C133.165 231.873 138.082 232.175 139.847 236.33C140.969 238.961 140.881 241.718 139.658 244.324C138.523 246.754 135.85 247.95 133.48 247.17C133.013 247.019 132.572 246.742 132.156 246.465C131.765 246.2 131.437 245.835 130.983 245.445C130.983 247.774 130.983 250.015 130.983 252.369C129.823 252.369 128.739 252.382 127.667 252.357C127.592 252.357 127.466 252.168 127.44 252.055C127.403 251.891 127.428 251.727 127.428 251.551C127.428 245.722 127.428 239.893 127.428 234.064C127.428 233.812 127.428 233.56 127.428 233.27ZM137.073 240.258C136.934 239.414 136.871 238.609 136.644 237.853C136.266 236.569 135.157 235.751 133.972 235.751C132.723 235.751 131.589 236.531 131.236 237.853C130.996 238.747 130.895 239.716 130.971 240.636C131.046 241.504 131.299 242.411 131.689 243.191C132.194 244.161 133.139 244.652 134.274 244.538C135.421 244.425 136.228 243.758 136.581 242.675C136.821 241.869 136.909 241.038 137.073 240.258Z" fill="black"/>
<path d="M232.025 227.97C233.198 227.97 234.307 227.97 235.48 227.97C235.48 230.261 235.48 232.515 235.48 234.97C235.77 234.706 235.921 234.567 236.072 234.429C237.459 233.069 239.124 232.641 241.002 233.044C242.894 233.459 244.104 234.894 244.167 237.06C244.268 240.27 244.23 243.481 244.243 246.691C244.243 246.792 244.205 246.893 244.192 247.018C243.057 247.018 241.96 247.018 240.75 247.018C240.75 246.767 240.75 246.527 240.75 246.288C240.75 243.808 240.738 241.34 240.725 238.86C240.725 238.483 240.725 238.105 240.674 237.727C240.498 236.405 240.031 235.839 239.01 235.688C237.623 235.486 236.426 235.99 236.035 237.123C235.732 237.979 235.581 238.911 235.556 239.817C235.493 241.97 235.53 244.135 235.53 246.301C235.53 246.527 235.53 246.754 235.53 247.006C234.333 247.006 233.21 247.006 232.063 247.006C232.025 240.673 232.025 234.34 232.025 227.97Z" fill="black"/>
<path d="M147.034 237.991C147.727 237.186 148.408 236.367 149.114 235.562C149.782 234.781 150.324 233.724 151.182 233.333C152.014 232.943 153.161 233.233 154.17 233.233C154.535 233.233 154.914 233.233 155.431 233.233C155.141 233.547 154.951 233.761 154.75 233.975C153.565 235.285 152.379 236.594 151.182 237.878C150.904 238.18 150.892 238.394 151.093 238.747C152.531 241.277 153.943 243.833 155.368 246.376C155.481 246.578 155.569 246.779 155.733 247.069C154.498 247.069 153.35 247.081 152.216 247.044C152.052 247.044 151.862 246.792 151.762 246.616C150.816 244.916 149.883 243.204 148.95 241.491C148.837 241.29 148.723 241.101 148.559 240.824C147.992 241.441 147.462 241.995 146.971 242.587C146.857 242.725 146.882 242.99 146.87 243.191C146.857 244.45 146.87 245.709 146.87 247.018C145.71 247.018 144.588 247.018 143.415 247.018C143.415 240.711 143.415 234.378 143.415 227.995C144.525 227.995 145.659 227.995 146.857 227.995C146.857 231.319 146.857 234.617 146.857 237.929C146.92 237.954 146.971 237.979 147.034 237.991Z" fill="black"/>
<path d="M98.013 236.808C98.2525 235.058 99.5638 233.623 101.367 233.17C103.081 232.742 104.834 232.779 106.536 233.22C108.314 233.673 109.171 234.68 109.285 236.506C109.386 238.117 109.36 239.729 109.386 241.34C109.398 242.31 109.335 243.279 109.436 244.236C109.537 245.168 109.789 246.074 109.991 247.056C109.007 247.056 107.973 247.069 106.94 247.044C106.813 247.044 106.637 246.855 106.587 246.704C106.448 246.364 106.36 246.011 106.234 245.583C105.906 245.848 105.654 246.049 105.389 246.25C103.888 247.358 102.237 247.661 100.446 247.17C98.8199 246.729 97.6978 245.382 97.6095 243.795C97.4834 241.781 98.2273 240.333 99.9546 239.716C101.367 239.213 102.867 238.936 104.317 238.558C104.557 238.495 104.821 238.47 105.048 238.369C105.376 238.206 105.931 238.357 105.956 237.777C105.981 237.123 105.981 236.468 105.326 236.04C103.989 235.197 102.035 235.688 101.253 237.072C101.178 237.198 100.976 237.362 100.85 237.337C99.8916 237.186 98.946 236.997 98.013 236.808ZM106.032 240.358C104.632 240.749 103.397 241.063 102.174 241.454C101.505 241.668 101.102 242.171 101.089 242.914C101.064 243.707 101.43 244.286 102.123 244.639C103.334 245.268 105.376 244.475 105.717 243.153C105.944 242.297 105.918 241.391 106.032 240.358Z" fill="black"/>
<path d="M208.246 236.795C208.725 235.058 209.621 233.761 211.36 233.258C213.239 232.716 215.143 232.754 217.009 233.27C218.648 233.724 219.493 234.806 219.581 236.518C219.669 238.193 219.657 239.867 219.669 241.542C219.682 243.38 219.543 245.231 220.438 247.056C219.291 247.056 218.257 247.069 217.223 247.044C217.097 247.044 216.933 246.842 216.87 246.704C216.732 246.376 216.643 246.036 216.505 245.583C216.29 245.759 216.114 245.885 215.95 246.024C214.399 247.295 212.646 247.698 210.705 247.17C209.053 246.716 207.981 245.394 207.868 243.72C207.742 241.794 208.511 240.308 210.226 239.704C211.638 239.2 213.138 238.923 214.588 238.545C214.828 238.482 215.092 238.457 215.319 238.357C215.635 238.193 216.202 238.344 216.227 237.765C216.252 237.085 216.24 236.405 215.534 236.002C214.159 235.197 212.306 235.7 211.524 237.06C211.449 237.198 211.171 237.337 211.007 237.312C210.112 237.173 209.23 236.997 208.246 236.795ZM216.315 240.358C214.929 240.749 213.68 241.063 212.445 241.454C211.802 241.655 211.423 242.146 211.386 242.864C211.348 243.657 211.688 244.236 212.369 244.614C213.643 245.294 215.735 244.438 216.051 243.027C216.24 242.209 216.227 241.34 216.315 240.358Z" fill="black"/>
<path d="M33.2701 247.069C32.148 247.069 31.1519 247.081 30.1685 247.056C30.0046 247.056 29.7776 246.867 29.6894 246.704C29.5255 246.376 29.4624 246.011 29.3237 245.583C29.0085 245.835 28.7564 246.049 28.4916 246.251C26.9912 247.358 25.3396 247.661 23.5492 247.182C21.9101 246.742 20.8006 245.394 20.6998 243.808C20.5737 241.769 21.3302 240.321 23.0953 239.691C24.4948 239.2 25.97 238.923 27.4073 238.558C27.6469 238.495 27.9116 238.47 28.1386 238.369C28.4664 238.206 29.0212 238.357 29.0464 237.778C29.0716 237.123 29.0842 236.468 28.416 236.04C27.0795 235.197 25.1252 235.688 24.3435 237.06C24.2679 237.198 24.0283 237.349 23.8896 237.324C22.9692 237.173 22.0488 236.984 21.1284 236.808C21.3932 234.844 22.881 233.421 25.1 233.044C26.5626 232.792 28.0377 232.842 29.4877 233.17C31.568 233.635 32.4254 234.832 32.5136 237.337C32.564 238.684 32.5262 240.019 32.5262 241.366C32.501 243.254 32.3245 245.18 33.2701 247.069ZM29.0842 240.371C27.7351 240.749 26.5121 241.026 25.327 241.429C24.4444 241.731 24.104 242.373 24.2048 243.242C24.2931 243.997 24.9235 244.664 25.7178 244.815C27.0669 245.08 28.832 244.135 28.9707 242.65C29.0212 241.945 29.0338 241.24 29.0842 240.371Z" fill="black"/>
<path d="M112.512 236.808C112.916 234.718 114.29 233.346 116.509 233.056C117.757 232.893 119.081 232.893 120.329 233.081C122.889 233.459 123.847 234.668 123.91 237.324C123.948 239.162 123.923 241.013 123.91 242.864C123.898 244.274 124.011 245.659 124.679 247.056C123.519 247.056 122.46 247.069 121.401 247.044C121.3 247.044 121.162 246.855 121.111 246.716C120.972 246.364 120.884 246.011 120.746 245.583C120.443 245.822 120.191 246.036 119.926 246.238C118.438 247.346 116.774 247.661 114.984 247.182C113.345 246.741 112.21 245.407 112.109 243.833C111.97 241.806 112.727 240.333 114.479 239.704C115.891 239.2 117.392 238.923 118.842 238.545C119.069 238.483 119.308 238.47 119.51 238.369C119.85 238.206 120.443 238.344 120.456 237.74C120.468 237.047 120.456 236.355 119.686 235.952C118.249 235.222 116.547 235.7 115.74 237.072C115.664 237.198 115.412 237.337 115.274 237.312C114.353 237.186 113.458 236.997 112.512 236.808ZM120.569 240.409C119.535 240.661 118.69 240.849 117.846 241.063C117.467 241.164 117.089 241.29 116.711 241.429C116.03 241.693 115.601 242.171 115.601 242.939C115.601 243.758 115.992 244.337 116.724 244.677C117.896 245.218 119.825 244.488 120.191 243.254C120.456 242.385 120.443 241.429 120.569 240.409Z" fill="black"/>
<path d="M193.823 236.821C193.911 235.209 195.336 233.635 197.138 233.182C198.904 232.742 200.681 232.779 202.434 233.258C204.136 233.724 205.006 234.819 205.094 236.581C205.157 237.903 205.157 239.225 205.157 240.547C205.17 242.713 204.93 244.916 205.926 247.081C204.792 247.081 203.745 247.094 202.711 247.069C202.585 247.069 202.434 246.855 202.371 246.716C202.232 246.389 202.144 246.049 202.018 245.634C201.791 245.81 201.614 245.936 201.45 246.074C199.912 247.333 198.172 247.724 196.256 247.207C194.516 246.742 193.457 245.394 193.343 243.531C193.243 241.806 194.1 240.308 195.752 239.716C197.164 239.213 198.664 238.936 200.127 238.558C200.354 238.495 200.593 238.483 200.795 238.382C201.123 238.218 201.652 238.054 201.703 237.803C201.816 237.173 201.766 236.493 201.123 236.065C199.824 235.197 197.781 235.688 197.05 237.047C196.975 237.186 196.735 237.362 196.609 237.337C195.651 237.186 194.73 236.997 193.823 236.821ZM201.803 240.358C200.391 240.749 199.156 241.063 197.945 241.454C197.302 241.655 196.912 242.134 196.874 242.851C196.836 243.644 197.164 244.236 197.845 244.614C199.143 245.319 201.249 244.425 201.551 242.99C201.728 242.184 201.715 241.34 201.803 240.358Z" fill="black"/>
<path d="M68.9891 236.808C69.1782 235.096 70.5399 233.61 72.3428 233.17C74.0828 232.754 75.8479 232.779 77.5752 233.245C79.3025 233.711 80.1851 234.806 80.2734 236.594C80.3364 237.866 80.3364 239.15 80.3364 240.421C80.349 242.637 80.1221 244.866 81.0803 247.069C79.9582 247.069 78.9243 247.081 77.8778 247.056C77.7643 247.056 77.6004 246.842 77.5374 246.704C77.3987 246.376 77.3104 246.036 77.1718 245.621C76.9448 245.797 76.7683 245.923 76.6044 246.062C75.0914 247.295 73.3767 247.711 71.4729 247.22C69.6825 246.754 68.6108 245.419 68.4973 243.544C68.3839 241.781 69.279 240.27 71.0064 239.678C72.4059 239.2 73.881 238.923 75.3184 238.558C75.5453 238.495 75.7849 238.47 75.9866 238.382C76.3018 238.231 76.8187 238.067 76.8565 237.84C76.97 237.236 76.9322 236.569 76.3396 236.128C75.104 235.196 72.9354 235.675 72.1915 237.022C72.1033 237.186 71.8133 237.349 71.6494 237.324C70.792 237.186 69.9094 236.997 68.9891 236.808ZM76.97 240.371C75.621 240.749 74.3853 241.038 73.175 241.441C72.2798 241.743 71.9772 242.348 72.0907 243.254C72.1789 244.035 72.8345 244.702 73.6541 244.828C75.0536 245.054 76.8061 244.009 76.8565 242.536C76.8692 241.869 76.9196 241.202 76.97 240.371Z" fill="black"/>
<path d="M165.895 242.738C167.005 242.927 168.14 243.128 169.274 243.33C168.707 245.47 166.891 247.082 164.685 247.296C163.752 247.384 162.794 247.396 161.873 247.245C159.541 246.855 158.04 245.395 157.385 243.166C156.679 240.761 156.717 238.344 157.902 236.078C159.049 233.875 160.928 232.83 163.399 232.918C165.971 233.006 167.824 234.19 168.808 236.607C169.388 238.042 169.539 239.553 169.527 241.177C166.526 241.177 163.575 241.177 160.638 241.177C160.449 242.725 161.319 244.173 162.63 244.589C164.042 245.029 164.925 244.538 165.895 242.738ZM160.625 238.961C162.441 238.961 164.206 238.961 166.034 238.961C165.971 237.74 165.706 236.67 164.622 236.028C163.714 235.486 162.769 235.511 161.899 236.103C160.915 236.77 160.6 237.765 160.625 238.961Z" fill="black"/>
<path d="M190.595 236.531C189.561 236.733 188.577 236.921 187.594 237.085C187.481 237.098 187.279 236.984 187.228 236.871C186.737 235.801 185.829 235.474 184.757 235.486C184.215 235.486 183.673 235.574 183.143 235.7C182.677 235.814 182.299 236.103 182.286 236.657C182.273 237.186 182.664 237.463 183.093 237.589C184.19 237.929 185.312 238.193 186.421 238.533C187.241 238.785 188.061 239.037 188.855 239.364C191.742 240.573 191.515 243.997 190.078 245.52C189.195 246.465 188.111 246.993 186.85 247.22C185.085 247.535 183.332 247.484 181.656 246.805C180.029 246.15 179.021 244.941 178.541 243.166C179.651 243.002 180.723 242.826 181.794 242.688C181.908 242.675 182.097 242.864 182.16 243.002C182.929 244.715 185.325 245.42 186.901 244.362C187.354 244.06 187.594 243.657 187.544 243.091C187.493 242.524 187.077 242.31 186.623 242.184C185.312 241.819 183.988 241.492 182.677 241.126C182.261 241.013 181.845 240.837 181.441 240.673C179.903 240.019 179.058 238.885 179.033 237.186C179.008 235.436 179.815 234.164 181.391 233.522C183.61 232.603 185.905 232.654 188.149 233.497C189.372 233.963 190.116 234.957 190.595 236.531Z" fill="black"/>
<path d="M229.403 244.085C229.491 244.878 229.567 245.609 229.68 246.326C229.73 246.716 229.63 246.943 229.214 247.056C228.129 247.371 227.032 247.484 225.91 247.296C224.485 247.056 223.59 246.011 223.553 244.387C223.489 241.895 223.477 239.402 223.452 236.896C223.452 236.645 223.452 236.405 223.452 236.103C222.884 236.103 222.393 236.103 221.85 236.103C221.85 235.134 221.85 234.227 221.85 233.245C222.342 233.245 222.834 233.245 223.452 233.245C223.452 232.452 223.477 231.735 223.439 231.004C223.414 230.564 223.578 230.312 223.956 230.11C224.939 229.556 225.898 228.965 226.995 228.31C226.995 229.997 226.995 231.571 226.995 233.208C227.839 233.208 228.583 233.208 229.39 233.208C229.39 234.177 229.39 235.083 229.39 236.065C228.646 236.065 227.877 236.065 227.083 236.065C227.058 236.292 227.02 236.443 227.02 236.607C227.02 238.747 227.02 240.887 227.045 243.028C227.058 244.287 227.524 244.627 228.76 244.287C228.949 244.236 229.138 244.173 229.403 244.085Z" fill="black"/>
<path d="M84.0305 227.97C85.1653 227.97 86.2748 227.97 87.4348 227.97C87.4348 234.315 87.4348 240.648 87.4348 247.031C86.3126 247.031 85.1905 247.031 84.0305 247.031C84.0305 240.698 84.0305 234.378 84.0305 227.97Z" fill="black"/>
<path d="M35.9809 247.031C35.9809 242.423 35.9809 237.878 35.9809 233.283C37.0399 233.283 38.0738 233.283 39.1959 233.283C39.1959 233.849 39.1959 234.429 39.1959 234.995C39.2464 235.02 39.2968 235.045 39.3472 235.071C40.0659 234 40.7846 232.943 42.2219 232.905C43.0793 232.893 43.8736 233.081 44.6427 233.598C44.277 234.63 43.924 235.637 43.5836 236.632C43.0919 236.468 42.6632 236.279 42.2219 236.191C41.3015 236.002 40.3937 236.43 40.0785 237.324C39.8137 238.067 39.6246 238.86 39.5994 239.641C39.5111 241.844 39.5111 244.047 39.4733 246.238C39.4733 246.49 39.4733 246.729 39.4733 247.018C38.2882 247.031 37.166 247.031 35.9809 247.031Z" fill="black"/>
<path d="M68.7873 93.3591C68.7873 85.4148 68.7873 77.5588 68.7873 69.6146C69.0395 69.6146 69.2538 69.6146 69.4808 69.6146C72.1537 69.6146 74.814 69.6649 77.487 69.602C80.7903 69.5264 83.3245 70.9617 85.2914 73.4545C87.4348 76.1865 88.0652 79.3717 87.813 82.7584C87.5483 86.1451 86.2244 89.0281 83.5515 91.2188C81.8368 92.6288 79.9077 93.4472 77.6004 93.3842C74.9149 93.3087 72.2294 93.3716 69.5312 93.3716C69.3043 93.3591 69.0773 93.3591 68.7873 93.3591Z" fill="#2E3540"/>
<path d="M148.774 131.418C148.774 128.195 149.026 125.602 150.047 123.134C151.573 119.471 154.372 117.607 158.28 117.305C160.096 117.167 161.899 117.267 163.626 117.872C166.841 119.005 168.619 121.435 169.527 124.569C170.308 127.251 170.422 130.008 170.233 132.791C170.094 134.855 169.754 136.87 168.909 138.771C167.345 142.271 164.584 144.046 160.814 144.336C158.961 144.487 157.12 144.373 155.355 143.731C152.216 142.611 150.488 140.231 149.568 137.159C148.937 135.107 148.761 132.98 148.774 131.418Z" fill="#2E3540"/>
<path d="M59.8859 129.404C59.8733 129.203 59.8607 129.014 59.8607 128.838C59.8607 125.652 59.8733 122.467 59.8481 119.269C59.8481 118.753 59.9742 118.589 60.5163 118.589C63.3784 118.615 66.2278 118.589 69.0899 118.602C70.4011 118.615 71.6745 118.866 72.8597 119.458C74.7383 120.402 75.6335 122.127 75.457 124.217C75.1544 127.893 72.5949 129.329 69.9094 129.442C66.6439 129.58 63.3532 129.467 60.075 129.467C60.0498 129.467 60.012 129.442 59.8859 129.404Z" fill="#2E3540"/>
<path d="M167.862 193.952C167.862 192.706 167.862 191.434 167.862 190.112C168.051 190.1 168.228 190.062 168.404 190.062C169.64 190.062 170.876 190.049 172.111 190.075C173.246 190.1 173.939 190.78 173.977 191.85C174.028 193.121 173.46 193.877 172.25 193.927C170.813 193.99 169.375 193.952 167.862 193.952Z" fill="#2E3540"/>
<path d="M70.9055 193.94C70.9055 192.681 70.9055 191.409 70.9055 190.1C72.4689 190.1 73.9945 190.024 75.5075 190.125C76.5413 190.188 77.0583 191.019 77.0079 192.164C76.97 193.184 76.3648 193.877 75.331 193.927C73.881 193.99 72.4185 193.94 70.9055 193.94Z" fill="black"/>
<path d="M186.548 191.145C187.266 193.147 187.922 194.985 188.603 196.886C187.241 196.886 185.955 196.886 184.543 196.886C185.199 194.997 185.842 193.147 186.548 191.145Z" fill="black"/>
<path d="M91.6333 196.898C90.2464 196.898 88.973 196.898 87.5608 196.898C88.2291 194.972 88.8721 193.121 89.5655 191.132C90.2842 193.121 90.9398 194.959 91.6333 196.898Z" fill="black"/>
<path d="M63.0254 240.358C62.9119 240.975 62.8362 241.819 62.5841 242.612C62.231 243.745 61.3989 244.45 60.1885 244.538C59.0412 244.626 58.1586 244.06 57.5786 243.09C56.8978 241.97 56.8095 240.711 56.8978 239.439C56.9482 238.797 57.0743 238.143 57.3139 237.551C57.7804 236.393 58.6882 235.776 59.949 235.738C61.0585 235.713 62.0797 236.468 62.5462 237.601C62.6597 237.866 62.748 238.155 62.7984 238.445C62.8867 239.011 62.9371 239.578 63.0254 240.358Z" fill="white"/>
<path d="M137.073 240.258C136.922 241.038 136.834 241.882 136.581 242.662C136.241 243.745 135.421 244.412 134.274 244.526C133.152 244.639 132.194 244.148 131.689 243.179C131.286 242.411 131.034 241.492 130.971 240.623C130.895 239.704 131.009 238.734 131.236 237.841C131.576 236.519 132.723 235.738 133.972 235.738C135.157 235.738 136.266 236.556 136.644 237.841C136.871 238.609 136.922 239.402 137.073 240.258Z" fill="white"/>
<path d="M106.032 240.358C105.931 241.391 105.944 242.297 105.729 243.153C105.376 244.475 103.346 245.268 102.136 244.639C101.442 244.286 101.077 243.707 101.102 242.914C101.115 242.171 101.518 241.668 102.186 241.454C103.384 241.063 104.62 240.749 106.032 240.358Z" fill="white"/>
<path d="M216.315 240.358C216.227 241.34 216.252 242.209 216.063 243.027C215.748 244.425 213.655 245.294 212.382 244.614C211.688 244.249 211.36 243.657 211.398 242.864C211.423 242.146 211.814 241.655 212.457 241.454C213.668 241.076 214.916 240.749 216.315 240.358Z" fill="white"/>
<path d="M29.0842 240.371C29.0463 241.24 29.0337 241.945 28.9707 242.65C28.832 244.135 27.0669 245.067 25.7178 244.815C24.9361 244.664 24.3057 243.997 24.2048 243.242C24.1039 242.373 24.4318 241.731 25.3269 241.429C26.5121 241.038 27.7351 240.749 29.0842 240.371Z" fill="white"/>
<path d="M120.569 240.409C120.443 241.428 120.456 242.385 120.191 243.254C119.813 244.488 117.896 245.218 116.724 244.677C115.992 244.337 115.601 243.758 115.601 242.939C115.601 242.171 116.03 241.693 116.711 241.428C117.077 241.277 117.455 241.164 117.846 241.063C118.678 240.849 119.535 240.648 120.569 240.409Z" fill="white"/>
<path d="M201.803 240.358C201.715 241.34 201.74 242.184 201.564 242.99C201.249 244.437 199.143 245.319 197.857 244.614C197.164 244.236 196.848 243.644 196.886 242.851C196.924 242.134 197.315 241.655 197.958 241.454C199.156 241.063 200.391 240.749 201.803 240.358Z" fill="white"/>
<path d="M76.97 240.371C76.9196 241.202 76.8692 241.869 76.8439 242.537C76.8061 244.022 75.041 245.055 73.6415 244.828C72.8345 244.702 72.1663 244.035 72.078 243.254C71.9772 242.348 72.2672 241.743 73.1623 241.441C74.3853 241.038 75.6209 240.749 76.97 240.371Z" fill="white"/>
<path d="M160.625 238.961C160.6 237.765 160.915 236.77 161.899 236.103C162.769 235.511 163.714 235.486 164.622 236.028C165.706 236.67 165.971 237.74 166.034 238.961C164.206 238.961 162.441 238.961 160.625 238.961Z" fill="white"/>
</svg>
