<svg width="177" height="50" viewBox="0 0 177 50" fill="none" xmlns="http://www.w3.org/2000/svg">
<g clip-path="url(#clip0)">
<path d="M177 49.2773C118 49.2773 59.0587 49.2773 0 49.2773C0 32.9053 0 16.6494 0 0.277344C59 0.277344 117.941 0.277344 177 0.277344C177 16.5913 177 32.9053 177 49.2773ZM52.666 13.5724C52.4901 13.9207 52.3728 14.0368 52.3728 14.1529C52.3141 21.0617 52.3141 27.9124 52.3728 34.8212C52.3728 35.2276 53.3111 35.9823 53.8976 36.0404C57.1819 36.1565 60.4662 36.1565 63.8092 36.0404C67.504 35.9243 69.7326 34.2987 70.6123 31.2797C71.4334 28.3769 70.495 26.2288 67.2694 24.0226C69.2634 22.1648 70.495 20.0747 69.3807 17.288C68.4424 14.9657 66.5656 13.6885 64.161 13.6304C60.3489 13.4563 56.5368 13.5724 52.666 13.5724ZM99.5258 24.429C103.279 20.307 102.634 15.256 97.9424 14.4432C93.661 13.6885 89.1451 14.2691 84.7465 14.2691C84.7465 21.5842 84.7465 28.8994 84.7465 36.2726C88.7932 36.2726 92.7227 36.3887 96.6521 36.2146C100.112 36.0984 102.048 34.4728 102.81 31.3958C103.631 28.4349 102.693 26.4029 99.5258 24.429ZM144.04 35.8082C144.04 28.4349 144.04 21.1198 144.04 13.6304C142.632 13.6304 141.401 13.6304 139.817 13.6304C139.817 18.275 139.817 22.8034 139.817 27.3318C139.7 27.3318 139.583 27.3899 139.465 27.3899C137.295 23.7323 135.067 20.0747 132.897 16.4172C130.903 13.1079 130.785 13.0499 126.856 13.8046C126.856 21.1778 126.856 28.551 126.856 35.9823C128.263 35.9823 129.495 35.9823 131.079 35.9823C131.079 31.3958 131.079 26.8674 131.079 21.8164C133.542 25.9385 135.888 29.3638 137.764 33.0795C139.113 35.692 140.873 36.7951 144.04 35.8082ZM8.56262 13.5724C8.56262 21.1198 8.56262 28.493 8.56262 35.9243C12.1988 35.9243 15.7177 36.1565 19.1779 35.8662C22.6968 35.5759 25.1014 33.3698 26.0984 30.0605C27.2714 26.2868 27.2714 22.4551 25.8052 18.7975C24.5736 15.6624 22.169 13.8627 18.826 13.6304C15.4831 13.3982 12.0815 13.5724 8.56262 13.5724ZM153.365 36.0404C153.365 33.9503 152.954 31.9183 153.482 30.2347C153.951 28.551 155.359 27.1577 156.59 25.3579C158.526 28.7833 160.227 31.7442 161.927 34.647C162.279 35.2276 162.807 35.9823 163.394 36.0404C164.977 36.2145 166.619 36.0984 168.672 36.0984C165.622 31.2217 162.807 26.8093 160.051 22.397C162.749 19.4361 165.329 16.7074 168.203 13.5724C166.913 13.5724 166.267 13.6304 165.622 13.5724C163.159 13.166 161.4 14.0949 159.875 16.0688C157.998 18.5072 155.828 20.6553 153.306 23.384C153.306 19.7264 153.306 16.7074 153.306 13.6885C151.723 13.6885 150.374 13.6885 148.966 13.6885C148.966 21.2359 148.966 28.6091 148.966 36.0404C150.432 36.0404 151.723 36.0404 153.365 36.0404ZM124.627 35.9823C121.695 28.551 118.997 21.41 116.006 14.3852C115.713 13.6885 113.66 13.6304 112.37 13.6304C111.783 13.6304 110.904 14.211 110.728 14.7916C109.32 18.2169 108.088 21.7003 106.798 25.1257C105.449 28.6672 104.1 32.2667 102.576 36.0984C104.159 36.0984 105.391 36.2145 106.564 36.0404C106.974 35.9823 107.619 35.4598 107.678 35.0534C108.206 31.0475 110.845 30.4669 114.188 30.9314C114.54 30.9894 114.95 30.9894 115.302 30.9314C117.238 30.525 118.352 31.3958 118.645 33.2536C119.056 35.8082 120.581 36.5048 122.985 36.0984C123.337 36.0404 123.806 36.0404 124.627 35.9823ZM48.9125 20.9456C48.2088 17.5202 46.8012 14.8496 43.4583 13.7465C39.8221 12.5273 36.3618 12.9337 33.3708 15.4882C29.5587 18.7394 29.5 23.0937 29.8519 27.506C30.2624 32.6731 34.6024 36.5629 39.6461 36.5629C44.7485 36.5629 48.2088 33.3698 48.8539 27.9124C47.3877 27.8544 45.9801 27.7963 44.5139 27.6802C44.2793 28.2608 44.0447 28.7252 43.8688 29.1897C42.9891 31.2797 41.5815 32.4989 39.1769 32.3247C37.007 32.2086 35.1302 30.8733 34.837 28.4349C34.5437 25.8804 34.6024 23.2679 35.0129 20.7134C35.3062 18.7394 36.831 17.4622 39.001 17.288C41.171 17.0558 42.8131 17.7525 43.8688 19.7845C44.162 20.307 44.9831 20.7134 45.6869 20.8295C46.6839 21.0617 47.6809 20.9456 48.9125 20.9456Z" fill="#2E3540"/>
<path d="M57.1821 26.519C59.5281 26.519 61.6394 26.4609 63.7507 26.519C65.3342 26.577 66.038 27.6801 66.0966 29.1896C66.0966 30.641 65.5102 31.8021 63.868 31.8602C61.698 31.9763 59.5281 31.8602 57.1821 31.8602C57.1821 30.1765 57.1821 28.3768 57.1821 26.519Z" fill="#2E3540"/>
<path d="M57.0649 22.2808C57.0649 20.6552 57.0649 19.2038 57.0649 17.5202C59.1176 17.5202 61.1703 17.2879 63.1644 17.6363C63.9854 17.8104 65.0997 19.0296 65.2757 19.9005C65.5103 21.1777 64.4546 22.2228 62.9884 22.2808C61.1117 22.3389 59.2349 22.2808 57.0649 22.2808Z" fill="#2E3540"/>
<path d="M89.2622 32.2667C89.2622 30.2927 89.2622 28.6091 89.2622 26.519C91.6081 26.6352 93.9541 26.6932 96.2413 26.9835C97.8248 27.1577 98.4113 28.4349 98.294 29.8283C98.1767 31.3378 97.3556 32.2667 95.7721 32.2667C93.6608 32.3247 91.5495 32.2667 89.2622 32.2667Z" fill="#2E3540"/>
<path d="M89.3213 22.6293C89.3213 20.8876 89.3213 19.4942 89.3213 17.8687C91.2567 17.8687 93.1334 17.8687 95.0102 17.8687C96.4764 17.8687 97.3561 18.5073 97.532 19.9587C97.708 21.5843 96.7696 22.4551 95.3034 22.5713C93.3094 22.7454 91.374 22.6293 89.3213 22.6293Z" fill="#2E3540"/>
<path d="M13.1372 17.4041C16.0696 17.7524 19.4126 16.5332 21.0547 19.7263C22.8141 23.1517 22.8141 27.0415 20.8788 30.3507C19.178 33.1955 15.8937 31.8022 13.1372 32.1505C13.1372 27.1576 13.1372 22.455 13.1372 17.4041Z" fill="#2E3540"/>
<path d="M113.66 19.9006C114.481 22.1648 115.302 24.4871 116.182 26.9255C114.246 26.9255 112.604 26.9255 110.669 26.9255C111.549 24.4871 112.311 22.1648 113.132 19.8425C113.308 19.8425 113.484 19.8425 113.66 19.9006Z" fill="#2E3540"/>
</g>
<defs>
<clipPath id="clip0">
<rect width="177" height="49" fill="white" transform="translate(0 0.277344)"/>
</clipPath>
</defs>
</svg>
