<svg width="190" height="40" viewBox="0 0 190 40" fill="none" xmlns="http://www.w3.org/2000/svg">
<path d="M26.5225 0.277344C27.6757 0.774403 28.8288 1.27146 30.1741 1.84499C29.6744 2.68617 29.2901 3.3744 28.9057 4.0244C27.5219 3.64205 26.2534 3.18323 24.985 2.99205C23.4859 2.80087 22.1406 3.2597 21.6024 4.82734C21.0643 6.47146 21.9868 7.50381 23.3321 8.23028C24.639 8.91852 25.9844 9.49205 27.2528 10.2185C29.9051 11.6715 31.0582 13.8891 30.6354 16.4891C30.251 18.9362 28.4444 20.7332 25.5231 21.2303C22.7171 21.7273 20.0649 21.2685 17.5664 19.395C18.0277 18.6685 18.4505 18.0185 18.7196 17.6362C20.6415 18.0185 22.3327 18.5538 24.0625 18.7068C25.5616 18.8215 26.7916 17.9421 27.2144 16.4126C27.6372 14.845 26.7147 13.8509 25.4847 13.1626C24.3315 12.5126 23.1015 11.9391 21.9099 11.3273C19.4883 10.1038 17.9123 8.30676 18.1045 5.47734C18.2967 2.64793 20.1033 1.23323 22.7171 0.583226C22.8709 0.46852 22.9478 0.353814 23.0631 0.277344C24.2162 0.277344 25.3694 0.277344 26.5225 0.277344Z" fill="#2E353F"/>
<path d="M0 38.1303C0.307506 36.3332 0.653449 34.5361 0.922517 32.7008C1.19158 30.9038 1.46065 29.0685 1.69128 27.2714C3.53631 26.6597 4.57415 27.042 5.0354 29.0303C5.5351 31.2861 6.38074 33.4655 7.45701 35.6832C8.1489 33.4655 8.84079 31.2479 9.53267 29.0685C10.1861 27.0038 10.1861 27.0038 12.6077 27.1185C12.8768 28.992 13.1843 30.9038 13.4534 32.8155C13.7224 34.7655 13.9915 36.7155 14.2606 38.8185C13.4149 38.8185 12.6846 38.8185 11.8005 38.8185C11.493 36.5244 11.1471 34.2303 10.8396 31.9361C10.7243 31.9361 10.6089 31.9361 10.4936 31.8979C9.91706 33.8097 9.4558 35.7597 8.76391 37.6332C8.57172 38.1685 7.87983 38.742 7.30326 38.9332C6.38074 39.2391 5.84261 38.7038 5.57354 37.7097C5.0354 35.7597 4.30508 33.8861 3.34412 31.9744C2.99818 34.2685 2.69067 36.5244 2.38317 38.895C1.49909 38.895 0.768764 38.895 0 38.895C0 38.6273 0 38.3979 0 38.1303Z" fill="#2E353F"/>
<path d="M26.9069 39.2774C23.9856 38.398 23.0247 36.2951 23.14 33.4274C23.2169 31.3627 23.14 29.2598 23.14 27.1186C24.0625 27.1186 24.716 27.1186 25.6385 27.1186C25.6385 29.6039 25.6 32.0127 25.6385 34.4215C25.6769 36.1421 26.4457 37.2127 28.2907 37.2509C30.0589 37.2892 31.0198 36.448 31.0967 34.6127C31.212 32.1656 31.1351 29.7186 31.1351 27.1568C31.9808 27.1186 32.5958 27.0803 33.2877 27.0421C33.2877 29.9862 33.403 32.8156 33.2492 35.6451C33.1724 37.5951 31.5195 38.4362 29.982 39.2774C28.9442 39.2774 27.9448 39.2774 26.9069 39.2774Z" fill="#2E353F"/>
<path d="M62.6544 39.2773C59.6947 38.4744 58.6953 36.3714 58.8106 33.5038C58.8875 31.4391 58.8106 29.3362 58.8106 27.1567C59.6562 27.1567 60.3481 27.1567 61.2706 27.1567C61.2706 29.5273 61.2322 31.8597 61.2706 34.192C61.3091 35.492 61.5781 36.7538 63.1157 37.1744C65.1529 37.7479 66.7289 36.7156 66.8057 34.5744C66.8826 32.1656 66.8442 29.7567 66.8442 27.195C67.6129 27.195 68.2664 27.195 68.9967 27.195C68.9967 29.9097 69.112 32.6244 68.9583 35.3391C68.8429 37.5185 67.3054 38.6273 65.3451 39.2773C64.4226 39.2773 63.5385 39.2773 62.6544 39.2773Z" fill="#2E353F"/>
<path d="M144.143 39.2773C141.222 38.4361 140.223 36.3332 140.338 33.4656C140.415 31.4008 140.338 29.2979 140.338 27.1185C141.184 27.0803 141.799 27.042 142.798 27.0038C142.798 29.4126 142.76 31.7067 142.798 34.0391C142.836 35.3391 142.99 36.6391 144.528 37.1361C146.603 37.8244 148.256 36.7538 148.333 34.4979C148.41 32.0891 148.333 29.6803 148.333 27.1567C149.102 27.1185 149.717 27.0803 150.755 27.042C150.601 30.1008 150.793 33.1214 150.217 35.9891C149.986 37.2508 148.256 38.2067 147.218 39.3156C146.181 39.2773 145.143 39.2773 144.143 39.2773Z" fill="#2E353F"/>
<path d="M63.7303 9.87446C64.845 10.8303 66.2288 11.5568 66.9591 12.7039C68.612 15.2656 67.4204 18.745 64.4222 19.7774C62.1928 20.5421 59.6943 20.7333 57.3112 20.9627C55.6967 21.1539 54.0055 21.0009 52.2373 21.0009C52.2373 14.195 52.2373 7.5421 52.2373 0.545044C55.6583 0.73622 58.964 0.774456 62.2312 1.11857C64.3453 1.34799 65.9597 2.53328 66.3441 4.78916C66.6901 6.96857 65.8829 8.65093 63.8841 9.72151C63.7688 9.75975 63.6535 9.91269 63.7303 9.87446ZM55.8505 18.4009C57.7724 18.2862 59.579 18.3245 61.3087 18.0568C62.8462 17.8274 63.7688 16.8715 63.8072 15.1509C63.8456 13.5068 63.1922 12.3597 61.5778 12.0539C59.7328 11.7097 57.8493 11.6333 55.8121 11.4039C55.8505 13.8509 55.8505 15.9156 55.8505 18.4009ZM55.8121 9.10975C57.6571 8.91857 59.3484 9.03328 60.8475 8.49798C61.6547 8.1921 62.5003 6.85387 62.5772 5.93622C62.6541 5.13328 61.8084 3.71857 61.0781 3.5274C59.4637 3.03034 57.6571 3.10681 55.8505 2.91563C55.8121 5.09504 55.8121 6.8921 55.8121 9.10975Z" fill="#2E353F"/>
<path d="M0.384766 21.4214C0.384766 14.1185 0.384766 7.50376 0.384766 0.35376C4.03639 0.736113 7.64958 0.774348 11.0706 1.57729C14.9913 2.49494 17.0285 5.89788 17.1438 10.2949C17.2591 14.8832 15.2219 18.7067 11.3012 19.8538C7.88021 20.8096 4.19015 20.8861 0.384766 21.4214ZM3.92108 3.06847C3.92108 8.23023 3.92108 13.2008 3.92108 18.2861C7.2652 18.4391 10.5324 18.5538 12.3775 15.342C14.1456 12.2832 14.1841 8.88023 12.3006 5.89788C10.3787 2.87729 7.14989 2.992 3.92108 3.06847Z" fill="#2E353F"/>
<path d="M131.881 12.7803C131.881 15.4568 131.881 18.095 131.881 20.8479C130.69 20.8479 129.69 20.8479 128.537 20.8479C128.537 14.2332 128.537 7.5803 128.537 0.430298C131.804 0.697945 135.11 0.73618 138.339 1.27147C140.645 1.65383 142.183 3.29795 142.452 5.745C142.721 8.07736 141.606 9.79795 139.723 11.0597C139.184 11.4038 138.646 11.7097 137.878 12.1685C139.8 15.0362 141.721 17.8274 143.643 20.695C140.376 21.4597 140.03 21.3068 138.339 18.8215C137.224 17.1774 136.071 15.6097 135.033 13.8891C134.341 12.7038 133.457 12.2832 131.881 12.7803ZM131.958 10.1421C134.418 9.95089 137.032 10.6391 138.3 8.15383C138.8 7.15971 138.646 5.17147 137.954 4.3303C136.455 2.495 134.072 3.0303 131.958 3.06853C131.958 5.51559 131.958 7.65677 131.958 10.1421Z" fill="#2E353F"/>
<path d="M36.5164 13.7745C36.5164 16.0686 36.5164 18.4009 36.5164 20.848C35.3248 20.848 34.2869 20.848 33.1338 20.848C33.1338 14.1568 33.1338 7.58034 33.1338 0.545044C35.9782 0.73622 38.8226 0.65975 41.6286 1.11857C44.5499 1.5774 46.1643 3.60387 46.3565 6.35681C46.5487 9.30093 45.1649 11.7098 42.3974 12.6656C40.6292 13.2392 38.6689 13.3539 36.5164 13.7745ZM36.5932 10.6392C39.3992 11.098 41.2442 10.4862 42.1668 8.8421C42.974 7.4274 43.0508 5.93622 42.013 4.55975C40.9367 3.14504 38.8226 2.68622 36.5548 3.37446C36.5932 5.74504 36.5932 8.15387 36.5932 10.6392Z" fill="#2E353F"/>
<path d="M158.75 12.1686C158.673 19.2803 154.214 22.645 148.333 20.8862C147.833 20.7333 147.372 20.5421 146.911 20.3127C143.259 18.3627 142.067 11.6715 144.604 7.65679C146.757 4.29208 152.254 3.3362 155.713 5.8215C158.211 7.58032 158.75 10.2186 158.75 12.1686ZM155.444 12.8186C155.213 11.6333 155.136 10.3333 154.752 9.14797C154.214 7.35091 152.83 6.50973 150.947 6.54797C149.063 6.5862 147.564 7.50385 147.295 9.33914C146.988 11.6333 146.988 14.0038 147.257 16.298C147.487 18.1333 149.025 19.0127 150.908 19.0509C152.869 19.0891 154.252 18.2097 154.829 16.3362C155.175 15.2274 155.252 14.0421 155.444 12.8186Z" fill="#2E353F"/>
<path d="M87.9467 4.82738C90.5605 4.44503 90.5605 4.44503 91.7905 7.19797C93.5587 11.1362 95.2884 15.0744 97.0565 19.0509C97.3256 19.6244 97.5178 20.198 97.7869 20.8097C95.5959 21.3068 93.9046 21.2303 93.2512 18.7068C93.1359 18.248 92.2902 17.8274 91.7136 17.7127C90.6374 17.5597 89.5227 17.7509 88.4848 17.6362C86.486 17.4068 85.1791 17.8656 84.4872 20.045C84.2951 20.695 82.6422 20.8862 81.6428 21.2686C81.5275 21.0774 81.4122 20.8862 81.2969 20.7333C83.4494 15.495 85.6404 10.295 87.9467 4.82738ZM89.0998 9.03326C88.1773 11.3656 87.4086 13.1627 86.6398 15.0744C88.4464 15.0744 89.907 15.0744 91.6368 15.0744C90.8296 13.1244 90.0608 11.3274 89.0998 9.03326Z" fill="#2E353F"/>
<path d="M110.855 7.61855C109.164 8.42149 108.088 8.49796 106.819 7.2362C105.282 5.74502 102.437 6.73914 101.63 8.88032C100.669 11.4038 100.669 14.0421 101.861 16.4891C103.014 18.898 105.436 19.548 108.703 18.5538C109.933 18.1715 109.933 18.1715 110.586 19.4715C106.973 22.4538 101.323 21.6509 98.8627 17.7127C97.0561 14.8068 96.8639 11.6715 98.1324 8.5362C99.8236 4.33032 106.051 2.91561 109.51 5.85973C109.971 6.35679 110.317 6.96855 110.855 7.61855Z" fill="#2E353F"/>
<path d="M173.702 7.65675C172.165 8.19204 171.089 8.8038 169.782 7.31263C168.436 5.82145 165.515 6.62439 164.631 8.61263C163.324 11.442 163.439 14.3479 165.054 17.0244C166.168 18.8979 168.09 19.242 170.128 18.9362C171.012 18.8215 171.857 18.4773 172.818 18.2097C173.049 18.6303 173.241 19.0891 173.472 19.4715C169.513 22.6832 163.516 21.4597 161.325 17.0244C160.095 14.5009 159.903 11.8626 160.749 9.22439C162.209 4.63616 168.552 2.80086 172.319 5.82145C172.78 6.28028 173.164 6.96851 173.702 7.65675Z" fill="#2E353F"/>
<path d="M168.475 34.7656C168.475 32.2421 168.475 29.7568 168.475 27.1568C169.243 27.1568 169.858 27.1568 170.589 27.1568C170.589 31.0568 170.589 34.9186 170.589 38.7803C169.128 39.3539 168.206 38.8186 167.36 37.595C165.784 35.3009 164.093 33.1215 162.171 30.5215C162.171 33.5421 162.171 36.1039 162.171 38.8568C161.44 38.9333 160.825 38.9715 160.057 39.048C160.057 35.0333 160.057 31.1333 160.057 27.2715C161.594 26.7745 162.594 27.2333 163.478 28.5715C164.9 30.7509 166.514 32.8156 168.052 34.9186C168.206 34.8039 168.321 34.8039 168.475 34.7656Z" fill="#2E353F"/>
<path d="M72.6099 18.2862C75.3006 18.2862 77.7222 18.2862 80.1823 18.2862C80.1438 20.4274 79.2213 21.1538 77.1841 21.0009C74.6472 20.8097 72.1102 20.9627 69.458 20.9627C69.458 15.5332 69.458 10.2568 69.458 4.8656C70.4958 4.8656 71.4568 4.8656 72.6099 4.8656C72.6099 9.26266 72.6099 13.6215 72.6099 18.2862Z" fill="#2E353F"/>
<path d="M179.737 38.9333C179.737 34.9186 179.737 31.0568 179.737 27.0803C183.119 27.1568 186.694 26.3538 188.885 29.7568C190.307 31.9744 190.154 34.498 188.616 36.6009C186.348 39.6597 182.966 38.9333 179.737 38.9333ZM182.12 37.1744C184.119 37.2891 185.81 37.098 186.656 35.3774C187.463 33.695 187.54 31.8597 186.464 30.2921C185.426 28.8009 183.85 28.7627 182.158 28.9921C182.12 31.745 182.12 34.3833 182.12 37.1744Z" fill="#2E353F"/>
<path d="M77.4141 38.6656C78.99 34.8803 80.566 31.1332 82.2957 27.042C83.6411 26.6214 84.5251 27.3479 85.217 29.1067C86.4855 32.3567 87.9846 35.492 89.4452 38.742C87.8308 39.2391 86.7161 39.1244 86.1395 37.442C86.0242 37.0597 85.3323 36.7156 84.8711 36.6391C83.8717 36.5244 82.8339 36.6773 81.796 36.6009C80.8351 36.5244 80.3738 36.9067 79.9125 37.7479C79.5282 38.4362 78.6441 38.8185 77.9522 39.3156C77.7984 39.0862 77.6063 38.895 77.4141 38.6656ZM85.1786 34.6891C84.5636 33.2362 84.0254 31.9362 83.2951 30.2538C82.6032 31.9744 82.1035 33.2362 81.527 34.6891C82.7954 34.6891 83.8333 34.6891 85.1786 34.6891Z" fill="#2E353F"/>
<path d="M179.314 12.4744C181.313 10.2185 183.273 8.19203 185.003 6.01262C186.156 4.55968 187.463 4.52144 189.308 4.94203C187.155 7.46556 185.157 9.79791 183.081 12.245C185.349 15.0744 187.578 17.8273 189.961 20.7714C187.732 21.1156 186.041 21.1538 184.657 19.1273C183.119 16.8332 181.197 14.7685 179.314 12.4744Z" fill="#2E353F"/>
<path d="M126.269 5.09499C124.27 7.46557 122.233 9.79793 120.158 12.2832C122.425 15.1126 124.655 17.8656 127.038 20.8097C124.77 21.2303 123.079 21.1538 121.734 19.1273C120.158 16.8332 118.236 14.7685 116.391 12.5126C118.582 10.0273 120.58 7.58028 122.848 5.36263C123.54 4.71263 124.962 4.82734 126.039 4.55969C126.115 4.71263 126.192 4.90381 126.269 5.09499Z" fill="#2E353F"/>
<path d="M112.854 4.78906C113.969 4.78906 114.892 4.78906 115.968 4.78906C115.968 10.142 115.968 15.4567 115.968 20.8861C114.93 20.8861 113.931 20.8861 112.854 20.8861C112.854 15.5332 112.854 10.2567 112.854 4.78906Z" fill="#2E353F"/>
<path d="M178.891 20.8861C177.815 20.8861 176.854 20.8861 175.816 20.8861C175.816 15.4949 175.816 10.2185 175.816 4.78906C176.854 4.78906 177.777 4.78906 178.891 4.78906C178.891 10.142 178.891 15.4185 178.891 20.8861Z" fill="#2E353F"/>
<path d="M123.618 27.1185C126.039 27.1185 128.269 27.1185 130.46 27.1185C130.652 28.4185 130.652 28.4185 126.116 29.0303C126.116 29.9097 126.116 30.8274 126.116 31.9362C127.346 31.9362 128.614 31.9362 130.037 31.9362C130.114 32.6244 130.152 33.1215 130.229 33.8479C128.807 33.8479 127.577 33.8479 126.039 33.8479C126.039 35.6068 126.039 37.2126 126.039 38.895C125.078 38.895 124.386 38.895 123.579 38.895C123.618 34.9568 123.618 31.1332 123.618 27.1185Z" fill="#2E353F"/>
<path d="M50.8151 27.1949C50.9304 30.1773 48.3551 28.0361 47.3557 29.4508C47.3557 32.2802 47.3557 35.492 47.3557 38.8949C46.51 38.9332 45.8566 38.9714 44.9341 39.0097C44.9341 35.6449 44.9341 32.3567 44.9341 29.6038C43.8962 28.0361 41.2824 30.2155 41.4362 27.1949C44.5497 27.1949 47.5863 27.1949 50.8151 27.1949Z" fill="#2E353F"/>
<path d="M98.0947 27.1567C98.8635 27.1567 99.4785 27.1567 100.439 27.1567C100.439 29.7185 100.555 32.3185 100.401 34.8803C100.286 36.8303 100.862 37.5567 102.823 37.2891C103.745 37.1744 104.706 37.2509 105.667 37.2509C105.782 37.4038 105.898 37.5567 106.013 37.7097C105.552 38.1303 105.129 38.895 104.668 38.895C102.515 39.0097 100.363 38.9332 98.1332 38.9332C98.0947 34.9567 98.0947 31.1714 98.0947 27.1567Z" fill="#2E353F"/>
</svg>
