<svg width="60" height="77" viewBox="0 0 60 77" fill="none" xmlns="http://www.w3.org/2000/svg">
<path d="M0.386536 63.6211C20.2022 63.6211 40.0477 63.6211 59.8634 63.6211C59.8634 67.8951 59.8634 72.169 59.8634 76.4729C40.0477 76.4729 20.2022 76.4729 0.386536 76.4729C0.386536 72.169 0.386536 67.8951 0.386536 63.6211ZM37.7165 72.3484C37.7165 71.9 37.8958 71.3621 37.6866 71.0333C37.2084 70.1665 37.1486 69.3596 37.3877 68.4032C37.4774 67.9847 36.7302 66.9386 36.2819 66.8789C34.9369 66.6697 33.5621 66.8191 32.247 66.8191C32.247 69.0308 32.247 71.0931 32.247 73.2749C34.1897 72.976 36.1623 73.8726 37.7464 72.3484C37.8062 72.6472 37.8958 73.1852 37.9556 73.1852C38.5235 73.1254 39.2109 73.1852 39.5695 72.8564C40.7053 71.8104 41.7812 71.7805 42.7974 72.8564C42.9768 73.0358 43.2756 73.1852 43.5446 73.1852C44.6804 73.2151 45.7862 73.2151 47.1013 73.2151C47.1013 72.0196 47.1013 70.9735 47.1013 69.6584C49.5222 73.4542 49.5222 73.4542 51.5546 72.976C51.5546 70.9137 51.5546 68.8515 51.5546 66.7892C50.897 66.7892 50.389 66.7892 49.7015 66.7892C49.7015 67.8951 49.7015 68.8814 49.7015 70.1665C48.237 68.7319 48.1772 65.773 45.0988 66.9387C45.0988 68.7618 45.0988 70.6149 45.0988 72.4679C44.2321 71.0632 43.6343 69.5987 43.0066 68.1641C42.6779 67.4169 42.5284 66.6398 41.3329 66.6398C40.1374 66.6398 39.988 67.4467 39.6592 68.1939C39.0017 69.5688 38.3441 70.9436 37.7165 72.3484ZM9.592 73.1553C10.668 73.1553 11.6543 73.1852 12.6107 73.1553C14.7626 73.0955 15.8386 72.1391 15.9282 70.1665C16.0179 68.0744 15.0017 66.8789 12.9096 66.6995C11.8336 66.6099 10.7576 66.6697 9.592 66.6697C9.592 68.9112 9.592 70.9735 9.592 73.1553ZM2.53846 66.7294C2.53846 68.9112 2.53846 71.0034 2.53846 73.0956C3.196 73.0956 3.70409 73.0956 4.33174 73.0956C4.39151 72.3185 4.48117 71.6012 4.54095 70.854C5.25826 70.854 5.8859 70.854 6.54344 70.854C6.60321 71.631 6.66299 72.3782 6.72277 73.0657C7.41019 73.0657 7.94817 73.0657 8.57581 73.0657C8.57581 70.9137 8.57581 68.8515 8.57581 66.7593C7.88839 66.7593 7.32052 66.7593 6.72277 66.7593C6.66299 67.5364 6.60321 68.2238 6.57333 68.9411C5.88591 68.9411 5.25826 68.9411 4.57084 68.9411C4.51106 68.1641 4.45129 67.4467 4.39151 66.7294C3.64431 66.7294 3.10633 66.7294 2.53846 66.7294ZM54.4537 73.0956C54.4836 72.2288 54.5434 71.4816 54.5733 70.5252C56.7551 73.3645 56.7551 73.3645 58.8472 72.9162C58.0402 71.7506 57.2931 70.6149 56.516 69.4791C57.2034 68.5526 57.8609 67.7157 58.4886 66.849C56.5459 65.9822 55.6193 67.2674 54.6031 68.5825C54.5135 67.8054 54.4537 67.2674 54.4238 66.7294C53.7962 66.7294 53.2283 66.7294 52.6305 66.7294C52.6305 68.8814 52.6305 70.9436 52.6305 73.0657C53.2582 73.0956 53.7663 73.0956 54.4537 73.0956ZM28.3915 70.6447C27.4052 70.5252 26.5683 70.2263 25.9407 71.3023C25.8211 71.5115 24.5061 71.3621 24.4762 71.2724C24.3566 70.4056 24.3267 69.509 24.4762 68.6423C24.5061 68.4928 25.4027 68.3434 25.851 68.4629C26.5982 68.6124 27.3155 68.971 28.242 69.2998C27.8834 67.2076 26.927 66.5202 25.0739 66.6398C23.1611 66.7593 21.9955 67.9548 21.9058 69.9274C21.846 71.7805 22.8921 73.0657 24.6256 73.245C26.8971 73.4243 27.9432 72.7668 28.3915 70.6447ZM16.6754 66.7593C16.6754 68.971 16.6754 71.0333 16.6754 73.0956C17.3628 73.0956 17.9307 73.0956 18.5584 73.0956C18.6181 72.2886 18.648 71.6012 18.7078 70.7643C19.6343 70.7643 20.4114 70.7643 21.2184 70.7643C21.2184 70.2263 21.2184 69.8079 21.2184 69.3895C20.2919 69.24 19.4251 69.1205 18.5883 69.0009C18.6181 68.8216 18.648 68.6423 18.648 68.4629C19.5447 68.4032 20.4413 68.3434 21.4276 68.2836C21.4276 67.7456 21.4276 67.2674 21.4276 66.7294C19.8435 66.7593 18.3491 66.7593 16.6754 66.7593Z" fill="black"/>
<path d="M59.8636 27.4567C56.7553 27.4567 53.6171 27.4567 50.2696 27.4567C50.2696 21.6883 50.2696 16.1292 50.2696 10.3608C44.4714 10.3608 38.8823 10.3608 32.9645 10.3608C32.9645 7.07312 32.9645 3.96478 32.9645 0.856445C41.9309 0.856445 50.8973 0.856445 59.8636 0.856445C59.8636 9.73315 59.8636 18.58 59.8636 27.4567Z" fill="#2E353F"/>
<path d="M27.2856 0.857056C27.2856 3.93551 27.2856 6.98407 27.2856 10.212C26.5384 10.2418 26.0303 10.3016 25.4923 10.3016C20.77 10.3016 16.0477 10.3315 11.3254 10.2717C10.1299 10.2418 9.80116 10.6603 9.83104 11.796C9.89082 16.3689 9.86093 20.9417 9.86093 25.5146C9.86093 26.0525 9.86093 26.5905 9.86093 27.4274C6.60315 27.4573 3.49481 27.4573 0.386475 27.4573C0.386475 18.6105 0.386475 9.76364 0.386475 0.857056C9.35284 0.857056 18.3192 0.857056 27.2856 0.857056Z" fill="#2E353F"/>
<path d="M59.8636 57.9424C53.9757 57.9125 48.1176 57.8826 42.2297 57.8527C39.2409 57.8527 36.282 57.8527 33.1737 57.8527C33.1737 55.3122 33.1737 52.8913 33.1737 50.321C33.7117 50.2911 34.2497 50.2313 34.7877 50.2313C39.3605 50.2313 43.9632 50.1715 48.5361 50.2612C49.8511 50.2911 50.2696 49.8726 50.2696 48.5875C50.2098 44.0445 50.2995 39.5314 50.2397 34.9885C50.2098 33.6734 50.5087 33.1354 51.9732 33.1952C54.6033 33.2849 57.2334 33.1653 59.8935 33.1354C59.8636 41.3845 59.8636 49.6634 59.8636 57.9424Z" fill="#2E353F"/>
<path d="M0.386536 33.1354C3.46499 33.1354 6.54344 33.1354 9.77133 33.1354C9.80122 33.8826 9.86099 34.3907 9.86099 34.9287C9.86099 39.5016 9.89088 44.0744 9.8311 48.6771C9.80122 49.9324 10.2196 50.2911 11.445 50.2911C16.0777 50.2313 20.7103 50.2612 25.3429 50.2612C25.8809 50.2612 26.4189 50.2612 27.0764 50.2612C27.0764 52.8017 27.0764 55.2226 27.0764 57.8527C26.4787 57.8527 25.9108 57.8527 25.3429 57.8527C17.6318 57.8527 9.92077 57.8527 2.2097 57.8527C1.61194 57.8527 1.01418 57.9125 0.416424 57.9424C0.386536 49.6634 0.386536 41.3845 0.386536 33.1354Z" fill="#2E353F"/>
<path d="M19.2757 40.8164C19.2757 33.7031 19.2757 26.7093 19.2757 19.596C26.4189 19.596 33.5322 19.596 40.7651 19.596C40.7651 26.6197 40.7651 33.6433 40.7651 40.8164C33.6518 40.8164 26.5384 40.8164 19.2757 40.8164Z" fill="#2E353F"/>
<path d="M37.7168 72.3486C38.3743 70.9439 39.002 69.569 39.6595 68.1643C40.0182 67.4171 40.1377 66.64 41.3332 66.6101C42.5287 66.6101 42.6782 67.3573 43.007 68.1344C43.6346 69.569 44.2324 71.0335 45.0991 72.4383C45.0991 70.5852 45.0991 68.7322 45.0991 66.909C48.1776 65.7135 48.2373 68.7023 49.7018 70.1369C49.7018 68.8816 49.7018 67.8654 49.7018 66.7596C50.3893 66.7596 50.8974 66.7596 51.5549 66.7596C51.5549 68.8517 51.5549 70.914 51.5549 72.9463C49.5225 73.4246 49.5225 73.4246 47.1016 69.6288C47.1016 70.9439 47.1016 71.96 47.1016 73.1854C45.7865 73.1854 44.6807 73.2153 43.5449 73.1556C43.3058 73.1556 42.9771 73.0061 42.7977 72.8268C41.7815 71.7209 40.7056 71.7807 39.5698 72.8268C39.2112 73.1556 38.4939 73.0958 37.9559 73.1556C37.926 73.1556 37.8363 72.6176 37.7467 72.3187C37.7467 72.2888 37.7168 72.3486 37.7168 72.3486Z" fill="white"/>
<path d="M37.7464 72.2888C36.1624 73.843 34.1898 72.9165 32.2471 73.2154C32.2471 71.0336 32.2471 69.0012 32.2471 66.7596C33.5621 66.7596 34.937 66.6101 36.2819 66.8194C36.7601 66.909 37.5073 67.9252 37.3878 68.3436C37.1487 69.3299 37.1786 70.107 37.6867 70.9738C37.866 71.3025 37.7166 71.8405 37.7166 72.2888C37.7166 72.3486 37.7464 72.2888 37.7464 72.2888Z" fill="white"/>
<path d="M9.59198 73.155C9.59198 70.9433 9.59198 68.881 9.59198 66.6693C10.7576 66.6693 11.8336 66.5796 12.9095 66.6992C15.0017 66.8785 16.0179 68.1039 15.9282 70.1662C15.8385 72.1388 14.7626 73.0952 12.6107 73.155C11.6542 73.1849 10.6679 73.155 9.59198 73.155ZM11.5646 71.7801C12.4612 71.3916 13.2682 71.272 13.6268 70.7938C13.9257 70.4053 13.8659 69.419 13.5671 69.0304C13.2084 68.5821 12.4014 68.4626 11.5646 68.1338C11.5646 69.419 11.5646 70.3455 11.5646 71.7801Z" fill="white"/>
<path d="M2.53866 66.73C3.10653 66.73 3.64451 66.73 4.33193 66.73C4.39171 67.4473 4.45148 68.1646 4.51126 68.9417C5.19868 68.9417 5.82632 68.9417 6.51375 68.9417C6.57352 68.1945 6.60341 67.5369 6.66319 66.7599C7.26094 66.7599 7.82881 66.7599 8.51623 66.7599C8.51623 68.852 8.51623 70.9143 8.51623 73.0662C7.91848 73.0662 7.35061 73.0662 6.66319 73.0662C6.60341 72.3489 6.54363 71.6316 6.48386 70.8545C5.79644 70.8545 5.19868 70.8545 4.48137 70.8545C4.42159 71.6017 4.36182 72.319 4.27215 73.0961C3.6744 73.0961 3.13642 73.0961 2.47888 73.0961C2.53866 71.0039 2.53866 68.9118 2.53866 66.73Z" fill="white"/>
<path d="M54.454 73.0958C53.7665 73.0958 53.2584 73.0958 52.6308 73.0958C52.6308 70.9737 52.6308 68.9115 52.6308 66.7595C53.2584 66.7595 53.7964 66.7595 54.4241 66.7595C54.4838 67.3274 54.5436 67.8355 54.6034 68.6126C55.6196 67.2975 56.5162 66.0123 58.4888 66.8791C57.8313 67.7458 57.2036 68.5827 56.5162 69.5092C57.2933 70.645 58.0405 71.7508 58.8475 72.9463C56.7852 73.3946 56.7852 73.3946 54.5735 70.5553C54.5436 71.4818 54.5137 72.229 54.454 73.0958Z" fill="white"/>
<path d="M28.3918 70.6448C27.9435 72.737 26.8974 73.4244 24.6259 73.1853C22.9223 73.006 21.8463 71.7208 21.9061 69.8678C21.9659 67.925 23.1315 66.6996 25.0742 66.5801C26.9273 66.4904 27.8837 67.148 28.2423 69.2401C27.3158 68.9114 26.5985 68.5527 25.8513 68.4033C25.403 68.3136 24.4765 68.463 24.4765 68.5826C24.3569 69.4493 24.3569 70.346 24.4765 71.2127C24.4765 71.3024 25.8214 71.4518 25.941 71.2426C26.5686 70.2563 27.4354 70.5552 28.3918 70.6448Z" fill="white"/>
<path d="M16.6755 66.7595C18.3493 66.7595 19.8437 66.7595 21.4576 66.7595C21.4576 67.2975 21.4576 67.7757 21.4576 68.3136C20.4713 68.3734 19.5747 68.4332 18.678 68.493C18.6481 68.6723 18.6182 68.8516 18.6182 69.031C19.485 69.1505 20.3219 69.2701 21.2484 69.4195C21.2484 69.8379 21.2484 70.2564 21.2484 70.7943C20.4414 70.7943 19.6643 70.7943 18.7378 70.7943C18.678 71.6013 18.6481 72.3186 18.5884 73.1256C17.9607 73.1256 17.3928 73.1256 16.7054 73.1256C16.6755 71.0036 16.6755 68.9413 16.6755 66.7595Z" fill="white"/>
<path d="M11.565 71.7808C11.565 70.3461 11.565 69.4495 11.565 68.1344C12.372 68.4632 13.1789 68.5828 13.5675 69.0311C13.8664 69.4196 13.9261 70.4059 13.6273 70.7945C13.2686 71.2428 12.4616 71.3623 11.565 71.7808Z" fill="black"/>
<path d="M59.8634 63.6211H0.386536V76.4729H59.8634V63.6211Z" fill="#2E353F"/>
<path d="M43.5457 67.3275C44.7412 66.9689 45.5183 67.3574 45.9965 68.4334C46.2356 68.9415 46.6242 69.4197 47.0426 70.0772C47.0426 69.0311 47.0426 68.1644 47.0426 67.2677C47.6702 67.2677 48.2082 67.2677 48.7761 67.2677C48.7761 69.061 48.7761 70.8543 48.7761 72.7372C48.2979 72.7372 47.7898 72.7671 47.3116 72.7073C47.1323 72.6775 46.923 72.4981 46.8334 72.3487C46.3552 71.6314 45.877 70.9141 45.2792 70.1968C45.2792 71.0336 45.2792 71.8406 45.2792 72.7073C44.6516 72.7073 44.1435 72.7073 43.5457 72.7073C43.5457 70.8842 43.5457 69.0909 43.5457 67.3275Z" fill="white"/>
<path d="M35.685 69.8084C36.4322 70.4061 36.6116 70.9142 36.4023 71.6315C36.223 72.2592 35.6551 72.7075 34.8781 72.7374C33.7423 72.7673 32.6066 72.7374 31.4111 72.7374C31.4111 70.9142 31.4111 69.1209 31.4111 67.2978C32.5767 67.2978 33.6825 67.2679 34.8183 67.2978C35.416 67.3277 35.954 67.5668 36.1931 68.1944C36.4023 68.8221 36.1632 69.3302 35.685 69.8084ZM33.2043 71.4821C33.5331 71.4821 33.832 71.5419 34.101 71.4522C34.3401 71.3924 34.5194 71.1533 34.7286 70.974C34.5493 70.7947 34.37 70.5556 34.1309 70.4958C33.8619 70.4061 33.5331 70.4659 33.2043 70.4659C33.2043 70.8246 33.2043 71.1234 33.2043 71.4821ZM33.1147 68.4933C33.1446 68.8818 33.1745 69.1807 33.2342 69.4796C33.7722 69.36 34.5194 69.629 34.4895 68.9715C34.4596 68.2243 33.7124 68.6129 33.1147 68.4933Z" fill="white"/>
<path d="M11.4761 72.7071C11.4761 70.8541 11.4761 69.0608 11.4761 67.148C12.7015 67.2078 13.8671 67.2078 15.0327 67.3572C15.7202 67.417 16.1984 67.8952 16.4972 68.5228C17.1548 69.9276 16.826 72.5577 14.6143 72.7071C13.5981 72.7669 12.5819 72.7071 11.4761 72.7071ZM13.2992 68.4929C13.2992 69.5988 13.2992 70.4655 13.2992 71.3622C13.8671 71.3622 14.5545 71.4817 14.7339 70.8541C14.8833 70.2862 14.9132 69.5988 14.704 69.0907C14.5844 68.7619 13.8671 68.7022 13.2992 68.4929Z" fill="white"/>
<path d="M6.90312 67.2676C6.90312 67.8654 6.90312 68.4034 6.90312 69.031C7.47099 69.031 7.97908 69.031 8.57684 69.031C8.57684 68.4631 8.57684 67.8953 8.57684 67.2676C9.20448 67.2676 9.74246 67.2676 10.3402 67.2676C10.3402 69.0609 10.3402 70.8542 10.3402 72.7072C9.77235 72.7072 9.20448 72.7072 8.54695 72.7072C8.54695 72.0497 8.54695 71.3922 8.54695 70.7047C7.97908 70.7047 7.50087 70.7047 6.90312 70.7047C6.90312 71.3623 6.90312 72.0198 6.90312 72.7072C6.24558 72.7072 5.67771 72.7072 5.07996 72.7072C5.07996 70.8841 5.07996 69.1207 5.07996 67.2975C5.67771 67.2676 6.24558 67.2676 6.90312 67.2676Z" fill="white"/>
<path d="M51.7649 72.7073C51.1672 72.7073 50.6292 72.7073 50.0314 72.7073C50.0314 70.914 50.0314 69.1208 50.0314 67.2677C50.5993 67.2677 51.1373 67.2677 51.7649 67.2677C51.7649 67.8057 51.7649 68.3138 51.7649 68.8219C51.7948 68.8518 51.8546 68.9116 51.8845 68.9415C52.7213 67.6563 53.7375 66.7596 55.4113 67.3574C54.9629 67.8356 54.5146 68.3138 54.0364 68.7621C53.618 69.1507 53.5283 69.4495 53.887 69.9278C54.5146 70.7945 55.0526 71.721 55.7101 72.7073C54.9629 72.7073 54.3353 72.7372 53.7375 72.6774C53.5881 72.6774 53.4088 72.4981 53.2892 72.3487C52.9306 71.7808 52.5719 71.2129 52.2431 70.6451C52.1834 70.6451 52.0937 70.6152 52.0339 70.6152C51.9443 70.914 51.7948 71.2129 51.7649 71.5118C51.735 71.9003 51.7649 72.259 51.7649 72.7073Z" fill="white"/>
<path d="M26.2705 70.6152C26.8683 70.6152 27.4062 70.6152 27.9143 70.6152C27.8247 72.0498 26.7786 72.9166 25.2842 72.9166C23.5208 72.8867 22.4448 71.8705 22.3851 70.1669C22.3253 68.4932 23.3415 67.2379 24.9255 67.1183C26.5993 66.9689 27.6752 67.746 27.9143 69.3898C27.4361 69.3898 26.9579 69.4197 26.4797 69.3898C26.3602 69.3898 26.2406 69.1806 26.1211 69.0909C25.8222 68.9116 25.4934 68.5828 25.2244 68.6127C24.8957 68.6725 24.5071 69.0013 24.3876 69.3001C24.2381 69.7186 24.268 70.2267 24.2979 70.675C24.3577 71.1532 24.6565 71.4819 25.1646 71.5417C25.6428 71.5716 25.9716 71.3624 26.1509 70.9141C26.1808 70.7646 26.2406 70.7049 26.2705 70.6152Z" fill="white"/>
<path d="M36.9105 72.7967C37.5681 70.9436 38.1957 69.2101 38.8233 67.5065C38.8831 67.387 39.0624 67.2674 39.2119 67.2375C40.6166 67.0283 40.7362 67.118 41.2144 68.4629C41.6926 69.8378 42.2007 71.2425 42.7088 72.6173C41.4834 72.9162 40.9753 72.7967 40.6764 72.0495C40.2281 72.0495 39.7798 72.0495 39.3016 72.0495C39.182 72.0495 39.0027 72.0495 39.0027 72.1092C38.6141 73.245 37.6876 72.5277 36.9105 72.7967ZM39.3016 70.854C39.6901 70.854 39.989 70.854 40.3476 70.854C40.1683 70.2562 40.0189 69.7182 39.8694 69.2101C39.8395 69.2101 39.7798 69.2101 39.7499 69.2101C39.6303 69.7182 39.4809 70.2861 39.3016 70.854Z" fill="white"/>
<path d="M19.3665 70.8243C19.3665 71.4818 19.3665 72.0796 19.3665 72.7072C18.7388 72.7072 18.2008 72.7072 17.6031 72.7072C17.6031 70.8841 17.6031 69.0908 17.6031 67.2676C19.0377 67.2676 20.4424 67.2676 21.8472 67.2676C21.8472 67.7159 21.8472 68.1344 21.8472 68.6126C21.0103 68.6126 20.2332 68.6126 19.3964 68.6126C19.3964 68.9115 19.3964 69.1506 19.3964 69.4494C20.024 69.4494 20.6517 69.4494 21.3391 69.4494C21.3391 69.9277 21.3391 70.3461 21.3391 70.8243C20.7114 70.8243 20.0838 70.8243 19.3665 70.8243Z" fill="white"/>
</svg>
