<svg width="189" height="29" fill="none" xmlns="http://www.w3.org/2000/svg"><path d="M124.834 13.541c1.084.213 2.177.349 3.222.639 1.731.493 3.221 1.412 4.265 2.912 1.471 2.118 1.21 5.388-.57 7.574-1.316 1.615-3.067 2.418-5.069 2.718-.938.135-1.886.213-2.834.213-3.918.019-7.836.01-11.743.01h-.591v-.997c.503-.03.977-.048 1.461-.077 1.025-.078 1.432-.484 1.499-1.52.029-.386.049-.773.049-1.16 0-6.442 0-12.894-.02-19.337-.009-1.963-.348-2.263-2.34-2.302-.204 0-.416-.02-.639-.029-.01-.145-.029-.251-.029-.367V1.12c.165-.01.29-.029.406-.029 3.56 0 7.12-.01 10.68.02 1.451.01 2.901.116 4.294.57a11.72 11.72 0 0 1 1.684.716c4.285 2.206 3.753 7.758.164 9.809-1.122.638-2.312 1.035-3.579 1.257-.106.03-.203.058-.31.077zm-7.583.968v9.702c0 .32 0 .648.029.967.067.745.358 1.055 1.112 1.055 2.206-.01 4.421.048 6.617-.097 3.898-.27 6.229-3.627 5.213-7.4-.532-1.993-1.954-3.153-3.859-3.705-2.97-.86-6.027-.56-9.112-.522zm.019-1.46c.135.009.242.038.348.038 1.209 0 2.419.068 3.628-.02 1.228-.087 2.486-.203 3.666-.531 2.737-.765 4.082-2.844 3.763-5.669-.174-1.509-.794-2.805-2.283-3.453-.658-.29-1.364-.58-2.061-.629-2.05-.135-4.111-.155-6.171-.213-.068 0-.126.01-.194.02-.435.058-.657.31-.696.735-.019.174-.019.358-.019.532v8.754c0 .126.009.27.019.435zm-68.488 8.328c.426-.116.822-.213 1.248-.329.222.639.435 1.258.667 1.867.939 2.477 2.777 3.676 5.389 3.85 1.76.116 3.433-.039 5.01-.89 3.328-1.79 3.424-6.23.842-8.319-.842-.687-1.81-1.228-2.757-1.77-2.148-1.209-4.334-2.34-6.462-3.57-1.248-.725-2.234-1.73-2.766-3.124-1.161-3.047.067-6.055 3.085-7.506 1.161-.561 2.4-.842 3.676-.919 2.419-.155 4.798.029 7.1.822.358.126.484.32.542.677.223 1.384.474 2.757.716 4.14.029.175.048.349.087.552-.426.116-.822.222-1.267.338-.097-.387-.184-.754-.28-1.131-.069-.262-.146-.532-.214-.794-.503-1.857-1.673-2.95-3.627-3.163-1.47-.164-2.931-.213-4.353.252-1.451.474-2.66 1.267-3.134 2.815-.503 1.634.116 3.472 1.673 4.546 1.403.958 2.922 1.76 4.402 2.592 1.45.813 2.95 1.52 4.372 2.36 1.818 1.074 3.095 2.612 3.56 4.721.745 3.376-.852 6.375-4.16 7.816-1.954.851-4.005 1.064-6.104.948a20.278 20.278 0 0 1-5.62-1.122c-.174-.058-.377-.252-.425-.426a390.76 390.76 0 0 1-1.122-4.894c-.03-.097-.049-.203-.078-.339zm132.154-9.692v-.842h5.475v.88c-1.325-.029-2.176.803-3.037 1.654-1.113 1.094-2.244 2.177-3.386 3.28.107.174.194.319.29.464 1.713 2.602 3.415 5.195 5.127 7.797 1.026 1.567 1.18 1.654 3.047 1.876v.842c-.928 0-1.857-.087-2.757.02-1.131.135-1.741-.31-2.321-1.258-1.587-2.612-3.308-5.156-4.972-7.72a6.081 6.081 0 0 0-.213-.31c-.677.62-1.354 1.22-2.002 1.839-.097.087-.126.29-.126.435 0 1.519-.01 3.028.01 4.546.019 1.2.357 1.52 1.586 1.558h.464v.851h-6.877v-.813c.416-.048.832-.067 1.238-.135.561-.097.812-.367.899-.928a6.98 6.98 0 0 0 .078-1.007c.01-6.094.01-12.188 0-18.282a8.93 8.93 0 0 0-.087-1.248c-.097-.677-.426-.986-1.103-1.073-.329-.039-.667-.058-.996-.087-.116-.697-.116-.707.493-.823 1.258-.232 2.467-.609 3.579-1.257.503-.29.697-.184.697.406v15.622c0 .155.019.31.029.532.145-.116.232-.184.309-.251 1.741-1.703 3.492-3.396 5.214-5.108.28-.28.638-.725.58-1.015-.087-.465-.677-.358-1.083-.397-.048-.02-.087-.029-.155-.048zm-22.208 15.079v.813h-6.491v-.803c.387-.039.774-.068 1.171-.126.532-.068.832-.406.899-.929a7.09 7.09 0 0 0 .087-1.006c.01-3.289.01-6.577 0-9.866 0-.31-.029-.61-.067-.92-.107-.802-.416-1.092-1.229-1.14-.271-.02-.541 0-.851 0v-.823c.426-.097.88-.145 1.287-.31a38.757 38.757 0 0 0 2.515-1.073c.454-.213.638-.145.657.367.039.823.078 1.635.126 2.583.194-.213.319-.338.435-.474 1.209-1.364 2.622-2.39 4.479-2.63a6.037 6.037 0 0 1 2.989.357c1.441.58 2.167 1.731 2.409 3.202.116.696.154 1.412.164 2.118.019 3.018 0 6.027.039 9.045.009 1.267.28 1.49 1.547 1.567.058 0 .126.019.213.029v.812h-6.249v-.812c.32-.03.639-.058.958-.097.503-.068.774-.377.832-.86.048-.35.077-.707.077-1.065.01-3.047.01-6.094 0-9.141 0-.532-.048-1.064-.154-1.587-.339-1.75-1.771-2.65-3.521-2.234-.842.203-1.558.648-2.158 1.229-.648.628-1.228 1.315-1.818 2.002-.116.126-.165.348-.165.522a1664.27 1664.27 0 0 0 0 9.48c0 .068 0 .126.01.193.039 1.21.29 1.461 1.499 1.51.088.038.184.048.31.067zm-12.913-9.856c-.087-1.074-.078-2.157-.29-3.202-.3-1.47-1.577-2.225-3.28-2.128-1.721.087-2.853.928-3.434 2.554-.29.812-.677 1.044-1.393 1.025-.58-.02-.957-.377-1.006-.958-.058-.638.223-1.16.619-1.625.813-.957 1.877-1.519 3.057-1.848 1.577-.444 3.192-.454 4.779-.096 2.079.474 3.414 2.196 3.443 4.45.029 2.998.01 5.997.02 8.986 0 .435.029.87.077 1.296.145 1.354.716 1.693 2.041 1.2.068.28.136.55.203.812-1.944 1.112-3.705.61-4.749-1.393-.155.116-.3.223-.445.339-1.944 1.644-4.189 2.118-6.607 1.44-3.318-.937-4.285-4.942-1.809-7.36 1.142-1.122 2.564-1.79 4.053-2.264 1.345-.425 2.738-.725 4.102-1.083a8.19 8.19 0 0 0 .619-.145zm-.078 1.218c-.116 0-.183-.019-.242 0-1.344.474-2.737.871-4.024 1.461-.841.387-1.663.967-2.282 1.654-1.006 1.103-1.026 2.496-.455 3.811.532 1.22 1.673 1.558 2.921 1.596 1.509.049 2.699-.648 3.734-1.644.184-.174.329-.484.329-.735.029-1.886.019-3.773.019-5.659v-.483zm-60.419.706c-.048 1.858-.174 3.24-.648 4.585-.977 2.806-3.037 4.208-5.91 4.556a11.029 11.029 0 0 1-3.695-.154c-2.68-.57-4.402-2.186-5.098-4.827-.668-2.554-.706-5.137.077-7.67.89-2.883 2.96-4.383 5.872-4.818 1.219-.184 2.447-.165 3.647.135 3.095.784 4.817 2.873 5.465 5.92.194.89.242 1.81.29 2.273zm-2.747.03c0-1.258-.116-2.786-.696-4.228-.445-1.132-1.103-2.09-2.254-2.592-1.355-.59-2.757-.648-4.15-.155-1.674.6-2.467 1.954-2.883 3.56-.59 2.283-.57 4.595-.145 6.897.213 1.131.59 2.215 1.374 3.095 2.002 2.235 6.423 2.186 7.932-1.48.648-1.547.832-3.163.822-5.098zm5.03-6.858v-1.2h2.709v-2.07c.01-1.295.135-2.572.658-3.781C92.64 1.035 97.68.919 99.886 3.327c.348.378.59.88.774 1.364.184.494-.048 1.026-.406 1.239-.416.251-1.064.183-1.432-.194-.222-.222-.406-.503-.57-.774-.184-.3-.34-.619-.504-.938-.909-1.76-2.892-1.364-3.743-.213-.59.784-.88 1.693-.948 2.65-.097 1.287-.106 2.574-.155 3.86-.01.145.02.28.03.474h4.662v1.2h-4.672c-.01.212-.03.367-.03.522V24.27c0 .406.02.803.068 1.209.097.764.397 1.074 1.17 1.17.552.068 1.113.087 1.703.126v.803h-8.31v-.803c.494-.038.988-.058 1.48-.125.871-.107 1.21-.474 1.278-1.355.029-.445.029-.9.029-1.354V12.005H87.6z" fill="#2E353F"/><path d="M108.816 25.914c.184.28.358.532.522.774-1.305 1.354-3.985 1.79-5.6.938-1.19-.629-1.616-1.722-1.645-2.98-.038-1.818-.019-3.646-.019-5.465v-7.168h-2.786v-.822c.27-.048.552-.087.832-.145 1.751-.338 2.728-1.47 3.192-3.124.116-.416.252-.842.271-1.267.029-.484.242-.61.667-.542.107.02.223.02.387.039v4.652h3.908v1.2h-3.85c-.019.126-.038.193-.038.27 0 4.015 0 8.03.009 12.044 0 .067 0 .125.01.193.077 2.109 1.432 2.893 3.308 1.916.271-.146.523-.32.832-.513z" fill="#2E353F"/><path d="M37.382.426H.043V9.76h37.339V.426zm-.004 18.426H.04v9.334h37.338v-9.334z" fill="#657181"/></svg>