<svg width="192" height="59" viewBox="0 0 192 59" fill="none" xmlns="http://www.w3.org/2000/svg">
<path d="M38.8778 0.277344C43.7492 1.3619 48.5738 2.63507 52.8831 5.37003C61.0803 10.6042 66.5138 17.7245 67.2164 27.8156C67.7785 36.3977 64.3591 43.3765 58.3167 49.2237C53.1173 54.2221 46.6533 56.6741 39.8146 58.2773C35.7394 58.2773 31.7111 58.2773 27.636 58.2773C23.6077 57.3343 19.6731 56.2969 16.0195 54.3164C7.68187 49.7895 2.24835 43.0464 0 33.757C0 30.7863 0 27.7684 0 24.7977C2.10783 16.4985 6.65138 10.0383 13.9117 5.51149C18.3147 2.82369 23.1393 1.31474 28.1044 0.277344C31.7111 0.277344 35.271 0.277344 38.8778 0.277344ZM8.85289 28.57C8.89973 29.6074 8.85289 30.6448 9.04025 31.6351C9.88339 37.0578 12.1317 41.679 17.6589 43.518C23.0925 45.357 27.636 43.4237 31.2427 39.1798C33.4911 36.5391 35.5521 33.8042 37.6599 31.0692C39.2057 28.9944 40.7982 26.9668 42.7656 25.2692C46.3723 22.2042 50.4943 22.0156 54.3352 24.7505C55.0378 25.2692 55.6936 25.7408 56.6304 25.7879C57.7546 25.8351 58.1761 25.505 57.9419 24.279C56.9114 18.9034 51.8995 14.7066 46.466 14.518C41.173 14.3294 37.6599 17.253 34.709 21.1196C32.2732 24.2318 29.978 27.4855 27.5423 30.6448C25.4345 33.3798 22.8583 35.5017 19.2984 35.9733C16.4879 36.3505 13.2091 34.7473 11.8975 32.3895C10.6328 30.1261 10.9139 27.1554 12.6001 25.0806C13.7712 23.6188 15.4106 22.8643 17.1437 22.3456C20.7036 21.3082 24.0761 22.0156 27.4486 23.2416C28.0107 23.4302 29.0412 24.279 29.1818 23.2887C29.416 21.5912 29.978 19.6107 28.5728 18.1017C23.7482 13.0091 14.8017 12.5847 10.867 19.8936C9.46182 22.6286 8.75921 25.505 8.85289 28.57ZM47.4965 44.131C52.7895 44.0838 56.5367 40.8302 58.0356 34.983C58.223 34.1814 58.8319 33.1912 57.8014 32.6725C56.8646 32.2009 55.8341 32.3424 55.0847 33.2855C53.0237 35.879 50.1195 36.7278 47.0281 36.9635C44.4987 37.105 42.1566 36.209 39.8614 35.1717C37.4726 34.0871 37.332 34.2286 37.5194 36.8692C37.5662 37.4822 37.6599 38.0952 38.0346 38.6611C40.3767 41.9147 43.234 44.2725 47.4965 44.131Z" fill="#2E353F"/>
<path d="M192 45.5456C189.283 45.5927 186.566 45.6399 183.803 45.687C182.491 45.7342 181.882 44.9326 181.32 43.8952C179.775 41.0659 178.229 38.2838 176.215 35.5488C176.215 38.0952 176.168 40.6415 176.262 43.1879C176.308 44.9797 175.746 45.7342 173.873 45.687C167.221 45.5456 168.111 46.4887 168.064 39.9814C168.018 33.2383 168.111 26.448 168.018 19.7049C168.018 18.0074 168.626 17.1586 170.172 16.6399C176.215 14.5179 176.215 14.4708 176.215 20.9309C176.215 24.1375 176.215 27.3911 176.262 30.5976C176.262 30.7391 176.355 30.8805 176.543 31.4464C178.088 29.2301 179.587 27.2968 180.805 25.1749C181.976 23.1001 183.475 22.0155 185.911 22.3927C187.55 22.6285 190.033 21.5911 190.735 22.9114C191.438 24.3261 189.19 25.6464 188.253 27.061C187.129 28.7586 185.864 30.3618 184.599 31.9651C183.99 32.7196 183.803 33.4269 184.412 34.2757C186.941 37.8594 189.471 41.4431 191.953 45.0269C192 45.2155 192 45.4041 192 45.5456Z" fill="#2E353F"/>
<path d="M84.9692 31.2105C86.5149 28.9942 88.1075 26.778 89.5128 24.4674C90.4496 22.9585 91.5738 22.204 93.3537 22.3926C95.2742 22.5812 98.1315 21.5438 98.8809 22.8642C99.6772 24.3731 97.0541 25.9292 96.1173 27.5796C96.0236 27.7682 95.8363 27.9568 95.6957 28.1455C91.8548 33.2853 91.8548 33.2853 95.6489 38.6138C96.9136 40.4056 98.1314 42.2446 99.3961 44.0365C100.099 45.0268 99.9582 45.6398 98.5999 45.6398C96.3515 45.6398 94.0563 45.6398 91.808 45.6398C90.5901 45.6398 90.0748 44.791 89.5596 43.8951C88.0139 41.1129 86.4681 38.2837 84.454 35.5487C84.454 38.0951 84.3603 40.6414 84.5008 43.1877C84.5476 44.9796 83.9856 45.7341 82.1119 45.6869C75.4605 45.5455 76.3505 46.4885 76.3037 39.9812C76.2568 33.2381 76.3505 26.4479 76.2568 19.7048C76.2568 17.9129 76.8658 17.0642 78.552 16.4512C84.5008 14.4707 84.454 14.3764 84.454 20.7422C84.454 24.1845 84.454 27.5796 84.454 31.0219C84.6413 31.1162 84.7818 31.1633 84.9692 31.2105Z" fill="#2E353F"/>
<path d="M122.675 28.0984C123.378 30.3618 124.174 32.5781 123.987 34.983C123.331 42.1976 117.429 47.0074 109.982 46.3472C107.967 46.1586 105.953 45.8757 104.08 45.0269C99.3487 42.8578 97.0536 38.8968 97.2878 33.2383C97.4751 28.5228 100.379 24.5618 104.97 23.0058C110.169 21.1667 117.804 21.261 122.675 28.0984ZM110.544 28.0984C107.359 28.1456 105.813 30.1732 105.813 34.3228C105.86 38.2366 107.452 40.3114 110.544 40.3114C113.635 40.3114 115.509 37.9537 115.509 34.1814C115.509 30.409 113.588 28.0513 110.544 28.0984Z" fill="#2E353F"/>
<path d="M157.713 43.0934C154.481 46.5828 150.968 47.1015 147.08 45.8755C143.942 44.8853 142.115 42.5275 141.927 39.321C141.74 36.3503 143.286 33.7097 146.143 32.3422C148.86 31.0219 151.811 30.8332 154.809 30.8332C155.605 30.8332 156.776 31.3048 157.01 30.1259C157.244 28.8999 156.12 28.2869 155.183 28.0511C152.654 27.3438 150.124 27.6267 147.595 28.2397C146.799 28.4284 145.768 29.6544 145.019 28.0983C144.269 26.5422 144.738 23.6658 145.956 23.2414C151.202 21.4495 156.495 20.8365 161.554 23.8072C164.411 25.4576 165.301 28.3341 165.395 31.4462C165.535 35.7373 165.488 40.0755 165.535 44.3666C165.535 44.9324 165.676 45.6869 165.02 45.7812C163.568 45.9698 162.069 45.8755 160.617 46.017C158.649 46.2056 157.947 45.121 157.713 43.0934ZM152.42 40.6885C154.855 40.6885 157.244 38.7552 157.151 36.9162C157.057 35.1243 155.605 35.6902 154.668 35.643C151.53 35.5487 149.937 36.4446 149.937 38.2365C149.89 40.1698 151.202 40.5942 152.42 40.6885Z" fill="#2E353F"/>
<path d="M122.722 28.0985C122.722 27.2969 122.816 26.5424 122.722 25.7408C122.582 23.6188 123.003 22.157 125.579 22.3928C126.844 22.5343 127.5 21.7326 127.359 20.5066C126.985 17.866 128.484 16.97 130.685 16.2627C135.51 14.7066 135.556 14.6123 135.51 19.7521C135.463 21.8269 136.212 22.6757 138.226 22.3928C140.475 22.1099 141.177 23.1001 141.177 25.3635C141.177 27.6269 140.662 28.9001 138.18 28.5229C136.165 28.2399 135.369 29.1359 135.51 31.2107C135.65 33.0969 135.463 34.983 135.556 36.8692C135.697 39.7928 136.54 40.7359 139.397 40.5944C141.552 40.5001 141.037 42.0091 141.224 43.0936C141.458 44.3196 141.739 45.7343 139.913 46.0172C137.336 46.4416 134.807 46.5359 132.278 45.7814C129.842 45.0741 128.296 43.4237 127.734 40.9245C127.078 37.9066 127.359 34.8416 127.406 31.7765C127.453 29.6074 127.125 28.2399 124.549 28.5229C123.893 28.57 123.284 28.2399 122.722 28.0985C122.675 28.0985 122.722 28.0985 122.722 28.0985Z" fill="#2E353F"/>
<path d="M38.8778 0.277344C43.7492 1.3619 48.5738 2.63507 52.8831 5.37003C61.0803 10.6042 66.5138 17.7245 67.2164 27.8156C67.7785 36.3977 64.3591 43.3765 58.3167 49.2237C53.1173 54.2221 46.6533 56.6741 39.8146 58.2773C35.7394 58.2773 31.7111 58.2773 27.636 58.2773C23.6077 57.3343 19.6731 56.2969 16.0195 54.3164C7.68187 49.7895 2.24835 43.0464 0 33.757C0 30.7863 0 27.7684 0 24.7977C2.10783 16.4985 6.65138 10.0383 13.9117 5.51149C18.3147 2.82369 23.1393 1.31474 28.1044 0.277344C31.7111 0.277344 35.271 0.277344 38.8778 0.277344ZM8.85289 28.57C8.89973 29.6074 8.85289 30.6448 9.04025 31.6351C9.88339 37.0578 12.1317 41.679 17.6589 43.518C23.0925 45.357 27.636 43.4237 31.2427 39.1798C33.4911 36.5391 35.5521 33.8042 37.6599 31.0692C39.2057 28.9944 40.7982 26.9668 42.7656 25.2692C46.3723 22.2042 50.4943 22.0156 54.3352 24.7505C55.0378 25.2692 55.6936 25.7408 56.6304 25.7879C57.7546 25.8351 58.1761 25.505 57.9419 24.279C56.9114 18.9034 51.8995 14.7066 46.466 14.518C41.173 14.3294 37.6599 17.253 34.709 21.1196C32.2732 24.2318 29.978 27.4855 27.5423 30.6448C25.4345 33.3798 22.8583 35.5017 19.2984 35.9733C16.4879 36.3505 13.2091 34.7473 11.8975 32.3895C10.6328 30.1261 10.9139 27.1554 12.6001 25.0806C13.7712 23.6188 15.4106 22.8643 17.1437 22.3456C20.7036 21.3082 24.0761 22.0156 27.4486 23.2416C28.0107 23.4302 29.0412 24.279 29.1818 23.2887C29.416 21.5912 29.978 19.6107 28.5728 18.1017C23.7482 13.0091 14.8017 12.5847 10.867 19.8936C9.46182 22.6286 8.75921 25.505 8.85289 28.57ZM47.4965 44.131C52.7895 44.0838 56.5367 40.8302 58.0356 34.983C58.223 34.1814 58.8319 33.1912 57.8014 32.6725C56.8646 32.2009 55.8341 32.3424 55.0847 33.2855C53.0237 35.879 50.1195 36.7278 47.0281 36.9635C44.4987 37.105 42.1566 36.209 39.8614 35.1717C37.4726 34.0871 37.332 34.2286 37.5194 36.8692C37.5662 37.4822 37.6599 38.0952 38.0346 38.6611C40.3767 41.9147 43.234 44.2725 47.4965 44.131Z" fill="#2E353F"/>
<path d="M84.9692 31.2105C86.5149 28.9942 88.1075 26.778 89.5128 24.4674C90.4496 22.9585 91.5738 22.204 93.3537 22.3926C95.2742 22.5812 98.1315 21.5438 98.8809 22.8642C99.6772 24.3731 97.0541 25.9292 96.1173 27.5796C96.0236 27.7682 95.8363 27.9568 95.6957 28.1455C91.8548 33.2853 91.8548 33.2853 95.6489 38.6138C96.9136 40.4056 98.1314 42.2446 99.3961 44.0365C100.099 45.0268 99.9582 45.6398 98.5999 45.6398C96.3515 45.6398 94.0563 45.6398 91.808 45.6398C90.5901 45.6398 90.0748 44.791 89.5596 43.8951C88.0139 41.1129 86.4681 38.2837 84.454 35.5487C84.454 38.0951 84.3603 40.6414 84.5008 43.1877C84.5476 44.9796 83.9856 45.7341 82.1119 45.6869C75.4605 45.5455 76.3505 46.4885 76.3037 39.9812C76.2568 33.2381 76.3505 26.4479 76.2568 19.7048C76.2568 17.9129 76.8658 17.0642 78.552 16.4512C84.5008 14.4707 84.454 14.3764 84.454 20.7422C84.454 24.1845 84.454 27.5796 84.454 31.0219C84.6413 31.1162 84.7818 31.1633 84.9692 31.2105Z" fill="#2E353F"/>
<path d="M122.675 28.0984C123.378 30.3618 124.174 32.5781 123.987 34.983C123.331 42.1976 117.429 47.0074 109.982 46.3472C107.967 46.1586 105.953 45.8757 104.08 45.0269C99.3487 42.8578 97.0536 38.8968 97.2878 33.2383C97.4751 28.5228 100.379 24.5618 104.97 23.0058C110.169 21.1667 117.804 21.261 122.675 28.0984ZM110.544 28.0984C107.359 28.1456 105.813 30.1732 105.813 34.3228C105.86 38.2366 107.452 40.3114 110.544 40.3114C113.635 40.3114 115.509 37.9537 115.509 34.1814C115.509 30.409 113.588 28.0513 110.544 28.0984Z" fill="#2E353F"/>
<path d="M157.713 43.0934C154.481 46.5828 150.968 47.1015 147.08 45.8755C143.942 44.8853 142.115 42.5275 141.927 39.321C141.74 36.3503 143.286 33.7097 146.143 32.3422C148.86 31.0219 151.811 30.8332 154.809 30.8332C155.605 30.8332 156.776 31.3048 157.01 30.1259C157.244 28.8999 156.12 28.2869 155.183 28.0511C152.654 27.3438 150.124 27.6267 147.595 28.2397C146.799 28.4284 145.768 29.6544 145.019 28.0983C144.269 26.5422 144.738 23.6658 145.956 23.2414C151.202 21.4495 156.495 20.8365 161.554 23.8072C164.411 25.4576 165.301 28.3341 165.395 31.4462C165.535 35.7373 165.488 40.0755 165.535 44.3666C165.535 44.9324 165.676 45.6869 165.02 45.7812C163.568 45.9698 162.069 45.8755 160.617 46.017C158.649 46.2056 157.947 45.121 157.713 43.0934ZM152.42 40.6885C154.855 40.6885 157.244 38.7552 157.151 36.9162C157.057 35.1243 155.605 35.6902 154.668 35.643C151.53 35.5487 149.937 36.4446 149.937 38.2365C149.89 40.1698 151.202 40.5942 152.42 40.6885Z" fill="#2E353F"/>
<path d="M122.722 28.0985C122.722 27.2969 122.816 26.5424 122.722 25.7408C122.582 23.6188 123.003 22.157 125.579 22.3928C126.844 22.5343 127.5 21.7326 127.359 20.5066C126.985 17.866 128.484 16.97 130.685 16.2627C135.51 14.7066 135.556 14.6123 135.51 19.7521C135.463 21.8269 136.212 22.6757 138.226 22.3928C140.475 22.1099 141.177 23.1001 141.177 25.3635C141.177 27.6269 140.662 28.9001 138.18 28.5229C136.165 28.2399 135.369 29.1359 135.51 31.2107C135.65 33.0969 135.463 34.983 135.556 36.8692C135.697 39.7928 136.54 40.7359 139.397 40.5944C141.552 40.5001 141.037 42.0091 141.224 43.0936C141.458 44.3196 141.739 45.7343 139.913 46.0172C137.336 46.4416 134.807 46.5359 132.278 45.7814C129.842 45.0741 128.296 43.4237 127.734 40.9245C127.078 37.9066 127.359 34.8416 127.406 31.7765C127.453 29.6074 127.125 28.2399 124.549 28.5229C123.893 28.57 123.284 28.2399 122.722 28.0985C122.675 28.0985 122.722 28.0985 122.722 28.0985Z" fill="#2E353F"/>
</svg>
