<svg width="429" height="137" viewBox="0 0 429 137" fill="none" xmlns="http://www.w3.org/2000/svg">
<g clip-path="url(#clip0)">
<path d="M257.759 65.4593C257.759 66.111 257.759 66.4369 257.759 66.7627C257.759 74.9496 257.8 83.1365 257.677 91.3234C257.637 93.5228 258.656 94.7447 260.492 95.5186C261.389 95.8852 262.287 96.2111 263.225 96.2518C263.918 96.2925 264.122 96.5776 264.122 97.2293C264.122 97.9625 263.714 97.881 263.225 97.881C258.86 97.881 254.536 97.881 250.172 97.881C249.682 97.881 249.274 97.881 249.315 97.1886C249.315 96.5776 249.478 96.2518 250.131 96.2518C250.947 96.2518 251.722 96.0074 252.456 95.7223C254.985 94.8262 255.719 93.6857 255.719 91.0382C255.719 81.5887 255.719 72.1392 255.719 62.6896C255.719 59.5534 254.659 58.5351 251.559 58.4536C251.028 58.4536 250.498 58.3314 249.968 58.4129C248.907 58.5758 248.663 58.1278 248.703 57.1503C248.744 56.4578 248.989 56.3356 249.601 56.3764C252.579 56.4171 255.556 56.4171 258.534 56.3764C259.309 56.3764 259.799 56.6208 260.206 57.2724C265.754 65.4593 271.342 73.6462 276.931 81.8331C277.665 82.8921 278.358 83.9511 279.256 85.2545C279.297 84.6028 279.337 84.1955 279.337 83.7882C279.337 76.701 279.256 69.6139 279.378 62.5267C279.419 59.5534 277.706 58.8202 275.707 58.5351C275.177 58.4536 274.646 58.4129 274.116 58.4944C273.26 58.5758 273.015 58.25 273.015 57.3946C273.015 56.5393 273.341 56.4171 274.075 56.4171C287.536 56.4578 300.998 56.4578 314.499 56.4171C315.397 56.4171 315.56 56.7022 315.56 57.5168C315.519 61.6714 315.56 65.8259 315.519 69.9804C315.519 70.3877 315.805 71.0394 314.948 71.0394C314.132 71.0802 314.255 70.4285 314.173 70.0212C313.806 67.7403 313.316 65.4593 312.378 63.3413C310.869 59.9199 307.973 58.7795 304.546 58.5758C302.588 58.4536 300.671 58.4944 298.713 58.4536C298.061 58.4129 297.897 58.698 297.897 59.309C297.938 64.4003 297.938 69.5324 297.897 74.6237C297.897 75.2754 298.061 75.4384 298.713 75.4791C303.608 75.7642 305.77 73.076 306.545 68.3919C306.627 67.8624 306.545 67.4144 307.402 67.4144C308.34 67.4144 308.095 68.0254 308.095 68.5141C308.095 74.0942 308.095 79.6336 308.095 85.2137C308.095 85.6618 308.381 86.3135 307.443 86.3949C306.545 86.4764 306.586 85.9062 306.504 85.3359C306.26 83.7474 305.892 82.1997 305.158 80.7741C303.935 78.4524 300.712 77.0676 298.305 77.76C297.857 77.8822 297.938 78.2081 297.938 78.4524C297.938 84.0326 297.938 89.5719 297.938 95.1521C297.938 95.6001 298.02 95.8852 298.55 95.8445C301.283 95.763 304.057 96.0481 306.749 95.4372C309.482 94.8669 311.318 93.2784 312.419 90.7939C313.398 88.5129 313.847 86.0691 314.214 83.6252C314.295 83.1772 314.092 82.5255 314.989 82.5255C315.723 82.5255 315.968 82.6884 315.968 83.4623C315.927 87.9427 315.927 92.4638 315.968 96.9442C315.968 97.6366 315.846 97.9217 315.03 97.9217C305.648 97.881 296.266 97.881 286.884 97.9217C285.986 97.9217 285.946 97.5552 285.905 96.8627C285.905 96.0889 286.068 95.763 286.884 95.8037C288.108 95.8852 289.331 95.763 290.555 95.8445C291.33 95.8852 291.493 95.6001 291.493 94.8669C291.452 89.2868 291.493 83.7474 291.493 78.1673C291.493 71.9763 291.493 65.7444 291.534 59.5534C291.534 58.6573 291.33 58.3722 290.392 58.4129C288.842 58.4944 287.251 58.4536 285.701 58.4944C282.642 58.5758 281.418 59.8385 281.418 62.8526C281.418 74.135 281.418 85.4174 281.418 96.6998C281.418 97.1071 281.744 97.6774 281.132 97.881C280.52 98.0847 280.276 97.5144 280.031 97.1071C272.811 86.8022 265.55 76.4566 258.33 66.1518C258.126 65.9888 258.045 65.8666 257.759 65.4593Z" fill="#2E3540"/>
<path d="M367.446 24.4028C367.446 18.5376 367.446 12.6724 367.446 6.80713C367.446 5.95178 367.283 5.5852 366.345 5.66667C365.284 5.74813 364.224 5.62593 363.163 5.7074C362.306 5.78886 362.388 5.25936 362.347 4.72986C362.306 4.1189 362.47 3.87451 363.163 3.87451C369.119 3.91524 375.074 3.87451 381.03 3.87451C384.211 3.87451 387.352 3.91524 390.534 3.87451C391.35 3.87451 391.554 4.1189 391.513 4.89278C391.472 9.04732 391.513 13.2019 391.472 17.3564C391.472 17.7637 391.717 18.2932 390.901 18.3339C390.126 18.3747 390.126 17.8859 390.085 17.3971C389.84 15.5642 389.433 13.8128 388.862 12.0614C387.597 8.11051 385.027 6.1147 380.866 5.95178C378.868 5.87032 376.828 5.82959 374.829 5.7074C374.136 5.66667 373.932 5.87032 373.932 6.60347C373.973 11.6541 373.973 16.7454 373.932 21.796C373.932 22.5699 374.177 22.6921 374.911 22.7329C379.765 23.018 381.805 20.1668 382.498 15.6864C382.58 15.2384 382.376 14.6682 383.232 14.6682C383.803 14.6682 384.048 14.7904 384.048 15.442C384.048 21.2665 384.048 27.091 384.048 32.9155C384.048 33.3636 383.967 33.6487 383.436 33.6487C382.947 33.6487 382.457 33.7302 382.376 32.997C382.253 31.3678 381.845 29.7793 381.152 28.2722C379.969 25.6655 377.195 24.3621 374.381 25.0545C373.932 25.1767 373.973 25.4211 373.973 25.7469C373.973 31.327 373.973 36.8664 373.973 42.4465C373.973 42.976 374.136 43.1797 374.707 43.1797C377.032 43.1797 379.357 43.1797 381.682 42.9353C385.598 42.5687 387.801 40.2063 388.943 36.6628C389.555 34.7892 389.922 32.8341 390.126 30.879C390.208 30.2273 390.33 29.7793 391.187 29.7793C392.206 29.82 391.88 30.4717 391.88 30.9605C391.88 35.3594 391.839 39.7176 391.921 44.1165C391.921 45.0533 391.635 45.2162 390.779 45.2162C381.519 45.1755 372.219 45.1755 362.959 45.2162C362.103 45.2162 361.858 45.0126 361.858 44.1572C361.858 43.3426 362.103 43.139 362.878 43.1797C363.938 43.2612 365.04 43.0982 366.059 43.2204C367.242 43.3426 367.405 42.8946 367.405 41.8356C367.405 35.9704 367.446 30.1866 367.446 24.4028Z" fill="#2E3540"/>
<path d="M221.985 77.0269C221.985 71.2024 221.985 65.3779 221.985 59.5534C221.985 58.6981 221.781 58.413 220.925 58.4537C219.864 58.5352 218.803 58.413 217.702 58.4944C216.723 58.5759 216.968 57.9242 216.927 57.354C216.886 56.7837 216.886 56.3357 217.702 56.3764C219.946 56.4172 222.189 56.3764 224.473 56.3764C231.286 56.3764 238.138 56.3764 244.951 56.3357C245.848 56.3357 246.093 56.5801 246.093 57.4762C246.052 61.59 246.093 65.7038 246.052 69.8176C246.052 70.2249 246.46 70.8766 245.603 70.958C244.665 71.0395 244.828 70.3471 244.747 69.8176C244.42 67.7403 243.972 65.7038 243.197 63.7487C242.054 60.8975 239.974 59.1868 236.915 58.6981C234.345 58.2908 231.734 58.4537 229.164 58.413C228.308 58.413 228.553 58.9832 228.553 59.4312C228.553 64.0745 228.553 68.7178 228.553 73.3612C228.553 75.3977 228.553 75.3977 230.633 75.357C233.896 75.2755 236.058 73.2797 236.915 69.6139C237.037 69.1252 237.159 68.6364 237.159 68.1476C237.159 67.4552 237.445 67.333 238.057 67.333C238.791 67.333 238.587 67.8218 238.587 68.1883C238.587 73.239 238.587 78.3303 238.587 83.3809C238.587 83.9919 238.669 84.6028 238.669 85.2138C238.669 85.6211 238.913 86.1913 238.138 86.2321C237.527 86.2728 237.159 86.1913 237.078 85.4582C236.915 84.0733 236.588 82.6885 236.058 81.3851C234.834 78.4525 231.979 76.9862 228.879 77.6379C228.43 77.7193 228.471 78.0045 228.471 78.2896C228.471 83.8697 228.471 89.4905 228.471 95.0707C228.471 95.4372 228.471 95.7631 229.001 95.7223C231.857 95.6409 234.712 95.926 237.527 95.2743C240.056 94.7041 241.81 93.197 242.87 90.8754C243.931 88.513 244.42 85.947 244.747 83.3809C244.828 82.7292 244.951 82.3219 245.766 82.4034C246.378 82.4441 246.541 82.607 246.541 83.218C246.501 87.7798 246.501 92.3417 246.541 96.9443C246.541 97.9218 246.011 97.8403 245.399 97.8403C236.14 97.8403 226.839 97.8403 217.58 97.8403C217.457 97.8403 217.335 97.8403 217.253 97.8403C216.356 98.0033 216.438 97.3923 216.397 96.7813C216.397 96.1297 216.397 95.6816 217.294 95.7223C218.518 95.8038 219.742 95.6816 220.965 95.7631C221.863 95.8038 222.026 95.5187 222.026 94.6633C221.944 88.8388 221.985 82.9329 221.985 77.0269Z" fill="#2E3540"/>
<path d="M211.869 55.8062C211.869 57.2317 211.869 58.4129 211.869 59.5534C211.828 63.0562 211.828 66.5591 211.747 70.0619C211.747 70.4285 211.951 70.9173 211.257 70.9987C210.604 71.0802 210.482 70.6729 210.36 70.2248C209.381 66.5591 207.953 63.0562 205.098 60.368C202.65 58.0463 199.754 57.0688 196.368 57.7612C194.166 58.2093 192.616 59.5127 191.433 61.3863C189.76 64.0338 189.067 67.0071 188.781 70.0212C188.292 75.3162 188.169 80.6519 188.985 85.9877C189.393 88.6352 190.127 91.2012 191.841 93.3599C195.104 97.5145 202.079 97.1886 205.016 92.7897C205.424 92.2195 205.628 91.6085 205.628 90.8753C205.628 86.9652 205.587 83.0143 205.628 79.1042C205.628 78.2895 205.383 78.0452 204.608 78.0859C203.303 78.1266 201.998 78.0452 200.733 78.1266C199.836 78.1673 199.999 77.5971 199.999 77.0676C199.958 76.4974 199.999 76.1308 200.774 76.1715C205.791 76.2123 210.768 76.2123 215.785 76.1715C216.519 76.1715 216.56 76.5381 216.56 77.0676C216.519 77.5971 216.723 78.1673 215.826 78.1266C214.928 78.0859 213.99 78.1673 213.093 78.0859C212.318 78.0452 212.155 78.3303 212.155 79.0634C212.195 85.0508 212.155 91.0383 212.155 97.0257C212.155 97.2701 212.155 97.4737 212.155 97.9625C210.89 96.985 209.789 96.1296 208.687 95.2335C208.116 94.7855 207.545 94.0931 206.933 94.0523C206.485 94.0523 205.995 94.9484 205.546 95.3965C202.487 98.3291 198.816 98.6957 194.9 97.9625C190.617 97.1479 187.272 94.7448 185.151 90.9975C180.052 81.7924 179.726 72.3836 185.192 63.2192C189.801 55.4803 198.612 54.7879 204.037 57.1503C204.812 57.4761 205.628 57.8427 206.117 58.4944C206.811 59.3905 207.3 59.0646 207.953 58.5351C209.177 57.639 210.441 56.8244 211.869 55.8062Z" fill="#2E3540"/>
<path d="M186.986 24.2802C186.986 18.4149 186.986 12.5497 186.986 6.68449C186.986 5.9106 186.782 5.62549 185.967 5.66622C184.824 5.74768 183.682 5.62549 182.54 5.70695C181.806 5.74768 181.765 5.34037 181.765 4.81087C181.765 4.28137 181.765 3.91479 182.54 3.91479C191.718 3.95553 200.937 3.91479 210.115 3.91479C210.645 3.91479 210.849 4.03699 210.849 4.60722C210.849 8.96541 210.849 13.2829 210.849 17.6411C210.849 17.9669 210.931 18.3335 210.36 18.3335C209.911 18.3335 209.707 18.252 209.625 17.7225C209.299 15.7267 208.891 13.7716 208.239 11.8573C206.892 8.0286 204.282 6.07352 200.203 5.95133C198.286 5.86987 196.409 5.82914 194.492 5.74768C193.758 5.70695 193.431 5.82914 193.431 6.72522C193.472 11.7351 193.472 16.7857 193.431 21.7956C193.431 22.5288 193.676 22.7731 194.37 22.8546C197.674 23.2212 200.488 21.3476 201.426 18.0076C201.63 17.2338 201.794 16.4599 201.916 15.6453C201.998 15.075 202.242 14.7899 202.854 14.8306C203.548 14.8714 203.425 15.2787 203.425 15.686C203.425 21.3883 203.425 27.1313 203.425 32.8336C203.425 33.3224 203.466 33.7297 202.732 33.7297C202.161 33.7297 201.875 33.6482 201.753 32.9558C201.508 31.4081 201.263 29.901 200.57 28.4347C199.305 25.7872 196.654 24.4838 193.839 25.1355C193.187 25.2984 193.391 25.7872 193.391 26.1131C193.391 30.5527 193.391 35.0331 193.391 39.4727C193.391 40.3688 193.431 41.3056 193.391 42.2017C193.35 42.8534 193.554 43.0978 194.206 43.0571C195.471 43.0163 196.735 43.0978 198 43.0163C198.857 42.9756 199.02 43.3014 199.02 44.0753C198.979 44.7677 198.979 45.175 198.082 45.175C192.82 45.1343 187.557 45.1343 182.295 45.175C181.439 45.175 181.316 44.8492 181.316 44.1161C181.316 43.3829 181.398 42.9756 182.295 43.0163C183.519 43.0978 184.743 42.9756 185.967 43.0571C186.864 43.1385 187.027 42.7719 187.027 41.9573C186.986 36.0514 186.986 30.1861 186.986 24.2802Z" fill="#2E3540"/>
<path d="M271.995 24.3215C271.995 30.1867 272.036 36.052 271.954 41.9172C271.954 42.9762 272.24 43.2206 273.219 43.1391C274.32 43.0577 275.422 43.1799 276.523 43.0984C277.339 43.0577 277.216 43.5872 277.216 44.0759C277.216 44.5647 277.42 45.1757 276.523 45.1757C271.22 45.1349 265.917 45.1349 260.614 45.1757C259.758 45.1757 259.839 44.6462 259.839 44.1167C259.839 43.5464 259.799 43.0577 260.614 43.0984C261.716 43.1799 262.817 43.0577 263.918 43.1391C264.897 43.2206 265.101 42.854 265.101 41.9172C265.061 30.757 265.101 19.5967 265.101 8.43652C265.101 5.58537 265.101 5.70756 262.246 5.58537C258.493 5.46317 255.76 8.31433 254.904 11.3284C254.292 13.4464 254.006 15.6459 253.884 17.8453C253.843 18.3341 254.006 19.0265 253.027 18.9451C252.13 18.8636 252.497 18.2526 252.497 17.8453C252.456 13.4871 252.497 9.16967 252.456 4.81148C252.456 3.99687 252.701 3.79321 253.476 3.79321C263.266 3.83394 273.096 3.83394 282.886 3.79321C283.661 3.79321 283.824 3.99687 283.824 4.73002C283.824 9.16967 283.865 13.6501 283.906 18.0897C283.906 18.497 284.151 19.108 283.294 19.1487C282.478 19.1894 282.56 18.7007 282.519 18.2119C282.234 16.0124 282.111 13.813 281.54 11.695C280.888 9.41406 279.541 7.7441 277.665 6.35925C275.993 5.13733 274.075 5.70756 272.24 5.6261C271.669 5.6261 271.913 6.23706 271.913 6.52217C271.913 9.7399 271.954 12.9984 271.954 16.2161C271.995 18.9858 271.995 21.674 271.995 24.3215Z" fill="#2E3540"/>
<path d="M243.156 20.8594C243.156 16.2976 243.115 11.7357 243.156 7.13313C243.156 6.31852 242.993 5.99267 242.095 6.0334C241.075 6.11487 240.015 5.99267 238.995 6.07414C237.894 6.11487 238.302 5.34098 238.261 4.81148C238.22 4.28198 238.138 3.79321 239.036 3.83394C242.585 3.87467 246.134 3.87467 249.682 3.83394C250.539 3.83394 250.498 4.28198 250.457 4.81148C250.417 5.34098 250.784 6.11487 249.682 6.0334C248.581 5.99267 247.48 6.07413 246.378 5.99267C245.562 5.95194 245.358 6.19633 245.358 7.01094C245.399 14.3425 245.358 21.6333 245.358 28.9648C245.358 31.3272 245.358 33.6896 244.991 36.0112C244.176 41.184 241.402 44.1167 236.221 45.0127C232.183 45.7459 228.226 45.2979 224.514 43.5057C220.761 41.7135 218.844 38.6587 218.6 34.5857C218.355 30.9606 218.396 27.3763 218.396 23.7513C218.396 18.1712 218.355 12.5503 218.436 6.97021C218.436 6.0334 218.151 5.78902 217.294 5.87048C216.234 5.95194 215.173 5.82975 214.072 5.91121C213.052 5.99267 213.378 5.30025 213.337 4.77075C213.297 4.20052 213.297 3.79321 214.113 3.79321C219.171 3.83394 224.27 3.83394 229.328 3.79321C230.225 3.79321 230.184 4.24125 230.184 4.85221C230.184 5.46317 230.225 5.95194 229.328 5.91121C228.145 5.82975 226.962 5.91121 225.779 5.87048C225.248 5.87048 224.963 5.95194 224.963 6.60363C225.085 16.4197 224.718 26.2766 225.167 36.0927C225.371 40.3287 228.104 42.9355 232.346 43.1799C233.774 43.2613 235.161 43.3428 236.588 43.0984C239.607 42.5689 241.402 40.6953 242.422 37.8849C243.115 35.9298 243.156 33.934 243.156 31.8974C243.197 28.2724 243.156 24.5659 243.156 20.8594Z" fill="#2E3540"/>
<path d="M297.816 21.307C297.816 25.9096 297.816 30.5121 297.816 35.1147C297.816 36.133 297.938 37.1513 298.265 38.1288C299.203 40.7763 300.875 42.5277 303.771 43.0165C305.648 43.3016 307.524 43.4238 309.36 43.0979C312.949 42.4463 315.193 39.6766 315.723 35.5628C315.968 33.6891 315.927 31.8563 315.927 29.9826C315.927 22.4067 315.927 14.8308 315.968 7.25488C315.968 6.31807 315.723 5.99223 314.785 6.07369C313.928 6.15515 313.031 6.03296 312.174 6.11442C311.236 6.19588 311.073 5.78857 311.032 4.93323C311.032 4.11861 311.195 3.8335 312.093 3.8335C315.478 3.87423 318.864 3.87423 322.29 3.8335C323.188 3.8335 323.269 4.15934 323.229 4.8925C323.188 5.58492 323.269 6.15515 322.25 6.07369C321.393 5.99223 320.496 6.03296 319.639 6.07369C317.967 6.11442 318.171 5.8293 318.171 7.62146C318.171 15.0345 318.171 22.4882 318.171 29.9012C318.171 31.8155 318.089 33.6891 317.844 35.6035C317.151 41.0207 314.295 44.1977 308.952 45.1345C304.954 45.8269 301.038 45.3789 297.326 43.6274C293.002 41.5909 291.371 37.9659 291.248 33.4448C291.248 32.6709 291.208 31.9377 291.208 31.1638C291.208 23.1806 291.208 15.1566 291.208 7.17342C291.208 6.23661 291.085 5.78857 289.984 5.91076C288.883 6.03296 287.781 5.91076 286.68 5.9515C285.864 5.99223 285.986 5.422 286.027 4.97396C286.068 4.52592 285.742 3.87423 286.68 3.87423C291.86 3.91496 297.041 3.91496 302.262 3.87423C303.241 3.87423 302.833 4.56665 302.874 5.01469C302.915 5.46273 303.078 6.03296 302.221 5.99223C301.12 5.91076 300.019 6.03296 298.917 5.9515C298.061 5.91076 297.775 6.11442 297.775 7.05123C297.816 11.8167 297.816 16.5822 297.816 21.3477C297.775 21.307 297.775 21.307 297.816 21.307Z" fill="#2E3540"/>
<path d="M417.089 77.1083C417.089 71.406 417.089 65.663 417.089 59.9607C417.089 58.4944 417.089 58.4944 415.539 58.4944C414.519 58.4944 413.459 58.4537 412.439 58.4944C411.501 58.5351 411.745 57.8834 411.745 57.3947C411.745 56.9059 411.501 56.2949 412.398 56.2949C417.578 56.2949 422.759 56.2949 427.98 56.2949C429 56.2949 428.633 56.9873 428.674 57.4761C428.714 58.0056 428.755 58.5351 427.899 58.4944C426.716 58.4129 425.533 58.5351 424.35 58.4537C423.534 58.4129 423.33 58.6573 423.33 59.4719C423.371 66.6813 423.33 73.8906 423.33 81.0592C423.33 85.6211 423.371 90.1829 423.33 94.7855C423.33 95.6001 423.575 95.8445 424.35 95.8038C425.574 95.7223 426.797 95.8038 428.021 95.763C428.878 95.7223 428.674 96.3333 428.674 96.7406C428.633 97.1886 429 97.881 428.021 97.881C422.8 97.881 417.578 97.881 412.357 97.881C411.378 97.881 411.786 97.1886 411.745 96.7406C411.705 96.2925 411.501 95.7223 412.398 95.763C413.581 95.8038 414.764 95.7223 415.947 95.8038C416.803 95.8445 417.089 95.6408 417.089 94.704C417.089 88.8388 417.089 82.9736 417.089 77.1083Z" fill="#2E3540"/>
<path d="M121.068 131.443C121.068 124.641 121.068 117.798 121.027 110.996C121.027 110.018 121.19 109.611 122.292 109.652C124.413 109.733 124.413 109.693 124.413 111.77C124.413 119.549 124.413 127.329 124.413 135.068C124.413 136.045 124.25 136.534 123.108 136.412C122.006 136.29 120.66 136.819 119.885 136.208C119.11 135.597 118.947 134.294 118.539 133.276C116.214 127.41 113.889 121.545 111.564 115.68C111.523 115.517 111.523 115.273 111.197 115.232C111.197 115.639 111.197 115.965 111.197 116.332C111.197 122.645 111.197 128.999 111.197 135.312C111.197 136.127 111.074 136.453 110.177 136.412C107.852 136.371 107.852 136.412 107.852 134.05C107.852 126.311 107.852 118.572 107.811 110.833C107.811 109.896 108.015 109.611 108.994 109.611C112.216 109.652 112.176 109.611 113.358 112.584C115.724 118.572 118.09 124.519 120.456 130.506C120.578 130.832 120.701 131.117 120.864 131.443C120.946 131.443 120.986 131.443 121.068 131.443Z" fill="#2E3540"/>
<path d="M218.436 131.036C218.436 125.578 218.436 120.16 218.436 114.703C218.436 113.277 218.477 111.892 218.436 110.467C218.436 109.896 218.6 109.693 219.211 109.652C221.863 109.53 221.863 109.53 221.863 112.096C221.863 119.794 221.863 127.492 221.863 135.19C221.863 136.086 221.7 136.534 220.68 136.412C219.538 136.29 218.151 136.86 217.335 136.208C216.601 135.597 216.397 134.253 215.989 133.235C213.745 127.573 211.502 121.953 209.258 116.291C209.136 116.006 209.014 115.68 208.687 115.395C208.687 115.802 208.687 116.169 208.687 116.576C208.687 122.808 208.687 129.08 208.687 135.312C208.687 136.168 208.483 136.412 207.627 136.412C205.302 136.371 205.302 136.412 205.302 134.05C205.302 126.311 205.302 118.572 205.261 110.874C205.261 109.978 205.424 109.652 206.444 109.652C209.626 109.693 209.626 109.652 210.808 112.625C213.174 118.531 215.499 124.437 217.825 130.302C217.947 130.588 218.028 130.832 218.151 131.076C218.273 131.076 218.355 131.036 218.436 131.036Z" fill="#2E3540"/>
<path d="M396 115.395C396 121.912 395.959 128.429 396.041 134.946C396.041 136.046 395.878 136.494 394.654 136.412C392.655 136.29 392.655 136.372 392.655 134.417C392.655 126.555 392.655 118.735 392.655 110.874C392.655 109.978 392.778 109.611 393.797 109.652C396.979 109.693 396.979 109.652 398.162 112.626C400.528 118.532 402.853 124.437 405.178 130.343C405.3 130.629 405.382 130.873 405.708 131.117C405.708 130.751 405.749 130.343 405.749 129.977C405.749 123.623 405.79 117.269 405.708 110.874C405.708 109.937 405.953 109.652 406.891 109.693C409.135 109.734 409.135 109.693 409.135 111.892C409.135 119.713 409.135 127.533 409.135 135.313C409.135 136.209 408.89 136.535 407.993 136.453C406.85 136.331 405.464 136.86 404.648 136.249C403.873 135.679 403.71 134.335 403.302 133.317C401.017 127.574 398.733 121.79 396.449 116.047C396.367 115.843 396.286 115.64 396.204 115.436C396.122 115.395 396.082 115.395 396 115.395Z" fill="#2E3540"/>
<path d="M272.933 127.981C274.524 127.981 274.524 127.981 274.646 129.814C274.769 131.565 275.299 133.072 277.094 133.724C279.093 134.457 281.132 134.457 282.764 132.869C284.192 131.484 284.395 129.732 283.865 127.899C283.457 126.474 282.356 125.618 281.051 125.089C279.46 124.437 277.828 123.949 276.237 123.297C271.791 121.464 270.159 117.106 272.362 112.788C273.912 109.733 276.727 109.082 279.786 109.163C282.438 109.245 284.763 109.937 286.068 112.544C286.598 113.603 286.802 114.784 286.843 115.965C286.843 116.087 286.884 116.25 286.843 116.291C286.109 116.943 285.211 116.495 284.395 116.576C284.069 116.617 283.58 116.78 283.539 116.169C283.539 116.006 283.498 115.884 283.457 115.721C283.213 112.014 280.316 111.526 277.706 112.137C276.237 112.503 275.381 113.562 275.136 115.069C274.85 116.78 275.054 118.409 276.564 119.631C277.502 120.405 278.603 120.812 279.705 121.179C280.887 121.586 282.111 121.953 283.253 122.441C286.598 123.867 288.026 126.392 287.577 130.017C287.128 133.805 285.048 136.127 281.499 136.738C279.908 137.023 278.318 137.023 276.727 136.738C273.423 136.127 271.587 133.887 271.261 130.099C271.261 129.977 271.261 129.854 271.261 129.773C271.179 127.981 271.179 127.981 272.933 127.981Z" fill="#2E3540"/>
<path d="M426.512 116.576C426.226 116.576 425.982 116.536 425.696 116.576C425.003 116.699 424.799 116.413 424.758 115.721C424.431 111.811 421.617 111.485 419.169 112.055C416.355 112.707 415.335 116.78 417.334 119.061C418.354 120.201 419.7 120.649 421.087 121.138C422.229 121.545 423.412 121.871 424.513 122.36C427.899 123.786 429.286 126.27 428.878 129.895C428.47 133.602 426.308 136.005 422.8 136.657C421.127 136.982 419.455 136.942 417.782 136.616C414.56 135.964 412.847 133.805 412.48 129.936C412.276 127.94 412.276 127.94 414.274 127.94C415.784 127.94 415.743 127.94 415.865 129.692C415.988 131.484 416.518 133.113 418.435 133.724C420.475 134.376 422.473 134.376 424.064 132.706C425.492 131.239 425.655 129.447 425.003 127.614C424.554 126.311 423.493 125.537 422.269 125.048C420.679 124.397 419.047 123.908 417.456 123.256C413.051 121.464 411.46 117.106 413.581 112.829C414.968 110.059 418.068 108.715 421.902 109.163C424.35 109.448 426.389 110.345 427.45 112.748C427.776 113.522 427.899 114.336 428.062 115.151C428.266 116.25 428.062 116.821 426.797 116.576C426.757 116.576 426.634 116.576 426.512 116.576Z" fill="#2E3540"/>
<path d="M141.708 116.576C141.464 116.576 141.26 116.535 141.015 116.576C140.321 116.657 140.077 116.494 139.995 115.68C139.791 113.073 138.323 111.77 135.834 111.851C133.632 111.933 132.286 112.869 131.755 114.662C131.143 116.861 131.837 118.816 133.632 119.916C134.284 120.323 134.978 120.608 135.712 120.893C136.691 121.26 137.67 121.545 138.649 121.871C143.054 123.419 144.727 126.066 144.074 130.384C143.503 134.294 140.689 136.656 136.324 136.86C135.222 136.901 134.121 136.819 133.02 136.575C130.083 135.964 128.37 134.049 127.921 130.872C127.921 130.75 127.921 130.628 127.88 130.547C127.554 127.288 127.227 128.062 130.368 127.94C130.939 127.899 131.062 128.184 131.062 128.673C131.103 129.325 131.143 129.976 131.266 130.587C131.714 132.95 133.183 134.049 135.875 134.09C138.078 134.131 139.954 132.746 140.485 130.71C141.096 128.184 140.117 126.148 137.629 125.048C136.038 124.356 134.366 123.826 132.734 123.215C128.981 121.749 127.268 118.898 128.37 114.132C128.981 111.566 130.654 109.978 133.224 109.367C135.345 108.837 137.466 108.878 139.506 109.652C141.912 110.548 143.707 113.562 143.422 116.087C143.381 116.454 143.218 116.535 142.932 116.535C142.565 116.576 142.116 116.576 141.708 116.576Z" fill="#2E3540"/>
<path d="M159.616 120.079C159.616 116.943 159.616 113.847 159.616 110.711C159.616 109.978 159.738 109.652 160.595 109.652C162.96 109.652 162.96 109.611 162.96 112.015C162.96 117.554 162.96 123.053 162.96 128.592C162.96 129.732 162.838 130.873 162.471 131.973C161.574 134.62 159.779 136.209 157.005 136.738C155.577 136.982 154.19 136.942 152.803 136.697C149.785 136.127 147.827 133.968 147.419 130.71C147.297 129.855 147.256 128.959 147.256 128.103C147.256 122.401 147.256 116.658 147.215 110.956C147.215 109.978 147.419 109.652 148.439 109.693C150.56 109.774 150.56 109.734 150.56 111.852C150.56 117.35 150.56 122.808 150.56 128.307C150.56 129.407 150.642 130.506 151.009 131.565C151.621 133.317 153.007 134.213 155.129 134.172C157.331 134.131 158.677 133.235 159.248 131.402C159.575 130.425 159.575 129.366 159.575 128.348C159.616 125.578 159.616 122.808 159.616 120.079Z" fill="#2E3540"/>
<path d="M340.646 120.12C340.646 116.943 340.646 113.807 340.646 110.63C340.646 109.896 340.81 109.652 341.585 109.652C344.032 109.652 344.032 109.611 344.032 112.096C344.032 117.554 344.032 123.012 344.032 128.429C344.032 129.366 343.951 130.262 343.747 131.158C343.053 134.376 340.932 136.249 337.628 136.779C336.2 137.023 334.813 136.901 333.426 136.575C330.204 135.761 328.328 133.235 328.287 129.366C328.205 123.093 328.287 116.78 328.246 110.507C328.246 109.856 328.45 109.693 329.103 109.652C331.672 109.611 331.632 109.571 331.632 112.096C331.632 117.472 331.632 122.849 331.632 128.225C331.632 129.04 331.632 129.814 331.795 130.628C332.284 133.032 333.63 134.172 336.119 134.172C338.648 134.172 339.953 133.072 340.442 130.547C340.606 129.773 340.606 129.04 340.606 128.266C340.646 125.537 340.646 122.849 340.646 120.12Z" fill="#2E3540"/>
<path d="M245.685 123.012C245.685 118.898 245.726 114.784 245.685 110.67C245.685 109.856 245.93 109.652 246.705 109.652C250.661 109.693 254.618 109.693 258.616 109.652C259.431 109.652 259.635 109.896 259.595 110.67C259.554 112.666 259.595 112.666 257.637 112.666C255.108 112.666 252.619 112.707 250.09 112.666C249.274 112.666 249.07 112.911 249.07 113.684C249.111 115.762 249.111 117.88 249.07 119.957C249.03 120.812 249.356 120.975 250.131 120.935C252.742 120.894 255.311 120.935 257.922 120.894C258.779 120.894 259.105 121.016 259.105 121.994C259.023 123.867 259.105 123.867 257.147 123.867C254.822 123.867 252.497 123.908 250.172 123.826C249.274 123.786 249.111 124.071 249.111 124.926C249.152 127.37 249.152 129.814 249.111 132.217C249.111 133.072 249.315 133.317 250.172 133.317C253.109 133.276 256.046 133.317 258.983 133.276C259.799 133.276 260.125 133.439 260.084 134.335C260.043 136.331 260.084 136.331 258.004 136.331C254.332 136.331 250.661 136.29 247.031 136.371C246.011 136.371 245.644 136.168 245.685 135.068C245.726 131.076 245.685 127.044 245.685 123.012Z" fill="#2E3540"/>
<path d="M225.86 123.093C225.86 120.405 225.983 117.676 226.799 115.069C228.389 109.897 233.366 107.616 238.342 109.815C240.79 110.874 242.829 114.581 242.422 117.065C242.381 117.31 242.299 117.513 242.014 117.473C241.157 117.473 240.26 117.473 239.403 117.473C238.954 117.473 238.913 117.147 238.873 116.862C238.791 116.454 238.791 116.006 238.71 115.599C238.302 113.318 237.078 112.096 234.998 111.892C232.754 111.689 231.204 112.626 230.347 114.784C229.695 116.373 229.532 118.043 229.45 119.713C229.246 123.256 229.164 126.8 230.062 130.262C230.837 133.235 232.795 134.539 235.528 134.009C237.445 133.643 238.302 132.258 238.71 130.547C238.913 129.733 238.995 128.877 239.036 128.063C239.077 127.411 239.199 127.085 239.974 127.126C243.156 127.289 242.911 126.393 242.258 129.936C241.687 133.113 240.178 135.679 236.792 136.575C232.101 137.838 228.267 135.679 226.799 131.077C225.942 128.47 225.86 125.782 225.86 123.093Z" fill="#2E3540"/>
<path d="M48.3782 124.6C48.3782 128.144 48.3374 131.687 48.3782 135.231C48.3782 136.046 48.2559 136.453 47.2769 136.412C44.9926 136.331 44.9926 136.412 44.9926 134.131C44.9926 127.329 44.9926 120.527 44.9926 113.684C44.9926 112.87 44.8294 112.544 43.932 112.625C42.3412 112.707 40.7503 112.625 39.1187 112.666C38.5068 112.666 38.262 112.544 38.262 111.852C38.2213 109.652 38.1805 109.652 40.3424 109.652C44.8702 109.652 49.398 109.652 53.9666 109.652C54.7417 109.652 55.1088 109.734 55.068 110.67C54.9864 112.666 55.068 112.666 53.11 112.666C51.8455 112.666 50.581 112.707 49.3572 112.666C48.5822 112.625 48.3374 112.829 48.3374 113.684C48.419 117.309 48.3782 120.935 48.3782 124.6Z" fill="#2E3540"/>
<path d="M311.848 123.012C311.848 118.898 311.848 114.784 311.848 110.67C311.848 109.856 312.093 109.652 312.868 109.652C315.274 109.652 315.274 109.652 315.274 112.014C315.274 118.776 315.274 125.496 315.234 132.258C315.234 133.194 315.519 133.398 316.376 133.398C319.231 133.357 322.086 133.398 324.942 133.357C325.839 133.357 326.125 133.561 326.125 134.498C326.084 136.412 326.125 136.412 324.167 136.412C320.414 136.412 316.702 136.371 312.949 136.453C312.011 136.453 311.807 136.168 311.807 135.272C311.889 131.158 311.848 127.085 311.848 123.012Z" fill="#2E3540"/>
<path d="M6.77132 124.437C6.77132 120.853 6.73053 117.269 6.81211 113.684C6.81211 112.788 6.56737 112.585 5.71075 112.625C4.16069 112.707 2.56984 112.625 1.01978 112.666C0.285537 112.707 -6.93457e-07 112.503 -6.93457e-07 111.729C-6.93457e-07 109.652 -0.0407918 109.652 1.99876 109.652C6.60816 109.652 11.2176 109.652 15.8269 109.652C16.6428 109.652 16.8467 109.856 16.8467 110.67C16.8059 112.666 16.8467 112.666 14.8888 112.666C13.6242 112.666 12.3597 112.707 11.136 112.666C10.2794 112.625 10.0346 112.87 10.0346 113.725C10.0754 120.12 10.0754 126.515 10.0754 132.909C10.0754 133.765 10.0346 134.661 10.0754 135.516C10.1162 136.127 9.95303 136.371 9.25958 136.412C6.73053 136.494 6.73053 136.534 6.73053 134.05C6.77132 130.832 6.77132 127.655 6.77132 124.437Z" fill="#2E3540"/>
<path d="M356.229 124.559C356.229 128.144 356.188 131.728 356.229 135.312C356.229 136.086 356.106 136.453 355.209 136.453C352.925 136.412 352.925 136.453 352.925 134.213C352.925 127.451 352.884 120.649 352.965 113.888C352.965 112.91 352.721 112.666 351.782 112.707C350.232 112.788 348.642 112.707 347.091 112.747C346.48 112.747 346.235 112.625 346.194 111.933C346.112 109.733 346.112 109.733 348.315 109.733C352.843 109.733 357.371 109.774 361.939 109.733C362.837 109.733 363.122 109.937 363.082 110.874C363 112.747 363.082 112.747 361.246 112.747C359.941 112.747 358.635 112.788 357.371 112.747C356.555 112.707 356.269 112.91 356.269 113.806C356.269 117.309 356.229 120.934 356.229 124.559Z" fill="#2E3540"/>
<path d="M74.3622 122.849C74.3622 118.775 74.403 114.702 74.3622 110.629C74.3622 109.815 74.6069 109.611 75.382 109.611C77.7886 109.652 77.7886 109.611 77.7886 111.973C77.7886 118.613 77.8294 125.292 77.7478 131.932C77.7478 133.153 78.115 133.357 79.2163 133.316C81.9901 133.235 84.7639 133.316 87.5785 133.276C88.3535 133.276 88.6391 133.398 88.6391 134.253C88.5983 136.33 88.6391 136.33 86.5179 136.33C82.9283 136.33 79.3387 136.29 75.7899 136.371C74.7293 136.371 74.3622 136.168 74.403 135.027C74.403 130.995 74.3622 126.922 74.3622 122.849Z" fill="#2E3540"/>
<path d="M103.487 123.093C103.487 127.125 103.446 131.158 103.528 135.19C103.528 136.127 103.324 136.453 102.345 136.412C100.183 136.331 100.183 136.412 100.183 134.253C100.183 126.433 100.183 118.653 100.142 110.833C100.142 109.896 100.346 109.611 101.325 109.652C103.487 109.733 103.487 109.652 103.487 111.811C103.487 115.558 103.487 119.346 103.487 123.093Z" fill="#2E3540"/>
<path d="M368.833 123.093C368.833 127.125 368.792 131.158 368.874 135.19C368.874 136.127 368.67 136.453 367.691 136.412C365.529 136.331 365.529 136.412 365.529 134.253C365.529 126.433 365.529 118.653 365.488 110.833C365.488 109.896 365.692 109.611 366.671 109.652C368.833 109.733 368.833 109.652 368.833 111.811C368.833 115.558 368.833 119.346 368.833 123.093Z" fill="#2E3540"/>
<path d="M164.714 90.5493C164.755 89.5311 164.429 89.2867 163.45 89.2867C154.517 89.3274 145.583 89.3274 136.65 89.3274C136.242 89.3274 135.875 89.3274 135.386 89.3274C135.794 88.8794 136.202 88.8386 136.609 88.6757C138.2 88.0648 139.791 87.4538 141.3 86.5984C142.932 85.6209 143.829 84.2768 143.748 82.281C143.666 79.552 143.707 76.7823 143.707 74.0534C143.707 72.3427 143.707 70.6727 143.707 68.962C144.074 69.3286 144.237 69.6952 144.401 70.1025C145.706 73.2795 147.093 76.4158 149.091 79.2262C151.457 82.4846 154.476 84.6026 158.718 84.399C160.595 84.3175 162.389 83.8288 164.347 83.34C162.471 81.3035 160.758 79.2669 159.493 76.9045C157.576 73.361 154.517 72.1798 150.601 73.361C149.948 73.5646 149.663 73.4017 149.418 72.8315C148.602 70.8764 147.705 68.9213 146.93 66.9662C144.645 61.101 142.32 55.2765 138.935 49.9815C135.426 44.5236 130.858 40.369 124.494 38.5362C120.619 37.3957 116.622 37.0291 112.624 36.8662C106.75 36.5811 100.917 36.0923 95.0841 35.6443C94.2683 35.5628 93.2077 35.7665 92.6366 35.3592C91.984 34.8297 92.6366 33.7299 92.4327 32.8746C92.1879 31.9378 92.5958 31.7749 93.4116 31.8156C101.08 31.8563 108.749 31.8156 116.418 31.8563C122.333 31.7749 126.86 29.4532 129.716 24.1582C129.96 23.7102 130.246 23.5472 130.776 23.5065C136.283 23.3029 140.444 20.7775 143.054 15.8899C143.34 15.4011 143.625 15.1974 144.197 15.1974C146.93 15.116 149.581 14.7087 151.988 13.3238C155.455 11.3687 157.331 8.23248 158.841 4.77036C159.248 3.87429 158.881 3.87429 158.188 3.87429C130.98 3.87429 103.773 3.87429 76.5649 3.87429C73.7503 3.87429 71.2621 4.81109 69.1001 6.60325C67.183 8.19175 65.8777 10.2283 64.9802 12.7129C64.8171 12.4277 64.7355 12.3056 64.6947 12.2241C62.0841 5.91082 57.1891 2.40798 50.6218 1.18606C45.3189 0.167788 40.7095 1.67483 37.0383 5.62571C35.162 7.62152 33.8974 10.1061 32.4697 12.4277C30.9197 14.9123 29.6959 17.5598 27.7788 19.8407C26.5958 21.2256 26.6366 22.8955 27.6564 24.4026C27.9419 24.8099 28.0235 25.095 27.8603 25.6245C27.0853 27.824 28.2275 29.9012 30.4302 30.5529C32.1434 31.0824 33.6527 30.6344 35.1212 29.779C36.2633 29.1274 37.4055 28.3942 38.5476 27.7018C38.9963 27.4574 39.4042 27.4574 39.8121 27.7832C40.1793 28.1091 40.3016 28.5164 40.22 29.0052C40.0977 29.6569 39.7306 30.1049 39.2003 30.4715C38.3844 31.0417 37.4463 31.3268 36.4265 31.4897C34.7948 31.6934 33.1224 31.6527 31.5723 32.1414C29.1657 32.9153 28.6762 35.0333 30.4302 36.8255C30.5526 36.9477 30.7157 37.1106 30.8381 37.192C31.3276 37.5179 31.3276 37.8437 31.0013 38.3325C30.1039 39.7174 29.2472 41.1022 28.3906 42.487C28.0643 43.0573 27.8196 43.3017 27.1669 42.7314C25.6168 41.3466 23.822 40.3283 21.7825 39.7988C19.3758 39.1878 17.0507 39.2693 15.2151 41.2244C14.7664 41.7132 14.3177 41.9168 13.7058 41.9983C9.38198 42.65 7.17926 45.4604 7.87271 49.3705C8.03587 50.1852 8.23983 50.9998 8.68853 51.7329C9.09644 52.3846 8.97407 52.6697 8.19904 52.8327C5.95552 53.3622 3.71201 54.0546 1.42771 54.5433C0.448726 54.747 0.203979 55.1543 0.203979 56.1318C0.244771 69.4508 0.244771 82.8105 0.244771 96.1294C0.244771 97.7179 0.244771 97.7179 1.79483 97.7179C55.5575 97.7179 109.32 97.7179 163.083 97.7179C163.287 97.7179 163.45 97.6772 163.654 97.7179C164.388 97.8401 164.633 97.555 164.633 96.7811C164.674 94.8261 164.633 92.6673 164.714 90.5493ZM152.232 76.538C153.905 76.2121 155.292 76.7823 156.189 78.2486C156.679 79.104 157.168 79.9593 157.698 80.8961C155.047 80.6518 153.334 79.1447 151.906 77.1896C151.621 76.7416 151.784 76.6194 152.232 76.538ZM134.815 50.2666C134.733 50.8368 134.366 50.5925 134.08 50.5517C129.92 50.0222 125.881 49.2076 122.659 46.1935C121.068 44.6865 119.722 42.9351 118.457 40.8985C125.433 41.591 130.899 44.5643 134.815 50.2666ZM118.947 28.1091C117.111 28.4349 115.235 28.3127 113.358 28.3127C109.32 28.3127 105.282 28.3127 101.244 28.3127C100.876 28.3127 100.509 28.3127 99.9382 28.3127C101.325 26.8872 102.426 25.4616 103.242 23.8731C103.405 23.5472 103.691 23.5065 104.017 23.5065C111.237 23.5065 118.498 23.5065 125.718 23.5472C125.759 23.5472 125.759 23.588 125.881 23.7102C124.25 26.2355 121.925 27.6203 118.947 28.1091ZM135.671 18.7817C134.162 19.5964 132.53 20.0444 130.858 20.0444C125.066 20.0851 119.314 20.0851 113.277 20.0851C114.664 18.7003 115.684 17.3562 116.499 15.8491C116.663 15.4826 116.867 15.2382 117.356 15.2382C124.617 15.2382 131.918 15.2382 139.342 15.2382C138.404 16.8674 137.18 17.9671 135.671 18.7817ZM130.776 7.78444C130.98 7.41786 131.225 7.3364 131.592 7.3364C138.771 7.3364 145.91 7.3364 153.089 7.3364C153.171 7.3364 153.211 7.37713 153.375 7.49932C152.151 9.33221 150.397 10.4727 148.357 11.1244C147.501 11.4095 146.562 11.6131 145.665 11.6131C139.791 11.6539 133.958 11.6539 127.839 11.6539C129.063 10.3505 130.042 9.16928 130.776 7.78444ZM50.0507 4.72963C48.0519 5.95155 46.2979 7.3364 44.2992 8.15102C42.9123 8.68052 41.2398 8.15102 39.4858 8.3954C41.7293 5.34059 45.89 3.91502 50.0507 4.72963ZM32.5105 34.7075C32.5921 34.0965 33.2856 34.3409 33.6527 34.3409C35.2843 34.5038 36.916 34.4223 38.5476 34.015C39.9345 33.6485 41.199 33.0375 42.178 31.9378C43.361 30.5529 43.7281 29.0052 43.1162 27.2537C42.5451 25.6652 41.5254 24.484 39.7713 24.1175C38.8739 23.9138 38.0173 24.1582 37.2015 24.484C36.0186 25.0135 34.958 25.7874 33.8566 26.4799C33.3671 26.8057 32.8777 27.0908 32.3474 27.2945C31.9395 27.4574 31.4908 27.5389 31.2052 27.1315C30.8381 26.6835 31.3684 26.4799 31.5315 26.1947C31.9395 25.543 32.7553 24.9321 32.7553 24.3211C32.7553 23.7509 31.6947 23.4658 31.1236 23.0585C30.4302 22.5697 30.3078 22.1217 30.9197 21.4292C31.6539 20.5739 32.3066 19.5964 33 18.7003C33.3671 18.2115 33.8158 17.7635 34.5093 17.8857C35.2435 18.0079 35.6514 18.4966 35.733 19.189C35.8146 19.7185 36.1001 20.0037 36.5896 20.1259C37.6502 20.411 39.7306 18.4966 39.5266 17.3969C39.445 16.8674 39.0371 16.7452 38.6292 16.7045C38.1397 16.6637 37.6502 16.7045 37.1607 16.6637C36.4265 16.623 35.6514 16.5823 35.3659 15.7677C35.0804 14.9123 35.3251 14.0977 35.9778 13.446C36.6712 12.7129 37.6094 12.3463 38.5884 12.1019C40.3016 11.6539 42.0556 11.4502 43.8097 11.7761C44.6255 11.939 45.3597 11.7761 46.0532 11.2873C48.2151 9.90244 50.377 8.59905 52.5798 7.25494C52.8653 7.09202 53.1508 6.64398 53.4364 6.92909C53.6403 7.09202 53.5995 7.58079 53.5995 7.90663C53.5179 10.5949 52.1311 12.6314 49.8875 13.9348C48.9493 14.505 48.7046 15.0345 48.9901 16.0121C49.0309 16.175 49.0309 16.2972 49.0717 16.4601C49.4388 17.6413 49.4796 18.4966 48.0111 19.189C46.094 20.0851 45.4413 21.9995 45.8492 24.1582C46.094 25.543 46.3387 26.9279 46.5835 28.3127C46.9914 30.4307 46.2979 32.1414 44.6255 33.4448C42.382 35.237 39.7713 35.9294 36.9568 35.9701C35.8146 35.9701 34.6725 35.8479 33.5711 35.5628C33.0816 35.4406 32.4289 35.3184 32.5105 34.7075ZM6.85293 89.2867C6.85293 89.2459 6.81214 89.1645 6.81214 89.1238C8.8109 88.5943 10.8097 88.0648 12.8084 87.5353C13.2163 87.4131 13.6243 87.3723 14.0322 87.2094C17.8665 85.6616 21.6601 85.7431 25.5353 87.1687C27.9011 88.024 30.3894 88.4721 32.7961 89.2867C24.1484 89.2867 15.5006 89.2867 6.85293 89.2867ZM35.733 71.8946C35.733 76.3343 35.733 80.8147 35.733 85.2543C35.733 86.1097 35.5291 86.2726 34.7132 86.0282C30.1039 84.8063 25.4537 83.6251 20.8035 82.4032C20.11 82.2403 19.4982 82.1995 18.8047 82.4032C14.1137 83.6251 9.46356 84.8063 4.77258 86.0689C3.99755 86.2726 3.7936 86.1911 3.7936 85.3358C3.83439 76.4158 3.83439 67.4957 3.7936 58.6164C3.7936 57.9647 3.99755 57.7203 4.65021 57.5574C9.50435 56.3355 14.3177 55.0728 19.1311 53.8102C19.5798 53.688 20.0285 53.688 20.4772 53.8102C25.2089 55.0321 29.9815 56.2948 34.754 57.476C35.6107 57.6796 35.7738 58.0869 35.7738 58.8608C35.733 63.219 35.733 67.5365 35.733 71.8946ZM37.7318 54.5841C32.021 53.1178 26.3103 51.6922 20.5995 50.1852C20.0692 50.063 19.5798 50.0222 19.0495 50.1852C17.2955 50.6739 15.5006 51.0812 13.7466 51.57C13.094 51.7329 12.6453 51.6515 12.3189 51.0405C12.115 50.6739 11.911 50.3073 11.7479 49.9408C10.6465 47.2118 12.2374 45.2567 15.1743 45.6233C15.3783 45.664 15.5822 45.6233 15.7454 45.7048C16.7652 46.0713 17.2547 45.7048 17.4586 44.6865C17.7034 43.4646 18.6416 43.0573 19.7837 43.1387C21.9456 43.2609 23.6589 44.4014 25.2497 45.7048C26.9222 47.0896 28.0643 48.8818 29.1657 50.7146C29.492 51.2441 29.8183 51.8144 30.2262 52.4661C30.9197 51.4885 31.5315 50.6332 32.1434 49.7778C32.3474 49.4927 32.3066 49.2076 32.1842 48.9225C32.1026 48.8003 32.0618 48.6374 31.9395 48.5152C30.2262 46.8452 30.5526 45.2567 31.9395 43.5053C32.8777 42.3241 33.6119 40.98 34.3869 39.6766C34.6317 39.2286 34.9172 39.0249 35.4475 39.1064C40.4648 39.6766 44.8702 38.414 48.4191 34.6667C50.7442 31.6527 50.2139 28.3127 49.5204 24.9321C48.9493 22.0402 49.2757 21.5922 52.2126 21.6736C53.2324 21.7144 53.6403 21.5107 53.314 20.411C52.5798 18.0486 52.539 16.0121 54.7825 14.0977C56.4957 12.6721 57.026 10.269 57.1484 7.8659C58.0458 8.31394 58.576 9.00636 59.1063 9.65805C62.2472 13.6904 63.3894 18.1301 62.1249 23.1399C61.3498 26.1947 60.4932 29.2495 59.3103 32.1414C59.0247 32.8339 59.2287 33.1597 59.8406 33.4448C60.3301 33.6485 60.7788 33.9743 61.2275 34.2187C64.45 36.1738 64.9395 40.0025 62.4512 42.8943C60.6972 44.8902 58.4129 45.5011 55.9654 45.8677C55.3535 45.9492 54.7009 46.1121 53.7627 46.275C55.1088 47.1711 56.2509 47.9042 57.3115 48.6781C58.6168 49.5742 59.2695 50.8368 59.0247 52.4253C58.78 53.9324 57.8418 54.9506 56.4141 55.4801C55.8022 55.7245 55.1496 55.806 54.4969 55.7245C53.8443 55.6431 53.5587 55.9282 53.3956 56.5392C53.1508 57.4352 52.7837 58.3313 52.4574 59.2274C51.5192 61.6712 49.6836 63.0153 47.073 63.4634C46.4611 63.5448 46.2979 63.4634 46.3795 62.8117C46.5427 61.549 46.7058 60.2456 46.6243 58.9423C46.5427 57.2316 46.4611 55.5616 46.3387 53.4843C45.4413 54.4212 44.7479 55.1136 44.0952 55.8467C43.0346 57.1094 41.6477 57.7203 40.1385 58.2091C39.5674 58.372 39.2411 58.3313 39.3226 57.6389C39.3634 57.3945 39.2819 57.1094 39.3226 56.8243C39.5266 55.5616 39.0779 54.747 37.7318 54.5841ZM42.1372 87.0058C42.5451 89.4089 42.5451 89.4089 40.0977 89.3274C39.445 89.3274 39.2819 89.1237 39.2819 88.4721C39.2819 79.8779 39.2819 71.243 39.2819 62.6488C39.2819 62.0378 39.5266 61.8749 40.0161 61.7527C40.628 61.6305 41.199 61.4676 41.7701 61.3046C43.1162 60.8566 43.1162 60.8566 42.9123 62.3229C42.7083 63.667 42.5043 65.0519 42.2188 66.3553C42.0556 67.007 42.2596 67.1292 42.8715 67.1292C45.6045 67.1292 48.3375 67.007 51.0705 65.8258C51.0705 67.9438 51.0705 69.8988 51.0705 71.8539C51.0705 73.4017 51.0297 74.9902 51.0705 76.538C51.1113 77.3118 50.8665 77.6377 50.0507 77.6377C48.6638 77.597 47.3177 77.8413 46.0532 78.4523C42.9123 79.9186 41.4846 83.0141 42.1372 87.0058ZM78.3189 87.9018C78.3597 88.3091 78.4005 88.7165 78.4821 89.1645C78.1558 89.3681 77.8294 89.2867 77.5031 89.2867C71.9963 89.2867 66.4895 89.2867 60.9419 89.2867C60.6564 89.2867 60.1669 89.6125 60.0037 89.0016C62.6959 88.2684 64.0828 86.7206 64.2052 83.8695C64.246 82.5661 64.8579 81.9959 65.9184 81.5478C67.3869 80.9369 67.3461 80.8961 66.4487 79.5113C64.8987 77.1489 65.1026 74.5014 65.2658 71.8946C65.3474 70.5913 65.6329 69.2471 65.8369 67.9438C65.8776 67.4957 66.0816 67.2921 66.5711 67.2921C72.6082 67.4143 78.3189 65.7443 83.9481 63.8707C85.6205 63.3005 87.3746 62.8932 89.0878 62.3637C89.6589 62.2007 89.9036 62.3229 90.1891 62.8117C92.3919 66.4367 94.5538 70.021 96.7565 73.6461C97.1644 74.3385 97.2052 75.0309 96.7157 75.6826C95.6144 77.1896 94.1867 78.4523 93.0037 79.8371C92.759 80.1223 92.4734 80.0408 92.1471 79.9593C90.6378 79.6742 89.1694 79.3891 87.6601 79.1447C82.0717 78.1264 77.7071 82.281 78.3189 87.9018ZM94.1459 89.3274C92.3103 89.2867 90.4747 89.3274 88.6391 89.3274C86.7219 89.3274 84.8047 89.3274 82.9283 89.3274C82.5204 89.3274 82.0309 89.4089 81.9493 88.7979C81.7046 87.3316 81.5822 85.8653 82.3573 84.4805C83.1731 83.0141 84.9271 82.1588 86.5995 82.4439C88.6391 82.8105 90.6378 83.1363 92.6774 83.5436C93.6564 83.7473 94.3091 83.5436 94.9617 82.7698C96.2262 81.3035 97.6131 79.9186 98.8776 78.4523C100.917 76.1714 101.04 73.9719 99.4487 71.3651C97.5723 68.3103 95.7367 65.2555 93.8604 62.2007C93.4932 61.6305 93.534 61.3861 94.2683 61.3046C97.0828 60.9788 99.7343 61.5083 102.223 62.8117C102.508 62.9746 102.712 63.1375 102.834 63.4226C104.344 66.5589 105.812 69.7359 107.362 72.8722C108.219 74.5829 107.77 75.8863 106.506 77.1896C102.875 80.9776 99.2448 84.8063 95.6552 88.635C95.288 89.1645 94.8393 89.3681 94.1459 89.3274ZM121.231 87.7796C121.394 88.2277 121.598 88.6757 121.802 89.2459C114.582 89.2459 107.444 89.2459 100.265 89.2459C100.142 88.9201 100.469 88.7572 100.672 88.5943C103.487 85.6209 106.302 82.6068 109.157 79.6335C111.482 77.2304 112.094 74.5829 110.625 71.4873C109.81 69.8174 109.075 68.1067 108.219 66.2738C114.174 68.7584 120.293 69.5323 126.412 70.1432C127.268 70.2247 128.166 70.3061 129.022 70.3876C130.328 70.5098 130.899 70.9578 131.103 72.2612C131.307 73.6868 131.388 75.1531 131.551 76.5787C131.592 77.0675 131.429 77.2304 130.98 77.3118C129.471 77.6377 127.962 78.1264 126.412 78.3301C121.598 78.9003 119.64 83.3807 121.231 87.7796ZM125.31 88.2684C124.78 87.2909 124.291 86.3133 124.209 85.1729C124.087 83.2178 124.78 82.2403 126.697 81.833C129.267 81.2627 131.837 80.6925 134.407 80.163C135.1 80.0001 135.426 79.7964 135.304 78.9818C134.978 76.5787 134.815 74.1348 134.529 71.7317C134.203 69.0028 132.326 67.2513 129.634 67.007C124.209 66.4775 118.784 65.9887 113.522 64.5224C111.115 63.83 108.79 62.9746 106.75 61.5083C101.488 57.6389 95.7367 57.1501 89.5773 58.6572C85.335 59.6754 81.2559 61.1825 77.0952 62.3637C73.0977 63.5041 69.0594 63.9929 64.8987 63.8707C63.1854 63.83 63.1854 63.83 62.8183 65.4185C61.8801 69.4915 61.2275 73.5646 62.0433 77.7191C62.288 78.8596 62.492 79.7964 61.4314 80.7332C60.738 81.3442 60.6972 82.3624 60.6972 83.2993C60.6972 85.0099 60.2893 85.4987 58.576 85.8246C57.1484 86.1097 55.6799 86.1097 54.2522 86.1097C53.6403 86.1097 53.2324 86.2319 52.8245 86.8021C51.3152 88.7572 49.1941 89.1645 46.869 88.9608C46.4203 88.9201 46.094 88.7164 46.0124 88.2277C45.8492 87.4538 45.6045 86.6799 45.5637 85.8653C45.3189 82.9327 46.8282 81.3442 49.8875 81.2627C50.7034 81.222 51.4784 81.3035 52.2534 80.9369C53.9259 80.163 54.6601 78.7781 54.6601 76.986C54.6601 72.5463 54.7009 68.1474 54.6601 63.7078C54.6601 62.0378 55.843 60.8566 56.2917 59.3903C56.3733 59.1052 56.822 59.1052 57.1076 59.0237C61.6762 57.6796 63.8381 53.1178 61.8393 48.8003C61.513 48.1079 61.7985 47.945 62.3288 47.6191C66.4487 45.1345 68.2843 41.1429 67.3461 36.7847C66.8974 34.7075 65.7553 33.119 64.0013 31.9378C63.5526 31.6119 63.4302 31.3675 63.6341 30.838C65.3882 25.5023 66.6527 20.0037 68.2435 14.5865C69.5896 9.90244 72.8529 7.37713 77.7071 7.37713C93.6564 7.37713 109.606 7.37713 125.555 7.37713C125.963 7.37713 126.371 7.37713 127.024 7.37713C124.658 10.4727 121.721 11.6946 118.213 11.6946C110.299 11.6946 102.426 11.6946 94.513 11.6946C92.4327 11.6946 90.3115 11.7353 88.2312 11.6946C87.6193 11.6946 87.293 11.8575 87.0074 12.4277C85.6613 15.2789 85.6205 15.2382 88.7615 15.2382C96.3078 15.2382 103.854 15.2382 111.441 15.2382C111.849 15.2382 112.257 15.2382 112.869 15.2382C111.156 17.9671 108.831 19.3927 105.935 19.8815C104.915 20.0444 103.895 20.1259 102.875 20.1259C96.7565 20.1259 90.6786 20.1259 84.56 20.0851C83.7849 20.0851 83.377 20.248 83.1323 21.0219C82.8467 21.8365 82.398 22.6104 81.9901 23.5065C87.8233 23.5065 93.5748 23.5065 99.5303 23.5065C98.5921 25.095 97.4092 26.154 95.9815 26.9686C94.0643 28.0276 91.984 28.3535 89.822 28.3535C86.6403 28.3535 83.4994 28.3942 80.3177 28.3535C79.4611 28.3535 79.0124 28.5979 78.7268 29.4125C78.4413 30.1864 78.0334 30.9195 77.6255 31.8156C80.9704 31.8156 84.2336 31.8156 87.4561 31.8156C89.1694 31.8156 89.3733 32.0192 89.3325 33.7707C89.2917 36.3367 86.8851 38.2103 84.3968 37.6401C83.7849 37.4772 83.0915 37.355 82.5612 37.0291C81.5414 36.4182 80.7664 36.5811 80.0322 37.4772C79.6243 37.9659 79.094 38.3732 78.5229 38.862C81.3375 40.0839 83.9481 41.591 87.1298 40.7763C88.1496 40.532 89.0878 40.1247 89.8628 39.4322C90.4339 38.9027 91.005 38.8213 91.7392 38.862C98.7961 39.3508 105.853 40.1247 112.951 40.3283C113.848 40.369 114.378 40.7356 114.827 41.5095C116.581 44.3199 118.457 47.0489 120.986 49.2891C124.087 52.018 127.88 53.1178 131.796 53.7695C133.469 54.0546 135.182 54.299 136.895 54.4619C137.548 54.5433 137.915 54.7877 138.2 55.358C138.771 56.5799 139.383 57.8425 139.995 59.0237C140.281 59.6347 140.403 60.2049 140.403 60.8973C140.403 68.0252 140.403 75.1531 140.444 82.281C140.444 82.8919 140.24 83.2993 139.71 83.5844C138.853 84.1139 137.956 84.5212 137.017 84.847C133.591 86.1504 130.164 87.4131 126.779 88.7164C126.004 88.9608 125.637 88.8794 125.31 88.2684Z" fill="#2E3540"/>
<path d="M60.0037 88.9607C60.1261 89.1236 60.2893 89.1643 60.4932 89.1643C66.4895 89.1643 72.4858 89.1236 78.4821 89.1236C78.3189 89.5309 77.9926 89.368 77.7071 89.368C71.6292 89.368 65.5513 89.368 59.4734 89.368C59.3103 89.368 59.1879 89.3273 58.9839 89.2051C59.3103 89.1643 59.6366 89.0422 60.0037 88.9607Z" fill="#2E3540"/>
<path d="M134.08 50.5517C134.325 50.4295 134.651 50.5924 134.815 50.2666C134.978 50.3481 135.182 50.5924 135.019 50.6739C134.733 50.8368 134.366 50.7554 134.08 50.5517Z" fill="#2E3540"/>
<path d="M409.91 83.5438C409.91 83.0143 410.073 82.4848 409.175 82.4848C408.4 82.4848 408.237 82.7292 408.156 83.4624C407.829 85.9877 407.381 88.513 406.32 90.8346C405.219 93.2785 403.424 94.867 400.732 95.3965C399.263 95.6816 397.795 95.7631 396.285 95.8445C395.347 95.8852 395.143 95.6001 395.143 94.704C395.184 88.35 395.143 81.9961 395.143 75.6013C395.143 70.2656 395.184 64.9299 395.103 59.5941C395.103 58.6981 395.347 58.4129 396.245 58.4537C397.387 58.5351 398.529 58.4129 399.671 58.4944C400.487 58.5351 400.446 58.0464 400.365 57.5576C400.283 57.0688 400.732 56.3357 399.712 56.3357C394.409 56.3357 389.106 56.3357 383.803 56.3357C382.865 56.3357 383.11 56.9466 383.11 57.4354C383.11 57.8834 382.824 58.5759 383.763 58.5351C384.864 58.4944 385.965 58.5759 387.067 58.4944C388.005 58.4129 388.25 58.7388 388.25 59.6756C388.209 70.7544 388.25 81.8331 388.209 92.9526C388.209 93.8894 388.617 95.0706 388.005 95.6816C387.434 96.2111 386.251 95.7223 385.353 95.8445C384.415 95.9667 384.048 95.5594 383.763 94.704C378.949 81.8739 374.054 69.0437 369.282 56.1727C368.874 55.1137 368.221 55.3581 367.528 55.2767C366.753 55.1952 366.467 55.5211 366.222 56.2135C363.163 65.1742 360.063 74.135 357.004 83.0551C355.943 86.1099 354.883 89.1647 353.822 92.2195C353.373 93.4414 352.802 94.5819 351.66 95.3965C351.007 95.8445 350.314 95.926 349.58 95.6001C348.886 95.2743 349.009 94.6226 349.009 94.0116C349.009 93.2377 349.009 92.5046 349.009 91.7307C348.927 89.0832 349.172 86.395 348.764 83.7475C348.234 80.2039 346.643 78.2896 343.135 77.3527C342.645 77.2306 342.156 77.1491 341.421 76.9862C343.706 76.2937 345.582 75.3162 347.214 73.8906C351.456 70.1841 351.782 62.8526 347.785 59.309C345.297 57.1096 342.237 56.5393 339.056 56.4986C335.507 56.4579 331.958 56.4986 328.409 56.4986C325.268 56.4986 322.168 56.5393 319.027 56.4579C318.089 56.4579 318.13 56.9466 318.13 57.5983C318.089 58.2907 318.252 58.6573 319.068 58.5759C320.169 58.4944 321.271 58.6166 322.372 58.5351C323.269 58.4537 323.433 58.7795 323.433 59.5941C323.392 67.5774 323.433 75.6013 323.433 83.5845C323.433 87.3725 323.433 91.1197 323.433 94.9077C323.433 95.6409 323.269 95.926 322.494 95.8852C321.311 95.8038 320.129 95.926 318.946 95.8445C318.089 95.8038 318.13 96.2518 318.13 96.822C318.171 97.3515 317.926 97.9625 318.905 97.9625C324.044 97.9218 329.225 97.9218 334.365 97.9625C335.303 97.9625 335.18 97.4737 335.18 96.8628C335.221 96.2111 335.14 95.7631 334.283 95.8445C333.059 95.926 331.836 95.8445 330.612 95.8852C330.082 95.8852 329.878 95.7223 329.878 95.1521C329.878 89.6534 329.878 84.1955 329.878 78.6969C329.878 78.1674 330 77.9637 330.571 77.9637C332.774 78.0044 335.017 77.923 337.22 78.0044C339.953 78.1266 341.625 79.7151 342.156 82.4034C342.278 83.0143 342.319 83.6253 342.36 84.1955C342.564 86.5986 342.196 89.0017 342.482 91.3641C343.012 95.6409 345.215 97.7181 349.58 97.8403C353.088 97.9218 356.596 97.8811 360.104 97.9218C360.797 97.9218 361.042 97.7181 361.042 97.0257C361.042 96.2518 361.001 95.8038 359.981 95.7631C357.575 95.6409 355.862 94.704 356.718 91.527C357.248 89.572 357.901 87.6576 358.554 85.784C358.798 85.0916 359.125 84.8472 359.859 84.8472C363.612 84.8879 367.324 84.9287 371.077 84.8472C372.26 84.8065 372.79 85.1323 373.198 86.2728C374.34 89.4498 375.604 92.586 376.869 95.8445C375.482 95.8445 374.218 95.8852 372.994 95.8445C372.178 95.8038 372.056 96.1704 372.096 96.8628C372.096 97.5145 372.096 97.9625 373.035 97.9625C384.986 97.9218 396.938 97.9218 408.849 97.9625C409.665 97.9625 409.787 97.6774 409.787 96.985C409.91 92.4639 409.91 87.9835 409.91 83.5438ZM337.016 75.6828C334.936 75.7235 332.896 75.6828 330.816 75.6828C330.163 75.6828 329.959 75.4791 330 74.8274C330.041 72.1799 330 69.5732 330 66.9257C330 64.3596 330.041 61.8343 330 59.2683C330 58.5351 330.204 58.3722 330.897 58.3722C333.222 58.4129 335.548 58.3722 337.873 58.3722C340.075 58.3722 341.748 59.3905 342.645 61.3456C344.318 64.9706 344.318 68.6771 342.564 72.2614C341.462 74.5423 339.504 75.6421 337.016 75.6828ZM360.675 82.8107C359.696 82.8107 360.267 82.1997 360.349 81.8739C361.613 78.0859 362.878 74.2979 364.142 70.51C364.713 68.7993 365.284 67.0886 365.978 65.1335C368.099 71.0802 370.138 76.864 372.26 82.8107C368.262 82.8107 364.468 82.8107 360.675 82.8107Z" fill="#2E3540"/>
<path d="M360.267 43.6683C359.778 43.1388 359.37 42.4057 358.309 42.813C356.677 43.4647 356.025 42.8944 355.984 41.143C355.902 37.6809 356.229 34.2188 355.698 30.7567C355.29 28.0684 354.026 26.0726 351.375 25.1358C350.518 24.81 349.661 24.5656 348.601 24.4027C349.702 23.9139 350.64 23.5881 351.497 23.0993C356.8 19.963 358.391 15.9307 357.248 10.5542C356.351 6.39968 352.925 4.15949 348.152 3.99657C340.728 3.75218 333.263 3.9151 325.839 3.87437C324.983 3.87437 325.023 4.32241 325.064 4.85191C325.105 5.38141 324.779 6.1553 325.839 6.07383C327.104 6.0331 328.368 6.11456 329.633 6.0331C330.449 5.99237 330.653 6.31822 330.653 7.05137C330.612 18.7004 330.612 30.3494 330.653 41.9984C330.653 42.813 330.489 43.1796 329.592 43.0981C328.368 43.0166 327.145 43.1388 325.921 43.0574C325.146 43.0166 325.023 43.3425 325.064 43.9942C325.105 44.5644 324.942 45.1346 325.88 45.0939C331.101 45.0532 336.323 45.0532 341.544 45.0939C342.237 45.0939 342.441 44.8495 342.36 44.1978C342.278 43.6683 342.523 42.9759 341.585 43.0166C340.32 43.0574 339.056 42.9759 337.791 43.0574C337.016 43.0981 336.731 42.8944 336.731 42.0391C336.771 36.6626 336.771 31.2862 336.731 25.9504C336.731 25.2988 336.853 25.0136 337.587 25.0136C339.586 25.0544 341.544 25.0136 343.543 25.0544C347.091 25.1358 349.294 27.2131 349.539 30.7567C349.621 32.1008 349.743 33.4042 349.661 34.7483C349.539 36.3775 349.621 38.0067 349.784 39.636C349.947 41.5096 350.518 43.2203 352.231 44.32C353.944 45.4605 358.227 45.4197 359.941 44.2386C360.185 44.1978 360.593 43.9942 360.267 43.6683ZM343.706 22.8142C341.544 22.8956 339.341 22.8142 337.179 22.8549C336.649 22.8549 336.445 22.7327 336.445 22.1625C336.445 16.9082 336.486 11.6539 336.445 6.39968C336.445 5.74799 336.731 5.66653 337.261 5.66653C338.648 5.70726 339.994 5.66653 341.381 5.66653C342.523 5.66653 343.665 5.70726 344.807 5.66653C346.847 5.54433 348.356 6.48114 349.09 8.27329C350.722 12.2649 350.885 16.2565 348.642 20.0852C347.581 21.9996 345.786 22.7327 343.706 22.8142Z" fill="#2E3540"/>
<path d="M182.622 133.48C182.499 131.525 182.377 129.61 182.255 127.655C182.132 125.374 181.112 123.786 178.828 123.093C179.603 122.686 180.297 122.36 180.868 121.749C182.295 120.202 182.622 118.328 182.622 116.332C182.663 112.218 180.093 109.693 176.014 109.652C173.362 109.652 170.752 109.693 168.1 109.612C167.203 109.571 167.04 109.897 167.04 110.711C167.08 118.532 167.04 126.311 167.04 134.131C167.04 136.372 167.04 136.331 169.324 136.372C170.18 136.372 170.425 136.127 170.425 135.272C170.384 132.013 170.425 128.714 170.384 125.456C170.384 124.641 170.629 124.397 171.404 124.438C172.506 124.519 173.607 124.438 174.708 124.438C177.319 124.478 178.461 125.497 178.706 128.103C178.747 128.511 178.706 128.959 178.747 129.366C178.951 131.362 178.787 133.398 179.399 135.353C179.522 135.761 179.562 136.29 180.093 136.29C181.276 136.331 182.459 136.29 183.845 136.29C182.948 135.435 182.663 134.498 182.622 133.48ZM175.075 121.627C173.77 121.709 172.506 121.668 171.2 121.709C170.629 121.749 170.384 121.546 170.425 120.935C170.466 119.591 170.425 118.287 170.425 116.943C170.425 115.721 170.466 114.499 170.425 113.277C170.384 112.666 170.588 112.381 171.241 112.422C172.465 112.463 173.688 112.422 174.912 112.463C177.4 112.544 178.991 114.133 179.073 116.536C179.154 119.631 177.768 121.423 175.075 121.627Z" fill="#2E3540"/>
<path d="M388.862 116.739C388.658 115.762 388.413 114.825 388.005 113.888C387.108 111.77 385.721 110.1 383.396 109.448C379.153 108.267 374.544 109.408 372.953 115.314C371.852 119.305 371.933 123.378 372.341 127.411C372.504 129.162 372.912 130.873 373.687 132.461C374.748 134.701 376.42 136.168 378.909 136.616C383.64 137.471 387.067 135.394 388.454 130.791C389.229 128.225 389.392 125.578 389.392 122.89C389.392 120.894 389.269 118.816 388.862 116.739ZM385.272 129.895C384.823 131.891 383.926 133.642 381.601 134.009C379.398 134.376 377.726 133.48 376.787 131.443C375.931 129.569 375.808 127.533 375.686 125.537C375.645 124.682 375.686 123.786 375.686 122.93C375.686 120.283 375.645 117.595 376.583 115.029C377.44 112.666 379.072 111.648 381.478 111.933C382.947 112.096 383.926 112.911 384.578 114.173C385.231 115.354 385.517 116.658 385.639 118.002C385.925 121.953 386.129 125.944 385.272 129.895Z" fill="#2E3540"/>
<path d="M36.1409 120.527C36.0593 118.369 35.733 116.21 34.958 114.173C34.1014 111.933 32.6737 110.223 30.3078 109.489C25.576 108.023 21.4153 110.223 19.9061 114.988C19.2126 117.269 18.9679 119.591 18.9679 121.953C18.9271 125.374 19.0086 128.796 20.3548 132.054C21.6601 135.231 24.1075 136.86 27.5748 136.86C31.5723 136.901 34.2645 134.742 35.4475 130.547C36.2633 127.289 36.3041 123.908 36.1409 120.527ZM32.6737 123.053C32.6737 125.741 32.6737 128.47 31.7355 131.036C30.8381 133.48 28.8801 134.539 26.4326 133.969C25.0049 133.643 24.1483 132.665 23.5773 131.403C23.0878 130.303 22.843 129.162 22.7206 127.981C22.3535 123.949 22.1904 119.916 23.0878 115.966C23.7812 112.87 25.6168 111.567 28.3498 111.933C29.8999 112.137 30.8789 113.033 31.5315 114.377C32.4697 116.332 32.5513 118.491 32.6737 120.609C32.7145 121.424 32.6737 122.238 32.6737 123.053Z" fill="#2E3540"/>
<path d="M306.586 114.051C305.24 110.67 302.67 109 299.162 109.082C295.532 109.163 293.084 110.915 291.82 114.377C290.8 117.147 290.637 119.998 290.637 122.93C290.637 126.067 290.759 129.162 291.983 132.095C293.329 135.313 295.736 136.86 299.162 136.901C302.67 136.942 305.117 135.313 306.464 132.095C307.443 129.732 307.769 127.248 307.81 124.723C307.932 121.138 307.973 117.513 306.586 114.051ZM303.731 130.099C303.323 131.85 302.507 133.398 300.549 133.928C298.061 134.62 295.98 133.52 295.083 131.077C294.308 128.999 294.226 126.759 294.145 124.56C294.104 124.03 294.145 123.501 294.145 122.971C294.145 120.527 294.185 118.083 294.838 115.721C295.613 112.829 297.408 111.567 300.182 111.974C301.487 112.177 302.384 112.911 303.037 114.051C303.69 115.192 303.975 116.454 304.138 117.758C304.506 121.871 304.669 125.985 303.731 130.099Z" fill="#2E3540"/>
<path d="M72.2003 135.231C70.0383 127.411 67.958 119.631 65.8776 111.811C65.3066 109.693 65.3066 109.693 63.0631 109.693C60.7788 109.693 60.7788 109.693 60.1669 111.893C58.0458 119.306 55.8838 126.719 53.7627 134.091C53.11 136.412 53.0692 136.372 55.5167 136.412C56.4141 136.453 56.7812 136.087 56.9444 135.272C57.3931 133.48 57.8826 131.688 58.3721 129.855C58.4945 129.325 58.6984 129.04 59.3511 129.04C61.6762 129.081 64.0013 129.081 66.3264 129.04C66.8974 129.04 67.1422 129.244 67.2645 129.773C67.6317 131.24 68.0396 132.706 68.4067 134.172C68.9778 136.372 68.9778 136.29 71.3029 136.372C72.2819 136.453 72.4858 136.209 72.2003 135.231ZM59.9629 126.271C59.1063 126.271 59.4327 125.741 59.555 125.334C60.3301 122.645 61.1051 119.917 61.8801 117.228C62.2064 116.088 62.5328 114.988 62.9407 113.522C64.1236 117.961 65.1842 122.035 66.3264 126.271C64.1644 126.271 62.0433 126.271 59.9629 126.271Z" fill="#2E3540"/>
<path d="M203.221 135.312C201.182 127.858 199.183 120.445 197.184 112.992C196.899 111.933 196.899 110.548 196.205 109.896C195.43 109.204 194.002 109.774 192.901 109.652C192.085 109.57 191.718 109.815 191.473 110.67C190.046 115.884 188.496 121.056 187.027 126.229C186.13 129.284 185.273 132.38 184.335 135.434C184.131 136.127 184.213 136.412 185.069 136.412C187.598 136.412 187.598 136.453 188.251 134.009C188.333 133.724 188.414 133.439 188.496 133.113C188.863 131.809 188.863 130.058 189.719 129.284C190.658 128.469 192.412 129.121 193.554 129.04C194.941 129.04 196.083 129.08 197.225 129.04C197.837 129.04 198.122 129.203 198.245 129.813C198.571 131.239 198.979 132.665 199.346 134.131C199.917 136.371 199.917 136.33 202.283 136.371C203.18 136.412 203.466 136.29 203.221 135.312ZM196.491 126.27C194.696 126.229 192.901 126.229 191.147 126.27C190.535 126.27 190.29 126.148 190.494 125.496C191.637 121.627 192.738 117.716 193.962 113.48C195.063 117.635 196.083 121.545 197.103 125.415C197.307 126.066 197.225 126.311 196.491 126.27Z" fill="#2E3540"/>
<path d="M18.0297 73.4019C18.0297 74.4609 18.0297 75.4384 18.0297 76.4567C18.0297 76.864 17.9073 77.0676 17.4994 77.1491C14.1137 78.0044 10.7281 78.9005 7.38318 79.7559C7.34239 79.6337 7.3016 79.5522 7.3016 79.4707C7.09764 76.253 7.09764 76.253 10.2386 75.3977C12.7676 74.746 15.3374 74.0943 18.0297 73.4019Z" fill="#2E3540"/>
<path d="M7.2608 72.7097C7.2608 71.6507 7.2608 70.6324 7.2608 69.6549C7.2608 69.2476 7.38318 69.0846 7.79109 68.9624C11.136 68.1071 14.4808 67.211 17.9889 66.3149C17.9889 67.4554 17.9889 68.4737 17.9889 69.5327C17.9889 69.8993 17.7441 69.9807 17.4994 70.0622C14.1545 70.9583 10.7688 71.8136 7.2608 72.7097Z" fill="#2E3540"/>
<path d="M32.2658 79.7556C28.7985 78.8595 25.4944 78.0041 22.1904 77.1488C21.7417 77.0266 21.4561 76.9044 21.4969 76.3342C21.5377 75.3974 21.4969 74.4198 21.4969 73.3608C25.0049 74.2569 28.3498 75.153 31.7355 76.0083C32.1434 76.1305 32.2658 76.3342 32.2658 76.7415C32.2658 77.719 32.2658 78.6558 32.2658 79.7556Z" fill="#2E3540"/>
<path d="M32.2658 63.8302C32.2658 65.6631 32.2658 65.6631 30.4302 65.1743C27.6972 64.4819 25.0049 63.7488 22.2719 63.0971C21.6601 62.9342 21.4561 62.7305 21.4969 62.1195C21.5377 61.4678 21.5377 60.8161 21.4969 60.1645C21.4153 59.3091 21.8232 59.3498 22.4351 59.5128C25.1273 60.2459 27.8603 60.9383 30.5933 61.6308C32.2658 62.0788 32.2658 62.0788 32.2658 63.8302Z" fill="#2E3540"/>
<path d="M7.26081 63.8707C7.26081 62.1193 7.26081 62.1193 8.93325 61.6713C11.6255 60.9788 14.3177 60.2864 16.9691 59.5533C17.7033 59.3496 18.0297 59.3496 18.0297 60.2864C17.9889 62.8932 18.0297 62.8932 15.5006 63.5449C13.1347 64.1558 10.7688 64.6853 8.44376 65.4185C7.3424 65.7443 7.09765 65.4185 7.26081 64.441C7.3016 64.2373 7.26081 64.0336 7.26081 63.8707Z" fill="#2E3540"/>
<path d="M32.2658 70.9171C32.2658 72.7499 32.2658 72.7092 30.5117 72.2612C27.8195 71.5687 25.1273 70.8356 22.4351 70.1839C21.7417 70.021 21.3745 69.7766 21.4561 69.0027C21.5785 68.1474 21.089 66.9662 21.7009 66.5181C22.1496 66.1923 23.2509 66.7625 24.0668 66.9662C26.2287 67.5364 28.4314 68.0659 30.5933 68.6361C32.2658 69.1249 32.2658 69.1249 32.2658 70.9171Z" fill="#2E3540"/>
</g>
<defs>
<clipPath id="clip0">
<rect width="429" height="136" fill="white" transform="translate(0 0.941895)"/>
</clipPath>
</defs>
</svg>
