<svg width="191" height="69" fill="none" xmlns="http://www.w3.org/2000/svg"><g clip-path="url(#clip0)" fill="#2E353F"><path d="M51.404 50.422c2.858-.676 5.249-.416 7.068 2.234 1.195 1.715 2.806 3.17 4.729 5.249v-7.64h5.3V65.7c-2.806.468-5.248.52-7.067-2.235-1.143-1.715-2.754-3.118-4.573-5.092V65.7h-5.405c-.052-4.989-.052-10.134-.052-15.279zM13.416 37.794c.624-1.092 1.091-2.339 1.975-3.17 7.431-7.172 16.526-11.693 26.035-15.539.936-.363 1.975-.675 2.859-1.143 2.027-1.04 3.534-.675 4.833 1.351 2.338 3.69 1.559 5.613-2.703 6.6-3.533.78-7.12 1.403-10.601 2.339-7.275 2.026-14.083 5.144-20.32 9.458-.415.26-.883.52-1.299.78a9.03 9.03 0 0 0-.779-.676zM37.01 30.83c-.624 1.091-1.04 2.39-1.872 3.222-7.483 7.224-16.63 11.693-26.14 15.59-1.143.468-2.286.832-3.377 1.351-1.715.78-2.962.364-4.054-1.143-2.858-3.95-1.87-5.976 3.015-7.12 5.716-1.35 11.484-2.598 16.94-4.624 5.146-1.923 9.875-4.886 14.812-7.38.208 0 .467.052.675.104zm95.256 34.87c-2.807.468-5.145.52-6.964-2.13-1.247-1.82-2.962-3.327-4.885-5.405V65.7h-5.249V50.37c2.703-.468 5.145-.624 7.016 2.182 1.195 1.767 2.858 3.222 4.677 5.197v-7.38h5.405V65.7zm-11.901-23.23v5.665h-5.249v-16.11h5.197v5.717h6.704v-5.353c.416-.312.468-.416.52-.416 5.041-.727 5.093-.675 5.093 4.313v11.797h-5.509V42.42c-2.287.052-4.313.052-6.756.052zm-54.41-10.757c5.249 0 8.99 3.482 8.99 8.315 0 4.781-3.897 8.315-9.094 8.315-4.989-.052-8.886-3.638-8.886-8.263-.052-4.729 3.845-8.367 8.99-8.367zm3.326 8.16c-.052-1.923-1.663-3.534-3.482-3.482-1.819.103-3.222 1.766-3.066 3.793.156 1.975 1.247 3.222 3.274 3.326 1.767.104 3.326-1.715 3.274-3.638zM71.152 65.7c-.052-.467-.156-.883-.156-1.299V49.954c4.001.312 7.95.156 11.589 1.04 3.533.83 5.196 4.157 4.937 7.898-.26 3.326-2.703 6.237-6.496 6.756-3.17.364-6.444.052-9.874.052zm5.456-3.17c1.923-.935 3.898-1.35 4.73-2.494.675-.936.571-3.222-.156-4.21-.832-1.09-2.703-1.35-4.574-2.182v8.886zm11.693-30.297h5.353c0 3.378.052 6.652-.052 9.874-.052.935-.416 1.87-.78 2.702-1.455 2.91-5.664 4.261-10.393 3.326-3.43-.676-5.56-2.91-5.717-6.392-.156-3.118-.052-6.184-.052-9.51h5.665v7.38c-.052 2.078 0 4.157 2.806 4.416 2.079.156 2.962-1.247 2.962-4.52 0-2.183 0-4.314.052-6.497-.052-.104.052-.26.156-.78zm25.724 33.675c-2.495-.26-5.145 1.247-5.82-2.235-2.235.052-4.989-.727-6.6.26-2.65 1.715-2.339 2.183-5.977 1.767 1.975-4.937 3.794-9.822 5.873-14.655.623-1.507 6.392-1.195 7.015.364a757.337 757.337 0 0 1 5.509 14.499zm-11.017-6.444c1.351-.104 2.39-.156 3.638-.26-.624-1.715-1.092-2.91-1.715-4.573a183.145 183.145 0 0 0-1.923 4.833zm-89.54-30.089c.623-1.091 1.04-2.339 1.87-3.222 4.834-5.197 10.966-8.627 17.254-11.797 1.923-.987 3.95-1.767 5.872-2.754 2.027-1.04 3.69-.832 5.353.935 2.13 2.287 1.975 3.274-.988 4.366-6.392 2.39-12.836 4.625-19.124 7.275-3.377 1.455-6.444 3.638-9.666 5.509a5.664 5.664 0 0 1-.571-.312zm23.697 9.822c-.935 1.507-1.559 2.962-2.598 4.001-5.665 5.665-12.628 9.303-19.748 12.628-1.04.468-2.027.936-3.066 1.352-2.598 1.039-5.145.104-6.236-2.391-.832-1.923.623-2.442 1.975-2.91 3.741-1.3 7.639-2.287 11.225-3.898 6.08-2.598 11.952-5.612 18.448-8.782zm6.028 3.533c2.339.832 4.418 2.703 7.276.364-1.3-.78-2.339-1.403-3.43-1.975-3.222-1.715-4.417-3.897-3.638-6.6.728-2.494 3.118-3.845 6.444-3.69a12.68 12.68 0 0 1 2.027.313c3.794.831 4.105 1.35 3.378 5.352-2.183-.26-4.158-2.91-6.964-.312 1.403.832 2.547 1.611 3.742 2.287 3.17 1.767 4.261 3.534 3.638 6.08-.572 2.339-2.859 3.742-6.133 3.794-.675 0-1.403 0-2.078-.052-4.262-.312-4.73-.936-4.262-5.56zm69.585-10.653v3.898c-1.767.104-3.482.207-5.457.311v11.641h-5.82V36.131h-5.509v-4.106c5.561.052 11.121.052 16.786.052zm27.647 33.831V50.266c2.234 0 4.261-.104 6.34 0 4.833.312 6.184 3.014 3.585 7.12 2.235 1.194 3.014 3.065 2.287 5.404-.728 2.39-2.754 2.962-4.885 3.066-2.391.104-4.729.052-7.327.052zm3.585-2.599c1.819-.467 3.43-.779 4.937-1.299.208-.052.156-1.715-.052-1.767-1.507-.52-3.066-.883-4.885-1.299v4.365zm-.052-6.703c1.611-.364 2.911-.624 4.106-1.04.156-.052.156-1.663-.104-1.767-1.247-.467-2.547-.675-4.002-.987v3.794zM13.416 20.8c.572-1.091.935-2.442 1.819-3.326 4.989-5.092 11.12-8.418 17.461-11.485 1.611-.779 5.664 1.04 5.768 2.65.052.624-.987 1.664-1.767 2.027-3.43 1.404-7.015 2.443-10.393 4.002-4.157 1.923-8.107 4.157-12.16 6.288-.26-.052-.52-.104-.728-.156zM37.01 47.823c-.572 1.144-.936 2.495-1.768 3.326-4.937 5.145-11.12 8.419-17.409 11.537-1.61.78-5.716-.987-5.768-2.65 0-.728 1.299-1.82 2.182-2.183 4.73-2.079 9.614-3.794 14.343-5.924 2.65-1.196 5.093-2.91 7.588-4.366.311.104.571.156.831.26zm6.131 2.495h5.041v15.434h-5.04V50.318zm136.935 0h3.014v9.51c2.598-1.715 3.326-6.08 7.639-4.21-1.195 1.56-2.287 3.014-3.534 4.625 1.195 1.663 2.339 3.326 3.638 5.093-4.521 1.56-5.093-2.702-7.535-4.625-.052 1.663-.156 3.118-.208 4.73h-3.014V50.317zM94.277 65.856h-4.885V50.318h4.885v15.538zm75.925-.416h-3.014v-9.874c2.39-.156 4.729-.467 7.015-.467 2.131 0 3.014 1.61 3.118 3.43.156 2.234.052 4.469.052 6.86h-3.378c0-1.872.156-3.742-.051-5.561-.104-.884-.936-1.715-1.404-2.547-.779.884-1.974 1.663-2.234 2.65-.364 1.664-.104 3.43-.104 5.51zm-9.25-6.808c-1.819-2.754-3.742-1.039-6.133-.987.572-.728.988-1.87 1.663-2.079 1.456-.467 3.067-.623 4.574-.52 2.078.105 2.702 1.612 2.91 3.586.208 1.715-1.299 4.002 1.351 5.145.104.052 0 1.04-.208 1.091-.935.416-2.235 1.196-2.806.832-1.403-.832-2.547-.208-3.846-.208-1.247 0-2.962-.52-3.638-1.455-.987-1.351 0-2.858 1.508-3.586 1.403-.623 2.858-1.091 4.625-1.819zm.104 2.599c-.364-.26-.676-.468-1.04-.728l-2.026 2.339c.519.26 1.403.883 1.455.78.675-.728 1.091-1.612 1.611-2.391zM19.34 63.881c5.769-2.754 11.485-5.508 17.773-8.522-.675 1.299-.935 2.598-1.767 3.326-2.806 2.39-5.716 4.729-8.73 6.807-2.443 1.715-5.041 1.04-7.276-1.61zm-6.08-50.408c.728-1.455.987-2.703 1.819-3.378a128.679 128.679 0 0 1 8.938-6.964c1.923-1.403 3.95-.883 5.82.208 1.664.935 1.196 1.923-.207 2.598-1.143.52-2.495.728-3.638 1.3-4.001 1.922-8.003 3.897-12.732 6.236zm.676-6.393c-.364-6.34 2.338-8.158 8.626-5.56-3.014 1.923-5.716 3.638-8.626 5.56zm14.343 59.815c2.65-1.663 5.3-3.326 8.782-5.508-.52 2.39-.364 4.833-1.455 5.82-1.975 1.819-4.781 1.04-7.224.416 0-.26-.052-.52-.103-.728z"/></g><defs><clipPath id="clip0"><path fill="#fff" transform="translate(.008 .377)" d="M0 0h190.825v67.921H0z"/></clipPath></defs></svg>