<svg width="122" height="53" fill="none" xmlns="http://www.w3.org/2000/svg"><path d="M49.954 37.615c-.036 8.497-6.216 14.603-14.823 14.566-8.497-.036-14.566-6.216-14.529-14.86.037-8.496 6.07-14.455 14.713-14.418 8.644 0 14.676 6.069 14.64 14.712zm-3.972-.073c0-6.474-4.635-11.403-10.704-11.366-6.032 0-10.593 4.819-10.667 11.256-.037 6.584 4.414 11.402 10.63 11.402 6.18 0 10.704-4.745 10.74-11.292zm6.4 14.123V23.637c5.04.258 10.079-.662 14.97.846 6.474 1.986 9.858 7.246 9.417 14.603-.368 5.885-4.929 10.998-11.403 11.954-4.193.589-8.496.405-12.984.625zm3.9-24.975v21.702c2.868-.184 5.59-.147 8.202-.626 5.333-.993 8.423-5.075 8.35-10.483-.074-5.333-3.237-9.158-8.608-10.078-2.538-.404-5.186-.331-7.945-.515zm46.088 24.644c-3.936.405-3.936.405-5.407-3.126-1.508-3.678-1.508-3.678-5.407-3.678-2.686 0-5.37.037-8.093-.037-1.03-.037-1.581.331-1.912 1.287-.442 1.251-1.104 2.465-1.472 3.752-.441 1.545-1.287 2.207-2.905 1.95-.589-.11-1.178 0-2.06 0 .92-2.17 1.765-4.157 2.611-6.106 2.906-6.731 5.849-13.463 8.718-20.194.515-1.25 1.177-1.581 2.464-1.581 1.288 0 1.913.404 2.428 1.581 3.42 8.166 6.952 16.295 10.446 24.46.221.515.368 1.104.589 1.692zM88.76 27.867c-1.876 4.708-3.568 8.939-5.297 13.316h10.594c-1.766-4.414-3.421-8.608-5.297-13.316zM33.366 5.43v16.148h-3.42V.87c1.36 0 2.758-.11 4.119.073.441.037.956.7 1.25 1.177 2.612 4.157 5.187 8.313 7.761 12.47.331.514.663.993 1.361 1.47V.98h3.495v20.745c-1.288 0-2.612.11-3.9-.073-.514-.074-1.03-.736-1.36-1.288a2531.345 2531.345 0 0 1-8.092-13.13c-.258-.48-.589-.884-1.214-1.803zM52.346.648c3.715.221 7.356.11 10.887.7 5.003.845 7.761 4.634 7.761 9.857 0 5.113-2.906 9.085-7.982 9.968-3.457.589-7.025.478-10.666.662V.648zm3.53 17.803c5.592.552 8.902-.552 10.484-3.457 1.36-2.502 1.066-6.4-.626-8.534-1.802-2.28-6.29-3.274-9.857-2.207v14.198zm44.36 3.238c-.772 0-1.508-.074-2.207 0-1.25.184-1.839-.331-2.28-1.508-1.288-3.31-1.325-3.31-4.892-3.31-.368 0-.736.036-1.104 0-3.163-.516-5.48.183-6.069 3.825-.073.404-.92.846-1.471.956-.81.147-1.692.037-2.759.037.22-.662.405-1.14.589-1.619A2656.273 2656.273 0 0 0 87.84 2.047c.405-.956.957-1.25 1.913-1.214.92.074 1.692-.073 2.207 1.104 2.649 6.363 5.444 12.726 8.166 19.053.11.147.073.33.11.699zM90.121 5.652c-.147-.037-.294-.037-.441-.074-1.03 2.685-2.06 5.333-3.127 8.129h6.62c-1.103-2.87-2.059-5.444-3.052-8.055zm7.43 18.168c.331-.11.368-.146.441-.146 2.722-.479 4.635.257 5.959 3.016 1.582 3.273 3.752 6.29 5.812 9.674 2.17-3.495 4.156-6.768 6.179-10.042 1.839-2.98 1.839-2.98 5.738-2.501-.368.625-.662 1.177-1.03 1.729-2.685 4.082-5.443 8.128-8.018 12.285-.662 1.067-1.03 2.464-1.104 3.715-.147 3.237-.036 6.474-.036 9.784h-3.715c0-3.347.073-6.694-.037-10.042a7.378 7.378 0 0 0-.993-3.384c-2.612-4.156-5.334-8.202-8.019-12.285a81.258 81.258 0 0 1-1.177-1.802zM9.788 26.838H.924v-3.09H22.22v3.016h-8.644v24.534H9.75c.037-8.092.037-16.184.037-24.46zm15.78-5.261h-3.384V.942h3.384v20.635zm52.047.073h-3.2V.943h3.2v20.709z" fill="#2E353F"/></svg>