<svg width="720" height="159" viewBox="0 0 720 159" fill="none" xmlns="http://www.w3.org/2000/svg">
<g clip-path="url(#clip0)">
<path d="M0 2.2C0.3 2.2 0.6 2.3 0.9 2.3C21.8 2.3 42.7 2.3 63.5 2.3C65.4 2.3 67.1 2 68.2 0.3C68.4 0.1 68.6 0.1 69 0C68.1 7.5 67.2 14.9 66.4 22.2C66.3 22.2 66.2 22.3 66.1 22.3C65.9 22 65.7 21.7 65.5 21.4C65.1 20.2 64.8 19 64.3 17.9C62.8 14.3 59.8 13 56.2 13C48.5 12.9 40.8 12.9 33.2 12.9C30.9 12.9 28.6 12.9 26.4 12.9C24.4 12.9 23.1 14.2 23.1 16.2C23.1 25.6 23.1 35.1 23.1 44.5C23.1 46.4 24.4 47.8 26.4 47.8C33.8 47.8 41.3 47.8 48.7 47.8C50.4 47.8 52 47.3 53 45.7C53.1 45.6 53.3 45.6 53.7 45.3C53.1 50.5 52.5 55.5 52 60.5C51.7 60.4 51.5 60.4 51.5 60.3C51.1 58.5 49.7 58.3 48.2 58.3C41 58.3 33.7 58.3 26.5 58.3C24.5 58.3 23.1 59.7 23.1 61.7C23.1 74.1 23.1 86.5 23.1 98.9C23.1 100.8 24.3 102 26.2 102.2C26.4 102.2 26.5 102.2 26.7 102.2C37.5 102.2 48.2 102.3 59 102C65.3 101.8 70.6 99.3 73.4 93.2C73.5 93 73.7 92.8 73.9 92.6C74 92.6 74.2 92.7 74.3 92.7C73.5 100.1 72.6 107.6 71.8 115.1C71.5 115 71.3 114.9 71.3 114.8C71.1 113.2 70 112.8 68.6 112.8C67.4 112.7 66.2 112.7 65 112.7C44 112.7 23 112.7 2 112.7C1.5 112.7 1 112.7 0.2 112.7C0.4 112.3 0.5 112 0.7 111.8C1.8 110.8 2.2 109.5 2.3 108.2C2.4 107.4 2.4 106.6 2.4 105.8C2.4 73.5 2.4 41.2 2.4 8.9C2.4 8.1 2.3 7.3 2.3 6.5C2.1 4.9 1.4 3.7 0 2.9C0 2.7 0 2.4 0 2.2Z" fill="#2E3540"/>
<path d="M298 142C298.2 141.6 298.3 141.3 298.5 141.2C299.9 140.2 300.3 138.8 300.3 137.1C300.3 131.2 300.3 125.3 300.3 119.5C300.3 109.5 300.3 99.5 300.3 89.5C300.3 74.5 300.4 59.5 300.4 44.5C300.4 43.4 300.3 42.3 300.3 41.3C300.2 39.8 299.9 39.5 298.1 39.5C298.4 39.2 298.5 38.9 298.7 38.8C304 36.2 309.3 33.6 314.7 31.1C316.1 30.4 317.3 31.1 317.5 32.7C317.7 35.1 317.7 37.6 317.7 40C317.7 40.5 317.9 41 318 41.9C319 40.8 319.7 40 320.5 39.2C323.6 36 327.2 33.6 331.6 32.8C340.3 31.3 347.5 34.2 353 41C356.9 45.8 358.9 51.5 360.1 57.5C362.2 68.2 362.2 79 359.9 89.8C358.7 95.6 356.5 101 352.5 105.6C348.1 110.7 342.4 113.5 335.8 114.3C330.4 115 325 114.9 319.7 112.9C318.7 112.5 318.3 112.8 318.3 114C318.3 121.7 318.3 129.4 318.3 137.2C318.3 138.8 318.7 140.2 320.1 141.2C320.3 141.3 320.4 141.6 320.5 141.9C320.3 142 320 142.2 319.8 142.2C317.7 142.2 315.6 142.2 313.6 142.2C308.5 142 303.4 142 298 142ZM318.4 75.8C318.4 84.2 318.4 92.5 318.4 100.9C318.4 101.8 318.5 102.7 318.6 103.5C318.7 104.8 319.5 105.7 320.8 105.8C323.6 106.1 326.3 106.6 329.1 106.6C332.4 106.7 335.2 105.2 337.2 102.6C338.3 101.2 339.2 99.6 339.9 97.9C341.8 93.4 342.4 88.6 342.8 83.8C343.3 75.9 343.4 68 342.4 60.1C341.9 56.2 341.1 52.5 339.2 49C337.3 45.5 334.6 43.4 330.6 42.8C327.4 42.3 324.5 43.3 321.7 44.9C319.4 46.2 318.5 48 318.5 50.6C318.5 58.9 318.4 67.4 318.4 75.8Z" fill="#2E3540"/>
<path d="M496.5 112.7C489 112.7 481.5 112.7 473.9 112.7C474 112.4 474 112.2 474.1 112.2C476.1 110.9 476.2 108.8 476.2 106.8C476.2 100.7 476.2 94.5999 476.2 88.3999C476.2 73.8999 476.2 59.3999 476.2 44.7999C476.2 43.9999 476.1 43.2999 476.1 42.4999C476 41.2999 475.7 40.2999 474 40.6999C474 40.5999 474 40.4999 474 40.3999C474.2 40.1999 474.4 39.8999 474.7 39.7999C479.9 37.2999 485.1 34.6999 490.3 32.1999C491.8 31.4999 492.8 31.9999 493.2 33.5999C493.3 34.0999 493.4 34.6999 493.4 35.2999C493.4 37.9999 493.4 40.6999 493.4 43.2999C493.4 43.7999 493.6 44.2999 493.8 45.1999C494.3 44.5999 494.6 44.1999 494.8 43.8999C498.9 38.8999 503.7 34.6999 510.2 32.9999C517.4 31.1999 524 32.1999 529.3 37.9999C532.6 41.5999 534.2 45.9999 534.9 50.7999C535.2 53.2999 535.4 55.8999 535.4 58.3999C535.4 74.3999 535.4 90.3999 535.4 106.4C535.4 108.6 535.4 110.8 537.5 112.2C537.6 112.2 537.5 112.4 537.6 112.7C530.1 112.7 522.6 112.7 515 112.7C515.2 112.4 515.2 112.1 515.4 112C516.9 111 517.3 109.5 517.3 107.8C517.3 104.6 517.3 101.4 517.3 98.1999C517.3 84.7999 517.3 71.3999 517.3 57.9999C517.3 55.8999 517.1 53.7999 516.6 51.7999C515.3 46.4999 511.1 44.5999 506.2 45.0999C502.2 45.4999 498.7 47.3999 495.6 49.9999C495 50.4999 494.5 51.4999 494.5 52.1999C494.3 55.5999 494.3 58.8999 494.3 62.2999C494.3 76.8999 494.4 91.4999 494.4 106.1C494.4 106.9 494.4 107.6 494.4 108.4C494.5 109.8 494.9 111 496.1 111.8C496.3 111.9 496.4 112.1 496.5 112.2C496.5 112.4 496.5 112.5 496.5 112.7Z" fill="#2E3540"/>
<path d="M99.5 112.7C91.8 112.7 84.2 112.7 76.7 112.7C76.8 112.5 76.7 112.3 76.8 112.2C78.8 110.9 79 108.9 79 106.8C79 86 79 65.2 78.9 44.4C78.9 43.8 78.9 43.3 78.8 42.7C78.7 40.9 78.5 40.7 76.6 40.5C76.9 40.2 77.1 40 77.3 39.8C82.5 37.2 87.8 34.7 93 32.2C94.5 31.5 95.6 32.1 95.9 33.7C96 34.3 96.1 34.9 96.1 35.5C96.1 38.1 96.1 40.7 96.1 43.3C96.1 43.8 96.3 44.3 96.4 45.2C96.9 44.6 97.2 44.2 97.4 43.9C101.5 38.9 106.3 34.7 112.8 33C120 31.2 126.6 32.2 131.9 38C135.3 41.7 136.9 46.2 137.5 51C137.8 53.7 138 56.4 138 59.1C138 74.9 138 90.8 138 106.6C138 108.7 138.1 110.8 140.1 112.1C140.2 112.1 140.1 112.3 140.2 112.6C132.7 112.6 125.2 112.6 117.7 112.6C117.8 112.4 117.8 112.1 117.9 112C119.6 110.9 119.9 109.2 119.9 107.4C119.9 97.6 119.9 87.8 119.9 78C119.9 71.2 120 64.3 119.9 57.5C119.9 55.6 119.6 53.7 119.2 51.8C117.9 46.5 113.7 44.5 108.7 45.1C104.7 45.6 101.3 47.5 98.2 50C97 51.1 97 52.6 97 54C97 59.5 97 65 97 70.6C97 81.2 97 91.7 97.1 102.3C97.1 104.3 97.1 106.2 97.2 108.2C97.2 109.8 97.7 111.2 99.1 112.1C99.2 112.2 99.2 112.4 99.5 112.7Z" fill="#2E3540"/>
<path d="M643 40.1002C643.4 39.9002 643.8 39.7002 644.2 39.5002C648.9 37.2002 653.7 34.9002 658.4 32.6002C661.2 31.3002 662.4 32.1002 662.4 35.2002C662.4 52.4002 662.4 69.5002 662.4 86.7002C662.4 92.3002 662.4 97.9002 662.4 103.5C662.4 103.9 662.4 104.2 662.4 104.6C662.5 106.1 662.2 107.9 664.7 107.8C664.6 107.9 664.6 108 664.5 108.1C664.2 108.3 663.8 108.4 663.5 108.6C658.7 110.5 653.8 112.4 649 114.3C647.1 115.1 645.2 113.9 645.1 111.8C645 110.6 645.1 109.3 645.1 108.1C645.1 107.6 644.9 107.1 644.9 106.9C644 107.6 643 108.3 642.1 109.1C636.5 114.2 629.8 115.8 622.4 115.2C611.1 114.4 606.8 106.3 605.5 98.7002C605.1 96.2002 604.9 93.6002 604.9 91.1002C604.9 75.7002 604.9 60.3002 604.9 44.9002C604.9 44.3002 604.9 43.7002 604.9 43.1002C604.7 41.2002 604.6 41.0002 602.6 40.7002C603 40.4002 603.2 40.2002 603.5 40.0002C608.6 37.5002 613.8 35.0002 618.9 32.5002C620.5 31.7002 621.6 32.2002 622 34.0002C622.1 34.6002 622.2 35.2002 622.2 35.8002C622.2 55.0002 622.2 74.2002 622.2 93.4002C622.2 94.8002 622.3 96.3002 622.6 97.7002C623.9 104.1 629 105.6 633.6 105.1C637.6 104.6 640.9 102.6 644 100.2C645.1 99.3002 645.2 98.1002 645.2 96.8002C645.2 87.4002 645.2 78.0002 645.2 68.6002C645.2 60.6002 645.2 52.7002 645.2 44.7002C645.2 44.2002 645.2 43.7002 645.2 43.3002C645.1 41.0002 644.9 40.8002 643 40.1002Z" fill="#2E3540"/>
<path d="M468.4 105.4C468.4 106.5 468.5 107.4 468.4 108.3C468.4 108.7 468 109.1 467.6 109.3C463.9 111.7 459.8 112.8 455.5 113.6C448.9 114.8 442.3 115 435.8 113.2C425.8 110.5 419.2 103.9 415.5 94.4002C412.6 86.9002 411.9 79.0002 412.2 71.1002C412.4 65.6002 413.1 60.1002 414.8 54.8002C416.7 48.6002 419.7 43.1002 424.6 38.8002C430.8 33.5002 438 31.7002 445.9 32.4002C458.7 33.5002 465.9 42.8002 468.6 53.2002C469.7 57.2002 470.1 61.3002 470 65.4002C470 67.7002 468.8 68.9002 466.5 68.9002C456 68.9002 445.5 68.9002 435.1 68.9002C434.4 68.9002 433.6 69.0002 432.9 69.2002C431.9 69.6002 431.2 70.4002 431.2 71.5002C431.5 80.4002 431.8 89.3002 435.6 97.5002C438.9 104.6 444.7 108.1 452.5 108.6C457.9 108.9 463 108 467.8 105.6C468 105.5 468.1 105.5 468.4 105.4ZM442.2 62.5002C444.6 62.5002 446.9 62.5002 449.3 62.5002C452.3 62.5002 453.4 61.4002 453.3 58.4002C453.2 55.7002 453 52.9002 452.6 50.2002C452.1 47.1002 451.2 44.1002 449.3 41.5002C446 36.8002 440 36.3002 436.1 40.6002C434.9 41.9002 434 43.4002 433.3 45.0002C431.4 49.5002 431.1 54.3002 431.1 59.1002C431.1 61.2002 432.3 62.4002 434.5 62.4002C437.1 62.5002 439.6 62.5002 442.2 62.5002Z" fill="#2E3540"/>
<path d="M293.3 105.4C293.3 106.5 293.4 107.4 293.3 108.4C293.3 108.8 292.8 109.2 292.5 109.4C288.8 111.8 284.7 112.9 280.5 113.6C273.9 114.8 267.2 115 260.7 113.1C250 110.1 243.4 102.9 239.9 92.5002C237.3 84.8002 236.9 76.9002 237.4 68.8002C237.7 63.4002 238.6 58.1002 240.4 53.0002C243 45.7002 247 39.3002 254.1 35.7002C264.2 30.6002 274.3 30.4002 283.7 37.3002C289.5 41.5002 292.4 47.6002 294 54.4002C294.9 58.0002 295.1 61.7002 295.1 65.5002C295.1 67.7002 293.9 68.9002 291.7 68.9002C281.3 68.9002 270.9 68.9002 260.5 68.9002C260 68.9002 259.5 68.9002 259.1 68.9002C257.5 69.1002 256.3 70.2002 256.3 71.8002C256.5 79.4002 257 87.0002 259.4 94.3002C261.3 100.4 265 105 271.1 107.3C273 108 275 108.4 277 108.6C282.5 109.1 287.7 108.2 292.7 105.8C292.8 105.6 292.9 105.5 293.3 105.4ZM267.1 62.5002C269.7 62.5002 272.4 62.5002 275 62.5002C276.9 62.5002 278.2 61.2002 278.2 59.3002C278.1 56.0002 277.9 52.7002 277.4 49.5002C276.9 46.1002 275.7 42.9002 273.3 40.3002C271 37.9002 268.3 37.1002 265.1 38.0002C261.9 38.9002 260 41.2002 258.7 44.0002C256.5 48.9002 256.1 54.1002 256.1 59.3002C256.1 61.1002 257.5 62.3002 259.3 62.3002C261.9 62.5002 264.5 62.5002 267.1 62.5002Z" fill="#2E3540"/>
<path d="M597.9 105.3C597.9 106.5 598 107.4 597.9 108.3C597.9 108.7 597.4 109.1 597.1 109.3C593.5 111.6 589.4 112.7 585.2 113.5C578.5 114.7 571.8 114.9 565.2 113C554.5 110 547.9 102.8 544.4 92.4998C542.4 86.6998 541.7 80.5998 541.7 74.4998C541.7 66.4998 542.5 58.4998 545.6 50.9998C548.7 43.2998 553.6 37.1998 561.5 34.1998C570.4 30.8998 579.2 30.9998 587.3 36.4998C593.3 40.4998 596.5 46.4998 598.3 53.2998C599.4 57.2998 599.7 61.2998 599.6 65.3998C599.5 67.5998 598.4 68.6998 596.1 68.6998C585.7 68.6998 575.4 68.6998 565 68.6998C564.5 68.6998 564 68.6998 563.6 68.6998C561.9 68.8998 560.6 70.0998 560.7 71.7998C561 78.9998 561.4 86.1998 563.5 93.0998C565.1 98.4998 567.9 103 572.9 105.9C576.5 107.9 580.4 108.5 584.4 108.5C589.1 108.6 593.4 107.5 597.9 105.3ZM571.7 62.4998C574.2 62.4998 576.7 62.4998 579.1 62.4998C581.6 62.4998 582.8 61.3998 582.8 58.8998C582.7 56.2998 582.6 53.5998 582.3 50.9998C581.8 47.4998 580.9 44.0998 578.7 41.1998C576.4 38.0998 573.1 36.9998 569.5 38.1998C566.3 39.1998 564.4 41.6998 563.1 44.5998C561.1 49.3998 560.7 54.3998 560.7 59.4998C560.7 61.1998 562.1 62.4998 563.8 62.4998C566.4 62.4998 569 62.4998 571.7 62.4998Z" fill="#2E3540"/>
<path d="M186.4 104.6C186.4 104.5 186.4 104.5 186.4 104.6C186.9 107 185.9 108.6 183.8 110C178.4 113.6 172.5 115 166.2 114.6C164.3 114.5 162.3 114.1 160.5 113.4C154.8 111.2 151.9 106.7 150.8 101C150.3 98.7001 150.2 96.2001 150.2 93.9001C150.2 77.0001 150.2 60.1001 150.2 43.3001C150.2 42.8001 150.2 42.3001 150.2 41.7001C150.1 39.3001 148.9 38.1001 146.5 38.1001C144.3 38.1001 142.1 38.1001 139.9 38.1001C138.2 38.1001 138 37.9001 137.9 36.2001C137.7 32.4001 137.7 32.4001 141 30.7001C146.7 27.7001 151.2 23.3001 155.5 18.6001C157.4 16.5001 159.2 14.2001 161 12.0001C162.5 10.2001 164.3 9.30008 166.6 9.50008C167.7 9.60008 168.1 10.0001 168.1 11.1001C168.1 16.7001 168.1 22.4001 168.1 28.0001C168.1 28.4001 168.1 28.8001 168.1 29.2001C168.3 31.0001 169.5 32.2001 171.4 32.2001C175.2 32.2001 178.9 32.2001 182.7 32.2001C184.2 32.2001 184.3 32.3001 184.3 33.9001C184.3 34.7001 184.3 35.4001 184.3 36.2001C184.2 37.9001 184 38.2001 182.3 38.2001C179.1 38.2001 175.8 38.2001 172.6 38.2001C172.2 38.2001 171.8 38.2001 171.4 38.2001C169.3 38.3001 168.1 39.6001 168.1 41.7001C168.1 59.7001 168.1 77.8001 168.1 95.8001C168.1 97.6001 168.4 99.4001 168.8 101.1C170 106.2 173.1 108.3 178.2 107.2C181.1 106.4 183.7 105.5 186.4 104.6Z" fill="#2E3540"/>
<path d="M690.1 112.8C682.9 112.8 675.7 112.8 668.3 112.8C668.5 112.4 668.6 112.2 668.8 112.1C670.1 111.2 670.5 109.9 670.6 108.5C670.6 107.9 670.6 107.4 670.6 106.8C670.6 86.0999 670.6 65.4999 670.6 44.7999C670.6 44.2999 670.6 43.7999 670.6 43.3999C670.5 41.0999 670.5 41.0999 668.4 40.3999C668.8 40.0999 669 39.9999 669.3 39.7999C674.4 37.2999 679.4 34.8999 684.5 32.3999C686.4 31.4999 687.6 32.0999 687.8 34.1999C688 36.3999 687.9 38.5999 687.9 40.7999C687.9 42.8999 687.9 44.9999 688 47.1999C688 47.4999 688.3 47.8999 688.4 48.1999C688.7 47.9999 689.1 47.7999 689.3 47.5999C689.7 46.8999 690.1 46.0999 690.5 45.3999C693 40.3999 696.5 36.0999 701.3 33.1999C704.6 31.1999 708.2 30.1999 712.1 31.0999C715.9 31.8999 718.5 34.8999 719.2 38.8999C719.8 42.5999 717.9 47.0999 714.8 48.6999C711.6 50.3999 708.4 49.5999 705.5 47.8999C704.4 47.2999 703.6 46.3999 702.6 45.5999C700.2 43.6999 698.4 43.7999 696.4 46.1999C694 49.0999 692.6 52.5999 691.4 56.0999C689.6 61.2999 688.5 66.6999 688.4 72.1999C688.1 84.2999 688.2 96.2999 688.1 108.4C688.1 110 688.6 111.4 690 112.3C690.1 112.4 690.2 112.5 690.3 112.7C690.2 112.5 690.2 112.6 690.1 112.8Z" fill="#2E3540"/>
<path d="M211.8 113.5C204.4 113.5 197.2 113.5 190 113.5C190 113.3 190 113.1 190.1 113C192 111.8 192.2 109.8 192.2 107.8C192.2 86.5001 192.2 65.2001 192.2 43.9001C192.2 43.5001 192.2 43.0001 192.1 42.6001C192 41.4001 191.8 40.2001 190 40.2001C190.2 40.0001 190.5 39.8001 190.7 39.6001C195.8 37.1001 201 34.6001 206.1 32.1001C207.7 31.3001 208.8 31.8001 209.2 33.6001C209.3 34.1001 209.3 34.6001 209.3 35.1001C209.3 38.8001 209.3 42.5001 209.3 46.3001C209.3 46.8001 209.6 47.3001 209.8 47.9001C210.2 47.5001 210.7 47.2001 211 46.7001C212.3 44.5001 213.4 42.2001 214.9 40.1001C218.1 35.7001 222 32.3001 227.3 30.8001C229.9 30.1001 232.5 30.1001 234.9 31.1001C238.3 32.6001 240.1 35.2001 240.4 38.9001C240.7 42.9001 239.5 46.3001 236 48.3001C233 50.1001 229.8 49.3001 226.9 47.6001C225.8 47.0001 224.9 46.0001 223.9 45.2001C221.5 43.2001 219.6 43.3001 217.6 45.8001C216.4 47.4001 215.4 49.1001 214.5 50.9001C211.6 56.8001 210.3 63.2001 209.7 69.7001C208.7 80.0001 209.4 90.3001 209.2 100.6C209.2 103.1 209.2 105.6 209.2 108C209.2 109.8 209.5 111.5 211.2 112.6C211.6 113 211.6 113.2 211.8 113.5Z" fill="#2E3540"/>
<path d="M365.2 112.7C365.3 112.4 365.4 112.2 365.5 112.1C367.1 111 367.4 109.4 367.4 107.6C367.4 95.9998 367.4 84.2998 367.4 72.6998C367.4 63.2998 367.4 53.9998 367.4 44.5998C367.4 44.1998 367.4 43.6998 367.4 43.2998C367.4 41.0998 367.3 40.8998 365.1 40.2998C365.5 39.9998 365.7 39.7998 366 39.6998C371.1 37.1998 376.1 34.7998 381.2 32.2998C383.2 31.2998 384.5 32.0998 384.6 34.3998C384.7 38.3998 384.6 42.2998 384.7 46.2998C384.7 46.8998 385 47.4998 385.2 47.9998C385.6 47.5998 386.3 47.1998 386.5 46.5998C388.7 41.8998 391.6 37.7998 395.6 34.5998C398.8 32.0998 402.4 30.3998 406.6 30.4998C413.1 30.5998 417.4 36.3998 415.7 42.5998V42.6998C413.6 49.7998 407.9 50.7998 402.4 47.6998C401.2 46.9998 400.3 45.9998 399.2 45.1998C397 43.4998 395.1 43.4998 393.4 45.6998C392.3 46.9998 391.4 48.3998 390.7 49.8998C387.6 55.8998 385.9 62.2998 385.5 68.8998C385 76.7998 385 84.7998 384.9 92.6998C384.8 97.5998 384.9 102.5 384.9 107.3C384.9 109.2 385.2 110.9 386.9 112C387 112.1 387 112.3 387.1 112.5C379.8 112.7 372.6 112.7 365.2 112.7Z" fill="#2E3540"/>
<path d="M350 142.7C350 144.8 350 147.5 350 150.2C350 152.2 350 154.3 350 156.3C350 157.2 349.7 157.6 348.7 157.6C346.8 157.6 344.9 157.6 343.1 157.6C342.3 157.6 342 157.3 342 156.5C342 146.5 342 136.6 342 126.6C342 126.5 342.1 126.4 342.1 126.1C343.6 126.1 345.2 126.1 346.8 126.1C351.1 126.2 349.9 125.4 351.5 129.3C353.4 134 355.2 138.8 357 143.6C358.3 140.1 359.6 136.6 360.9 133.2C361.6 131.2 362.4 129.2 363.1 127.2C363.4 126.4 363.8 126 364.7 126.1C367 126.1 369.2 126.1 371.7 126.1C371.7 126.6 371.8 126.9 371.8 127.3C371.8 136.9 371.8 146.5 371.8 156.1C371.8 157.2 371.5 157.6 370.4 157.6C368.7 157.5 367 157.5 365.2 157.6C364.2 157.6 363.9 157.2 363.9 156.2C364 151.4 364.1 146.6 364.1 141.9C363.6 143.6 363 145.4 362.4 147.2C361.8 149.1 361 150.9 360.4 152.8C360.1 153.6 359.7 153.9 358.9 153.9C357.6 153.9 356.3 153.9 355.1 153.9C354.2 153.9 353.7 153.6 353.4 152.7C352.2 149.1 351 145.6 350 142.7Z" fill="#2E3540"/>
<path d="M625.9 141.3C625.9 142.7 625.9 144.1 625.9 145.4C625.9 149 625.9 152.5 626 156.1C626 157.1 625.7 157.5 624.7 157.5C622.8 157.4 620.9 157.5 619.1 157.5C618.2 157.5 617.9 157.2 617.9 156.3C617.9 146.5 617.9 136.7 617.9 126.9C617.9 126.6 618 126.4 618 126C620.1 126 622.2 125.9 624.3 126.1C624.8 126.1 625.4 126.7 625.7 127.2C628.4 132.3 631.1 137.4 633.8 142.7C633.8 137.1 633.8 131.6 633.8 126C636.3 126 638.6 126 641 126C641.3 126 641.7 126.6 641.7 126.9C641.8 128.5 641.7 130.2 641.7 131.8C641.7 139.8 641.7 147.7 641.7 155.7C641.7 157.4 641.7 157.4 640 157.4C638.6 157.4 637.2 157.4 635.8 157.4C634.9 157.4 634.4 157.1 634 156.3C631.4 151.3 628.8 146.4 626.1 141.5C626.1 141.5 626 141.4 625.9 141.3Z" fill="#2E3540"/>
<path d="M467.7 139.9C467.7 143.5 467.9 146.9 467.7 150.3C467.5 153.9 464.9 156.8 461.1 157.6C457.3 158.5 453.5 158.5 449.7 157.6C445.3 156.6 442.8 153.4 442.8 148.9C442.8 144.2 442.8 139.5 442.8 134.9C442.8 129.8 445.8 126.1 450.9 125.6C453.9 125.3 457.1 125.3 460.1 125.6C464 126 466.3 128.7 468 132.1C468.1 132.3 467.9 133 467.6 133.1C465.8 134 464 134.9 462.2 135.6C461.8 135.8 460.9 135.5 460.6 135.1C459.5 133.2 457.9 132.5 455.8 132.7C454.8 132.8 453.9 132.7 452.9 132.8C451.6 132.9 451 133.7 451 135C451 139.5 451 144 451 148.6C451 149.9 451.7 150.8 453 150.8C454.6 150.9 456.2 150.9 457.8 150.8C459 150.7 459.6 150 459.6 148.8C459.6 148.4 459.6 147.9 459.6 147.5C459.6 146.6 459.2 146.3 458.3 146.3C457.5 146.3 456.7 146.3 455.9 146.3C455.1 146.3 454.7 146 454.7 145.2C454.7 143.8 454.7 142.3 454.7 140.9C454.7 140.6 455.1 140.1 455.4 140.1C459.5 139.9 463.6 139.9 467.7 139.9Z" fill="#2E3540"/>
<path d="M667.5 141.6C667.5 136.8 667.5 132.1 667.5 127.3C667.5 126.3 667.7 125.9 668.8 125.9C675.2 126 681.5 126 687.9 125.9C689 125.9 689.3 126.3 689.3 127.3C689.2 128.8 689.2 130.3 689.3 131.9C689.3 132.9 688.9 133.2 688 133.2C684.4 133.2 680.9 133.2 677.3 133.2C676.2 133.2 675.8 133.5 675.8 134.6C675.8 137.8 675.8 137.8 679.1 137.8C681.2 137.8 683.3 137.8 685.3 137.8C687.1 137.8 687.1 137.8 687.1 139.6C687.1 141 687.1 142.3 687.1 143.7C687.1 144.7 686.8 145.1 685.7 145.1C682.8 145.1 679.9 145.1 677.1 145.1C676.2 145.1 675.8 145.4 675.8 146.3C675.8 150 675.7 150 679.5 150C682.2 150 684.9 150 687.7 150C689.2 150 689.3 150.1 689.3 151.7C689.3 153.2 689.3 154.7 689.3 156.3C689.3 157.1 689 157.4 688.2 157.4C681.7 157.4 675.2 157.4 668.6 157.4C667.6 157.4 667.5 156.8 667.5 156.1C667.5 151.3 667.5 146.5 667.5 141.6Z" fill="#2E3540"/>
<path d="M394 157.5C394.1 156.9 394.2 156.4 394.4 156C397.7 146.4 401 136.8 404.2 127.2C404.5 126.3 404.9 126 405.8 126C407.1 126.1 408.4 126 409.8 126C410.5 126 410.9 126.2 411.1 126.9C414.5 136.8 417.8 146.6 421.2 156.5C421.3 156.8 421.3 157 421.4 157.5C420.7 157.5 420.1 157.5 419.5 157.5C417.6 157.5 415.7 157.5 413.9 157.5C413.1 157.5 412.7 157.2 412.5 156.5C412.3 155.7 412 155 411.7 154.2C411.5 153.4 411 153 410.2 153C408.5 153 406.8 153 405.2 153C404.8 153 404.4 153.5 404.1 153.8C404 153.8 404 153.9 404 154C402.7 157.4 402.7 157.4 399 157.4C397.3 157.5 395.7 157.5 394 157.5ZM405.7 147.2C406.8 147.2 407.6 147.2 408.4 147.2C409.4 147.2 409.6 146.8 409.4 145.9C409.1 144.4 408.8 142.9 408.5 141.3C408.2 139.9 408 138.5 407.8 137.1C407.7 137.1 407.7 137.1 407.6 137.1C407 140.5 406.4 143.7 405.7 147.2Z" fill="#2E3540"/>
<path d="M516.5 157.5C513.7 157.5 511 157.5 508.4 157.5C508.1 157.5 507.7 157.1 507.6 156.8C507.2 156 507.1 155 506.6 154.2C506.3 153.7 505.7 153.2 505.3 153.2C503.6 153.1 501.9 153.1 500.2 153.2C499.8 153.2 499.4 153.7 499.1 154C499 154 499.1 154.1 499 154.2C497.7 157.6 497.7 157.6 494.1 157.6C492.5 157.6 490.9 157.6 489.1 157.6C489.3 156.9 489.4 156.5 489.5 156.1C492.8 146.5 496 137 499.3 127.4C499.6 126.4 500.1 126 501.2 126.1C502.4 126.2 503.7 126.2 504.9 126.1C505.6 126.1 506 126.3 506.3 127.1C509.6 136.9 513 146.7 516.3 156.6C516.4 156.7 516.4 157 516.5 157.5ZM500.8 147.2C501.9 147.2 502.9 147.3 503.9 147.2C504.2 147.2 504.6 146.6 504.6 146.4C504.1 143.3 503.5 140.3 502.9 137.1C502.2 140.4 501.5 143.7 500.8 147.2Z" fill="#2E3540"/>
<path d="M560.5 126.2C556.5 134.1 552.5 141.9 548.4 149.9C549 150 549.5 150.1 549.9 150.1C552.5 150.1 555.2 150.1 557.8 150.1C559.3 150.1 559.3 150.2 559.3 151.7C559.3 153.3 559.3 154.8 559.3 156.4C559.3 157.2 559 157.5 558.2 157.5C550.9 157.5 543.6 157.5 536.4 157.5C536.2 157.5 536.1 157.4 535.7 157.3C539.7 149.4 543.7 141.6 547.7 133.5C547.1 133.4 546.6 133.3 546.2 133.3C543.8 133.3 541.4 133.3 539 133.3C538 133.3 537.6 133 537.7 132C537.8 130.3 537.7 128.6 537.7 127C537.7 126.3 537.9 126.1 538.6 126.1C545.6 126.1 552.5 126.1 559.5 126.1C559.8 126 560.1 126.1 560.5 126.2Z" fill="#2E3540"/>
<path d="M583.8 126C586.3 126 588.7 126 591.2 126C591.5 126 591.8 126.4 592 126.7C592.1 126.9 592 127.2 592 127.4C592 136.8 592 146.3 592 155.7C592 157.3 591.9 157.4 590.3 157.4C588.5 157.4 586.6 157.4 584.8 157.4C584.1 157.4 583.7 157.2 583.7 156.4C583.7 146.4 583.7 136.4 583.7 126.4C583.7 126.4 583.8 126.3 583.8 126Z" fill="#2E3540"/>
<path d="M705.6 106.2C705.6 110 702.6 113 698.7 113C694.8 113 691.7 110 691.8 106.1C691.9 102.3 694.9 99.3999 698.7 99.3999C702.6 99.3999 705.6 102.4 705.6 106.2ZM693.1 106.3C693.1 109.5 695.6 112.1 698.7 112.1C701.9 112.1 704.4 109.5 704.4 106.2C704.4 103 701.9 100.4 698.7 100.4C695.6 100.4 693.1 103 693.1 106.3Z" fill="#2E3540"/>
<path d="M696.2 102.3C697.3 102.3 698.2 102.3 699.1 102.3C700.8 102.3 701.6 102.8 701.8 103.9C702.1 105.3 701.7 105.9 699.9 106.7C700.6 107.8 701.2 108.9 701.9 109.9C701.8 110 701.7 110.1 701.6 110.2C701.2 109.9 700.7 109.6 700.4 109.3C699.9 108.6 699.6 107.8 699 107.2C698.7 106.9 698.1 106.8 697.6 106.7C697.5 106.7 697.2 107.3 697.2 107.7C697.1 108.3 697.2 108.9 697.2 109.5C697.2 109.7 696.9 109.9 696.8 110.1C696.6 109.9 696.3 109.7 696.3 109.5C696.2 107.2 696.2 104.8 696.2 102.3ZM698.5 103.2C697.8 103.1 697 103.1 697.1 104.4C697.2 105.2 697.1 105.9 698.3 105.8C699.9 105.7 700.7 105.4 700.7 104.4C700.7 103.6 700.1 103.2 698.5 103.2Z" fill="#2E3540"/>
</g>
<defs>
<clipPath id="clip0">
<rect width="719.3" height="158.3" fill="white"/>
</clipPath>
</defs>
</svg>
