<svg width="155" height="45" fill="none" xmlns="http://www.w3.org/2000/svg"><path d="M76.19 2.562C79.948 1.792 83.75.97 87.686.148v14.074c1.655-.514 3.087-1.181 4.608-1.387 6.038-.77 10.512 2.928 11.988 9.759 2.236 10.375-2.505 19.98-11.094 21.264-4.25.617-8.633-.205-13.106-.36v-17.36c0-5.136-.045-10.273-.045-15.358 0-3.39.134-6.882-4.205-7.447.09-.206.224-.514.358-.77zM88 41.906c2.55.822 4.696.206 5.949-2.31 3.176-6.473 3.713-13.252 1.029-20.084-1.074-2.773-2.997-3.8-5.413-3.492-1.342.154-1.924.719-1.879 2.414.09 6.83.045 13.662.09 20.493 0 .925.134 1.952.223 2.98zM31.145.969c1.028 7.088.67 11.505-1.253 12.481-1.879-9.554-7.962-10.53-15.298-9.348v16.95c1.476 0 3.086.154 4.697-.052 2.057-.308 2.863-2.208 3.489-4.211.223-.668.715-1.182 1.073-1.798.224.103.403.257.627.36v14.176c-.582-.308-1.432-.514-1.521-.822-.94-5.753-4.697-5.24-8.902-5.034.313 4.931.582 9.81 1.029 14.69.223 2.055 1.476 3.236 3.4 3.39.626.052 1.252.72 1.834 1.079-.09.257-.18.514-.314.719H.637c-.134-.205-.223-.36-.357-.565.536-.41 1.073-1.13 1.655-1.233 2.281-.308 3.355-2.003 3.444-4.314.268-7.5.403-15.05.492-22.549.045-2.465-.179-4.93-.403-7.396-.223-2.722-1.431-4.417-3.891-4.777-.403-.051-.76-.565-1.119-.822.448-.308.85-.822 1.298-.822C11.507.97 21.304.97 31.145.97zm9.751 43.349c-7.917.052-13.106-6.163-13.106-15.716 0-9.502 5.502-16.18 13.42-16.23 8.543-.052 13.687 5.957 13.643 15.87-.045 9.707-5.502 15.973-13.957 16.076zm6.04-16.179c-.583-3.133-1.03-6.728-1.924-10.17-.582-2.208-1.969-3.851-4.295-3.646-2.102.206-3.13 1.952-3.578 3.955-1.521 6.728-1.655 13.457.313 20.134.67 2.208 1.879 4.057 4.115 4.057 2.326-.051 3.579-2.003 4.07-4.366.582-3.133.806-6.266 1.298-9.964zm68.618-1.336c-1.431 10.427 5.502 15.409 15.701 11.66-.492.77-.895 1.643-1.521 2.208-4.473 4.109-9.528 4.776-14.672 2.362-5.01-2.362-7.425-7.087-7.739-13.25-.492-9.76 4.697-17.001 12.481-17.412 7.515-.41 12.301 5.393 11.675 14.432h-15.925zm8.32-2.26c-.447-2.824-.581-5.392-1.252-7.755-.94-3.236-3.489-3.544-5.234-.719-1.521 2.465-2.147 5.29-2.013 8.423 2.684.052 5.279.052 8.499.052zm10.602 8.784c.537 1.13 1.029 2.312 1.566 3.442 1.431 2.927 3.399 4.982 6.53 4.879 2.192-.051 3.668-1.181 4.25-3.698.537-2.414-.447-3.955-2.192-5.034-1.163-.719-2.415-1.386-3.668-1.9-5.413-2.26-7.381-5.188-6.844-10.324.447-4.314 4.071-7.961 8.812-8.218 2.639-.154 5.323.514 7.963.77 1.52.155 1.968 1.233 1.923 2.825-.045 2.004 0 4.007 0 6.01-.268.051-.582.051-.85.102-.537-1.232-1.073-2.516-1.655-3.749-.984-2.157-2.505-3.595-4.652-3.955-1.879-.308-3.444.462-4.205 2.517-.805 2.157-.402 4.109 1.297 5.444 1.074.873 2.326 1.541 3.534 2.209 1.074.616 2.192 1.027 3.266 1.592 2.907 1.541 4.875 3.852 4.786 7.859-.045 4.109-1.655 7.088-4.831 8.783-4.921 2.516-9.886 1.592-14.851.102-.358-.102-.805-.616-.85-.975-.09-2.774-.045-5.548-.045-8.321.224-.206.492-.308.716-.36z" fill="#828282"/><path d="M75.117 21c-1.477-.461-2.595-.924-3.758-1.078-3.489-.565-4.741.668-4.741 4.674 0 3.236 0 6.472.044 9.76.09 6.214.09 6.214 4.786 8.166-.67 1.284-9.348 1.798-16.73.873.582-.667.895-1.335 1.298-1.438 2.058-.36 2.729-2.003 2.773-4.006.09-5.804.045-11.608.09-17.412 0-2.98-1.432-4.418-4.16-4.623.09-.308.179-.565.268-.873 1.879-.411 3.758-.822 5.681-1.284 1.968-.463 3.892-.874 6.039-1.387v6.677c2.818-5.085 5.905-8.27 11.183-6.06-.984 2.824-1.879 5.444-2.773 8.012z" fill="#828282"/></svg>