<svg width="935" height="118" viewBox="0 0 935 118" fill="none" xmlns="http://www.w3.org/2000/svg">
<g clip-path="url(#clip0)">
<path d="M81.3387 80.2542C81.6747 76.4139 81.9148 72.6217 82.3468 68.8296C83.8349 56.9249 85.3709 45.0683 86.955 33.1637C88.1551 23.9952 89.4991 14.7788 90.6032 5.61028C90.8432 3.54617 91.4672 2.77813 93.6754 2.87414C97.0835 3.06615 100.54 2.97014 103.996 2.92214C105.34 2.87414 105.916 3.16215 106.108 4.69823C108.412 21.9791 110.812 39.212 113.26 56.4449C114.412 64.7493 115.709 73.0058 116.429 81.4062C116.957 75.5979 117.389 69.7416 118.013 63.9333C119.501 50.2526 121.037 36.6199 122.525 22.9392C123.197 16.8429 123.965 10.6985 124.589 4.60223C124.733 3.25816 125.165 2.87414 126.461 2.92214C130.781 3.01815 135.102 3.01815 139.422 2.92214C140.862 2.87414 141.15 3.35416 140.91 4.74624C137.79 24.4753 134.669 44.2043 131.597 63.9333C129.101 79.7741 126.701 95.6629 124.253 111.552C123.677 115.248 123.725 115.248 119.933 115.248C116.957 115.248 114.028 115.2 111.052 115.296C109.708 115.344 109.084 114.96 108.892 113.472C105.724 90.6227 101.98 67.8215 99.0996 44.9243C98.9076 43.2922 98.8116 41.6601 98.6676 39.9801C97.6596 40.3641 97.9476 41.0841 97.8996 41.6601C97.5636 51.7407 95.6915 61.6772 94.2514 71.6137C92.2833 85.3904 90.2192 99.1191 88.2991 112.896C88.0591 114.624 87.579 115.392 85.6589 115.296C82.2508 115.152 78.7946 115.152 75.3384 115.296C73.8023 115.344 73.2743 114.768 73.0343 113.328C71.1142 100.847 69.1461 88.3666 67.178 75.9339C65.0179 62.1092 62.8578 48.3325 60.6977 34.5078C59.1616 24.7153 57.6255 14.9228 56.0414 5.17826C55.8014 3.64218 55.8494 2.92214 57.7695 2.97014C61.9457 3.11415 66.0739 3.11415 70.2501 2.97014C71.9302 2.92214 72.3623 3.49817 72.5063 5.08225C74.5224 23.1312 76.5865 41.1321 78.6506 59.133C79.4186 65.7094 80.3787 72.2857 80.7147 78.9101C80.7627 79.3421 80.7147 79.8701 81.3387 80.2542Z" fill="#848D9A"/>
<path d="M645.8 80.59C647.048 64.6052 649.496 48.9564 651.656 33.2116C652.952 23.7071 654.248 14.2026 655.4 4.69811C655.592 3.25803 656.024 2.87401 657.464 2.92202C661.161 3.01802 664.809 3.01802 668.505 2.92202C669.993 2.87401 670.617 3.40204 670.809 4.84212C672.105 14.3466 673.401 23.8511 674.745 33.3076C675.897 41.612 677.05 49.9165 678.154 58.2209C679.21 66.1893 680.602 74.1577 680.938 82.2701C681.466 76.6538 681.898 70.9895 682.474 65.3732C683.29 57.5968 684.154 49.8204 685.018 42.044C686.41 29.6594 687.85 17.2748 689.146 4.89012C689.29 3.30604 689.722 2.87401 691.258 2.92202C695.338 3.01802 699.419 3.06602 703.499 2.92202C705.467 2.82601 705.803 3.49805 705.515 5.22614C704.411 11.9945 703.355 18.7628 702.299 25.5792C700.715 35.8517 699.083 46.0762 697.499 56.3488C695.242 70.8455 692.986 85.3903 690.682 99.887C689.962 104.447 689.146 109.008 688.474 113.616C688.282 114.912 687.802 115.344 686.506 115.296C683.002 115.2 679.45 115.152 675.945 115.296C674.313 115.344 673.689 114.768 673.497 113.232C672.393 105.551 671.193 97.9189 670.089 90.2385C668.889 82.1741 667.737 74.1097 666.585 66.0453C665.289 56.7328 663.561 47.4203 662.937 37.9638C662.793 38.8279 662.601 39.6439 662.553 40.508C662.169 51.5005 660.201 62.2531 658.569 73.0536C656.744 85.3903 655.016 97.7269 653.192 110.016C652.424 115.2 652.328 115.2 647.048 115.2C644.792 115.2 642.584 115.056 640.328 115.248C638.504 115.392 637.784 114.72 637.495 112.944C636.535 106.463 635.479 99.983 634.471 93.5507C633.271 85.8223 632.071 78.0939 630.871 70.3655C628.855 57.2608 626.839 44.1562 624.775 31.0995C623.431 22.411 622.087 13.7226 620.599 5.08213C620.311 3.40204 620.551 2.87401 622.327 2.92202C626.551 3.06602 630.823 3.01802 635.047 2.92202C636.487 2.87401 637.015 3.40204 637.159 4.79411C638.456 16.8427 639.8 28.9394 641.192 40.988C642.344 51.0685 643.496 61.149 644.744 71.2296C645.032 73.6297 644.984 76.0298 645.032 78.4299C645.128 79.15 644.744 80.014 645.8 80.59Z" fill="#2E3540"/>
<path d="M429.117 72.1904C428.877 68.8303 428.637 65.5181 428.637 62.1579C428.685 43.1969 428.685 24.2359 428.637 5.27496C428.637 3.54688 428.973 2.87484 430.845 2.97085C434.925 3.11485 439.005 3.06685 443.085 3.01885C444.574 2.97085 444.958 3.49887 444.958 4.93895C444.91 41.0368 444.91 77.0867 444.958 113.185C444.958 114.865 444.526 115.441 442.845 115.393C438.765 115.297 434.685 115.345 430.605 115.393C429.213 115.393 428.541 114.961 428.061 113.521C422.492 97.0077 416.828 80.4949 411.212 63.982C409.34 58.5097 407.468 52.9894 405.259 47.5172C405.259 48.5252 405.115 49.5333 405.259 50.5413C405.74 53.8535 405.932 57.2137 405.932 60.5738C405.884 77.9987 405.884 95.4716 405.932 112.897C405.932 114.673 405.596 115.489 403.579 115.441C399.499 115.297 395.419 115.345 391.339 115.393C390.091 115.393 389.563 115.009 389.659 113.761C389.707 113.377 389.659 112.945 389.659 112.561C389.659 76.9427 389.659 41.3728 389.611 5.75499C389.611 3.54688 390.187 2.92284 392.347 3.01885C396.091 3.21086 399.883 3.11485 403.627 3.01885C405.019 2.97085 405.548 3.54688 405.932 4.79494C411.26 21.1638 416.636 37.4846 421.964 53.8535C424.172 60.6698 426.333 67.5342 428.493 74.3505C428.925 75.7426 428.733 77.3267 429.933 79.0548C430.173 76.2226 429.741 74.2065 429.117 72.1904Z" fill="#2E3540"/>
<path d="M0.982573 58.8453C0.982573 40.9884 0.982573 23.1795 0.93457 5.32258C0.93457 3.49849 1.27059 2.82645 3.28669 2.87445C11.2071 3.01846 19.1275 2.73045 27.0479 3.06646C36.4564 3.45048 44.2808 7.09867 49.1291 15.5951C54.7934 25.5316 55.3214 46.2207 42.6967 56.0612C41.2567 57.1653 40.9206 57.7893 42.7927 58.9894C50.1371 63.7416 53.2573 71.038 54.0733 79.4384C54.6493 85.4387 54.4573 91.391 52.9693 97.2953C50.2331 107.904 42.5527 114.24 31.4641 114.864C21.9597 115.392 12.4552 114.96 2.90267 115.2C0.886568 115.248 1.03058 114.144 1.03058 112.8C0.982573 94.8472 0.982573 76.8463 0.982573 58.8453ZM18.1675 82.4146C18.1675 85.4387 18.1675 88.4629 18.1675 91.535C18.1675 99.8395 18.1675 99.8395 26.6159 98.9274C31.4161 98.3994 34.2003 96.1913 35.4484 91.487C36.9364 85.7267 36.8884 79.9664 35.5444 74.2061C34.3443 69.1179 31.1761 66.4777 25.9439 66.0457C24.2638 65.9017 22.5837 66.0937 20.9036 65.9017C18.8395 65.7097 17.9755 66.2377 18.1195 68.5899C18.3115 73.1501 18.1675 77.8063 18.1675 82.4146ZM18.1675 34.2681C18.1675 37.2922 18.1675 40.3644 18.1675 43.3885C18.1675 49.7249 18.1675 49.6769 24.5038 49.6769C29.064 49.6769 32.1362 47.6128 33.6723 43.3885C35.8324 37.5802 35.8324 31.6279 34.0563 25.7236C32.8082 21.5954 29.8321 19.4833 25.5118 19.2913C23.6877 19.1953 21.8157 19.2433 19.9916 19.1473C18.4555 19.0513 18.1195 19.6753 18.1195 21.0674C18.2155 25.4836 18.1675 29.8518 18.1675 34.2681Z" fill="#848D9A"/>
<path d="M180.416 3.16293C191.168 3.16293 202.017 1.81886 212.625 4.07498C221.17 5.89907 227.17 11.2753 229.954 19.6278C233.123 29.1323 232.931 38.5888 228.514 47.8052C226.834 51.3574 224.194 54.0936 221.314 56.5897C220.306 57.4537 220.21 57.9818 221.41 58.7018C228.706 63.31 232.163 70.3184 233.027 78.5748C233.747 85.5832 233.603 92.5916 231.442 99.4559C228.85 107.76 221.458 113.905 212.722 114.529C203.073 114.529 193.377 114.481 183.728 114.481C180.464 114.481 180.464 114.481 180.464 111.313C180.416 75.2147 180.416 39.2128 180.416 3.16293ZM215.506 82.7991C215.65 80.1589 215.362 77.5188 214.834 74.9266C214.066 71.3745 212.481 68.3023 208.833 66.8622C205.377 65.4702 201.777 65.9022 198.177 65.9022C197.121 65.9022 197.265 66.8622 197.265 67.5343C197.265 77.4228 197.265 87.3593 197.265 97.2478C197.265 98.3999 197.553 99.0239 198.897 98.9759C201.057 98.8799 203.217 99.0239 205.377 98.8799C209.649 98.5919 212.722 96.6238 214.21 92.3996C215.314 89.3274 215.458 86.0632 215.506 82.7991ZM197.265 34.2205C197.265 37.0047 197.265 39.7888 197.265 42.621C197.265 50.5414 197.265 50.5414 205.281 49.5813C208.353 49.1973 210.705 47.7092 212.049 44.9251C215.122 38.3968 214.978 31.6284 212.818 24.9081C211.761 21.6439 209.073 19.8198 205.617 19.4358C203.505 19.1958 201.297 19.3398 199.185 19.1478C197.697 19.0518 197.265 19.6758 197.265 21.0679C197.313 25.4361 197.265 29.8523 197.265 34.2205Z" fill="#2E3540"/>
<path d="M771.038 58.9894C771.038 41.1324 771.086 23.3235 770.99 5.46659C770.99 3.49849 771.422 2.87446 773.487 2.92246C782.367 3.06647 791.247 2.92246 800.128 3.06647C805.072 3.16248 809.776 4.41054 813.809 7.38669C819.089 11.2749 821.489 16.8432 822.593 23.0355C823.937 30.8119 824.177 38.5883 822.689 46.4127C821.537 52.365 819.329 57.7413 814.433 61.5815C812.993 62.7336 812.801 63.9336 813.185 65.5177C816.593 79.2944 820.001 93.0711 823.409 106.848C823.985 109.104 824.417 111.36 824.993 113.568C825.329 114.864 824.897 115.296 823.601 115.296C818.657 115.248 813.665 115.248 808.72 115.296C807.472 115.296 807.328 114.672 807.136 113.712C805.312 105.648 803.44 97.5354 801.568 89.4709C800.08 82.8466 798.544 76.2703 797.104 69.6459C796.816 68.3018 796.192 67.9178 794.8 67.9178C788.463 67.8698 788.463 67.8218 788.463 74.0621C788.463 86.7828 788.463 99.5035 788.463 112.224C788.463 115.296 788.463 115.296 785.295 115.296C781.455 115.296 777.615 115.152 773.775 115.344C771.518 115.44 770.942 114.72 770.942 112.512C771.086 94.6552 771.038 76.7983 771.038 58.9894ZM788.511 35.3241C788.511 40.0284 788.559 44.7326 788.463 49.4369C788.415 51.261 789.039 51.837 790.815 51.741C792.976 51.597 795.136 51.693 797.296 51.549C800.992 51.261 803.632 49.5329 804.64 45.8367C806.464 39.2603 806.464 32.54 804.976 25.9637C803.92 21.3074 801.184 19.5313 796.288 19.3393C794.608 19.2913 792.928 19.3873 791.247 19.2433C789.135 19.0033 788.319 19.6753 788.415 21.9794C788.607 26.3477 788.463 30.8599 788.511 35.3241Z" fill="#2E3540"/>
<path d="M882.212 3.16257C882.692 3.11457 883.172 2.97056 883.604 2.97056C892.389 2.97056 901.221 2.73055 910.006 3.11457C924.214 3.6906 932.183 11.563 934.055 25.5317C934.631 29.852 934.583 34.1242 934.583 38.4444C934.583 54.1412 934.679 69.79 934.535 85.4868C934.487 92.3032 933.719 99.0715 929.975 105.024C926.374 110.736 921.094 113.76 914.422 114.432C904.917 114.432 895.365 114.432 885.86 114.384C881.732 114.384 882.212 114.864 882.212 110.64C882.212 74.8303 882.212 39.0204 882.212 3.16257ZM899.109 58.9415C899.109 71.4221 899.157 83.9028 899.061 96.3834C899.061 97.9675 899.349 98.7355 901.125 98.6395C903.573 98.4955 906.069 98.6875 908.565 98.5435C912.742 98.3515 914.95 96.5274 916.198 92.5432C916.822 90.5751 916.774 88.607 916.774 86.5909C916.774 69.886 916.774 53.1812 916.774 36.4283C916.774 34.1722 916.774 31.9641 916.63 29.7079C916.294 24.7637 913.51 21.4515 908.757 20.1074C906.309 19.4354 903.861 19.4834 901.413 19.2914C899.493 19.1474 899.013 19.8194 899.013 21.6915C899.157 34.1722 899.109 46.5568 899.109 58.9415Z" fill="#2E3540"/>
<path d="M762.206 58.5091C762.206 69.6937 762.494 80.9263 762.11 92.1109C761.822 99.9833 759.038 107.088 752.653 112.272C748.669 115.488 744.061 117.024 738.973 117.312C733.596 117.648 728.268 117.456 723.276 115.104C715.884 111.6 712.187 105.408 710.363 97.7271C709.355 93.5029 709.259 89.1827 709.259 84.8625C709.259 65.9975 709.259 47.0845 709.259 28.2196C709.259 22.0272 710.507 16.2189 714.059 10.9867C718.092 5.03435 723.804 2.0582 730.764 1.00215C737.293 0.0420958 743.629 0.426116 749.629 3.64228C755.966 7.05046 759.374 12.5227 761.294 19.1951C762.254 22.6033 762.446 26.1074 762.446 29.6596C762.446 39.2601 762.446 48.8606 762.446 58.4611C762.302 58.5091 762.254 58.5091 762.206 58.5091ZM726.732 58.7011C726.732 69.1657 726.78 79.6302 726.732 90.1428C726.732 92.3509 727.116 94.463 727.692 96.5271C728.556 99.5032 731.196 101.663 734.028 101.951C737.821 102.287 741.229 101.711 743.149 97.8712C744.397 95.375 744.733 92.6869 744.733 89.9507C744.733 69.4057 744.733 48.8606 744.733 28.3156C744.733 26.2034 744.445 24.1873 743.917 22.1712C743.053 18.8111 740.605 16.747 736.909 16.2669C732.972 15.7869 730.092 17.083 728.364 20.1551C727.068 22.5073 726.684 25.0994 726.684 27.7875C726.732 38.1081 726.732 48.3806 726.732 58.7011Z" fill="#2E3540"/>
<path d="M293.702 48.2366C293.702 61.6773 293.702 75.118 293.702 88.5587C293.702 94.559 292.646 100.367 289.622 105.6C284.581 114.432 276.469 117.6 266.676 117.456C259.524 117.36 253.044 115.68 248.003 110.352C243.443 105.504 241.571 99.4553 240.803 92.9749C240.323 88.8947 240.419 84.8145 240.419 80.7343C240.419 55.677 240.467 30.6677 240.371 5.61042C240.371 3.3063 241.043 2.82628 243.203 2.87428C247.379 3.01829 251.508 3.01829 255.684 2.87428C257.7 2.77828 258.18 3.3543 258.18 5.37041C258.132 33.5959 258.132 61.8693 258.132 90.0948C258.132 93.599 259.284 96.6231 261.972 98.7352C266.58 102.383 273.253 100.367 275.317 94.799C275.941 93.071 276.229 91.2949 276.229 89.3748C276.181 61.3893 276.229 33.3559 276.181 5.37041C276.181 3.40231 276.661 2.77828 278.677 2.87428C282.997 3.06629 287.317 3.01829 291.638 2.87428C293.318 2.82628 293.75 3.3063 293.75 4.98639C293.702 19.4351 293.702 33.8359 293.702 48.2366Z" fill="#2E3540"/>
<path d="M559.683 89.0871C559.876 96.8155 557.763 103.776 552.435 109.536C546.867 115.537 539.762 117.889 531.746 117.649C525.554 117.457 519.841 115.921 514.897 111.84C509.137 107.04 506.305 100.704 504.913 93.5994C504.577 91.8713 504.481 90.0952 504.193 88.3671C504.001 87.167 504.337 86.687 505.633 86.495C510.145 85.871 514.657 85.1989 519.121 84.4309C520.513 84.1909 520.753 84.6229 520.849 85.823C521.185 88.9911 521.569 92.1593 523.01 95.0874C525.218 99.5517 529.394 101.664 534.29 100.656C539.33 99.5997 542.499 96.0955 542.739 91.0552C543.027 85.679 541.011 81.1667 537.746 76.9905C532.034 69.6461 524.642 63.8858 518.593 56.8775C513.889 51.4532 509.377 45.9329 507.169 38.8765C502.753 25.0038 508.321 8.73098 522.866 2.82667C536.882 -2.83762 552.339 4.50676 556.659 19.0515C557.475 21.7397 558.051 24.4758 558.435 27.2119C558.531 27.932 558.819 28.796 557.523 28.988C552.867 29.5641 548.163 30.2361 543.507 30.9561C541.875 31.1961 541.347 30.6201 541.347 29.084C541.299 26.4919 540.53 24.0918 539.618 21.6917C537.362 15.9794 528.002 16.0754 524.978 20.7316C521.857 25.5318 522.53 30.5241 524.546 35.3724C527.234 41.7567 532.274 46.4129 537.122 51.1172C542.979 56.8295 549.075 62.3498 553.587 69.2621C557.619 75.2624 559.876 81.7908 559.683 89.0871Z" fill="#2E3540"/>
<path d="M328.504 1.04996C340.84 1.09796 350.249 8.58635 353.177 20.299C353.705 22.4591 354.041 24.6672 354.521 26.8753C354.761 28.1714 354.665 28.8914 352.985 29.0834C348.521 29.5634 344.104 30.2835 339.688 30.9555C338.296 31.1475 337.72 30.9555 337.624 29.3714C337.528 27.4993 337.144 25.5312 336.568 23.7551C334.984 18.7149 331.864 16.8428 326.535 17.4668C322.647 17.9468 319.527 21.499 319.143 26.0112C318.615 32.2996 321.063 37.5318 324.951 42.2361C330.136 48.6204 336.52 53.8527 342.136 59.805C347.704 65.7093 352.409 72.0936 354.761 80.062C358.121 91.6786 354.425 105.551 345.64 112.272C339.784 116.736 333.112 118.128 325.815 117.504C315.543 116.64 308.342 111.6 303.878 102.527C301.718 98.111 300.71 93.3587 300.422 88.4145C300.326 87.1664 300.614 86.6384 302.006 86.4944C306.182 85.9664 310.407 85.4383 314.535 84.5263C316.695 84.0462 316.887 84.9103 317.079 86.5904C317.463 89.8546 317.943 93.0707 319.623 95.9989C321.879 99.9351 326.247 101.759 330.904 100.607C335.56 99.5031 338.584 95.8549 338.872 91.3426C339.304 84.8623 336.376 79.87 332.392 75.1658C327.687 69.6455 322.119 64.9413 317.271 59.613C312.471 54.3807 307.814 49.1004 304.742 42.5721C298.838 30.0435 302.246 14.2506 312.759 6.42623C317.511 2.82605 322.887 0.857947 328.504 1.04996Z" fill="#2E3540"/>
<path d="M592.229 1.05002C604.902 1.09802 614.598 8.92242 617.191 20.971C619.351 31.0036 619.591 28.2674 610.662 29.8995C608.406 30.3315 606.054 30.4755 603.798 30.9076C602.166 31.1956 601.542 30.7636 601.398 29.0355C601.206 26.9714 600.966 24.9073 600.198 22.9391C598.47 18.7629 596.165 17.1789 591.797 17.2749C587.717 17.3709 584.933 19.387 583.589 23.3712C581.717 28.8435 583.397 33.7877 586.229 38.396C589.589 43.8682 594.197 48.3325 598.854 52.7007C605.334 58.749 611.766 64.8933 615.75 72.9577C621.031 83.6623 621.655 94.7029 615.414 105.263C609.894 114.624 601.158 118.032 590.453 117.504C579.989 116.928 572.5 112.08 567.844 102.863C565.492 98.2551 564.436 93.2628 564.244 88.0785C564.196 87.3585 564.1 86.6864 565.156 86.4944C569.956 85.7744 574.804 85.0544 579.605 84.2863C581.045 84.0463 580.661 85.0544 580.757 85.7744C581.141 89.1826 581.621 92.5908 583.301 95.6629C585.557 99.7431 589.781 101.615 594.437 100.559C599.286 99.4071 602.598 95.7109 602.79 91.1027C603.03 85.6304 600.966 81.0221 597.605 76.8459C593.189 71.3736 587.909 66.7654 583.109 61.7252C577.108 55.4848 571.108 49.1485 567.844 40.8441C562.228 26.4913 567.508 8.68241 583.397 2.6821C586.373 1.48204 589.493 0.906011 592.229 1.05002Z" fill="#2E3540"/>
<path d="M454.942 114.433C454.894 112.177 454.846 109.969 454.846 107.712C454.846 73.7267 454.846 39.7409 454.798 5.75515C454.798 3.45103 455.374 2.875 457.678 2.875C470.975 2.971 484.224 2.971 497.52 2.875C499.488 2.875 500.16 3.30702 500.064 5.37113C499.872 9.11532 499.92 12.9075 500.064 16.6517C500.16 18.6198 499.536 19.2438 497.52 19.2438C489.84 19.1478 482.159 19.2438 474.479 19.1478C472.511 19.0998 472.127 19.7239 472.127 21.596C472.223 29.8524 472.223 38.0608 472.127 46.3172C472.127 48.0933 472.559 48.6214 474.383 48.6214C479.519 48.4774 484.608 48.6694 489.744 48.5254C491.808 48.4774 492.336 49.1974 492.24 51.1655C492.096 54.8617 492.096 58.5099 492.24 62.2061C492.288 64.1262 491.808 64.8462 489.744 64.7982C484.56 64.6542 479.327 64.7982 474.143 64.7022C472.799 64.7022 472.127 64.8942 472.127 66.5263C472.223 77.0868 472.223 87.6474 472.223 98.2079C472.559 99.648 473.759 99.072 474.623 99.072C481.919 99.12 489.168 99.216 496.464 99.024C498.768 98.976 499.344 99.744 499.2 101.904C499.056 105.168 499.008 108.48 499.2 111.745C499.296 113.953 498.672 114.577 496.416 114.577C482.591 114.385 468.767 114.433 454.942 114.433Z" fill="#2E3540"/>
<path d="M832.29 114.432C832.29 111.936 832.242 109.488 832.242 106.991C832.242 73.1977 832.242 39.404 832.194 5.61021C832.194 3.40209 832.77 2.82607 834.93 2.92207C839.49 3.11408 844.05 3.01807 848.562 3.06608C848.562 34.8917 848.562 66.7174 848.562 98.495C848.706 98.495 848.898 98.495 849.042 98.495C849.042 66.7174 849.042 34.8917 849.042 3.11408C849.811 4.02613 849.426 5.08218 849.426 6.04223C849.474 36.1398 849.474 66.1893 849.378 96.2869C849.378 98.543 850.003 99.023 852.163 99.023C859.939 98.927 867.667 99.023 875.444 99.071C875.684 103.343 875.204 107.663 875.732 111.984C875.924 113.472 875.3 114.528 873.236 114.528C859.603 114.384 845.97 114.432 832.29 114.432Z" fill="#2E3540"/>
<path d="M362.633 58.9414C362.633 41.1324 362.681 23.2755 362.585 5.46659C362.585 3.54649 362.921 2.82645 365.033 2.92246C369.258 3.11447 373.53 3.11447 377.754 2.92246C379.818 2.82645 380.202 3.54649 380.154 5.46659C380.106 38.0123 380.154 70.558 380.154 103.104C380.154 106.464 380.058 109.824 380.202 113.184C380.25 114.912 379.626 115.344 377.994 115.296C373.77 115.2 369.498 115.104 365.273 115.344C362.921 115.44 362.585 114.528 362.585 112.464C362.633 94.6072 362.633 76.7983 362.633 58.9414Z" fill="#2E3540"/>
<path d="M454.942 114.432C468.767 114.432 482.591 114.384 496.416 114.48C498.672 114.48 499.296 113.856 499.2 111.648C499.008 108.384 499.056 105.072 499.2 101.808C499.296 99.6474 498.72 98.8794 496.464 98.9274C489.216 99.0714 481.919 99.0234 474.623 98.9754C473.807 98.9754 472.607 99.5514 472.223 98.1113C480.671 98.1113 489.168 98.1593 497.616 98.1113C499.44 98.1113 500.16 98.4954 500.064 100.463C499.92 104.784 499.968 109.104 500.064 113.376C500.112 114.816 499.632 115.296 498.144 115.296C484.32 115.248 470.543 115.296 456.718 115.248C456.094 115.296 455.038 115.776 454.942 114.432Z" fill="#2E3540"/>
<path d="M882.212 3.16211C882.212 39.02 882.212 74.8298 882.26 110.688C882.26 114.96 881.78 114.432 885.908 114.432C895.413 114.48 904.965 114.48 914.47 114.48C912.022 115.584 909.43 115.248 906.933 115.296C899.445 115.392 891.909 115.248 884.42 115.392C882.404 115.44 881.876 114.816 881.876 112.848C881.924 96.719 881.924 80.5901 881.924 64.4133C881.924 44.7803 881.924 25.0992 881.972 5.46623C881.876 4.69819 881.54 3.83414 882.212 3.16211Z" fill="#2E3540"/>
<path d="M180.416 3.16211C180.416 39.212 180.416 75.2139 180.464 111.264C180.464 114.432 180.464 114.432 183.728 114.432C193.377 114.432 203.073 114.48 212.722 114.48C210.609 115.44 208.305 115.2 206.145 115.248C198.129 115.344 190.16 115.248 182.144 115.344C180.416 115.344 179.984 114.768 179.984 113.136C180.032 77.0859 180.032 40.9881 180.032 4.9382C180.032 4.31417 179.744 3.64213 180.416 3.16211Z" fill="#2E3540"/>
<path d="M832.29 114.432C845.922 114.432 859.603 114.384 873.236 114.528C875.3 114.528 875.924 113.472 875.732 111.984C875.204 107.664 875.684 103.391 875.444 99.0712C876.452 98.9752 876.356 99.6952 876.356 100.319C876.356 104.783 876.356 109.248 876.404 113.712C876.404 115.008 875.876 115.344 874.676 115.344C861.043 115.296 847.41 115.344 833.778 115.296C833.202 115.296 832.242 115.632 832.29 114.432Z" fill="#2E3540"/>
<path d="M849.042 3.16226C849.042 34.9399 849.042 66.7656 849.042 98.5432C848.898 98.5432 848.706 98.5432 848.562 98.5432C848.562 66.7176 848.562 34.8919 848.562 3.11426C848.754 3.11426 848.898 3.11426 849.042 3.16226Z" fill="#2E3540"/>
<path d="M429.117 72.1895C429.741 74.2056 430.173 76.2697 429.981 79.0058C428.781 77.2297 428.973 75.6456 428.541 74.3016C429.549 73.8215 428.829 72.8615 429.117 72.1895Z" fill="#2E3540"/>
</g>
<defs>
<clipPath id="clip0">
<rect width="933.696" height="117.078" fill="white" transform="translate(0.93457 0.570312)"/>
</clipPath>
</defs>
</svg>
