<svg width="1112" height="282" viewBox="0 0 1112 282" fill="none" xmlns="http://www.w3.org/2000/svg">
<g clip-path="url(#clip0)">
<path d="M961.993 58.1864C961.993 87.8706 961.993 116.635 961.993 145.86C958.839 145.86 955.355 145.86 951.871 145.86C945.101 145.86 938.266 145.794 931.496 145.926C929.327 145.991 928.604 145.4 928.669 143.233C928.801 137.519 928.669 131.871 928.669 126.158C928.669 86.9511 928.669 47.81 928.669 8.60322C928.669 7.42111 928.669 6.23899 928.669 4.59717C930.838 4.59717 932.745 4.59717 934.716 4.59717C943.261 4.59717 951.806 4.66284 960.35 4.53149C962.519 4.53149 963.702 5.18822 964.754 7.02707C980.594 34.7411 996.501 62.3894 1012.41 90.0378C1013.13 91.3512 1013.92 92.599 1014.64 93.9125C1014.97 93.8468 1015.23 93.7811 1015.56 93.7155C1015.04 64.1626 1014.58 34.6097 1014.05 4.85986C1025.22 4.85986 1036.13 4.85986 1047.24 4.85986C1047.24 51.8161 1047.24 98.7723 1047.24 145.926C1036.4 145.926 1025.75 145.991 1015.17 145.794C1013.98 145.794 1012.41 144.546 1011.75 143.43C1002.15 127.537 992.557 111.579 983.224 95.5543C976.651 84.2585 970.407 72.7001 963.965 61.273C963.505 60.4192 962.914 59.6312 961.993 58.1864Z" fill="#2E3540"/>
<path d="M376.949 145.926C368.536 145.926 359.991 145.926 351.446 145.926C344.019 145.926 344.019 145.926 344.019 138.636C344.019 95.62 344.019 52.6041 344.019 9.58829C344.019 4.66281 344.019 4.66281 348.949 4.66281C357.625 4.66281 366.235 4.79415 374.911 4.59713C377.606 4.53146 378.986 5.58223 380.235 7.81511C396.207 35.7918 412.245 63.7685 428.282 91.7453C428.677 92.402 429.071 93.0587 429.465 93.6498C429.86 93.5841 430.188 93.5841 430.583 93.5184C430.123 64.0312 429.597 34.6097 429.071 4.85983C440.179 4.85983 451.024 4.85983 462.198 4.85983C462.198 51.6847 462.198 98.5753 462.198 145.926C460.62 145.926 459.109 145.926 457.597 145.926C448.855 145.926 440.048 145.86 431.306 145.991C429.005 146.057 427.756 145.334 426.573 143.43C417.569 128.194 408.432 113.023 399.493 97.7872C392.461 85.7033 385.756 73.4225 378.855 61.273C378.329 60.4192 377.803 59.5655 376.817 57.9893C376.949 87.7392 376.949 116.635 376.949 145.926Z" fill="#2E3540"/>
<path d="M539.034 145.925C539.034 98.7722 539.034 51.8816 539.034 4.66271C540.611 4.66271 541.992 4.66271 543.438 4.66271C558.884 4.66271 574.33 4.40002 589.776 4.72839C603.842 5.05675 617.776 6.30454 630.856 12.1494C648.734 20.1615 658.79 34.4783 663.063 53.0637C667.269 71.2552 666.546 89.3809 659.908 106.916C651.232 129.901 633.879 142.051 609.954 144.809C599.109 146.057 588.133 145.728 577.156 145.86C564.602 145.991 551.982 145.925 539.034 145.925ZM574.198 75.8523C574.198 88.7899 574.198 101.662 574.198 114.599C574.198 116.241 573.935 118.146 576.499 118.014C585.569 117.489 594.706 117.62 603.645 116.11C617.447 113.746 625.795 104.88 628.753 91.2854C630.922 81.3688 631.053 71.2552 629.147 61.2729C625.992 45.0516 614.621 35.3977 597.992 34.6096C591.353 34.2812 584.649 34.4783 577.945 34.2156C574.856 34.0842 574.067 35.2007 574.067 38.156C574.33 50.6995 574.198 63.2431 574.198 75.8523Z" fill="#2E3540"/>
<path d="M208.159 0.262695C231.558 0.722407 250.488 7.61807 264.488 25.1528C273.361 36.3172 278.094 49.2548 280.197 63.1775C283.155 82.6823 279.934 101.071 269.352 117.949C257.652 136.666 240.76 147.239 218.741 149.537C205.662 150.851 192.976 149.538 180.816 144.218C162.938 136.469 150.976 122.94 144.798 104.748C136.056 79.0047 137.567 53.8519 152.225 30.4066C162.413 14.1197 177.399 4.59712 196.328 1.44481C200.732 0.722407 205.267 0.525387 208.159 0.262695ZM246.084 79.8584C246.61 69.6134 245.033 60.2878 241.943 52.0787C236.488 37.8277 224.723 29.4872 209.802 29.3558C195.934 29.2245 184.103 37.368 178.582 51.2906C172.206 67.5119 172.403 83.9301 179.239 99.823C189.69 124.122 221.634 127.734 237.474 106.587C243.915 98.1155 245.821 88.1989 246.084 79.8584Z" fill="#2E3540"/>
<path d="M866.162 73.094C860.509 70.6641 855.711 71.9119 850.782 73.8165C848.481 74.6702 846.115 74.0791 844.538 71.5836C842.697 68.7596 840.857 65.87 838.688 63.3088C835.336 59.3027 830.932 57.9236 826.002 59.6311C821.27 61.3386 818.509 65.0819 818.115 70.0074C817.852 73.2911 818.641 76.7061 819.232 79.9897C819.692 82.6823 820.81 85.2436 821.204 87.9361C821.861 92.4019 819.758 95.3572 815.683 96.2766C810.49 97.4587 805.101 95.6199 804.509 91.4825C803.852 86.8197 804.443 81.9599 804.641 77.2314C804.772 74.7359 805.627 72.1746 805.298 69.8104C803.983 59.237 791.232 53.5892 781.242 59.1714C778.941 60.4848 776.575 62.258 775.063 64.4252C772.434 68.2999 769.476 68.3656 765.401 66.7894C762.575 65.673 759.88 64.1625 757.054 63.0461C746.077 58.7773 734.838 64.3595 731.88 75.7866C730.828 79.7927 730.697 83.9958 729.908 88.0675C729.514 90.1034 728.331 92.0079 727.542 93.9124C727.147 93.8467 726.819 93.8467 726.424 93.7811C725.899 90.7601 725.176 87.7391 724.913 84.7182C723.138 64.0312 726.622 44.592 738.978 27.3856C750.152 11.7554 765.533 3.15227 784.528 0.722363C799.448 -1.18216 813.777 0.853709 827.382 7.28967C845.26 15.8272 856.106 30.3409 862.021 48.8607C864.453 56.4788 866.096 64.2282 866.162 73.094Z" fill="#2E3540"/>
<path d="M792.284 150.26C770.791 149.866 750.744 140.934 737.138 119.984C734.246 115.519 732.208 110.528 729.974 105.668C729.579 104.814 729.974 102.844 730.631 102.45C736.612 98.7721 738.781 92.9929 739.964 86.5569C740.424 83.9957 740.753 81.3687 741.279 78.8075C742.593 72.0432 747.392 69.1536 753.899 71.4521C757.382 72.6999 760.669 74.4731 764.021 76.0492C770.922 79.3329 774.866 78.7418 780.387 73.488C782.227 71.7148 783.805 69.6789 785.908 68.3655C787.617 67.3147 790.18 66.3953 791.824 66.9207C793.204 67.3804 794.65 70.0073 794.781 71.7805C795.044 75.3268 794.387 78.9388 794.124 82.4852C793.927 84.9808 793.598 87.4763 793.533 89.9719C793.335 96.2108 796.359 100.808 801.289 104.289C807.401 108.623 819.561 108.689 825.608 104.289C830.669 100.545 832.115 95.0944 831.655 89.1182C831.392 85.9658 830.34 82.9449 829.814 79.8583C829.42 77.6254 828.96 75.3268 828.829 73.0939C828.763 72.3059 829.617 71.5178 830.012 70.7297C830.8 71.1894 831.852 71.5178 832.312 72.1745C833.167 73.4223 833.495 74.9985 834.218 76.3119C835.336 78.4135 836.453 80.5807 837.965 82.4195C841.777 87.0166 846.378 88.2644 851.307 84.9808C856.106 81.7628 860.247 83.6016 864.585 85.2435C865.176 85.4405 865.636 87.0823 865.505 87.936C863.401 102.647 857.683 115.847 847.955 127.143C834.021 143.233 816.143 150.128 792.284 150.26Z" fill="#2E3540"/>
<path d="M0.0645142 4.66284C11.6984 4.66284 22.9378 4.66284 34.5717 4.66284C34.6374 6.17332 34.7689 7.55246 34.7689 8.93159C34.7689 43.2786 34.7689 77.6256 34.7689 112.038C34.7689 116.373 34.7689 116.373 39.1069 116.373C54.8816 116.373 70.6564 116.438 86.4311 116.307C89.586 116.307 90.5719 117.226 90.4405 120.379C90.2433 127.8 90.3747 135.287 90.3747 142.708C90.3747 143.758 90.2433 144.809 90.1776 145.86C60.0084 145.86 30.1679 145.86 0.0645142 145.86C0.0645142 98.7066 0.0645142 51.8161 0.0645142 4.66284Z" fill="#2E3540"/>
<path d="M584.518 244.041C584.452 244.763 584.321 245.486 584.321 246.143C584.452 256.65 584.518 267.158 584.781 277.666C584.846 279.899 583.926 280.555 581.889 280.49C578.931 280.424 575.973 280.424 573.015 280.49C571.306 280.49 570.386 279.899 570.386 277.994C570.452 259.08 570.386 240.101 570.452 221.187C570.452 220.859 570.649 220.596 570.846 219.939C575.25 219.939 579.72 219.808 584.189 220.07C585.044 220.136 586.029 221.384 586.555 222.369C592.668 232.811 598.715 243.319 604.762 253.826C605.485 255.008 606.142 256.256 607.457 257.307C607.457 244.96 607.457 232.68 607.457 220.136C612.058 220.136 616.593 220.136 621.457 220.136C621.457 221.45 621.457 222.632 621.457 223.814C621.457 241.545 621.391 259.277 621.523 277.009C621.523 279.833 620.537 280.227 617.973 280.621C609.626 281.869 604.499 279.045 600.884 271.098C596.94 262.495 591.551 254.549 586.752 246.34C586.292 245.486 585.701 244.698 585.175 243.91C585.044 243.975 584.781 244.041 584.518 244.041Z" fill="#2E3540"/>
<path d="M731.288 220.005C736.349 220.005 741.016 219.939 745.683 220.005C753.11 220.136 760.669 219.742 767.964 220.793C784.068 223.157 786.565 242.596 779.73 250.28C777.429 252.907 774.143 254.614 770.988 257.044C775.195 264.4 779.598 272.018 784.331 280.292C778.612 280.292 773.617 280.358 768.556 280.227C768.03 280.227 767.373 279.11 766.979 278.388C763.955 273.068 760.866 267.749 758.105 262.298C756.791 259.737 755.279 258.423 752.255 258.752C750.481 258.949 748.575 258.817 746.471 258.817C746.471 266.107 746.471 272.937 746.471 280.424C741.739 280.424 737.335 280.489 732.931 280.358C732.406 280.358 731.551 279.11 731.485 278.388C731.223 276.812 731.354 275.104 731.354 273.462C731.354 257.044 731.354 240.626 731.354 224.208C731.288 222.894 731.288 221.646 731.288 220.005ZM746.537 248.178C752.058 247.916 757.382 247.981 762.64 247.325C766.453 246.799 768.227 243.581 768.227 239.247C768.227 234.847 766.716 231.957 763.101 231.629C757.645 231.169 752.124 231.497 746.537 231.497C746.537 236.883 746.537 242.202 746.537 248.178Z" fill="#2E3540"/>
<path d="M465.682 256.519C470.217 264.4 474.62 272.083 479.287 280.358C473.635 280.358 468.771 280.424 463.907 280.293C463.25 280.293 462.395 279.242 462.001 278.454C458.78 272.872 455.559 267.289 452.602 261.576C451.55 259.474 450.301 258.818 448.001 258.818C439.785 258.818 441.099 258.161 441.034 265.779C440.968 269.719 440.968 273.66 441.034 277.6C441.099 279.702 440.245 280.555 438.141 280.49C434.987 280.424 431.766 280.424 428.611 280.49C426.836 280.555 426.048 279.899 426.048 277.994C426.113 259.409 426.113 240.757 426.113 222.172C426.113 221.515 426.31 220.924 426.442 219.873C429.137 219.873 431.7 219.808 434.329 219.873C443.86 220.07 453.456 219.479 462.855 220.727C475.738 222.435 482.442 237.737 475.606 248.704C474.16 251.068 471.4 252.71 469.165 254.483C468.311 255.403 467.128 255.797 465.682 256.519ZM441.099 231.104C441.099 236.292 441.033 241.283 441.165 246.274C441.165 246.865 442.414 247.85 443.071 247.85C447.541 247.916 452.01 247.981 456.48 247.522C460.818 247.128 463.184 243.91 463.184 239.247C463.184 234.584 461.081 231.432 456.874 231.169C451.813 230.841 446.686 231.104 441.099 231.104Z" fill="#2E3540"/>
<path d="M862.613 229.856C861.364 230.775 860.378 231.432 859.458 232.22C855.185 235.963 851.308 238.656 845.918 233.074C843.026 230.118 838.096 229.659 833.758 230.447C831.721 230.841 829.486 231.826 828.04 233.271C824.819 236.489 826.922 241.086 831.918 242.071C837.702 243.187 843.552 244.041 849.401 245.157C856.303 246.471 861.693 250.017 863.139 257.044C864.716 264.4 862.284 270.967 856.566 275.958C846.838 284.43 819.167 285.152 808.716 269.653C812.068 267.552 815.42 265.319 818.838 263.349C819.298 263.086 820.613 263.743 821.27 264.268C826.791 269.194 833.364 270.639 840.528 269.982C841.58 269.916 842.697 269.456 843.683 269.062C846.509 267.815 848.941 266.107 848.678 262.561C848.415 259.014 845.655 257.964 842.763 257.373C837.176 256.322 831.523 255.731 826.002 254.417C816.012 252.184 810.622 245.092 811.739 236.226C812.791 227.82 817.721 222.303 825.542 220.005C839.411 216.13 851.768 219.282 862.613 229.856Z" fill="#2E3540"/>
<path d="M654.518 220.136C669.57 220.136 684.161 220.136 699.081 220.136C699.081 223.945 699.081 227.557 699.081 231.629C693.955 231.629 689.091 231.629 684.161 231.629C680.086 231.629 676.077 231.629 672.002 231.563C670.227 231.563 669.372 232.154 669.438 234.059C669.833 244.895 667.664 242.728 677.786 242.925C683.372 242.99 688.959 243.056 694.546 242.925C696.715 242.859 697.307 243.713 697.373 245.814C697.57 254.023 697.57 254.023 689.354 254.023C684.095 254.023 678.837 254.22 673.579 253.958C670.161 253.761 669.044 255.008 669.438 258.292C669.701 260.328 669.504 262.429 669.504 264.531C669.504 269.062 669.504 269.062 673.908 269.062C681.926 269.062 689.88 269.194 697.898 268.997C701.053 268.931 702.105 269.982 701.974 273.134C701.645 281.803 703.222 280.555 694.481 280.555C682.452 280.621 670.358 280.49 658.33 280.621C655.372 280.621 654.386 279.767 654.452 276.68C654.584 258.817 654.518 241.02 654.518 223.157C654.518 222.303 654.518 221.384 654.518 220.136Z" fill="#2E3540"/>
<path d="M401.728 280.358C396.996 280.358 392.395 280.489 387.86 280.227C387.137 280.161 386.151 278.782 385.756 277.862C383.39 270.967 383.39 270.967 375.963 270.967C371.822 270.967 367.615 271.032 363.475 270.901C361.371 270.835 360.385 271.492 359.728 273.594C357.625 280.489 357.493 280.489 350.263 280.489C347.7 280.489 345.071 280.489 341.916 280.489C343.625 275.695 345.071 271.492 346.648 267.355C352.169 252.513 357.756 237.736 363.146 222.828C363.935 220.596 364.986 219.742 367.352 219.939C370.836 220.136 374.385 219.873 377.869 220.07C378.789 220.136 380.169 220.924 380.432 221.712C387.465 240.494 394.432 259.343 401.4 278.191C401.728 278.782 401.597 279.439 401.728 280.358ZM380.104 259.934C377.409 251.462 374.977 243.581 372.479 235.7C372.151 235.766 371.822 235.766 371.493 235.832C369.193 243.778 366.827 251.659 364.395 259.934C369.916 259.934 374.648 259.934 380.104 259.934Z" fill="#2E3540"/>
<path d="M276.319 220.333C288.413 220.333 299.981 219.414 311.286 220.596C325.089 222.041 331.596 234.124 326.995 247.39C323.84 256.322 316.742 259.671 308 260.394C303.531 260.788 299.061 260.656 294.526 260.591C292.028 260.525 290.977 261.379 291.108 263.94C291.305 268.274 291.042 272.675 291.174 277.075C291.239 279.57 290.451 280.687 287.822 280.555C285.127 280.424 282.366 280.424 279.606 280.555C277.042 280.687 276.188 279.702 276.188 277.14C276.319 264.465 276.253 251.79 276.253 239.116C276.319 232.877 276.319 226.638 276.319 220.333ZM291.371 240.101C291.371 242.531 291.239 244.895 291.437 247.325C291.502 248.113 292.423 249.492 293.014 249.492C297.286 249.623 301.559 249.755 305.765 249.229C311.024 248.573 313.324 245.223 313.193 239.772C313.061 234.584 310.498 231.76 305.174 231.169C302.019 230.841 298.864 230.972 295.643 230.972C291.305 230.972 291.305 230.972 291.305 235.11C291.371 236.817 291.371 238.459 291.371 240.101Z" fill="#2E3540"/>
<path d="M213.352 247.128C215.981 250.937 218.544 254.746 221.108 258.555C221.436 258.489 221.765 258.489 222.159 258.423C223.145 255.862 224.065 253.235 225.117 250.477C225.972 250.674 226.76 250.871 227.549 251.134C236.422 254.483 236.225 252.25 232.084 262.167C231.558 263.349 230.835 264.465 230.178 265.582C228.535 268.537 229.258 270.244 232.61 270.967C234.253 271.295 236.948 271.098 237.408 272.018C238.263 273.725 238 276.089 237.803 278.125C237.737 278.979 236.488 280.292 235.831 280.358C230.967 280.424 225.972 281.278 221.699 277.731C220.976 277.14 219.004 277.534 217.953 278.06C211.84 281.081 205.399 281.934 198.76 280.621C190.807 279.045 184.957 273.2 183.906 266.304C182.591 257.701 186.009 250.477 193.37 246.011C197.971 243.253 197.971 243.253 195.802 238.262C191.99 229.461 197.38 220.464 206.976 220.005C210.263 219.873 213.943 219.939 216.901 221.121C225.906 224.799 227.352 236.291 219.925 242.596C218.084 244.107 215.981 245.289 213.352 247.128ZM205.727 271.624C207.962 270.836 210.263 270.244 212.366 269.259C212.957 268.997 213.483 267.158 213.155 266.567C210.525 262.167 207.699 257.898 204.807 253.695C204.413 253.104 203.098 252.578 202.507 252.775C198.629 254.155 195.737 259.474 196.525 263.414C197.446 268.34 200.863 271.23 205.727 271.624ZM204.676 232.942C206.056 234.847 207.042 237.211 208.882 238.459C210.197 239.378 214.075 234.912 214.075 232.679C214.075 229.987 212.432 228.739 210 228.542C207.371 228.279 205.399 230.053 204.676 232.942Z" fill="#2E3540"/>
<path d="M515.043 231.694C509.785 231.694 504.855 231.694 499.663 231.694C499.663 227.754 499.663 224.011 499.663 220.07C515.043 220.07 530.292 220.07 545.87 220.07C545.87 223.814 545.87 227.426 545.87 231.629C541.86 231.629 537.785 231.76 533.644 231.563C530.818 231.432 530.095 232.483 530.161 235.109C530.292 248.901 530.161 262.692 530.292 276.483C530.358 279.636 529.372 280.818 526.151 280.49C523.654 280.227 521.09 280.293 518.593 280.49C515.898 280.687 515.043 279.833 515.109 277.009C515.24 263.02 515.175 249.032 515.175 234.978C515.175 234.059 515.109 233.139 515.043 231.694Z" fill="#2E3540"/>
<path d="M1095.49 34.7411C1086.81 34.6754 1079.71 27.714 1079.84 19.4392C1079.98 10.8361 1087.07 3.87473 1095.68 3.9404C1104.03 4.00608 1111.13 11.1644 1111.06 19.5049C1111 27.9111 1104.03 34.7411 1095.49 34.7411ZM1095.68 5.71357C1087.67 5.71357 1081.68 11.5585 1081.62 19.4392C1081.62 26.926 1087.8 33.0992 1095.49 33.1649C1103.05 33.2306 1109.29 27.0573 1109.36 19.5049C1109.42 11.8868 1103.31 5.71357 1095.68 5.71357Z" fill="#2E3540"/>
<path d="M1100.68 26.9915C1099.89 26.5318 1098.9 26.2034 1098.31 25.5467C1097.59 24.7586 1097.39 23.5108 1096.67 22.7884C1096.01 22.1317 1094.96 21.8033 1094.11 21.3436C1093.71 22.1317 1093.25 22.9198 1092.86 23.7079C1092.4 24.693 1092 25.7437 1091.54 26.7945C1091.15 25.678 1090.49 24.6273 1090.43 23.5108C1090.29 20.5556 1090.49 17.6003 1090.36 14.7107C1090.23 12.5434 1091.15 11.7554 1093.19 11.8867C1094.5 11.9524 1095.82 11.821 1097.13 11.9524C1100.88 12.2808 1103.11 16.1555 1100.68 18.9794C1098.71 21.2123 1099.36 22.6571 1100.55 24.5616C1100.88 25.087 1101.07 25.7437 1101.27 26.3348C1101.07 26.4005 1100.88 26.7288 1100.68 26.9915ZM1095.75 20.7526C1097.26 18.7167 1098.58 17.7316 1098.77 16.5495C1099.17 14.1853 1097.2 13.9226 1095.36 13.7912C1093.19 13.5942 1092.46 14.842 1092.92 16.5495C1093.25 17.6659 1094.37 18.7167 1095.75 20.7526Z" fill="#2E3540"/>
</g>
<defs>
<clipPath id="clip0">
<rect width="1111" height="282" fill="white" transform="translate(0.0645142)"/>
</clipPath>
</defs>
</svg>
