<svg width="682" height="449" viewBox="0 0 682 449" fill="none" xmlns="http://www.w3.org/2000/svg">
<g clip-path="url(#clip0)">
<path d="M339.35 241.8C277.35 241.8 215.35 241.8 153.35 241.8C137.85 241.8 125.75 234 121.05 220.6C120.25 218.3 119.85 215.7 119.85 213.3C119.75 152.1 119.75 90.8001 119.85 29.6001C119.85 17.3001 126.95 9.4001 137.25 4.1001C142.55 1.4001 148.35 0.100098 154.55 0.100098C277.25 0.200098 400.05 0.200098 522.75 0.100098C535.15 0.100098 545.45 4.3001 553.25 14.0001C556.85 18.5001 558.45 23.8001 558.45 29.7001C558.45 89.4001 558.45 149.2 558.35 208.9C558.35 213.6 558.05 218.6 556.35 222.8C551.05 235.6 540.45 241.7 527.15 241.8C488.55 242.2 449.95 242 411.25 242C387.35 241.9 363.35 241.9 339.35 241.8ZM339.15 233.3C396.35 233.3 453.65 233.3 510.85 233.3C516.35 233.3 521.85 233.2 527.35 233.3C537.35 233.5 548.15 223.7 548.05 212.1C547.55 156.1 547.85 100.1 547.75 44.1001C547.75 38.4001 548.35 32.7001 547.65 27.1001C546.45 16.7001 538.75 10.2001 528.25 10.0001C488.45 9.7001 448.65 9.1001 408.75 9.0001C324.75 8.8001 240.75 8.9001 156.85 9.1001C151.25 9.1001 145.35 10.7001 140.25 13.0001C132.05 16.7001 130.45 24.1001 130.55 32.7001C130.75 93.3001 130.55 153.9 130.65 214.5C130.65 217 131.55 219.7 132.75 221.9C136.95 229.6 143.95 233.2 152.55 233.2C214.65 233.3 276.95 233.3 339.15 233.3Z" fill="#2E3540"/>
<path d="M0.749974 313.6C-0.350026 303.9 3.34997 295.4 11.75 289.2C24.25 280 46.05 284.7 52.85 297.9C55.55 303.1 54.65 304.5 48.85 304.6C45.05 304.7 42.35 303.9 40.25 300.2C35.95 292.6 19.35 292.2 15.25 302.5C12.45 309.7 11.55 316.8 14.85 323.9C19.05 332.9 25.95 334.2 34.55 331.5C37.05 330.7 39.05 327.8 40.85 325.5C43.05 322.6 49.75 320.5 52.75 322.4C53.55 322.9 53.95 324.8 53.75 325.8C52.25 333.4 46.75 337.4 40.15 340.1C31.15 343.8 21.95 342.8 13.25 338.8C5.94997 335.4 -0.150026 326.4 0.749974 313.6Z" fill="#2E3540"/>
<path d="M431.75 404.7C431.75 411.4 431.85 418.2 431.65 424.9C431.55 427 431.05 430.6 430.15 430.8C427.35 431.4 424.05 431.3 421.25 430.3C419.15 429.5 417.75 429.1 415.75 430.2C403.35 437.2 389.55 429.4 387.55 414.1C386.55 406.7 389.05 400.4 394.35 395.1C400.15 389.3 408.75 388.5 415.55 393C416.65 393.7 418.15 394 419.45 394.4C419.75 393 420.25 391.6 420.25 390.2C420.35 387.2 420.15 384.2 420.25 381.2C420.35 377.7 421.65 377 426.65 377C429.65 377 431.75 377.6 431.75 381.3C431.75 389.2 431.85 397 431.75 404.7C431.85 404.7 431.85 404.7 431.75 404.7ZM410.75 399.9C403.45 399.9 400.25 403.7 400.25 412.3C400.25 419.6 404.15 424.2 410.35 424.1C416.25 424 421.15 418.3 421.05 411.5C421.05 404.2 417.25 399.9 410.75 399.9Z" fill="#2E3540"/>
<path d="M155.05 404.6C155.05 411.7 155.15 418.8 154.95 426C154.85 427.8 154.15 430.8 153.15 431C150.85 431.6 147.65 431.8 145.75 430.6C143.15 429 141.45 429 139.05 430.6C131.95 435.2 119.85 432.2 115.55 425.1C108.75 414 109.85 402.1 119.85 393.9C125.15 389.6 132.55 388.5 139.75 393.2C140.85 393.9 142.25 394.3 143.55 394.8C143.85 393.4 144.35 392 144.35 390.6C144.45 387.9 144.35 385.1 144.35 382.4C144.35 378.2 145.15 377.4 149.75 377.3C153.85 377.2 154.95 378.2 154.95 382.2C155.05 389.6 155.05 397.1 155.05 404.6ZM144.45 411.6C144.45 405.9 141.65 401.6 136.85 400.1C132.75 398.8 128.25 400.4 125.65 404C122.65 408.2 122.85 416.3 126.05 420.4C128.45 423.5 133.45 424.8 137.15 423.3C142.45 421.2 144.45 417.9 144.45 411.6Z" fill="#2E3540"/>
<path d="M285.55 313.8C285.55 320.9 285.65 328 285.45 335.1C285.45 336.9 284.75 339.9 283.85 340.1C281.55 340.8 278.25 341 276.45 339.8C273.75 337.9 271.95 338.2 269.35 339.5C259.65 344.5 248.15 339.8 243.95 329.7C240.05 320.4 241.55 312.2 247.95 304.8C253.45 298.5 263.95 297.7 270.65 302.7C271.55 303.4 272.85 303.4 273.95 303.8C274.25 302.7 274.85 301.6 274.85 300.4C274.95 297 274.85 293.7 274.85 290.3C274.95 285.4 278.65 286.8 281.45 286.5C284.25 286.3 285.55 287.6 285.55 290.5C285.55 298.3 285.55 306.1 285.55 313.8ZM254.85 320.7C254.85 321.9 254.75 323.2 254.85 324.4C255.55 330.3 261.95 334.5 267.45 332.6C274.55 330.1 277.85 319.1 273.25 313.1C270.45 309.4 265.65 307.9 261.15 309.4C256.65 311.1 254.65 314.4 254.85 320.7Z" fill="#2E3540"/>
<path d="M322.35 323.6C318.45 323.6 314.65 323.4 310.75 323.6C307.45 323.8 306.65 325.3 307.95 328.3C310.45 334 318.35 335.8 322.65 331.3C326.25 327.6 330.45 328.4 334.55 328.7C336.95 328.9 337.35 331 335.85 332.6C333.45 335 330.85 337.7 327.85 339C319.85 342.4 311.65 342.7 303.65 338.6C295.65 334.4 293.95 326.9 294.05 318.9C294.15 309.9 298.95 303.7 307.25 300.9C315.65 298 323.95 298.6 331.15 304.8C335.85 308.9 337.35 314.3 337.95 320.1C338.25 322.6 336.45 323.4 334.35 323.4C330.35 323.5 326.35 323.4 322.35 323.4C322.35 323.5 322.35 323.6 322.35 323.6ZM315.65 316.2C315.65 316.3 315.65 316.3 315.65 316.4C317.55 316.4 319.35 316.5 321.25 316.4C324.25 316.1 325.15 314.2 323.35 311.8C319.75 307.1 311.85 307.2 308.45 311.9C306.95 314 307.55 315.8 310.15 316.2C311.85 316.4 313.75 316.2 315.65 316.2Z" fill="#2E3540"/>
<path d="M416.25 323.6C416.65 328.5 417.25 333.5 417.45 338.4C417.45 339.2 416.15 340.9 415.65 340.8C411.95 340.4 407.95 342.1 404.65 338.7C403.95 338 401.35 338.4 399.95 339C394.45 341.5 388.95 342.3 383.25 340.2C379.25 338.7 376.45 336.1 376.15 331.5C375.85 326.6 376.95 322 381.95 320C385.95 318.4 390.25 317.6 394.45 316.5C396.95 315.8 399.65 315.7 402.05 314.7C404.95 313.4 404.75 310.9 402.05 309.4C398.05 307.1 393.25 307.8 390.15 311.2C388.15 313.4 382.75 314.7 380.15 313.2C379.35 312.8 378.65 310.9 378.85 309.9C379.85 305.3 383.15 302.4 387.25 301.1C394.65 298.8 402.25 298.4 409.55 301.8C414.15 303.9 416.45 307.8 416.65 312.8C416.85 316.4 416.65 320 416.65 323.7C416.55 323.6 416.45 323.6 416.25 323.6ZM395.35 334.1C400.55 333.8 404.35 330.8 404.75 325.9C404.95 323.7 404.25 321.9 401.75 322.3C398.45 322.8 395.15 323.6 392.05 324.7C389.75 325.5 387.95 327.3 388.65 330.2C389.35 333.2 391.45 334.3 395.35 334.1Z" fill="#2E3540"/>
<path d="M226.45 413C227.05 418.3 227.65 423.6 228.15 428.9C228.25 429.7 227.45 431.3 227.25 431.3C223.85 431 220.15 431.4 217.35 429.9C214.95 428.6 213.65 428.4 211.45 429.8C205.65 433.5 199.45 433.9 193.25 431.1C188.75 429 186.95 425 187.15 420C187.35 415.3 189.65 412 193.75 410.4C197.25 409 201.25 408.7 204.95 407.9C207.35 407.4 209.85 407.1 212.15 406.2C213.25 405.8 214.65 404.1 214.65 403.1C214.65 402 213.25 400.6 212.05 399.9C208.25 397.7 204.05 398.3 201.35 401.9C198.65 405.5 195.15 404.8 191.85 404.5C189.35 404.3 188.45 401.9 189.75 400C191.65 397.2 193.85 394 196.75 392.6C204.55 389 212.85 389.1 220.75 392.6C224.75 394.4 227.05 397.8 227.05 402.4C227.05 405.9 227.05 409.4 227.05 412.9C226.85 413 226.65 413 226.45 413ZM203.65 425.3C210.45 425.4 215.05 421.6 215.05 416.9C215.05 415.7 213.35 413.5 212.75 413.6C209.15 414.3 205.45 415.1 202.15 416.7C200.95 417.3 199.95 420.4 200.35 422C200.75 423.5 202.95 424.6 203.65 425.3Z" fill="#2E3540"/>
<path d="M221.25 323.5C217.65 323.5 214.05 323.4 210.35 323.5C206.25 323.7 205.45 325.2 207.35 328.7C210.35 334.1 217.15 335.7 222.05 331.6C225.35 328.7 228.85 328.4 232.85 328.7C236.05 328.9 236.85 330.5 234.95 333.1C230.85 338.8 224.85 341.2 218.15 341.5C211.85 341.8 205.85 341.2 200.45 336.9C195.05 332.6 193.95 326.7 193.65 320.5C193.25 309.3 199.35 303 208.85 300.2C219.15 297.1 229.85 301.3 234.55 309.8C235.05 310.8 235.55 311.8 235.85 312.9C238.15 321.3 236.65 323.5 228.05 323.5C225.75 323.5 223.45 323.5 221.25 323.5ZM215.15 316.2C217.25 316.2 219.35 316.4 221.45 316.2C223.65 316 225.05 314.4 223.35 312.8C221.25 310.8 218.25 308.6 215.65 308.5C213.05 308.4 209.95 310.4 207.75 312.2C205.75 313.9 206.85 315.9 209.55 316.2C211.45 316.4 213.35 316.2 215.15 316.2Z" fill="#2E3540"/>
<path d="M499.95 341.7C494.25 341.5 488.75 340.7 484.15 336.9C475.55 329.7 474.35 317.3 480.85 308.1C489.25 296.1 513.75 296 521.95 311.7C527.65 322.7 520.75 337.8 508.55 340.6C505.65 341.2 502.75 341.3 499.95 341.7ZM489.25 320.5C489.25 328.2 493.55 333.4 500.05 333.5C506.15 333.5 511.15 327.8 511.15 320.9C511.15 313.4 507.15 309 500.25 309C492.45 308.9 489.25 312.2 489.25 320.5Z" fill="#2E3540"/>
<path d="M61.25 320.7C60.55 306 73.65 297 89.45 299.9C101.15 302.1 107.05 309.2 107.55 320.5C107.85 327 105.75 333.3 99.55 337.3C91.25 342.5 82.35 342.7 73.65 339.9C64.65 337 61.25 330.8 61.25 320.7ZM94.55 321C94.55 320.1 94.55 319.3 94.55 318.4C94.35 313.6 91.35 309.6 87.55 309.1C80.05 308.1 74.85 310.5 73.95 316.1C73.35 319.8 73.75 323.8 74.75 327.4C76.05 332 82.15 334.5 86.65 333.1C92.75 331.2 94.55 328.5 94.55 321Z" fill="#2E3540"/>
<path d="M605.15 320.6C603.65 312.2 614.05 300.3 623.65 299.7C632.55 299.2 640.45 300 647.05 307.3C654.85 316 653.35 332.8 641.85 338.4C633.05 342.6 623.95 342.9 615.25 338.4C608.35 334.9 604.85 328.7 605.15 320.6ZM628.85 309C621.15 309 617.05 312.9 616.95 320.2C616.85 327.5 622.05 333.6 628.25 333.5C635.15 333.4 639.75 328.2 639.75 320.5C639.65 312.6 636.25 309 628.85 309Z" fill="#2E3540"/>
<path d="M543.65 304C547.45 302.5 550.85 300.4 554.45 299.8C560.75 298.7 567.05 299.6 570.35 306C571.95 309.2 572.35 313.1 572.45 316.8C572.75 323.2 572.35 329.5 572.45 335.9C572.45 339.6 570.85 341.2 567.25 340.9C566.35 340.8 565.45 340.9 564.65 340.9C561.55 341.1 560.35 339.7 560.35 336.7C560.45 329.8 560.35 323 560.35 316.1C560.35 311.1 558.45 309.1 553.45 309C547.15 308.9 544.15 311.1 544.15 316.1C544.05 322.7 543.95 329.3 544.15 336C544.25 339.7 542.65 341 539.25 340.9C538.35 340.9 537.45 340.9 536.65 340.9C532.15 340.7 531.45 340.1 531.45 335.6C531.45 325.7 531.45 315.9 531.45 306C531.45 303.7 530.85 301.1 534.15 300.2C538.25 299.1 541.25 300.1 542.95 303.2C543.15 303.6 543.55 303.9 543.65 304Z" fill="#2E3540"/>
<path d="M115.45 320.6C115.45 315.4 115.45 310.1 115.45 304.9C115.45 302.6 115.65 300.3 118.55 300.3C121.35 300.3 124.95 298.2 126.65 302.5C127.95 305.9 129.55 304 131.15 302.8C138.15 297.6 148.65 298.3 153.35 304.9C155.35 307.7 156.75 311.4 157.05 314.9C157.55 322 157.25 329.1 157.15 336.2C157.15 340.3 156.25 341 151.45 341C145.95 341 145.15 340.4 145.15 336.1C145.15 329.6 145.15 323.1 145.25 316.6C145.25 312.1 143.45 309.7 139.65 309.2C133.45 308.4 129.15 310.3 128.75 314.8C128.15 321.5 128.45 328.3 128.15 335C128.05 336.9 127.25 340.2 126.25 340.4C123.25 341 119.95 340.5 116.75 340C116.15 339.9 115.55 337.7 115.55 336.4C115.25 331.1 115.35 325.8 115.45 320.6C115.35 320.6 115.35 320.6 115.45 320.6Z" fill="#2E3540"/>
<path d="M499.85 417.7C501.95 418.9 504.35 419.9 506.05 421.5C509.35 424.6 515.95 426.1 519.95 423.9C520.95 423.3 522.15 421.9 522.15 420.9C522.15 419.9 520.85 418.5 519.75 418C517.55 417.1 515.15 416.9 512.85 416.3C508.55 415 504.15 414 500.05 412.2C494.25 409.6 492.95 402.5 496.85 397.4C501.25 391.6 507.45 390 514.15 390.3C520.95 390.6 527.65 391.9 531.75 398.3C532.55 399.5 533.25 401.4 532.95 402.6C532.75 403.4 530.45 403.9 529.15 404C525.65 404.2 522.45 404.1 519.75 400.9C517.25 397.9 512.35 397.7 509.45 399.7C508.55 400.3 507.45 401.6 507.45 402.5C507.45 403.4 508.75 404.6 509.75 405C512.95 406.1 516.15 406.9 519.45 407.9C521.85 408.6 524.25 409.1 526.65 409.9C530.75 411.2 534.05 413.3 534.85 418.1C535.75 423.8 532.95 428.2 528.25 429.9C522.95 431.9 516.95 432.3 511.25 432.6C507.95 432.7 504.25 431.7 501.15 430.2C498.55 428.9 496.15 426.5 494.45 424.1C492.15 420.8 493.25 419.1 497.25 418.9C497.95 418.9 498.75 418.9 499.45 418.9C499.45 418.4 499.65 418.1 499.85 417.7Z" fill="#2E3540"/>
<path d="M624.85 418.9C625.85 416.4 626.75 414.5 627.35 412.6C629.15 407 630.95 401.4 632.45 395.8C633.25 392.6 635.05 391.7 638.15 391.7C646.35 391.7 646.35 391.7 643.25 399.4C640.85 405.5 638.95 411.9 636.25 417.9C632.45 426.8 628.35 435.6 623.95 444.2C622.35 447.4 612.45 449.2 609.65 447C608.55 446.2 608.05 443.9 608.25 442.4C608.45 441.2 609.95 439.6 611.15 439.3C617.15 437.9 618.45 435.5 616.25 429.8C611.95 418.9 607.65 408 603.35 397.1C601.65 392.8 602.65 391.5 607.45 391.6C614.15 391.7 614.25 391.9 616.25 398.2C618.15 404.3 620.45 410.2 622.65 416.1C623.05 416.9 623.75 417.5 624.85 418.9Z" fill="#2E3540"/>
<path d="M237.65 411.9C237.65 407.4 237.45 402.9 237.75 398.4C237.85 396.3 238.35 392.8 239.35 392.5C242.05 391.8 245.65 391.6 247.85 392.9C250.45 394.4 251.85 394.1 254.05 392.7C260.85 388.3 271.05 389.5 275.55 395.6C277.75 398.6 278.85 402.9 279.25 406.7C279.85 413.3 279.45 419.9 279.35 426.5C279.35 430.6 278.35 431.5 274.15 431.6C273.05 431.6 271.95 431.5 270.75 431.5C267.85 431.5 266.55 430.1 266.55 427C266.65 420.9 266.65 414.8 266.55 408.6C266.45 401.6 264.55 399.6 258.55 399.5C252.85 399.5 249.65 402.9 249.55 409C249.55 414.9 249.35 420.7 249.55 426.6C249.65 430 248.25 431.4 244.95 431.3C244.05 431.3 243.25 431.4 242.35 431.4C238.35 431.5 237.45 430.6 237.45 426.7C237.65 421.9 237.65 416.9 237.65 411.9Z" fill="#2E3540"/>
<path d="M484.75 411.6C484.75 416.1 484.75 420.6 484.75 425.1C484.75 431.3 480.25 434.2 475.05 430.7C472.15 428.7 470.15 429.4 467.65 430.7C459.95 434.4 451.95 433.8 447.15 427.9C444.75 425 443.65 420.5 443.25 416.6C442.65 409.9 443.15 403.1 443.05 396.4C443.05 393.3 444.25 391.7 447.45 391.8C448.85 391.8 450.15 391.9 451.55 391.8C454.55 391.8 455.85 393.2 455.75 396.2C455.65 402.6 455.65 408.9 455.65 415.3C455.65 421.1 457.85 424 462.45 424.2C468.05 424.4 472.55 420.8 472.65 415.5C472.85 409.4 472.65 403.3 472.65 397.1C472.65 392.4 473.25 391.8 478.95 391.8C484.25 391.7 484.75 392.2 484.75 397.1C484.75 401.9 484.75 406.8 484.75 411.6Z" fill="#2E3540"/>
<path d="M338.55 411.6C338.55 407 338.35 402.3 338.65 397.7C338.75 395.8 339.35 392.5 340.35 392.3C342.95 391.7 346.45 391.5 348.55 392.8C351.15 394.4 352.55 394.4 355.05 392.8C360.45 389.2 366.55 389.2 372.15 392.2C377.25 394.9 379.95 399.2 379.65 405.4C379.25 412.6 379.65 419.9 379.55 427.1C379.55 431.1 378.75 431.6 374.05 431.6C368.85 431.6 367.65 430.8 367.65 427C367.55 420.5 367.75 414 367.65 407.5C367.65 402.6 365.85 400.3 361.85 399.7C356.45 398.9 352.75 400.7 351.35 405.2C350.65 407.6 350.15 410.1 350.05 412.5C349.85 416.9 350.15 421.3 349.95 425.6C349.85 427.4 349.15 430.4 348.15 430.7C345.65 431.4 342.75 431.1 340.15 430.7C339.45 430.6 338.75 428.5 338.75 427.2C338.45 422.1 338.55 416.9 338.55 411.6Z" fill="#2E3540"/>
<path d="M61.25 411.8C61.25 407.3 61.05 402.8 61.35 398.3C61.45 396.2 61.95 392.8 63.05 392.5C65.55 391.7 69.05 391.5 71.25 392.8C73.95 394.3 75.25 394 77.75 392.6C83.55 389.3 89.75 389.2 95.55 392.6C99.55 395 101.85 398.4 101.75 403.4C101.55 411.3 101.65 419.1 101.75 427C101.75 430.4 100.45 431.8 97.15 431.7C91.65 431.6 90.45 431 90.45 427C90.35 420.8 90.45 414.5 90.45 408.3C90.45 405.1 90.25 401.7 86.85 400.3C83.25 398.9 79.25 398.9 76.25 401.7C74.75 403.1 73.75 405.7 73.65 407.9C73.35 414.3 73.45 420.6 73.55 427C73.65 430.2 72.25 431.6 69.15 431.6C67.75 431.6 66.45 431.6 65.05 431.6C62.35 431.6 61.35 430.2 61.35 427.6C61.25 422.3 61.25 417 61.25 411.8Z" fill="#2E3540"/>
<path d="M170.85 324.2C170.85 320.5 170.75 316.7 170.85 313C170.95 310.2 170.05 308.7 167.15 307.8C165.75 307.4 164.25 305.5 163.95 304.1C163.55 301.8 164.85 300.3 167.55 299.9C168.75 299.7 170.55 297.9 170.65 296.6C172.15 285.5 180.35 284.9 187.75 285.9C188.95 286.1 190.45 288.2 190.85 289.7C191.45 291.7 190.75 293.7 188.25 294.3C187.45 294.5 186.35 294.4 185.75 294.8C184.65 295.6 183.75 296.7 182.85 297.7C183.95 298.5 184.95 299.4 186.15 300.1C187.65 301 190.25 301.5 190.75 302.8C191.85 305.5 190.65 307.7 187.25 307.9C183.55 308.1 182.55 310.1 182.65 313.7C182.85 321.3 182.75 328.9 182.75 336.5C182.75 340.4 181.75 341.2 177.75 341.2C171.85 341.1 170.85 340.5 170.85 336.4C170.85 332.2 170.85 328.2 170.85 324.2Z" fill="#2E3540"/>
<path d="M662.45 324.2C662.45 320.3 662.35 316.5 662.45 312.6C662.55 310 661.55 308.6 658.95 307.7C657.65 307.3 656.35 305.2 656.25 303.7C656.15 302.5 657.75 300.5 658.95 300.2C661.55 299.5 662.25 298 662.65 295.7C663.95 288.3 671.05 283.6 678.45 285.6C679.55 285.9 681.15 287.6 681.05 288.6C680.95 290.5 679.95 292.4 679.25 294.2C679.15 294.5 678.25 294.4 677.85 294.7C676.65 295.6 675.45 296.5 674.35 297.4C675.55 298.2 676.65 299.5 677.95 299.8C681.15 300.5 681.75 302.6 680.95 305.1C680.55 306.2 679.05 307.5 677.85 307.7C674.75 308.2 674.15 309.9 674.15 312.6C674.25 320.5 674.05 328.3 674.25 336.2C674.35 340 672.45 340.9 669.15 340.9C663.35 340.8 662.25 340.2 662.15 336.1C662.05 332.1 662.15 328.1 662.15 324.1C662.35 324.2 662.45 324.2 662.45 324.2Z" fill="#2E3540"/>
<path d="M427.95 321.9C427.95 318.9 427.85 315.9 427.95 312.9C428.05 310.3 427.35 308.5 424.65 307.9C422.25 307.4 421.45 305.8 421.45 303.5C421.55 301.2 422.75 300.1 424.95 299.9C427.85 299.6 427.85 297.6 428.05 295.3C428.15 293.5 428.75 290.5 429.75 290.2C432.55 289.5 435.65 289.7 438.45 290.1C439.15 290.2 439.95 292.9 439.85 294.3C439.65 297.9 440.45 300 444.55 300.2C445.85 300.3 448.05 302.4 448.05 303.4C447.95 304.9 446.15 307.4 444.95 307.5C440.25 307.8 439.55 310.3 439.85 314.3C440.15 318.8 439.95 323.3 439.85 327.8C439.85 331 440.85 333.2 444.35 333.5C446.85 333.7 448.45 335 448.25 337.6C448.05 340.3 445.95 340.8 443.65 340.8C441.15 340.8 438.65 340.9 436.15 340.8C430.95 340.5 428.45 338 428.05 332.8C427.85 330.9 427.95 329.1 427.95 327.2C428.05 325.4 428.05 323.7 427.95 321.9C428.05 321.9 427.95 321.9 427.95 321.9Z" fill="#2E3540"/>
<path d="M557.15 432.1C555.95 432 554.65 432 553.45 431.9C547.25 431.3 544.55 428.4 544.55 422.1C544.55 416.1 544.65 410.1 544.85 404.1C544.95 401.4 544.55 399.3 541.55 398.2C540.45 397.8 539.25 396 539.25 394.9C539.25 393.9 540.55 392.2 541.65 391.9C544.95 390.9 544.85 388.5 544.75 385.9C544.55 380.8 545.05 380.4 551.05 380.5C555.95 380.6 557.15 381.6 556.55 386.2C556.05 389.9 557.35 391.4 561.05 391.9C562.45 392.1 564.35 393.8 564.65 395.1C565.15 397.3 563.35 398.4 561.15 398.4C557.45 398.4 556.25 400.2 556.45 403.9C556.75 408.7 556.55 413.6 556.35 418.5C556.25 421.8 557.75 423.8 560.95 424.3C563.65 424.7 565.05 425.7 564.95 428.6C564.75 431.8 562.45 431.9 560.15 432.1C559.15 432.1 558.15 432.1 557.15 432.1Z" fill="#2E3540"/>
<path d="M49.95 404.4C49.95 411.9 49.85 419.4 49.95 426.9C49.95 430.3 48.45 431.6 45.25 431.7C36.95 432 36.65 431.7 36.65 423.4C36.65 409.8 36.65 396.2 36.65 382.6C36.65 378.2 37.45 377.4 41.95 377.4C43.05 377.4 44.25 377.5 45.35 377.4C48.95 377.2 50.15 379 50.15 382.4C49.85 389.7 49.95 397 49.95 404.4Z" fill="#2E3540"/>
<path d="M327.25 404.3C327.25 411.7 327.25 419 327.25 426.4C327.25 430.6 326.45 431.5 322.25 431.6C321.05 431.7 319.75 431.6 318.55 431.6C316.05 431.5 314.55 430.3 314.55 427.7C314.55 412.2 314.55 396.7 314.55 381.2C314.55 378.7 315.95 377.3 318.55 377.2C319.95 377.2 321.25 377.2 322.65 377.2C325.95 377.2 327.35 378.9 327.25 382.1C327.25 389.5 327.25 396.9 327.25 404.3Z" fill="#2E3540"/>
<path d="M344.75 320.6C344.75 315.4 344.85 310.1 344.75 304.9C344.65 301.3 346.25 299.9 349.65 300C352.75 300.1 356.15 299.2 357.15 303.7C357.15 303.8 359.55 303.7 360.65 303.2C362.85 302.2 364.75 300.4 367.05 299.7C369.65 298.9 371.25 300.2 371.45 303.2C371.75 309.2 371.45 309.7 365.55 310.7C359.75 311.7 357.05 314.8 356.95 320.6C356.85 325.7 356.95 330.8 356.95 336C356.95 340.5 356.15 341.1 350.75 341C345.55 340.9 344.95 340.4 344.95 336C344.75 330.8 344.75 325.7 344.75 320.6Z" fill="#2E3540"/>
<path d="M572.35 411.4C572.35 406.9 572.15 402.4 572.45 397.9C572.55 396 573.25 392.6 574.05 392.5C576.95 392 580.55 391.8 582.85 393.2C584.95 394.5 585.95 395 587.75 393.3C588.55 392.6 589.65 392.2 590.65 391.7C597.35 389 598.25 389.7 598.15 396.7C598.15 399.3 597.25 400.5 594.55 400.9C586.35 402.2 584.15 404.9 584.15 413.1C584.15 417.7 584.25 422.3 584.15 426.9C584.05 430.8 582.95 431.4 577.45 431.6C574.05 431.7 572.15 430.6 572.25 427C572.35 421.9 572.35 416.6 572.35 411.4Z" fill="#2E3540"/>
<path d="M467.75 320.5C467.75 325.9 467.65 331.2 467.75 336.6C467.85 339.8 466.35 341.2 463.15 341C461.75 340.9 460.45 340.8 459.05 340.7C456.85 340.5 455.65 339.3 455.65 337.1C455.65 326.1 455.65 315.2 455.55 304.2C455.55 301.6 456.75 300.2 459.35 300.2C460.05 300.2 460.85 300.1 461.55 300.1C467.15 300 467.55 300.4 467.55 305.9C467.75 310.7 467.75 315.6 467.75 320.5Z" fill="#2E3540"/>
<path d="M166.45 411.3C166.45 406.7 166.45 402.1 166.45 397.5C166.45 392.3 166.95 391.8 172.35 391.8C173.25 391.8 174.05 391.8 174.95 391.9C177.15 392 178.45 393.1 178.45 395.4C178.45 406.3 178.55 417.1 178.35 428C178.35 429.3 176.45 430.8 175.05 431.6C173.85 432.2 172.15 431.8 170.65 431.8C167.85 431.8 166.55 430.3 166.65 427.6C166.55 422 166.45 416.7 166.45 411.3Z" fill="#2E3540"/>
<path d="M461.65 295.5C456.45 295.5 455.65 294.8 455.65 290.3C455.75 286.3 456.85 285.5 461.85 285.5C466.85 285.5 467.65 286.2 467.65 290.5C467.65 295.1 467.25 295.5 461.65 295.5Z" fill="#2E3540"/>
<path d="M172.15 386.2C167.75 386.3 166.45 385.3 166.45 381.8C166.35 378.5 167.85 377.2 171.75 377.1C176.95 377 178.55 378 178.65 381.3C178.75 385.2 177.45 386.2 172.15 386.2Z" fill="#2E3540"/>
<path d="M281.15 52.6C294.35 52.6 307.65 52.6 320.85 52.6C325.15 52.6 325.75 53.4 324.45 57.5C320.15 70.4 315.75 83.2 311.45 96.1C311.05 97.4 310.75 98.7 310.45 100.1C309.65 103.4 307.95 104.2 305.05 102.3C288.15 91.4 271.35 80.4 254.45 69.4C250.45 66.8 246.45 64.3 242.35 61.9C239.95 60.5 238.25 60.7 237.35 63.8C235.05 72.2 232.65 80.6 230.15 89C227.05 99.4 223.85 109.7 220.75 120.1C216.35 134.7 212.15 149.3 207.75 163.9C206.75 167.4 205.55 170.8 204.55 174.3C204.25 175.4 204.35 176.7 204.35 177.8C205.55 177.7 206.85 178 207.85 177.6C214.45 174.9 220.95 171.9 227.45 169.2C248.85 160.2 270.25 151.2 291.75 142.3C292.95 141.8 294.45 142 295.85 141.8C295.75 143.2 295.95 144.7 295.55 146.1C291.95 158.7 288.15 171.2 284.55 183.8C283.25 188.5 282.15 189.4 277.15 189.3C271.15 189.2 265.15 189.3 259.15 189.2C239.85 188.9 220.45 188.7 201.15 188C198.85 187.9 196.15 186.2 194.55 184.4C184.65 173.2 175.05 161.6 165.35 150.3C163.45 148.1 162.95 145.8 163.85 143C167.25 132.4 170.75 121.9 174.05 111.3C177.05 101.4 180.05 91.5 182.75 81.5C184.15 76.1 186.55 72.4 192.35 70.3C205.75 65.6 218.85 59.9 232.25 55C236.05 53.6 240.25 52.8 244.25 52.7C256.35 52.4 268.75 52.6 281.15 52.6Z" fill="#2E3540"/>
<path d="M433.15 189.8C420.75 189.8 408.45 189.7 396.05 189.8C392.55 189.8 391.35 188.3 391.45 185.1C391.55 181.2 392.45 180.1 396.25 180.1C405.25 180.1 405.45 180.1 408.05 171.8C415.15 149.1 422.15 126.3 429.25 103.6C432.15 94.1998 435.35 84.8998 438.45 75.4998C439.55 72.0998 440.45 68.5998 441.55 65.0998C442.35 62.5998 441.35 61.6998 438.85 61.4998C437.15 61.3998 435.25 60.9998 434.05 59.9998C433.25 59.2998 432.95 56.8998 433.55 55.8998C434.15 54.7998 436.05 53.7998 437.35 53.7998C441.95 53.6998 446.55 54.1998 451.15 54.1998C470.55 54.2998 489.85 54.1998 509.25 54.1998C510.45 54.1998 512.05 53.7998 512.95 54.3998C514.35 55.1998 516.25 56.7998 516.15 57.9998C516.05 59.1998 514.05 60.4998 512.65 61.3998C511.95 61.8998 510.75 61.4998 509.75 61.4998C503.45 61.4998 503.35 61.4998 501.35 67.5998C498.25 76.9998 495.55 86.3998 492.45 95.7998C488.55 107.7 484.55 119.5 480.65 131.3C477.05 142.2 473.65 153.1 470.15 164C468.85 168.2 467.35 172.3 465.95 176.4C464.65 180 465.55 181.2 469.35 181.3C471.45 181.4 474.05 180.6 474.75 183.8C475.65 187.8 474.15 189.7 469.95 189.7C457.55 189.8 445.35 189.8 433.15 189.8Z" fill="#2E3540"/>
<path d="M374.65 189.2C351.55 189.2 328.45 189.2 305.35 189.2C301.35 189.2 300.65 188.3 300.55 184.3C300.45 180.9 302.05 179.5 305.35 179.6C306.55 179.7 307.85 179.6 309.05 179.7C312.85 180 314.75 178.4 315.85 174.5C318.55 165 321.85 155.8 324.85 146.4C329.35 132.4 333.65 118.3 338.05 104.3C341.25 94.2002 344.45 84.1002 347.65 74.0002C348.65 70.8002 349.65 67.6002 350.75 64.4002C351.55 61.8002 350.75 60.5002 348.05 60.5002C347.15 60.5002 346.05 60.9002 345.45 60.5002C344.25 59.7002 342.55 58.4002 342.65 57.4002C342.75 56.1002 344.35 54.2002 345.55 54.0002C349.25 53.6002 353.05 53.8002 356.75 53.8002C377.85 53.8002 398.95 53.8002 420.15 53.8002C420.75 53.8002 421.55 53.6002 421.95 53.9002C423.05 54.6002 425.05 55.6002 424.95 56.3002C424.85 57.6002 423.75 59.5002 422.65 59.9002C420.75 60.6002 418.45 60.5002 416.35 60.5002C413.75 60.5002 412.15 61.6002 411.35 64.1002C409.15 71.0002 406.95 77.9002 404.65 84.8002C401.25 95.0002 397.75 105.1 394.45 115.2C390.85 126.1 387.55 137.1 383.95 148C380.95 157.4 377.85 166.7 374.65 176C373.55 179.3 374.35 180.5 378.15 180.2C382.75 179.9 383.85 180.9 383.85 185.3C383.85 188.4 382.55 190 379.35 189.8C377.75 189.7 376.15 189.8 374.45 189.8C374.65 189.6 374.65 189.4 374.65 189.2Z" fill="#2E3540"/>
</g>
<defs>
<clipPath id="clip0">
<rect width="680.9" height="448.1" fill="white" transform="translate(0.549988)"/>
</clipPath>
</defs>
</svg>
