<svg width="935" height="270" viewBox="0 0 935 270" fill="none" xmlns="http://www.w3.org/2000/svg">
<g clip-path="url(#clip0)">
<path d="M80.7889 80.2537C81.1249 76.4135 81.365 72.6213 81.797 68.8291C83.2851 56.9244 84.8211 45.0678 86.4052 33.1632C87.6053 23.9947 88.9493 14.7783 90.0534 5.60979C90.2934 3.54568 90.9174 2.77765 93.1256 2.87365C96.5337 3.06566 99.9899 2.96966 103.446 2.92165C104.79 2.87365 105.366 3.16167 105.558 4.69774C107.862 21.9786 110.262 39.2115 112.711 56.4444C113.863 64.7489 115.159 73.0053 115.879 81.4057C116.407 75.5974 116.839 69.7411 117.463 63.9328C118.951 50.2521 120.487 36.6194 121.975 22.9387C122.647 16.8424 123.415 10.6981 124.039 4.60174C124.183 3.25767 124.615 2.87365 125.911 2.92165C130.231 3.01766 134.552 3.01766 138.872 2.92165C140.312 2.87365 140.6 3.35368 140.36 4.74575C137.24 24.4748 134.12 44.2038 131.048 63.9328C128.551 79.7736 126.151 95.6625 123.703 111.551C123.127 115.247 123.175 115.247 119.383 115.247C116.407 115.247 113.479 115.199 110.502 115.295C109.158 115.343 108.534 114.959 108.342 113.471C105.174 90.6222 101.43 67.821 98.5498 44.9238C98.3578 43.2917 98.2618 41.6597 98.1178 39.9796C97.1098 40.3636 97.3978 41.0836 97.3498 41.6597C97.0138 51.7402 95.1417 61.6767 93.7016 71.6132C91.7335 85.3899 89.6694 99.1186 87.7493 112.895C87.5093 114.623 87.0292 115.391 85.1091 115.295C81.701 115.151 78.2448 115.151 74.7886 115.295C73.2525 115.343 72.7245 114.767 72.4845 113.327C70.5644 100.847 68.5963 88.3661 66.6282 75.9334C64.4681 62.1087 62.308 48.332 60.1479 34.5073C58.6118 24.7148 57.0757 14.9223 55.4916 5.17777C55.2516 3.64169 55.2996 2.92165 57.2197 2.96966C61.3959 3.11366 65.5241 3.11366 69.7003 2.96966C71.3804 2.92165 71.8125 3.49768 71.9565 5.08176C73.9726 23.1307 76.0367 41.1316 78.1008 59.1326C78.8688 65.7089 79.8289 72.2852 80.1649 78.9096C80.2129 79.3416 80.1649 79.8696 80.7889 80.2537Z" fill="#848D9A"/>
<path d="M645.25 80.59C646.498 64.6052 648.946 48.9564 651.106 33.2116C652.402 23.7071 653.699 14.2026 654.851 4.69811C655.043 3.25803 655.475 2.87401 656.915 2.92202C660.611 3.01802 664.259 3.01802 667.955 2.92202C669.443 2.87401 670.067 3.40204 670.259 4.84212C671.555 14.3466 672.852 23.8511 674.196 33.3076C675.348 41.612 676.5 49.9165 677.604 58.2209C678.66 66.1893 680.052 74.1577 680.388 82.2701C680.916 76.6538 681.348 70.9895 681.924 65.3732C682.74 57.5968 683.604 49.8204 684.468 42.044C685.86 29.6594 687.3 17.2748 688.596 4.89012C688.74 3.30604 689.172 2.87401 690.708 2.92202C694.789 3.01802 698.869 3.06602 702.949 2.92202C704.917 2.82601 705.253 3.49805 704.965 5.22614C703.861 11.9945 702.805 18.7628 701.749 25.5792C700.165 35.8517 698.533 46.0762 696.949 56.3488C694.693 70.8455 692.437 85.3903 690.132 99.887C689.412 104.447 688.596 109.008 687.924 113.616C687.732 114.912 687.252 115.344 685.956 115.296C682.452 115.2 678.9 115.152 675.396 115.296C673.764 115.344 673.14 114.768 672.948 113.232C671.843 105.551 670.643 97.9189 669.539 90.2385C668.339 82.1741 667.187 74.1097 666.035 66.0453C664.739 56.7328 663.011 47.4203 662.387 37.9638C662.243 38.8279 662.051 39.6439 662.003 40.508C661.619 51.5005 659.651 62.2531 658.019 73.0536C656.195 85.3903 654.467 97.7269 652.643 110.016C651.874 115.2 651.778 115.2 646.498 115.2C644.242 115.2 642.034 115.056 639.778 115.248C637.954 115.392 637.234 114.72 636.946 112.944C635.986 106.463 634.93 99.983 633.922 93.5507C632.722 85.8223 631.521 78.0939 630.321 70.3655C628.305 57.2608 626.289 44.1562 624.225 31.0995C622.881 22.411 621.537 13.7226 620.049 5.08213C619.761 3.40204 620.001 2.87401 621.777 2.92202C626.001 3.06602 630.273 3.01802 634.498 2.92202C635.938 2.87401 636.466 3.40204 636.61 4.79411C637.906 16.8427 639.25 28.9394 640.642 40.988C641.794 51.0685 642.946 61.149 644.194 71.2296C644.482 73.6297 644.434 76.0298 644.482 78.4299C644.578 79.15 644.194 80.014 645.25 80.59Z" fill="#2E3540"/>
<path d="M428.567 72.1894C428.327 68.8293 428.087 65.5171 428.087 62.1569C428.135 43.196 428.135 24.235 428.087 5.27399C428.087 3.5459 428.423 2.87386 430.295 2.96987C434.375 3.11388 438.455 3.06587 442.536 3.01787C444.024 2.96987 444.408 3.4979 444.408 4.93797C444.36 41.0358 444.36 77.0857 444.408 113.184C444.408 114.864 443.976 115.44 442.296 115.392C438.215 115.296 434.135 115.344 430.055 115.392C428.663 115.392 427.991 114.96 427.511 113.52C421.943 97.0067 416.278 80.4939 410.662 63.981C408.79 58.5087 406.918 52.9885 404.71 47.5162C404.71 48.5242 404.566 49.5323 404.71 50.5403C405.19 53.8525 405.382 57.2127 405.382 60.5728C405.334 77.9977 405.334 95.4707 405.382 112.896C405.382 114.672 405.046 115.488 403.03 115.44C398.949 115.296 394.869 115.344 390.789 115.392C389.541 115.392 389.013 115.008 389.109 113.76C389.157 113.376 389.109 112.944 389.109 112.56C389.109 76.9417 389.109 41.3719 389.061 5.75401C389.061 3.5459 389.637 2.92187 391.797 3.01787C395.541 3.20988 399.333 3.11388 403.078 3.01787C404.47 2.96987 404.998 3.5459 405.382 4.79396C410.71 21.1628 416.086 37.4837 421.415 53.8525C423.623 60.6689 425.783 67.5332 427.943 74.3496C428.375 75.7416 428.183 77.3257 429.383 79.0538C429.623 76.2217 429.191 74.2056 428.567 72.1894Z" fill="#2E3540"/>
<path d="M0.432768 58.8449C0.432768 40.9879 0.432768 23.179 0.384766 5.32209C0.384766 3.498 0.720783 2.82596 2.73689 2.87397C10.6573 3.01797 18.5777 2.72996 26.4981 3.06598C35.9066 3.45 43.731 7.09818 48.5793 15.5946C54.2436 25.5311 54.7716 46.2202 42.1469 56.0607C40.7069 57.1648 40.3708 57.7888 42.2429 58.9889C49.5873 63.7411 52.7075 71.0375 53.5235 79.4379C54.0995 85.4382 53.9075 91.3905 52.4195 97.2949C49.6833 107.903 42.0029 114.24 30.9143 114.864C21.4099 115.392 11.9054 114.96 2.35287 115.2C0.336763 115.248 0.480771 114.144 0.480771 112.8C0.432768 94.8467 0.432768 76.8458 0.432768 58.8449ZM17.6177 82.4141C17.6177 85.4382 17.6177 88.4624 17.6177 91.5346C17.6177 99.839 17.6177 99.839 26.0661 98.9269C30.8663 98.3989 33.6505 96.1908 34.8986 91.4865C36.3866 85.7262 36.3386 79.966 34.9946 74.2057C33.7945 69.1174 30.6263 66.4773 25.3941 66.0452C23.714 65.9012 22.0339 66.0932 20.3538 65.9012C18.2897 65.7092 17.4256 66.2372 17.5697 68.5894C17.7617 73.1496 17.6177 77.8058 17.6177 82.4141ZM17.6177 34.2676C17.6177 37.2917 17.6177 40.3639 17.6177 43.3881C17.6177 49.7244 17.6177 49.6764 23.954 49.6764C28.5142 49.6764 31.5864 47.6123 33.1225 43.3881C35.2826 37.5798 35.2826 31.6275 33.5065 25.7231C32.2584 21.5949 29.2823 19.4828 24.962 19.2908C23.1379 19.1948 21.2658 19.2428 19.4418 19.1468C17.9057 19.0508 17.5697 19.6748 17.5697 21.0669C17.6657 25.4831 17.6177 29.8514 17.6177 34.2676Z" fill="#848D9A"/>
<path d="M179.866 3.16195C190.619 3.16195 201.467 1.81788 212.076 4.074C220.62 5.89809 226.62 11.2744 229.405 19.6268C232.573 29.1313 232.381 38.5878 227.965 47.8043C226.284 51.3564 223.644 54.0926 220.764 56.5887C219.756 57.4528 219.66 57.9808 220.86 58.7008C228.157 63.3091 231.613 70.3174 232.477 78.5739C233.197 85.5822 233.053 92.5906 230.893 99.4549C228.301 107.759 220.908 113.904 212.172 114.528C202.523 114.528 192.827 114.48 183.178 114.48C179.914 114.48 179.914 114.48 179.914 111.312C179.866 75.2137 179.866 39.2118 179.866 3.16195ZM214.956 82.7981C215.1 80.1579 214.812 77.5178 214.284 74.9257C213.516 71.3735 211.932 68.3013 208.284 66.8613C204.827 65.4692 201.227 65.9012 197.627 65.9012C196.571 65.9012 196.715 66.8613 196.715 67.5333C196.715 77.4218 196.715 87.3583 196.715 97.2468C196.715 98.3989 197.003 99.0229 198.347 98.9749C200.507 98.8789 202.667 99.0229 204.827 98.8789C209.1 98.5909 212.172 96.6228 213.66 92.3986C214.764 89.3264 214.908 86.0622 214.956 82.7981ZM196.715 34.2196C196.715 37.0037 196.715 39.7878 196.715 42.62C196.715 50.5404 196.715 50.5404 204.731 49.5804C207.803 49.1963 210.156 47.7083 211.5 44.9241C214.572 38.3958 214.428 31.6274 212.268 24.9071C211.212 21.6429 208.524 19.8188 205.067 19.4348C202.955 19.1948 200.747 19.3388 198.635 19.1468C197.147 19.0508 196.715 19.6748 196.715 21.0669C196.763 25.4351 196.715 29.8513 196.715 34.2196Z" fill="#2E3540"/>
<path d="M770.489 58.9889C770.489 41.132 770.537 23.323 770.441 5.46611C770.441 3.498 770.873 2.87397 772.937 2.92198C781.817 3.06598 790.698 2.92198 799.578 3.06598C804.522 3.16199 809.227 4.41005 813.259 7.38621C818.539 11.2744 820.939 16.8427 822.043 23.035C823.387 30.8114 823.627 38.5878 822.139 46.4122C820.987 52.3645 818.779 57.7408 813.883 61.581C812.443 62.7331 812.251 63.9331 812.635 65.5172C816.043 79.2939 819.451 93.0706 822.859 106.847C823.435 109.103 823.867 111.36 824.443 113.568C824.779 114.864 824.347 115.296 823.051 115.296C818.107 115.248 813.115 115.248 808.171 115.296C806.923 115.296 806.778 114.672 806.586 113.712C804.762 105.647 802.89 97.5349 801.018 89.4705C799.53 82.8461 797.994 76.2698 796.554 69.6454C796.266 68.3014 795.642 67.9173 794.25 67.9173C787.914 67.8693 787.913 67.8213 787.913 74.0617C787.913 86.7823 787.913 99.503 787.913 112.224C787.913 115.296 787.914 115.296 784.745 115.296C780.905 115.296 777.065 115.152 773.225 115.344C770.969 115.44 770.393 114.72 770.393 112.512C770.537 94.6547 770.489 76.7978 770.489 58.9889ZM787.961 35.3237C787.961 40.0279 788.01 44.7321 787.913 49.4364C787.865 51.2605 788.49 51.8365 790.266 51.7405C792.426 51.5965 794.586 51.6925 796.746 51.5485C800.442 51.2605 803.082 49.5324 804.09 45.8362C805.914 39.2599 805.914 32.5395 804.426 25.9632C803.37 21.3069 800.634 19.5308 795.738 19.3388C794.058 19.2908 792.378 19.3868 790.698 19.2428C788.586 19.0028 787.77 19.6748 787.866 21.979C788.058 26.3472 787.913 30.8594 787.961 35.3237Z" fill="#2E3540"/>
<path d="M881.662 3.16208C882.142 3.11408 882.622 2.97007 883.054 2.97007C891.839 2.97007 900.671 2.73006 909.456 3.11408C923.664 3.69011 931.633 11.5625 933.505 25.5312C934.081 29.8515 934.033 34.1237 934.033 38.4439C934.033 54.1407 934.129 69.7895 933.985 85.4863C933.937 92.3027 933.169 99.0711 929.425 105.023C925.825 110.736 920.544 113.76 913.872 114.432C904.367 114.432 894.815 114.432 885.311 114.384C881.182 114.384 881.662 114.864 881.662 110.64C881.662 74.8298 881.662 39.0199 881.662 3.16208ZM898.559 58.941C898.559 71.4216 898.607 83.9023 898.511 96.3829C898.511 97.967 898.799 98.735 900.575 98.639C903.023 98.495 905.52 98.687 908.016 98.543C912.192 98.351 914.4 96.5269 915.648 92.5427C916.272 90.5746 916.224 88.6065 916.224 86.5904C916.224 69.8855 916.224 53.1807 916.224 36.4278C916.224 34.1717 916.224 31.9636 916.08 29.7075C915.744 24.7632 912.96 21.451 908.208 20.107C905.76 19.4349 903.311 19.4829 900.863 19.2909C898.943 19.1469 898.463 19.8189 898.463 21.691C898.607 34.1717 898.559 46.5563 898.559 58.941Z" fill="#2E3540"/>
<path d="M761.656 58.5086C761.656 69.6932 761.944 80.9258 761.56 92.1104C761.272 99.9828 758.488 107.087 752.104 112.271C748.119 115.488 743.511 117.024 738.423 117.312C733.047 117.648 727.718 117.456 722.726 115.104C715.334 111.599 711.638 105.407 709.813 97.7267C708.805 93.5024 708.709 89.1822 708.709 84.862C708.709 65.997 708.709 47.084 708.709 28.2191C708.709 22.0267 709.957 16.2184 713.51 10.9862C717.542 5.03387 723.254 2.05771 730.215 1.00166C736.743 0.0416075 743.079 0.425628 749.079 3.64179C755.416 7.04997 758.824 12.5223 760.744 19.1946C761.704 22.6028 761.896 26.107 761.896 29.6591C761.896 39.2596 761.896 48.8601 761.896 58.4606C761.752 58.5086 761.704 58.5086 761.656 58.5086ZM726.182 58.7006C726.182 69.1652 726.23 79.6297 726.182 90.1423C726.182 92.3504 726.566 94.4625 727.142 96.5266C728.006 99.5027 730.647 101.663 733.479 101.951C737.271 102.287 740.679 101.711 742.599 97.8707C743.847 95.3745 744.183 92.6864 744.183 89.9503C744.183 69.4052 744.183 48.8601 744.183 28.3151C744.183 26.203 743.895 24.1869 743.367 22.1708C742.503 18.8106 740.055 16.7465 736.359 16.2664C732.423 15.7864 729.543 17.0825 727.814 20.1546C726.518 22.5068 726.134 25.0989 726.134 27.787C726.182 38.1076 726.182 48.3801 726.182 58.7006Z" fill="#2E3540"/>
<path d="M293.152 48.2361C293.152 61.6768 293.152 75.1175 293.152 88.5582C293.152 94.5585 292.096 100.367 289.072 105.599C284.031 114.432 275.919 117.6 266.126 117.456C258.974 117.36 252.494 115.68 247.454 110.351C242.893 105.503 241.021 99.4548 240.253 92.9745C239.773 88.8942 239.869 84.814 239.869 80.7338C239.869 55.6765 239.917 30.6672 239.821 5.60993C239.821 3.30581 240.493 2.82579 242.653 2.87379C246.829 3.0178 250.958 3.0178 255.134 2.87379C257.15 2.77779 257.63 3.35382 257.63 5.36992C257.582 33.5954 257.582 61.8688 257.582 90.0943C257.582 93.5985 258.734 96.6226 261.422 98.7348C266.03 102.383 272.703 100.367 274.767 94.7986C275.391 93.0705 275.679 91.2944 275.679 89.3743C275.631 61.3888 275.679 33.3554 275.631 5.36992C275.631 3.40182 276.111 2.77779 278.127 2.87379C282.447 3.0658 286.768 3.0178 291.088 2.87379C292.768 2.82579 293.2 3.30581 293.2 4.9859C293.152 19.4347 293.152 33.8354 293.152 48.2361Z" fill="#2E3540"/>
<path d="M559.134 89.0866C559.326 96.815 557.214 103.775 551.885 109.536C546.317 115.536 539.213 117.888 531.196 117.648C525.004 117.456 519.292 115.92 514.347 111.84C508.587 107.04 505.755 100.703 504.363 93.5989C504.027 91.8708 503.931 90.0947 503.643 88.3666C503.451 87.1665 503.787 86.6865 505.083 86.4945C509.595 85.8705 514.107 85.1984 518.572 84.4304C519.964 84.1904 520.204 84.6224 520.3 85.8225C520.636 88.9906 521.02 92.1588 522.46 95.087C524.668 99.5512 528.844 101.663 533.74 100.655C538.781 99.5992 541.949 96.095 542.189 91.0547C542.477 85.6785 540.461 81.1662 537.197 76.99C531.484 69.6456 524.092 63.8853 518.044 56.877C513.339 51.4527 508.827 45.9324 506.619 38.8761C502.203 25.0033 507.771 8.73049 522.316 2.82619C536.333 -2.83811 551.789 4.50627 556.11 19.051C556.926 21.7392 557.502 24.4753 557.886 27.2114C557.982 27.9315 558.27 28.7955 556.974 28.9875C552.317 29.5636 547.613 30.2356 542.957 30.9556C541.325 31.1957 540.797 30.6196 540.797 29.0835C540.749 26.4914 539.981 24.0913 539.069 21.6912C536.812 15.9789 527.452 16.0749 524.428 20.7311C521.308 25.5314 521.98 30.5236 523.996 35.3719C526.684 41.7562 531.724 46.4124 536.573 51.1167C542.429 56.829 548.525 62.3493 553.037 69.2616C557.07 75.2619 559.326 81.7903 559.134 89.0866Z" fill="#2E3540"/>
<path d="M327.954 1.04996C340.29 1.09796 349.699 8.58635 352.627 20.299C353.155 22.4591 353.491 24.6672 353.971 26.8753C354.211 28.1714 354.115 28.8914 352.435 29.0834C347.971 29.5634 343.555 30.2835 339.138 30.9555C337.746 31.1475 337.17 30.9555 337.074 29.3714C336.978 27.4993 336.594 25.5312 336.018 23.7551C334.434 18.7149 331.314 16.8428 325.986 17.4668C322.097 17.9468 318.977 21.499 318.593 26.0112C318.065 32.2996 320.513 37.5318 324.402 42.2361C329.586 48.6204 335.97 53.8527 341.586 59.805C347.155 65.7093 351.859 72.0936 354.211 80.062C357.571 91.6786 353.875 105.551 345.091 112.272C339.234 116.736 332.562 118.128 325.266 117.504C314.993 116.64 307.793 111.6 303.328 102.527C301.168 98.111 300.16 93.3587 299.872 88.4145C299.776 87.1664 300.064 86.6384 301.456 86.4944C305.633 85.9664 309.857 85.4383 313.985 84.5263C316.145 84.0462 316.337 84.9103 316.529 86.5904C316.913 89.8546 317.393 93.0707 319.073 95.9989C321.329 99.9351 325.698 101.759 330.354 100.607C335.01 99.5031 338.034 95.8549 338.322 91.3426C338.754 84.8623 335.826 79.87 331.842 75.1658C327.138 69.6455 321.569 64.9413 316.721 59.613C311.921 54.3807 307.265 49.1004 304.193 42.5721C298.288 30.0435 301.696 14.2506 312.209 6.42623C316.961 2.82605 322.337 0.857947 327.954 1.04996Z" fill="#2E3540"/>
<path d="M591.679 1.05002C604.352 1.09802 614.049 8.92242 616.641 20.971C618.801 31.0036 619.041 28.2674 610.112 29.8995C607.856 30.3315 605.504 30.4755 603.248 30.9076C601.616 31.1956 600.992 30.7636 600.848 29.0355C600.656 26.9714 600.416 24.9073 599.648 22.9391C597.92 18.7629 595.616 17.1789 591.247 17.2749C587.167 17.3709 584.383 19.387 583.039 23.3712C581.167 28.8435 582.847 33.7877 585.679 38.396C589.039 43.8682 593.647 48.3325 598.304 52.7007C604.784 58.749 611.216 64.8933 615.201 72.9577C620.481 83.6623 621.105 94.7029 614.865 105.263C609.344 114.624 600.608 118.032 589.903 117.504C579.439 116.928 571.95 112.08 567.294 102.863C564.942 98.2551 563.886 93.2628 563.694 88.0785C563.646 87.3585 563.55 86.6864 564.606 86.4944C569.406 85.7744 574.254 85.0544 579.055 84.2863C580.495 84.0463 580.111 85.0544 580.207 85.7744C580.591 89.1826 581.071 92.5908 582.751 95.6629C585.007 99.7431 589.231 101.615 593.888 100.559C598.736 99.4071 602.048 95.7109 602.24 91.1027C602.48 85.6304 600.416 81.0221 597.056 76.8459C592.639 71.3736 587.359 66.7654 582.559 61.7252C576.559 55.4848 570.558 49.1485 567.294 40.8441C561.678 26.4913 566.958 8.68241 582.847 2.6821C585.823 1.48204 588.943 0.906011 591.679 1.05002Z" fill="#2E3540"/>
<path d="M454.392 114.432C454.344 112.176 454.296 109.968 454.296 107.711C454.296 73.7257 454.296 39.7399 454.248 5.75417C454.248 3.45005 454.824 2.87402 457.128 2.87402C470.425 2.97003 483.674 2.97003 496.97 2.87402C498.938 2.87402 499.611 3.30605 499.515 5.37015C499.323 9.11435 499.371 12.9065 499.515 16.6507C499.611 18.6188 498.986 19.2429 496.97 19.2429C489.29 19.1469 481.61 19.2429 473.929 19.1469C471.961 19.0989 471.577 19.7229 471.577 21.595C471.673 29.8514 471.673 38.0598 471.577 46.3163C471.577 48.0924 472.009 48.6204 473.833 48.6204C478.969 48.4764 484.058 48.6684 489.194 48.5244C491.258 48.4764 491.786 49.1964 491.69 51.1645C491.546 54.8607 491.546 58.5089 491.69 62.2051C491.738 64.1252 491.258 64.8452 489.194 64.7972C484.01 64.6532 478.777 64.7972 473.593 64.7012C472.249 64.7012 471.577 64.8932 471.577 66.5253C471.673 77.0859 471.673 87.6464 471.673 98.207C472.009 99.647 473.209 99.071 474.073 99.071C481.37 99.119 488.618 99.215 495.914 99.023C498.218 98.975 498.794 99.743 498.65 101.903C498.506 105.167 498.458 108.479 498.65 111.744C498.746 113.952 498.122 114.576 495.866 114.576C482.042 114.384 468.217 114.432 454.392 114.432Z" fill="#2E3540"/>
<path d="M831.74 114.432C831.74 111.936 831.692 109.488 831.692 106.991C831.692 73.1977 831.692 39.404 831.644 5.61021C831.644 3.40209 832.22 2.82607 834.38 2.92207C838.94 3.11408 843.5 3.01807 848.013 3.06608C848.013 34.8917 848.013 66.7174 848.013 98.495C848.157 98.495 848.349 98.495 848.493 98.495C848.493 66.7174 848.493 34.8917 848.493 3.11408C849.261 4.02613 848.877 5.08218 848.877 6.04223C848.925 36.1398 848.925 66.1893 848.829 96.2869C848.829 98.543 849.453 99.023 851.613 99.023C859.389 98.927 867.118 99.023 874.894 99.071C875.134 103.343 874.654 107.663 875.182 111.984C875.374 113.472 874.75 114.528 872.686 114.528C859.053 114.384 845.42 114.432 831.74 114.432Z" fill="#2E3540"/>
<path d="M362.083 58.9409C362.083 41.1319 362.131 23.275 362.035 5.4661C362.035 3.546 362.371 2.82596 364.484 2.92197C368.708 3.11398 372.98 3.11398 377.204 2.92197C379.268 2.82596 379.652 3.546 379.604 5.4661C379.556 38.0118 379.604 70.5575 379.604 103.103C379.604 106.463 379.508 109.824 379.652 113.184C379.7 114.912 379.076 115.344 377.444 115.296C373.22 115.2 368.948 115.104 364.724 115.344C362.371 115.44 362.035 114.528 362.035 112.464C362.083 94.6067 362.083 76.7978 362.083 58.9409Z" fill="#2E3540"/>
<path d="M454.392 114.432C468.217 114.432 482.042 114.384 495.866 114.48C498.123 114.48 498.747 113.856 498.651 111.648C498.459 108.383 498.507 105.071 498.651 101.807C498.747 99.6469 498.171 98.8789 495.914 98.9269C488.666 99.0709 481.37 99.0229 474.073 98.9749C473.257 98.9749 472.057 99.5509 471.673 98.1108C480.122 98.1108 488.618 98.1588 497.066 98.1108C498.891 98.1108 499.611 98.4949 499.515 100.463C499.371 104.783 499.419 109.103 499.515 113.376C499.563 114.816 499.083 115.296 497.595 115.296C483.77 115.248 469.993 115.296 456.168 115.248C455.544 115.296 454.488 115.776 454.392 114.432Z" fill="#2E3540"/>
<path d="M881.662 3.16211C881.662 39.02 881.662 74.8298 881.71 110.688C881.71 114.96 881.23 114.432 885.359 114.432C894.863 114.48 904.415 114.48 913.92 114.48C911.472 115.584 908.88 115.248 906.384 115.296C898.895 115.392 891.359 115.248 883.87 115.392C881.854 115.44 881.326 114.816 881.326 112.848C881.374 96.719 881.374 80.5901 881.374 64.4133C881.374 44.7803 881.374 25.0992 881.422 5.46623C881.326 4.69819 880.99 3.83414 881.662 3.16211Z" fill="#2E3540"/>
<path d="M179.866 3.16211C179.866 39.212 179.866 75.2139 179.914 111.264C179.914 114.432 179.914 114.432 183.178 114.432C192.827 114.432 202.523 114.48 212.172 114.48C210.06 115.44 207.756 115.2 205.595 115.248C197.579 115.344 189.611 115.248 181.594 115.344C179.866 115.344 179.434 114.768 179.434 113.136C179.482 77.0859 179.482 40.9881 179.482 4.9382C179.482 4.31417 179.194 3.64213 179.866 3.16211Z" fill="#2E3540"/>
<path d="M831.74 114.431C845.372 114.431 859.053 114.383 872.686 114.527C874.75 114.527 875.374 113.471 875.182 111.983C874.654 107.663 875.134 103.391 874.894 99.0707C875.902 98.9747 875.806 99.6947 875.806 100.319C875.806 104.783 875.806 109.247 875.854 113.711C875.854 115.007 875.326 115.344 874.126 115.344C860.493 115.296 846.861 115.344 833.228 115.296C832.652 115.296 831.692 115.632 831.74 114.431Z" fill="#2E3540"/>
<path d="M848.493 3.16226C848.493 34.9399 848.493 66.7656 848.493 98.5432C848.349 98.5432 848.157 98.5432 848.013 98.5432C848.013 66.7176 848.013 34.8919 848.013 3.11426C848.205 3.11426 848.349 3.11426 848.493 3.16226Z" fill="#2E3540"/>
<path d="M428.567 72.1895C429.191 74.2056 429.623 76.2697 429.431 79.0058C428.231 77.2297 428.423 75.6456 427.991 74.3016C428.999 73.8215 428.279 72.8615 428.567 72.1895Z" fill="#2E3540"/>
</g>
<g clip-path="url(#clip1)">
<path d="M646.358 238C652.158 245.8 657.258 252.9 662.758 259.8C663.858 261.1 666.358 261.5 668.358 261.9C669.958 262.2 671.758 261.7 673.258 262.1C674.158 262.4 675.158 263.7 675.458 264.7C675.558 265.2 674.058 266.6 673.258 266.7C666.758 266.9 660.358 268.3 655.958 260.7C651.858 253.5 646.258 247.2 641.158 240.6C640.258 239.4 638.658 238 637.358 237.9C631.558 237.6 625.758 237.8 619.658 237.8C619.658 245.9 619.658 253.5 619.658 262C622.158 262 624.858 261.7 627.358 262.1C628.658 262.3 629.758 263.6 630.958 264.4C629.758 265.3 628.658 266.8 627.458 266.9C619.958 267.1 612.458 267.1 604.958 266.8C603.758 266.8 602.658 265.2 601.458 264.3C602.558 263.5 603.558 262.3 604.758 262.1C607.358 261.8 609.958 262 612.958 262C612.958 243 612.958 224.4 612.958 205.3C609.958 205.3 607.158 205.5 604.358 205.2C603.358 205.1 602.458 203.9 601.458 203.2C602.458 202.3 603.358 200.6 604.358 200.6C619.658 200.8 634.958 200.5 650.258 201.8C659.658 202.6 664.858 209.8 665.058 218.5C665.258 227.7 660.458 233.9 651.058 236.6C649.858 236.9 648.458 237.3 646.358 238ZM619.758 205.4C619.758 214.7 619.758 223.4 619.758 232.4C629.258 232.4 638.358 232.9 647.458 232.2C655.158 231.6 659.558 226.4 659.758 219.5C660.058 211.6 655.258 206.2 646.058 205.5C637.458 204.9 628.758 205.4 619.758 205.4Z" fill="#2E3540"/>
<path d="M380.958 262C381.058 259.8 381.258 258 381.258 256.2C381.258 241 381.158 225.9 381.358 210.7C381.458 206.4 380.358 204.3 375.858 205.1C374.858 205.3 373.758 205.4 372.858 205.1C371.658 204.7 370.558 203.8 369.458 203.2C370.558 202.3 371.658 201.4 372.758 200.5C372.958 200.3 373.358 200.5 373.758 200.5C389.458 200.7 386.258 198.5 386.658 212.8C386.758 217.5 386.458 222.1 386.758 226.8C386.858 228 388.658 230.1 389.658 230.1C402.658 230.3 415.558 230.2 428.958 230.2C428.958 221.9 428.958 214 428.958 205.2C426.058 205.2 423.158 205.4 420.258 205.1C419.358 205 418.458 203.7 417.558 203C418.458 202.2 419.258 200.7 420.158 200.7C428.158 200.5 436.158 200.5 444.158 200.7C444.958 200.7 445.858 202.3 446.658 203.1C445.758 203.8 444.858 205.1 443.858 205.2C441.058 205.5 438.258 205.3 435.258 205.3C435.258 224.5 435.258 243.1 435.258 262.2C438.358 262.2 441.158 262 443.958 262.3C444.858 262.4 445.658 263.8 446.558 264.6C445.758 265.4 444.958 266.8 444.058 266.9C440.058 267.1 436.058 267.3 432.058 266.8C430.958 266.7 429.458 264.1 429.458 262.7C429.158 255.2 429.158 247.7 429.358 240.2C429.458 236.5 428.658 234.8 424.458 234.9C413.458 235.2 402.458 235.2 391.458 234.9C387.358 234.8 386.258 236.2 386.358 240.1C386.658 247.2 386.458 254.3 386.458 262.2C389.758 262.2 392.558 262 395.358 262.3C396.558 262.4 397.558 263.7 398.658 264.5C397.658 265.4 396.658 266.9 395.658 267C387.858 267.2 379.958 267.2 372.158 267C371.158 267 370.258 265.7 369.258 265.1C370.158 264.2 370.958 262.6 371.958 262.4C374.858 261.8 377.658 262 380.958 262Z" fill="#2E3540"/>
<path d="M244.858 262C256.658 262 267.758 262 278.858 262C279.958 262 281.158 261.8 282.858 261.7C282.858 258.1 282.658 254.6 282.958 251.2C283.158 249.5 284.458 248 285.258 246.4C286.158 248 287.558 249.6 287.758 251.3C288.158 254.9 287.658 258.6 287.858 262.3C288.058 265.6 287.058 267 283.358 267C266.058 266.9 248.758 267 231.458 266.9C230.158 266.9 228.758 265.4 227.458 264.5C228.858 263.7 230.058 262.4 231.558 262.1C233.758 261.7 236.158 262 238.758 262C238.958 260.4 239.158 259.1 239.158 257.8C239.158 241.8 239.058 225.8 239.258 209.9C239.258 206.1 238.058 204.7 234.358 205.2C233.858 205.3 233.358 205.3 232.858 205.2C230.858 204.7 227.558 206.6 227.658 202.8C227.658 202 230.858 200.5 232.658 200.5C249.458 200.3 266.258 200.5 283.058 200.4C286.458 200.4 287.958 201.5 287.758 205C287.558 209.3 287.858 213.7 287.658 218C287.558 219.1 286.158 220.1 285.358 221.1C284.458 220.1 283.058 219.2 282.858 218.1C282.458 215.3 282.558 212.4 282.758 209.6C283.058 206 281.458 205 278.158 205.1C268.458 205.3 258.858 205.3 249.158 205.1C245.658 205 244.458 206.2 244.658 209.7C244.858 215 244.858 220.4 244.658 225.7C244.558 229.2 245.958 230.3 249.358 230.2C255.558 230 261.658 230 267.858 230.3C269.158 230.4 270.358 231.8 271.658 232.5C270.458 233.3 269.258 234.7 268.058 234.7C261.858 235 255.758 235 249.558 234.8C246.258 234.7 244.658 235.5 244.858 239.2C244.958 246.7 244.858 254.1 244.858 262Z" fill="#2E3540"/>
<path d="M681.958 255.1C690.358 262.2 699.658 265.8 710.658 264C718.658 262.6 724.258 257.9 725.858 251.4C726.958 246.9 725.658 243.2 721.758 241.2C717.658 239.1 713.258 237.6 708.858 236.1C702.858 234 696.558 232.7 690.958 230C679.358 224.4 678.458 211.6 688.558 203.7C698.558 195.8 719.658 196.5 727.858 206.3C730.358 209.3 728.858 215.6 729.058 220.4C729.058 220.7 727.258 221.4 726.458 221.2C725.758 221 725.058 220.1 724.658 219.3C724.358 218.8 724.558 218 724.558 217.3C724.258 208.9 722.758 206.8 714.658 204.4C707.358 202.2 700.158 202.4 693.558 206.7C689.758 209.2 687.058 212.6 687.558 217.5C687.958 222.1 691.158 224.7 695.058 226C702.758 228.7 710.658 230.9 718.358 233.4C725.258 235.7 731.458 238.9 732.058 247.4C732.558 255.6 728.358 262.8 719.958 266.2C706.458 271.8 693.558 269.8 681.758 261.4C678.358 259.2 678.158 257.3 681.958 255.1Z" fill="#2E3540"/>
<path d="M363.558 257.8C356.258 265.5 347.058 268.7 336.758 269.2C314.158 270.3 296.258 254.2 296.658 232.8C296.858 220.9 302.258 211.4 312.258 204.7C325.658 195.8 344.858 196 358.158 205C361.358 207.2 363.658 217.6 361.558 220.8C361.158 221.4 360.158 222 359.558 221.9C358.758 221.8 357.558 221.1 357.358 220.4C356.958 219.2 356.758 217.7 357.058 216.5C357.958 211 354.958 208.3 350.458 206.3C335.758 199.5 317.158 203.6 308.358 215.6C294.558 234.6 305.558 260.3 329.058 263.9C339.558 265.5 348.858 263 357.158 256.6C359.858 254.5 361.758 254.2 363.558 257.8Z" fill="#2E3540"/>
<path d="M212.258 202.1C204.658 203.2 197.558 204.2 190.158 205.3C192.858 223.9 195.558 242.2 198.258 261.2C201.458 260.7 204.458 260.1 207.558 260C208.658 260 209.858 261.2 210.958 261.8C210.058 262.8 209.258 264.4 208.158 264.6C200.058 266 191.858 267.2 183.558 268.2C182.558 268.3 181.358 267 180.158 266.4C181.058 265.5 181.858 263.9 182.858 263.7C185.758 263 188.758 262.7 192.058 262.2C189.358 243.5 186.658 225.1 183.958 206.3C176.858 207.3 169.858 208.3 161.958 209.5C162.558 213.6 163.358 217.6 163.658 221.7C163.758 223.1 162.558 224.7 161.958 226.1C160.958 224.9 159.258 223.8 158.958 222.5C157.958 217.9 157.258 213.3 156.958 208.7C156.858 207.4 158.658 205 159.858 204.8C177.558 201.9 195.258 199.4 212.858 197C214.058 196.8 216.458 198.7 216.758 200C217.858 204.9 218.558 209.8 219.058 214.8C219.158 215.9 217.858 217 217.158 218.2C216.158 217.3 214.558 216.6 214.258 215.6C213.458 211.2 212.958 206.8 212.258 202.1Z" fill="#2E3540"/>
<path d="M486.458 262C489.658 262 492.658 261.8 495.658 262.1C496.758 262.2 497.658 263.7 498.658 264.5C497.658 265.3 496.558 266.7 495.558 266.7C487.258 266.9 478.858 266.9 470.558 266.7C469.558 266.7 468.458 265.2 467.458 264.3C468.458 263.5 469.458 262.2 470.558 262C473.558 261.7 476.558 261.9 479.858 261.9C480.058 260.3 480.358 259.1 480.358 257.8C480.358 241.8 480.258 225.8 480.458 209.8C480.458 206.1 479.358 204.8 475.658 204.9C469.858 205.2 464.058 205 457.558 205C457.558 209.8 457.758 214 457.458 218.3C457.358 219.5 455.958 220.7 455.158 221.8C454.258 220.6 452.758 219.5 452.658 218.3C452.358 213.5 452.258 208.6 452.758 203.8C452.858 202.5 454.958 200.3 456.258 200.3C474.058 200.1 491.858 200.1 509.658 200.3C510.958 200.3 513.058 202.4 513.158 203.7C513.558 208.7 513.458 213.7 513.258 218.7C513.158 219.8 511.758 220.8 510.958 221.8C510.058 220.7 508.658 219.6 508.458 218.3C508.158 215 508.258 211.6 508.358 208.3C508.458 205.7 507.458 204.7 504.858 204.8C499.658 204.9 494.558 204.9 489.358 204.8C486.958 204.8 485.658 205.4 485.658 208.2C485.758 225.3 485.758 242.5 485.758 259.6C485.858 260.4 486.058 260.9 486.458 262Z" fill="#2E3540"/>
<path d="M558.558 269.3C537.758 269.5 521.158 253.8 520.958 233.9C520.758 214.2 537.158 198.6 558.458 198.3C579.058 198 595.658 213.5 595.858 233.3C596.058 253.7 580.058 269.1 558.558 269.3ZM590.258 234.1C590.258 216.7 576.458 203.1 558.758 202.9C541.058 202.8 526.758 216.4 526.558 233.5C526.458 250.5 540.658 264.2 558.458 264.5C575.758 264.8 590.258 250.9 590.258 234.1Z" fill="#2E3540"/>
</g>
<defs>
<clipPath id="clip0">
<rect width="933.696" height="117.078" fill="white" transform="translate(0.384766 0.569824)"/>
</clipPath>
<clipPath id="clip1">
<rect width="574.7" height="72.3" fill="white" transform="translate(157.058 197)"/>
</clipPath>
</defs>
</svg>
