<svg width="202" height="18" fill="none" xmlns="http://www.w3.org/2000/svg"><path d="M0 4.855C.207 3.28.388 1.73.595.052h15.326c.155 1.885.285 3.77.44 5.655-.13.078-.285.181-.414.259-.803-3.254-1.787-6.25-6.084-5.424-.026.414-.052.827-.052 1.24 0 4.778.026 9.555-.026 14.307-.025 1.136.285 1.575 1.45 1.395a2.432 2.432 0 0 1 1.605.335H3.598c0-.077-.026-.129-.026-.206a149.62 149.62 0 0 0 3.081-.181V.594c-3.055-.62-4.686.516-5.695 3.77C.777 4.933.31 5.397 0 5.914V4.855zm62.777-.335c-.155-.388-.31-.775-.44-1.163-.725-1.962-1.993-2.892-4.09-2.918-1.683-.026-3.34 0-5.204 0 0 2.53 0 4.958.026 7.386 0 .207.285.542.492.594 2.382.671 4.065-.362 4.608-2.79.052-.232.181-.412.466-.567v7.411c-.621-1.058-.984-2.375-1.838-2.944-.932-.62-2.33-.542-3.676-.8v8.935c2.304-.18 4.582-.155 6.783-.568 1.63-.284 2.563-1.653 2.977-3.254.155-.568.259-1.136.362-1.704.13.026.259.026.388.051v3.177C63.605 18 63.605 18 60.913 18H46.96c0-.13-.026-.258-.026-.361.673-.026 1.346.025 1.967-.13.337-.077.88-.49.88-.749.052-5.371.026-10.743.026-16.243-1.035-.052-1.967-.104-2.873-.13V.13h15.895c.078 1.472.181 2.893.259 4.339-.052-.026-.181.026-.31.051zm90.865 13.015h3.055v.284h-9.242c0-.077-.026-.18-.026-.258.958-.052 1.942-.078 3.003-.13V.518c-4.349-.879-5.281 2.246-6.135 5.423-.13-.052-.259-.13-.388-.181.129-1.885.258-3.77.388-5.785H159.7c.155 1.911.311 3.822.466 5.76-.155.102-.311.206-.44.283-.803-3.28-1.761-6.353-6.11-5.5.026 5.655.026 11.26.026 17.018z" fill="#000"/><path d="M18.69 11.957c1.71 0 3.288.026 4.893-.026.26 0 .7-.413.7-.645.077-1.395.025-2.815.025-4.262-.647-.077-1.139-.103-1.657-.155v-.103h4.686c-1.19-.258-.958 1.007-.932 2.221a145.08 145.08 0 0 1 0 6.715c-.026 1.24-.155 2.401 1.631 2.298h-5.41v-.232c.336 0 .673.077.983-.026.26-.078.648-.362.648-.568.051-1.576.025-3.151.025-4.804h-5.617v5.294c.492.052.932.104 1.398.155v.104h-5.126c0-.026-.026-.052-.026-.078.466-.077.906-.155 1.45-.258V7.024a66.405 66.405 0 0 0-1.709-.18V6.74h5.618v.13c-.492.051-.984.077-1.605.129.026 1.575.026 3.176.026 4.958zm78.621.103c0-3.254 2.537-5.991 5.514-5.965 2.874.026 5.411 2.815 5.411 5.965 0 3.125-2.589 5.888-5.489 5.914-2.899.026-5.436-2.737-5.436-5.914zm8.724-.18c-.129-1.163-.181-2.454-.466-3.693-.285-1.24-1.32-1.757-2.537-1.808-1.268-.078-2.563.206-2.977 1.523-.802 2.66-.777 5.424-.026 8.11.337 1.24 1.528 1.807 2.874 1.678 1.579-.129 2.433-.723 2.718-2.118.207-1.162.259-2.35.414-3.692zM81.96 6.327c3.106.723 5.048 4.106 4.168 7.309-.803 2.995-3.961 4.906-6.757 4.08-2.64-.775-4.504-3.951-3.987-6.74.544-2.944 3.21-5.14 5.903-4.881.233.026.466.155.699.232-3.03-.052-4.065.568-4.272 2.867a32.837 32.837 0 0 0 .026 5.526c.181 1.989 1.424 3.048 3.08 2.97 1.865-.077 2.9-1.136 3.03-3.176.077-1.42.025-2.841.077-4.236.104-1.652-.388-3.073-1.967-3.95zm-40.876 8.471v3.073H30.65v-.103c.414-.026.828-.052 1.346-.078V7c-.466-.052-.906-.104-1.372-.155V6.74h9.967c.077.827.129 1.601.207 2.376-1.476-3.099-4.168-2.04-6.653-2.195 0 1.601-.026 2.996.026 4.416 0 .233.414.672.569.646.828-.181 1.683-.388 2.46-.775.31-.155.362-.775.672-1.524v4.442c-.491-.594-.854-1.317-1.45-1.627-.595-.31-1.397-.18-2.277-.258 0 1.756-.026 3.332.026 4.907 0 .206.414.568.647.568a26.673 26.673 0 0 0 3.21-.13c1.76-.154 2.537-1.29 3.054-2.788zM182.118 6.74h10.097c.051.827.103 1.576.129 2.325-1.424-3.048-4.09-1.963-6.575-2.118 0 1.575-.026 3.021.025 4.468 0 .232.441.594.725.62 1.424.18 2.175-.362 2.848-2.17v4.158c-.621-1.55-1.294-1.885-3.521-1.627v5.165c3.806.8 5.644-.026 6.809-3.254v3.59h-10.278c1.346.077 1.372-.775 1.346-1.808-.051-2.996-.025-6.017-.025-9.09a71.301 71.301 0 0 0-1.605-.181c.025-.026.025-.052.025-.078z" fill="#000"/><path d="M95.758 14.023V6.766c-.57-.051-1.087-.103-1.631-.155v-.103h3.34c0 .026 0 .052.025.077-.388.052-.75.13-1.32.207v10.872c-.13.052-.259.104-.362.155-2.563-3.641-5.126-7.308-7.689-10.95l-.233.078v10.382c.518.051 1.035.129 1.553.18 0 .052 0 .13-.026.181h-3.132c0-.026-.026-.077-.026-.103.362-.078.725-.181 1.165-.284V6.766a18.603 18.603 0 0 1-1.398-.18V6.43c1.113 0 2.252-.077 3.34.052.466.052 1.01.44 1.294.826 1.63 2.247 3.21 4.546 4.815 6.844.104-.052.207-.103.285-.129zm97.984.671c.466.672.751 1.137 1.113 1.55 1.217 1.524 3.598 1.937 5.074.723.544-.465 1.113-1.369 1.036-1.988-.078-.698-.803-1.498-1.45-1.86-.829-.465-1.89-.516-2.848-.749-2.071-.516-3.21-1.86-2.951-3.435.285-1.704 1.942-2.892 3.935-2.789.544.026 1.087.233 1.631.31.569.104 1.139.155 1.838.233v2.376c-.466-.672-.751-1.085-1.062-1.447-1.139-1.42-3.391-1.652-4.737-.516-1.165.981-1.035 2.272.362 2.84.907.362 1.916.517 2.874.698 2.977.62 4.297 3.176 2.796 5.552-1.087 1.73-3.391 2.247-5.644 1.343-.543-.206-1.19-.18-1.967-.258v-2.583zm-25.681 2.867c.311.078.674.155 1.036.232v.104h-2.718c0-.026-.026-.078-.026-.104.362-.051.725-.129 1.191-.206V6.999c-.518-.078-.984-.13-1.579-.207.155-.078.207-.103.233-.103 3.831-.284 3.831-.284 5.022 3.383.466 1.446.958 2.892 1.76 4.338.337-.93.699-1.885 1.036-2.815.077.026.129.052.207.078-.699 2.066-1.372 4.132-2.071 6.224h-.311c-.595-1.782-1.191-3.564-1.786-5.32l-1.786-5.346c-.078 0-.13.026-.208.026V17.56zm-51.438.232c.44-.051.906-.103 1.424-.154V7.438l-.233-.078c-.388 1.136-.803 2.273-1.191 3.409-.052-.026-.129-.026-.181-.052.388-1.213.751-2.427 1.191-3.615.077-.207.466-.413.699-.413 1.061-.052 2.122-.026 3.184.155-.44.051-.906.103-1.424.18v10.563c.466.077.958.155 1.45.258 0 .026 0 .078-.026.103h-4.893v-.155zm-44.967-.31c-.957.104-1.993.44-2.899.233-2.822-.646-4.66-3.641-4.194-6.534.492-3.073 3.003-5.268 5.877-5.036.621.052 1.242.336 1.864.465.492.104 1.01.13 1.682.233v2.53c-.31-.542-.491-.903-.699-1.24-.724-1.29-2.174-1.988-3.727-1.755-1.295.206-2.097.981-2.252 2.582-.182 1.911-.26 3.848-.078 5.76.207 2.35 1.346 3.098 3.702 2.814l.776-.077-.052.026zm90.658.156c.596.051 1.114.129 1.606.18v.13h-5.385c.751-.156 1.165-.233 1.657-.336V7.024c-.518-.051-.984-.103-1.424-.129v-.129h5.126c0 .026 0 .078.026.103-.518.078-1.01.13-1.58.207-.026 3.486-.026 6.947-.026 10.563zm-46.338-4.597a8682.92 8682.92 0 0 0-1.553 4.726c-.104.025-.207.025-.337.051-1.139-3.486-2.252-6.947-3.391-10.433-.13.026-.259.026-.414.052v2.892c0 1.937 0 3.874.026 5.81 0 1.447 0 1.447 1.579 1.834h-3.236c0-.026-.026-.052-.026-.077.414-.078.828-.181 1.32-.258V7.05c-.466-.051-.88-.103-1.294-.155v-.18c1.035 0 2.071-.078 3.106.051.363.052.803.568.932.956.751 2.22 1.45 4.467 2.252 7.05.389-.827.622-1.343.829-1.834.103 0 .155.052.207.104zm59.515-6.224h4.09c-.543.077-.957.129-1.475.18v10.666c.518.026.984.052 1.424.104v.154h-4.971v-.103c.44-.051.906-.103 1.528-.18v-3.694c0-1.24.077-2.505-.026-3.718-.13-1.06.595-2.247-.57-3.41zm-38.339 10.665c-1.243.853-2.459.517-3.598-.154-3.806-2.221-3.78-8.42.025-10.64 1.321-.775 2.667-.8 4.065-.13.414.207.932.181 1.553.285v1.988c-.052.026-.104.078-.155.103-.182-.335-.337-.671-.518-1.007a3.106 3.106 0 0 0-3.132-1.6c-1.243.154-2.02.929-2.097 2.117-.156 2.272-.311 4.545-.104 6.792.181 2.014 1.269 2.453 3.987 2.22l-.026.026zm-8.206.465h-4.324c.958.155.906-.93.906-2.117-.051-2.454-.026-4.907-.026-7.36V7.024c-.647-.077-1.164-.129-1.656-.18V6.74h5.177c0 .026.026.078.026.104-.466.051-.906.103-1.527.155-.026.49-.104 1.007-.104 1.497 0 2.505.026 4.985-.026 7.49 0 1.11-.051 2.117 1.554 1.962z" fill="#000"/><path d="M71.682 17.51c.88-.905 1.76-1.808 2.64-2.687v2.35c-.983.13-1.811.207-2.64.31-.026 0 0 .026 0 .026zm65.496 0a169.4 169.4 0 0 1 2.304-2.557v2.169c-.855.13-1.579.258-2.33.387 0-.026.026 0 .026 0z" fill="#000"/></svg>