<svg width="283" height="284" viewBox="0 0 283 284" fill="none" xmlns="http://www.w3.org/2000/svg">
<path d="M283 45.3998C283 109.6 283 173.7 283 237.9C282.9 238.3 282.8 238.6 282.8 239C280.7 260.3 264.5 278.1 243.6 282.2C241.7 282.6 239.8 282.8 237.9 283.1C173.7 283.1 109.6 283.1 45.4 283.1C45.1 283 44.8 282.9 44.5 282.9C24.6 281 7.60002 266.8 2.20002 247.6C1.30002 244.4 0.800024 241.2 0.400024 238C0.400024 173.8 0.400024 109.7 0.400024 45.4998C0.500024 45.0998 0.600024 44.7998 0.600024 44.3998C2.50002 23.0998 18.7 5.1998 39.6 1.1998C41.5 0.799805 43.5 0.599805 45.4 0.299805C109.6 0.299805 173.7 0.299805 237.9 0.299805C238.2 0.399805 238.5 0.499805 238.8 0.499805C258.7 2.3998 275.6 16.5998 281.1 35.7998C282 38.8998 282.5 42.0998 283 45.3998Z" fill="#2E3540"/>
<g clip-path="url(#clip0)">
<path d="M269.6 210.6C269.5 217.3 268.6 223.8 266 230C260.8 242.6 251.2 249.6 237.8 251.6C231.3 252.6 224.9 252.3 218.5 250.6C206.7 247.4 198.8 239.9 195 228.4C191 216.3 191 204 195.3 192C200 178.8 209.9 171.4 223.6 169.3C231.4 168.1 239 168.6 246.4 171.6C257.8 176.2 264.6 184.7 267.7 196.3C268.2 198.2 268.6 200.2 268.9 202.2C269.2 204.9 269.4 207.8 269.6 210.6ZM208.5 210.5C208.8 213.4 209 216.4 209.5 219.3C210.3 224 212 228.3 215.3 231.8C219.6 236.4 225.1 238 231.3 237.9C240.8 237.8 247.8 232.9 250.9 224C254 215.2 253.9 206.3 251.1 197.5C249 190.9 244.8 186.1 238 184C234.8 183 231.5 182.8 228.2 183.1C221.2 183.7 215.9 187 212.4 193.2C209.4 198.6 208.8 204.5 208.5 210.5Z" fill="white"/>
<path d="M134.2 225.6C136.5 225.6 138.8 225.6 141.2 225.6C141.8 225.6 142.2 225.7 142.4 226.5C143.5 233.6 148.1 236.9 154.7 238C158.9 238.7 163.1 238.7 167.2 237.6C171.1 236.5 173.9 234.4 174.6 230.1C175 227.9 174.5 225.8 172.8 224.4C171.1 223 169.2 221.5 167.1 220.7C163.4 219.2 159.6 218.1 155.7 217C150.9 215.6 146.1 214.5 141.4 213C139.1 212.3 136.9 211 134.8 209.7C131.5 207.7 129.8 204.4 128.6 200.9C126.4 194.4 126.6 187.9 129.6 181.6C132.4 175.8 137.2 172.3 143.3 170.5C152.1 167.9 161 167.7 169.9 170C181.6 173 187.1 182.6 187.8 192.6C187.8 193.3 187.6 193.6 187 193.6C183.8 193.6 180.5 193.7 177.3 193.5C174.7 193.4 172.6 191.9 171.5 189.6C168.9 184.3 164.4 182.4 158.9 182C155.8 181.8 152.7 181.8 149.6 182.8C145.9 184 143.5 187 143.2 190.4C143 193.1 144 195.1 146.1 196.6C148.8 198.6 152 199.5 155.2 200.4C161.5 202.1 167.9 203.7 174.2 205.5C176.7 206.3 179.3 207.4 181.5 208.7C187.2 212.2 190 217.6 190.5 224.1C190.7 227.5 190.5 231 189.5 234.3C187.2 241.9 182.2 246.7 174.9 249.3C168.3 251.6 161.4 252 154.5 251.6C150.1 251.3 145.8 250.6 141.8 248.9C132.1 244.7 127.1 237.1 126.2 226.7C126.1 225.6 126.5 225.2 127.6 225.3C129.7 225.6 131.9 225.6 134.2 225.6Z" fill="white"/>
<path d="M99.7 196.9C97.8 196.9 95.9 197 94 196.9C91.3 196.6 89.4 195.1 88.1 192.8C87.8 192.3 87.5 191.8 87.3 191.3C85.1 187.1 81.6 184.8 77.1 184C73.2 183.3 69.3 183.3 65.4 184.2C59.5 185.7 55 189.1 52.8 194.8C48.8 205.1 48.6 215.6 52.8 225.9C55.8 233.3 61.7 237.2 69.8 237.4C71.9 237.5 74.1 237.4 76.2 237C82.8 235.8 86.8 231.7 88.9 225.4C89.8 222.7 89.8 222.7 92.6 222.7C96.5 222.7 100.4 222.7 104.4 222.7C105.2 222.7 105.7 222.9 105.6 223.8C104.7 231.8 101.7 238.9 95.4 244.2C91.4 247.6 86.6 249.7 81.4 250.8C74.2 252.4 66.9 252.5 59.7 250.8C47.2 247.9 39.4 239.9 35.7 227.8C33.5 220.5 33 212.9 33.7 205.3C34.1 201.2 34.6 197.1 35.7 193.2C39.5 179.9 48.5 172 62.2 169.5C69.8 168.1 77.4 168.2 84.9 170.5C96.7 174.1 103.4 182.2 105.2 194.4C105.6 197.1 105.6 197.1 102.8 197.1C101.8 197.1 100.7 197.1 99.7 197.1C99.7 197 99.7 197 99.7 196.9Z" fill="white"/>
<path d="M125.4 210.6C125.4 223.2 125.4 235.9 125.4 248.5C125.4 250.1 125.4 250.2 123.7 250.2C119.4 250.2 115.1 250.2 110.7 250.2C108.9 250.2 108.8 250.2 108.8 248.4C108.8 226.9 108.8 205.4 108.8 183.9C108.8 182.2 108.7 180.5 108.9 178.7C109.3 174.2 112.6 171.1 117.2 171C119.5 170.9 121.8 171 124 171C125 171 125.3 171.3 125.3 172.3C125.3 179.2 125.3 186.1 125.3 193.1C125.4 198.9 125.4 204.8 125.4 210.6Z" fill="white"/>
<path d="M208.4 148.6C208.4 151.2 208.4 153.7 208.4 156.3C208.4 157.2 208.2 157.5 207.2 157.5C205.8 157.4 204.4 157.4 203 157.5C202 157.5 201.7 157.2 201.7 156.2C201.7 151.3 201.7 146.4 201.7 141.4C201.7 138.2 199.1 136.3 196 137.2C194 137.8 193 139 193 141.3C193 146.1 193 151 193 155.8C193 157.4 193 157.4 191.3 157.4C189.9 157.4 188.6 157.4 187.2 157.4C186.6 157.4 186.2 157.2 186.2 156.5C186.3 151 186.2 145.5 186.4 140.1C186.5 136.6 188.4 134.1 191.7 132.8C196.1 131.1 200.3 131 204.5 133.5C204.8 133.7 205.3 133.6 205.6 133.5C210.5 130.8 215.3 131 220.1 133.9C222.7 135.5 223.5 138.3 223.5 141.1C223.6 146.3 223.6 151.4 223.6 156.6C223.6 157.2 223.4 157.6 222.7 157.5C221.9 157.5 221 157.5 220.2 157.5C218.3 157.4 217.1 156.2 217.1 154.3C217.1 150.1 217.1 145.9 217.1 141.7C217.1 138.1 214 136.1 210.7 137.5C209.1 138.2 208.3 139.4 208.3 141.1C208.4 143.6 208.4 146.1 208.4 148.6Z" fill="white"/>
<path d="M108.6 135.2C108.6 132.2 108.6 129.4 108.6 126.7C108.6 124.9 108.6 124.9 110.4 124.9C110.9 124.9 111.4 124.9 112 124.9C113.7 125 115.1 126.3 115.1 128C115.1 134.7 115.2 141.4 115.1 148.2C115 152.5 112.9 155.5 108.7 157C105.6 158.1 102.4 158.4 99.2 157.6C96.1 156.9 93.9 155.1 92.8 152.1C90.9 147 90.9 141.8 93.4 136.9C95.6 132.7 100 130.9 104.3 132.2C105.1 132.5 105.9 132.9 106.6 133.4C107.2 133.7 107.7 134.4 108.6 135.2ZM108.8 144.9C108.5 143.4 108.3 142 107.9 140.7C107.2 138.6 105.5 137.5 103.3 137.5C101.1 137.4 99.5 138.5 98.7 140.5C97.4 143.6 97.5 146.8 98.9 149.8C99.8 151.7 101.4 152.5 103.5 152.5C105.6 152.4 107.1 151.4 107.8 149.4C108.3 147.9 108.5 146.4 108.8 144.9Z" fill="white"/>
<path d="M140.6 132.3C140.4 133 140.3 133.4 140.2 133.9C137.2 142.7 134.3 151.6 131.3 160.4C129.4 165.9 127.6 166.8 121.5 166.6C119.9 166.6 119.9 166.5 119.9 164.8C119.9 164.1 119.9 163.4 119.9 162.8C119.9 161.2 119.9 161.2 121.5 161.2C121.9 161.2 122.4 161.2 122.8 161.1C125 160.7 125.8 159.5 125.1 157.4C124.3 154.9 123.3 152.3 122.5 149.8C120.6 144.4 118.7 139.1 116.9 133.7C116.8 133.3 116.7 132.9 116.5 132.3C118.8 132.3 121 132.2 123.2 132.4C123.5 132.4 123.9 133.1 124.1 133.6C125.5 138.5 126.9 143.4 128.3 148.2C128.4 148.6 128.6 149.1 128.8 149.9C129.7 146.8 130.5 144 131.3 141.2C131.9 139 132.5 136.9 133.2 134.7C133.7 132.9 134.6 132.3 136.4 132.3C137.6 132.3 139 132.3 140.6 132.3Z" fill="white"/>
<path d="M185.4 143.7C185.4 145.3 185.5 147 185.4 148.6C185.2 153.1 182.9 156.2 178.5 157.3C175.9 158 173.2 158.2 170.5 157.7C165 156.7 162.2 150.9 165 146C165.6 145 166.6 144.2 167.6 143.6C169.8 142.2 172.4 142 175 141.6C176.1 141.4 177.1 141.1 178.1 140.7C178.9 140.4 179.4 139.7 179.1 138.9C178.9 138.3 178.3 137.5 177.8 137.4C176.3 137.1 174.8 137.1 173.3 137.1C172.9 137.1 172.4 137.3 172.1 137.6C170.1 139.7 167.7 138.3 165.4 138.6C165.3 138.6 164.9 137.8 165 137.5C165.5 135.4 166.8 133.8 168.8 132.9C173.3 130.9 177.9 131.1 182.4 133.2C184.4 134.2 185.4 136 185.5 138.3C185.5 140.2 185.5 141.9 185.4 143.7C185.5 143.7 185.5 143.7 185.4 143.7ZM179.5 145C177.1 145.6 175.1 146.1 173.2 146.6C172.6 146.8 172.1 147 171.6 147.3C170.6 147.9 170.4 148.9 170.4 150C170.5 151 170.9 151.9 171.9 152.4C174.3 153.5 177.9 152.2 178.8 149.7C179.3 148.3 179.3 146.7 179.5 145Z" fill="white"/>
<path d="M148.4 148.7C148.4 151.2 148.4 153.7 148.4 156.3C148.4 157.3 148.1 157.6 147.1 157.6C145.6 157.5 144.1 157.6 142.7 157.6C142.1 157.6 141.7 157.4 141.7 156.7C141.8 151.2 141.7 145.7 141.9 140.2C142 136.8 143.9 134.4 147.1 133.1C151.4 131.3 155.5 131.5 159.6 133.7C161.7 134.8 162.8 136.6 163.3 138.8C163.6 140.1 163.7 141.5 163.8 142.8C163.9 147.3 163.8 151.8 163.8 156.2C163.8 157.4 163.4 157.8 162.3 157.6C161.8 157.5 161.3 157.6 160.9 157.6C158.4 157.6 157.2 156.4 157.2 153.9C157.2 149.8 157.2 145.7 157.2 141.7C157.2 138.6 155.2 136.9 152.2 137.2C150 137.4 148.6 138.9 148.6 141.1C148.4 143.5 148.5 146.1 148.4 148.7Z" fill="white"/>
<path d="M257.6 140C255.6 140 253.7 140 251.7 140C251.4 140 251 139.6 250.8 139.3C249.6 137.5 247.8 137.2 245.8 137.4C244 137.6 242.8 138.8 242.3 140.5C241.4 143.4 241.4 146.3 242.3 149.1C243.5 152.7 248.1 153.7 250.8 151C251.7 150.1 252.7 149.7 253.9 149.7C254.9 149.7 256 149.7 257 149.7C257.9 149.7 258 150 257.8 150.8C256.6 154.2 254.2 156.4 250.8 157.5C248.5 158.2 246.1 158.3 243.8 157.7C240.1 156.9 237.6 154.6 236.3 151.1C234.9 147.2 234.9 143.2 236.1 139.2C237.5 134.6 241 131.9 245.8 131.9C247.7 131.9 249.7 132.1 251.6 132.7C254.8 133.7 256.7 136.2 257.7 139.3C257.8 139.4 257.8 139.6 257.8 139.8C257.7 139.7 257.6 139.8 257.6 140Z" fill="white"/>
<path d="M226.2 145C226.2 141.2 226.2 137.3 226.2 133.5C226.2 132.6 226.5 132.2 227.4 132.3C228 132.4 228.7 132.3 229.3 132.3C231.4 132.3 232.8 133.5 232.8 135.6C232.9 142.7 232.8 149.8 232.8 156.8C232.8 157.5 232.5 157.8 231.8 157.8C230.3 157.8 228.8 157.7 227.2 157.8C226.3 157.8 226.1 157.4 226.1 156.6C226.2 152.7 226.2 148.8 226.2 145Z" fill="white"/>
<path d="M222.2 127C223.5 125.8 224.9 124.4 226.2 123.1C227.5 124.4 228.8 125.8 230.1 127.1C228.9 128.3 227.5 129.7 226.2 131C225 129.7 223.6 128.3 222.2 127Z" fill="white"/>
<path d="M230.3 117C229 118.4 227.6 119.8 226.2 121.1C224.9 119.8 223.6 118.4 222.3 117.1C223.6 115.8 225 114.4 226.4 113C227.6 114.3 229 115.7 230.3 117Z" fill="white"/>
<path d="M237.2 122C235.9 123.4 234.5 124.8 233.1 126.1C231.8 124.8 230.5 123.4 229.2 122.1C230.5 120.8 231.9 119.4 233.3 118C234.5 119.3 235.9 120.7 237.2 122Z" fill="white"/>
</g>
<defs>
<clipPath id="clip0">
<rect width="236.2" height="139.1" fill="white" transform="translate(33.4 113)"/>
</clipPath>
</defs>
</svg>
