<svg enable-background="new -260 383.9 74 74" viewBox="-260 383.9 74 74" xmlns="http://www.w3.org/2000/svg"><g fill="#fff"><path d="m-259.5 424.6c0-2.5 0-5 0-7.5.1-.5.3-1 .4-1.6 2.6-14.4 10.7-24.2 24.4-29.2 2.6-.9 5.3-1.3 8-2h7.5c.4.1.8.3 1.2.3 15.3 2.6 25.3 11.3 30.1 26 .7 2.1 1 4.3 1.5 6.4v7.5c-.1.5-.3.9-.4 1.4-2.2 14.9-12.9 26.7-27.6 30.4-1.6.4-3.2.7-4.8 1-2.5 0-5 0-7.5 0-.4-.1-.8-.3-1.2-.4-15.3-2.6-25.3-11.3-30.1-26-.7-1.9-1-4.1-1.5-6.3zm36.5 29.5c18.2 0 33.1-14.9 33.2-33.1 0-18.3-14.9-33.3-33.2-33.2-18.2 0-33.1 14.9-33.1 33.1-.1 18.3 14.8 33.2 33.1 33.2z"/><path d="m-222.5 394.3c10.2.1 19.4 6.3 23.3 15.7.1.3.2.5.3.8.5 1.1.4 2.2-.9 2.5-.6.1-1.7-.6-2.1-1.3-1.4-2.2-2.4-4.7-4.1-6.7-5.7-6.6-13-9.1-21.4-7.2-8.3 1.9-13.8 7.1-16.5 15.3-.4 1.3-.4 3.4-2.5 2.7-2-.7-1-2.4-.6-3.7 3.1-10.7 13.2-18.1 24.5-18.1z"/><path d="m-222.6 403.5c6.7 0 12.9 4.5 15.1 10.7.4 1.1.8 2.4-.7 2.9-1.4.5-1.9-.6-2.3-1.7-2.4-6-8.2-9.5-14.1-8.4-6.6 1.2-10.5 6.2-10.9 12.9-.4 6.1-1.3 12.2-2 18.3-.1.5-.1 1.2-.4 1.6-.6.6-1.4 1-2.1 1.5-.4-.8-1.1-1.6-1-2.3.4-2.9 1.1-5.8 1.5-8.8.4-3.6.6-7.3.8-10.9.1-8.8 7.3-15.8 16.1-15.8z"/><path d="m-210.8 424.1c-1 6.7-2.1 13.3-3.1 20-.1.3-.1.8-.3 1-.6.6-1.3 1-1.9 1.5-.4-.7-1.3-1.5-1.2-2.2.5-3.6 1.4-7 1.8-10.6.5-4.4.8-8.8 1-13.2.2-4.3-1.9-7.4-5.5-8.6-3.5-1.3-6.7-.2-9.5 3-.8.9-1.8 1.5-2.6.6-.4-.5-.4-2 .1-2.7 2.4-3.7 7.2-5.4 11.8-4.4 4.3.9 8 4.7 8.7 9 .3 2.2.2 4.4.3 6.6z"/><path d="m-222.7 398.9c.3.2 1.5.8 1.6 1.5.2 1.5-1.1 1.7-2.4 1.8-9.3.5-16.2 7.8-16.7 17.1-.3 5.4-.9 10.7-1.6 16-.1.7-1.2 1.9-1.9 1.9-1.4 0-1.5-1.3-1.3-2.5.6-5.6 1.2-11.3 1.6-16.9.7-10 9.8-18.8 20.7-18.9z"/><path d="m-201.8 424.2c-.6 4.8-1.1 9.6-1.7 14.4-.1 1.3-.5 2.5-2.1 2.1-1.6-.3-1.3-1.6-1.2-2.8.5-5.9 1.3-11.8 1.4-17.7.2-8.3-4.6-14.7-12.5-17.3-1.1-.4-2.4-.7-2-2.3.5-1.6 1.7-1.2 2.9-.9 8.5 2.4 14.7 10.4 14.9 19.3.1 1.7 0 3.4 0 5.2z"/><path d="m-227.7 431.2c.1.6.6 1.4.4 2.1-.7 3.7-1.5 7.4-2.3 11.1-.2 1.2-.9 2-2.2 1.6-1.2-.4-1.3-1.4-1-2.5.8-3.4 1.4-6.9 2.2-10.3.2-.8.6-1.6 1-2.5-.1-.6-.5-1.5-.4-2.3.1-3 .2-6.1.4-9.1.2-3.6 3.2-6.4 6.8-6.6 3.4-.1 6.5 2.5 7 5.9.2 1.1.2 2.4-1.2 2.6-1.5.3-1.8-.9-2-2-.5-2.2-2-3.4-3.9-3.1-1.9.2-3.1 1.7-3.2 3.9-.1 2.7-.2 5.4-.4 8.1-.3 1-.9 2.1-1.2 3.1z"/><path d="m-220.5 422.8c-1.1 7-2.3 14-3.4 21-.2 1.3-.7 2.6-2.4 2.2-1.6-.5-1.3-1.8-1-3.1 1.8-7.2 2.7-14.5 2.8-21.9 0-.6-.1-1.2.1-1.6.3-.6 1.1-1.4 1.5-1.3.6.1 1.5.8 1.7 1.4.3 1 .1 2.2.1 3.3z"/><path d="m-206.3 424.7c-.9 5.9-1.7 11.9-2.5 17.8-.2 1.2-.6 2.3-2 2-1.6-.3-1.3-1.5-1.2-2.8.8-6.9 1.5-13.8 2.2-20.7 0-.4-.1-.9.1-1.2.4-.6 1-1.1 1.5-1.7.6.5 1.6 1 1.7 1.7.2 1.6.1 3.3.1 4.9z"/><path d="m-230.4 422.6c-1.1 6.5-2.2 13-3.3 19.5-.2 1.3-.7 2.4-2.3 2-1.4-.4-1.2-1.6-.9-2.8 1.8-6.8 2.6-13.8 2.7-20.9 0-1.2.2-2.4 1.6-2.4s1.7 1.1 1.7 2.3v2.1c.1.1.3.1.5.2z"/><path d="m-215.5 426.2c-1.1 6.4-2.3 12.9-3.4 19.3-.2 1.2-.8 2.2-2.2 1.9-1.5-.4-1.2-1.6-1-2.7 1-6.7 1.9-13.5 3-20.2.1-.8 1-2 1.7-2.1 1.4-.2 1.7 1.1 1.6 2.3v1.4s.2.1.3.1z"/><path d="m-200.5 421.9c0-1.4-.2-2.8.1-4.1.2-.8 1-1.5 1.6-2.2.6.7 1.6 1.4 1.6 2.2-.1 4.8-.3 9.5-.6 14.2-.1 1.1-.7 2.2-1.9 1.8-.6-.2-1.3-1.4-1.3-2.1 0-3.3.3-6.6.5-9.8z"/><path d="m-244.8 423c-.2 2.4-.3 4.5-.7 6.4-.1.7-1.1 1.2-1.8 1.8-.5-.7-1.4-1.4-1.4-2.1 0-3 .2-6.1.6-9.1.1-.7 1.1-1.3 1.6-2 .5.7 1.3 1.3 1.5 2.1.4 1.1.2 2.2.2 2.9z"/></g></svg>