<svg fill="none" height="74" viewBox="0 0 74 74" width="74" xmlns="http://www.w3.org/2000/svg"><g fill="#2e353f"><path d="m0 40.2456c0-2.4936 0-4.9742 0-7.4677.129199-.5168.297158-1.0336.400518-1.5634 2.558142-14.4057 10.697682-24.17314 24.392782-29.22483 2.5582-.94316 5.3101-1.343674 7.9846-1.98967h7.4677c.3876.116279.7752.284238 1.1757.348838 15.2972 2.583982 25.3101 11.317862 30.1293 26.007862.6847 2.0801.9948 4.2635 1.4728 6.4082v7.4678c-.1292.4522-.31.9044-.3746 1.3824-2.2223 14.9354-12.92 26.7442-27.5841 30.3618-1.5891.4005-3.2041.6848-4.8191 1.0336-2.4936 0-4.9742 0-7.4677 0-.3876-.1163-.7752-.2971-1.1628-.3617-15.3102-2.584-25.3231-11.3179-30.14223-26.0079-.684754-2.0671-.994833-4.2635-1.47287-6.3953zm36.5376 29.4445c18.23-.0129 33.1267-14.8967 33.1525-33.1267.0258-18.3334-14.8967-33.26882-33.2301-33.24298-18.2429.01292-33.11374 14.88378-33.13958 33.11378-.02584 18.3463 14.89668 33.2688 33.21718 33.2559z"/><path d="m37.016 9.92203c10.2197.05168 19.4445 6.29197 23.3076 15.74937.1033.2584.1809.5168.2971.7752.5039 1.1111.3876 2.2481-.8656 2.4806-.6331.1163-1.7054-.6201-2.1447-1.2661-1.447-2.1706-2.4031-4.7158-4.0827-6.6667-5.6719-6.5504-12.9975-9.0827-21.4342-7.2093-8.3333 1.8605-13.8243 7.1447-16.46 15.323-.4134 1.2791-.3746 3.385-2.5193 2.6874-2.0156-.659-1.0078-2.4419-.6331-3.7339 3.1395-10.7494 13.23-18.17833 24.5349-18.13957z"/><path d="m36.925 19.1214c6.6796.0387 12.9458 4.4703 15.1034 10.6977.4005 1.1369.8269 2.4031-.7494 2.9457-1.3953.4781-1.8863-.5555-2.3385-1.6925-2.3643-6.0336-8.1783-9.4961-14.0698-8.4367-6.5504 1.1757-10.5168 6.1757-10.9173 12.9199-.3747 6.1112-1.292 12.1964-1.9897 18.2946-.0646.5427-.0904 1.2274-.4134 1.5763-.5685.6072-1.3695.9948-2.0672 1.4858-.3747-.7752-1.1369-1.6021-1.0465-2.3127.3747-2.9328 1.1499-5.8269 1.4858-8.7597.4134-3.6305.646-7.2868.7623-10.9432.2713-8.8114 7.4548-15.8269 16.2403-15.7752z"/><path d="m48.7468 39.7404c-1.0336 6.6666-2.0672 13.3333-3.1008 20-.0517.3359-.0517.7881-.2584.9819-.5814.5556-1.2662.9949-1.9122 1.4858-.4134-.7364-1.2661-1.5375-1.1757-2.2222.4781-3.553 1.3566-7.0414 1.7701-10.5944.5038-4.3798.8139-8.7984.9819-13.2041.1679-4.2636-1.9251-7.3644-5.4522-8.6305-3.4884-1.2533-6.7313-.2455-9.5091 3.0491-.7881.9302-1.783 1.4987-2.5711.5555-.4393-.5297-.3617-2.0026.0775-2.6744 2.3902-3.708 7.2481-5.4393 11.8476-4.4445 4.3282.9432 8.0233 4.6512 8.6693 9.0052.323 2.1706.2455 4.3928.3488 6.5892.0905.0517.1809.0775.2843.1034z"/><path d="m36.77 14.5215c.2714.2455 1.4858.801 1.6021 1.5375.2455 1.5374-1.0723 1.7312-2.3643 1.8087-9.3153.5168-16.2146 7.7908-16.6538 17.1319-.2584 5.3617-.9303 10.7235-1.6021 16.0465-.0904.7235-1.2145 1.8734-1.8734 1.8734-1.447.0129-1.4599-1.2791-1.3437-2.4806.5556-5.6331 1.1887-11.2533 1.5763-16.8864.6976-10.1163 9.7674-18.9018 20.6589-19.031z"/><path d="m57.752 39.8583c-.5556 4.7932-1.124 9.5865-1.6667 14.3928-.1421 1.279-.5039 2.4677-2.093 2.1447-1.615-.323-1.2662-1.6409-1.1628-2.8424.5168-5.9044 1.2532-11.8088 1.4212-17.7391.2325-8.3075-4.6124-14.7287-12.5065-17.261-1.1499-.3747-2.4419-.7106-1.9638-2.3127.4651-1.5891 1.7312-1.2274 2.9069-.8915 8.4755 2.3644 14.6771 10.3618 14.9355 19.3153.0517 1.7313.0129 3.4497.0129 5.1809.0388 0 .0775.013.1163.013z"/><path d="m31.7957 46.7823c.1292.6202.5556 1.4212.4135 2.1189-.6848 3.7209-1.5117 7.4289-2.2998 11.137-.2455 1.1628-.9044 1.9767-2.1705 1.5891-1.2274-.3747-1.2791-1.3695-1.0078-2.5323.7881-3.4238 1.4341-6.8734 2.2093-10.3101.1809-.8139.6202-1.5891.969-2.4677-.1292-.6331-.4522-1.4729-.4263-2.2997.0775-3.0362.2196-6.0724.4134-9.0957.2326-3.6434 3.1783-6.447 6.783-6.5504 3.4237-.0904 6.5116 2.5194 6.9509 5.8657.155 1.1498.2325 2.3643-1.2403 2.6356-1.4858.2714-1.783-.8527-2.0414-2.0155-.4651-2.1576-2.0284-3.3592-3.9406-3.1266-1.9379.2326-3.1266 1.6925-3.2299 3.9147-.1163 2.6874-.1809 5.3876-.4264 8.0621-.0775 1.0465-.6201 2.0672-.9561 3.0749z"/><path d="m39.0567 38.4632c-1.1369 7.0026-2.2609 13.9923-3.4367 20.982-.2067 1.2532-.6718 2.6356-2.3514 2.1705-1.6408-.4522-1.3049-1.77-.9819-3.062 1.7829-7.1964 2.6615-14.5091 2.8295-21.9122.0129-.5556-.1163-1.2145.1421-1.6279.3488-.5685 1.0594-1.3695 1.5245-1.3179.6331.0776 1.5246.7752 1.6796 1.3696.2713 1.0335.0775 2.1834.0775 3.2945.168.0388.3489.0776.5168.1034z"/><path d="m53.2427 40.3229c-.8527 5.9303-1.6925 11.8605-2.5452 17.7908-.1679 1.2015-.5685 2.2997-2.0284 2.0155-1.6021-.2972-1.3437-1.5375-1.2016-2.7778.7881-6.9122 1.4987-13.8243 2.2352-20.7494.0387-.4134-.1292-.9173.0517-1.2274.3876-.6331.956-1.1499 1.4599-1.7184.5943.5427 1.615 1.0336 1.7054 1.6538.2455 1.615.0776 3.2946.0776 4.9483.0904.0259.1679.0517.2454.0646z"/><path d="m29.083 38.1908c-1.1111 6.5117-2.2093 13.0233-3.3204 19.522-.2196 1.2791-.7364 2.3902-2.2739 1.9638-1.447-.4005-1.2274-1.6279-.9431-2.7519 1.77-6.8476 2.6485-13.7985 2.7261-20.8657.0129-1.2145.1938-2.3514 1.6408-2.3772 1.4341-.013 1.7313 1.0981 1.6925 2.3255-.0258.6848 0 1.3825 0 2.0672.155.0517.323.0775.478.1163z"/><path d="m44.0181 41.8085c-1.1369 6.4471-2.2609 12.8941-3.4237 19.3282-.2068 1.1628-.7623 2.2352-2.2093 1.8605-1.46-.3747-1.2016-1.5892-1.0207-2.7261 1.0077-6.7442 1.925-13.5013 3.0232-20.2326.1292-.8011 1.0336-2.0155 1.6796-2.0801 1.4212-.1551 1.6538 1.0982 1.5763 2.3126-.0388.4781 0 .969 0 1.4471.1033.0258.2325.0516.3746.0904z"/><path d="m59.005 37.5195c0-1.3825-.1938-2.7907.0646-4.1215.155-.8139 1.0077-1.4858 1.5504-2.2222.5685.7235 1.6279 1.447 1.615 2.1705-.0776 4.7546-.3489 9.4962-.6202 14.2378-.0646 1.1499-.6718 2.1964-1.938 1.7571-.6201-.2196-1.2791-1.3954-1.2532-2.1189.0775-3.23.4005-6.4599.6331-9.6899-.013-.0129-.0388-.0129-.0517-.0129z"/><path d="m14.7286 38.5795c-.2326 2.4419-.2843 4.4574-.6977 6.4083-.1421.6977-1.1499 1.2274-1.7571 1.8346-.491-.7106-1.3954-1.4341-1.3954-2.1318.0388-3.0232.2455-6.0723.6202-9.0698.0904-.7106 1.0594-1.3049 1.6279-1.9509.5297.6848 1.3307 1.3049 1.5245 2.0672.2843 1.0336.0776 2.1835.0776 2.8424z"/></g></svg>