<svg fill="none" height="72" viewBox="0 0 399 72" width="399" xmlns="http://www.w3.org/2000/svg" xmlns:xlink="http://www.w3.org/1999/xlink"><filter id="a" color-interpolation-filters="sRGB" filterUnits="userSpaceOnUse" height="71.7148" width="75.0049" x=".411133" y="0"><feFlood flood-opacity="0" result="BackgroundImageFix"/><feColorMatrix in="SourceAlpha" type="matrix" values="0 0 0 0 0 0 0 0 0 0 0 0 0 0 0 0 0 0 127 0"/><feOffset dy="4"/><feGaussianBlur stdDeviation="2"/><feColorMatrix type="matrix" values="0 0 0 0 0 0 0 0 0 0 0 0 0 0 0 0 0 0 0.25 0"/><feBlend in2="BackgroundImageFix" mode="normal" result="effect1_dropShadow"/><feBlend in="SourceGraphic" in2="effect1_dropShadow" mode="normal" result="shape"/></filter><filter id="b" color-interpolation-filters="sRGB" filterUnits="userSpaceOnUse" height="71.7148" width="75.0049" x="81.127" y="0"><feFlood flood-opacity="0" result="BackgroundImageFix"/><feColorMatrix in="SourceAlpha" type="matrix" values="0 0 0 0 0 0 0 0 0 0 0 0 0 0 0 0 0 0 127 0"/><feOffset dy="4"/><feGaussianBlur stdDeviation="2"/><feColorMatrix type="matrix" values="0 0 0 0 0 0 0 0 0 0 0 0 0 0 0 0 0 0 0.25 0"/><feBlend in2="BackgroundImageFix" mode="normal" result="effect1_dropShadow"/><feBlend in="SourceGraphic" in2="effect1_dropShadow" mode="normal" result="shape"/></filter><filter id="c" color-interpolation-filters="sRGB" filterUnits="userSpaceOnUse" height="71.7148" width="75.0049" x="159.395" y="0"><feFlood flood-opacity="0" result="BackgroundImageFix"/><feColorMatrix in="SourceAlpha" type="matrix" values="0 0 0 0 0 0 0 0 0 0 0 0 0 0 0 0 0 0 127 0"/><feOffset dy="4"/><feGaussianBlur stdDeviation="2"/><feColorMatrix type="matrix" values="0 0 0 0 0 0 0 0 0 0 0 0 0 0 0 0 0 0 0.25 0"/><feBlend in2="BackgroundImageFix" mode="normal" result="effect1_dropShadow"/><feBlend in="SourceGraphic" in2="effect1_dropShadow" mode="normal" result="shape"/></filter><filter id="d" color-interpolation-filters="sRGB" filterUnits="userSpaceOnUse" height="71.7148" width="75.0049" x="323.109" y="0"><feFlood flood-opacity="0" result="BackgroundImageFix"/><feColorMatrix in="SourceAlpha" type="matrix" values="0 0 0 0 0 0 0 0 0 0 0 0 0 0 0 0 0 0 127 0"/><feOffset dy="4"/><feGaussianBlur stdDeviation="2"/><feColorMatrix type="matrix" values="0 0 0 0 0 0 0 0 0 0 0 0 0 0 0 0 0 0 0.25 0"/><feBlend in2="BackgroundImageFix" mode="normal" result="effect1_dropShadow"/><feBlend in="SourceGraphic" in2="effect1_dropShadow" mode="normal" result="shape"/></filter><filter id="e" color-interpolation-filters="sRGB" filterUnits="userSpaceOnUse" height="71.7148" width="75.0049" x="240.109" y="0"><feFlood flood-opacity="0" result="BackgroundImageFix"/><feColorMatrix in="SourceAlpha" type="matrix" values="0 0 0 0 0 0 0 0 0 0 0 0 0 0 0 0 0 0 127 0"/><feOffset dy="4"/><feGaussianBlur stdDeviation="2"/><feColorMatrix type="matrix" values="0 0 0 0 0 0 0 0 0 0 0 0 0 0 0 0 0 0 0.25 0"/><feBlend in2="BackgroundImageFix" mode="normal" result="effect1_dropShadow"/><feBlend in="SourceGraphic" in2="effect1_dropShadow" mode="normal" result="shape"/></filter><g filter="url(#a)"><path d="m58.5569 63.7148c-1.4407-.8816-2.8384-1.7202-4.2147-2.5804-5.3973-3.3115-10.8162-6.6015-16.2136-9.9131-.215-.129-.3441-.1075-.5376.0215-6.6446 4.0642-13.3106 8.1283-19.9552 12.1925-.129.086-.2581.1505-.4301.258.0215-.1505.043-.258.0645-.3655 1.8278-7.6338 3.6341-15.2675 5.4834-22.9012.0645-.2366 0-.3871-.1935-.5376-5.935-5.0748-11.8699-10.1712-17.80491-15.246-.10752-.086-.19353-.172-.34406-.3011.88165-.0645 1.67727-.1505 2.49441-.215 3.61256-.301 7.22516-.5806 10.85926-.8816 2.9675-.2366 5.935-.4731 8.9239-.7096.5161-.0431 1.0322-.1076 1.5698-.1291.258 0 .3656-.1075.4731-.344 1.2257-2.989 2.4729-5.9565 3.7201-8.9455 1.7848-4.25766 3.5481-8.53686 5.3328-12.794548.0431-.086014.0861-.172028.1506-.322552.0645.172028.129.301049.172.43007 3.0105 7.22517 5.9995 14.42883 9.01 21.65403.086.2365.215.3225.473.344 3.2901.2581 6.5801.5161 9.8701.7957 2.688.215 5.3544.43 8.0423.6451 1.9139.1505 3.8492.301 5.763.473.0215 0 .0645.0216.1505.0431-.215.1935-.4086.3655-.6021.516-5.8274 4.9889-11.6334 9.9777-17.4608 14.9665-.2366.1935-.3011.387-.2366.6881 1.8278 7.6122 3.6341 15.2245 5.4619 22.8367-.0645.0645-.0645.1505-.0215.3225z" fill="#f4c20d"/></g><g filter="url(#b)"><path d="m139.273 63.7148c-1.441-.8816-2.839-1.7202-4.215-2.5804-5.397-3.3115-10.816-6.6015-16.214-9.9131-.215-.129-.344-.1075-.537.0215-6.645 4.0642-13.311 8.1283-19.9554 12.1925-.129.086-.258.1505-.4301.258.0215-.1505.043-.258.0645-.3655 1.8278-7.6338 3.634-15.2675 5.483-22.9012.065-.2366 0-.3871-.193-.5376-5.9351-5.0748-11.87-10.1712-17.805-15.246-.1075-.086-.1935-.172-.344-.3011.8816-.0645 1.6772-.1505 2.4944-.215 3.6125-.301 7.2251-.5806 10.8592-.8816 2.9674-.2366 5.9354-.4731 8.9244-.7096.516-.0431 1.032-.1076 1.569-.1291.258 0 .366-.1075.473-.344 1.226-2.989 2.473-5.9565 3.721-8.9455 1.784-4.25766 3.548-8.53686 5.332-12.794548.043-.086014.086-.172028.151-.322552.064.172028.129.301049.172.43007 3.01 7.22517 5.999 14.42883 9.01 21.65403.086.2365.215.3225.473.344 3.29.2581 6.58.5161 9.87.7957 2.688.215 5.354.43 8.042.6451 1.914.1505 3.849.301 5.763.473.022 0 .065.0216.151.0431-.215.1935-.409.3655-.602.516-5.828 4.9889-11.634 9.9777-17.461 14.9665-.237.1935-.301.387-.237.6881 1.828 7.6122 3.634 15.2245 5.462 22.8367-.064.0645-.064.1505-.021.3225z" fill="#f4c20d"/></g><g filter="url(#c)"><path d="m217.54 63.7148c-1.44-.8816-2.838-1.7202-4.214-2.5804-5.398-3.3115-10.817-6.6015-16.214-9.9131-.215-.129-.344-.1075-.538.0215-6.644 4.0642-13.31 8.1283-19.955 12.1925-.129.086-.258.1505-.43.258.022-.1505.043-.258.065-.3655 1.827-7.6338 3.634-15.2675 5.483-22.9012.065-.2366 0-.3871-.194-.5376-5.934-5.0748-11.869-10.1712-17.804-15.246-.108-.086-.194-.172-.344-.3011.881-.0645 1.677-.1505 2.494-.215 3.613-.301 7.225-.5806 10.859-.8816 2.968-.2366 5.935-.4731 8.924-.7096.516-.0431 1.032-.1076 1.57-.1291.258 0 .365-.1075.473-.344 1.226-2.989 2.473-5.9565 3.72-8.9455 1.785-4.25766 3.548-8.53686 5.333-12.794548.043-.086014.086-.172028.15-.322552.065.172028.129.301049.172.43007 3.011 7.22517 6 14.42883 9.01 21.65403.086.2365.215.3225.474.344 3.29.2581 6.58.5161 9.87.7957 2.688.215 5.354.43 8.042.6451 1.914.1505 3.849.301 5.763.473.021 0 .064.0216.15.0431-.215.1935-.408.3655-.602.516-5.827 4.9889-11.633 9.9777-17.461 14.9665-.236.1935-.301.387-.236.6881 1.828 7.6122 3.634 15.2245 5.462 22.8367-.065.0645-.065.1505-.022.3225z" fill="#f4c20d"/></g><path d="m381.25 63.7148c-1.44-.8816-2.838-1.7202-4.214-2.5804-5.398-3.3115-10.817-6.6015-16.214-9.9131-.215-.129-.344-.1075-.538.0215-6.644 4.0642-13.31 8.1283-19.955 12.1925-.129.086-.258.1505-.43.258.022-.1505.043-.258.065-.3655 1.827-7.6338 3.634-15.2675 5.483-22.9012.064-.2366 0-.3871-.194-.5376-5.935-5.0748-11.869-10.1712-17.804-15.246-.108-.086-.194-.172-.345-.3011.882-.0645 1.678-.1505 2.495-.215 3.612-.301 7.225-.5806 10.859-.8816 2.968-.2366 5.935-.4731 8.924-.7096.516-.0431 1.032-.1076 1.57-.1291.258 0 .365-.1075.473-.344 1.226-2.989 2.473-5.9565 3.72-8.9455 1.785-4.25766 3.548-8.53686 5.333-12.794548.043-.086014.086-.172028.15-.322552.065.172028.129.301049.172.43007 3.011 7.22517 6 14.42883 9.01 21.65403.086.2365.215.3225.473.344 3.291.2581 6.581.5161 9.871.7957 2.688.215 5.354.43 8.042.6451 1.914.1505 3.849.301 5.763.473.021 0 .064.0216.15.0431-.215.1935-.408.3655-.602.516-5.827 4.9889-11.633 9.9777-17.461 14.9665-.236.1935-.301.387-.236.6881 1.828 7.6122 3.634 15.2245 5.462 22.8367-.065.0645-.065.1505-.022.3225z" fill="#989696"/><g filter="url(#d)"><path d="m381.255 63.7148c-1.441-.8816-2.838-1.7202-4.215-2.5804-5.397-3.3115-10.816-6.6015-16.213-9.9131-.215-.129-.344-.1075-.538.0215-6.644 4.0642-13.31 8.1283-19.955 12.1925-.129.086-.258.1505-.43.258.021-.1505.043-.258.064-.3655 1.828-7.6338 3.635-15.2675 5.484-22.9012.064-.2366 0-.3871-.194-.5376-5.935-5.0748-11.87-10.1712-17.805-15.246-.107-.086-.193-.172-.344-.301.882-.0646 1.678-.1506 2.495-.2151 3.612-.301 7.225-.5806 10.859-.8816 2.968-.2366 5.935-.4731 8.924-.7096.516-.0431 1.032-.1076 1.57-.1291.258 0 .365-.1075.473-.344 1.226-2.989 2.473-5.9565 3.72-8.9455 1.785-4.25766 3.548-8.53686 5.333-12.794548.043-.086014.086-.172028.15-.322552.065.172028.129.301049.172.43007 3.011 7.22517 6 14.42883 9.01 21.65403.086.2365.215.3225.473.344 3.29.2581 6.58.5161 9.87.7957 2.688.215 5.355.43 8.043.6451 1.914.1505 3.849.301 5.763.4731.021 0 .064.0215.15.043-.215.1935-.408.3655-.602.516-5.827 4.9889-11.633 9.9777-17.461 14.9665-.236.1935-.301.387-.236.6881 1.828 7.6122 3.634 15.2245 5.462 22.8367-.065.0645-.065.1505-.022.3225z" fill="#f4c20d"/></g><g filter="url(#e)"><path d="m298.255 63.7148c-1.441-.8816-2.838-1.7202-4.215-2.5804-5.397-3.3115-10.816-6.6015-16.213-9.9131-.215-.129-.344-.1075-.538.0215-6.644 4.0642-13.31 8.1283-19.955 12.1925-.129.086-.258.1505-.43.258.021-.1505.043-.258.064-.3655 1.828-7.6338 3.635-15.2675 5.484-22.9012.064-.2366 0-.3871-.194-.5376-5.935-5.0748-11.87-10.1712-17.805-15.246-.107-.086-.193-.172-.344-.3011.882-.0645 1.678-.1505 2.495-.215 3.612-.301 7.225-.5806 10.859-.8816 2.968-.2366 5.935-.4731 8.924-.7096.516-.0431 1.032-.1076 1.57-.1291.258 0 .365-.1075.473-.344 1.226-2.989 2.473-5.9565 3.72-8.9455 1.785-4.25766 3.548-8.53686 5.333-12.794548.043-.086014.086-.172028.15-.322552.065.172028.129.301049.172.43007 3.011 7.22517 6 14.42883 9.01 21.65403.086.2365.215.3225.473.344 3.29.2581 6.58.5161 9.87.7957 2.688.215 5.355.43 8.043.6451 1.914.1505 3.849.301 5.763.473.021 0 .064.0216.15.0431-.215.1935-.408.3655-.602.516-5.827 4.9889-11.633 9.9777-17.461 14.9665-.236.1935-.301.387-.236.6881 1.828 7.6122 3.634 15.2245 5.462 22.8367-.065.0645-.065.1505-.022.3225z" fill="#f4c20d"/></g></svg>