<?xml version="1.0" encoding="utf-8"?>
<!-- Generator: Adobe Illustrator 19.0.0, SVG Export Plug-In . SVG Version: 6.00 Build 0)  -->
<svg version="1.1" id="Layer_1" xmlns="http://www.w3.org/2000/svg" xmlns:xlink="http://www.w3.org/1999/xlink" x="0px" y="0px"
	 viewBox="0 0 74 74" style="enable-background:new 0 0 74 74;" xml:space="preserve">
<style type="text/css">
	.st0{fill:#2E353F;}
</style>
<g id="XMLID_639_">
	<path id="XMLID_10640_" class="st0" d="M68.9,4.5c-21.4,0-42.5,0-63.8,0c0,14.2,0,28.2,0,42.4c3.2,0,6.3,0,9.3,0
		c0.1-0.3,0.2-0.6,0.1-0.6c-3.4-1.8-2.7-5-2.7-8c0-2.8-0.2-5.6,0.1-8.4c0.1-1.3,1-3.3,1.8-3.5c1.8-0.4,4.3-1.4,5.6,1.4
		c0.1,0.2,0.3,0.4,0.9,1c1.1-3.6,3.9-2.7,6.4-2.7c3.4,0,6.9,0,10.3,0c1.8,0,3.3,0.4,3.4,2.5c0.1,2.2-1.4,2.8-3.3,2.8
		c-3.6,0-7.2,0-11.1,0c0,6.8,0,13.2,0,20c-7.6,0-15,0.1-22.3-0.1c-2.3-0.1-2.9-1.9-2.9-4c0-7,0-14,0-20.9c0-7.4,0-14.7,0-22.1
		C0.6,1.1,1.7,0,5,0C26.3,0,47.7,0,69,0c3.3,0,4.4,1.1,4.4,4.3c0,14.3,0,28.5,0,42.8c0,3.4-1,4.4-4.3,4.4c-8.9,0-17.7,0-26.6,0
		c-1.5,0-3-0.1-3.1-2c-0.1-2,1.3-2.4,3-2.4c7.7,0,15.5,0,23.2,0c1,0,2,0,3.2,0C68.9,32.8,68.9,18.8,68.9,4.5z"/>
	<path id="XMLID_10639_" class="st0" d="M26.9,19.2c0.1,3.3-2.5,5.9-5.7,6c-3.2,0.1-5.9-2.5-6-5.7c-0.1-3.2,2.5-5.9,5.7-5.9
		C24.2,13.4,26.9,15.9,26.9,19.2z"/>
	<path id="XMLID_10638_" class="st0" d="M27.9,74c-3.3,0-5.9-2.6-5.8-5.9c0.1-3.2,2.8-5.9,6-5.8c3.2,0.1,5.8,2.8,5.8,6
		C33.8,71.6,31.3,74,27.9,74z"/>
	<path id="XMLID_10637_" class="st0" d="M46,74c-3.3,0-5.8-2.5-5.8-5.8c0-3.2,2.7-5.9,5.9-5.9c3.2,0,5.9,2.7,5.9,5.9
		C51.8,71.5,49.3,74,46,74z"/>
	<path id="XMLID_10636_" class="st0" d="M15.9,68.3c0,3.3-2.5,5.7-5.9,5.7c-3.3,0-5.8-2.6-5.8-5.8c0-3.2,2.8-5.9,5.9-5.8
		C13.4,62.4,15.9,65,15.9,68.3z"/>
	<path id="XMLID_10635_" class="st0" d="M64,74c-3.4,0-5.9-2.4-5.9-5.7c0-3.3,2.5-5.9,5.7-6c3.1-0.1,5.9,2.6,6,5.8
		C69.8,71.4,67.3,74,64,74z"/>
</g>
</svg>
