<svg width="183" height="66" viewBox="0 0 183 66" fill="none" xmlns="http://www.w3.org/2000/svg">
<path d="M0 48.0299C0.948182 45.8464 1.62546 43.4922 2.90612 41.5283C5.75066 37.1492 9.54339 36.1855 18.2494 37.2834C18.2494 33.5629 18.2494 29.8913 18.2494 26.0001C20.6999 26.0001 22.6702 26.0001 24.9852 26.0001C24.9852 38.6496 24.9852 51.2868 24.9852 64.5706C22.9288 64.1558 21.0694 63.7777 19.2222 63.4117C18.7913 63.3263 18.311 63.058 17.9293 63.1556C6.52645 66.2539 3.73116 65.0341 0 55.2878C0 52.8604 0 50.4451 0 48.0299ZM18.2248 50.8233H18.2125C18.2125 48.9448 18.3233 47.0541 18.1632 45.1878C18.0893 44.3827 17.6584 43.3092 17.0303 42.8823C13.607 40.5769 8.4967 42.2724 7.52389 46.2612C6.8343 49.0668 6.6619 52.1041 6.87124 54.9828C7.0929 58.0324 8.96463 59.5937 12.4003 59.3864C17.6091 59.0692 18.2248 58.6545 18.2248 53.641C18.2371 52.7018 18.2248 51.7625 18.2248 50.8233Z" fill="#2E3540"/>
<path d="M168.819 8.43488C166.498 11.2605 165.029 13.0405 163.535 14.8578C137.808 2.01195 111.574 6.40593 85.3653 11.97C77.3039 13.6877 69.403 16.2519 61.4279 18.4054C60.5761 18.6419 59.6873 18.7415 58.749 18.6045C74.946 11.5343 91.4886 5.63418 108.883 2.36048C123.179 -0.328192 137.487 -1.26176 151.709 2.48495C157.264 3.95376 162.609 6.24411 168.819 8.43488Z" fill="#2E3540"/>
<path d="M80.398 65.3334C77.8862 65.3334 75.8817 65.3334 73.605 65.3334C73.605 52.2141 73.605 39.2552 73.605 26.0001C75.7703 26.0001 77.8491 26.0001 80.3237 26.0001C80.3237 30.4802 80.3237 34.8986 80.3237 39.3416C83.1944 38.3913 85.6443 37.0584 88.2056 36.8115C94.3305 36.2315 98.191 39.5638 98.4508 45.6853C98.723 52.0536 98.5127 58.4344 98.5127 65.1483C96.6195 65.1483 94.8254 65.1483 92.5858 65.1483C92.5858 59.8537 92.6105 54.5961 92.5858 49.3385C92.5611 44.9201 90.804 42.6739 87.3147 42.5628C83.5903 42.4394 80.4475 45.5372 80.4104 49.4619C80.3732 54.5961 80.398 59.7426 80.398 65.3334Z" fill="#2E3540"/>
<path d="M45.1947 57.1546C47.747 57.7685 50.2992 58.3704 52.8515 58.9843C53.6522 59.1769 54.5155 59.7306 55.2161 59.5741C57.2429 59.1408 59.2196 58.4185 61.2089 57.8167C59.8202 56.637 58.6066 55.1203 57.0052 54.374C54.5655 53.2184 51.788 52.7369 49.2733 51.6897C45.8703 50.2693 43.5933 47.9341 44.0312 44.022C44.444 40.3747 46.7711 38.3645 50.3368 37.6061C55.5163 36.4987 60.796 35.8246 65.4877 38.8098C66.964 39.7487 67.6271 41.8793 68.6655 43.4683C67.0516 43.8534 65.4001 44.6599 63.8237 44.5275C61.2714 44.3109 58.7817 43.1433 56.242 43.0349C54.7532 42.9747 53.2018 44.1785 51.688 44.8164C52.8765 45.8998 53.9024 47.3081 55.3037 47.9822C56.7049 48.6563 58.494 48.6683 60.1204 48.8369C65.7754 49.4508 69.5913 52.761 69.5538 57.0824C69.5162 61.3917 65.6879 64.726 59.7451 64.6659C55.6039 64.6177 51.3752 63.8112 47.3716 62.7158C45.9454 62.3306 45.0446 60.1158 43.8936 58.7435C44.3314 58.2259 44.7693 57.6963 45.1947 57.1546Z" fill="#2E3540"/>
<path d="M110.025 43.8634C108.498 43.6667 107.32 43.5191 106.018 43.3593C106.018 41.1956 106.018 39.2039 106.018 36.9418C107.183 36.7451 108.347 36.5484 109.863 36.2902C109.863 32.9954 109.863 29.6637 109.863 26.0001C112.442 26.0001 114.684 26.0001 117.301 26.0001C117.301 29.4056 117.301 32.7373 117.301 36.4746C121.045 36.4746 124.427 36.4746 128.083 36.4746C128.083 38.958 128.083 41.0357 128.083 43.5437C124.69 43.5437 121.296 43.5437 117.464 43.5437C117.464 47.9696 117.201 52.002 117.539 55.9853C117.865 59.7596 121.096 59.8948 124.076 60.0423C125.754 60.1284 128.146 58.69 128.296 62.0585C128.434 65.3902 126.155 65.1935 123.876 65.2796C111.991 65.6976 110.025 63.8903 110.025 52.4323C110.025 49.7276 110.025 47.0229 110.025 43.8634Z" fill="#2E3540"/>
<path d="M132.367 36.844C134.557 36.844 136.572 36.844 139.185 36.844C139.185 42.2396 139.185 47.5007 139.185 52.774C139.595 52.9208 139.993 53.0554 140.404 53.2022C143.502 48.7487 146.761 44.393 149.648 39.8171C151.327 37.1621 153.243 35.9631 156.664 37.0887C151.153 45.9591 145.878 54.9029 140.006 63.4429C138.886 65.0701 135.34 65.0701 132.354 66C132.367 55.7593 132.367 46.5341 132.367 36.844Z" fill="#2E3540"/>
<path d="M164.092 62C167.244 57.2749 170.59 52.6715 173.497 47.8125C178.884 38.8128 179.446 29.9228 171.726 21.4833C172.96 19.4131 174.181 17.3915 175.415 15.3334C182.78 21.4955 184.429 31.6643 181.876 38.9711C178.529 48.5797 171.604 55.5334 164.092 62Z" fill="#2E3540"/>
<path d="M33.0884 39.9998C35.3724 39.9998 37.4702 39.9998 39.8411 39.9998C39.8411 48.1975 39.8411 56.3217 39.8411 64.6665C37.5944 64.6665 35.4841 64.6665 33.0884 64.6665C33.0884 56.4688 33.0884 48.3446 33.0884 39.9998Z" fill="#2E3540"/>
<path d="M174.221 10.214C169.664 17.2341 165.218 24.3163 160.451 31.1876C159.624 32.3783 157.499 32.6388 155.968 33.3334C155.746 32.9737 155.536 32.6264 155.313 32.2667C161.303 24.6264 167.293 16.9737 173.27 9.33337C173.591 9.64345 173.912 9.92872 174.221 10.214Z" fill="#2E3540"/>
<path d="M39.8411 35.9999C37.6359 35.9999 35.5054 35.9999 33.0884 35.9999C33.0884 33.761 33.0884 31.6597 33.0884 29.3333C35.3185 29.3333 37.449 29.3333 39.8411 29.3333C39.8411 31.5096 39.8411 33.6359 39.8411 35.9999Z" fill="#2E3540"/>
</svg>
