<svg width="152" height="56" viewBox="0 0 152 56" fill="none" xmlns="http://www.w3.org/2000/svg">
<g clip-path="url(#clip0)">
<path d="M48.0908 17.8318C52.3708 14.7163 54.392 14.6564 58.7314 17.712C59.5636 18.3111 59.8609 17.9516 60.3959 17.5322C61.882 16.334 63.6059 15.615 65.5676 15.615C69.1342 15.615 71.3931 17.5922 71.512 21.1869C71.6309 24.6619 71.4526 28.1368 71.5715 31.6717C71.6309 34.6074 69.5503 33.3492 68.2426 33.529C66.8753 33.6488 65.1514 34.1281 65.3298 31.5519C65.5081 29.1553 65.3892 26.7588 65.3892 24.3623C65.3892 22.6848 65.1514 20.9473 63.0114 20.8874C60.9903 20.8275 59.9798 22.3253 59.8609 24.1826C59.6825 26.5791 59.6825 28.9756 59.8609 31.3721C60.0986 34.0682 58.3153 33.5889 56.8292 33.529C55.4025 33.529 53.5003 34.188 53.7381 31.432C53.9164 29.0355 53.7975 26.639 53.7975 24.2425C53.7975 22.505 53.4408 20.8874 51.3008 20.8874C49.3986 20.8874 48.5069 22.3253 48.388 24.0627C48.2692 26.3394 48.1503 28.676 48.388 30.9527C48.7447 33.8885 47.0208 33.529 45.178 33.5889C43.1569 33.6488 41.9086 33.529 42.0275 30.8329C42.2652 26.7588 42.0869 22.6848 42.0869 18.5508C42.0869 17.5322 41.4925 15.7948 43.5136 16.0344C45.178 16.2142 47.5558 14.7163 48.0908 17.8318Z" fill="#2E353F"/>
<path d="M75.1973 20.4081C74.7812 16.0344 74.7812 16.0344 78.764 15.4952C80.2501 15.3155 81.6767 15.0159 83.1629 15.2556C88.394 16.1543 90.1179 18.0715 90.1179 23.4636C90.1179 25.6804 90.2368 27.8373 90.0584 30.054C89.999 31.0127 90.9501 32.5704 89.7612 32.87C88.2751 33.2294 86.0756 33.8286 85.0056 32.4506C83.9951 31.1325 83.6979 31.9113 83.044 32.3307C81.7362 33.1096 80.369 33.529 78.8234 33.4691C75.1378 33.4092 72.76 31.3721 72.5817 28.0769C72.4628 25.0813 74.9595 22.505 78.4667 22.1455C79.7151 22.0257 81.0228 22.1456 82.3306 22.0856C82.9845 22.0856 83.9356 22.4451 84.114 21.4865C84.2329 20.468 83.4006 19.8689 82.509 19.5693C80.0717 18.8503 77.7534 19.6292 75.1973 20.4081ZM84.2329 26.3394C84.2923 25.0214 83.1629 25.3808 82.3901 25.3808C80.7851 25.3209 79.0017 25.2011 78.6451 27.2981C78.4073 28.6161 79.3584 29.2752 80.6067 29.3351C82.6279 29.4549 83.6979 28.3765 84.2329 26.3394Z" fill="#2E353F"/>
<path d="M136.604 20.3481C136.009 16.0943 136.069 16.0344 140.171 15.4353C142.013 15.1956 143.856 15.0159 145.758 15.4353C149.682 16.2741 151.703 18.5508 151.762 22.6848C151.822 25.3808 151.881 28.0769 151.703 30.7131C151.643 31.432 152.654 32.7501 151.227 32.8699C149.682 32.9898 147.363 33.8285 146.65 32.3906C145.877 30.8329 145.639 31.6118 144.986 32.0911C143.737 32.9898 142.37 33.4092 140.884 33.4691C137.079 33.5889 134.464 31.4919 134.226 28.1967C133.988 25.261 136.485 22.5649 139.992 22.1455C141.359 21.9658 142.727 22.1455 144.153 22.0856C144.748 22.0257 145.699 22.505 145.818 21.4865C145.937 20.7076 145.342 20.2283 144.688 19.8688C143.44 19.1499 142.013 19.2098 140.646 19.3895C139.279 19.5693 137.971 20.0486 136.604 20.3481ZM143.797 25.261C142.192 25.3209 140.408 25.261 140.052 27.2381C139.814 28.676 141.003 29.2752 142.37 29.2752C144.391 29.3351 145.521 28.1368 145.758 26.2795C145.937 24.8416 144.451 25.6205 143.797 25.261Z" fill="#2E353F"/>
<path d="M118.533 26.8787C118.533 27.6575 118.711 28.4963 118.473 29.2752C118.116 30.5334 119.484 32.5704 118.057 32.87C116.571 33.1695 114.253 34.3678 113.064 31.7915C112.707 31.0726 112.291 31.8514 111.994 32.0911C110.567 33.0497 109.081 33.6488 107.297 33.5889C103.612 33.4691 101.353 31.6118 101.175 28.4963C100.996 25.2011 103.077 22.7447 106.644 22.3253C108.13 22.1456 109.616 22.2654 111.102 22.2654C111.637 22.2654 112.35 22.505 112.588 21.6663C112.766 20.8275 112.231 20.2883 111.577 19.9887C109.556 19.0301 107.535 19.5094 105.455 19.8689C104.801 19.9887 103.671 21.3667 103.374 19.749C103.136 18.5508 102.423 16.8133 104.385 16.2142C107.832 15.1957 111.34 14.6564 114.788 16.2741C117.165 17.3525 118.414 19.2697 118.533 21.9059C118.533 23.4636 118.473 25.1412 118.533 26.8787C118.473 26.8787 118.533 26.8787 118.533 26.8787ZM110.329 25.261C108.724 25.3809 106.941 25.4408 106.881 27.5377C106.822 28.9157 108.07 29.395 109.378 29.3351C111.221 29.2153 112.291 28.0769 112.469 26.3994C112.647 24.6619 111.042 25.6804 110.329 25.261Z" fill="#2E353F"/>
<path d="M151.405 39.041C102.304 39.041 53.2029 39.041 4.10156 39.041C4.10156 38.8613 4.10156 38.7414 4.10156 38.5617C53.2029 38.5617 102.304 38.5617 151.465 38.5617C151.405 38.7414 151.405 38.8613 151.405 39.041Z" fill="#2E353F"/>
<path d="M117.938 15.8547C123.645 15.0159 123.645 15.0159 127.033 21.6063C127.865 16.1542 131.075 15.2555 135.653 16.4538C134.167 19.09 132.859 21.9059 131.135 24.4821C129.708 26.639 129.708 28.9756 129.827 31.3721C129.887 32.6303 129.53 33.4091 128.222 33.0497C126.795 32.6902 123.942 34.188 124.18 31.8514C124.715 25.92 120.732 22.0856 118.592 17.4124C118.295 16.9331 117.7 16.5736 117.938 15.8547Z" fill="#2E353F"/>
<path d="M93.0308 20.4679C93.0308 16.993 93.1497 13.518 92.9714 10.0431C92.8525 7.40693 94.5764 8.06598 95.8842 8.12589C97.2514 8.1858 99.1536 7.2272 99.0942 10.103C98.9753 17.1727 98.9753 24.2424 99.0942 31.3122C99.1536 34.4276 97.0136 33.2294 95.6464 33.3492C94.1603 33.5289 92.6742 33.7087 92.8525 31.2523C93.0903 27.6575 92.9119 24.0627 92.9119 20.5279C92.9119 20.4679 92.9714 20.4679 93.0308 20.4679Z" fill="#2E353F"/>
<path d="M33.6459 8.3656C32.457 14.2371 29.6631 17.712 25.2047 19.809C22.708 21.0072 20.0925 21.9658 17.4175 22.6848C12.1269 24.1227 6.59854 24.7817 1.54574 28.017C1.4863 25.261 2.91297 24.0029 4.45853 22.8046C7.96576 19.9887 12.1863 18.7305 16.3475 17.6521C22.5297 15.9146 28.6525 14.1172 33.6459 8.3656Z" fill="#2E353F"/>
<path d="M33.2296 4.83069C30.7923 11.3612 25.1451 13.4581 19.2601 15.1956C12.4239 17.1727 5.35002 18.6106 0 25.1411C1.12945 18.9102 4.22057 15.0159 9.33281 13.3383C13.3156 12.0202 17.1201 10.2228 21.519 9.92328C25.6801 9.62372 29.544 7.04746 33.2296 4.83069Z" fill="#2E353F"/>
<path d="M29.7819 18.9102C29.7819 23.4636 29.7819 27.5976 29.7819 31.7915C29.7819 33.0497 29.4847 33.7087 28.1175 33.529C27.8203 33.469 27.523 33.529 27.2258 33.529C21.4002 33.5889 21.638 33.5889 21.2814 27.6575C21.103 24.1825 21.8164 22.0856 25.4425 21.2468C26.8097 20.9473 28.0581 19.8688 29.7819 18.9102Z" fill="#2E353F"/>
<path d="M38.9959 24.602C38.9959 26.3994 38.8175 28.1968 39.0553 29.9941C39.3525 32.7501 38.4609 33.5889 35.667 33.4691C33.6458 33.3493 32.6947 33.1096 32.8136 30.7131C33.0514 26.4593 32.992 22.1456 32.8136 17.8318C32.7542 15.3754 34.3592 15.8547 35.5481 16.0344C36.7964 16.2142 38.9959 14.7164 38.9959 17.712C38.9959 20.0486 38.9959 22.3253 38.9959 24.602Z" fill="#2E353F"/>
<path d="M3.86414 14.8362C3.86414 10.2828 3.98303 6.3885 3.80469 2.55408C3.74525 0.756695 4.45858 0.277392 6.06359 0.457131C8.08471 0.696782 11.4136 -0.441562 11.8297 0.936434C12.7214 3.69243 12.1269 6.98763 12.1269 10.0432C12.1269 10.6423 11.5325 10.7022 11.0569 10.882C8.67915 11.8406 6.30137 12.7992 3.86414 14.8362Z" fill="#2E353F"/>
<path d="M74.5435 49.1063C74.5435 48.687 74.5435 48.3275 74.5435 47.9081C74.5435 43.4146 74.5435 43.4146 78.8829 43.5345C82.0929 43.6543 82.9846 44.6728 82.0335 47.7883C81.7363 48.8068 82.2118 49.1663 82.5091 49.8253C83.7574 52.5214 82.3902 54.7981 79.4179 55.0976C74.5435 55.517 74.5435 55.517 74.5435 49.1063ZM78.8829 53.0007C79.4179 52.8209 80.6068 52.8809 80.5474 51.443C80.4879 49.8852 79.3585 49.9451 78.229 49.8852C76.8618 49.8253 76.9212 50.724 76.9212 51.6227C76.8024 52.8809 77.3968 53.2403 78.8829 53.0007ZM78.229 45.5715C77.5751 45.5116 76.8618 45.5116 76.8618 46.7098C76.8618 47.8482 77.3968 48.0279 78.3479 47.968C79.1801 47.968 80.1313 47.968 80.1907 46.9495C80.3096 45.8111 79.4179 45.5715 78.229 45.5715Z" fill="#2E353F"/>
<path d="M50.29 49.1663C50.29 48.8667 50.29 48.5671 50.29 48.2676C50.29 43.2948 51.0628 42.6358 56.1156 43.5344C57.899 43.8939 58.969 45.212 58.434 46.7098C57.5423 49.1063 58.5528 51.2033 58.5528 53.4201C58.5528 54.0192 59.1473 54.858 57.9584 55.0377C56.8884 55.2175 56.5317 54.6183 56.4128 53.7196C56.3534 53.1205 56.294 52.5214 56.1751 51.9222C55.9373 50.6641 54.9862 50.5443 53.9162 50.4843C52.6084 50.4244 52.5489 51.3231 52.6084 52.2817C52.6084 52.7011 52.6084 53.0606 52.6084 53.48C52.6084 54.3188 52.6084 55.0976 51.4195 55.0377C50.2306 54.9778 50.3495 54.0791 50.3495 53.3002C50.29 51.9822 50.29 50.6042 50.29 49.1663ZM54.2728 48.5671C55.4617 48.6869 56.294 48.3275 56.2345 47.0094C56.1751 45.6913 55.1645 45.6314 54.0945 45.5715C53.0245 45.5116 52.5489 45.8111 52.5489 47.0693C52.4895 48.4473 53.2028 48.6869 54.2728 48.5671Z" fill="#2E353F"/>
<path d="M147.66 55.2174C146.412 55.3372 145.223 55.0376 144.391 54.079C143.797 53.3601 142.845 52.3416 143.678 51.5028C144.51 50.6041 145.342 51.2631 145.937 52.3416C146.472 53.3002 147.482 53.5398 148.552 53.0605C149.028 52.8808 149.444 52.5812 149.444 51.9821C149.384 50.664 148.314 50.6041 147.363 50.2446C145.758 49.6455 143.797 49.286 143.797 46.8895C143.797 45.3318 144.272 44.1934 145.758 43.5344C147.363 42.8753 148.849 42.9952 150.217 44.0736C150.989 44.6727 151.822 45.6912 151.049 46.5899C150.395 47.3688 149.444 46.8296 148.849 45.9908C148.314 45.2719 147.601 45.0921 146.769 45.4516C146.293 45.6912 145.877 45.9908 145.996 46.5899C146.234 47.4886 147.125 47.6085 147.839 47.8481C148.374 48.0278 148.968 48.2076 149.503 48.3873C151.346 49.1063 152.119 50.5442 151.643 52.4015C151.168 54.4984 149.682 55.3372 147.66 55.2174Z" fill="#2E353F"/>
<path d="M101.888 52.5213C100.461 52.1618 99.9857 53.0605 99.6885 54.1989C99.3913 55.2773 98.5591 55.2773 97.8457 55.0377C96.6568 54.6782 97.5485 53.8394 97.7268 53.3601C98.559 50.5442 99.5696 47.7283 100.461 44.9124C100.759 44.0137 101.115 43.5943 102.066 43.5943C103.017 43.5943 103.434 44.0137 103.731 44.9124C104.563 47.7283 105.574 50.5442 106.465 53.3601C106.644 53.9592 107.238 54.7381 106.168 55.0377C105.395 55.2773 104.444 55.1575 104.325 54.139C104.028 52.7011 103.196 52.3416 101.888 52.5213Z" fill="#2E353F"/>
<path d="M8.38172 33.529C7.66838 33.529 7.13338 33.6488 6.65782 33.529C5.70671 33.2294 3.92337 34.4277 3.92337 32.4506C3.92337 30.773 2.85336 28.5562 5.40948 27.5976C5.58782 27.5377 5.76615 27.4179 5.94449 27.358C7.90616 26.5791 10.4623 24.8417 11.889 26.0399C13.2562 27.1783 12.5428 30.1739 12.2456 32.2708C11.8295 34.8471 9.45172 32.7501 8.38172 33.529Z" fill="#2E353F"/>
<path d="M12.6021 54.4985C10.4621 55.2175 10.581 55.2175 10.3432 53.1804C10.2243 52.1619 11.1754 50.5443 9.51095 50.1249C7.90594 49.7055 6.36038 49.7654 6.53871 52.3417C6.59816 53.3003 7.43038 55.1576 5.34982 55.0377C3.38815 54.9179 4.45815 53.1804 4.33926 52.2218C4.16093 49.9451 4.27982 47.6085 4.27982 45.3319C4.27982 44.6129 3.92315 43.6543 5.23093 43.5944C6.59816 43.5345 6.47927 44.4332 6.53871 45.3918C6.59816 46.5301 5.88482 48.0879 8.20317 48.0279C9.80817 47.968 10.581 47.6685 10.4026 45.8711C10.3432 45.212 9.86761 44.2534 10.8782 43.7741C12.0671 44.6728 12.0076 45.931 12.0671 47.2491C12.2454 49.6456 11.5321 52.1619 12.6021 54.4985Z" fill="#2E353F"/>
<path d="M28.5332 49.1663C28.5332 49.0464 28.5332 48.9865 28.5332 48.8667C28.5332 43.1151 28.5332 43.1151 34.3588 43.5944C35.1316 43.6543 35.9638 43.5345 35.9043 44.7926C35.8449 45.8711 35.0721 45.5715 34.4182 45.7512C33.1699 46.1107 30.8515 44.6728 30.7921 46.8297C30.7327 49.2262 33.051 47.6085 34.2399 48.0279C34.8343 48.2077 35.3693 48.2676 35.3693 49.0464C35.3693 49.8253 34.8938 50.065 34.2399 50.065C34.121 50.065 34.0616 50.065 33.9427 50.065C32.8132 50.4844 30.4354 48.9865 30.6732 51.6227C30.911 53.9593 33.051 52.2817 34.2399 52.761C34.8938 53.0007 35.9043 52.4615 35.9043 53.7796C35.9638 55.0976 35.191 55.0976 34.1804 55.1576C28.5332 55.4571 28.5332 55.4571 28.5332 49.1663Z" fill="#2E353F"/>
<path d="M26.2153 0.516977C27.1664 1.17602 29.3064 -0.861018 29.782 1.89497C30.1981 4.29149 29.3064 5.84922 26.9286 6.50826C25.2047 6.98757 22.8864 8.66512 21.8164 7.40696C20.8058 6.2087 21.4597 3.63245 21.4003 1.65532C21.3408 0.756629 21.8758 0.457065 22.7081 0.516977C23.8375 0.516977 24.9075 0.516977 26.2153 0.516977Z" fill="#2E353F"/>
<path d="M121.98 49.2261C121.98 47.8481 121.98 46.4701 121.98 45.0322C121.98 44.3732 121.862 43.5943 122.932 43.5943C123.942 43.5943 124.299 44.0137 124.299 45.0322C124.239 46.8895 124.418 48.8067 124.239 50.664C124.121 52.4015 124.774 52.8209 126.379 52.8209C127.271 52.8209 129.114 51.8623 128.995 53.9592C128.936 55.9963 127.212 55.0377 126.261 55.0377C121.98 55.2174 121.98 55.0976 121.98 49.2261Z" fill="#2E353F"/>
<path d="M12.6024 54.4985C11.5324 52.102 12.2458 49.6456 12.1269 47.1891C12.0674 45.871 12.1269 44.6129 10.938 43.7142C12.4241 43.175 12.7808 43.8939 12.7808 45.3318C12.6024 48.3874 12.6024 51.4429 12.6024 54.4985Z" fill="#2E353F"/>
</g>
<defs>
<clipPath id="clip0">
<rect width="152" height="55" fill="white" transform="translate(0 0.277344)"/>
</clipPath>
</defs>
</svg>
