<svg width="163" height="51" viewBox="0 0 163 51" fill="none" xmlns="http://www.w3.org/2000/svg">
<g clip-path="url(#clip0)">
<path d="M151.535 43.1767C151.433 43.188 151.479 43.3014 151.411 43.3468C151.219 43.5623 151.162 43.8459 151.027 44.0955C150.982 44.4698 150.959 44.8441 150.959 45.2184C150.959 46.6817 150.959 48.1449 150.959 49.6082C150.959 50.0619 150.936 50.0846 150.496 50.0846C149.807 50.0846 149.118 50.0732 148.429 50.0846C148.146 50.0846 148.022 49.9938 148.022 49.6876C148.022 46.8405 148.022 43.9934 148.022 41.1463C148.022 40.8627 148.112 40.7266 148.417 40.7379C149.129 40.7493 149.852 40.7493 150.564 40.7379C150.857 40.7379 150.959 40.8514 150.97 41.1463C150.982 41.3845 150.835 41.7361 151.072 41.8382C151.253 41.9176 151.399 41.5546 151.591 41.4072C151.784 41.2597 151.953 41.1009 152.19 41.0215H152.179C152.247 40.8967 152.382 40.9081 152.484 40.874C152.687 40.6585 152.981 40.7152 153.241 40.6358C153.693 40.4997 154.144 40.4997 154.585 40.6358H154.574C154.935 40.6812 155.274 40.772 155.556 41.0102C155.895 41.1803 156.155 41.4185 156.302 41.7815C156.392 41.8269 156.404 41.9403 156.46 42.0197C156.55 42.1558 156.629 42.0991 156.709 42.0083V42.0197C157.239 41.2484 157.951 40.7606 158.889 40.6472C159.363 40.5111 159.838 40.5224 160.312 40.6472L160.323 40.6585L160.335 40.6472C160.707 40.6926 161.057 40.772 161.351 41.0328H161.34C161.6 41.1916 161.803 41.3958 161.95 41.6454C161.995 41.7134 162.04 41.7928 162.085 41.8609C162.266 41.9857 162.266 42.2012 162.334 42.3827C162.628 42.9271 162.661 43.5397 162.661 44.1408C162.684 45.9784 162.673 47.8273 162.673 49.6649C162.673 50.0619 162.628 50.1073 162.244 50.1073C161.543 50.1073 160.843 50.1073 160.131 50.1073C159.713 50.1073 159.691 50.0846 159.691 49.6422C159.691 48.0201 159.691 46.3867 159.691 44.7647C159.691 44.4925 159.679 44.2089 159.623 43.9367L159.634 43.914L159.623 43.8913C159.521 43.7779 159.533 43.6304 159.476 43.5056C159.386 43.4489 159.363 43.3582 159.318 43.2788C159.171 43.1994 159.047 43.0859 158.934 42.9725C158.527 42.825 158.121 42.825 157.703 42.9725H157.714C157.612 43.0519 157.533 43.154 157.398 43.1994L157.409 43.188C157.33 43.2674 157.296 43.3922 157.172 43.4262C157.059 43.4716 157.126 43.6191 157.047 43.6758C156.912 44.0841 156.776 44.5038 156.776 44.9462C156.788 46.5115 156.776 48.0769 156.776 49.6308C156.776 50.0732 156.776 50.0846 156.347 50.0846C155.647 50.0846 154.935 50.0732 154.235 50.0959C153.93 50.1073 153.828 50.0052 153.828 49.6876C153.839 47.9975 153.828 46.3073 153.839 44.6172C153.839 44.1862 153.693 43.8119 153.568 43.4149C153.049 42.723 152.473 42.6662 151.535 43.1767Z" fill="#2E3540"/>
<path d="M59.4396 0.742468C59.5074 0.708439 59.5751 0.685753 59.6429 0.651724C60.332 0.345462 61.0549 0.322776 61.7891 0.368148C62.1054 0.390834 62.433 0.322776 62.7267 0.504265C63.0882 0.606352 63.4948 0.617695 63.7772 0.912613C64.0257 1.08276 64.2742 1.2529 64.534 1.41171C64.647 1.45708 64.7261 1.53648 64.7713 1.64991C64.8616 1.752 64.952 1.84274 65.0537 1.94483C65.2909 2.149 65.4038 2.43258 65.5281 2.70481V2.69347C65.946 3.72568 65.9799 4.75789 65.5394 5.79011C65.4377 5.92622 65.4942 6.15308 65.3022 6.24383C65.1892 6.2892 65.257 6.43666 65.1666 6.49337C65.065 6.57278 65.065 6.73158 64.9181 6.76561C64.8729 6.82232 64.8277 6.87904 64.7826 6.93575C64.7148 7.01515 64.647 7.1059 64.534 7.13993C64.4889 7.19664 64.4437 7.24201 64.3985 7.29873C64.1726 7.49156 63.9241 7.65036 63.6417 7.75245C63.3028 8.01334 62.8848 8.03602 62.4895 8.12677L62.4669 8.11543L62.4443 8.12677C61.7665 8.29691 61.0888 8.28557 60.411 8.12677C60.0157 8.05871 59.609 8.01334 59.2815 7.75245C59.0555 7.68439 58.8522 7.54827 58.6715 7.40082C58.6263 7.36679 58.5698 7.33276 58.5246 7.31007C58.1519 7.03784 57.8582 6.69755 57.6097 6.32323C57.5871 6.27786 57.5645 6.22114 57.5419 6.17577C57.4628 6.08503 57.4402 5.9716 57.395 5.86951C57.2143 5.67668 57.2369 5.41579 57.1691 5.18893C56.9658 4.57641 57.011 3.96388 57.1352 3.35136C57.1804 3.10181 57.203 2.82958 57.395 2.62541C57.4402 2.52332 57.4515 2.39855 57.5532 2.31915V2.33049C57.621 2.2284 57.6548 2.09229 57.7791 2.01289C57.8469 1.89946 57.9259 1.80871 58.0163 1.71797V1.72931C58.4004 1.28693 58.8409 0.90127 59.4396 0.742468Z" fill="#2E3540"/>
<path d="M97.8572 2.0922C97.8798 2.06952 97.9024 2.04683 97.925 2.02415C98.1509 1.74057 98.3881 1.47968 98.6931 1.27551C98.7496 1.13939 98.8852 1.11671 99.0094 1.04865L98.9981 1.05999C99.2127 0.844473 99.5177 0.799101 99.7775 0.674328L99.8001 0.685671L99.8227 0.674328C100.512 0.356723 101.257 0.356723 101.992 0.379409C102.511 0.390752 103.031 0.481497 103.516 0.685671H103.505C103.652 0.776415 103.844 0.765072 103.968 0.912531C104.059 0.980589 104.217 0.94656 104.262 1.09402C104.285 1.11671 104.307 1.12805 104.33 1.15073C104.748 1.30954 104.962 1.67251 105.256 1.97877C105.369 2.04683 105.403 2.18295 105.471 2.28504C105.674 2.52324 105.787 2.80681 105.855 3.12442C106.069 3.6462 106.035 4.20201 106.002 4.74647C105.979 5.00736 106.035 5.30228 105.855 5.54048C105.776 5.8354 105.685 6.13032 105.471 6.37986V6.36852C105.403 6.48195 105.38 6.61807 105.245 6.67478C105.109 6.8903 104.928 7.06044 104.725 7.2079C104.657 7.2873 104.601 7.38939 104.488 7.42342C104.443 7.51417 104.341 7.53685 104.262 7.58222C104.047 7.77505 103.776 7.8658 103.505 7.96789C103.279 8.17206 102.986 8.104 102.726 8.19475C102.681 8.19475 102.647 8.19475 102.602 8.19475C101.924 8.37623 101.246 8.3422 100.568 8.1834C100.173 8.11534 99.7775 8.03594 99.4387 7.79774C99.2014 7.71834 98.9981 7.60491 98.8287 7.42342C98.7044 7.32133 98.5124 7.29865 98.4559 7.10582C98.2978 7.01507 98.1509 6.90164 98.0831 6.72015C97.9589 6.6521 97.9024 6.53867 97.8459 6.41389V6.42524C97.6539 6.19838 97.5522 5.93749 97.4619 5.66525C97.0778 4.73513 97.0778 3.805 97.4619 2.87487C97.5409 2.72741 97.5184 2.52324 97.6878 2.40981C97.7556 2.29638 97.7556 2.17161 97.8572 2.0922Z" fill="#2E3540"/>
<path d="M131.079 49.6081C131.056 49.5854 131.022 49.5627 131 49.54C130.83 49.4606 130.683 49.3472 130.548 49.2224C130.446 49.1203 130.356 49.0296 130.254 48.9275C130.096 48.8027 129.983 48.6439 129.87 48.4851C129.813 48.4057 129.768 48.3263 129.712 48.2469C129.576 48.1562 129.554 47.9974 129.497 47.8612C129.294 47.5323 129.17 47.1693 129.124 46.7837L129.136 46.761L129.113 46.7383C128.932 45.9556 128.932 45.173 129.113 44.3903L129.124 44.3676L129.113 44.3449C129.181 43.9366 129.249 43.5282 129.497 43.1766V43.1879C129.576 42.893 129.757 42.6548 129.949 42.4279V42.4393C130.017 42.2805 130.164 42.1897 130.254 42.0536C130.378 41.9402 130.502 41.8381 130.627 41.7247C130.706 41.6453 130.762 41.5432 130.887 41.5319C130.954 41.4751 131.022 41.4184 131.09 41.373C131.316 41.1916 131.576 41.0895 131.847 40.9987C132.287 40.7038 132.784 40.6811 133.281 40.6244H133.27C133.722 40.4543 134.185 40.5677 134.637 40.545C134.829 40.5337 135.043 40.477 135.213 40.6244C135.247 40.6698 135.292 40.6698 135.326 40.6244C135.653 40.6811 135.981 40.7152 136.297 40.8626C136.489 40.9534 136.568 41.0554 136.568 41.2483C136.568 41.9062 136.568 42.5527 136.568 43.2106C136.568 43.4942 136.433 43.4602 136.263 43.3467C136.218 43.324 136.162 43.29 136.117 43.2673C135.925 43.1312 135.687 43.1085 135.507 42.9611L135.495 42.9497L135.473 42.9611C134.851 42.825 134.23 42.8136 133.609 42.9611H133.62C133.462 43.0745 133.27 43.1312 133.089 43.1993C133.033 43.2787 132.931 43.3014 132.863 43.3467C132.75 43.4942 132.581 43.5736 132.479 43.7211L132.491 43.7097C132.389 43.8685 132.332 44.0387 132.197 44.1748C131.937 45.0368 131.937 45.8989 132.197 46.761C132.242 46.8404 132.276 46.9084 132.321 46.9878C132.445 47.0559 132.513 47.1807 132.57 47.3054C132.592 47.3735 132.637 47.4189 132.705 47.4416C132.92 47.555 133.134 47.6684 133.326 47.8272C134.083 48.0427 134.851 48.0314 135.608 47.8272H135.597C135.857 47.7138 136.094 47.5436 136.365 47.4529H136.354C136.557 47.3395 136.557 47.5096 136.568 47.623C136.58 48.2583 136.58 48.8935 136.568 49.54C136.568 49.7215 136.444 49.8236 136.286 49.8916C135.992 50.0278 135.676 50.1072 135.36 50.1525H135.371C135.258 50.2773 135.089 50.2433 134.953 50.2546C134.219 50.2887 133.496 50.3113 132.762 50.2433C132.671 50.2319 132.592 50.2206 132.524 50.1639L132.502 50.1525L132.479 50.1639C131.948 50.1072 131.519 49.8236 131.079 49.6081Z" fill="#2E3540"/>
<path d="M125.046 49.3133C124.921 49.0638 125.001 48.7802 124.978 48.5193C125.001 48.2471 125.068 47.9975 125.283 47.8047C125.328 47.7593 125.385 47.714 125.43 47.6572C126.13 47.0561 126.91 47.0901 127.61 47.4417H127.599C127.689 47.4758 127.779 47.4984 127.836 47.5892C128.446 48.0316 128.593 48.9277 128.186 49.4608C128.118 49.5629 128.05 49.6536 127.994 49.7557C127.858 49.9485 127.678 50.0733 127.463 50.1414H127.474C126.977 50.3456 126.48 50.3455 125.972 50.1641C125.904 50.13 125.803 50.1754 125.746 50.0847C125.622 49.9826 125.43 49.9599 125.373 49.7671C125.193 49.6536 125.125 49.4721 125.046 49.3133Z" fill="#2E3540"/>
<path d="M93.6888 30.5178C93.6437 30.5745 93.5985 30.6312 93.542 30.6879C93.5872 30.4384 93.655 30.2002 93.8357 30.0073C93.8131 30.1094 93.7905 30.2115 93.7679 30.3136C93.7453 30.3816 93.7114 30.4497 93.6888 30.5178Z" fill="#2E3540"/>
<path d="M138.386 16.9177C138.409 16.9177 138.432 16.9291 138.466 16.9177C138.42 17.0652 138.443 17.2467 138.217 17.258C138.194 17.1106 138.296 17.0198 138.386 16.9177Z" fill="#2E3540"/>
<path d="M25.5067 12.6642C25.5067 12.5508 25.5067 12.4373 25.5067 12.3239C25.518 12.0857 25.405 11.9949 25.1678 12.0063C22.8408 12.0176 20.5252 12.0176 18.1982 12.0063C17.9158 12.0063 17.848 12.1084 17.8593 12.3579C17.8706 12.6869 17.8593 13.0158 17.8593 13.3448C17.8593 13.7191 17.8593 14.1047 17.8593 14.4791C17.8593 14.6265 17.8367 14.7626 17.656 14.5925C17.5882 14.4904 17.5656 14.3316 17.4075 14.2976C17.3623 14.2522 17.3284 14.1955 17.2832 14.1501C17.2042 14.048 17.1929 13.9006 17.046 13.8439C16.8201 13.4809 16.4699 13.254 16.1536 13.0045C15.9277 12.789 15.6792 12.6075 15.3855 12.4827H15.3968C15.1709 12.3125 14.9111 12.1878 14.64 12.097C14.4818 11.9155 14.2446 11.9382 14.0413 11.8588C13.4878 11.5979 12.9004 11.5412 12.3017 11.4845C12.1775 11.3711 12.0193 11.3938 11.8725 11.4051C11.1157 11.4278 10.3588 11.3938 9.60201 11.4959C8.63056 11.6206 7.7043 11.8475 6.81192 12.2445C6.71026 12.2899 6.586 12.3125 6.50693 12.392C6.34879 12.4487 6.17935 12.494 6.05509 12.6188C5.95343 12.6642 5.82917 12.6755 5.7501 12.7776C5.62585 12.857 5.479 12.891 5.36604 12.9931C5.29827 13.0498 5.24179 13.0952 5.17401 13.1519C4.9255 13.2427 4.74477 13.4469 4.54144 13.5943C4.48496 13.6397 4.43978 13.6964 4.3833 13.7418C4.14608 13.98 3.84109 14.1501 3.64906 14.4337C3.45703 14.6152 3.28759 14.8194 3.11815 15.0235C3.07297 15.0802 3.01649 15.1256 2.97131 15.1823C2.91483 15.2958 2.79057 15.3638 2.75669 15.4999C2.65502 15.5793 2.58725 15.6928 2.53077 15.8062C2.4404 15.8516 2.4291 15.9537 2.38392 16.0331C2.27096 16.1351 2.20319 16.2599 2.158 16.4074C2.04504 16.4414 2.04504 16.5548 2.01115 16.6342C1.90949 16.7477 1.84172 16.8838 1.78524 17.0199V17.0086C1.64969 17.2581 1.48025 17.4963 1.40118 17.7685C1.26562 17.8593 1.29951 18.0181 1.24303 18.1429C1.07359 18.313 1.09619 18.5512 1.00582 18.744C0.870268 18.8348 0.915451 19.0049 0.858972 19.1297C0.678237 19.3792 0.700829 19.6855 0.621758 19.9577C0.58787 20.0031 0.553982 20.0598 0.542686 20.1279C0.28288 21.2168 0.124737 22.3284 0.03437 23.4514C-0.0334055 24.4382 -0.0447014 25.4137 0.0230741 26.3892C0.0569618 26.945 0.0682578 27.5122 0.248992 28.0566C0.294176 28.1247 0.271584 28.2041 0.28288 28.2722C0.350656 29.0435 0.576574 29.7694 0.858972 30.4841C0.915451 30.6088 0.870268 30.7676 1.00582 30.8697C1.08489 31.1873 1.22044 31.4936 1.38988 31.7772C1.45766 32.038 1.62709 32.2422 1.77394 32.4691C1.80783 32.6279 1.8982 32.7413 1.99986 32.8547C2.18059 33.2631 2.48558 33.5807 2.75669 33.921C2.80187 33.9777 2.85835 34.0231 2.90353 34.0798C2.97131 34.1592 3.02779 34.2499 3.11815 34.3066C3.17463 34.3634 3.23111 34.4201 3.28759 34.4768C3.34407 34.5675 3.42314 34.6356 3.51351 34.6923C3.61518 34.8398 3.73943 34.9645 3.88628 35.0666C3.94276 35.112 3.98794 35.1687 4.04442 35.2141C4.14608 35.2821 4.23645 35.3729 4.34941 35.4409C4.49626 35.543 4.6544 35.6451 4.80125 35.7472C4.9255 35.8266 5.03846 35.9287 5.17401 35.9627C5.25308 36.1102 5.44511 36.0762 5.55807 36.1896C5.80658 36.3938 6.10028 36.4732 6.39397 36.5639H6.38267C6.50693 36.7 6.68766 36.6546 6.83451 36.7227C7.08302 36.8929 7.38801 36.8815 7.67041 36.9496C7.98669 37.1084 8.33687 37.1197 8.67575 37.1764C9.60201 37.3125 10.5509 37.2899 11.4771 37.2105C11.8951 37.1764 12.313 37.097 12.7084 36.9496C13.1376 36.8929 13.533 36.7567 13.917 36.5639C14.1994 36.4845 14.4593 36.3824 14.6739 36.1896C14.9337 36.1215 15.1483 35.9627 15.3403 35.7926C15.5098 35.7018 15.6905 35.6111 15.8035 35.4409C15.8374 35.4069 15.8825 35.3729 15.9164 35.3389C16.3231 35.0893 16.6055 34.715 16.9331 34.3747C16.9669 34.318 17.0121 34.2613 17.046 34.2046C17.1816 34.1478 17.2268 34.0117 17.3058 33.9096C17.4866 33.7735 17.5656 33.5693 17.6786 33.3765C17.8706 33.3085 17.8706 33.3085 17.8706 33.558C17.9045 34.7944 17.8593 36.0308 17.6108 37.2445H17.6221C17.464 37.6075 17.3623 38.0045 17.238 38.3788C17.1025 38.6283 16.9669 38.8665 16.854 39.1274C16.6845 39.2749 16.6055 39.4791 16.4812 39.6605C16.3457 39.808 16.2214 39.9555 16.1085 40.1143C15.9616 40.171 15.8712 40.2731 15.8035 40.4092C15.7244 40.4886 15.6453 40.5566 15.5663 40.636C15.3855 40.8062 15.1596 40.9196 14.9789 41.1011C14.5609 41.3507 14.1204 41.5662 13.6911 41.793L13.7024 41.7817C13.3297 41.9292 12.9343 42.0086 12.5615 42.156C10.7429 42.5303 8.93555 42.485 7.11691 42.156C6.92488 42.0086 6.68766 42.0653 6.48434 41.9972C5.88565 41.8157 5.29827 41.6002 4.69958 41.396H4.71088C4.42848 41.2259 4.1122 41.1238 3.80721 41.0104C3.72813 40.9196 3.60388 40.8969 3.50222 40.8629C3.37796 40.7381 3.20852 40.6928 3.05038 40.636C2.91483 40.534 2.77928 40.4546 2.64373 40.3752C2.33874 40.2164 2.23707 40.2617 2.23707 40.6134C2.22578 42.5303 2.23707 44.4473 2.23707 46.3529C2.23707 46.5004 2.22578 46.6592 2.39522 46.7386V46.7272C2.91483 47.0335 3.47962 47.2037 4.04442 47.3738C4.85773 47.612 5.70492 47.7935 6.55211 47.8729L6.5747 47.8615L6.5973 47.8729C6.65378 47.9183 6.73285 47.9409 6.80062 47.9523C7.37671 47.9977 7.94151 48.043 8.5176 48.0884C9.99737 48.2132 11.4658 48.1224 12.9456 47.9636C13.1376 47.9409 13.3523 47.9863 13.533 47.8615C14.1091 47.8162 14.6852 47.7141 15.25 47.5666C15.7922 47.4192 16.3457 47.3511 16.854 47.1016C17.0573 47.0335 17.2945 47.0562 17.464 46.8747C17.5882 46.818 17.7577 46.8634 17.8367 46.7272C18.1191 46.6252 18.4241 46.5571 18.6613 46.3529C18.763 46.3076 18.876 46.2849 18.9663 46.2168C19.0002 46.1828 19.0454 46.1601 19.0793 46.1261C19.1809 46.1034 19.2713 46.058 19.3391 45.9786C19.4408 45.9219 19.565 45.9219 19.6328 45.8198C19.7457 45.7631 19.8587 45.7177 19.9491 45.6156C19.9943 45.5816 20.0281 45.5589 20.0733 45.5249C20.4009 45.3207 20.7511 45.1506 20.9996 44.8216C21.0787 44.7536 21.1464 44.6855 21.2255 44.6174C21.6547 44.2998 22.0049 43.8915 22.3664 43.4945C22.4794 43.3357 22.6036 43.1769 22.7166 43.0181C22.8747 42.9954 22.886 42.8252 22.9651 42.7345C23.0441 42.6778 22.9877 42.5417 23.0893 42.485C23.2362 42.4396 23.2588 42.2921 23.3265 42.1787C23.4847 41.9745 23.6202 41.759 23.7106 41.5095C23.8575 41.3507 23.9478 41.1578 24.0043 40.9537C23.993 40.8969 24.0043 40.8516 24.0608 40.8289C24.3093 40.5793 24.3319 40.2277 24.4674 39.9214C24.6482 39.5585 24.7611 39.1728 24.8515 38.7871C25.0548 38.2654 25.1452 37.7209 25.2243 37.1651C25.2243 37.1197 25.2243 37.0857 25.2243 37.0403C25.3937 36.6433 25.3711 36.2123 25.4389 35.7926C25.5518 35.0893 25.518 34.3634 25.5292 33.6488C25.5067 26.6615 25.5067 19.6628 25.5067 12.6642ZM17.3849 28.1134C16.6055 30.087 14.8885 31.3121 12.8213 31.3461C10.9236 31.3801 9.24054 30.2799 8.47242 28.5331C7.6817 26.7409 7.62522 24.8806 7.83985 22.975C8.00929 21.4437 8.43853 20.0145 9.47775 18.8348C10.2798 17.916 11.2964 17.4282 12.5164 17.2921C15.5663 16.9632 17.2832 19.1978 17.7803 21.1828C18.0175 22.1129 17.9723 23.0544 17.9836 24.3135C18.0401 25.4137 17.9158 26.7862 17.3849 28.1134Z" fill="#2E3540"/>
<path d="M135.054 21.6136C135.009 21.1599 135.021 20.6948 134.84 20.2524C134.772 20.1617 134.817 20.0596 134.806 19.9689C134.738 19.4698 134.648 18.982 134.456 18.517C134.377 18.1426 134.286 17.7797 134.083 17.4507C133.993 17.1331 133.891 16.8269 133.699 16.5433C133.631 16.3845 133.597 16.2143 133.473 16.0896C133.371 15.8627 133.281 15.6358 133.089 15.477C133.01 15.3636 132.886 15.2729 132.863 15.1254C132.829 14.9439 132.682 14.8418 132.569 14.7171C132.479 14.6263 132.479 14.4562 132.321 14.4221C132.264 14.3881 132.208 14.3427 132.197 14.2747C131.993 13.9684 131.722 13.7416 131.451 13.5033C131.372 13.3445 131.203 13.2878 131.056 13.2084C131.011 13.1744 130.954 13.129 130.909 13.095C130.807 12.9249 130.615 12.8568 130.457 12.7661H130.468C130.299 12.6413 130.141 12.5165 129.937 12.4598C129.813 12.335 129.644 12.2896 129.486 12.2329H129.497C129.35 12.0855 129.135 12.0855 128.966 12.0061H128.977C128.096 11.6091 127.147 11.507 126.198 11.3935C125.6 11.3255 124.979 11.3822 124.357 11.3822C124.233 11.3822 124.109 11.3709 124.007 11.4729C123.894 11.5297 123.759 11.4956 123.646 11.507C122.798 11.5977 121.974 11.8132 121.217 12.2216C120.923 12.267 120.697 12.4484 120.46 12.6072C120.358 12.6526 120.234 12.6753 120.155 12.7547C120.133 12.7774 120.099 12.8001 120.076 12.8228C119.895 12.8795 119.782 13.0269 119.636 13.129C119.477 13.2538 119.319 13.3786 119.172 13.5033C119.093 13.5601 119.026 13.6395 118.958 13.7189C118.664 13.923 118.449 14.2066 118.212 14.4675C118.167 14.5242 118.111 14.5809 118.065 14.6376C117.941 14.7057 117.919 14.8418 117.839 14.9439C117.704 15.046 117.625 15.1935 117.534 15.3182C117.512 15.3636 117.478 15.409 117.455 15.4657C117.309 15.4543 117.32 15.3409 117.331 15.2502C117.342 14.9666 117.354 14.6717 117.354 14.3881C117.365 9.9303 117.365 5.48384 117.354 1.02603C117.354 0.776488 117.41 0.492913 117.252 0.266052C114.744 0.266052 112.237 0.266052 109.74 0.277395C109.639 0.368139 109.684 0.492912 109.684 0.595C109.684 12.4484 109.684 24.3132 109.684 36.1667C109.684 36.575 109.695 36.5864 110.113 36.5864C112.361 36.5864 114.609 36.5864 116.857 36.5864C117.309 36.5864 117.365 36.5183 117.376 36.0533C117.388 35.4861 117.354 34.919 117.376 34.3518C117.376 34.2497 117.32 34.1023 117.455 34.0569C117.591 34.0115 117.614 34.2043 117.715 34.2384C117.851 34.3858 117.896 34.6014 118.099 34.6921C118.325 35.0437 118.653 35.2819 118.98 35.5315C119.014 35.5542 119.037 35.5882 119.071 35.6109C119.229 35.7697 119.421 35.8718 119.602 35.9739C119.771 36.0873 119.941 36.2234 120.133 36.2801H120.121C120.912 36.7679 121.793 36.9607 122.685 37.1195C123.307 37.2216 123.951 37.2216 124.594 37.2102C125.351 37.1876 126.097 37.1195 126.831 36.8926H126.82C127.238 36.8132 127.656 36.7338 128.028 36.5183C128.345 36.4276 128.65 36.3141 128.932 36.1327H128.921C129.181 36.0646 129.395 35.9058 129.61 35.747H129.599C129.983 35.5315 130.367 35.316 130.649 34.9757C130.672 34.953 130.694 34.9416 130.717 34.919C130.931 34.8055 131.078 34.624 131.259 34.4652C131.372 34.4199 131.44 34.3405 131.485 34.2384C131.666 34.0342 131.869 33.8641 132.016 33.6372C132.151 33.5918 132.151 33.433 132.253 33.3536C132.287 33.2969 132.332 33.2402 132.366 33.1721C132.637 32.9112 132.807 32.5823 132.999 32.2647C133.078 32.208 133.1 32.1172 133.145 32.0378C133.27 31.9131 133.304 31.7429 133.383 31.5955C133.518 31.4253 133.62 31.2438 133.676 31.0283C133.676 30.9602 133.665 30.8808 133.733 30.8241C133.868 30.7674 133.846 30.62 133.902 30.5179C134.072 30.3477 134.06 30.1209 134.128 29.9167C134.332 29.5651 134.422 29.168 134.501 28.771C134.716 28.2039 134.817 27.6254 134.885 27.0242H134.874C135.066 26.5932 135.054 26.1168 135.088 25.6744C135.167 24.3473 135.179 22.9748 135.054 21.6136ZM127.328 23.61C127.305 25.4816 127.102 27.1036 126.357 28.6236C124.933 31.5047 121.624 31.9584 119.568 30.6994C118.201 29.86 117.433 28.5782 117.23 27.0015C117.026 25.3568 117.004 23.7007 117.241 22.0673C117.546 19.9802 118.574 18.3014 120.641 17.5868C123.397 16.634 126.131 17.7456 127.012 21.0238C127.136 21.4888 127.226 21.9539 127.272 22.4303C127.294 22.884 127.339 23.3491 127.328 23.61Z" fill="#2E3540"/>
<path d="M94.8974 24.1091C95.0216 23.7575 95.0329 23.4058 94.8974 23.0542C94.8296 22.6572 94.8861 22.2488 94.8635 21.8518C94.8183 21.0805 94.7392 20.3092 94.5246 19.5605C94.4681 19.0614 94.3439 18.585 94.1518 18.12C94.0728 17.8931 94.0728 17.6436 93.9146 17.4394C93.8694 17.3373 93.8694 17.2125 93.7791 17.1218C93.7565 17.1104 93.7565 17.0991 93.7678 17.0764C93.6887 16.7928 93.587 16.5206 93.4063 16.2937C93.3837 16.2824 93.3837 16.2711 93.395 16.2484C93.3159 16.1123 93.3046 15.9308 93.1465 15.8514C93.0787 15.7266 92.9545 15.6472 92.9432 15.4884C92.9093 15.3976 92.8867 15.2842 92.7737 15.2388C92.7285 15.1708 92.6834 15.1027 92.6495 15.0347C92.5026 14.7284 92.288 14.4789 92.0282 14.252C91.983 14.2066 91.9378 14.1499 91.9039 14.1045C91.8588 13.9911 91.7797 13.9117 91.6667 13.8663C91.599 13.8437 91.5425 13.7983 91.5199 13.7302C91.4747 13.6168 91.3956 13.5374 91.294 13.5034C91.2036 13.3559 91.0455 13.2992 90.9212 13.1971C90.7631 13.027 90.6049 12.8795 90.379 12.8228C90.3564 12.8114 90.3338 12.7888 90.3225 12.7774C90.266 12.6413 90.1305 12.6526 90.0288 12.5959C89.8029 12.4258 89.5544 12.2897 89.272 12.2103C88.967 12.0174 88.6281 11.9153 88.2892 11.8359C87.5324 11.507 86.7191 11.4503 85.9284 11.3936C85.0699 11.3255 84.2001 11.3482 83.3529 11.4957C82.8898 11.5751 82.4154 11.6658 81.9748 11.8473C81.8167 11.8927 81.6473 11.8927 81.5117 12.0061H81.523C81.1728 12.1195 80.834 12.2443 80.5403 12.4598H80.5516C80.4499 12.5052 80.3143 12.5052 80.2353 12.6073C80.1675 12.664 80.0997 12.7094 80.0319 12.7661C79.8286 12.8682 79.6366 12.9702 79.4897 13.1404C79.3203 13.2425 79.1396 13.3332 79.0266 13.5147C78.9475 13.6055 78.812 13.6508 78.7442 13.7529C78.6312 13.7869 78.5748 13.8777 78.507 13.9684C78.4279 14.0478 78.3601 14.1272 78.2811 14.1953C78.1568 14.3427 78.0213 14.4902 77.9083 14.649C77.7615 14.7851 77.6485 14.9439 77.5242 15.1027C77.4678 15.1821 77.4226 15.2615 77.3661 15.3296C77.2532 15.3976 77.1741 15.3636 77.1515 15.2388C77.1289 15.1141 77.1402 14.9893 77.1402 14.8645C77.1402 10.1912 77.1402 5.50654 77.1402 0.833222C77.1402 0.651734 77.1967 0.447559 77.0611 0.288757C74.5534 0.288757 72.0457 0.288757 69.538 0.288757C69.4364 0.379501 69.4703 0.504275 69.4703 0.606362C69.4703 12.4598 69.4703 24.3133 69.4703 36.1554C69.4703 36.5751 69.4703 36.5864 69.8769 36.5864C72.1361 36.5864 74.3953 36.5864 76.6545 36.5864C77.0837 36.5864 77.1063 36.5524 77.1063 36.144C77.1063 35.5428 77.1063 34.9303 77.1063 34.3291C77.1063 34.2044 77.0498 33.9662 77.3322 34.0909C77.3774 34.1476 77.4339 34.2044 77.4791 34.2611C77.8067 34.7148 78.1794 35.1118 78.62 35.4408H78.6087C78.8911 35.747 79.2525 35.9285 79.5914 36.1327C80.1675 36.5297 80.8114 36.7452 81.4778 36.8927H81.4665C81.7828 37.0515 82.133 37.0741 82.4719 37.1195C83.3529 37.2443 84.2453 37.2443 85.1264 37.1649C85.6121 37.1195 86.1091 37.0628 86.5836 36.8927V36.904C87.0015 36.8133 87.4195 36.7339 87.7922 36.5183C88.0859 36.4389 88.3796 36.3368 88.6281 36.144C89.0913 35.9625 89.5205 35.713 89.9046 35.3954C89.9723 35.3387 90.0401 35.282 90.1079 35.2366C90.684 34.8396 91.1923 34.3518 91.6328 33.8074C91.7684 33.762 91.7684 33.6032 91.8701 33.5238C91.9152 33.4671 91.9491 33.399 91.9943 33.3423C92.1525 33.3196 92.1525 33.1381 92.2541 33.0587C92.3332 33.002 92.2767 32.8659 92.3897 32.8205C92.5365 32.7751 92.5591 32.6277 92.6269 32.5143V32.5256C92.7737 32.3328 92.898 32.1286 93.0109 31.9131C93.1126 31.845 93.1239 31.7202 93.1691 31.6068C93.3159 31.4934 93.3272 31.3119 93.4063 31.1531C93.5306 31.0397 93.508 30.8468 93.6096 30.7107C93.6209 30.4385 93.8017 30.2457 93.892 30.0074C94.0389 29.7692 94.0953 29.497 94.1518 29.2248L94.1405 29.2021L94.1518 29.1794C94.3552 28.7143 94.4568 28.2153 94.5246 27.7162C94.5133 27.6935 94.5133 27.6821 94.5246 27.6594C94.5924 27.5914 94.615 27.5006 94.6263 27.4212C94.6827 26.8995 94.7844 26.389 94.8409 25.8672C94.8974 25.2888 94.807 24.6876 94.8974 24.1091ZM86.3125 28.2833C84.9683 31.5501 81.4552 31.9698 79.3655 30.6767C78.0213 29.8486 77.3096 28.5896 77.0385 27.0469C76.8917 26.2189 76.9369 25.3908 76.9369 24.5628C76.9143 23.3604 76.9369 22.1694 77.287 21.0011C77.9422 18.8006 79.8738 17.2466 82.1217 17.2466C84.2679 17.2466 85.9171 18.154 86.6852 20.5814C87.4872 23.179 87.3404 25.7878 86.3125 28.2833Z" fill="#2E3540"/>
<path d="M162.932 22.5322C162.887 22.0785 162.921 21.6021 162.718 21.1711C162.65 20.6266 162.559 20.0822 162.333 19.5831C162.062 18.5735 161.622 17.6434 161.046 16.7813V16.7927C160.978 16.6906 160.944 16.5545 160.82 16.4864C160.696 16.3049 160.628 16.0894 160.447 15.9533C160.368 15.8512 160.323 15.7151 160.187 15.6584C160.142 15.613 160.108 15.5676 160.063 15.5109C159.803 15.1139 159.442 14.8077 159.08 14.5127C158.956 14.4447 158.866 14.3539 158.787 14.2405C158.617 14.0477 158.436 13.8548 158.188 13.7641C158.131 13.6847 158.03 13.6507 157.951 13.6166C157.928 13.6053 157.905 13.5826 157.894 13.5713C157.612 13.3444 157.341 13.1289 156.99 13.0155C156.911 12.9247 156.787 12.9134 156.685 12.8567C156.55 12.7432 156.392 12.6865 156.234 12.6298C155.782 12.3689 155.296 12.2328 154.799 12.0967C154.551 11.9265 154.246 11.9379 153.963 11.8698C153.048 11.4955 152.065 11.5295 151.105 11.4274C150.315 11.3367 149.501 11.4047 148.711 11.4047C148.575 11.4047 148.428 11.3707 148.315 11.4842C147.615 11.5295 146.903 11.5636 146.214 11.745C145.627 11.9038 145.017 11.9832 144.463 12.2441C144.113 12.3235 143.786 12.4256 143.481 12.6185C143.368 12.6865 143.209 12.6638 143.108 12.7773C142.803 12.8793 142.543 13.0608 142.272 13.231C142.057 13.265 141.91 13.4238 141.752 13.5486L141.764 13.5372C141.572 13.6393 141.38 13.7528 141.221 13.9116C141.052 14.0136 140.86 14.093 140.758 14.2745C140.645 14.388 140.453 14.4106 140.397 14.5808C140.001 14.8871 139.663 15.2614 139.335 15.6244C139.29 15.6811 139.233 15.7264 139.188 15.7832C139.086 15.9193 138.962 16.0214 138.883 16.1688C138.838 16.2482 138.781 16.3163 138.736 16.3957C138.578 16.5318 138.533 16.736 138.409 16.8948C138.352 17.0309 138.284 17.1557 138.194 17.2691C138.183 17.2804 138.16 17.2918 138.149 17.3031C138.059 17.3825 138.036 17.5073 137.991 17.6207C137.855 17.7341 137.833 17.927 137.754 18.0744C137.674 18.1652 137.652 18.2786 137.607 18.3807C137.449 18.5282 137.471 18.7437 137.381 18.9138C137.257 19.0386 137.29 19.2201 137.223 19.3675C137.053 19.5717 137.076 19.844 136.997 20.0708C137.008 20.0935 137.008 20.1048 136.997 20.1162C136.771 20.6833 136.703 21.2845 136.624 21.8857C136.624 21.9311 136.624 21.9651 136.613 22.0105C136.409 22.6343 136.511 23.2922 136.398 23.9274C136.262 24.7441 136.5 25.5608 136.522 26.3775C136.522 26.5363 136.522 26.7065 136.613 26.8539C136.635 26.8653 136.635 26.888 136.613 26.8993C136.692 27.5005 136.771 28.1017 136.985 28.6688C137.008 28.6802 137.008 28.7028 136.985 28.7142C137.087 28.941 137.031 29.2133 137.211 29.4175C137.257 29.5422 137.245 29.701 137.358 29.8031L137.369 29.8258L137.358 29.8485C137.437 30.1321 137.528 30.4043 137.72 30.6425C137.742 30.6538 137.742 30.6652 137.731 30.6879C137.821 30.9374 137.934 31.1756 138.104 31.4025C138.171 31.5386 138.183 31.6974 138.318 31.7881C138.375 31.8675 138.42 31.9469 138.476 32.0263C138.612 32.1965 138.669 32.412 138.849 32.5481C138.94 32.6389 138.951 32.7863 139.075 32.843C139.132 32.9565 139.233 33.0472 139.301 33.1493C139.674 33.5236 140.058 33.8979 140.431 34.2723C140.589 34.4311 140.77 34.5332 140.95 34.6579C141.018 34.8394 141.21 34.8508 141.334 34.9528C141.38 34.9869 141.436 35.0096 141.481 35.0436C141.662 35.2024 141.854 35.3385 142.08 35.4066C142.362 35.6675 142.724 35.7809 143.074 35.9283C143.221 36.0871 143.435 36.0645 143.605 36.1552C143.695 36.2346 143.819 36.28 143.932 36.3253C144.689 36.5636 145.446 36.8358 146.237 36.9152C146.655 37.0967 147.107 37.0853 147.547 37.1307C148.711 37.2668 149.897 37.2555 151.06 37.1761C151.67 37.142 152.269 37.0626 152.856 36.9038C153.398 36.8358 153.929 36.711 154.438 36.5182C154.799 36.4161 155.161 36.314 155.499 36.1439C155.951 35.9964 156.392 35.8036 156.787 35.5427C157.126 35.4293 157.397 35.2024 157.691 34.9982H157.68C158.03 34.7714 158.369 34.5445 158.662 34.2382C159.08 33.8979 159.476 33.5463 159.803 33.1153C159.894 33.0472 159.984 32.9905 160.018 32.8771C160.244 32.6842 160.402 32.4347 160.549 32.1851C160.616 32.0944 160.684 31.9923 160.741 31.9016C160.933 31.7201 161.046 31.4819 161.159 31.255C161.204 31.1756 161.238 31.0849 161.283 31.0055C161.43 30.892 161.475 30.7219 161.531 30.5518C161.644 30.4724 161.633 30.3362 161.678 30.2228C161.667 30.1661 161.678 30.1207 161.735 30.0867C161.882 29.9959 161.836 29.8258 161.915 29.7124C162.108 29.3494 162.22 28.9751 162.3 28.5781C162.537 28.0449 162.605 27.4778 162.684 26.9106C162.751 26.8312 162.763 26.7292 162.774 26.6271C162.989 25.2659 163.056 23.8934 162.932 22.5322ZM154.63 28.0676C153.941 30.1207 152.37 31.221 150.202 31.3117C148.88 31.3685 147.626 31.187 146.508 30.4156C145.333 29.5989 144.768 28.3966 144.463 27.0581C144.26 26.162 144.181 25.2432 144.181 24.7214C144.181 22.8272 144.362 21.3526 145.073 20.0028C145.954 18.3353 147.332 17.4279 149.219 17.2918C150.461 17.201 151.648 17.3371 152.732 17.995C153.873 18.6756 154.528 19.7532 154.844 21.0009C155.432 23.3716 155.42 25.7423 154.63 28.0676Z" fill="#2E3540"/>
<path d="M54.707 22.6458C54.6844 22.3735 54.7183 22.1013 54.594 21.8404C54.594 21.7951 54.594 21.761 54.594 21.7157C54.5375 21.0918 54.4246 20.4679 54.2099 19.8781V19.8894C54.1196 19.4924 54.0179 19.1068 53.8259 18.7438C53.7355 18.5736 53.7581 18.3581 53.6 18.2107C53.5548 18.1086 53.5435 17.9838 53.4531 17.9044C53.3853 17.7456 53.3628 17.5755 53.2272 17.4507C53.0917 17.1444 52.9335 16.8608 52.7076 16.6113C52.6398 16.4865 52.5946 16.3277 52.4591 16.2483C52.4026 16.1235 52.3235 16.0215 52.2106 15.9421C52.1654 15.8967 52.1315 15.84 52.0863 15.7946C52.0298 15.6812 51.9395 15.5791 51.8491 15.4883V15.4997C51.5215 15.0686 51.1488 14.6943 50.7195 14.3654C50.6743 14.2179 50.5162 14.2179 50.4258 14.1272C50.3129 13.9457 50.1208 13.8663 49.9627 13.7642C49.4996 13.3785 48.9912 13.0723 48.4377 12.8454C48.3813 12.8568 48.3361 12.8454 48.3135 12.7887C48.2344 12.6299 48.065 12.6753 47.9407 12.6072C47.6583 12.4257 47.3533 12.301 47.0257 12.2329C46.6191 12.0287 46.1899 11.9266 45.738 11.8472C45.4217 11.6884 45.0603 11.6884 44.7327 11.609C44.247 11.4843 43.7386 11.5183 43.2529 11.4616C43.1626 11.3708 43.0496 11.3708 42.9366 11.3822C41.92 11.4389 40.9034 11.3481 39.8754 11.4616C38.9944 11.5637 38.1246 11.6884 37.2774 11.8813C36.9272 11.9607 36.5657 12.0174 36.2495 12.2102C35.8993 12.2783 35.5717 12.403 35.2667 12.5959C35.1425 12.6639 34.9956 12.6639 34.8827 12.7547H34.8939C34.781 12.8568 34.6003 12.8227 34.5099 12.9702C34.0468 13.163 33.6175 13.4012 33.2335 13.7302C33.1431 13.7642 33.0527 13.7869 33.0075 13.889C32.9172 13.9797 32.7703 13.9911 32.7138 14.1158C32.6348 14.1612 32.5444 14.1839 32.4992 14.2746C32.3863 14.3087 32.3185 14.3994 32.262 14.4902C32.0248 14.6376 31.8779 14.8645 31.6633 15.0346H31.6746C31.4713 15.2048 31.2906 15.3976 31.1324 15.6131C31.0759 15.6698 31.0308 15.7265 30.9743 15.7833C30.2513 16.6567 29.6527 17.5981 29.2573 18.6644V18.653C28.8845 19.5038 28.6247 20.3885 28.5005 21.3073C28.3084 21.761 28.331 22.2601 28.2746 22.7365C28.1503 23.8368 28.1616 24.9371 28.2746 26.0373C28.3197 26.5024 28.2971 26.9902 28.4892 27.4325C28.5569 27.9543 28.6473 28.4647 28.8619 28.9525C28.9297 29.3268 29.0314 29.6898 29.2347 30.0187C29.3025 30.325 29.4267 30.5972 29.6188 30.8581C29.6978 31.0169 29.7204 31.1871 29.8447 31.3118C29.8899 31.3912 29.935 31.4706 29.9915 31.55C30.0706 31.6748 30.0819 31.8336 30.2174 31.913C30.2626 31.9924 30.3191 32.0718 30.3643 32.1399C30.5111 32.2987 30.5337 32.5482 30.7484 32.6617C30.8387 32.8431 30.9743 32.9793 31.1211 33.1154C31.2002 33.2855 31.347 33.399 31.4939 33.501C31.5955 33.6485 31.7198 33.7733 31.8666 33.8754C31.9231 33.9661 31.9909 34.0342 32.0813 34.1022C32.1378 34.1476 32.1942 34.2043 32.2507 34.2497C32.375 34.3518 32.4992 34.4539 32.6235 34.5559C32.6461 34.5786 32.6687 34.6013 32.7025 34.624C32.872 34.7601 33.0414 34.9076 33.2447 34.9983C33.3351 35.1344 33.5046 35.1344 33.6175 35.2365C33.674 35.3159 33.7644 35.3386 33.8434 35.384C33.9112 35.4861 34.0468 35.4861 34.1371 35.5428C34.5438 35.781 34.9504 36.0419 35.4249 36.1553C35.7411 36.3822 36.1252 36.4275 36.4867 36.5296C36.6448 36.6657 36.8481 36.6204 37.0176 36.6771C37.3339 36.8472 37.684 36.8245 38.0229 36.9039L38.0455 36.8926L38.0681 36.9039C38.4748 37.0628 38.9153 37.0854 39.3445 37.1308C40.5419 37.2556 41.7393 37.2556 42.9366 37.1762C43.524 37.1422 44.1227 37.0628 44.6988 36.9039C45.6138 36.7792 46.4948 36.5069 47.342 36.144C47.6244 36.0305 47.9407 35.9852 48.1779 35.7696C48.6637 35.6108 49.0703 35.3273 49.4657 35.021C49.6012 34.9643 49.7368 34.8962 49.8271 34.7828C49.9627 34.7034 50.1095 34.624 50.2112 34.4879C50.3354 34.3858 50.5049 34.3291 50.584 34.1816C51.0132 33.8527 51.386 33.4784 51.7135 33.0473C51.8491 33.002 51.8491 32.8431 51.9508 32.7751C51.9959 32.7184 52.0298 32.6503 52.075 32.5936C52.2332 32.5596 52.2332 32.3894 52.3235 32.31C52.4026 32.2533 52.3461 32.1172 52.4591 32.0718C52.6059 32.0265 52.6285 31.879 52.6963 31.7656C52.8544 31.5614 52.99 31.3459 53.0804 31.0963C53.2385 30.8808 53.374 30.6539 53.4531 30.4044C53.5548 30.3023 53.5322 30.1435 53.6113 30.0301C53.7581 29.8826 53.7468 29.6671 53.8372 29.497C53.9614 29.3722 53.9614 29.202 53.9953 29.0432C54.1648 28.8164 54.1422 28.5215 54.2212 28.2719C54.2099 28.2492 54.2099 28.2379 54.2325 28.2152C54.4585 27.6254 54.5375 27.0015 54.6053 26.3776C54.6053 26.3323 54.6053 26.2982 54.6053 26.2529C54.7973 25.4248 54.7409 24.5741 54.7747 23.7347C54.7747 23.3831 54.7408 23.0088 54.707 22.6458ZM47.0032 23.7801C46.9919 25.6857 46.845 27.1943 46.1899 28.6122C45.4443 30.2343 44.1566 31.0963 42.417 31.2892C41.3326 31.4139 40.2595 31.3232 39.2316 30.9262C37.8083 30.3704 36.9159 29.3041 36.4754 27.8749C35.7524 25.5496 35.7298 23.2129 36.4754 20.8876C37.0967 18.948 38.6555 17.4393 41.0163 17.2919C42.4057 17.2011 43.7161 17.3826 44.8682 18.2333C45.8171 18.9366 46.3367 19.9348 46.6417 21.0578C46.9128 22.0673 47.0258 23.0995 47.0032 23.7801Z" fill="#2E3540"/>
<path d="M147.028 45.2297C147.028 44.8327 147.107 44.4016 146.892 44.0273C146.836 43.7664 146.836 43.4942 146.667 43.2787C146.633 43.1652 146.633 43.0405 146.531 42.9611C146.441 42.7342 146.339 42.5187 146.158 42.3599C146.068 42.1784 145.966 42.0082 145.785 41.9062C145.639 41.668 145.39 41.5432 145.175 41.3844C144.972 41.2256 144.758 41.0668 144.498 41.0101C144.08 40.7265 143.594 40.6925 143.108 40.6244L143.074 40.6357C142.442 40.4883 141.821 40.4996 141.188 40.6357H141.199C140.702 40.6698 140.205 40.7605 139.765 41.0101C139.482 41.0895 139.234 41.2029 139.019 41.4071C138.85 41.4978 138.669 41.5999 138.556 41.77C138.409 41.8721 138.285 41.9969 138.183 42.133C138.138 42.1897 138.082 42.2465 138.036 42.3032C137.923 42.3712 137.878 42.496 137.822 42.6208C137.709 42.6888 137.709 42.8136 137.664 42.9157C137.539 43.0405 137.506 43.222 137.438 43.3694V43.3581C137.314 43.4828 137.347 43.6643 137.291 43.8118C137.246 43.8572 137.212 43.9139 137.201 43.9706C137.042 44.7646 137.065 45.57 137.121 46.3753C137.144 46.761 137.223 47.1693 137.438 47.521C137.46 47.6004 137.483 47.6684 137.517 47.7478C137.585 47.8386 137.562 47.9747 137.675 48.0427C137.743 48.1675 137.822 48.2923 137.89 48.4171C137.98 48.5532 138.07 48.6893 138.183 48.8027C138.308 48.9275 138.432 49.0523 138.567 49.1884C138.68 49.2451 138.748 49.3699 138.872 49.4039C139.042 49.6194 139.302 49.6875 139.539 49.8009C139.878 50.0618 140.273 50.1185 140.68 50.1752C140.736 50.2319 140.804 50.2546 140.883 50.2546C141.651 50.3227 142.419 50.3113 143.187 50.2546C143.266 50.2433 143.334 50.2319 143.391 50.1752C143.82 50.1185 144.227 50.0164 144.588 49.7896C144.678 49.7669 144.758 49.7215 144.825 49.6534C144.972 49.6081 145.096 49.54 145.198 49.4152C145.413 49.2564 145.661 49.143 145.808 48.9048C145.842 48.8481 145.887 48.7914 145.921 48.7347C146.057 48.6779 146.09 48.5418 146.181 48.4511C146.26 48.3944 146.192 48.2469 146.305 48.2129C146.655 47.7705 146.859 47.2601 146.926 46.6929C147.107 46.1938 147.028 45.6947 147.028 45.2297ZM144.091 45.3658C144.102 45.9556 144.012 46.5114 143.786 47.0219C143.481 47.7024 142.769 48.0995 142.013 48.0541C140.985 47.986 140.375 47.5323 140.115 46.5908C139.889 45.7401 139.889 44.8667 140.205 44.0273C140.533 43.1652 141.267 42.7342 142.306 42.7909C143.131 42.8363 143.752 43.3921 143.967 44.2428C144.057 44.6285 144.102 45.0141 144.091 45.3658Z" fill="#2E3540"/>
<path d="M57.5982 24.2678C57.5982 20.3545 57.5982 16.4525 57.5869 12.5391C57.5869 12.1761 57.6547 12.04 58.0613 12.0514C60.2979 12.0741 62.5345 12.0627 64.7711 12.0514C65.0874 12.0514 65.1778 12.1421 65.1778 12.4597C65.1665 20.3545 65.1665 28.2492 65.1778 36.1326C65.1778 36.4275 65.11 36.5523 64.7824 36.5523C62.5232 36.5409 60.2641 36.5409 58.0049 36.5523C57.6886 36.5523 57.5982 36.4615 57.6095 36.1439C57.5982 32.1852 57.5982 28.2265 57.5982 24.2678Z" fill="#2E3540"/>
<path d="M97.7779 24.3017C97.7779 20.3657 97.7779 16.441 97.7666 12.505C97.7666 12.1307 97.8796 12.0513 98.2297 12.0513C100.466 12.0626 102.703 12.074 104.928 12.0513C105.301 12.0513 105.357 12.1987 105.357 12.5163C105.346 20.377 105.346 28.2491 105.357 36.1098C105.357 36.4274 105.278 36.5522 104.94 36.5408C102.68 36.5295 100.421 36.5295 98.162 36.5408C97.8457 36.5408 97.7666 36.4387 97.7666 36.1325C97.7779 32.1965 97.7779 28.2491 97.7779 24.3017Z" fill="#2E3540"/>
</g>
<defs>
<clipPath id="clip0">
<rect width="163" height="50" fill="white" transform="translate(0 0.277344)"/>
</clipPath>
</defs>
</svg>
