<svg width="200" height="33" viewBox="0 0 200 33" fill="none" xmlns="http://www.w3.org/2000/svg">
<path d="M89.4506 0.313494C89.4506 3.83814 89.4506 7.34471 89.4506 10.8874C89.9554 10.9236 90.0816 10.5621 90.2799 10.3271C91.3075 9.13415 92.3171 7.95926 93.3087 6.74823C93.6151 6.38673 93.9397 6.24213 94.3904 6.24213C96.2834 6.2602 98.1764 6.24213 100.069 6.2602C100.322 6.2602 100.664 6.15175 100.809 6.45903C100.935 6.76631 100.61 6.92898 100.43 7.10973C99.1319 8.41114 97.8699 9.7487 96.5177 10.9778C95.7425 11.6827 95.7966 12.225 96.2834 13.0564C97.8518 15.6954 99.3662 18.3705 100.881 21.0276C101.494 22.094 101.44 22.1663 100.25 22.1663C98.7172 22.1663 97.1848 22.1301 95.6524 22.1663C94.8771 22.1844 94.4445 21.8771 94.1199 21.1902C93.4168 19.69 92.6416 18.2259 91.9385 16.7257C91.632 16.075 91.3976 16.075 90.8207 16.5088C89.5768 17.4668 89.3244 18.6778 89.3965 20.16C89.5046 22.3832 89.6669 22.1663 87.3953 22.1663C86.3677 22.1663 85.3581 22.1663 84.3305 22.1663C83.2488 22.1663 83.1586 22.0759 83.1406 20.9733C83.1406 16.1834 83.1406 11.3935 83.1406 6.60363C83.1406 4.48884 83.1226 2.39213 83.1226 0.277344C85.2499 0.313494 87.3593 0.313494 89.4506 0.313494Z" fill="#2E353F"/>
<path d="M122.345 0.277344C122.345 1.38442 122.345 2.50965 122.362 3.61673C122.379 4.21564 122.137 4.48787 121.548 4.48787C120.145 4.46972 118.742 4.45157 117.322 4.46972C116.681 4.46972 116.456 4.14304 116.473 3.52598C116.473 2.43705 116.456 1.36627 116.456 0.277344C118.43 0.277344 120.387 0.277344 122.345 0.277344Z" fill="#2E353F"/>
<path d="M0 3.32425C0.379953 2.77891 0.741814 2.23357 1.37507 1.90636C2.73205 1.17923 4.68609 1.57915 5.33744 2.72438C6.27828 4.41494 6.06116 5.65106 4.63181 6.54179C3.14818 7.46888 1.21223 6.99624 0.217116 5.43292C0.126651 5.34203 0.0723721 5.25114 0 5.14207C0 4.54219 0 3.92413 0 3.32425Z" fill="#2E353F"/>
<path d="M183.09 32.2773C182.53 31.9382 181.898 31.6704 181.627 31.0099C181.501 30.7243 181.248 30.3495 181.663 30.1531C182.042 29.9746 182.566 29.7425 182.855 30.2959C183.216 30.9921 183.794 31.0635 184.462 30.9385C184.751 30.885 184.968 30.7243 185.004 30.4209C185.022 30.1353 184.805 29.9924 184.57 29.9032C184.083 29.7425 183.595 29.6176 183.108 29.4569C182.042 29.0999 181.537 28.368 181.663 27.4755C181.79 26.6187 182.548 26.0296 183.631 25.976C184.552 25.9225 185.473 25.976 186.015 26.8686C186.213 27.1899 186.502 27.6361 186.105 27.9039C185.744 28.136 185.202 28.1538 184.877 27.7254C184.534 27.2791 184.137 27.0114 183.559 27.1899C183.361 27.2434 183.144 27.3327 183.108 27.5647C183.072 27.8325 183.288 27.9396 183.487 28.011C183.83 28.136 184.173 28.2431 184.516 28.3323C185.491 28.6001 186.358 28.9393 186.484 30.1174C186.611 31.2955 185.834 31.8132 184.931 32.2595C184.281 32.2773 183.686 32.2773 183.09 32.2773Z" fill="#2E353F"/>
<path d="M176.125 32.2773C175.889 32.0421 175.687 31.9516 175.315 32.0783C174.522 32.3497 174.286 32.1145 174.269 31.2459C174.252 29.7983 174.269 28.3507 174.269 26.9211C174.269 26.3964 174.32 25.944 174.978 25.9621C175.585 25.9802 175.653 26.3964 175.636 26.8849C175.602 27.5002 175.653 27.844 176.395 27.5907C177.205 27.3373 177.931 27.8621 178.268 28.7307C178.774 30.0335 178.369 31.7707 177.154 32.2773C176.8 32.2773 176.463 32.2773 176.125 32.2773ZM177.121 29.943C177.07 29.4002 177.087 28.7849 176.412 28.7126C175.72 28.6583 175.585 29.2735 175.585 29.8164C175.585 30.3773 175.67 31.0469 176.361 31.083C177.053 31.1373 177.053 30.4678 177.121 29.943Z" fill="#2E353F"/>
<path d="M121.966 32.2773C120.904 31.5194 120.493 30.4909 120.75 29.1916C120.989 27.9826 121.897 27.333 122.993 27.6758C123.559 27.8563 123.644 27.6397 123.61 27.1525C123.593 26.9721 123.61 26.7916 123.61 26.6112C123.593 26.142 123.833 25.9796 124.244 25.9615C124.655 25.9615 124.895 26.142 124.895 26.5931C124.895 28.2352 124.895 29.8773 124.895 31.5375C124.895 32.2232 124.398 32.2412 123.987 32.0969C123.576 31.9525 123.285 31.9706 122.993 32.2773C122.651 32.2773 122.308 32.2773 121.966 32.2773ZM122.017 29.8954C122.068 30.4548 122.137 31.0683 122.788 31.1044C123.473 31.1225 123.576 30.4909 123.593 29.9495C123.61 29.4082 123.507 28.7766 122.839 28.7585C122.154 28.7225 122.068 29.336 122.017 29.8954Z" fill="#2E353F"/>
<path d="M129.196 32.2773C128.591 31.9109 128.152 31.4572 128.298 30.7069C128.445 29.9566 129.068 29.7647 129.745 29.5553C130.13 29.4506 130.936 29.5553 130.771 29.0319C130.606 28.5258 130.038 28.9446 129.635 29.1365C129.269 29.311 128.793 29.311 128.573 28.9621C128.353 28.6305 128.665 28.299 128.976 28.0896C129.8 27.5487 130.698 27.5313 131.577 27.8802C132.382 28.1943 132.382 28.8923 132.382 29.5728C132.382 30.1486 132.309 30.7593 132.437 31.3002C132.639 32.1203 132.236 32.225 131.577 32.1377C131.192 32.0854 130.807 31.9458 130.478 32.2773C130.057 32.2773 129.617 32.2773 129.196 32.2773Z" fill="#2E353F"/>
<path d="M194.257 32.2773C192.635 31.4849 192.564 29.6886 193.199 28.6143C193.693 27.8042 194.645 27.452 195.562 27.7514C196.426 28.0332 197.097 28.9841 197.044 29.8295C197.026 30.2345 196.814 30.393 196.426 30.393C195.95 30.393 195.492 30.393 195.016 30.393C194.786 30.393 194.522 30.3225 194.381 30.5867C194.31 30.7276 194.416 30.8685 194.522 30.9741C194.733 31.1855 194.998 31.2207 195.245 31.0798C195.527 30.9389 195.703 30.6043 196.091 30.6924C196.338 30.7628 196.673 30.7276 196.779 30.9918C196.903 31.2559 196.709 31.5201 196.515 31.6786C196.25 31.9075 195.933 32.066 195.65 32.2597C195.192 32.2773 194.716 32.2773 194.257 32.2773Z" fill="#2E353F"/>
<path d="M150.542 32.2773C149.501 31.8356 148.945 31.0581 148.945 29.9625C148.945 29.0614 149.358 28.3192 150.219 27.9128C151.349 27.365 152.587 27.6831 153.197 28.6549C153.879 29.7328 153.645 31.1641 152.659 31.8886C152.443 32.0476 152.192 32.1536 151.959 32.2773C151.493 32.2773 151.026 32.2773 150.542 32.2773ZM152.139 30.0332C152.121 29.4324 152.013 28.867 151.349 28.8493C150.667 28.8316 150.416 29.3618 150.416 29.9802C150.416 30.5633 150.632 31.0758 151.277 31.0934C151.941 31.1111 152.121 30.581 152.139 30.0332Z" fill="#2E353F"/>
<path d="M170.437 32.2773C169.202 31.644 168.683 30.8524 168.79 29.744C168.898 28.7589 169.542 28.0024 170.509 27.7385C171.618 27.4395 172.674 27.8793 173.158 28.8292C173.677 29.8496 173.39 31.2218 172.549 31.8551C172.334 32.0134 172.102 32.1366 171.869 32.2773C171.386 32.2773 170.902 32.2773 170.437 32.2773ZM170.133 30.0255C170.276 30.5709 170.419 31.1866 171.153 31.1338C171.851 31.0811 172.012 30.5181 171.994 29.92C171.958 29.357 171.762 28.8293 171.099 28.8644C170.383 28.882 170.24 29.4626 170.133 30.0255Z" fill="#2E353F"/>
<path d="M136.795 32.2773C136.517 32.1362 136.22 32.048 135.98 31.8716C135.665 31.6422 135.238 31.307 135.553 30.9542C135.831 30.672 136.369 30.5132 136.795 30.9013C137.054 31.1306 137.295 31.36 137.684 31.2894C137.869 31.2541 138.073 31.2188 138.11 31.0071C138.166 30.7778 137.944 30.7072 137.777 30.672C137.369 30.5485 136.943 30.4779 136.535 30.3368C135.905 30.1251 135.461 29.737 135.479 29.0489C135.516 28.3786 135.924 27.9728 136.591 27.7964C137.388 27.5671 138.184 27.5671 138.888 28.0257C139.185 28.2198 139.611 28.5021 139.333 28.8549C139.111 29.1548 138.629 29.2254 138.24 29.0313C137.851 28.8372 137.295 28.3256 137.091 28.8549C136.906 29.3312 137.758 29.2254 138.129 29.3841C138.759 29.6135 139.481 29.684 139.63 30.4955C139.815 31.4305 139.185 31.8892 138.462 32.2773C137.906 32.2773 137.351 32.2773 136.795 32.2773Z" fill="#2E353F"/>
<path d="M164.826 32.2773C164.353 31.9697 163.897 31.6259 163.775 31.0107C163.704 30.6669 163.599 30.2507 164.073 30.124C164.423 30.0336 164.844 29.9431 165.037 30.4317C165.159 30.7755 165.352 31.0469 165.738 30.9383C166.176 30.8116 166.158 30.4136 166.158 30.0517C166.158 28.966 166.176 27.8803 166.158 26.8127C166.158 26.3422 166.229 25.9803 166.807 25.9622C167.42 25.9441 167.508 26.306 167.508 26.8308C167.491 27.9165 167.473 29.0022 167.508 30.0698C167.543 31.1193 167.175 31.8792 166.211 32.2773C165.755 32.2773 165.3 32.2773 164.826 32.2773Z" fill="#2E353F"/>
<path d="M190.797 32.2774C190.207 31.9223 190.017 31.3898 189.998 30.7684C189.979 30.0228 190.131 29.295 189.541 28.5849C189.103 28.0879 190.379 26.4192 191.083 26.3837C191.426 26.3659 191.445 26.5789 191.426 26.792C191.407 27.2358 191.559 27.502 192.035 27.7506C192.568 28.0346 192.511 28.5139 191.959 28.869C191.159 29.366 191.235 30.6442 192.054 31.1235C192.587 31.443 192.397 31.8691 192.149 32.2596C191.673 32.2774 191.235 32.2774 190.797 32.2774Z" fill="#2E353F"/>
<path d="M200 5.95263C199.863 6.13933 199.744 6.32604 199.607 6.49577C199.01 7.15772 198.038 7.19167 197.44 6.56366C196.86 5.9696 196.929 4.91726 197.594 4.3911C198.277 3.84796 199.215 4.00071 199.727 4.74753C199.846 4.90029 199.915 5.087 200 5.25673C200 5.49435 200 5.73198 200 5.95263Z" fill="#2E353F"/>
<path d="M176.43 7.89121C176.7 7.9274 176.791 7.71022 176.935 7.56543C178.557 5.91845 180.575 5.57458 182.756 5.84606C183.928 5.99085 184.973 6.51571 185.658 7.49304C186.163 8.19888 186.469 8.19888 187.046 7.58353C188.686 5.84606 190.777 5.48408 193.011 5.91845C195.3 6.37092 196.616 8.05409 196.886 10.5336C197.139 12.814 196.977 15.1126 197.031 17.393C197.067 18.6599 197.031 19.9268 197.031 21.1937C197.031 21.8815 196.76 22.1711 196.057 22.153C194.652 22.1168 193.228 22.1168 191.822 22.153C191.065 22.1711 190.831 21.8634 190.849 21.1394C190.885 18.6418 190.849 16.1442 190.867 13.6285C190.867 13.1217 190.849 12.615 190.686 12.1082C190.47 11.3481 190.02 10.8232 189.191 10.7508C188.343 10.6784 187.64 10.9499 187.244 11.7462C186.811 12.5969 186.775 13.538 186.775 14.4791C186.775 16.6872 186.757 18.8771 186.793 21.0851C186.811 21.8453 186.577 22.1711 185.766 22.153C184.378 22.0987 183.009 22.0987 181.621 22.153C180.81 22.1892 180.593 21.8272 180.593 21.0851C180.611 18.3522 180.611 15.6012 180.575 12.8683C180.557 11.529 180.071 10.8775 179.097 10.7508C177.926 10.606 177.151 11.2214 176.809 12.5426C176.646 13.1398 176.646 13.7371 176.646 14.3343C176.646 16.5967 176.628 18.859 176.664 21.1213C176.682 21.8996 176.376 22.1892 175.601 22.1711C174.213 22.1349 172.843 22.1349 171.456 22.1711C170.789 22.1892 170.464 21.972 170.464 21.248C170.482 16.5243 170.482 11.7824 170.464 7.05867C170.464 6.40712 170.717 6.15373 171.384 6.17183C172.645 6.20803 173.907 6.22613 175.168 6.17183C175.997 6.13563 176.322 6.44331 176.25 7.25775C176.304 7.43874 176.232 7.69212 176.43 7.89121Z" fill="#2E353F"/>
<path d="M59.5767 15.9487C59.6492 17.0951 59.3957 18.7692 59.7216 20.4069C60.0837 22.2084 60.1199 22.1902 58.2006 22.1902C57.2591 22.1902 56.3357 22.1538 55.3942 22.1902C54.688 22.2266 54.2897 21.9173 54.1629 21.2622C54 20.3341 53.674 20.6071 53.1127 20.9892C50.4692 22.7907 47.6446 23.0818 44.6933 21.8263C42.9913 21.0802 42.1946 19.6608 42.1946 17.8412C42.1765 15.9669 43.0637 14.6021 44.7838 13.8379C46.6307 13.019 48.6224 12.837 50.5598 12.3457C51.2659 12.1638 51.9539 11.9818 52.642 11.7634C53.0403 11.6361 53.5111 11.5633 53.5111 10.9992C53.493 10.3987 53.1852 9.96195 52.642 9.74359C51.284 9.19768 49.5458 9.72539 48.7491 10.9628C48.5137 11.3267 48.2602 11.4541 47.8619 11.3995C46.3953 11.2175 44.9287 11.0538 43.4621 10.9082C42.9008 10.8536 42.7378 10.5988 42.8645 10.0529C43.1724 8.74276 43.8966 7.76014 45.0192 7.03226C46.1599 6.28619 47.4636 5.92226 48.7853 5.84947C50.7951 5.74029 52.823 5.64931 54.8329 5.99505C57.7842 6.48636 59.5405 8.56079 59.5767 11.5997C59.5948 12.8916 59.5767 14.1654 59.5767 15.9487ZM53.5835 15.6575C53.7103 14.9115 53.3662 14.7113 52.6058 15.0025C52.1893 15.1662 51.7367 15.2572 51.3021 15.4028C50.6503 15.6212 49.926 15.6939 49.3466 16.0761C48.7672 16.4582 48.2783 16.9131 48.4413 17.6956C48.6043 18.5326 49.2018 18.8966 49.9985 18.9694C51.972 19.1695 53.5473 17.7684 53.5835 15.6575Z" fill="#2E353F"/>
<path d="M28.9711 8.13693C29.4529 8.02789 29.6135 7.71894 29.8456 7.50086C31.5945 5.77436 33.7005 5.44724 35.967 5.99244C37.7338 6.42861 38.8225 7.64625 39.2865 9.42726C39.5007 10.2814 39.6435 11.1538 39.6435 12.0261C39.6435 15.0247 39.6256 18.0234 39.6613 21.0039C39.6791 21.8399 39.4471 22.2215 38.5548 22.167C37.2877 22.1125 36.0027 22.1125 34.7177 22.167C33.8432 22.2033 33.5042 21.9126 33.522 20.9675C33.5934 18.9139 33.5398 16.8603 33.5577 14.7885C33.5577 14.007 33.5042 13.2256 33.4149 12.4441C33.3078 11.5718 32.9331 10.9538 32.0764 10.7358C31.1841 10.5177 30.2382 10.9357 29.7742 11.7353C29.4172 12.3896 29.2923 13.0983 29.2923 13.8253C29.2923 16.2242 29.2745 18.605 29.3102 21.0039C29.328 21.8762 29.0246 22.1852 28.168 22.1488C26.8116 22.0943 25.4374 22.1125 24.0632 22.1306C23.4564 22.1306 23.2065 21.8944 23.2065 21.2765C23.2244 16.4968 23.2065 11.7171 23.2065 6.93747C23.2065 6.39226 23.385 6.08331 23.974 6.10149C25.3482 6.11966 26.7045 6.11966 28.0787 6.11966C28.6498 6.11966 28.8818 6.39226 28.8997 6.93747C28.9354 7.33729 28.9532 7.70077 28.9711 8.13693Z" fill="#2E353F"/>
<path d="M73.7544 19.9812C72.7465 21.0712 71.8486 21.8705 70.6391 22.2338C68.6966 22.8152 66.8457 22.7425 65.1048 21.6344C63.5838 20.6715 63.089 19.1456 63.0341 17.4924C62.9241 14.2951 62.9058 11.0797 62.8691 7.88241C62.8691 7.66441 62.9241 7.46458 62.9241 7.24659C62.9241 6.46543 63.2906 6.13844 64.1153 6.17477C65.4897 6.22927 66.8641 6.2111 68.2385 6.17477C68.9532 6.15661 69.2464 6.46543 69.2464 7.13759C69.228 8.55457 69.3197 9.97154 69.1731 11.4067C68.9898 12.9872 69.1547 14.5495 69.338 16.1118C69.4296 16.9111 69.961 17.4198 70.749 17.5833C71.592 17.7468 72.325 17.4924 72.8748 16.8203C73.3696 16.2208 73.4795 15.5123 73.4795 14.7675C73.4795 12.3695 73.4795 9.98971 73.4795 7.59175C73.4795 6.22927 73.5345 6.19294 74.9455 6.17477C76.265 6.17477 77.5661 6.19294 78.8855 6.17477C79.5086 6.15661 79.7468 6.4291 79.7468 7.04676C79.7285 11.8063 79.7285 16.5478 79.7468 21.3074C79.7468 21.9795 79.4902 22.2338 78.8305 22.2157C77.5844 22.1793 76.3199 22.1612 75.0738 22.2157C74.1575 22.252 73.7544 21.9069 73.8643 20.9985C73.846 20.7624 73.791 20.5262 73.7544 19.9812Z" fill="#2E353F"/>
<path d="M159.174 5.76617C163.695 5.76617 166.94 8.22374 167.72 12.1012C168.837 17.7263 165.451 22.241 159.866 22.5687C156.585 22.7507 153.66 21.9497 151.657 19.0735C148.731 14.8501 150.238 7.51377 156.249 6.14845C157.277 5.8936 158.288 5.69335 159.174 5.76617ZM161.869 14.2129C161.905 13.5212 161.78 12.8112 161.568 12.1194C161.213 10.9362 160.327 10.2262 159.263 10.1898C158.039 10.1534 157.082 10.7541 156.639 11.9556C156.089 13.4666 156.107 14.9957 156.674 16.4885C157.046 17.4897 157.72 18.1268 158.855 18.1997C160.078 18.2725 160.912 17.7628 161.426 16.6523C161.763 15.9059 161.887 15.1049 161.869 14.2129Z" fill="#2E353F"/>
<path d="M139.446 5.75841C141.63 5.68569 143.795 6.14016 145.633 7.61264C146.634 8.41251 147.216 9.50323 147.689 10.6667C147.889 11.1575 147.725 11.412 147.198 11.4665C145.688 11.6483 144.195 11.8665 142.703 12.0664C142.358 12.121 142.103 12.0483 141.957 11.7029C141.339 10.2304 140.102 9.97588 138.719 10.194C137.409 10.394 136.663 11.3029 136.335 12.5391C136.026 13.7025 136.026 14.8841 136.353 16.0294C136.735 17.3019 137.591 18.0836 138.955 18.2472C140.265 18.3926 141.321 17.8473 141.903 16.702C142.303 15.9022 142.776 15.7204 143.613 15.884C144.796 16.1021 146.015 16.1748 147.216 16.3021C148.144 16.393 148.271 16.5929 147.926 17.4655C146.907 20.0651 145.032 21.7012 142.321 22.2829C140.102 22.7555 137.863 22.6828 135.662 22.1011C132.387 21.2104 130.44 19.1198 130.058 15.7204C129.585 11.612 130.785 8.70337 133.879 6.88549C135.571 5.88566 137.445 5.72205 139.446 5.75841Z" fill="#2E353F"/>
<path d="M22.7708 27.2979C20.7033 26.7181 18.6176 26.1201 16.5501 25.5402C16.5138 25.5765 16.4957 25.6308 16.4594 25.6671C16.7677 25.8664 17.0579 26.0657 17.3662 26.2469C19.198 27.3523 21.1022 28.3489 23.1154 29.1281C23.333 29.2187 23.6776 29.2549 23.6232 29.5449C23.5506 29.871 23.2242 29.7261 23.0065 29.6717C17.0942 28.2945 11.3087 26.6093 6.23061 23.1302C4.79786 22.1517 3.58273 20.9376 2.67593 19.4518C1.75098 17.9297 1.56962 16.2988 1.75098 14.5774C2.3132 9.48554 5.30567 6.15138 9.5858 3.74137C11.5264 2.6179 13.5576 1.71188 15.8609 1.56691C16.278 1.54879 16.6952 1.45819 17.1123 1.76624C16.5138 2.36421 15.6977 2.58166 14.936 3.17963C16.0967 3.16151 17.1486 2.67226 18.1823 3.19775C18.0916 3.61452 17.7108 3.65076 17.4387 3.79573C14.6458 5.33596 11.9072 6.93056 9.94852 9.52178C9.54952 10.0473 9.20494 10.6271 8.89662 11.207C7.33691 14.07 8.60645 16.3894 10.4019 18.5458C13.213 21.9524 16.8947 24.1812 20.7939 26.102C21.465 26.4281 22.1541 26.7181 22.8433 27.0261C22.8252 27.0986 22.7889 27.2073 22.7708 27.2979ZM19.9234 28.3308C16.9491 26.8268 14.3556 24.7248 11.2543 23.4383C7.35505 21.8074 3.72782 19.633 2.14998 15.0123C2.13184 15.3928 2.11371 15.5015 2.11371 15.6102C2.14998 18.4914 3.67341 20.5752 5.83162 22.2423C10.0029 25.4678 14.9541 26.9536 19.9234 28.3308ZM16.804 3.5964C12.8684 3.34272 8.11677 7.87282 7.97168 11.9862C9.73089 7.92718 13.0317 5.66213 16.804 3.5964Z" fill="#2E353F"/>
<path d="M108.798 8.02151C109.051 7.74848 109.178 7.63928 109.268 7.49367C110.571 5.47331 112.688 5.41871 114.642 6.27417C115.149 6.49259 115.33 6.76561 115.076 7.32985C114.624 8.34913 114.208 9.38661 113.792 10.4241C113.593 10.9155 113.303 11.0065 112.796 10.8791C110.897 10.4059 109.956 11.0065 109.503 12.9177C108.943 15.2839 109.178 17.6864 109.142 20.0708C109.105 22.4188 109.395 22.164 107.079 22.164C105.993 22.164 104.908 22.1458 103.822 22.164C103.207 22.1822 102.954 21.9274 102.954 21.3085C102.972 16.5216 102.972 11.7346 102.954 6.94762C102.954 6.31058 103.261 6.11036 103.84 6.11036C105.071 6.12856 106.319 6.11036 107.549 6.11036C108.725 6.11036 108.725 6.11036 108.762 7.34805C108.762 7.49367 108.762 7.63928 108.798 8.02151Z" fill="#2E353F"/>
<path d="M122.345 14.1892C122.345 16.4925 122.31 18.7776 122.362 21.0809C122.379 21.9152 122.085 22.2053 121.305 22.1691C120.006 22.1147 118.707 22.1328 117.408 22.1691C116.75 22.1872 116.456 21.9333 116.456 21.226C116.473 16.4925 116.473 11.7408 116.456 7.00728C116.456 6.39066 116.715 6.15489 117.304 6.17302C118.69 6.19116 120.076 6.2093 121.461 6.17302C122.154 6.15489 122.362 6.4632 122.362 7.15237C122.327 9.49193 122.345 11.8496 122.345 14.1892Z" fill="#2E353F"/>
<path d="M129.536 21.5775C129.517 23.1202 128.273 24.2955 126.709 24.2771C125.182 24.2404 124.014 22.9916 124.052 21.3939C124.071 19.9431 125.371 18.7678 126.916 18.8045C128.424 18.8412 129.555 20.0349 129.536 21.5775Z" fill="#2E353F"/>
<path d="M146.718 29.4346C146.718 28.535 146.718 27.6171 146.718 26.7176C146.718 26.2403 146.883 25.9649 147.398 25.9649C147.912 25.9649 148.096 26.2403 148.096 26.7176C148.096 28.2413 148.096 29.765 148.096 31.3071C148.096 31.6742 148.188 32.1699 147.618 32.2433C147.122 32.3167 146.662 32.3167 146.35 31.766C145.799 30.8298 145.211 29.9119 144.42 29.0307C144.42 29.8384 144.42 30.6462 144.42 31.4539C144.42 31.9496 144.273 32.2617 143.685 32.2617C143.115 32.2433 143.042 31.9129 143.042 31.4723C143.042 29.9486 143.042 28.4249 143.042 26.8828C143.042 26.534 142.968 26.0934 143.465 26.0017C143.942 25.9099 144.365 25.9466 144.659 26.4239C145.266 27.4519 145.891 28.4616 146.515 29.4713C146.589 29.4529 146.662 29.4529 146.718 29.4346Z" fill="#2E353F"/>
<path d="M115.64 29.7429C115.64 29.4956 115.64 29.2483 115.64 29.001C115.64 27.7315 115.64 27.748 117.026 27.8634C117.278 27.8799 117.548 27.748 117.8 27.6986C118.862 27.4842 119.564 27.9294 119.708 28.9021C119.816 29.6605 119.87 30.4353 119.798 31.1937C119.762 31.6553 119.528 31.8862 118.988 31.8532C118.448 31.8202 118.358 31.5399 118.358 31.1278C118.358 30.5507 118.358 29.9737 118.34 29.3967C118.34 29.0834 118.286 28.7702 117.854 28.7207C117.404 28.6713 117.17 28.9351 117.098 29.2813C117.026 29.677 117.08 30.1056 116.99 30.5013C116.882 30.9794 117.422 31.8037 116.342 31.8202C115.19 31.8367 115.784 30.9464 115.64 30.4683C115.586 30.254 115.64 29.9902 115.64 29.7429Z" fill="#2E353F"/>
<path d="M159.907 28.9309C159.907 29.6451 159.907 30.3423 159.907 31.0565C159.907 31.5326 159.781 31.8727 159.146 31.8557C158.548 31.8387 158.457 31.5156 158.457 31.0905C158.457 30.3253 158.439 29.5601 158.457 28.7949C158.457 28.3187 158.348 28.0637 157.786 28.3868C157.569 28.5058 157.261 28.6928 157.079 28.3697C156.916 28.0807 156.898 27.6896 157.188 27.5025C157.804 27.0944 158.312 26.5843 158.874 26.1252C159.327 25.7511 159.889 26.0571 159.907 26.6523C159.926 27.4005 159.907 28.1657 159.907 28.9309Z" fill="#2E353F"/>
<path d="M113.08 28.8144C113.08 28.0926 113.08 27.388 113.08 26.6662C113.08 26.2193 113.286 25.9615 113.862 25.9615C114.459 25.9615 114.768 26.1678 114.768 26.6662C114.768 28.1785 114.768 29.6909 114.768 31.2032C114.768 31.6672 114.48 31.8563 113.924 31.8563C113.368 31.8563 113.08 31.6844 113.101 31.2032C113.08 30.4127 113.08 29.6049 113.08 28.8144Z" fill="#2E353F"/>
<path d="M127.425 29.7765C127.425 30.2423 127.408 30.7249 127.425 31.1907C127.442 31.6233 127.29 31.8563 126.801 31.8563C126.312 31.8563 126.16 31.6233 126.16 31.1907C126.16 30.2257 126.16 29.2607 126.16 28.279C126.16 27.8297 126.379 27.6301 126.835 27.6467C127.256 27.6633 127.425 27.8797 127.425 28.279C127.425 28.7781 127.425 29.2773 127.425 29.7765Z" fill="#2E353F"/>
<path d="M189.028 29.8334C189.028 30.2975 189.012 30.7615 189.028 31.2255C189.045 31.673 188.845 31.8719 188.396 31.8553C187.93 31.8553 187.764 31.6399 187.764 31.1924C187.78 30.2312 187.78 29.2699 187.78 28.3087C187.78 27.8778 187.963 27.6458 188.413 27.6458C188.879 27.6458 189.045 27.8943 189.028 28.3252C189.012 28.8556 189.028 29.3528 189.028 29.8334Z" fill="#2E353F"/>
</svg>
