<svg width="136" height="90" viewBox="0 0 136 90" fill="none" xmlns="http://www.w3.org/2000/svg">
<path d="M47.8631 7.00828C47.2815 8.58723 46.6998 10.1385 46.3951 11.7728C46.0627 13.5457 46.2843 15.2077 47.6416 16.5651C48.7772 17.6731 50.1898 17.7839 51.6579 17.6177C56.2558 17.1468 60.8815 16.8421 65.5071 16.6759C69.468 16.5374 73.3181 13.9612 74.62 10.4986C75.1739 9.03044 75.0631 7.5069 75.1739 5.98335C75.257 4.79221 75.2293 3.60108 75.4232 2.43764C75.5063 1.82822 75.7833 1.27421 76.1711 0.803294C76.6974 0.193876 77.3344 -0.138534 78.2208 0.0553716C79.7719 0.415482 81.1291 1.19111 82.4587 1.99443C89.5772 6.42656 94.009 12.8255 95.7817 20.9695C97.8314 30.4155 95.754 39.0304 89.8265 46.6482C86.9735 50.3047 83.345 53.0194 79.1071 54.903C78.1654 55.3185 77.1405 55.0415 76.4758 54.2105C75.9772 53.5734 75.7556 52.8532 75.7002 52.0775C75.5894 50.2216 75.3678 48.3379 75.3678 46.482C75.3401 41.0249 70.7976 37.5069 66.7536 36.9252C65.0917 36.7036 63.4297 36.7313 61.7678 36.6205C58.2778 36.4266 54.8155 36.205 51.3532 35.8725C50.5499 35.7894 49.7467 35.7617 48.9434 36.0111C47.1707 36.5651 45.9242 38.144 45.7027 40.1108C45.5088 41.6897 45.9242 43.1856 46.312 44.6814C46.589 45.7894 46.9491 46.8698 47.3092 47.9778C46.3951 47.036 45.5642 46.0111 44.844 44.9307C40.8554 39.0581 39.1104 32.5761 39.609 25.5124C40.1075 18.5595 42.7112 12.4376 47.3646 7.22989C47.4754 7.09138 47.6139 6.98058 47.7524 6.84208C47.8354 6.84208 47.8908 6.86978 47.8631 7.00828Z" fill="#2E3540"/>
<path d="M19.0289 79.1413C19.0289 82.3269 19.0289 85.5402 19.0289 88.7258C19.0289 89.169 18.9735 89.3352 18.4473 89.3352C16.6468 89.3075 14.8464 89.3075 13.0737 89.3352C12.6305 89.3352 12.5475 89.1967 12.5475 88.7812C12.5752 86.482 12.5475 84.1828 12.5752 81.8837C12.5752 81.4958 12.4644 81.4127 12.1043 81.4127C10.387 81.4404 8.66965 81.4404 6.92464 81.4127C6.50916 81.4127 6.42607 81.5512 6.42607 81.9391C6.45377 84.2382 6.42607 86.5374 6.45377 88.8366C6.45377 89.2521 6.34297 89.3352 5.95519 89.3352C4.12709 89.3075 2.29898 89.3075 0.470876 89.3352C0.0830957 89.3352 0 89.2244 0 88.8643C0 82.3823 0 75.9003 0 69.4183C0 69.0305 0.110794 68.892 0.498574 68.892C2.32668 68.9197 4.15479 68.9197 5.98289 68.892C6.37067 68.892 6.45377 69.0028 6.45377 69.3629C6.42607 71.3573 6.45377 73.3518 6.42607 75.3463C6.42607 75.7341 6.53686 75.8172 6.89694 75.8172C8.61426 75.7895 10.3316 75.7895 12.0766 75.8172C12.4367 75.8172 12.5752 75.7341 12.5475 75.3463C12.5198 73.3518 12.5475 71.3573 12.5198 69.3629C12.5198 69.0028 12.6029 68.8643 12.9906 68.8643C14.8187 68.892 16.6468 68.892 18.4749 68.8643C18.8627 68.8643 19.0012 68.9751 19.0012 69.3629C19.0289 72.6593 19.0289 75.9003 19.0289 79.1413Z" fill="#2E3540"/>
<path d="M63.2358 79.0859C63.2358 75.8726 63.2358 72.6593 63.2358 69.446C63.2358 69.0028 63.3466 68.892 63.7898 68.892C68.7756 68.9197 73.7336 68.9197 78.7194 68.892C79.1625 68.892 79.2456 69.0028 79.2456 69.4183C79.2179 70.6648 79.2179 71.9391 79.2456 73.1856C79.2456 73.5734 79.1348 73.6565 78.747 73.6565C75.9218 73.6288 73.0688 73.6565 70.2436 73.6288C69.8004 73.6288 69.6342 73.7396 69.6896 74.1828C69.745 74.7922 69.7173 75.4017 69.6896 76.0111C69.6619 76.4543 69.7727 76.5928 70.2436 76.5928C72.5703 76.5651 74.8692 76.5928 77.1959 76.5651C77.6391 76.5651 77.7776 76.6482 77.7776 77.1191C77.7499 78.3657 77.7499 79.5845 77.7776 80.831C77.7776 81.2465 77.6668 81.3296 77.279 81.3296C74.9523 81.3019 72.598 81.3296 70.2713 81.3019C69.8004 81.3019 69.6896 81.4404 69.7173 81.8837C69.745 82.6039 69.745 83.3241 69.7173 84.0443C69.6896 84.4321 69.8004 84.5706 70.2159 84.5429C73.1519 84.5152 76.1157 84.5429 79.0517 84.5152C79.578 84.5152 79.6888 84.6537 79.6888 85.1801C79.6611 86.3712 79.6611 87.59 79.6888 88.7812C79.6888 89.169 79.6334 89.3075 79.1902 89.3075C74.0383 89.2798 68.8864 89.2798 63.7344 89.3075C63.3466 89.3075 63.2635 89.169 63.2635 88.8089C63.2358 85.5956 63.2358 82.3546 63.2358 79.0859Z" fill="#2E3540"/>
<path d="M121.236 83.0195C122.123 83.0195 123.037 83.0195 123.923 83.0195C124.117 83.0195 124.311 82.9918 124.366 83.2688C124.671 84.7093 126.084 85.1248 127.219 85.1802C127.746 85.2079 128.3 85.0971 128.798 84.9309C129.38 84.7093 129.795 84.3769 129.823 83.7121C129.851 83.0472 129.463 82.6871 128.909 82.4378C128.078 82.05 127.192 81.8007 126.305 81.5514C124.948 81.1913 123.563 80.8312 122.261 80.2771C120.239 79.4184 118.882 78.0057 118.605 75.7619C118.273 73.2411 119.104 71.2467 121.236 69.8339C122.455 69.0306 123.84 68.6428 125.28 68.4766C127.469 68.255 129.629 68.3104 131.651 69.2799C133.839 70.3326 135.003 72.1331 135.39 74.46C135.446 74.7647 135.335 74.8201 135.058 74.8201C133.258 74.8201 131.457 74.8201 129.657 74.8201C129.408 74.8201 129.297 74.737 129.214 74.4877C129.047 73.8229 128.577 73.4073 127.94 73.2411C127.136 73.0195 126.361 72.9918 125.557 73.2134C125.114 73.3519 124.782 73.5735 124.699 74.0722C124.616 74.5431 124.81 74.9032 125.197 75.2079C125.779 75.6511 126.444 75.8727 127.164 76.0666C128.743 76.4821 130.377 76.8145 131.9 77.4517C132.094 77.5348 132.288 77.6179 132.482 77.701C134.449 78.6151 135.806 80.0001 135.944 82.2993C136.111 84.8755 135.363 87.1469 133.008 88.3935C129.186 90.4156 125.197 90.6096 121.347 88.3935C119.491 87.3132 118.356 85.6511 118.107 83.435C118.079 83.0749 118.162 82.9918 118.494 83.0195C119.436 83.0472 120.35 83.0195 121.236 83.0195Z" fill="#2E3540"/>
<path d="M50.5775 82.2438C51.1037 80.277 51.63 78.3103 52.1286 76.3435C52.738 74.0166 53.3473 71.6898 53.9567 69.3629C54.0398 69.0028 54.206 68.892 54.5661 68.892C56.3942 68.9197 58.2223 68.9197 60.0504 68.892C60.4382 68.892 60.549 68.9474 60.4105 69.3629C58.2223 75.8726 56.0618 82.41 53.8736 88.9474C53.7628 89.2521 53.6243 89.3629 53.3196 89.3629C51.4361 89.3352 49.5526 89.3629 47.6691 89.3629C47.3644 89.3629 47.2259 89.2798 47.1428 88.9751C45.0101 82.4377 42.8496 75.9003 40.6891 69.3629C40.5783 69.0028 40.5783 68.892 40.9938 68.892C42.8773 68.9197 44.7608 68.9197 46.6443 68.892C47.0598 68.892 47.0875 69.1136 47.1705 69.4183C48.2508 73.6288 49.331 77.867 50.3836 82.0776C50.4113 82.133 50.4113 82.2161 50.439 82.2715C50.5221 82.2438 50.5498 82.2438 50.5775 82.2438Z" fill="#2E3540"/>
<path d="M82.9018 79.1136C82.9018 75.9003 82.9018 72.687 82.9018 69.4737C82.9018 69.0305 82.9849 68.892 83.4558 68.892C85.2562 68.9197 87.0566 68.9197 88.8293 68.892C89.2725 68.892 89.3556 69.0305 89.3556 69.446C89.3556 74.2936 89.3556 79.1413 89.3279 83.9889C89.3279 84.4875 89.4664 84.5983 89.965 84.5983C92.5409 84.5706 95.0892 84.5983 97.6652 84.5706C98.1084 84.5706 98.1915 84.7091 98.1915 85.097C98.1638 86.3435 98.1638 87.6177 98.1915 88.8643C98.1915 89.2521 98.0807 89.3352 97.6929 89.3352C92.9287 89.3352 88.1646 89.3352 83.4281 89.3352C83.0126 89.3352 82.8741 89.2244 82.9018 88.8089C82.9018 85.5679 82.9018 82.3546 82.9018 79.1136Z" fill="#2E3540"/>
<path d="M101.1 79.1413C101.1 75.9003 101.1 72.687 101.1 69.446C101.1 69.0305 101.21 68.892 101.626 68.892C103.426 68.9197 105.254 68.9197 107.055 68.892C107.47 68.892 107.553 69.0028 107.553 69.3906C107.553 74.2659 107.553 79.1136 107.526 83.9889C107.526 84.4598 107.636 84.5706 108.107 84.5706C110.683 84.5429 113.232 84.5706 115.808 84.5429C116.223 84.5429 116.389 84.5983 116.389 85.097C116.362 86.3435 116.362 87.6177 116.389 88.8643C116.389 89.1967 116.334 89.3352 115.974 89.3352C111.154 89.3075 106.362 89.3075 101.543 89.3352C101.1 89.3352 101.1 89.1413 101.1 88.8089C101.1 85.5956 101.1 82.3546 101.1 79.1413Z" fill="#2E3540"/>
<path d="M50.1899 37.0362C53.1813 37.2578 55.8958 37.4794 58.6103 37.6733C58.8042 37.701 58.915 37.701 58.8873 37.978C58.2779 41.5514 57.53 45.0417 55.9512 48.3381C55.4526 49.3907 54.871 50.3603 54.0123 51.1636C52.8213 52.2716 51.741 52.2439 50.5777 51.1082C49.6913 50.2218 49.1097 49.1691 48.6388 48.0334C47.7524 45.8727 47.06 43.6567 46.8107 41.3021C46.7276 40.4988 46.8661 39.7231 47.1984 39.0029C47.8632 37.6179 48.9712 36.9808 50.1899 37.0362Z" fill="#2E3540"/>
<path d="M51.0762 16.4543C48.7495 16.5097 47.2261 15.0139 47.4754 12.964C47.8631 9.72302 48.9157 6.70363 50.9377 4.09975C52.3226 2.29919 53.8183 2.29919 55.2587 4.07205C56.5328 5.62329 57.1699 7.47925 57.7515 9.33521C58.3609 11.302 58.7487 13.2964 59.0534 15.3186C59.0811 15.5125 59.2196 15.7895 58.8041 15.8172C56.0896 15.9834 53.4306 16.2327 51.0762 16.4543Z" fill="#2E3540"/>
<path d="M47.8631 7.00838C47.8077 6.95298 47.78 6.92528 47.7246 6.86988C47.8077 6.75907 47.8908 6.67597 48.0293 6.50977C48.0293 6.75907 47.9739 6.86988 47.8631 7.00838Z" fill="#2E3540"/>
<path d="M41.6032 88.9199C39.3319 82.3825 37.0884 75.8451 34.8725 69.3077C34.7617 69.003 34.5955 68.8922 34.2908 68.9199C33.3491 68.9476 32.3796 68.9199 31.4378 68.9199C30.5238 68.9199 29.6097 68.9476 28.6957 68.9199C28.3079 68.9199 28.1417 69.0307 28.0032 69.4185C26.8953 72.6872 25.7873 75.9282 24.6517 79.1692C23.5438 82.4102 22.4358 85.6235 21.3279 88.8645C21.2725 89.0307 20.9678 89.3631 21.4941 89.3631C23.3499 89.3631 25.2334 89.3631 27.0892 89.3631C27.3385 89.3631 27.4216 89.28 27.477 89.0584C27.6431 88.3936 27.8647 87.7287 28.0309 87.0362C28.114 86.7315 28.2248 86.6484 28.5295 86.6484C30.3853 86.6761 32.2688 86.6761 34.1246 86.6484C34.457 86.6484 34.5401 86.7869 34.6232 87.0639C34.7894 87.701 35.011 88.3382 35.1495 88.9753C35.2326 89.3077 35.371 89.3908 35.7034 89.3908C37.5315 89.3631 39.3596 89.3908 41.1877 89.3908C41.6032 89.3354 41.7417 89.3354 41.6032 88.9199ZM33.0721 82.3548C31.9641 82.3548 30.8562 82.3548 29.7482 82.3548C29.5543 82.3548 29.3882 82.3548 29.4712 82.0501C30.0806 79.8063 30.69 77.5625 31.2994 75.3188C31.2994 75.2634 31.3548 75.2357 31.4102 75.1803C32.0472 77.4517 32.6843 79.6955 33.3214 81.967C33.4321 82.2994 33.3491 82.3548 33.0721 82.3548Z" fill="#2E3540"/>
</svg>
