<svg width="211" height="28" viewBox="0 0 211 28" fill="none" xmlns="http://www.w3.org/2000/svg">
<path d="M128.436 11.8344C128.341 10.3905 128.231 9.15056 128.215 7.92635C128.183 5.68194 128.215 3.42185 128.199 1.17745C128.199 0.659508 128.325 0.486862 128.863 0.502557C130.76 0.533947 132.642 0.533947 134.539 0.502557C134.981 0.502557 135.139 0.596728 135.139 1.08328C135.124 8.03621 135.124 14.9891 135.139 21.9578C135.139 22.4286 134.997 22.5542 134.539 22.5542C132.752 22.5385 130.966 22.5228 129.163 22.5542C128.642 22.5699 128.341 22.3972 128.072 21.9578C125.97 18.5519 123.835 15.1618 121.701 11.756C121.575 11.5519 121.432 11.3479 121.227 11.0183C121.116 11.7873 121.306 12.3995 121.306 13.0273C121.322 16.0093 121.337 18.9757 121.353 21.9578C121.353 22.3658 121.258 22.5385 120.816 22.5385C118.95 22.5228 117.084 22.5228 115.219 22.5385C114.792 22.5385 114.666 22.4129 114.666 21.9892C114.681 15.0048 114.681 8.02052 114.666 1.05189C114.666 0.612423 114.808 0.502557 115.219 0.518252C117.037 0.533947 118.855 0.549642 120.658 0.518252C121.148 0.502557 121.306 0.769374 121.511 1.09897C123.646 4.42634 125.78 7.76939 127.914 11.0968C128.057 11.2694 128.199 11.4577 128.436 11.8344Z" fill="#2E3540"/>
<path d="M29.576 8.38124C33.3546 4.83415 36.6905 5.06958 38.7616 8.99335C39.3624 8.13012 40.0739 7.42384 40.975 6.9059C43.2675 5.58751 45.7655 5.77585 47.6311 7.43954C48.7536 8.42833 49.2279 9.73102 49.3069 11.175C49.4808 14.7692 49.3385 18.379 49.386 21.9889C49.386 22.3656 49.2753 22.5225 48.8801 22.5068C47.22 22.4911 45.5441 22.4755 43.8841 22.5068C43.3624 22.5225 43.4098 22.2243 43.4098 21.879C43.4098 19.101 43.4098 16.323 43.4098 13.5449C43.4098 12.305 42.6825 11.4732 41.6233 11.4889C40.5324 11.5046 39.8051 12.305 39.8051 13.5449C39.7893 16.2916 39.7893 19.0539 39.8209 21.8006C39.8209 22.3813 39.6628 22.5068 39.1095 22.5068C37.5443 22.4755 35.9791 22.4755 34.4139 22.5068C33.8605 22.5225 33.6866 22.397 33.6866 21.8163C33.7183 19.1324 33.7024 16.4642 33.7024 13.7804C33.7024 13.5135 33.7024 13.231 33.655 12.9642C33.4653 11.9126 32.7064 11.2691 31.742 11.3162C30.825 11.3633 30.0978 12.1795 30.082 13.2153C30.0661 14.5337 30.082 15.8678 30.082 17.2019C30.082 18.7557 30.0661 20.3095 30.082 21.8633C30.082 22.3185 30.0187 22.5382 29.4654 22.5225C27.8844 22.4911 26.2876 22.4911 24.7066 22.5225C24.2323 22.5382 24.1216 22.3499 24.1216 21.9104C24.1374 16.9508 24.1374 12.0068 24.1216 7.04716C24.1216 6.592 24.2481 6.43505 24.7224 6.45074C26.1295 6.48213 27.5524 6.48213 28.9594 6.45074C29.4812 6.43505 29.6235 6.62339 29.576 7.09424C29.5444 7.47093 29.576 7.8633 29.576 8.38124Z" fill="#2E3540"/>
<path d="M80.3103 20.7649C79.172 22.3344 77.6226 23.0407 75.7412 23.2133C72.1681 23.5429 69.2907 20.9689 69.2907 17.4218C69.2907 14.0474 69.3065 10.6729 69.2749 7.29845C69.2749 6.76482 69.433 6.63926 69.9389 6.65495C71.5832 6.68634 73.2116 6.68634 74.8558 6.65495C75.3776 6.63926 75.5357 6.78051 75.5199 7.31415C75.4882 10.1864 75.5199 13.0586 75.504 15.9465C75.504 16.794 75.7728 17.4532 76.5949 17.8299C77.4012 18.2223 78.1601 18.1124 78.8716 17.6258C79.4249 17.2492 79.583 16.6998 79.583 16.0563C79.583 13.1841 79.6146 10.2962 79.5672 7.42401C79.5672 6.78051 79.7411 6.63926 80.3577 6.65495C82.0494 6.70204 83.7411 6.68634 85.4169 6.65495C85.9228 6.63926 86.0493 6.79621 86.0493 7.28276C86.0335 12.1325 86.0335 16.9823 86.0493 21.8321C86.0493 22.3501 85.9228 22.5227 85.3853 22.507C83.9308 22.4756 82.4605 22.4756 81.0059 22.507C80.4526 22.5227 80.2154 22.3972 80.2945 21.8164C80.3419 21.4711 80.3103 21.1102 80.3103 20.7649Z" fill="#2E3540"/>
<path d="M175.012 15.1615C175.012 13.8118 174.997 12.462 175.028 11.1122C175.028 10.6884 174.902 10.5629 174.475 10.5629C173.906 10.5629 173.147 10.8297 172.815 10.453C172.451 10.0449 172.704 9.30726 172.704 8.71085C172.704 8.06735 172.435 7.23551 172.815 6.82744C173.21 6.40367 174.048 6.70187 174.696 6.70187C175.139 6.70187 175.25 6.56062 175.234 6.13685C175.218 4.91263 175.234 3.68841 175.218 2.46419C175.218 2.04043 175.329 1.89917 175.771 1.89917C177.416 1.91487 179.044 1.91487 180.688 1.89917C181.131 1.89917 181.242 2.05612 181.242 2.46419C181.226 3.68841 181.257 4.91263 181.226 6.13685C181.21 6.56062 181.336 6.71757 181.779 6.68618C182.38 6.65479 182.997 6.70187 183.597 6.67048C183.977 6.65479 184.135 6.76465 184.119 7.17273C184.087 8.13013 184.087 9.07184 184.119 10.0292C184.135 10.4373 184.008 10.61 183.566 10.5943C183.012 10.5629 182.459 10.6257 181.906 10.5786C181.289 10.5158 181.21 10.7826 181.226 11.3005C181.257 12.8544 181.226 14.4082 181.242 15.962C181.242 17.5472 181.874 18.1907 183.455 18.0494C184.135 17.9867 184.261 18.1907 184.245 18.8028C184.198 19.8701 184.23 20.953 184.23 22.036C184.23 22.3185 184.245 22.5853 183.819 22.601C181.89 22.6481 179.945 22.8678 178.016 22.4755C175.914 22.0517 175.06 21.0158 175.044 18.8813C175.012 17.61 175.012 16.3858 175.012 15.1615Z" fill="#2E3540"/>
<path d="M94.6817 15.5537C94.6817 18.2533 94.6817 20.9528 94.6817 23.6524C94.6817 25.5672 94.0019 26.5246 92.1996 27.2466C90.081 28.0941 87.8518 27.9842 85.6384 27.9999C85.338 27.9999 85.2432 27.8744 85.2432 27.5918C85.259 26.2735 85.259 24.9394 85.2432 23.621C85.2432 23.2914 85.3696 23.1815 85.6858 23.1815C86.0653 23.1972 86.4447 23.1815 86.8242 23.1501C87.6937 23.056 88.0257 22.7107 88.0573 21.8317C88.089 21.1255 88.0731 20.4349 88.0731 19.7286C88.0731 15.5223 88.089 11.316 88.0573 7.12542C88.0573 6.5604 88.2154 6.40344 88.7846 6.41914C90.5237 6.45053 92.2628 6.46623 94.0019 6.41914C94.6027 6.40344 94.6975 6.62318 94.6975 7.15681C94.6659 9.95054 94.6817 12.76 94.6817 15.5537Z" fill="#2E3540"/>
<path d="M191.645 8.75783C191.66 10.5628 191.692 12.352 191.692 14.157C191.692 16.731 191.676 19.305 191.708 21.8946C191.708 22.3812 191.566 22.5381 191.075 22.5381C189.415 22.5068 187.755 22.5068 186.079 22.5381C185.574 22.5538 185.463 22.3655 185.463 21.8946C185.479 18.8498 185.479 15.7892 185.479 12.7444C185.479 12.4776 185.415 12.2108 185.747 12.0381C187.676 10.9552 189.589 9.87219 191.518 8.77353C191.566 8.67936 191.613 8.67936 191.645 8.75783Z" fill="#2E3540"/>
<path d="M91.2982 4.55158C90.397 4.55158 89.48 4.53589 88.5789 4.55158C88.1836 4.56728 88.0571 4.44172 88.0571 4.04934C88.0887 2.87221 88.0729 1.69507 88.0571 0.517939C88.0571 0.125561 88.1836 0 88.5789 0C90.4444 0.0156951 92.31 0.0156951 94.1756 0C94.5709 0 94.6973 0.125561 94.6973 0.517939C94.6815 1.69507 94.6815 2.87221 94.6973 4.04934C94.7131 4.45741 94.5709 4.56728 94.1756 4.55158C93.2112 4.53589 92.2626 4.55158 91.2982 4.55158Z" fill="#2E3540"/>
<path d="M191.645 8.75802C191.597 8.75802 191.55 8.75802 191.502 8.75802C191.613 8.34994 191.218 8.33425 191.028 8.22438C189.384 7.26698 187.739 6.30958 186.064 5.38357C185.637 5.14814 185.447 4.91271 185.463 4.41047C185.51 3.21764 185.479 2.02481 185.479 0.706421C186.079 1.05171 186.585 1.33423 187.091 1.63243C188.467 2.41719 189.826 3.21764 191.202 4.0024C191.486 4.17504 191.724 4.33199 191.708 4.74007C191.66 6.05846 191.676 7.40824 191.645 8.75802Z" fill="#2E3540"/>
<path d="M23.2204 22.1303C20.6908 15.0675 18.1612 8.02035 15.6474 0.973243C15.4893 0.53378 15.2522 0.486694 14.8569 0.486694C12.9439 0.502389 11.0309 0.486694 9.1179 0.486694C7.75824 0.486694 7.75824 0.486694 7.31556 1.72661C4.94406 8.39703 2.55674 15.0518 0.169432 21.6908C-0.115148 22.4912 -0.115148 22.4912 0.754402 22.4912C2.66741 22.4912 4.58042 22.4599 6.49344 22.5069C7.14165 22.5226 7.39461 22.3186 7.48947 21.7222C7.58433 21.1885 7.77405 20.6549 7.90053 20.1213C7.97958 19.7917 8.12187 19.619 8.51712 19.6347C10.5882 19.6504 12.6435 19.6504 14.7146 19.6347C15.0941 19.6347 15.2364 19.776 15.2996 20.137C15.4103 20.7491 15.6158 21.3455 15.7423 21.9576C15.8213 22.3814 16.0269 22.5226 16.4696 22.5069C17.7976 22.4755 19.1414 22.4912 20.4695 22.4912C21.4023 22.4912 22.3193 22.4912 23.2837 22.4912C23.2679 22.3186 23.252 22.2087 23.2204 22.1303ZM13.2601 15.0988C12.0269 15.0831 10.8096 15.0988 9.49734 15.0988C10.193 12.7603 10.857 10.5002 11.6001 8.03604C12.2957 10.406 12.9281 12.5562 13.5763 14.7065C13.6554 15.0047 13.5605 15.0988 13.2601 15.0988Z" fill="#2E3540"/>
<path d="M67.615 10.4845C66.9194 8.1773 65.3068 6.67057 62.9827 6.07415C60.8642 5.52482 58.9037 5.99568 57.1804 7.50241C57.1646 7.28268 57.1488 7.14142 57.1488 6.98447C57.1488 4.92841 57.133 2.88805 57.1646 0.831985C57.1646 0.345437 57.0381 0.188486 56.5322 0.204181C54.9196 0.235571 53.307 0.251266 51.6944 0.204181C51.0778 0.188486 50.888 0.345437 50.888 0.988936C50.9197 5.32079 50.9039 9.63694 50.9039 13.9688C50.9039 16.5742 50.9197 19.1639 50.888 21.7693C50.8722 22.3814 51.0778 22.5383 51.6627 22.5069C52.7378 22.4599 53.8287 22.4912 54.9196 22.4912C56.548 22.4912 56.548 22.4912 56.6429 20.7805C57.1804 21.3612 57.6705 21.8164 58.2871 22.1303C61.9076 24.0137 66.4135 22.1616 67.615 18.2379C68.3897 15.6796 68.3897 13.0585 67.615 10.4845ZM61.5282 16.9823C60.8642 18.332 59.1725 18.6459 58.0342 17.6258C56.5164 16.276 56.4848 12.9957 57.9867 11.6302C59.1409 10.5787 60.7535 10.8455 61.4808 12.2109C61.8918 12.98 62.0973 13.7961 62.0499 14.6751C62.0973 15.4912 61.876 16.2603 61.5282 16.9823Z" fill="#2E3540"/>
<path d="M210.854 21.9729C210.047 21.2353 210.095 20.2936 210.079 19.3362C210.047 16.5895 210.221 13.8272 209.984 11.0962C209.747 8.3182 208.387 6.7016 205.889 6.24644C203.36 5.79129 200.83 5.90115 198.3 6.29353C195.644 6.7016 194.38 8.23972 193.637 10.955C193.542 11.3003 193.526 11.5043 194 11.5043C195.739 11.5043 197.478 11.5357 199.217 11.5671C199.455 11.5671 199.676 11.5985 199.85 11.3003C200.403 10.2958 201.921 9.84062 202.949 10.3429C203.296 10.5155 203.597 10.7823 203.613 11.1904C203.628 11.5985 203.375 11.8967 203.028 12.085C202.506 12.3518 201.937 12.4617 201.368 12.5402C199.502 12.8227 197.621 12.9953 195.834 13.6388C194.048 14.2823 193.067 15.6321 192.925 17.4684C192.783 19.3519 193.241 21.0783 195.028 22.1142C197.542 23.5738 201.874 23.0402 204.087 20.9842C204.15 21.4079 204.229 21.7375 204.261 22.0985C204.292 22.3653 204.372 22.5223 204.672 22.5223C206.664 22.5223 208.656 22.5223 210.648 22.5223C211.028 22.5066 211.107 22.2084 210.854 21.9729ZM202.996 18.3631C202.364 19.2263 201.067 19.5559 200.087 19.1007C199.613 18.881 199.312 18.5514 199.312 18.0178C199.312 17.4841 199.518 17.0604 200.04 16.8093C200.498 16.6052 200.972 16.4483 201.462 16.3541C202.174 16.2128 202.87 16.0088 203.581 15.7106C203.755 16.7465 203.549 17.594 202.996 18.3631Z" fill="#2E3540"/>
<path d="M113.622 21.8944C112.958 21.298 112.879 20.5132 112.879 19.6971C112.879 17.2172 112.879 14.7374 112.879 12.2733C112.879 11.6769 112.863 11.0647 112.705 10.484C111.899 7.31361 110.839 6.57594 108.231 6.18357C106.081 5.86966 103.915 5.93244 101.764 6.19926C98.7447 6.56025 97.1163 8.05128 96.4364 10.9863C96.3416 11.3943 96.4048 11.5042 96.8317 11.5042C98.5708 11.5042 100.31 11.5199 102.049 11.5356C102.27 11.5356 102.46 11.567 102.634 11.3159C103.282 10.2957 104.389 9.90331 105.511 10.2486C105.986 10.3899 106.349 10.641 106.397 11.1589C106.444 11.6769 106.081 12.0065 105.638 12.1791C105.179 12.3517 104.673 12.4616 104.183 12.5401C102.349 12.8226 100.484 13.0109 98.7131 13.6074C96.8317 14.2509 95.4878 16.0872 95.6459 18.0491C95.8673 20.8585 96.974 22.067 98.9028 22.5693C101.78 23.3226 104.468 22.9773 106.887 21.0625C106.95 21.4078 107.013 21.7531 107.045 22.0827C107.077 22.3809 107.203 22.5065 107.519 22.5065C109.464 22.4908 111.393 22.5065 113.337 22.4908C113.48 22.4908 113.654 22.5379 113.733 22.3652C113.827 22.1769 113.764 22.0199 113.622 21.8944ZM103.788 19.289C103.44 19.3047 103.045 19.1948 102.697 18.9751C101.843 18.4415 101.938 17.28 102.871 16.8092C103.915 16.2912 105.116 16.3069 106.16 15.8047C106.413 15.6791 106.444 15.8675 106.476 16.0558C106.808 17.6096 105.432 19.3047 103.788 19.289Z" fill="#2E3540"/>
<path d="M152.546 9.32301C150.823 7.07861 148.531 6.10551 145.764 5.97995C142.001 5.8073 138.871 6.82749 136.91 10.3275C134.049 15.4441 137.211 21.9576 142.507 22.8051C144.879 23.1818 147.234 23.1347 149.527 22.3813C151.63 21.6908 153.084 20.2782 153.827 18.175C154.001 17.6885 153.938 17.4688 153.321 17.4845C151.835 17.5316 150.349 17.5159 148.863 17.4845C148.23 17.4688 147.693 17.4374 147.329 18.1907C147.076 18.7244 146.412 18.9284 145.78 18.9755C144.278 19.1011 142.902 18.0966 142.539 16.6212C142.412 16.0719 142.476 15.8051 143.155 15.8365C144.91 15.8836 146.681 15.8522 148.452 15.8522C150.238 15.8522 152.025 15.8522 153.811 15.8522C154.159 15.8522 154.444 15.8836 154.444 15.3656C154.396 13.1683 153.906 11.1123 152.546 9.32301ZM147.566 12.462C146.76 12.4463 145.954 12.462 145.163 12.462C144.341 12.462 143.503 12.4463 142.681 12.462C142.286 12.4777 142.223 12.3522 142.349 11.9912C142.76 10.7983 143.661 10.1548 145.053 10.1392C146.57 10.1078 147.535 10.7042 148.009 11.8656C148.199 12.3522 148.056 12.4777 147.566 12.462Z" fill="#2E3540"/>
<path d="M172.878 14.0314C172.736 12.1009 172.309 10.2646 170.918 8.8049C167.266 4.9596 160.531 5.05377 156.973 8.96186C155.535 10.5314 155.203 12.4462 155.203 14.4551C155.203 16.8565 155.661 18.8027 156.815 20.0269C159.519 22.9305 162.902 23.8565 166.712 22.8677C169.748 22.083 172.024 20.3565 172.689 17.0919C172.894 16.0874 172.957 15.0516 172.878 14.0314ZM165.716 17.9552C164.894 18.991 163.313 18.944 162.475 17.8296C161.701 16.7937 161.384 15.6009 161.4 14.1883C161.337 13.278 161.653 12.352 162.222 11.5045C163.029 10.2802 164.863 10.2332 165.764 11.3946C166.965 12.9327 166.949 16.417 165.716 17.9552Z" fill="#2E3540"/>
</svg>
