<svg width="161" height="82" viewBox="0 0 161 82" fill="none" xmlns="http://www.w3.org/2000/svg">
<path d="M66.5454 13.6688C66.4913 7.0659 71.1747 1.35181 77.5692 0.190854C83.5314 -0.879403 89.5657 2.63975 91.8893 8.53524C94.5372 15.2833 91.5471 23.0653 85.1525 26.0584C77.7493 29.5232 69.0492 25.2603 66.9777 17.1699C66.6895 16.027 66.5634 14.8661 66.5454 13.6688Z" fill="#2E3540"/>
<path d="M104.39 72.5152C104.39 70.7919 104.354 69.0867 104.408 67.3634C104.426 66.7648 104.228 66.5834 103.67 66.6559C103.418 66.6922 103.165 66.6741 102.913 66.6559C102.643 66.6197 102.211 66.8373 102.121 66.5108C101.995 66.1299 102.067 65.6764 102.103 65.2592C102.121 65.0415 102.355 65.0959 102.517 65.0959C102.985 65.0959 103.436 65.0778 103.904 65.114C104.3 65.1503 104.408 65.0052 104.408 64.6061C104.39 63.6084 104.408 62.6107 104.39 61.613C104.372 61.1777 104.552 60.9056 104.931 60.706C106.065 60.1437 107.164 59.5451 108.299 58.9827C108.911 58.6744 109.146 58.8195 109.164 59.5088C109.182 61.1233 109.218 62.7377 109.146 64.334C109.128 65.0233 109.362 65.1503 109.956 65.0959C110.641 65.0415 111.343 65.0959 112.046 65.0778C112.46 65.0596 112.604 65.1866 112.586 65.622C112.55 66.8918 112.676 66.6197 111.595 66.6559C110.947 66.6741 110.298 66.6741 109.632 66.6559C109.29 66.6378 109.146 66.7285 109.146 67.1094C109.164 70.556 109.146 74.0208 109.164 77.4674C109.182 78.8279 109.866 79.5535 111.235 79.7167C111.685 79.7711 112.154 79.8074 112.622 79.8437C112.91 79.8618 113.181 79.9525 113.271 80.2609C113.379 80.5512 113.217 80.8051 113.018 81.0047C112.406 81.6033 111.613 81.7484 110.821 81.8572C109.29 82.0568 107.795 81.8754 106.426 81.1135C105.237 80.4605 104.516 79.4446 104.462 78.066C104.408 76.2338 104.444 74.3836 104.444 72.5333C104.426 72.5151 104.408 72.5152 104.39 72.5152Z" fill="#2E3540"/>
<path d="M23.8016 41.6767C26.5936 40.5702 29.4036 39.5544 32.2856 38.7018C32.5738 38.8832 32.6099 39.1916 32.6099 39.4818C32.6279 43.2912 32.6279 47.0824 32.6099 50.8918C32.6099 51.1821 32.5738 51.4904 32.2856 51.6718C32.1956 51.6174 32.0875 51.4904 32.0154 51.5086C31.2409 51.7988 30.3222 51.563 29.6378 52.0709C29.0794 52.4881 28.557 52.8328 27.8185 52.7058C27.3141 52.6333 26.8458 52.9416 26.3955 53.1593C25.9632 53.377 25.6029 53.4496 25.1526 53.0505C24.6122 52.5607 24.342 53.1775 24.0538 53.5221C23.6936 53.4496 23.7116 53.1412 23.7116 52.8691C23.7476 49.2774 23.7656 45.6675 23.7116 42.0758C23.7116 41.9488 23.7476 41.8037 23.8016 41.6767Z" fill="#2E3540"/>
<path d="M91.3853 70.2655C91.3853 73.6577 91.3853 77.0317 91.3853 80.4239C91.3853 81.4035 91.2772 81.5123 90.2865 81.5123C89.3678 81.5123 88.4312 81.5123 87.5125 81.5123C86.81 81.5123 86.6299 81.349 86.6299 80.6779C86.6299 73.7303 86.6299 66.8008 86.6299 59.8532C86.6299 59.1457 86.774 59.0006 87.4945 59.0006C88.4852 59.0006 89.4759 59.0006 90.4486 59.0006C91.2411 59.0006 91.3672 59.1276 91.3672 59.9257C91.3853 63.3723 91.3853 66.8189 91.3853 70.2655Z" fill="#2E3540"/>
<path d="M23.8018 41.6769C23.9279 42.0578 23.9459 42.4569 23.9459 42.856C23.9459 46.0486 23.9279 49.2231 23.9639 52.4157C23.9639 52.7785 23.6577 53.1958 24.054 53.5404C23.9099 54.2116 23.4235 54.1209 22.9732 53.9939C22.5049 53.8669 21.9825 53.5586 22.0546 54.4656C22.0546 54.5744 21.9645 54.6651 21.8564 54.6651C21.298 54.6651 20.8117 54.9553 20.2713 55.046C19.9111 55.1005 19.6589 55.046 19.893 54.5925C19.9651 54.4474 20.1452 54.2479 19.9291 54.0846C19.7489 53.9576 19.5688 54.0302 19.4067 54.139C18.9384 54.4111 18.2899 54.52 18.38 55.3C18.398 55.5358 18.1998 55.5902 17.9837 55.5902C17.7315 55.5721 17.4613 55.6447 17.2812 55.8261C16.9209 56.1707 16.5607 56.4428 16.0203 56.3703C15.8222 56.3521 15.7141 56.5698 15.606 56.7149C15.4799 56.8782 15.3178 56.8782 15.1737 56.7512C14.9575 56.5698 15.1557 56.4609 15.2458 56.334C15.2638 56.2977 15.2998 56.2614 15.3358 56.2433C16.4706 55.6628 17.2992 54.7558 18.0377 53.74C18.3259 53.3409 18.7582 53.3953 19.1905 53.5223C19.6949 53.6674 19.9831 53.4679 20.0912 52.9599C20.1632 52.5971 20.1272 52.3613 19.6949 52.4157C19.4607 52.452 19.3166 52.3613 19.2086 52.1255C19.0464 51.7083 18.8303 51.8534 18.7042 52.1436C18.452 52.7241 17.9837 53.0506 17.4253 53.3046C16.9389 53.5223 16.5427 53.8488 16.1824 54.266C15.7141 54.8284 15.1557 55.2637 14.4712 55.5358C14.2731 55.6265 13.9849 55.7535 13.8408 55.4995C13.7147 55.2637 13.9668 55.1005 14.129 55.0098C15.1377 54.4474 15.57 53.2502 16.5967 52.6878C16.7048 52.6334 16.8129 52.5246 16.7588 52.3795C16.7048 52.2343 16.5607 52.2525 16.4346 52.2525C16.2004 52.2525 15.9302 52.2706 15.7861 52.452C15.4079 52.9237 14.9035 53.0506 14.3631 53.1595C13.9488 53.1232 13.9488 52.7785 13.9488 52.5064C13.9308 50.5292 13.9308 48.5338 13.9308 46.5565C13.9308 46.3026 13.9668 46.0486 14.129 45.8309C17.2812 44.289 20.5235 42.9104 23.8018 41.6769Z" fill="#2E3540"/>
<path d="M48.1909 47.3365C47.5965 47.3002 47.0561 47.3365 46.6418 47.8626C46.3716 48.2072 45.9393 48.0077 45.5791 47.9351C45.2728 47.8807 45.0927 47.8626 44.8405 48.1709C44.5703 48.5156 44.0119 48.5882 43.6877 48.951C43.5977 49.0598 43.3455 49.0235 43.2374 48.8603C42.8591 48.1528 42.4809 48.5337 42.1026 48.8421C42.0305 48.8965 41.9765 48.9328 41.9045 48.9872C41.5622 48.9691 41.5982 48.6789 41.5622 48.4793C41.5082 48.2072 41.5442 47.9351 41.5442 47.663C41.5262 43.9806 41.5802 40.3163 41.5262 36.6339C41.5262 36.3981 41.4902 36.1623 41.7423 36.0172C43.7237 35.4185 45.7412 35.0557 47.7586 34.6022C47.9747 34.5478 48.2089 34.5297 48.4251 34.4934C48.335 38.4479 48.4071 42.4024 48.389 46.3569C48.389 46.7016 48.4251 47.0463 48.1909 47.3365Z" fill="#2E3540"/>
<path d="M59.827 45.559C59.3767 45.6315 59.0885 45.8492 58.9804 46.339C58.9444 46.5204 58.8543 46.7925 58.6021 46.7925C58.404 46.7743 58.422 46.5385 58.386 46.3753C58.2779 45.958 58.0077 45.9762 57.7015 46.1394C57.1971 46.3934 56.6567 46.5567 56.1704 46.865C55.4859 47.3004 55.1977 47.1916 54.8735 46.4297C54.6753 45.9399 54.4772 46.2301 54.2971 46.4478C54.0809 46.7018 53.9188 47.1371 53.4865 46.7018C53.3964 46.5567 53.3784 46.3934 53.3784 46.212C53.4325 42.3119 53.3784 38.3937 53.3964 34.4936C53.3964 34.1852 53.3784 33.8587 53.5946 33.5866C55.5219 33.2056 57.4493 32.9335 59.3947 32.734C59.827 33.4233 59.7369 34.2033 59.7009 34.9652C59.6649 35.7634 59.7009 36.5615 59.6829 37.3597C59.6649 39.1737 59.6468 40.9877 59.6288 42.7835C59.6468 43.7087 59.6829 44.6338 59.827 45.559Z" fill="#2E3540"/>
<path d="M78.0917 73.3127C78.0917 70.882 78.0917 68.4512 78.0917 66.0205C78.0917 65.2405 78.2178 65.1135 79.0104 65.0953C80.0011 65.0953 80.9918 65.0953 81.9645 65.0953C82.667 65.0953 82.8471 65.2767 82.8471 66.0023C82.8471 70.8638 82.8471 75.7254 82.8471 80.605C82.8471 81.3125 82.631 81.4939 81.9465 81.512C80.9738 81.512 80.0191 81.512 79.0464 81.512C78.2539 81.512 78.0917 81.3487 78.0737 80.5506C78.0917 78.138 78.0917 75.7254 78.0917 73.3127Z" fill="#2E3540"/>
<path d="M49.6857 73.2588C49.6857 70.8461 49.6857 68.4335 49.6857 66.0209C49.6857 65.2228 49.8118 65.0958 50.5864 65.0958C51.5951 65.0958 52.6038 65.1139 53.6125 65.0958C54.2069 65.0776 54.4591 65.3679 54.4591 65.9302C54.4591 70.8461 54.4591 75.7439 54.4591 80.6599C54.4591 81.2222 54.2069 81.5306 53.6125 81.5124C52.5858 81.4943 51.5591 81.5124 50.5323 81.5124C49.8659 81.5124 49.6857 81.331 49.6857 80.6236C49.6677 78.1747 49.6857 75.7258 49.6857 73.2588Z" fill="#2E3540"/>
<path d="M100.211 73.2403C100.211 75.6529 100.211 78.0655 100.211 80.4782C100.211 81.367 100.085 81.494 99.1847 81.494C98.2121 81.494 97.2574 81.494 96.2847 81.494C95.7443 81.494 95.4741 81.2582 95.4741 80.6958C95.4741 75.7436 95.4741 70.7914 95.4741 65.8211C95.4741 65.295 95.7263 65.0592 96.2487 65.0592C97.2754 65.0773 98.3021 65.0592 99.3469 65.0592C100.085 65.0592 100.229 65.2043 100.229 65.9662C100.229 68.4151 100.211 70.8277 100.211 73.2403Z" fill="#2E3540"/>
<path d="M59.8272 45.5588C59.629 45.5225 59.557 45.4137 59.539 45.2141C59.5029 43.9443 59.3588 42.6745 59.4489 41.4047C59.539 40.1531 59.5029 38.9014 59.5029 37.6498C59.5029 36.4525 59.521 35.2734 59.557 34.0762C59.575 33.6046 59.2868 33.1873 59.4129 32.7157C61.3763 32.4073 63.3577 32.2078 65.3391 32.0808C65.249 36.0716 65.3211 40.0442 65.285 44.035C65.285 44.3616 65.3391 44.7244 65.0869 44.9965C64.3123 44.9602 63.5558 45.0146 62.7993 45.2141C62.2409 45.3593 61.7545 45.5951 61.3583 46.0486C61.1781 46.2481 60.98 46.4476 60.6738 46.4658C60.4036 46.4839 60.1154 46.4476 60.1874 46.0848C60.2595 45.7583 60.0433 45.6676 59.8272 45.5588Z" fill="#2E3540"/>
<path d="M53.6123 33.5862C53.6123 37.6858 53.6123 41.7854 53.6303 45.8851C53.6303 46.1753 53.5403 46.4293 53.5042 46.6832C52.7837 46.6469 52.0092 46.3023 51.4328 47.1004C51.3247 47.2456 51.1626 47.3726 51.0185 47.4814C50.6582 47.7716 50.37 47.826 50.316 47.2274C50.298 47.0823 50.316 46.8646 50.0998 46.8102C49.8657 46.7739 49.7756 46.9553 49.6495 47.1004C49.5414 47.2456 49.4334 47.427 49.3073 47.5539C49.0371 47.826 48.7309 48.2251 48.5688 47.4632C48.5147 47.2456 48.3346 47.3363 48.2085 47.3181C48.2085 43.2729 48.2085 39.2096 48.2085 35.1644C48.2085 34.9104 48.2085 34.6564 48.4607 34.4932C50.1359 34.1485 51.8651 33.7857 53.6123 33.5862Z" fill="#2E3540"/>
<path d="M14.1106 45.8308C14.1106 48.0257 14.1106 50.2388 14.1106 52.4338C14.1106 52.7058 14.0205 52.9961 14.3447 53.1593C14.2727 53.3589 14.1826 53.5403 14.1106 53.7398C13.8944 54.2296 13.336 54.3747 13.0118 53.9575C12.5615 53.377 12.1472 53.5221 11.7689 53.9575C10.9043 54.9371 9.57136 55.1366 8.61668 55.971C8.31047 56.2431 7.9322 56.098 7.64399 55.8441C7.31977 55.5538 7.3738 55.1547 7.77008 54.9915C7.80611 54.9733 7.86015 54.9552 7.89617 54.9552C8.90489 55.0278 9.57136 54.3929 10.3099 53.8305C11.1024 53.2319 12.0031 52.8147 12.9938 52.6696C13.3 52.6333 13.5702 52.5426 13.7323 52.2524C13.7863 52.1254 13.8944 51.9802 13.7503 51.8533C13.6422 51.7444 13.5342 51.7807 13.4081 51.8533C12.9758 52.1254 12.5615 52.1979 12.1472 51.8351C11.9851 51.69 11.8229 51.817 11.6969 51.9077C11.4267 52.1072 11.1565 52.3068 10.9223 52.5426C10.3999 53.0686 9.80552 53.2863 9.10303 53.1231C8.9229 53.0868 8.79681 53.0324 8.72476 53.2682C8.56264 53.7761 8.14835 53.9212 7.68002 53.9031C6.67131 53.8668 5.89676 54.2477 5.32035 55.0822C5.17625 55.2999 4.97811 55.4813 4.72593 55.5175C4.2576 55.572 3.89735 55.6808 3.78927 56.2431C3.75324 56.4608 3.411 56.3883 3.23087 56.3701C2.76254 56.352 2.36626 56.479 2.06005 56.8599C1.87992 57.0776 1.62774 57.2046 1.35755 57.2227C1.05133 57.259 0.817166 57.132 0.943256 56.7873C1.1414 56.2613 0.853192 56.3157 0.528963 56.3701C0.384861 56.3883 0.222746 56.4427 0.168708 56.2431C0.132682 56.0617 0.294797 55.9892 0.402873 55.8985C0.601014 55.7534 0.889217 55.7352 1.01531 55.4813C0.817166 55.2273 0.637039 55.4631 0.474924 55.5175C0.330822 55.5538 0.186721 55.6808 0.0606314 55.5357C-0.0834705 55.3724 0.0606314 55.2092 0.168708 55.0822C0.51095 54.6468 0.925243 54.3022 1.50165 54.4473C1.80787 54.5198 1.96998 54.4291 2.16812 54.2477C2.76254 53.7398 3.411 53.3226 4.16754 53.0868C4.32965 53.0324 4.50978 52.9779 4.59984 52.851C5.06817 52.2886 5.62657 52.1254 6.32906 52.3068C6.59926 52.3793 6.74336 52.1435 6.76137 51.8896C6.77938 51.6356 6.67131 51.5086 6.40112 51.4905C5.64458 51.3998 4.94208 51.5086 4.47375 52.1435C3.78927 53.0686 2.85261 53.3589 1.77184 53.2863C1.5737 53.2682 1.32152 53.3407 1.26748 53.0505C1.21345 52.7784 1.33954 52.6333 1.5737 52.4882C2.94267 51.7081 4.29363 50.8919 5.66259 50.13C8.41854 48.6062 11.2285 47.1369 14.1106 45.8308Z" fill="#2E3540"/>
<path d="M32.2676 51.6718C32.3757 51.3271 32.4117 50.9825 32.4117 50.6197C32.4117 46.9736 32.4117 43.3456 32.4117 39.6994C32.4117 39.3548 32.3937 39.0283 32.2856 38.7017C33.9428 38.1213 35.636 37.6315 37.3292 37.178C37.5633 37.4138 37.5273 37.7222 37.5273 38.0124C37.5273 41.6041 37.5273 45.1958 37.5273 48.7694C37.5273 49.0597 37.5633 49.368 37.3292 49.6039C36.8068 49.5494 36.6627 49.8578 36.5546 50.2932C36.4285 50.8192 36.1403 50.8736 35.762 50.4927C35.2397 49.9666 35.0235 49.9304 34.5192 50.4927C34.0689 50.9825 33.5825 51.2183 32.934 51.1276C32.7539 51.2909 32.9521 51.563 32.7899 51.7444C32.5918 51.9076 32.4297 51.8351 32.2676 51.6718Z" fill="#2E3540"/>
<path d="M65.0864 45.0147C65.0864 40.9695 65.0864 36.9243 65.0864 32.879C65.0864 32.5888 65.0144 32.2804 65.3386 32.0809C66.7616 31.9176 68.2026 31.7906 69.6256 31.7906C69.8598 32.0265 69.8238 32.3348 69.8238 32.6251C69.8238 36.634 69.8238 40.6611 69.8238 44.67C69.8238 44.9603 69.8598 45.2686 69.6256 45.5045C68.6709 44.8877 67.7703 45.0872 66.8877 45.704C66.6355 45.8854 66.3473 46.0305 66.0771 46.1756C65.8429 46.3026 65.5728 46.4115 65.4106 46.1394C65.2125 45.8128 65.5547 45.704 65.7529 45.5952C66.1131 45.3956 66.5094 45.2324 66.8877 45.051C67.0318 44.9784 67.2119 44.924 67.2119 44.67C66.4554 44.5249 65.8429 45.2324 65.0864 45.0147Z" fill="#2E3540"/>
<path d="M37.3291 49.6221C37.3291 45.4681 37.3291 41.3321 37.3291 37.1781C38.7881 36.7427 40.2472 36.3255 41.7422 36.0353C41.5441 36.3981 41.7602 36.779 41.7602 37.1418C41.7422 40.8605 41.7422 44.5792 41.7422 48.2798C41.7422 48.5156 41.6522 48.7877 41.8863 48.9872C41.6342 49.2956 41.3279 49.35 40.9317 49.2593C40.4993 49.1505 40.1031 49.1505 39.8509 49.6402C39.7968 49.7491 38.1037 50.2933 37.9956 50.2389C37.7074 50.1119 37.5633 49.8035 37.3291 49.6221Z" fill="#2E3540"/>
<path d="M79.731 31.5551C81.3341 31.5732 82.9553 31.4825 84.5584 31.6639C84.3963 31.9905 84.3422 32.3351 84.3422 32.6979C84.3603 35.4189 84.3422 38.1399 84.3603 40.8609C84.3783 41.3688 83.928 41.4595 83.6217 41.6772C83.4776 41.7679 83.1714 41.7679 83.2255 42.0037C83.2795 42.2395 83.5677 42.167 83.7658 42.167C83.8739 42.167 83.964 42.1307 84.0721 42.167C84.2882 42.3847 84.3242 42.693 84.3963 42.9833C83.5497 43.0014 82.8292 43.2191 82.4689 44.1079C82.3428 44.4526 81.9646 44.4526 81.6584 44.507C81.4242 44.5433 81.19 44.5252 80.9739 44.5614C80.0552 44.6884 79.9471 44.5977 79.9652 43.6726C79.6049 43.5093 79.5148 43.2009 79.5148 42.8563C79.5148 39.3009 79.4968 35.7636 79.5148 32.2081C79.5329 31.9723 79.5689 31.7546 79.731 31.5551Z" fill="#2E3540"/>
<path d="M91.4751 42.475C91.295 42.5294 91.1149 42.5838 90.9527 42.6564C90.5565 42.8378 90.3403 43.1099 90.6826 43.5271C90.9167 43.7992 90.9347 44.0532 90.5925 44.2527C90.3223 44.416 90.2503 44.7244 90.1242 44.9783C90.0341 45.1597 89.89 45.196 89.7099 45.1597C89.5478 45.1416 89.4757 45.0327 89.4397 44.8695C89.3136 44.1257 88.7732 43.8718 88.0527 44.2527C87.7645 44.416 87.5303 44.4885 87.2782 44.1983C87.098 43.9262 87.098 43.5997 87.098 43.2913C87.098 39.7722 87.098 36.253 87.098 32.7157C87.098 32.4073 87.08 32.0808 87.2962 31.8087C88.9173 31.8269 90.5385 31.972 92.1416 32.1715C91.7453 32.4618 91.6552 32.8427 91.6552 33.3325C91.6733 36.0353 91.6733 38.7382 91.6552 41.441C91.6733 41.8038 91.7273 42.1666 91.4751 42.475Z" fill="#2E3540"/>
<path d="M91.4755 42.4749C91.4755 39.2823 91.4935 36.0897 91.4575 32.897C91.4575 32.3347 91.6016 32.117 92.142 32.1714C93.3669 32.2258 94.5917 32.3347 95.7986 32.5524C95.7265 33.0603 95.7085 33.5682 95.7085 34.0761C95.7085 37.0873 95.7085 40.1167 95.7085 43.1279C95.7085 43.4907 95.7445 43.8535 95.5104 44.1619C94.8259 44.307 94.2135 44.6336 93.601 44.9238C93.4029 45.0145 93.1147 45.1596 92.9886 44.8694C92.8445 44.561 93.1507 44.4884 93.3669 44.3977C93.6551 44.2889 93.9793 44.2345 93.8532 43.8173C93.7271 43.3819 93.3669 43.5814 93.1147 43.6359C92.2321 43.7991 92.2141 43.8173 92.0699 42.8921C92.0159 42.5475 91.7277 42.5475 91.4755 42.4749Z" fill="#2E3540"/>
<path d="M107.993 46.5565C107.687 46.7017 107.381 46.6291 107.056 46.6472C106.714 46.6654 106.39 46.6835 106.12 46.9375C105.922 47.1189 105.687 47.0645 105.471 47.0463C105.219 47.0282 105.111 46.8468 105.075 46.611C105.039 46.3751 105.219 46.2663 105.399 46.1937C105.94 46.0123 106.498 45.9761 107.056 45.9035C107.2 45.8854 107.363 45.9035 107.489 45.8491C107.633 45.7947 107.849 45.7765 107.849 45.5588C107.849 45.3049 107.651 45.2867 107.453 45.2505C106.498 45.0872 105.525 45.1416 104.553 45.1416C104.21 45.1416 103.886 45.1235 103.67 44.7788C103.472 44.5249 103.472 44.2346 103.472 43.9444C103.49 43.1644 103.436 42.3844 103.508 41.6225C103.634 41.1508 103.994 41.169 104.354 41.2234C104.751 41.2778 105.147 41.3685 105.543 41.2778C105.723 41.2415 105.976 41.2053 105.922 40.9513C105.885 40.7699 105.651 40.7699 105.489 40.788C105.075 40.8425 104.661 40.8787 104.246 40.915C103.994 40.9332 103.742 40.9513 103.58 40.6792C103.472 40.3708 103.454 40.0806 103.652 39.8085C103.796 39.6996 103.958 39.6815 104.12 39.7178C104.787 39.8448 105.147 39.4457 105.507 38.9378C104.697 39.5727 104.066 39.2461 103.508 38.5931C103.4 37.1238 103.472 35.6726 103.472 34.2214C103.472 34.0218 103.508 33.8404 103.67 33.6953C105.183 33.9674 106.678 34.2214 108.173 34.4935C108.263 34.5116 108.353 34.566 108.461 34.6023C108.173 34.9832 108.155 35.4186 108.155 35.8721C108.155 39.0829 108.155 42.3118 108.155 45.5226C108.209 45.8854 108.263 46.2482 107.993 46.5565Z" fill="#2E3540"/>
<path d="M76.7587 44.307C75.9842 44.6517 75.2096 45.0508 74.309 44.9238C73.8407 44.8512 73.3183 44.8512 73.4264 44.1075C73.4804 43.7447 73.1562 43.8173 72.94 43.7991C72.7059 43.5633 72.7419 43.2549 72.7419 42.9647C72.7419 39.4818 72.7239 35.9989 72.7419 32.5161C72.7419 31.6816 72.7959 31.6454 73.6425 31.6454C74.0028 31.6454 74.345 31.6998 74.7053 31.6091C75.2997 31.6091 75.8941 31.5909 76.4705 31.5909C76.7227 31.8993 76.6687 32.2621 76.6687 32.6249C76.6687 35.8538 76.6687 39.0827 76.6687 42.3117C76.6507 42.9466 76.6507 43.6359 76.7587 44.307Z" fill="#2E3540"/>
<path d="M95.5099 44.1806C95.5099 40.4801 95.5099 36.7977 95.4919 33.0971C95.4919 32.8613 95.4559 32.6073 95.7801 32.571C95.9422 32.5892 96.0863 32.6073 96.2485 32.6073C96.4466 32.7162 96.6988 32.5892 96.8969 32.698C97.8696 32.7343 98.8243 32.8794 99.7789 33.079C99.905 33.859 99.833 34.639 99.833 35.419C99.833 36.326 99.851 37.233 99.887 38.14C99.797 38.4484 99.5448 38.3758 99.3286 38.3577C99.0224 38.3396 98.6982 38.3033 98.41 38.4484C98.2839 38.5209 98.1398 38.6116 98.1758 38.7749C98.2299 38.9563 98.392 38.9563 98.5361 38.9019C99.1305 38.7205 99.5268 38.9926 99.869 39.4461C99.815 41.1694 99.797 42.9108 99.887 44.6341C99.7609 44.6341 99.6348 44.6341 99.5088 44.6341C99.3827 44.489 99.2566 44.5071 99.1305 44.6341C98.7702 44.6704 98.428 44.6341 98.0858 44.5797C97.6715 44.5071 97.2752 44.3802 97.005 44.9425C96.8249 45.3234 96.3385 45.2146 95.9783 45.1602C95.7981 45.142 95.8522 44.9788 95.9422 44.8699C96.0683 44.6885 96.4106 44.5434 96.2485 44.2713C96.1043 43.9992 95.7801 44.1988 95.5099 44.1806Z" fill="#2E3540"/>
<path d="M99.9235 44.6337C99.8154 44.4342 99.6713 44.2346 99.6713 43.9988C99.7254 42.4388 99.5272 40.8969 99.7974 39.3368C99.9956 38.9922 99.9415 38.6475 99.7974 38.321C99.5813 36.7972 99.7074 35.2735 99.6713 33.7497C99.6713 33.532 99.5813 33.2781 99.7974 33.0967C101.112 33.2055 102.427 33.4232 103.706 33.7134C103.706 35.4186 103.706 37.1419 103.706 38.8471C103.598 39.1917 103.706 39.5182 103.832 39.8266C103.58 40.0987 103.742 40.4252 103.706 40.7155C103.508 40.915 103.238 40.8424 103.004 40.8969C102.878 40.915 102.734 40.9331 102.734 41.0964C102.734 41.2415 102.878 41.2778 103.004 41.2959C103.238 41.3504 103.508 41.2597 103.706 41.4592C103.706 42.5657 103.706 43.6904 103.706 44.797C103.346 44.67 103.004 44.6337 102.607 44.7425C101.905 44.9058 101.184 45.0691 100.482 44.6881C100.32 44.5974 100.104 44.6518 99.9235 44.6337Z" fill="#2E3540"/>
<path d="M74.6872 31.5911C74.3089 31.8088 73.9126 31.6999 73.5163 31.6818C73.048 31.6636 72.9039 31.8269 72.9219 32.2985C72.9399 36.1261 72.9399 39.9536 72.9399 43.7811C72.4176 43.9444 72.1834 44.3979 71.8952 44.797C71.3368 45.577 70.5082 45.8309 69.6616 45.5226C69.6616 40.9513 69.6616 36.38 69.6616 31.8087C71.3188 31.6455 72.994 31.5548 74.6872 31.5911Z" fill="#2E3540"/>
<path d="M76.7587 44.3071C76.3624 44.1438 76.4705 43.7992 76.4705 43.4908C76.4705 39.5181 76.4705 35.5455 76.4705 31.5728C77.5693 31.5365 78.65 31.4821 79.7488 31.5728C79.7488 35.3278 79.7488 39.0646 79.7488 42.8196C79.7488 43.1461 79.7668 43.4545 80.001 43.6903C79.7308 43.5815 79.4606 43.5996 79.2264 43.7085C78.4159 44.0713 77.5873 44.162 76.7587 44.3071Z" fill="#2E3540"/>
<path d="M87.2961 31.8088C87.2961 35.9447 87.2781 40.0625 87.2781 44.1984C86.9899 44.0533 86.7197 44.0533 86.5036 44.3616C86.2334 44.7244 85.9272 44.7607 85.657 44.3616C85.4228 44.0351 85.2247 44.1258 84.9905 44.3616C84.8284 44.5249 84.6663 44.797 84.3601 44.543C84.0358 44.2528 84.252 44.0351 84.4501 43.7993C84.6843 43.5091 84.8104 43.2188 84.3961 42.9649C84.1619 42.7835 84.0178 42.5658 84.1439 42.2393C84.1439 42.076 84.252 41.9672 84.3601 41.8583C84.6483 41.5681 84.6122 41.3141 84.306 41.0783C84.0899 40.9332 84.1619 40.6974 84.1619 40.4978C84.1619 37.7406 84.1619 35.0014 84.1619 32.2442C84.1619 31.9358 84.1259 31.6274 84.5762 31.6455C85.4769 31.7181 86.3955 31.6093 87.2961 31.8088Z" fill="#2E3540"/>
<path d="M115.342 47.0826C115.18 47.2095 115 47.3547 114.838 47.0826C114.532 46.5565 114.117 46.6109 113.685 46.883C113.433 47.0281 113.271 47.1007 113.127 46.7561C113.001 46.4477 112.712 46.3026 112.424 46.1756C111.343 46.0486 111.343 46.0486 111.343 44.8876C111.343 43.7811 111.343 42.6564 111.343 41.5499C111.343 41.2234 111.307 40.8606 111.596 40.6066C111.83 40.4615 111.992 40.5885 112.136 40.7517C112.244 40.8606 112.334 40.9875 112.496 40.9694C112.803 40.9331 113.217 40.9331 113.271 40.5885C113.325 40.2075 112.911 40.1894 112.622 40.1531C112.28 40.0987 111.902 40.2075 111.578 39.9898C111.38 39.8084 111.325 39.5545 111.325 39.3005C111.307 38.2303 111.289 37.16 111.325 36.0897C111.343 35.727 111.343 35.2735 111.938 35.3823C113.037 35.5637 114.117 35.8177 115.162 36.1623C115.396 36.4344 115.36 36.7609 115.36 37.0693C115.378 38.7382 115.36 40.4071 115.378 42.0759C115.252 42.6927 114.946 43.1825 114.37 43.509C114.676 43.7267 115.108 43.509 115.27 43.9081C115.45 44.9421 115.414 46.0123 115.342 47.0826Z" fill="#2E3540"/>
<path d="M115.36 42.2571C115.108 42.0757 115.198 41.8036 115.198 41.5678C115.198 39.772 115.198 37.958 115.198 36.1621C116.603 36.4523 118.008 36.8151 119.359 37.3049C119.503 38.5747 119.395 39.8445 119.431 41.1143C119.161 41.5497 118.801 41.2413 118.494 41.1869C118.278 41.1506 118.098 40.9692 117.864 40.9511C117.648 40.9329 117.414 40.9511 117.378 41.2232C117.36 41.4953 117.594 41.6041 117.792 41.5678C118.494 41.4046 119.035 41.8036 119.629 42.0032C119.449 42.5292 119.233 43.0371 119.629 43.5632C119.143 44.1255 118.656 43.799 118.062 43.4362C118.188 43.6902 118.224 43.7809 118.278 43.8534C118.62 44.3432 118.332 44.4521 117.9 44.4883C117.594 44.5246 117.071 44.2525 117.035 44.6697C116.999 45.087 117.54 45.0144 117.864 45.087C118.368 45.1958 118.873 45.3228 119.377 45.4498C119.179 46.2842 119.395 47.1368 119.233 47.9712C118.584 48.0075 117.954 47.9531 117.432 47.4633C117.215 47.2638 116.873 47.2093 116.585 47.0824C116.207 47.0098 115.828 47.0098 115.45 47.0824L115.396 47.1005H115.342C115.09 46.8647 115.216 46.5382 115.198 46.2661C115.18 45.4498 115.198 44.6153 115.198 43.799C115.396 43.5813 115.666 43.6358 115.901 43.6358C116.117 43.6176 116.315 43.6358 116.513 43.5451C116.801 43.4181 116.999 43.2004 116.981 42.8739C116.963 42.5474 116.675 42.5292 116.441 42.4385C116.099 42.2753 115.684 42.5111 115.36 42.2571Z" fill="#2E3540"/>
<path d="M111.812 40.5705C111.47 40.7156 111.542 41.0059 111.542 41.278C111.542 42.6203 111.56 43.9808 111.524 45.3232C111.506 45.8311 111.596 46.1395 112.19 46.0488C112.262 46.0307 112.334 46.1032 112.406 46.1395C111.596 46.1758 110.785 46.2665 110.137 45.6316C109.921 45.559 109.722 45.559 109.506 45.6316C109.47 45.6316 109.416 45.6497 109.38 45.6497C108.948 45.5046 109.056 45.1055 109.056 44.7971C109.038 42.8562 109.038 40.9152 109.056 38.9561C109.056 37.8133 109.038 36.6704 109.074 35.5276C109.092 35.1648 109.092 34.7113 109.686 34.8202C110.461 34.8927 111.218 35.0923 111.974 35.3281C111.614 35.3462 111.542 35.582 111.542 35.8904C111.542 37.0514 111.542 38.2123 111.542 39.3733C111.542 39.6272 111.596 39.8268 111.848 39.9356C111.704 40.1714 111.722 40.371 111.812 40.5705Z" fill="#2E3540"/>
<path d="M119.629 43.5272C119.395 43.5272 119.215 43.4728 119.233 43.1826C119.269 42.7654 119.053 42.2575 119.611 41.9854C119.575 41.7133 119.341 41.5137 119.359 41.2235C119.089 40.3346 119.269 39.4276 119.251 38.5206C119.233 38.1215 119.107 37.6862 119.359 37.2871C120.638 37.5955 121.917 37.9583 123.142 38.4299C123.304 39.3369 123.196 40.2439 123.214 41.1509C123.232 42.0035 123.232 42.8379 123.214 43.6905C123.214 43.9807 123.25 44.2891 123.016 44.5249C122.583 44.3798 122.295 44.0352 121.899 43.8356C121.485 43.6179 121.088 43.5091 120.674 43.8538C120.188 44.271 119.99 43.5998 119.629 43.5272Z" fill="#2E3540"/>
<path d="M123.016 44.5067C123.016 42.6927 123.016 40.8787 123.016 39.0828C123.016 38.8652 122.926 38.6112 123.142 38.4298C124.295 38.7745 125.447 39.0828 126.546 39.5726C126.69 39.8084 126.744 40.0805 126.744 40.3526C126.744 41.8038 126.744 43.255 126.744 44.7062C126.744 44.9602 126.744 45.2142 126.546 45.4137C126.006 45.4137 125.339 45.7039 125.249 44.7062C125.213 44.3434 124.745 44.5248 124.493 44.5793C124.042 44.67 123.61 44.8514 123.16 44.6337C123.124 44.5974 123.07 44.543 123.016 44.5067Z" fill="#2E3540"/>
<path d="M126.546 45.3955C126.546 43.4545 126.546 41.5136 126.546 39.5544C127.753 39.9172 128.942 40.2982 130.076 40.8242C130.202 41.7675 130.112 42.7289 130.13 43.6722C130.148 44.3615 130.13 45.069 130.184 45.7583C129.86 45.7402 129.662 46.0123 129.428 46.1574C128.942 46.4476 128.599 46.3025 128.563 45.7583C128.527 45.2685 128.275 45.196 127.897 45.2323C127.465 45.3048 127.014 45.3411 126.546 45.3955Z" fill="#2E3540"/>
<path d="M133.625 42.2209C134.886 42.747 136.129 43.2549 137.39 43.781C137.534 43.8354 137.678 43.9261 137.822 44.0168C137.894 45.2685 137.858 46.502 137.858 47.7537C137.858 47.9713 137.84 48.1709 137.66 48.3341C137.047 47.9895 136.507 47.8806 135.804 48.316C135.462 48.5337 135.48 48.0076 135.57 47.7355C135.624 47.5541 135.877 47.3727 135.714 47.1732C135.534 46.9555 135.39 47.2095 135.246 47.3002C135.156 47.3546 135.066 47.3727 135.03 47.282C134.742 46.4476 134.345 47.028 133.985 47.1913C133.949 47.2094 133.913 47.2094 133.859 47.2276C133.337 47.282 133.445 46.8648 133.427 46.6108C133.391 45.4861 133.409 44.3433 133.409 43.2186C133.427 42.8377 133.355 42.493 133.625 42.2209Z" fill="#2E3540"/>
<path d="M137.66 48.3161C137.66 47.0826 137.66 45.8672 137.66 44.6337C137.66 44.416 137.569 44.162 137.822 43.9988C138.848 44.4523 139.857 44.9058 140.884 45.3774C141.064 45.4681 141.28 45.4863 141.406 45.6858C141.604 46.5384 141.478 47.391 141.514 48.2435C141.532 48.9147 141.37 49.6585 142.091 50.112C141.55 50.0575 140.938 50.2026 140.542 49.6403C140.47 49.5315 140.271 49.5859 140.127 49.6585C139.209 50.1482 138.326 49.6403 137.443 49.5496C137.299 49.5315 137.137 49.3682 137.155 49.1687C137.173 48.9329 137.389 48.9691 137.533 48.9691C138.038 48.9328 138.56 49.078 139.137 48.9329C138.74 48.3887 138.128 48.5156 137.66 48.3161Z" fill="#2E3540"/>
<path d="M133.625 42.2212C133.625 43.6906 133.625 45.1599 133.625 46.6474C133.625 46.8469 133.517 47.1371 133.859 47.2097C133.427 47.4274 133.12 47.3911 133.12 46.8288C133.12 46.5022 133.012 46.3027 132.652 46.3208C132.4 46.3208 132.22 46.1939 132.04 46.0487C131.896 45.9399 131.716 45.8855 131.589 46.0125C131.031 46.5748 130.635 46.1757 130.22 45.7948C130.076 45.6678 129.968 45.5408 129.968 45.3231C129.986 43.9264 129.968 42.5296 129.986 41.1328C129.986 41.0421 130.076 40.9514 130.112 40.8607C131.283 41.2598 132.49 41.6407 133.625 42.2212Z" fill="#2E3540"/>
<path d="M142.073 50.1121C141.281 50.0576 141.262 49.5134 141.317 48.8967C141.407 47.8264 141.208 46.7562 141.407 45.6859C142.469 46.1938 143.514 46.6836 144.577 47.1915C144.721 47.2641 144.865 47.3548 144.991 47.4455C144.883 48.1529 144.937 48.8785 144.919 49.586C144.901 49.9851 144.937 50.4023 144.595 50.6925C144.487 50.6018 144.379 50.493 144.253 50.4204C143.946 50.239 143.604 50.2572 143.406 50.5293C143.172 50.8195 143.46 51.0372 143.676 51.2005C144.271 51.6358 144.865 52.0893 145.676 51.9079C145.838 51.8716 146.054 51.8354 146.144 52.0893C146.198 52.2526 146.234 52.434 146.126 52.5791C145.964 52.7968 145.784 52.561 145.622 52.561C144.919 52.561 144.271 52.4884 143.73 51.9079C143.532 51.6902 143.082 51.6902 142.812 51.4181C142.649 51.2549 142.487 51.2549 142.343 51.4363C142.199 51.5995 141.983 51.7628 141.803 51.5995C141.605 51.4 141.695 51.146 141.839 50.9102C141.983 50.6563 142.397 50.5111 142.073 50.1121Z" fill="#2E3540"/>
<path d="M80.4694 58.9645C81.1539 58.9645 81.8024 59.1459 82.3427 59.5812C83.1893 60.2524 83.2074 61.3227 82.3788 62.0301C81.3881 62.919 79.5508 62.919 78.5421 62.0301C77.7675 61.359 77.7495 60.3613 78.506 59.6538C79.0464 59.164 79.7309 58.9826 80.4694 58.9645Z" fill="#2E3540"/>
<path d="M52.1353 62.7194C51.3427 62.7194 50.7303 62.5199 50.2079 62.1026C49.3613 61.4315 49.3253 60.3612 50.1359 59.6356C51.1446 58.7286 53.0539 58.7468 54.0266 59.6719C54.7291 60.3431 54.7471 61.2864 54.0446 61.9575C53.4863 62.5199 52.7838 62.7013 52.1353 62.7194Z" fill="#2E3540"/>
<path d="M109.686 34.8562C109.326 34.8925 109.272 35.1283 109.272 35.4367C109.272 38.72 109.272 42.0034 109.272 45.2686C109.272 45.4137 109.272 45.5769 109.398 45.6676C109.074 45.7765 108.858 45.9942 108.624 46.2481C108.462 46.4295 108.281 46.6291 107.993 46.5565C107.993 42.8197 107.993 39.0828 107.993 35.3279C107.993 34.9651 107.957 34.566 108.498 34.6023C108.93 34.6023 109.308 34.7111 109.686 34.8562Z" fill="#2E3540"/>
<path d="M97.7618 62.7193C97.0773 62.7012 96.3748 62.5016 95.8164 61.9393C95.168 61.2862 95.168 60.3974 95.8164 59.7262C96.7891 58.7104 98.8426 58.7104 99.8513 59.7081C100.572 60.4337 100.518 61.4314 99.7072 62.0844C99.1668 62.5379 98.5183 62.7012 97.7618 62.7193Z" fill="#2E3540"/>
<path d="M126.924 47.5906C127.069 47.5543 127.213 47.5361 127.339 47.4636C128.744 46.611 130.149 47.0464 131.554 47.4454C131.806 47.518 132.04 47.6631 131.968 47.9715C131.896 48.298 131.608 48.2073 131.392 48.171C130.923 48.0803 130.473 47.9896 129.987 48.0985C130.095 48.425 130.401 48.4069 130.563 48.5883C130.401 49.2594 130.671 49.985 130.311 50.6199C129.338 50.2027 128.329 50.1846 127.303 50.239C126.42 50.366 126.33 50.2934 126.312 49.459C126.312 49.0418 126.312 48.6245 126.312 48.1892C126.366 47.8264 126.546 47.6268 126.924 47.5906Z" fill="#2E3540"/>
<path d="M130.346 50.6381C130.346 50.1665 130.346 49.6767 130.346 49.2051C130.346 48.9692 130.328 48.7334 130.599 48.6064C131.86 48.8785 133.12 49.1688 134.399 49.4409C134.543 49.4772 134.688 49.5134 134.814 49.5679C134.958 49.6223 135.174 49.6586 135.138 49.8944C135.102 50.1483 134.868 50.0758 134.688 50.1302C134.543 50.1846 134.039 49.713 134.237 50.3842C134.381 51.2186 134.417 52.053 134.003 52.8331C133.895 52.5791 133.841 52.3251 133.409 52.3977C132.868 52.4884 132.31 52.3796 131.77 52.3614C131.157 52.3433 130.563 51.8535 129.968 51.5633C129.896 51.527 129.842 51.4544 129.878 51.3637C129.914 51.2549 130.022 51.2912 130.094 51.273C130.545 51.2367 131.013 51.3274 131.535 51.4181C131.229 50.8558 130.689 50.9102 130.346 50.6381Z" fill="#2E3540"/>
<path d="M137.786 52.2706C138.506 52.5427 138.831 52.452 139.209 51.8896C139.371 51.6538 139.569 51.6357 139.803 51.7626C140.056 51.8896 140.326 52.0166 140.578 52.1617C141.244 52.5789 141.947 52.8329 142.739 52.8873C142.505 53.0324 142.145 53.1413 142.451 53.5222C142.073 53.4678 141.929 53.6311 141.929 54.012C141.929 54.5925 142.145 54.9916 142.703 55.2092C142.848 55.4451 142.757 55.6083 142.559 55.7534C142.199 55.4088 141.785 55.3725 141.334 55.5176C140.776 55.6809 140.308 55.6446 139.839 55.2092C139.227 54.6288 138.434 54.4292 137.66 54.1753C137.372 53.5222 137.3 52.8692 137.786 52.2706Z" fill="#2E3540"/>
<path d="M119.233 47.9354C118.98 47.1554 119.143 46.3572 119.143 45.5772C119.143 45.4684 119.269 45.4321 119.377 45.4139C119.917 45.4502 120.458 45.3595 120.98 45.1781C121.538 44.9786 122.097 45.1781 122.655 45.1963C123.015 45.2144 122.943 45.7223 123.195 45.9037C123.069 46.5023 123.105 47.1191 123.087 47.7358C123.087 48.0261 123.123 48.3345 122.907 48.5703C121.574 48.9149 120.44 48.1712 119.233 47.9354Z" fill="#2E3540"/>
<path d="M122.889 48.5882C122.889 47.8808 122.889 47.1552 122.889 46.4477C122.889 46.2119 122.853 45.958 123.178 45.9217C123.358 45.831 123.556 45.7584 123.718 45.6314C124.042 45.3775 124.294 45.3775 124.456 45.7766C124.601 46.1031 124.871 46.1031 125.141 46.0668C125.501 46.0305 125.879 46.0124 125.988 46.4115C126.114 46.8105 125.609 46.7743 125.429 47.0464C125.807 47.518 126.366 47.5543 126.906 47.6268C126.636 47.7357 126.492 47.9171 126.528 48.2436C126.564 48.6608 126.582 49.078 126.528 49.4952C126.438 50.1664 126.726 50.366 127.321 50.2753C126.906 50.4567 126.456 50.4204 126.024 50.366C125.519 50.2934 125.267 49.7129 125.249 49.4045C125.213 48.7878 124.907 48.7878 124.493 48.7515C123.97 48.679 123.43 48.6245 122.889 48.5882Z" fill="#2E3540"/>
<path d="M144.577 50.6927C144.811 49.8039 144.703 48.8969 144.721 47.9899C144.721 47.7722 144.631 47.5001 144.991 47.4457C146.09 48.0443 147.261 48.4978 148.288 49.2053C148.36 49.949 148.324 50.7109 148.324 51.4546C148.324 51.6542 148.306 51.8718 148.126 52.0351C147.783 51.7993 147.549 51.2369 146.991 51.7449C146.829 51.89 146.667 51.6542 146.523 51.5272C146.198 51.2007 145.856 50.9648 145.37 51.0737C145.045 51.1281 144.775 50.983 144.577 50.6927Z" fill="#2E3540"/>
<path d="M137.786 52.2705C137.57 52.8873 137.678 53.5222 137.66 54.1571C136.975 54.1571 136.327 54.2115 135.841 53.5041C135.661 53.232 135.048 53.2501 134.634 53.1775C134.364 53.1231 134.093 53.1594 133.985 52.8147C134.057 51.9984 134.147 51.1821 134.22 50.3658C134.778 50.7468 135.444 50.6924 136.075 50.7286C136.471 50.7468 136.741 50.8193 136.651 51.291C136.579 51.6719 136.849 51.817 137.12 51.944C137.336 52.071 137.57 52.1798 137.786 52.2705Z" fill="#2E3540"/>
<path d="M148.125 52.0348C148.125 51.2911 148.125 50.5292 148.125 49.7855C148.125 49.5859 148.071 49.3683 148.287 49.2231C149.422 49.8399 150.593 50.366 151.638 51.146C151.602 51.5451 151.62 51.9441 151.584 52.3432C151.548 52.7967 151.674 53.1232 152.07 53.3228C151.421 53.5586 150.881 53.359 150.377 52.96C150.089 52.7242 149.8 52.4883 149.53 52.2707C149.35 52.4883 149.44 52.6516 149.458 52.8149C149.494 53.0144 149.62 53.2684 149.332 53.3591C149.134 53.4135 148.972 53.2139 148.936 53.0144C148.846 52.5246 148.485 52.2888 148.125 52.0348Z" fill="#2E3540"/>
<path d="M154.952 53.1415C156.952 54.2843 158.825 55.6266 160.716 56.9327C160.897 57.0597 161.095 57.2048 160.951 57.4406C160.843 57.622 160.626 57.6039 160.446 57.5132C160.302 57.4406 160.104 57.4044 160.014 57.2774C159.564 56.7695 159.077 56.5518 158.411 56.8239C158.123 56.9327 157.888 56.715 157.834 56.4067C157.726 55.8806 157.384 55.7355 156.88 55.6811C156.141 55.6085 155.349 55.6448 154.826 54.9555C154.7 54.3387 154.646 53.722 154.952 53.1415Z" fill="#2E3540"/>
<path d="M154.952 53.1416C154.898 53.7403 155.024 54.357 154.826 54.9556C154.394 54.6291 153.997 54.3752 153.421 54.738C153.079 54.9556 152.989 54.5566 152.881 54.3207C152.7 53.9035 152.646 53.4137 152.07 53.323C151.494 53.3956 151.314 53.1054 151.404 52.5793C151.494 52.1077 151.187 51.5635 151.62 51.1462C152.791 51.7086 153.889 52.3979 154.952 53.1416Z" fill="#2E3540"/>
<path d="M142.451 53.5405C142.325 53.3591 141.857 53.4135 142.001 53.0688C142.127 52.7604 142.487 52.9781 142.739 52.9056C143.37 52.8511 143.892 52.9781 144.18 53.6312C144.325 53.9577 144.613 54.0665 144.955 54.0665C145.495 54.0665 145.982 54.2661 146.324 54.7014C146.414 54.8284 146.522 54.9917 146.432 55.1731C146.342 55.3726 146.162 55.3545 146 55.3363C145.477 55.2819 144.991 54.9554 144.433 55.1912C144.379 55.2093 144.234 55.1186 144.18 55.0279C143.91 54.5926 143.64 54.2298 143.028 54.2479C142.847 54.2298 142.649 53.7763 142.451 53.5405Z" fill="#2E3540"/>
<path d="M142.56 55.7537C142.614 55.5723 142.65 55.3909 142.704 55.2095C143.226 55.3909 143.856 55.3546 144.037 56.1165C144.109 56.4249 144.451 56.3704 144.739 56.2616C145.352 56.0258 145.964 56.0439 146.576 56.2797C146.793 56.3523 147.045 56.4611 146.991 56.7514C146.937 57.0235 146.648 56.9691 146.468 56.9509C146.036 56.9146 145.604 56.8421 145.171 56.7695C145.009 56.7514 144.829 56.697 144.685 56.7332C143.658 57.096 143.046 56.5337 142.56 55.7537Z" fill="#2E3540"/>
<path d="M115.45 47.0466C115.828 46.8652 116.207 46.8833 116.585 47.0466C116.207 47.0466 115.828 47.0466 115.45 47.0466Z" fill="#2E3540"/>
<path d="M99.1665 44.634C99.1845 44.4889 99.2205 44.3075 99.4187 44.3256C99.5988 44.3437 99.5268 44.5251 99.5448 44.634C99.4187 44.634 99.2926 44.634 99.1665 44.634Z" fill="#2E3540"/>
<path d="M32.7895 51.7446C32.8255 51.545 32.6995 51.2911 32.9336 51.1278C32.8255 51.3273 33.0057 51.5813 32.7895 51.7446Z" fill="#2E3540"/>
<path d="M96.9151 32.6979C96.6989 32.6798 96.4647 32.7886 96.2666 32.6072C96.5008 32.589 96.7169 32.5528 96.9151 32.6979Z" fill="#2E3540"/>
<path d="M109.524 45.6497C109.722 45.4864 109.938 45.4864 110.154 45.6497C109.938 45.6497 109.722 45.6497 109.524 45.6497Z" fill="#2E3540"/>
<path d="M43.5974 60.1074C41.9583 59.3092 40.211 59.0371 38.3917 59.0371C35.8339 59.0552 33.2581 59.0915 30.7003 59.1097C29.5475 59.1278 29.2593 59.3999 29.2593 60.579C29.2593 63.8442 29.2593 67.1094 29.2593 70.3564C29.2593 73.6398 29.2593 76.9231 29.2593 80.2064C29.2593 81.2404 29.4754 81.4581 30.5202 81.4581C31.4388 81.4581 32.3755 81.4762 33.2941 81.4581C34.1227 81.44 34.3749 81.1497 34.3749 80.3334C34.3749 77.8845 34.3929 75.4175 34.3749 72.9686C34.3749 72.5332 34.465 72.37 34.9333 72.3881C36.1582 72.3881 37.365 72.37 38.5899 72.3156C40.4812 72.243 42.3005 71.9165 43.9577 70.9369C46.0111 69.7397 47.1639 67.962 47.1099 65.5312C47.0559 63.0279 45.831 61.2139 43.5974 60.1074ZM39.6526 69.2862C38.0855 70.0299 36.3923 70.0481 34.7171 70.0299C34.4109 70.0299 34.3749 69.8667 34.3749 69.6127C34.3749 66.9461 34.3749 64.2796 34.3749 61.613C34.3749 61.3227 34.465 61.1776 34.7712 61.1958C35.0594 61.2139 35.3656 61.1958 35.6538 61.1958C37.0228 61.232 38.3737 61.3227 39.6526 61.9214C41.1477 62.6107 41.8862 63.7716 41.9042 65.4224C41.9042 67.1638 41.2558 68.5243 39.6526 69.2862Z" fill="#2E3540"/>
<path d="M74.1653 59.8348C74.1653 59.1817 73.9671 58.9822 73.2826 58.9822C72.31 58.9822 71.3553 58.9822 70.3826 58.9822C69.518 58.9822 69.3919 59.1092 69.3919 59.9799C69.3919 62.3018 69.3919 64.6418 69.3919 67.0907C69.0136 66.7279 68.6714 66.474 68.2931 66.3289C65.7533 65.313 61.3402 65.6577 59.1246 69.1406C58.224 70.5736 57.7917 72.1518 57.7016 73.8207C57.5215 77.2854 58.8364 80.1515 62.6191 81.385C64.7446 82.0743 66.9241 82.1288 69.1037 81.8204C70.6888 81.6027 72.2199 81.1492 73.5889 80.2603C73.9311 80.0245 74.1833 79.7706 74.1833 79.2989C74.1653 72.8048 74.1653 66.3289 74.1653 59.8348ZM68.7795 79.0812C67.5006 79.9157 65.5192 79.6799 64.2042 78.537C62.7092 77.2491 62.2769 75.5077 62.2048 73.6393C62.1328 71.9885 62.5651 70.501 63.7359 69.2857C65.1409 67.8163 67.2664 67.4173 68.9416 68.2698C69.2658 68.4331 69.3919 68.6145 69.3919 68.9954C69.3739 70.5192 69.3739 72.0429 69.3739 73.5667C69.3739 75.0542 69.3559 76.5235 69.3919 78.011C69.4099 78.537 69.1757 78.8273 68.7795 79.0812Z" fill="#2E3540"/>
<path d="M129.572 75.7075C129.014 75.4898 128.618 75.7438 128.275 76.1973C127.735 76.941 127.014 77.4852 126.186 77.9025C122.619 79.6802 118.783 77.7573 118.296 73.9661C118.242 73.5126 118.35 73.4037 118.801 73.3675C122.169 73.0228 125.519 72.6419 128.888 72.2609C129.752 72.1702 130.095 71.7167 130.023 70.846C129.933 69.7758 129.536 68.8325 128.87 68.0162C127.357 66.1115 125.321 65.3315 122.872 65.2589C122.439 65.2952 121.953 65.3496 121.449 65.404C117.918 65.785 115.36 67.8892 114.514 71.1363C113.991 73.1861 114.135 75.1996 114.838 77.195C115.252 78.3741 115.955 79.3718 116.945 80.1337C119.413 82.0384 124.168 82.9816 127.573 80.4965C128.762 79.6439 129.752 78.6462 130.113 77.1406C130.257 76.4694 130.041 75.8708 129.572 75.7075ZM118.116 71.2088C118.116 69.8302 119.143 68.3971 120.548 67.8892C122.061 67.3269 123.664 67.6897 124.583 68.7962C124.961 69.2497 125.195 69.7576 125.195 70.3925C125.231 70.6646 125.159 70.846 124.781 70.8823C122.709 71.1 120.656 71.3358 118.584 71.5898C118.296 71.6079 118.116 71.5898 118.116 71.2088Z" fill="#2E3540"/>
</svg>
