<svg width="105" height="92" viewBox="0 0 105 92" fill="none" xmlns="http://www.w3.org/2000/svg">
<g clip-path="url(#clip0)">
<path d="M15.3633 17.6424C16.2888 15.8243 17.3993 14.2587 18.6782 12.8109C22.0604 9.00637 26.2335 6.3297 30.8609 4.29274C35.3032 2.33995 39.9474 1.1447 44.7599 0.504997C49.421 -0.101041 54.082 -0.168379 58.7599 0.302984C65.4234 0.993195 71.784 2.7103 77.6902 5.92567C81.7623 8.14782 85.3633 10.976 88.0892 14.7806C88.7287 15.656 89.3008 16.5819 89.7888 17.5919C87.8873 17.1879 86.0532 16.7839 84.2022 16.3967C80.0123 15.5381 75.8056 14.8479 71.582 14.2924C66.8873 13.6695 62.1926 13.2823 57.4642 13.1476C56.9931 13.1308 56.5219 13.1645 56.0676 13.316C55.2431 13.619 54.6878 14.1409 54.5027 15.0499C54.3008 16.0768 54.284 17.1206 54.284 18.1475C54.3344 24.4098 54.3849 30.6554 54.4522 36.9178C54.5027 41.9513 54.5532 46.9848 54.6205 52.0183C54.6205 52.4728 54.5027 52.5738 54.0652 52.557C53.0556 52.5233 52.046 52.5233 51.0532 52.557C50.6325 52.5738 50.5315 52.456 50.5484 52.0351C50.6493 44.0893 50.7166 36.1266 50.8008 28.1808C50.8344 24.8307 50.8681 21.4638 50.9017 18.1138C50.9186 17.1374 50.8513 16.1778 50.6998 15.2014C50.5147 14.0567 49.707 13.2823 48.546 13.1645C47.3849 13.0635 46.2407 13.1645 45.0796 13.215C42.5892 13.3328 40.0989 13.5348 37.6085 13.7873C35.1181 14.0399 32.6445 14.3597 30.1878 14.7469C25.2407 15.5213 20.3272 16.464 15.3633 17.6424Z" fill="#2E3540"/>
<path d="M40.4186 18.5852C41.344 18.602 42.3705 18.602 43.3633 18.9051C44.9282 19.3764 45.6013 20.4033 45.5508 22.3056C45.5003 23.8712 45.2311 25.4031 44.9618 26.9351C43.7335 34.0055 42.2864 41.0423 40.6541 48.0454C40.4354 48.9881 40.183 49.9309 39.9811 50.8736C39.9306 51.1429 39.8296 51.1934 39.5772 51.1429C32.8465 49.5605 26.6205 46.9512 21.3368 42.389C18.0219 39.5609 15.4979 36.1772 14.1349 32.0191C13.1085 28.8879 12.957 25.723 13.6133 22.4908C13.6974 22.1036 13.8657 21.9521 14.2527 21.8679C18.9138 20.841 23.6085 20.033 28.3537 19.4774C31.3825 19.1239 34.4282 18.9051 37.4739 18.7367C38.4162 18.6862 39.3585 18.6357 40.4186 18.5852Z" fill="#2E3540"/>
<path d="M64.8175 18.602C68.1829 18.7535 71.4473 18.9555 74.6949 19.2754C77.993 19.5952 81.2743 20.0329 84.5387 20.6053C86.6757 20.9925 88.8127 21.4302 90.9329 21.8679C91.3199 21.952 91.4714 22.1204 91.5555 22.5076C92.6829 28.0629 91.3536 33.0796 88.106 37.6249C85.2286 41.6315 81.4257 44.5438 77.118 46.8501C73.5507 48.7692 69.7646 50.1328 65.8271 51.0756C65.4233 51.1766 65.2719 51.1261 65.1709 50.6884C63.2695 42.8267 61.6204 34.9145 60.2574 26.9519C59.9545 25.2348 59.6012 23.5176 59.6685 21.7669C59.719 20.2181 60.4762 19.2754 61.9906 18.8882C62.4786 18.7535 62.9666 18.6693 63.4714 18.6693C63.9594 18.6357 64.4305 18.5347 64.8175 18.602Z" fill="#2E3540"/>
<path d="M53.6951 91.9326C53.5437 91.9326 53.3922 91.9494 53.2576 91.9494C50.1783 91.9494 47.0821 91.9494 44.0028 91.9663C43.6326 91.9663 43.4812 91.8484 43.3634 91.5117C41.6975 86.6634 40.0316 81.832 38.3489 76.9837C38.2985 76.8322 38.2312 76.6806 38.1302 76.4113C37.9451 76.9163 37.7937 77.3204 37.659 77.7244C36.0941 82.3033 34.5292 86.8823 32.998 91.4612C32.8802 91.8316 32.7119 91.9831 32.2913 91.9663C29.2792 91.9494 26.2504 91.9494 23.2384 91.9663C22.784 91.9663 22.7167 91.8653 22.8682 91.4444C26.0653 83.0441 29.2456 74.6437 32.4259 66.2265C32.5605 65.873 32.7288 65.7551 33.1158 65.7551C36.4475 65.772 39.7961 65.772 43.1278 65.7551C43.4812 65.7551 43.6494 65.8393 43.784 66.1928C47.0316 74.61 50.2961 83.0272 53.5605 91.4276C53.611 91.5959 53.7119 91.7306 53.6951 91.9326Z" fill="#2E3540"/>
<path d="M89.4521 76.3608C88.779 78.3304 88.1564 80.1654 87.5338 82.0003C86.4569 85.1652 85.3631 88.3301 84.303 91.5118C84.1852 91.8653 84.017 91.9663 83.6636 91.9663C80.6179 91.9495 77.5554 91.9495 74.5098 91.9663C74.1227 91.9663 74.0218 91.9158 74.1732 91.5118C77.3872 83.0609 80.6011 74.61 83.7982 66.1592C83.916 65.8561 84.0675 65.772 84.3703 65.772C87.7525 65.7888 91.1348 65.7888 94.5338 65.772C94.8199 65.772 94.9713 65.8561 95.0891 66.1423C98.3703 74.61 101.652 83.0609 104.933 91.5118C105.084 91.899 105 91.9831 104.596 91.9831C101.517 91.9663 98.4208 91.9663 95.3415 91.9831C94.9545 91.9831 94.803 91.8485 94.6852 91.4949C93.0194 86.6298 91.3367 81.7815 89.6708 76.9163C89.6035 76.7648 89.553 76.6302 89.4521 76.3608Z" fill="#2E3540"/>
<path d="M63.9932 65.772C68.0317 65.772 72.0701 65.772 76.1086 65.7551C76.5461 65.7551 76.6807 65.8393 76.6639 66.2938C76.6302 68.516 76.6471 70.7549 76.6639 72.9771C76.6639 73.3811 76.5461 73.4821 76.1591 73.4821C74.0894 73.4653 72.0365 73.4821 69.9668 73.4653C69.5124 73.4653 69.3778 73.5663 69.3778 74.0376C69.3947 79.8287 69.3778 85.6029 69.3947 91.3939C69.3947 91.8485 69.2937 91.9831 68.8225 91.9831C65.6759 91.9663 62.5124 91.9663 59.3658 91.9831C58.8947 91.9831 58.8274 91.8316 58.8274 91.4108C58.8442 85.6029 58.8274 79.8118 58.8442 74.004C58.8442 73.5494 58.7264 73.4484 58.2889 73.4484C56.135 73.4653 53.9644 73.4484 51.8105 73.4653C51.4572 73.4653 51.3057 73.3811 51.3225 72.9939C51.3394 70.7381 51.3394 68.4655 51.3225 66.2096C51.3225 65.8225 51.4403 65.7383 51.8105 65.7383C55.8658 65.772 59.9379 65.772 63.9932 65.772Z" fill="#2E3540"/>
<path d="M12.6708 65.772C16.7093 65.772 20.7477 65.772 24.7862 65.7551C25.2069 65.7551 25.3247 65.8561 25.3247 66.277C25.3078 68.4991 25.3078 70.7044 25.3247 72.9266C25.3247 73.3643 25.2405 73.4989 24.7694 73.4989C22.6997 73.4653 20.6468 73.4989 18.5771 73.4821C18.1396 73.4821 18.0218 73.5831 18.0218 74.0376C18.0386 79.8287 18.0218 85.6197 18.0386 91.3939C18.0386 91.8821 17.9208 91.9999 17.4328 91.9999C14.303 91.9831 11.1564 91.9831 8.02659 91.9999C7.60592 91.9999 7.50495 91.8821 7.50495 91.4612C7.52178 85.6534 7.50495 79.8455 7.52178 74.0545C7.52178 73.5831 7.38717 73.4821 6.93284 73.4821C4.77899 73.4989 2.64197 73.4821 0.488127 73.4989C0.101107 73.4989 -0.0335079 73.4148 -0.016681 73.0107C0.000145912 70.7549 0.000145912 68.516 -0.016681 66.2602C-0.016681 65.8561 0.0842805 65.7551 0.488127 65.7551C4.56024 65.772 8.61553 65.772 12.6708 65.772Z" fill="#2E3540"/>
</g>
<defs>
<clipPath id="clip0">
<rect width="105" height="92" fill="white"/>
</clipPath>
</defs>
</svg>
