<svg width="225" height="79" viewBox="0 0 225 79" fill="none" xmlns="http://www.w3.org/2000/svg">
<path d="M225 33.9517C225 34.1912 225 34.4148 225 34.6543C224.887 34.8459 224.887 35.1174 224.598 35.1653C224.117 35.325 223.683 35.0855 223.282 34.9258C222.8 34.7501 222.8 34.2391 223.185 33.8239C223.795 33.8558 224.406 33.6802 225 33.9517Z" fill="#2E3540"/>
<path d="M214.562 33.792C214.77 33.6004 215.011 33.6962 215.236 33.6962C218.496 33.6802 221.74 33.6802 225 33.6802C225 33.7281 225 33.776 225 33.8239C224.084 33.9677 223.137 33.9517 222.222 33.9996C219.973 34.0795 217.725 34.0315 215.477 34.0315C215.172 34.0156 214.818 34.0795 214.562 33.792Z" fill="#2E3540"/>
<path d="M214.562 33.7917C218.047 33.8077 221.515 33.8077 225 33.8237C225 33.8716 225 33.9195 225 33.9674C224.342 33.9674 223.683 33.9674 223.025 33.9674C222.912 34.0632 222.8 34.1271 222.656 34.1431C220.472 34.191 218.271 34.1431 216.087 34.175C215.959 34.175 215.831 34.175 215.686 34.175C215.301 34.0792 214.787 34.3666 214.53 33.8237L214.562 33.7917Z" fill="#2E3540"/>
<path d="M224.165 35.5167C223.795 36.1555 223.217 36.6186 222.768 37.2094C222.719 37.1935 222.671 37.1456 222.639 37.1136C222.623 37.0817 222.559 37.0338 222.543 37.0497C222.479 37.1136 222.543 37.1935 222.543 37.2733C222.543 37.5607 222.238 37.6566 222.189 37.9121C221.9 38.3113 221.595 38.6945 221.306 39.0938C221.178 39.4291 221.001 39.7166 220.632 39.8443C220.022 40.5949 219.411 41.3294 218.801 42.08C218.416 42.9263 217.677 43.4693 217.083 44.156L217.115 44.1879L217.099 44.156C217.067 44.2837 217.002 44.4115 216.906 44.5232C216.81 44.6191 216.681 44.6829 216.569 44.7628C216.408 44.8426 216.44 45.0981 216.232 45.146C216.151 45.1939 216.087 45.2578 216.007 45.3057C215.541 45.673 215.027 46.0084 214.979 46.695C214.497 47.5733 213.807 48.2919 213.052 48.9467C212.667 49.1543 212.602 49.7132 212.105 49.793C211.687 50.0006 211.494 50.4637 211.045 50.6713C210.756 50.7991 210.916 51.1025 210.98 51.342C210.9 51.7093 210.627 51.9329 210.354 52.1564C209.648 52.907 208.989 53.6895 208.379 54.5199C208.267 55.0149 207.833 55.3023 207.544 55.6856C207.03 56.3563 206.468 57.011 205.826 57.5859C205.119 58.6399 204.316 59.614 203.465 60.5561C203.32 60.7158 203.128 60.7957 202.903 60.7478C200.623 61.0672 198.326 60.8436 196.03 60.9075C195.355 60.9234 194.665 60.9075 193.99 60.9075C193.846 60.9075 193.653 60.8276 193.589 61.0672C193.573 61.131 193.557 61.1949 193.525 61.2588C193.476 61.3067 193.412 61.3386 193.348 61.3386C193.075 61.3067 192.786 61.3386 192.529 61.1949C192.336 60.636 192.882 60.4763 193.107 60.141C193.219 60.0292 193.332 59.9174 193.444 59.8056C193.589 59.7098 193.653 59.5661 193.765 59.4543C195.564 57.6498 197.09 55.6377 198.262 53.3861C198.728 52.5078 198.888 51.5017 199.065 50.5116C199.354 48.9147 199.049 47.4136 198.439 45.9445C198.294 45.4974 198.085 45.0662 197.989 44.6031C198.005 44.5552 197.989 44.5232 197.941 44.5073C197.78 44.4115 197.732 44.2358 197.7 44.0601C197.716 44.0122 197.7 43.9803 197.652 43.9484C197.074 43.3256 196.672 42.5591 196.287 41.8085C196.094 41.4572 195.885 41.1218 195.564 40.8663C194.857 40.1956 194.247 39.4451 193.749 38.6147C193.171 37.8003 192.079 37.4969 190.778 37.8163C190.57 37.9919 190.297 37.9919 190.056 38.0558C189.67 38.439 189.108 38.3911 188.659 38.6307C187.454 39.1577 186.314 39.7645 185.286 40.5949C184.997 40.9941 184.564 41.2017 184.146 41.4093C184.034 41.6169 183.857 41.7766 183.68 41.9203C182.653 42.7187 182.508 43.5651 183.263 44.635C183.729 45.2898 184.146 45.9764 184.451 46.727C185.062 47.3977 185.479 48.1802 185.832 49.0105C185.864 49.2181 185.961 49.3938 186.137 49.5216C186.571 50.1124 187.069 50.6394 187.246 51.374C187.535 51.869 187.808 52.38 188.097 52.875C188.418 53.0826 188.466 53.4499 188.643 53.7374C189.124 54.0568 189.205 54.6316 189.526 55.0628C189.719 55.3023 189.526 55.5099 189.221 55.5259C188.964 55.5419 188.707 55.4461 188.45 55.478C188.129 55.1267 187.888 54.7115 187.583 54.3442C187.647 54.4081 187.551 54.3282 187.615 54.3921C187.711 54.6636 187.92 54.8552 188.048 55.0947C188.145 55.2864 188.145 55.4461 187.888 55.5099C185.27 55.4141 182.653 55.478 180.035 55.462C179.313 55.462 179.12 54.8552 178.831 54.3921C178.51 54.2005 178.253 53.9609 178.172 53.5777C178.365 53.1306 178.269 52.8112 177.787 52.6674C177.514 52.5876 177.385 52.2523 177.064 52.2842C176.55 52.0766 176.277 51.6295 176.02 51.1823C175.651 51.0386 175.458 50.7033 175.218 50.4318C174.832 50.1124 174.672 49.5854 174.206 49.3459C173.628 48.5315 172.969 47.8129 172.279 47.0943C171.765 46.5513 171.717 46.5513 171.444 47.2699C171.299 47.6532 171.267 48.0843 170.946 48.4037C170.801 48.6592 170.673 48.9307 170.657 49.2341C170.143 51.1504 169.517 53.0347 168.698 54.8392C168.537 55.0947 168.425 55.3662 168.409 55.6696C168.2 56.4361 168.071 57.2506 167.606 57.9213C167.574 57.9532 167.557 58.0011 167.574 58.049C167.461 58.3205 167.477 58.6079 167.413 58.8794C167.365 59.0391 167.317 59.1828 167.268 59.3265C167.14 59.6938 167.011 60.0611 166.899 60.4284C166.883 60.4923 166.851 60.5561 166.835 60.62C166.738 60.7957 166.626 60.9713 166.498 61.131C166.096 61.7059 165.887 62.3926 165.598 63.0154C165.02 63.2869 164.426 63.1272 163.832 63.1591C163.206 63.191 162.595 63.1431 161.969 63.1751C161.134 62.9994 160.267 63.2868 159.432 62.9834C158.982 62.9675 158.532 62.9675 158.083 62.9515C157.746 62.8397 157.392 62.9036 157.039 62.9036C156.381 62.8876 156.252 62.7758 156.413 62.1211C156.621 61.2588 156.862 60.4284 157.103 59.582C157.167 59.3425 157.232 59.087 157.312 58.8475C157.36 58.7516 157.408 58.6558 157.521 58.6079C157.617 58.6239 157.697 58.6558 157.617 58.7836C157.746 58.7996 157.665 58.7197 157.665 58.6718C157.617 58.4961 157.553 58.3205 157.569 58.1289C157.713 57.2506 157.922 56.4042 158.356 55.6217C159.094 55.2225 158.918 55.989 159.143 56.2445C159.207 56.3084 159.255 56.3723 159.271 56.4521C159.255 56.3403 159.175 56.2764 159.094 56.1966C158.998 55.3183 159.03 54.424 158.838 53.5457C159.062 52.0447 159.56 50.6074 159.962 49.1543C160.973 45.5932 161.889 42.0001 162.916 38.455C163.013 38.1676 163.141 37.8801 163.189 37.5607C163.206 37.4969 163.222 37.433 163.238 37.3691C163.35 37.0976 163.446 36.8102 163.479 36.5068C163.495 36.4429 163.511 36.379 163.527 36.2992C163.687 35.6445 163.896 34.9897 164.041 34.335C164.217 33.7601 164.346 33.1693 164.506 32.5944C164.667 31.9716 164.571 31.8598 163.912 31.8438C162.997 31.8279 162.097 31.8119 161.182 31.8438C160.684 31.7959 160.154 31.9716 159.689 31.6522C159.673 31.5883 159.624 31.5085 159.56 31.5085C157.906 31.6043 156.236 31.4925 154.582 31.5724C153.586 31.5564 152.575 31.6362 151.579 31.5245C151.418 31.5085 151.274 31.4127 151.097 31.4286C149.668 31.5085 148.271 31.2849 146.842 31.2689C146.247 31.253 146.071 31.4925 146.087 32.0514C146.119 33.4727 146.087 34.878 146.103 36.2992C146.103 36.4908 146.023 36.7304 146.28 36.8581C146.858 36.9539 147.42 36.9539 147.998 36.7942C149.186 36.7144 150.375 36.6825 151.563 36.8262C152.237 36.906 152.912 36.89 153.586 36.8741C154.726 36.8421 155.867 36.9699 157.007 37.0657C157.665 37.2893 158.356 37.449 159.014 37.6885C159.143 37.8322 159.143 38.0398 159.384 38.1356C159.705 38.2474 160.01 38.439 160.074 38.8223C160.106 39.0459 160.299 38.7744 160.363 38.9181C160.636 39.1577 160.572 39.509 160.684 39.8124C161.086 43.629 160.106 47.0943 158.019 50.2721C157.922 50.4318 157.794 50.5755 157.633 50.6713C157.36 50.847 157.087 51.0226 157.023 51.374C157.007 51.4378 156.975 51.5017 156.943 51.5496C156.589 52.0127 156.284 52.5557 155.626 52.6834C154.967 52.3002 154.775 52.364 154.277 53.1305C154.389 53.1146 154.502 53.0667 154.614 53.0986C154.759 53.1465 154.823 53.2583 154.839 53.402C154.71 53.6735 154.421 53.8012 154.245 54.0088C154.197 54.0568 154.148 54.0887 154.084 54.1206C153.924 54.1845 153.779 54.2644 153.618 54.2803C153.474 54.2963 153.329 54.2803 153.201 54.2164C153.024 54.1206 152.88 54.0088 152.687 53.9609C151.467 53.913 150.246 53.945 149.042 53.945C143.244 53.945 137.431 53.945 131.634 53.945C131.265 53.945 130.879 53.8811 130.542 54.1047C129.643 54.3442 128.743 54.1366 127.844 54.2005C127.073 54.2963 126.302 54.1206 125.532 54.1526C125.194 54.0727 124.857 54.0887 124.52 54.0088C124.424 53.9769 124.327 53.929 124.279 53.8332C124.391 53.5777 124.118 53.8492 124.118 53.7374C123.765 53.3861 123.813 53.0188 124.038 52.6355C124.118 52.1564 124.263 51.6774 124.279 51.1983C124.295 50.6713 124.52 50.5595 125.018 50.5595C128.519 50.5116 132.035 50.4478 135.536 50.3679C135.649 50.32 135.761 50.32 135.873 50.32C139.133 50.3679 142.393 50.0805 145.653 50.1763C146.007 50.1922 146.312 50.1603 146.488 49.825C146.504 49.6174 146.633 49.4896 146.777 49.3619C146.906 49.266 146.938 49.0744 147.083 48.9946C147.275 48.755 147.339 48.4676 147.356 48.1642C147.5 47.0144 147.404 45.8646 147.404 44.7149C147.404 44.3156 147.179 44.0761 146.745 44.0921C146.553 44.1081 146.376 44.0921 146.215 43.9484C145.91 43.9004 145.589 43.8685 145.284 43.9324C144.754 43.8366 144.224 43.8845 143.694 43.8845C141.205 43.8525 138.716 43.9643 136.243 43.8525C134.621 43.7727 134.508 43.7887 134.139 42.1279C134.123 41.9203 134.187 41.7446 134.268 41.553C134.284 41.5211 134.364 41.4732 134.268 41.4412C134.235 41.4412 134.187 41.4732 134.139 41.4732C134.091 41.4412 134.043 41.3933 134.011 41.3294C133.93 41.0899 134.011 40.7705 133.722 40.6108C133.577 40.0679 133.433 39.5409 133.416 38.966C133.16 37.4649 133.127 35.9479 133.416 34.4468C133.416 34.3669 133.416 34.2871 133.433 34.2073C133.577 33.0735 134.059 32.0514 134.46 30.9975C134.557 30.742 134.685 30.4865 134.958 30.3587C135.087 30.2469 135.006 30.0074 135.231 29.9435C135.52 29.5762 135.809 29.193 136.098 28.8257C136.259 28.6181 136.419 28.4265 136.628 28.2668C137.431 27.628 138.218 26.9733 139.198 26.59C148.431 26.59 157.681 26.59 166.915 26.59C167.654 26.59 168.393 26.7976 169.147 26.606C170.031 26.606 170.898 26.606 171.781 26.622C172.664 26.7337 173.531 26.622 174.415 26.6699C175.137 26.7178 175.876 26.7497 176.583 26.9094C176.583 27.1649 176.583 27.4204 176.583 27.6759C176.454 28.0432 176.599 28.4744 176.31 28.8097C176.149 29.8637 176.053 30.9496 175.491 31.9077C175.474 31.9876 175.474 32.0674 175.458 32.1472C175.314 32.5145 175.474 32.9617 175.169 33.281C174.912 33.9997 174.72 34.7342 174.623 35.5007C174.463 36.8262 174.013 38.0877 173.853 39.493C174.447 39.3014 174.945 39.0778 175.474 38.8862C175.603 38.7584 175.715 38.6147 175.876 38.5189C176.149 38.3113 176.454 38.1995 176.743 38.0558C177.369 37.3212 178.237 36.906 179.023 36.395C179.152 36.2832 179.28 36.1874 179.393 36.0756C179.457 35.9479 179.537 35.8521 179.698 35.8521C179.81 35.8201 179.923 35.7882 179.955 35.6445C180.742 34.83 181.561 34.0316 182.637 33.5685C185.045 33.5685 187.454 33.5685 189.863 33.5685C191.951 33.5685 194.038 33.6004 196.11 33.6164C196.271 33.6164 196.431 33.6643 196.592 33.6803C196.367 33.8559 196.094 33.7601 195.853 33.7601C194.103 33.7761 192.352 33.7601 190.602 33.7761C190.505 33.808 190.602 33.9198 190.57 33.824C190.554 33.7921 190.57 33.7761 190.618 33.7761C192.192 33.7282 193.749 33.7601 195.323 33.7601C197.587 33.7601 199.868 33.7601 202.132 33.7601C202.63 33.7601 203.096 33.84 203.449 34.2232C203.866 35.7722 204.3 37.3212 204.718 38.8702C204.782 38.966 204.894 39.0459 204.91 39.1577C205.039 40.1797 205.617 41.0899 205.633 42.1439C205.745 42.4473 205.729 42.7666 205.826 43.0701C206.275 43.8685 206.372 43.9005 207.223 43.613C207.255 43.597 207.287 43.5651 207.271 43.5332C207.415 43.2617 207.576 42.9902 207.817 42.7986C207.961 42.7028 208.058 42.575 208.106 42.3994C208.202 42.2556 208.218 42.064 208.411 41.9842L208.379 41.9522L208.411 41.9682C208.459 41.6488 208.7 41.4093 208.813 41.1218C209.744 40.0359 210.483 38.7904 211.478 37.7524C211.832 37.433 212.089 37.0338 212.313 36.6345C212.651 36.2193 212.988 35.8042 213.325 35.373C213.55 35.2931 213.727 35.1015 213.983 35.0855C214.208 35.0696 214.401 35.0057 214.513 34.8141C214.642 34.7023 214.754 34.5266 214.931 34.7662C215.011 34.9578 214.963 35.389 215.348 34.9738C215.461 34.846 215.637 34.7981 215.798 34.846C217.195 35.2133 218.64 34.9897 220.054 35.0217C220.889 35.0376 221.74 35.1494 222.559 34.9259C222.687 34.878 222.848 34.83 222.96 34.9259C223.298 35.2133 223.619 35.4848 224.1 35.373C224.181 35.3411 224.213 35.4528 224.165 35.5167Z" fill="#2E3540"/>
<path d="M99.0026 27.1009C99.2916 27.7557 99.5807 28.4104 99.8858 29.0492C100.368 29.8476 100.785 30.678 100.962 31.6042C100.946 31.6361 100.962 31.684 100.994 31.7C101.219 31.8437 101.219 32.0833 101.251 32.3068C101.235 32.3547 101.251 32.3867 101.283 32.4027C101.572 32.6262 101.668 32.9456 101.716 33.281C101.733 33.5205 101.684 33.76 101.845 33.9676C101.877 34.0155 101.909 34.0634 101.925 34.1113C101.973 34.303 102.054 34.4946 102.182 34.6383C102.214 34.7022 102.23 34.7501 102.23 34.814C102.182 35.2611 102.038 35.7402 102.632 35.9797C102.68 36.0117 102.712 36.0755 102.728 36.1394C102.568 36.6504 102.648 37.0816 103.162 37.3371C103.21 37.369 103.258 37.4169 103.29 37.4808C103.29 38.2313 103.563 38.8701 104.141 39.3652C104.511 40.2115 105.041 40.994 105.153 41.9521C105.346 42.4951 105.538 43.054 105.731 43.5969C105.795 44.108 106.004 44.5711 106.293 45.0022C106.39 45.1779 106.374 45.4174 106.55 45.5611C106.647 45.7528 106.759 45.9444 106.855 46.12C106.92 46.3117 107.064 46.4714 107.096 46.679C107.819 48.4675 108.525 50.256 109.248 52.0446C109.489 52.6194 109.698 53.2263 109.971 53.7852C110.228 54.3122 110.083 54.4559 109.521 54.4559C107.064 54.4399 104.607 54.4399 102.134 54.4399C101.026 54.4399 99.934 54.4399 98.8259 54.4399C98.569 54.4399 98.296 54.4878 98.1514 54.2004C97.8624 53.7213 97.6375 53.2263 97.5894 52.6514C97.3164 52.4757 97.4288 52.1563 97.3164 51.9168C97.3324 51.8849 97.3324 51.8529 97.3003 51.821C96.9952 51.3419 96.8989 50.799 96.7543 50.272C96.3368 49.4895 96.0959 48.6272 95.7747 47.7968C95.5981 47.0143 95.1806 46.2957 95.0842 45.4813C95.0681 45.1779 94.9718 44.9224 94.7951 44.6669C94.5061 44.4593 94.6185 44.108 94.5061 43.8365C94.0886 43.3893 94.0243 42.8304 93.944 42.2715C93.9601 42.2236 93.9601 42.1917 93.9119 42.1597C93.5747 41.8883 93.4944 41.521 93.4783 41.1217C93.3499 40.9461 93.8959 40.6267 93.3499 40.5309C93.0126 40.5469 93.0447 40.8503 92.9644 41.0259C92.6433 41.8403 92.3542 42.6707 92.0652 43.5011C91.9688 43.7566 91.9046 44.0281 91.6797 44.2357C91.6476 44.2676 91.6316 44.2836 91.6637 44.3315C91.5352 45.1459 91.3264 45.9284 90.8447 46.6151C90.7644 47.1261 90.6199 47.6052 90.4593 48.0842C90.1542 48.8188 90.0578 49.6492 89.5439 50.3039C89.3352 50.4636 89.0622 50.288 88.8373 50.3997C88.7892 50.7191 89.1746 50.6872 89.2227 50.9108C89.2388 50.9746 89.2227 51.0385 89.2067 51.1024C89.0461 51.326 89.0461 51.5815 89.03 51.837C89.014 51.9807 88.9658 52.0925 88.8534 52.1883C88.6607 52.6194 88.7089 53.0985 88.5483 53.5456C88.3395 54.1365 87.9702 54.392 87.3439 54.376C85.481 54.3601 83.6022 54.376 81.7393 54.376C80.1335 54.376 78.5115 54.392 76.9057 54.3601C76.1509 54.3441 76.0385 54.1684 76.2312 53.4818C76.3436 53.2422 76.7611 53.2103 76.6969 52.843C76.7129 52.7791 76.7451 52.7312 76.8093 52.6993C77.1465 52.5396 76.8414 52.2522 76.9538 52.0446C76.9699 51.9807 77.0181 51.9328 77.0502 51.8849C77.275 51.7891 77.4356 51.6613 77.4677 51.3898C77.4998 51.1982 77.548 50.9587 77.8531 51.0545C77.9174 51.0704 77.9334 51.1024 77.9013 51.1503C77.9495 51.0704 77.8371 51.0545 77.821 50.9906C77.8049 50.8469 77.8531 50.7032 77.9334 50.5914C78.4634 49.8089 78.367 48.8667 78.5597 47.9884C78.5758 47.5892 78.7845 47.2538 78.8969 46.8706C79.2984 45.9125 79.7159 44.9383 80.1014 43.9642C80.1656 43.7886 80.278 43.6448 80.4065 43.5171C80.4386 43.5011 80.4546 43.4692 80.4386 43.4213C80.4386 42.9103 80.6474 42.4951 80.9685 42.1278C81.4503 40.3872 82.2532 38.7743 82.8956 37.0975C82.9438 36.9698 83.0401 36.858 83.1525 36.7782C83.2489 36.7303 83.3452 36.7143 83.4416 36.7622C83.5861 36.9858 83.9555 36.9059 84.0036 37.0975C83.9233 36.9698 83.8752 36.7303 83.9876 36.4907C83.9876 36.4907 83.9876 36.4907 83.9876 36.4748C83.8752 36.6824 83.8431 37.0017 83.4737 36.7941C83.3452 36.6664 83.3131 36.5067 83.3452 36.331C83.3613 36.2672 83.3773 36.2033 83.4095 36.1394C83.6343 35.9637 83.6022 35.7082 83.6022 35.4527C83.6182 35.1653 83.7306 34.9417 83.9555 34.7661C84.373 34.7022 84.1642 34.3668 84.2124 34.1433C84.2285 34.0794 84.2606 34.0315 84.2927 33.9836C84.6139 33.8558 84.4693 33.5844 84.4693 33.3608C84.646 32.4825 85.0153 31.7 85.4971 30.9495C85.6898 30.8058 85.738 30.5982 85.738 30.3746C85.8504 29.624 86.2037 28.9693 86.4285 28.2507C86.557 28.0591 86.6533 27.8355 86.846 27.6918C86.9906 27.4523 87.1512 27.1968 87.1512 26.8933C87.2315 26.6698 87.2315 26.3983 87.4723 26.2546C87.6811 26.015 87.9541 25.9991 88.2432 25.9991C91.3907 26.015 94.5543 25.9671 97.7018 26.015C98.1514 26.015 98.4887 26.047 98.569 26.558C98.6974 26.8933 98.8741 26.9732 99.0026 27.1009Z" fill="#2E3540"/>
<path d="M47.5017 31.0453C47.6141 31.4126 47.7265 31.7639 47.8389 32.1312C48.2082 33.0574 48.3206 34.0954 48.9951 34.8938C49.1075 35.4048 49.236 35.8999 49.6696 36.2672C50.0229 36.6664 50.0229 37.2093 50.2477 37.6565C50.3762 37.8161 49.7659 38.1994 50.4243 38.2154C50.6171 38.2952 50.5849 38.4868 50.6492 38.6306C50.9061 39.5887 51.3397 40.483 51.7572 41.3932C52.0784 41.8084 52.2069 42.3194 52.3353 42.8145C52.3514 43.1179 52.512 43.3574 52.6565 43.6129C53.058 43.9483 53.0419 44.4593 53.1865 44.9064C53.1704 44.9543 53.1865 44.9862 53.2186 45.0182C53.3792 45.3216 53.604 45.609 53.6361 45.9763C53.6361 46.0402 53.6361 46.12 53.62 46.1839C53.3631 47.0462 53.3631 47.0462 54.1339 47.5572C54.2303 47.6211 54.3106 47.685 54.4069 47.7648C54.9048 48.6751 55.2741 49.6492 55.6595 50.6073C55.804 50.9746 55.9486 51.3419 56.1092 51.6932C56.1413 51.7571 56.1734 51.821 56.1895 51.9008C56.4143 52.5875 56.7515 53.2263 56.9763 53.9129C57.0727 54.1844 57.2172 54.5038 56.8158 54.6954C53.0098 54.6794 49.2039 54.7114 45.3979 54.6794C44.9804 54.6315 44.8519 54.2802 44.7235 53.9608C44.4826 53.354 44.3059 52.7472 44.0811 52.1404C44.0329 51.8689 44.0169 51.5814 43.9205 51.31C43.9366 51.2621 43.9205 51.2301 43.8884 51.1982C43.4067 50.7351 43.3585 50.0804 43.1497 49.4895C42.8285 48.5314 42.4431 47.5892 42.1059 46.6151C42.1059 46.2478 41.849 45.9604 41.8008 45.609C41.6241 44.8265 41.2227 44.1239 41.0942 43.3255C41.1102 43.2776 41.0942 43.2456 41.0621 43.2137C41.0139 43.1338 40.9818 43.038 40.9497 42.9422C40.9818 42.3673 41.1424 41.7765 40.5161 41.3932C40.4197 41.1537 40.3234 40.9301 40.211 40.6906C40.1628 40.6107 40.1307 40.5309 40.0985 40.4351C39.8416 40.1476 39.8416 40.1476 39.7774 40.3872C39.7453 40.4989 39.7453 40.5948 39.681 40.6906C39.6971 40.7385 39.6971 40.7864 39.6489 40.8183C39.5044 40.9461 39.5525 41.1377 39.4883 41.2974C39.4562 41.3453 39.4241 41.3932 39.3759 41.4411C39.0547 41.6327 39.3598 42.016 39.119 42.2396C38.9263 42.8783 38.7335 43.5331 38.5408 44.1718C38.4445 44.3954 38.3642 44.6509 38.2678 44.8745C38.2357 44.9064 38.2357 44.9543 38.2357 44.9862C38.2036 45.0821 38.1715 45.1779 38.0591 45.1938C37.7861 45.098 37.6255 45.1779 37.5773 45.4813C37.5291 45.7847 37.3846 46.0402 37.1277 46.2159C37.0313 46.2638 36.935 46.2797 36.8386 46.2797C36.5817 46.2638 36.4532 46.0881 36.405 45.7847C36.2284 46.0881 36.0999 46.3436 36.389 46.5352C36.8065 46.8227 36.6941 47.1421 36.5174 47.4934C36.2605 48.0044 36.2123 48.5154 36.3729 49.0903C36.4371 49.3138 36.6138 49.1222 36.6298 49.2659C36.7904 49.7131 36.5817 50.0324 36.2926 50.3359C36.2765 50.4157 36.2605 50.4796 36.2444 50.5594C36.1802 50.767 36.1963 51.0225 36.0036 51.1822L35.9554 51.1662C35.843 51.31 35.6663 51.3419 35.5057 51.3738C35.3612 51.3898 35.2488 51.4856 35.1203 51.4856C34.751 51.4856 34.767 51.6773 34.8955 51.9168C35.024 52.1563 35.2327 52.348 35.2809 52.6194C35.2809 52.827 35.297 53.0346 35.2809 53.2422C35.2648 53.3061 35.2488 53.37 35.2167 53.4339C34.9437 53.881 34.2371 53.8171 34.0604 54.392C30.945 54.408 27.8296 54.392 24.7303 54.408C24.3127 54.408 23.8952 54.2802 23.4777 54.3601C23.1405 54.2483 23.1565 53.9768 23.285 53.7373C23.4295 53.4498 23.4135 53.1624 23.4295 52.859C23.4295 52.7472 23.4295 52.6354 23.4616 52.5396C23.4777 52.4757 23.4938 52.4118 23.5098 52.348C23.574 52.1723 23.6704 51.9966 23.7507 51.821C23.7668 51.7571 23.7989 51.7092 23.831 51.6453C23.9273 51.4537 23.9755 51.2461 24.0398 51.0385C24.2164 50.5914 24.4091 50.1442 24.7142 49.761L24.7785 49.7769C24.9872 49.5853 25.0836 49.3298 25.196 49.0903C25.2602 48.9306 25.3566 48.8188 25.5653 48.8986C25.6617 48.9945 25.742 49.0903 25.7259 49.2659C25.742 49.1062 25.6777 49.0104 25.5975 48.9306C25.5172 48.7869 25.196 48.7869 25.3084 48.4994C25.6938 47.4774 26.0792 46.4714 26.4486 45.4493C26.4967 45.2417 26.4807 45.0182 26.561 44.8106C26.5931 44.6828 26.577 44.571 26.6413 44.4593C26.7537 44.3155 26.85 44.1558 26.9143 43.9802C27.0427 43.7566 27.0749 43.5011 27.2997 43.3414C27.5887 42.1118 28.1187 40.994 28.6647 39.8602C28.9698 39.2214 29.1304 38.5028 29.4355 37.8481C30.0297 36.5386 30.4472 35.1653 31.0574 33.8558C31.1699 33.6163 31.2501 33.3768 31.475 33.233L31.5231 33.249C32.1976 33.0095 32.0691 32.4985 31.9407 31.9875C31.9567 31.9236 31.9889 31.8597 32.021 31.8118C32.3743 31.684 32.4546 31.4126 32.4064 31.0772C32.4224 31.0133 32.4706 30.9654 32.5188 30.9335C32.6473 30.8856 32.7597 30.9016 32.8721 30.9654C32.8881 30.9654 32.8721 31.0293 32.9203 30.9974C32.8721 30.9654 32.856 30.9016 32.84 30.8377C33.3217 30.167 33.3057 29.3845 33.2896 28.618C33.4984 27.7557 33.7553 26.9093 34.3334 26.1907C34.6064 25.9352 34.9597 25.9033 35.313 25.9033C38.3481 25.9033 41.3832 25.9033 44.4023 25.9033C44.8198 25.9033 45.2534 25.9192 45.5264 26.3185C45.7352 26.4941 45.7352 26.7496 45.8155 26.9732C45.8315 27.2766 45.9921 27.5161 46.1206 27.7716C46.3454 28.0591 46.5381 28.3625 46.6505 28.7138C46.7469 29.0651 46.8272 29.4005 46.9556 29.7358C46.9717 29.9913 47.0841 30.2309 47.2447 30.4225C47.4535 30.6141 47.4695 30.8377 47.5017 31.0453Z" fill="#2E3540"/>
<path d="M61.1842 35.325C61.136 35.325 61.1039 35.325 61.0557 35.309C60.9754 35.309 60.9272 35.2771 60.8951 35.2132C58.5826 35.1972 56.2541 35.1812 53.9417 35.1972C53.3796 35.1972 53.1708 35.0854 53.1869 34.4786C53.219 32.0194 53.219 29.5442 53.1869 27.069C53.1869 26.526 53.3796 26.4142 53.8774 26.4142C62.2119 26.4302 70.5465 26.4302 78.881 26.4142C79.3788 26.4142 79.5876 26.526 79.5715 27.069C79.5394 29.5601 79.5394 32.0513 79.5715 34.5425C79.5715 35.0854 79.3949 35.1972 78.881 35.1972C77.0503 35.1812 75.2356 35.2132 73.4049 35.2132C73.2604 35.3888 72.9874 35.293 72.8429 35.4847C72.8268 36.7622 72.8107 38.0397 72.8107 39.3172C72.8107 43.9163 72.8107 48.5154 72.8107 53.1145C72.8107 53.3061 72.8268 53.4817 72.8429 53.6734C72.9553 53.849 72.9713 54.0247 72.7947 54.1684C72.3611 54.392 71.9275 54.1524 71.4939 54.1524C68.3625 54.1844 65.2149 54.1524 62.0835 54.1844C61.5375 54.1844 61.3769 54.0566 61.3769 53.4977C61.3929 47.7169 61.3929 41.9521 61.3929 36.1713C61.3929 35.8679 61.5214 35.5326 61.1842 35.325Z" fill="#2E3540"/>
<path d="M0.0481764 27.9473C0.0481764 27.6759 0.0481764 27.3884 0.0481764 27.117C0.289058 26.8774 0.610234 26.9253 0.915351 26.9253C8.5754 26.9253 16.2354 26.9253 23.8794 26.9094C24.313 26.9094 24.6984 27.0691 25.132 27.0371C25.4693 27.085 25.5335 27.3565 25.5335 27.596C25.5656 30.0233 25.5977 32.4506 25.5174 34.8939C25.5174 34.9897 25.4693 35.0695 25.4211 35.1494C25.3408 35.2771 25.2284 35.2931 25.0838 35.2612C24.9072 34.5426 24.4254 34.4946 23.767 34.5585C22.7874 34.6384 21.8078 34.5585 20.8283 34.6384C21.7436 34.7661 22.659 34.7022 23.5743 34.7182C23.8794 34.7182 24.1845 34.6863 24.4897 34.7821C24.7305 34.846 24.9554 34.9578 24.7466 35.2771C23.6064 35.4368 22.4663 35.3091 21.3261 35.357C21.021 35.3729 20.7158 35.341 20.4107 35.3729C20.218 35.4209 20.0253 35.4209 19.8166 35.4049C19.5436 35.3729 19.4633 35.5486 19.4954 35.7722C19.4954 41.6647 19.4954 47.5573 19.4954 53.4499C19.4954 53.7054 19.5275 53.9609 19.4633 54.2164C19.1742 54.44 18.8691 54.408 18.564 54.2643C18.4997 54.1685 18.4355 54.0407 18.4837 53.929C18.9012 53.0347 18.7085 52.0925 18.7085 51.1823C18.7246 46.3277 18.7246 41.4731 18.7085 36.6026C18.7085 41.9362 18.7085 47.2699 18.7085 52.6035C18.7085 53.0187 18.7246 53.4499 18.3873 53.7852C18.1304 54.2803 17.7129 54.3921 17.1669 54.3921C14.469 54.3601 11.7711 54.3761 9.08928 54.3921C8.52722 54.3921 8.28634 54.2324 8.28634 53.6415C8.3024 47.6531 8.27028 41.6647 8.3024 35.6923C8.41481 35.4688 8.47904 35.1973 8.15787 35.1653C7.74034 35.1334 7.32281 34.9258 6.92134 35.0216C6.13446 35.2133 5.34758 35.1494 4.5607 35.1494C3.32417 35.1653 2.1037 35.1653 0.867175 35.1494C0.562058 35.1494 0.256941 35.1973 0 34.9578C0 32.8179 0 30.6781 0 28.5222C0.337235 28.2188 0.754763 28.3306 1.14017 28.3306C8.54328 28.3306 15.9303 28.3306 23.3334 28.3146C23.6064 28.3146 23.8955 28.4105 24.1364 28.2188C23.8634 28.0911 23.5743 28.1549 23.3013 28.1549C15.9143 28.1549 8.52722 28.1549 1.14017 28.139C0.80294 28.139 0.385411 28.2348 0.0481764 27.9473Z" fill="#2E3540"/>
<path d="M121.276 72.5327C121.26 72.4848 121.228 72.4529 121.212 72.405C121.051 72.2932 120.955 72.1495 120.971 71.9578C121.051 71.5107 121.116 71.0636 121.1 70.6164C121.116 70.5526 121.132 70.4887 121.164 70.4248C121.276 70.2172 121.485 70.0096 121.148 69.818C120.843 69.818 120.843 70.0256 120.859 70.2332C120.843 70.4727 121.019 70.6484 121.051 70.872C121.1 71.1434 121.035 71.367 120.746 71.4628C120.297 71.2552 120.056 70.9039 119.959 70.4408C119.815 69.9138 119.526 69.4827 119.237 69.0355C118.739 68.6682 118.691 68.0454 118.418 67.5664C118.064 66.9595 117.727 66.3208 117.599 65.6181C117.583 65.5064 117.583 65.4105 117.567 65.2988C117.502 64.5322 117.133 63.8775 116.683 63.2707C116.555 63.095 116.539 62.8874 116.475 62.6958C116.089 61.3704 115.72 60.045 115.334 58.7195C115.222 58.3363 115.126 57.953 115.029 57.5698C114.933 57.4101 114.901 57.2344 114.901 57.0588C114.901 56.8991 114.869 56.7234 114.933 56.5797C115.078 56.2124 114.74 56.5956 114.74 56.4519C114.419 55.7812 114.467 55.0466 114.355 54.328C114.259 53.7372 114.21 53.1463 114.018 52.5874C114.002 52.5076 114.002 52.4277 114.002 52.3479C114.002 51.9167 113.986 51.5015 114.002 51.0704C114.082 48.8028 114.114 46.5352 114.002 44.2676C113.809 43.0539 114.323 41.9201 114.355 40.7224C114.371 39.7643 114.499 38.7742 114.917 37.8799C115.302 37.5446 115.19 37.1134 115.174 36.6982C115.415 35.2131 115.8 33.7919 116.475 32.4345C116.555 31.9235 116.603 31.4125 117.005 31.0292C117.101 30.7418 117.213 30.4703 117.31 30.1829C117.502 29.7198 117.39 29.1449 117.888 28.7936C118 28.6179 117.968 28.3784 118.145 28.2187C118.177 28.2027 118.193 28.1548 118.177 28.1229C118.257 27.9153 118.241 27.6757 118.45 27.532C118.546 27.3723 118.546 27.1807 118.61 27.021C118.627 26.9571 118.659 26.9092 118.675 26.8454C118.867 26.494 119.044 26.1267 119.189 25.7435C119.462 25.5359 119.397 25.0089 119.879 24.9929C120.056 25.2005 120.008 25.456 120.056 25.6956C120.12 25.2804 120.586 24.9131 120.232 24.45C120.184 24.4181 120.136 24.3702 120.104 24.3222C120.152 24.3063 120.168 24.2743 120.152 24.2264C120.441 23.3801 120.971 22.6615 121.405 21.895C121.758 21.2722 122.208 20.6973 122.577 20.0905C123.043 19.4357 123.589 18.8449 124.006 18.1422C124.151 17.8867 124.392 17.759 124.633 17.6153C124.713 17.5993 124.777 17.5833 124.745 17.4715C124.729 17.1202 125.018 16.9765 125.243 16.8008C125.981 15.9704 126.72 15.1241 127.475 14.2937C127.539 14.1659 127.603 14.0701 127.764 14.0701C128.037 14.1979 127.86 14.3576 127.796 14.5173C127.748 14.645 127.555 14.7887 127.828 14.8846C127.909 14.8366 128.021 14.7568 128.085 14.7887C128.695 15.0283 129.209 14.7728 129.723 14.5013C129.803 14.4534 129.9 14.4694 129.996 14.4853C130.414 14.629 130.719 14.9005 130.895 15.2997C131.088 15.5872 131.281 15.7149 131.425 15.2678C131.458 15.156 131.538 15.0762 131.666 15.0762C131.875 15.172 132.084 15.2359 132.277 15.3636C132.341 15.4435 132.357 15.5393 132.357 15.6511C132.277 16.0503 131.955 16.2579 131.666 16.4974C131.168 17.5035 130.414 18.3498 129.739 19.2281C128.76 20.5056 128.005 21.9269 127.106 23.2523C126.608 24.4021 125.853 25.4241 125.323 26.5739C124.745 27.8674 124.151 29.1609 123.637 30.4863C123.557 30.63 123.476 30.7737 123.316 30.8536C123.251 30.9494 123.075 30.6619 123.059 30.9334C123.043 31.125 123.027 31.3007 123.059 31.4923C123.059 31.5562 123.027 31.6201 122.995 31.668C122.641 31.7957 122.641 32.0353 122.786 32.3227C122.786 32.3866 122.77 32.4505 122.722 32.4984C122.352 32.6421 122.609 32.9615 122.545 33.1851C122.529 33.2809 122.481 33.3607 122.432 33.4565C122.4 33.4885 122.4 33.5364 122.416 33.5843C122.208 34.9416 121.822 36.2511 121.324 37.5127C121.308 37.5925 121.308 37.6723 121.292 37.7522C121.244 39.0936 120.827 40.3551 120.698 41.6806C120.682 41.8882 120.602 42.0798 120.473 42.2555C120.377 42.7824 120.297 43.2934 120.2 43.8204C120.088 43.7406 120.12 43.6448 120.104 43.3733C120.12 43.7566 120.04 43.9961 120.168 44.2197C120.168 44.6668 120.168 45.1299 120.152 45.577C120.12 45.6409 120.088 45.6728 120.024 45.7048C120.008 47.8286 120.04 49.9525 120.024 52.0764C120.024 52.284 120.056 52.4756 119.992 52.6992C119.943 52.8908 120.12 52.6353 120.152 52.7471C120.297 52.8589 120.297 53.0346 120.297 53.1942C120.313 54.2322 120.232 55.2702 120.618 56.2763C120.714 56.5318 120.65 56.8352 120.65 57.1067C120.618 57.3941 120.666 57.6975 120.554 57.985C120.521 58.0648 120.489 58.1446 120.538 58.2405C120.505 58.1446 120.554 58.0808 120.634 58.0329C121.003 58.2245 120.891 58.5758 120.923 58.8792C120.955 59.2146 120.859 59.5659 120.987 59.9012C121.003 59.9811 121.003 60.0609 121.019 60.1567C121.212 60.7476 121.437 61.3385 121.421 61.9612C121.324 62.4084 121.308 62.8395 121.646 63.2068C121.678 63.2707 121.694 63.3346 121.694 63.3985C121.822 63.5581 121.501 63.8775 121.87 63.9733C122.143 65.0912 122.529 66.193 122.657 67.3428C122.673 67.4226 122.689 67.5025 122.689 67.5823C122.85 67.8059 122.866 68.0614 122.93 68.3169C122.914 68.3648 122.93 68.3968 122.962 68.4287C123.059 68.5724 123.091 68.7161 123.091 68.8758C122.962 69.4667 123.268 70.0575 123.091 70.6484C123.059 70.7282 123.027 70.7921 122.962 70.84C122.786 70.9358 122.609 70.9518 122.416 70.856C122.192 70.6484 122.416 70.4568 122.449 70.2492C122.095 70.5366 122.352 70.9518 122.208 71.2871C122.079 71.6864 122.352 71.7023 122.625 71.7343C122.85 71.7023 123.155 71.7982 123.123 71.3989C123.107 71.3351 123.123 71.2712 123.123 71.2073C123.524 70.4568 123.605 71.3191 123.846 71.351C123.878 71.4149 123.894 71.4788 123.91 71.5586C123.926 71.894 123.733 72.1016 123.492 72.2772C123.332 72.3571 123.139 72.373 122.962 72.389C122.786 72.389 122.609 72.389 122.449 72.389C122.079 72.3251 121.758 72.4529 121.469 72.6765C121.373 72.5966 121.324 72.5806 121.276 72.5327Z" fill="#2E3540"/>
<path d="M148.913 0.400646C148.399 0.815841 147.885 1.23104 147.371 1.63026C147.291 1.80592 147.082 1.82189 146.954 1.93367C146.906 1.98158 146.858 2.02949 146.825 2.06142C146.649 2.22112 146.456 2.36484 146.247 2.47662C145.509 3.03554 144.77 3.59445 144.015 4.16934C143.742 4.72825 143.244 5.01569 142.714 5.2712C142.49 5.2712 142.441 5.44686 142.345 5.59058C141.944 6.16546 141.478 6.64454 140.755 6.8202C140.273 6.72438 140.097 6.34112 139.984 5.92593C139.904 5.59058 140.161 5.43089 140.45 5.33508C140.161 5.49477 139.856 5.31911 139.567 5.36701C140.097 5.79818 140.065 6.43694 140.129 6.97989C140.161 7.2833 139.808 7.44299 139.503 7.23539C138.925 6.85213 138.395 6.80423 137.929 7.41105C137.768 7.63462 137.576 7.60268 137.399 7.44299C137.174 7.23539 136.917 6.99585 137.126 6.67647C137.27 6.45291 137.383 6.24531 137.431 5.98981C137.463 5.92593 137.495 5.87802 137.544 5.83012C137.672 5.5267 137.977 5.43089 138.218 5.2712C139.567 4.36096 140.996 3.61042 142.425 2.84391C142.714 2.68422 143.02 2.57243 143.325 2.50856C143.582 2.49259 143.774 2.31693 143.999 2.18918C144.674 1.63026 145.477 1.35879 146.279 1.10328C146.328 1.11925 146.36 1.10328 146.392 1.07135C146.729 0.704058 147.227 0.704058 147.661 0.528398C148.03 0.400646 148.415 0.272894 148.785 0.145142C148.881 0.209018 148.929 0.288863 148.913 0.400646Z" fill="#2E3540"/>
<path d="M130.799 15.3636C130.51 15.0762 130.237 14.8047 129.948 14.5173C129.836 14.4055 129.771 14.2458 129.836 14.134C130.285 13.5272 129.723 12.8246 130.028 12.1858C130.076 12.09 129.868 11.9622 129.884 11.8185C129.916 11.7227 129.98 11.6429 130.076 11.6109C130.349 11.547 130.542 11.6429 130.622 11.8984C130.815 12.5212 131.152 13.128 130.751 13.9105C131.168 13.5432 131.265 13.2238 131.201 12.7767C131.072 11.8664 131.714 11.2756 132.63 11.4353C133.031 11.4991 133.385 11.4832 133.513 11.0201C133.593 10.7646 133.77 10.7326 133.995 10.7486C134.059 10.7646 134.123 10.7805 134.171 10.8284C134.412 11.036 134.669 11.3075 134.332 11.563C133.625 12.1219 133.898 12.8246 133.931 13.4953C133.915 13.5591 133.898 13.623 133.85 13.6709C133.674 13.6869 133.722 13.8306 133.69 13.9424C133.513 14.3257 133.208 14.6131 132.887 14.8846C132.517 14.8526 132.421 15.2678 132.132 15.3477C131.907 15.3157 131.618 15.4435 131.57 15.0762C131.345 14.5492 131.811 14.3576 132.068 14.0861C132.196 13.9424 132.437 13.9105 132.614 13.7827C132.084 13.7029 131.458 14.2298 131.185 14.9644C131.168 15.172 131.201 15.5233 130.799 15.3636Z" fill="#2E3540"/>
<path d="M169.179 26.5579C168.97 26.7815 168.697 26.6857 168.44 26.6857C158.95 26.6857 149.443 26.6857 139.952 26.6857C139.711 26.6857 139.438 26.7815 139.229 26.542C139.486 26.3823 139.775 26.4461 140.048 26.4461C149.041 26.4461 158.018 26.4461 167.011 26.4461C167.734 26.4461 168.456 26.51 169.179 26.5579Z" fill="#2E3540"/>
<path d="M24.7784 28.219C24.666 28.6821 24.2806 28.4904 24.0236 28.4904C16.5242 28.5064 9.02472 28.5064 1.52526 28.5064C1.02744 28.5064 0.545674 28.5064 0.0478516 28.5064C0.0478516 28.4106 0.0478516 28.3148 0.0478516 28.219C0.288733 28.0114 0.577792 28.0752 0.850791 28.0752C8.55901 28.0752 16.2512 28.0752 23.9594 28.0752C24.2324 28.0912 24.5215 28.0273 24.7784 28.219Z" fill="#2E3540"/>
<path d="M24.7784 28.2188C16.5402 28.2188 8.30207 28.2188 0.0478516 28.2188C0.0478516 28.1229 0.0478516 28.0271 0.0478516 27.9313C8.01301 27.9313 15.9782 27.9313 23.9433 27.9473C24.2324 27.9473 24.6339 27.7397 24.7784 28.2188Z" fill="#2E3540"/>
<path d="M20.282 35.3409C20.5711 35.0854 20.9083 35.2132 21.2135 35.2132C22.4018 35.1972 23.5902 35.2132 24.7785 35.2132C24.8749 35.1333 24.9712 35.1333 25.0676 35.2132C25.1639 35.2132 25.2603 35.2132 25.3566 35.2132C25.8705 34.9417 26.015 34.5106 25.999 33.9516C25.9669 31.9874 25.999 30.0073 25.9829 28.0431C25.9829 27.3085 25.742 27.1009 24.9712 27.069C24.65 27.0211 24.3128 27.037 23.9916 27.037C16.2673 27.037 8.55912 27.037 0.834842 27.037C0.577901 27.037 0.32096 27.1009 0.0800781 26.9732C0.0961369 26.9253 0.0961369 26.8774 0.112196 26.8295C0.304901 26.7177 0.529724 26.7656 0.738489 26.7656C9.05694 26.7656 17.3593 26.7656 25.6778 26.7656C25.8866 26.7656 26.0953 26.7177 26.3041 26.8295C26.4968 27.2766 26.3844 27.7397 26.3844 28.2028C26.3844 30.5822 26.3523 32.9775 26.3362 35.3569C24.2807 35.4687 22.2894 35.4687 20.282 35.3409Z" fill="#2E3540"/>
<path d="M134.171 10.8922C133.963 10.9401 133.561 10.7165 133.754 11.3074C133.802 11.4351 133.096 11.8982 132.662 11.6906C132.164 11.4511 131.891 11.7226 131.57 11.9621C131.201 12.2336 131.265 12.6648 131.409 12.9841C131.682 13.6229 131.008 13.7986 130.879 14.2137C130.863 14.2776 130.655 14.2457 130.574 14.1339C130.478 13.9742 130.558 13.8465 130.639 13.6868C130.863 13.2396 130.703 12.1218 130.366 11.7865C130.317 11.7385 130.189 11.7545 130.093 11.7385C130.028 11.4192 130.221 11.3074 130.478 11.2435C130.671 11.2595 130.767 11.3553 130.815 11.5469C131.008 11.3074 131.201 11.0679 131.201 10.7325C131.811 10.4291 132.116 9.75839 132.726 9.47095C132.79 9.50289 132.839 9.53482 132.871 9.58273C133.144 9.96599 133.561 10.1736 133.915 10.4451C134.091 10.5409 134.332 10.6047 134.171 10.8922Z" fill="#2E3540"/>
<path d="M134.701 7.89022C134.942 7.68262 135.183 7.47503 135.44 7.26743C135.825 6.83626 136.275 6.50092 136.853 6.32526C136.917 6.34123 136.981 6.37316 137.029 6.42107C137.206 6.93208 136.917 7.13968 136.419 7.21952C136.853 7.37921 137.174 7.60278 137.302 8.002C137.334 8.06588 137.367 8.11379 137.383 8.17766C137.431 8.86433 136.869 9.10387 136.467 9.48712C136.403 9.551 136.467 9.551 136.403 9.51906C135.905 9.23162 135.536 9.32743 135.199 9.8065C135.118 9.93426 134.926 9.71069 134.877 9.551C134.765 9.13581 134.572 9.23162 134.331 9.43922C133.834 9.83844 133.32 10.0301 132.774 9.51906L132.726 9.47116C133.272 8.97612 133.689 8.33735 134.444 8.12976C134.765 8.36929 135.086 8.38526 135.359 8.06588C134.894 8.14573 134.894 8.14573 134.701 7.89022Z" fill="#2E3540"/>
<path d="M0.0480888 34.9257C1.91091 34.9257 3.77373 34.9417 5.63655 34.9257C6.05408 34.9257 6.51978 35.0534 6.9052 34.7021C7.03367 34.5903 7.21031 34.6542 7.33878 34.782C7.53149 34.9736 7.82055 34.9896 7.99719 34.8937C8.41472 34.7021 8.54319 35.261 8.89649 35.1652C8.89649 35.1652 8.97678 35.293 8.96072 35.3409C8.86437 35.5644 8.63954 35.4367 8.4629 35.4846C8.43078 35.5325 8.3826 35.5485 8.33443 35.5644C8.28625 35.5644 8.22202 35.5485 8.17384 35.5165C5.65261 35.5006 3.13138 35.4686 0.610147 35.4686C0.192618 35.4846 -0.0803815 35.4527 0.0480888 34.9257Z" fill="#2E3540"/>
<path d="M8.28641 35.5167C8.35064 35.5167 8.39882 35.5007 8.46306 35.5007C8.46306 41.4891 8.47911 47.4615 8.447 53.4499C8.447 54.1047 8.6397 54.2643 9.28205 54.2484C11.723 54.2164 14.1479 54.2324 16.5888 54.2324C17.2151 54.2324 17.9056 54.3921 18.3071 53.6735C18.5159 53.8012 18.3874 54.0887 18.5962 54.2164C18.8692 54.2164 19.1422 54.2164 19.4152 54.2164C19.4794 54.2643 19.4954 54.3282 19.4312 54.3921C18.9013 54.4879 18.3713 54.4879 17.8253 54.4081C14.6939 54.4719 11.5624 54.424 8.43094 54.424C8.15794 54.3123 8.25429 54.0727 8.25429 53.8811C8.25429 47.8288 8.25429 41.7766 8.25429 35.7243C8.25429 35.6445 8.27035 35.5806 8.28641 35.5167Z" fill="#2E3540"/>
<path d="M37.1442 46.1202C37.2405 45.8328 37.4814 45.5932 37.4493 45.2419C37.4332 45.0343 37.6259 44.8587 37.8186 44.8108C38.0274 44.7629 37.9471 45.0663 38.0756 45.1461C38.188 45.3537 38.1237 45.5453 37.9792 45.705C37.9471 45.737 37.9471 45.7689 37.9632 45.8008C37.915 46.0563 37.931 46.3438 37.7062 46.5354C37.4975 47.3498 37.369 48.1962 36.8551 48.9148C36.7587 48.9946 36.839 49.2182 36.6303 49.2182C36.0361 49.4258 36.1806 48.803 36.1324 48.6433C35.9879 48.1643 36.2127 47.6692 36.4697 47.2381C36.566 47.0624 36.6785 46.8229 36.4857 46.759C35.6989 46.4715 36.0843 46.0563 36.3091 45.6411C36.3573 45.5453 36.3091 45.4016 36.4857 45.3856C36.7748 45.5453 36.3894 46.0883 36.8872 46.1362C36.9675 46.2639 37.0478 46.248 37.1442 46.1202Z" fill="#2E3540"/>
<path d="M26.2559 26.8295C17.536 26.8295 8.8 26.8295 0.0800781 26.8295C0.256725 26.6538 0.481548 26.7337 0.674254 26.7337C9.073 26.7337 17.4718 26.7337 25.8705 26.7337C26.015 26.7337 26.1596 26.6858 26.2559 26.8295Z" fill="#2E3540"/>
<path d="M0.0478516 26.9572C8.38237 26.9572 16.7169 26.9572 25.0514 26.9572C25.0996 26.9891 25.1156 27.021 25.0996 27.053C25.0835 27.0849 25.0675 27.1009 25.0514 27.1009C25.0353 27.2606 25.0996 27.4362 24.9069 27.6279C24.7623 27.053 24.3448 27.1009 23.9112 27.1009C15.9621 27.1009 7.99696 27.1009 0.0478516 27.1009C0.0478516 27.053 0.0478516 27.0051 0.0478516 26.9572Z" fill="#2E3540"/>
<path d="M99.0027 27.1009C98.6494 27.1328 98.4085 27.053 98.4406 26.6218C98.4567 26.3982 98.3603 26.2865 98.1194 26.2865C95.9836 26.2865 93.8478 26.2705 91.6959 26.2705C90.6681 26.2705 89.6404 26.2865 88.6126 26.2705C88.2112 26.2545 87.8418 26.3344 87.5046 26.5579C87.4243 26.2865 87.5849 26.1427 87.7776 25.999C90.8608 25.999 93.9441 25.983 97.0435 25.983C97.6216 25.8393 98.2158 25.5998 98.7136 26.1747C98.7297 26.51 99.0508 26.7496 99.0027 27.1009Z" fill="#2E3540"/>
<path d="M19.4316 54.3918C19.4316 54.3279 19.4155 54.28 19.4155 54.2162C19.4155 47.9723 19.4316 41.7284 19.4316 35.4845C19.4958 35.4206 19.5601 35.4366 19.5922 35.5164C19.5922 41.6805 19.6082 47.8445 19.6082 53.9926C19.6082 54.1523 19.6885 54.3599 19.4316 54.3918Z" fill="#2E3540"/>
<path d="M203.497 34.2071C203.481 34.3029 203.481 34.3828 203.465 34.5744C203.175 33.9037 202.646 33.8079 202.067 33.8079C198.374 33.8079 194.664 33.8079 190.971 33.8079C190.746 33.8079 190.521 33.8079 190.28 33.6482C192.4 33.6482 194.52 33.6482 196.64 33.6482C198.743 33.6642 200.847 33.6801 202.935 33.6642C203.336 33.6801 203.481 33.8558 203.497 34.2071Z" fill="#2E3540"/>
<path d="M8.49495 54.4876C8.47889 54.4557 8.46284 54.4238 8.44678 54.3759C11.5782 54.3918 14.7097 54.3918 17.8412 54.4078C16.3156 54.5355 14.7739 54.4397 13.2323 54.4557C11.6585 54.4876 10.0687 54.4876 8.49495 54.4876Z" fill="#2E3540"/>
<path d="M113.937 46.711C114.146 45.8486 113.905 44.9384 114.194 44.092C114.194 46.4714 114.178 48.8348 114.178 51.2142C113.808 51.0545 113.889 50.7511 113.921 50.4477C114.001 49.8249 114.033 49.2181 113.937 48.5953C114.001 47.9565 114.001 47.3338 113.937 46.711Z" fill="#2E3540"/>
<path d="M19.5917 35.5323C19.5436 35.5164 19.4793 35.5004 19.4312 35.5004C19.6399 35.0054 20.0093 35.4525 20.2823 35.3567C22.2896 35.3567 24.297 35.3567 26.3043 35.3567C26.1116 35.6282 25.8386 35.4844 25.5977 35.4844C23.5904 35.5004 21.5991 35.5164 19.5917 35.5323Z" fill="#2E3540"/>
<path d="M48.9472 34.5583C48.9311 34.6062 48.9472 34.6381 48.9793 34.6541C49.0435 34.7339 49.0435 34.8138 49.0114 34.8936C48.9793 34.9096 48.9632 34.9255 48.9311 34.9415C48.4975 34.5583 48.1442 34.1271 48.1121 33.5203C48.0961 33.2807 48.0961 33.0731 47.8873 32.8975C47.6304 32.6739 47.7749 32.3865 47.8391 32.115C47.9355 32.2587 48.0318 32.4024 48.1121 32.5462C48.5778 33.153 48.7705 33.8556 48.9472 34.5583Z" fill="#2E3540"/>
<path d="M210.949 51.3258C210.676 51.1821 210.499 50.9426 210.788 50.719C211.222 50.3996 211.543 49.9205 212.121 49.7928C211.928 50.3198 211.511 50.6871 211.222 51.1502C211.157 51.23 211.109 51.3578 210.949 51.3258Z" fill="#2E3540"/>
<path d="M35.4578 52.827C35.3615 52.9707 35.2812 53.1304 35.1848 53.2741C35.1848 53.0346 35.1848 52.795 35.1688 52.5555C34.9761 52.0285 35.0242 51.5494 35.4578 51.1662C35.6345 51.1662 35.8111 51.1662 35.9878 51.1502C35.9878 51.1981 36.0038 51.2301 36.0199 51.278C35.9556 51.789 35.779 52.268 35.4899 52.6992C35.4739 52.7311 35.4578 52.779 35.4578 52.827Z" fill="#2E3540"/>
<path d="M116.731 63.1749C117.374 63.7498 117.727 64.4365 117.566 65.3148C117.374 64.9315 117.197 64.5483 117.004 64.149C116.876 63.8456 116.506 63.5901 116.731 63.1749Z" fill="#2E3540"/>
<path d="M216.007 45.4174C215.622 45.8326 215.252 46.2318 214.867 46.647C214.658 46.3595 214.658 46.136 215.027 45.9444C215.188 45.8645 215.461 45.8326 215.429 45.5451C215.365 44.9064 215.702 45.114 216.007 45.2737C216.007 45.3375 216.007 45.3695 216.007 45.4174Z" fill="#2E3540"/>
<path d="M134.701 7.89005C134.83 8.11362 134.926 7.98586 135.071 7.90602C135.295 7.77827 135.536 7.7623 135.777 7.92199C135.006 8.67253 134.894 8.6885 134.444 8.12959C134.541 8.03377 134.621 7.9699 134.701 7.89005Z" fill="#2E3540"/>
<path d="M40.5161 41.3611C40.9658 41.4091 41.3351 42.0798 41.1745 42.5429C41.1263 42.6706 41.1103 42.7984 41.0782 42.9261C40.7249 42.9421 40.9658 42.5908 40.8052 42.479C40.8212 42.4311 40.8052 42.3832 40.7731 42.3512C40.5964 42.1596 40.6285 41.8722 40.5161 41.6486C40.5161 41.5528 40.5161 41.457 40.5161 41.3611Z" fill="#2E3540"/>
<path d="M31.8121 32.4186C31.9084 32.2749 32.0048 32.1312 32.0851 32.0034C32.069 32.195 32.2296 32.3388 32.2617 32.4825C32.3902 33.0414 32.0851 33.265 31.5391 33.265C31.6354 32.9775 31.7157 32.6901 31.8121 32.4186Z" fill="#2E3540"/>
<path d="M123.749 71.2873C123.556 71.5587 123.38 70.4249 123.203 71.2873C122.641 71.3352 122.786 71.0318 122.93 70.7283C123.171 70.5527 122.978 70.1215 123.364 70.0257C123.508 70.361 123.637 70.6804 123.781 71.0158C123.845 71.1116 123.829 71.1914 123.749 71.2873Z" fill="#2E3540"/>
<path d="M123.347 70.0258C123.138 70.2174 123.347 70.6646 122.914 70.7284C122.914 70.0737 122.93 69.403 122.93 68.7483C123.283 68.8441 123.058 69.1315 123.106 69.3232C123.138 69.5787 123.411 69.7384 123.347 70.0258Z" fill="#2E3540"/>
<path d="M23.3658 54.2164C23.2212 54.2164 23.0928 54.2164 22.9482 54.2164C23.0446 53.9449 23.1249 53.6734 23.2212 53.4179C23.3658 53.1784 23.1409 52.7313 23.6227 52.6833C23.8315 53.2263 23.3658 53.6734 23.3658 54.2164Z" fill="#2E3540"/>
<path d="M130.51 11.3077C130.526 11.2758 130.526 11.2439 130.526 11.2119C130.751 11.0522 130.975 10.8925 131.2 10.7328C131.634 11.1161 131.232 11.2758 130.992 11.4994C130.638 11.8347 130.702 11.3077 130.51 11.3077Z" fill="#2E3540"/>
<path d="M106.325 45.0021C105.86 44.6508 105.474 44.2676 105.763 43.5969C106.02 44.044 106.229 44.4911 106.325 45.0021Z" fill="#2E3540"/>
<path d="M25.341 48.4835C25.4213 48.6272 25.6461 48.6911 25.6301 48.9147C25.2126 49.0584 25.3089 49.6972 24.8271 49.761C24.9396 49.3139 25.068 48.8827 25.341 48.4835Z" fill="#2E3540"/>
<path d="M123.171 31.1252C123.091 31.2529 123.01 31.3807 122.93 31.4925C122.512 31.205 122.882 30.9016 122.946 30.6142C122.962 30.5343 123.091 30.726 123.203 30.7419C123.267 30.8377 123.267 30.9336 123.187 31.0134C123.171 31.0453 123.155 31.0773 123.171 31.1252Z" fill="#2E3540"/>
<path d="M121.243 62.025C121.324 62.2326 121.404 62.4402 121.5 62.6477C121.516 62.7276 121.516 62.8234 121.532 62.9033C121.532 62.9991 121.516 63.0949 121.516 63.1907C121.243 62.8394 120.906 62.504 121.243 62.025Z" fill="#2E3540"/>
<path d="M39.6814 40.6746C39.7457 40.435 39.5048 40.2753 39.4727 40.0039C39.842 39.9879 40.2595 39.7484 40.2274 40.4191C40.0829 40.4191 39.9223 40.3392 39.826 40.4989C39.7778 40.5628 39.7296 40.6267 39.6814 40.6746Z" fill="#2E3540"/>
<path d="M132.886 14.7888C132.838 14.8846 132.79 14.9804 132.742 15.0603C132.662 15.0763 132.613 15.1242 132.645 15.204C132.501 15.3318 132.34 15.4755 132.196 15.6032C132.196 15.5074 132.196 15.4276 132.196 15.3318C132.308 15.0443 132.501 14.7888 132.886 14.7888Z" fill="#2E3540"/>
<path d="M128.101 13.6711C128.149 13.5752 128.181 13.4794 128.23 13.3996C128.294 13.3038 128.358 13.2239 128.422 13.1281C128.551 13.0642 128.679 13.0004 128.808 12.9525C128.952 13.5912 128.759 13.7828 128.101 13.6711Z" fill="#2E3540"/>
<path d="M39.4085 41.3774C39.3443 41.6488 39.2961 41.9203 39.2319 42.1758C39.1997 42.1918 39.1676 42.1918 39.1195 42.2078C39.0873 42.0321 39.007 41.8564 39.0231 41.6808C39.0392 41.4891 39.0392 41.1857 39.4085 41.3774Z" fill="#2E3540"/>
<path d="M222.205 37.8958C222.076 37.5764 222.462 37.4327 222.478 37.1612C222.558 37.0814 222.655 37.0654 222.751 37.1293C222.767 37.1452 222.783 37.1772 222.783 37.1931C222.751 37.273 222.735 37.3369 222.703 37.4167C222.574 37.6403 222.414 37.784 222.205 37.8958Z" fill="#2E3540"/>
<path d="M122.609 32.4186C122.625 32.4665 122.625 32.5144 122.641 32.5623C122.609 32.5943 122.593 32.6262 122.609 32.6741C122.464 32.8019 122.689 33.1213 122.352 33.1532C122.577 32.9456 121.645 32.3547 122.609 32.4186Z" fill="#2E3540"/>
<path d="M148.914 0.40066C148.865 0.320815 148.833 0.240969 148.785 0.161124C148.946 0.0333721 149.106 -0.0624421 149.331 0.0493411C149.299 0.272907 149.106 0.336784 148.914 0.40066Z" fill="#2E3540"/>
<path d="M84.4208 34.0953C84.4047 34.0474 84.4047 33.9995 84.3887 33.9516C84.4208 33.9197 84.4368 33.8718 84.4368 33.8239C84.5171 33.728 84.5974 33.6163 84.6777 33.5204C84.758 33.7919 85.1434 34.1752 84.4208 34.0953Z" fill="#2E3540"/>
<path d="M115.061 37.337C115.141 37.1294 115.222 36.9218 115.318 36.7142C115.334 37.0656 115.398 37.4488 115.077 37.7203C115.061 37.6724 115.045 37.6245 115.045 37.5766C115.045 37.5127 115.045 37.4328 115.061 37.337Z" fill="#2E3540"/>
<path d="M39.665 41.0578C39.5847 41.1696 39.5044 41.2654 39.4241 41.3772C39.4401 41.1536 39.3117 40.8822 39.665 40.8183C39.665 40.8822 39.665 40.962 39.665 41.0578Z" fill="#2E3540"/>
<path d="M106.582 45.5612C106.229 45.4974 106.341 45.2099 106.325 45.0023C106.47 45.162 106.566 45.3377 106.582 45.5612Z" fill="#2E3540"/>
<path d="M120.104 44.1558C119.895 43.9482 119.959 43.6927 120.04 43.3094C120.088 43.549 120.12 43.6608 120.136 43.7566C120.12 43.9003 120.104 44.0281 120.104 44.1558Z" fill="#2E3540"/>
<path d="M123.781 71.3669C123.861 71.5266 123.957 71.6863 124.038 71.846C124.198 72.4209 124.263 73.0118 124.6 73.5228C125.017 74.8003 125.467 76.0778 126.029 77.2914C126.077 77.3873 126.125 77.499 126.141 77.6108C126.157 77.9142 126.045 78.1378 125.708 78.1857C125.531 78.026 125.355 77.8663 125.178 77.7066C124.841 77.2595 124.503 76.8124 124.166 76.3652C124.359 75.7265 124.552 75.0877 124.07 74.4809C123.973 74.3691 123.909 74.2414 123.765 74.4011C123.411 74.6566 123.154 74.4809 122.946 74.2094C122.737 73.938 122.737 73.6345 123.01 73.411C123.267 73.2193 123.315 72.9638 123.315 72.6764C123.315 72.4688 123.315 72.2612 123.492 72.1015C123.524 71.846 123.845 71.6863 123.781 71.3669Z" fill="#2E3540"/>
<path d="M126.287 79C126.126 78.8882 126.014 78.7604 126.014 78.5528C126.078 78.3772 126.142 78.2015 126.319 78.1057C126.624 78.1377 126.415 78.4411 126.56 78.5688C126.608 78.7125 126.656 78.8563 126.704 78.984C126.576 78.984 126.431 79 126.287 79Z" fill="#2E3540"/>
<path d="M214.032 35.2131C213.791 35.1812 213.663 35.6283 213.374 35.3569C213.743 34.8139 214.08 34.255 214.562 33.8079C214.915 34.0793 215.333 33.9037 215.734 33.9516C215.75 34.271 215.477 34.2231 215.301 34.271C214.963 34.3827 214.674 34.5584 214.53 34.9097C214.401 35.1014 214.144 35.0375 214.032 35.2131Z" fill="#2E3540"/>
<path d="M214.449 34.9419C214.513 34.1595 215.204 34.1754 215.718 33.9678C215.814 33.9678 215.911 33.9678 216.007 33.9678C217.099 34.1275 218.191 34.0317 219.283 34.0317C220.439 34.0317 221.611 34.1275 222.768 33.9678C222.864 33.9678 222.96 33.9678 223.057 33.9678C223.089 34.7982 223.121 34.8142 223.956 34.7823C224.149 34.7823 224.293 35.1176 224.582 35.0537C224.422 35.1815 224.438 35.4689 224.181 35.5328C224.149 35.5009 224.101 35.437 224.101 35.437C223.619 35.7404 223.314 35.5009 223.057 35.1016C223.009 35.0218 222.864 34.9898 222.768 34.9419C221.033 34.7982 219.299 34.8781 217.581 34.894C216.81 34.894 216.055 34.7024 215.284 34.8302C215.14 34.8461 215.011 34.7663 214.899 34.6705C214.803 34.7663 214.706 34.8621 214.61 34.9579C214.546 34.9898 214.497 34.9739 214.449 34.9419Z" fill="#2E3540"/>
<path d="M224.63 34.2071C224.646 34.3348 224.534 34.3508 224.454 34.3508C224.357 34.3668 224.261 34.3508 224.229 34.239C224.197 34.1112 224.325 34.0953 224.405 34.0953C224.502 34.0953 224.598 34.1112 224.63 34.2071Z" fill="#2E3540"/>
<path d="M222.752 33.9514C222.623 34.1271 222.414 34.0951 222.238 34.0951C220.327 34.0951 218.432 34.0951 216.521 34.0951C216.344 34.0951 216.135 34.1271 216.007 33.9514C218.255 33.9514 220.503 33.9514 222.752 33.9514Z" fill="#2E3540"/>
<path d="M130.51 53.9447C130.558 53.5934 130.831 53.6732 131.056 53.6732C138.202 53.6732 145.348 53.6732 152.494 53.6732C152.671 53.6732 152.88 53.6413 153.008 53.8169C153.008 54.0724 152.799 54.0884 152.623 54.1203C152.398 54.1682 152.157 54.1523 151.916 54.1523C145.139 54.1523 138.363 54.1523 131.586 54.1523C131.216 54.1363 130.831 54.2321 130.51 53.9447Z" fill="#2E3540"/>
<path d="M214.883 34.6544C217.276 34.6544 219.669 34.6544 222.077 34.6544C222.318 34.6544 222.672 34.4947 222.768 34.9259C222.72 35.2772 222.447 35.1973 222.222 35.1973C220.343 35.1973 218.48 35.1973 216.601 35.1973C216.393 35.1973 216.2 35.2133 216.007 35.0536C215.766 34.846 215.558 34.846 215.445 35.2133C215.333 35.6125 215.012 35.4209 214.69 35.4529C214.803 35.1814 214.915 34.9418 214.883 34.6544Z" fill="#2E3540"/>
<path d="M203.08 60.6999C202.983 60.9234 202.855 61.0991 202.63 61.2109C201.94 61.0831 201.233 61.163 200.542 61.163C198.423 61.147 196.303 61.163 194.183 61.163C193.958 61.163 193.718 61.2268 193.493 61.0991C193.525 60.9234 193.268 60.8755 193.284 60.8116C193.364 60.5721 193.605 60.6839 193.766 60.6839C196.335 60.6839 198.921 60.6839 201.49 60.6679C201.875 60.6679 202.261 60.7478 202.63 60.4444C202.839 60.2847 203.048 60.4284 203.08 60.6999Z" fill="#2E3540"/>
<path d="M130.51 53.945C137.736 53.945 144.978 53.945 152.205 53.945C152.478 53.945 152.767 54.0567 153.008 53.8172C153.136 53.8651 153.233 53.9609 153.281 54.0887C153.072 54.2963 152.799 54.2324 152.542 54.2324C145.043 54.2324 137.543 54.2324 130.06 54.2324C129.466 54.2324 128.855 54.2005 128.245 54.1046C128.117 54.0887 127.972 54.0887 127.844 54.0727C128.727 53.8012 129.626 54.0248 130.51 53.945Z" fill="#2E3540"/>
<path d="M128.261 54.0888C135.664 54.0888 143.084 54.0888 150.487 54.0888C151.418 54.0888 152.349 54.0888 153.297 54.0888C153.425 54.0888 153.57 54.0888 153.698 54.0888C153.666 54.1367 153.618 54.1846 153.586 54.2325C153.393 54.3443 153.168 54.2964 152.976 54.2964C145.332 54.2964 137.688 54.2964 130.028 54.2964C129.819 54.2964 129.61 54.3443 129.401 54.2485C129.032 54.2325 128.663 54.2166 128.293 54.2006C128.277 54.1687 128.261 54.1367 128.261 54.0888Z" fill="#2E3540"/>
<path d="M151.595 31.285C150.037 31.253 148.463 31.253 146.906 31.1891C146.328 31.1572 146.135 31.3009 146.135 31.8918C146.151 33.2811 146.119 34.6704 146.071 36.0757C146.055 36.5707 146.151 36.8741 146.713 36.8901C146.585 37.0178 146.44 36.9699 146.279 36.954C145.878 37.1935 145.958 36.8741 145.958 36.6825C145.958 35.2293 145.958 33.7602 145.958 32.307C145.958 31.0614 145.958 30.9975 147.211 31.0774C148.688 31.1253 150.15 31.0614 151.595 31.285Z" fill="#2E3540"/>
<path d="M193.508 61.0828C196.303 61.0828 199.113 61.0828 201.907 61.0828C202.148 61.0828 202.421 61.0029 202.646 61.1946C200.815 61.2105 198.968 61.2425 197.138 61.2425C195.933 61.2425 194.713 61.2265 193.508 61.2105C193.508 61.1786 193.508 61.1307 193.508 61.0828Z" fill="#2E3540"/>
<path d="M145.204 35.3886C145.204 33.9514 145.204 32.5142 145.204 31.077C145.525 32.4982 145.396 33.9514 145.412 35.3726C145.332 35.3886 145.268 35.3886 145.204 35.3886Z" fill="#2E3540"/>
<path d="M158.452 55.6217C158.581 54.8872 158.789 54.1845 159.03 53.4979C159.319 54.0887 159.014 54.8073 159.4 55.3822C159.046 55.5738 159.207 55.9092 159.175 56.1966C159.03 56.1807 158.886 56.1168 158.902 55.9571C158.982 55.51 158.709 55.5898 158.452 55.6217Z" fill="#2E3540"/>
<path d="M155.706 52.5715C155.642 52.6513 155.578 52.7472 155.498 52.827C155.224 52.9069 155.048 53.2741 154.695 53.1145C154.502 53.1145 154.422 53.2741 154.293 53.354C154.197 53.4019 154.052 53.4179 153.972 53.3221C153.876 53.1943 154.004 53.0985 154.084 53.0506C154.422 52.843 154.373 52.332 154.968 52.2202C155.449 52.1244 155.53 52.2841 155.706 52.5715Z" fill="#2E3540"/>
<path d="M178.3 53.5455C178.22 53.4976 178.14 53.4338 178.043 53.3859C177.787 52.9387 177.337 52.6513 177.176 52.1562C177.738 52.2042 178.172 52.5076 178.509 52.9228C178.75 53.1783 178.461 53.3539 178.3 53.5455Z" fill="#2E3540"/>
<path d="M159.705 31.4604C158.019 31.4604 156.317 31.5083 154.63 31.3167C156.429 31.3167 158.228 31.3167 160.026 31.3167C160.026 31.3486 160.026 31.3805 160.026 31.4125C159.914 31.4284 159.801 31.4444 159.705 31.4604Z" fill="#2E3540"/>
<path d="M173.965 31.9557C174.206 32.4507 173.949 33.0256 174.35 33.4727C174.431 33.5526 174.367 33.7442 174.19 33.7921C173.997 33.8241 173.853 33.7602 173.853 33.5686C173.837 33.0256 173.74 32.4667 173.965 31.9557Z" fill="#2E3540"/>
<path d="M165.824 62.9353C165.808 63.0631 165.727 63.1429 165.583 63.1269C164.362 62.9992 163.142 63.1269 161.921 62.9034C162.917 62.9034 163.929 62.9034 164.924 62.8874C165.165 62.8874 165.438 62.9832 165.647 62.7597C165.808 62.7437 165.888 62.7756 165.824 62.9353Z" fill="#2E3540"/>
<path d="M165.823 62.9353C165.775 62.8715 165.727 62.8235 165.663 62.7597C165.647 62.0091 166.048 61.4662 166.498 60.9392C166.546 60.9552 166.562 60.9871 166.546 61.0191C166.546 61.051 166.53 61.067 166.514 61.067C166.289 61.6898 166.064 62.3125 165.823 62.9353Z" fill="#2E3540"/>
<path d="M160.315 38.8541C160.267 38.902 160.219 38.9499 160.154 38.9818C159.962 38.4389 159.416 38.2792 159.03 37.9598C159.03 37.9598 159.127 37.8321 159.175 37.7522C159.207 37.7363 159.223 37.7043 159.255 37.6884C159.705 37.8001 160.138 37.9439 160.299 38.4389C160.443 38.5826 160.427 38.7104 160.315 38.8541Z" fill="#2E3540"/>
<path d="M157.232 37.1772C157.826 37.0973 158.388 37.1452 158.902 37.4487C158.998 37.5445 159.271 37.4327 159.191 37.7201L159.175 37.7361C158.484 37.6882 157.842 37.4966 157.232 37.1772Z" fill="#2E3540"/>
<path d="M188.434 55.3182C188.337 55.3182 188.241 55.3182 188.145 55.3182C187.855 55.0148 187.534 54.7114 187.582 54.2323C188.032 54.4718 188.466 54.7273 188.434 55.3182Z" fill="#2E3540"/>
<path d="M157.777 38.0877C158.131 38.0079 158.404 37.8801 158.596 38.1995C158.661 38.2953 158.628 38.455 158.516 38.5029C158.163 38.6786 158.034 38.3752 157.777 38.0877Z" fill="#2E3540"/>
<path d="M146.296 36.9217C146.44 36.9057 146.585 36.8897 146.729 36.8578C147.131 36.8738 147.548 36.8738 147.95 36.8897C147.404 37.1133 146.842 37.0814 146.296 36.9217Z" fill="#2E3540"/>
<path d="M222.735 37.1454C222.639 37.1614 222.559 37.1614 222.462 37.1774C222.318 37.1454 222.157 37.1135 222.302 36.9219C222.382 36.8261 222.462 36.6504 222.623 36.7143C222.816 36.7782 222.719 36.9858 222.735 37.1454Z" fill="#2E3540"/>
<path d="M154.983 53.402C154.935 53.386 154.887 53.3701 154.838 53.3541C154.79 53.2742 154.758 53.1784 154.71 53.0986C154.999 53.0507 155.176 52.7153 155.513 52.8111C155.32 53.0187 155.16 53.2104 154.983 53.402Z" fill="#2E3540"/>
<path d="M159.191 56.1807C159.657 56.3404 159.448 56.6438 159.368 57.059C159.111 56.7236 159.223 56.4362 159.191 56.1807Z" fill="#2E3540"/>
<path d="M203.24 38.487C203.015 38.2794 203.047 38.0558 203.16 37.7684C203.465 38.0079 203.304 38.2474 203.24 38.487Z" fill="#2E3540"/>
<path d="M157.505 50.5915C157.505 50.6713 157.489 50.7512 157.489 50.831C157.425 51.1025 157.312 51.3261 156.975 51.3261C156.895 50.8949 157.168 50.7352 157.505 50.5915Z" fill="#2E3540"/>
<path d="M134.283 41.7923C134.171 41.6646 134.155 41.5209 134.155 41.3612C134.219 41.2654 134.283 41.1855 134.444 40.946C134.412 41.3292 134.54 41.5847 134.283 41.7923Z" fill="#2E3540"/>
<path d="M209.808 41.3454C209.808 41.4412 209.808 41.537 209.696 41.569C209.567 41.6009 209.567 41.4732 209.551 41.3933C209.535 41.2975 209.551 41.2017 209.664 41.1697C209.792 41.1378 209.776 41.2496 209.808 41.3454Z" fill="#2E3540"/>
<path d="M170.994 47.5411C170.978 47.621 170.978 47.7487 170.849 47.7008C170.801 47.6849 170.753 47.5571 170.753 47.4773C170.753 47.3974 170.769 47.2697 170.897 47.3016C170.994 47.3495 170.994 47.4453 170.994 47.5411Z" fill="#2E3540"/>
<path d="M187.599 54.2324C187.246 54.1685 187.326 53.9769 187.39 53.7214C187.679 53.8491 187.567 54.0727 187.599 54.2324Z" fill="#2E3540"/>
<path d="M214.449 34.9415C214.497 34.9415 214.546 34.9415 214.594 34.9415C214.546 35.3248 214.257 35.197 214.032 35.213C214.048 34.9256 214.257 34.9256 214.449 34.9415Z" fill="#2E3540"/>
<path d="M124.311 53.6893C124.375 53.3859 124.552 53.338 124.809 53.4817C124.729 53.7851 124.472 53.6094 124.311 53.6893Z" fill="#2E3540"/>
<path d="M125.451 53.9288C125.114 53.9448 124.761 53.9927 124.439 53.833C124.777 53.801 125.13 53.7212 125.451 53.9288Z" fill="#2E3540"/>
<path d="M134.155 41.2816C134.011 41.1059 133.995 40.8823 133.979 40.6747C134.348 40.7706 134.091 41.074 134.155 41.2816Z" fill="#2E3540"/>
<path d="M157.649 58.56C157.633 58.4003 157.665 58.2406 157.794 58.1129C157.794 58.3524 157.794 58.5919 157.794 58.8474C157.601 58.7836 157.681 58.6558 157.649 58.56Z" fill="#2E3540"/>
<path d="M193.364 61.2269C193.075 61.2109 192.754 61.4185 192.513 61.0832C192.802 61.1311 193.123 60.9714 193.364 61.2269Z" fill="#2E3540"/>
<path d="M77.1143 51.9968C77.6121 50.6554 78.1099 49.314 78.7523 48.0364C78.7041 49.1383 78.5596 50.2082 77.9172 51.1504C77.58 51.1823 77.6281 51.4538 77.6442 51.6614C77.6442 52.0926 77.4033 52.0766 77.1143 51.9968Z" fill="#2E3540"/>
<path d="M103.242 37.4487C103.595 38.0715 103.836 38.7422 104.061 39.4129C103.354 38.9339 103.049 38.2951 103.242 37.4487Z" fill="#2E3540"/>
<path d="M102.664 36.0594C102.857 36.4267 103.034 36.8099 103.226 37.1772C103.226 37.273 103.226 37.3529 103.226 37.4487C102.52 37.3688 102.279 36.778 102.664 36.0594Z" fill="#2E3540"/>
<path d="M89.4638 50.3198C89.4638 50.6072 89.3675 50.8468 89.2069 51.0703C88.7572 50.9106 88.42 50.6871 88.7091 50.1122C88.9339 50.208 89.1748 50.3677 89.4638 50.3198Z" fill="#2E3540"/>
<path d="M102.375 35.1014C102.311 35.4687 102.712 35.6923 102.664 36.0596C102.198 36.0755 101.813 35.5965 101.99 35.2132C102.054 35.0695 102.086 34.9258 102.118 34.7661C102.375 34.7501 102.311 34.9737 102.375 35.1014Z" fill="#2E3540"/>
<path d="M83.5537 36.89C83.8588 36.906 83.8749 36.5387 84.1158 36.4749C84.0034 36.89 84.3727 37.2254 84.3406 37.7843C84.0194 37.417 83.7785 37.1615 83.5537 36.89Z" fill="#2E3540"/>
<path d="M97.7337 51.0545C97.5892 50.6553 97.557 50.2561 97.7016 49.7131C97.9746 50.2401 97.9103 50.6393 97.7337 51.0545Z" fill="#2E3540"/>
<path d="M76.8245 52.4594C76.9048 52.3476 76.9851 52.2358 77.0654 52.124C77.0815 52.2358 77.0815 52.3476 77.1297 52.4594C77.1778 52.5871 77.4187 52.667 77.226 52.8426C77.0815 52.9704 76.9209 52.8107 76.7764 52.8267C76.7924 52.6989 76.8085 52.5871 76.8245 52.4594Z" fill="#2E3540"/>
<path d="M84.0835 34.9258C84.0996 34.6543 84.212 34.4148 84.3725 34.2072C84.2441 34.4308 85.047 35.0376 84.0835 34.9258Z" fill="#2E3540"/>
<path d="M93.6549 41.1214C93.5104 40.9458 93.4141 40.7541 93.4141 40.5306C93.5586 40.4667 93.6871 40.3869 93.8637 40.307C93.944 40.6264 93.6389 40.834 93.6549 41.1214Z" fill="#2E3540"/>
<path d="M76.5366 53.386C76.5527 53.1624 76.6169 52.9708 76.7936 52.8111C76.922 53.0985 77.2432 53.4658 76.5366 53.386Z" fill="#2E3540"/>
<path d="M101.557 33.3605C101.733 33.5681 101.846 33.8076 101.846 34.0791C101.348 33.9992 101.605 33.616 101.557 33.3605Z" fill="#2E3540"/>
<path d="M98.6649 53.4979C98.681 53.6256 98.5686 53.6576 98.4883 53.6416C98.408 53.6416 98.2956 53.5937 98.2795 53.5458C98.2313 53.418 98.3598 53.418 98.4561 53.4021C98.5204 53.3861 98.6167 53.4021 98.6649 53.4979Z" fill="#2E3540"/>
<path d="M78.0936 51.6612C77.8528 51.5015 77.9491 51.3099 77.917 51.1502C77.9652 51.1662 78.0133 51.1662 78.0455 51.1821C78.2542 51.3099 78.2221 51.4696 78.0936 51.6612Z" fill="#2E3540"/>
<path d="M89.1587 51.4217C89.0624 51.5654 88.9821 51.7251 88.8857 51.8688C88.9339 51.6133 88.7091 51.262 89.1587 51.1502C89.1587 51.246 89.1587 51.3259 89.1587 51.4217Z" fill="#2E3540"/>
<path d="M84.1157 36.4744C84.1318 36.3467 84.0675 36.171 84.2281 36.1391C84.3887 36.1072 84.3887 36.2669 84.3887 36.3627C84.3887 36.5862 84.2281 36.5064 84.1157 36.4744Z" fill="#2E3540"/>
<path d="M83.5703 36.2033C83.5542 36.1554 83.5542 36.1075 83.5382 36.0596C83.5061 36.0117 83.5061 35.9798 83.5703 35.9478C83.6506 35.836 83.7309 35.7083 83.8112 35.5965C83.6988 35.7881 84.1163 36.1873 83.5703 36.2033Z" fill="#2E3540"/>
<path d="M83.2968 36.6183C83.3771 36.5225 83.4574 36.4107 83.5377 36.3149C83.5377 36.5065 83.5377 36.6981 83.5538 36.8898C83.4574 36.8898 83.3771 36.8898 83.2808 36.8898C83.2808 36.794 83.2808 36.7141 83.2968 36.6183Z" fill="#2E3540"/>
<path d="M102.118 34.5106C102.102 34.5585 102.102 34.6064 102.086 34.6544C101.716 34.5905 101.845 34.303 101.829 34.0795C101.941 34.2232 102.022 34.3669 102.118 34.5106Z" fill="#2E3540"/>
<path d="M34.3333 26.3982C34.3172 26.0468 34.5581 25.983 34.8472 25.983C38.2356 25.983 41.64 25.983 45.0284 25.983C45.4299 25.983 45.5584 26.1906 45.5905 26.5419C45.2211 26.1107 44.7394 26.1267 44.2255 26.1267C41.2546 26.1427 38.2837 26.1267 35.3129 26.1267C34.9596 26.1267 34.6223 26.1586 34.3333 26.3982Z" fill="#2E3540"/>
<path d="M32.4863 30.9973C32.7593 30.1669 33.0644 29.3525 33.482 28.6019C33.5623 29.4643 33.5783 30.3106 32.936 31.0133C32.7754 31.0133 32.6309 31.0133 32.4863 30.9973Z" fill="#2E3540"/>
<path d="M53.4758 45.9126C53.6525 46.232 53.8291 46.5354 53.9897 46.8548C54.0861 47.1742 54.1824 47.4776 54.2627 47.7969C54.1021 47.7011 53.9576 47.6053 53.797 47.5255C53.0904 47.1901 53.0262 46.9985 53.3795 46.3118C53.4437 46.2 53.4437 46.0563 53.4758 45.9126Z" fill="#2E3540"/>
<path d="M35.4578 51.1502C35.233 51.5973 35.2169 52.0764 35.1687 52.5395C35.0563 52.3958 34.976 52.2201 34.8476 52.0924C34.6227 51.8848 34.5585 51.6293 34.6227 51.3578C34.7351 50.9266 34.976 51.3418 35.1527 51.2939C35.2651 51.262 35.3614 51.1981 35.4578 51.1502Z" fill="#2E3540"/>
<path d="M35.1693 53.3859C35.0087 53.7692 35.089 54.4079 34.3503 54.2003C34.3503 53.865 33.9648 54.0087 33.8203 53.7692C34.27 53.5776 34.816 53.7852 35.1693 53.3859Z" fill="#2E3540"/>
<path d="M43.7442 48.8184C43.5836 48.4192 43.5676 48.02 43.7442 47.6048C43.9209 48.02 43.9369 48.4192 43.7442 48.8184Z" fill="#2E3540"/>
<path d="M49.2366 35.2292C49.349 35.5965 49.4614 35.9478 49.5738 36.3151C49.076 35.9957 48.8833 35.5166 48.9475 34.9417L48.9957 34.9098C49.2205 34.9098 49.1241 35.1493 49.2366 35.2292Z" fill="#2E3540"/>
<path d="M32.1182 31.8596C32.1663 31.5403 32.3109 31.2688 32.4875 30.9973C32.5357 31.3486 32.9853 31.8916 32.1182 31.8596Z" fill="#2E3540"/>
<path d="M50.1035 37.6722C50.2802 37.8479 50.3605 38.0555 50.3605 38.295C50.1517 38.2471 50.0232 38.6144 49.8787 38.4707C49.6057 38.1513 50.1357 37.9597 50.1035 37.6722Z" fill="#2E3540"/>
<path d="M25.6138 48.9144C26.0795 49.0262 25.8386 49.3616 25.8868 49.665C25.5656 49.4574 25.6298 49.1699 25.6138 48.9144Z" fill="#2E3540"/>
<path d="M37.1441 46.1197C37.112 46.2794 37.2244 46.487 36.9996 46.5988C36.7747 46.487 36.8872 46.2794 36.855 46.1197C36.9674 46.1197 37.0477 46.1197 37.1441 46.1197Z" fill="#2E3540"/>
<path d="M32.9209 30.9815C33.2742 31.1412 33.2581 31.3009 33.0975 31.5085C32.8406 31.3967 32.9691 31.1731 32.9209 30.9815Z" fill="#2E3540"/>
<path d="M46.0247 28.8574C46.1211 28.9053 46.1371 28.9851 46.1371 29.0809C46.1211 29.1608 46.1211 29.2885 45.9926 29.2566C45.9444 29.2406 45.8963 29.1129 45.8963 29.033C45.8802 28.9532 45.8963 28.8414 46.0247 28.8574Z" fill="#2E3540"/>
<path d="M62.2756 35.4368C62.5325 35.8361 62.4522 36.1075 62.4522 36.379C62.4522 41.7925 62.4522 47.222 62.4522 52.6355C62.4522 53.0347 62.4201 53.4179 62.9821 53.5297C62.5164 53.7214 62.1792 53.8012 62.1792 53.1624C62.1792 47.3976 62.1792 41.6328 62.1792 35.852C62.1792 35.7562 62.2113 35.6764 62.2756 35.4368Z" fill="#2E3540"/>
<path d="M25.0518 27.1009C25.0518 27.053 25.0518 27.0051 25.0518 26.9572C26.1759 27.037 26.1759 27.037 26.1759 28.1069C26.1759 30.1989 26.1598 32.2748 26.1919 34.3668C26.208 35.0215 25.951 35.261 25.3408 35.2131C25.3408 32.7379 25.3408 30.2627 25.3408 27.7875C25.3248 27.532 25.4853 27.1967 25.0518 27.1009Z" fill="#2E3540"/>
<path d="M18.5806 54.2163C18.1951 54.1843 18.3236 53.8809 18.2915 53.6733C18.5806 53.306 18.5806 52.8749 18.5806 52.4277C18.5806 47.0781 18.5806 41.7125 18.5806 36.3629C18.5806 36.1074 18.5003 35.82 18.709 35.5165C18.9178 35.7561 18.8536 35.9956 18.8536 36.2032C18.8536 41.8403 18.8536 47.4773 18.8696 53.1144C18.8857 53.5456 18.5806 53.833 18.5806 54.2163Z" fill="#2E3540"/>
<path d="M25.0518 35.213C24.9554 35.213 24.8591 35.213 24.7627 35.213C24.6985 34.8297 24.3773 34.9415 24.1525 34.9415C23.0444 34.9255 21.9524 34.9415 20.8444 34.9255C20.6356 34.9255 20.3144 35.0213 20.2984 34.67C20.2823 34.2548 20.6356 34.3666 20.8765 34.3666C21.84 34.3507 22.8036 34.3666 23.751 34.3666C24.1846 34.3666 24.6343 34.4465 25.0518 34.0472C25.0518 34.4465 25.0518 34.8297 25.0518 35.213Z" fill="#2E3540"/>
<path d="M129.514 12.2815C129.61 12.0899 129.755 11.9621 129.947 11.8663C130.204 12.042 130.542 12.2017 130.124 12.553C130.076 12.5849 130.012 12.6967 130.028 12.7127C130.574 13.3355 129.947 13.9104 129.947 14.5172C129.353 14.6928 128.855 15.4115 128.101 14.8845C128.036 14.8366 127.828 15.0122 127.699 15.0761C127.587 14.4853 127.796 14.102 128.374 14.086C129.08 14.086 129.289 13.7826 129.177 13.1598C129.112 12.7925 129.546 12.6169 129.514 12.2815Z" fill="#2E3540"/>
<path d="M123.476 72.1334C123.476 72.4528 123.476 72.7882 123.476 73.1075C123.476 73.2353 123.492 73.4589 123.348 73.4748C122.946 73.5068 122.866 73.8421 122.978 74.0338C123.107 74.2573 123.364 74.5607 123.749 74.3691C123.749 74.401 123.765 74.433 123.765 74.4649C123.524 74.8641 123.219 74.912 122.834 74.6725C122.529 74.2893 122.224 73.906 121.918 73.5227C121.822 73.2992 121.726 73.0916 121.517 72.9319C121.453 72.8041 121.405 72.6764 121.34 72.5486C121.517 72.0696 121.935 72.1175 122.336 72.1334C122.561 72.3251 122.448 72.6764 122.737 72.9C122.93 72.6604 122.625 72.3251 122.898 72.1334C123.107 72.1334 123.299 72.1334 123.476 72.1334Z" fill="#2E3540"/>
<path d="M129.514 12.2818C129.546 12.3137 129.61 12.3616 129.61 12.3776C129.369 12.9206 129.417 13.5274 129.289 14.0863C129.209 14.4057 128.839 14.23 128.615 14.23C128.02 14.23 127.667 14.4376 127.699 15.0764C127.025 14.741 127.812 14.4216 127.699 14.1023C127.779 13.9106 127.924 13.7829 128.101 13.6711C128.566 13.6551 128.823 13.4316 128.807 12.9525C129.016 12.697 129.209 12.4255 129.514 12.2818Z" fill="#2E3540"/>
<path d="M130.799 15.3636C130.96 15.3477 131.088 15.2678 131.072 15.1081C130.992 14.3416 131.827 14.118 132.052 13.5112C132.164 13.2078 132.662 13.7667 132.999 13.5591C133.08 13.7667 133.015 13.8945 132.775 13.9743C132.212 14.166 131.795 14.5013 131.634 15.0922C131.586 15.172 131.522 15.2359 131.506 15.3157C131.458 15.5233 131.458 15.8267 131.201 15.8267C131.008 15.8267 130.815 15.6032 130.799 15.3636Z" fill="#2E3540"/>
<path d="M119.992 45.6247C119.928 47.9561 119.928 50.2876 119.992 52.6351C119.976 52.7468 119.96 52.8426 119.944 52.9544C119.912 52.9544 119.863 52.9544 119.831 52.9544C119.831 51.3735 119.831 49.8085 119.831 48.2276C119.831 47.3493 119.799 46.471 119.847 45.5927C119.879 45.2414 119.944 45.5767 119.992 45.6247Z" fill="#2E3540"/>
<path d="M119.815 24.977C119.863 24.7215 120.024 24.5139 120.168 24.3063C120.57 24.3222 120.827 24.3861 120.554 24.8812C120.329 25.2964 120.329 25.7914 119.992 26.2226C119.686 25.8074 119.895 25.3602 119.815 24.977Z" fill="#2E3540"/>
<path d="M121.067 72.0378C120.858 71.8781 120.73 71.6705 120.682 71.415C120.971 71.2393 121.051 70.9998 120.826 70.7283C120.666 70.5527 120.682 70.3451 120.682 70.1534C121.003 69.9937 121.115 70.2173 121.244 70.4409C121.195 70.9838 121.356 71.5427 121.067 72.0378Z" fill="#2E3540"/>
<path d="M122.914 72.1334C122.93 72.2771 122.882 72.4527 122.946 72.5326C123.171 72.7881 123.122 73.0436 122.833 73.1234C122.544 73.2033 122.4 72.9318 122.352 72.6763C122.319 72.5007 122.336 72.309 122.336 72.1334C122.544 72.1334 122.737 72.1334 122.914 72.1334Z" fill="#2E3540"/>
<path d="M122.079 71.2872C122.031 70.7124 122.079 70.1534 122.529 69.6744C122.85 70.0896 122.481 70.393 122.368 70.7283C122.513 70.904 122.529 71.0796 122.417 71.2872C122.288 71.3671 122.192 71.3671 122.079 71.2872Z" fill="#2E3540"/>
<path d="M122.352 71.2871C122.352 71.0955 122.352 70.9198 122.352 70.7282C122.545 70.7282 122.721 70.7282 122.914 70.7282C122.946 70.9518 122.818 71.2392 123.187 71.2871C123.316 71.7502 122.994 71.6704 122.721 71.6704C122.545 71.6065 122.416 71.4787 122.352 71.2871Z" fill="#2E3540"/>
<path d="M122.352 71.2872C122.529 71.2872 122.625 71.383 122.641 71.5747C122.721 71.6705 122.721 71.7663 122.641 71.8621C122.336 71.91 122.095 71.7982 121.919 71.5587C121.774 71.3671 121.935 71.3351 122.079 71.3032C122.175 71.2872 122.256 71.2872 122.352 71.2872Z" fill="#2E3540"/>
<path d="M121.228 70.4408C121.035 70.345 120.859 70.2491 120.666 70.1533C120.602 69.7222 120.794 69.5305 121.228 69.5944C121.421 69.8819 121.421 70.1693 121.228 70.4408Z" fill="#2E3540"/>
<path d="M122.914 31.5721C122.898 31.8436 122.801 32.0832 122.641 32.2907C122.544 32.1311 122.288 32.0193 122.368 31.7638C122.48 31.4923 122.721 31.6041 122.914 31.5721Z" fill="#2E3540"/>
<path d="M121.228 70.4411C121.228 70.1536 121.228 69.8822 121.228 69.5947C121.662 69.8822 121.662 70.1696 121.228 70.4411Z" fill="#2E3540"/>
<path d="M122.641 71.8462C122.641 71.7503 122.641 71.6545 122.641 71.5587C122.866 71.5268 123.155 71.6545 123.203 71.2872C123.364 71.7823 123.332 71.8142 122.641 71.8462Z" fill="#2E3540"/>
<path d="M120.393 57.0906C120.554 57.3621 120.522 57.6655 120.538 57.9689C120.522 58.0807 120.505 58.1765 120.489 58.2883C120.457 58.2883 120.425 58.2883 120.393 58.2723C120.393 57.8731 120.393 57.4899 120.393 57.0906Z" fill="#2E3540"/>
<path d="M115.029 57.1069C114.884 56.9312 114.868 56.7236 114.884 56.516C114.9 56.4681 114.9 56.4202 114.917 56.3883C114.965 56.3244 115.029 56.3244 115.029 56.4362C115.045 56.6438 115.045 56.8833 115.029 57.1069Z" fill="#2E3540"/>
<path d="M121.517 63.2866C121.629 63.4622 121.661 63.6539 121.661 63.8615C121.324 63.7337 121.597 63.4622 121.517 63.2866Z" fill="#2E3540"/>
<path d="M137.254 6.13349C137.335 6.06961 137.431 6.00574 137.511 5.94186C137.479 6.21334 137.64 6.50078 137.27 6.74031C136.965 6.94791 137.319 7.15551 137.479 7.33117C137.704 7.5707 137.72 7.37907 137.832 7.20341C138.17 6.69241 139.165 6.62853 139.519 7.07566C139.631 7.21938 139.711 7.26729 139.856 7.18745C140.016 7.09163 140.113 6.91597 139.984 6.78822C139.727 6.53272 139.792 6.2293 139.776 5.94186C139.759 5.81411 139.776 5.59054 139.583 5.68636C139.262 5.84605 139.181 5.75023 139.246 5.46279C139.294 5.23922 139.438 4.96775 139.727 5.12744C140 5.28713 140.177 5.31907 140.402 5.0955C140.514 4.99969 140.691 4.95178 140.771 5.07953C140.9 5.27116 140.675 5.36698 140.562 5.44682C139.984 5.89395 140.065 6.32512 140.787 6.67644C140.386 7.21938 139.872 7.65055 139.326 8.04977C139.085 8.22543 138.86 8.43303 138.635 8.64063C138.218 9.13567 137.8 9.64668 137.254 10.0299C137.158 10.1098 137.046 10.0778 136.933 10.0619C136.323 9.98203 136.243 10.0938 136.467 10.6847C136.483 10.7485 136.451 10.8124 136.419 10.8763C136.002 11.1797 135.504 10.8124 135.086 11.0679C134.765 11.036 134.444 11.0999 134.171 10.8603C133.818 10.5888 133.48 10.2375 133.079 10.0459C132.758 9.90218 132.758 9.71055 132.774 9.47102C133.464 9.69458 134.026 9.55086 134.524 9.00792C134.701 8.81629 134.958 8.88016 135.006 9.21551C135.022 9.35923 134.942 9.55086 135.167 9.67861C135.327 9.50295 135.327 9.21551 135.536 9.07179C135.681 8.97598 135.889 8.84822 135.954 8.96001C136.532 9.91815 136.66 8.84822 136.981 8.72047C137.238 8.62466 137.27 8.33722 137.238 8.06574C137.479 7.82621 137.832 8.30528 138.073 7.87411C137.784 8.00187 137.479 7.84218 137.238 8.06574C136.901 7.89008 136.789 7.33117 136.243 7.45892C136.21 7.47489 136.082 7.29923 136.066 7.20341C136.05 6.97985 136.243 6.94791 136.403 6.96388C136.821 6.99582 136.997 6.82016 136.949 6.40496C137.046 6.29318 137.174 6.2293 137.254 6.13349Z" fill="#2E3540"/>
<path d="M140.915 5.86206C141.012 5.87803 141.108 5.86206 141.108 5.98981C141.108 6.11756 140.996 6.11757 140.915 6.11757C140.819 6.11757 140.723 6.11756 140.723 5.98981C140.707 5.87803 140.819 5.86206 140.915 5.86206Z" fill="#2E3540"/>
<path d="M134.171 10.8923C134.492 10.9402 134.862 10.7645 135.151 11.036C135.151 11.0679 135.135 11.0999 135.135 11.1318C134.99 11.4352 135.231 11.7386 135.151 12.058C135.135 12.1858 135.119 12.3135 135.006 12.4093C134.958 12.4572 134.894 12.5211 134.846 12.569C134.685 12.6968 134.525 12.8245 134.46 13.0161C134.46 13.0481 134.444 13.096 134.444 13.1279C134.268 13.2876 134.091 13.4473 133.914 13.607C133.641 12.8884 133.4 12.1698 134.171 11.6109C134.541 11.3234 134.171 11.1158 134.171 10.8923Z" fill="#2E3540"/>
<path d="M132.758 12.2817C132.276 12.3456 132.598 12.8087 132.373 13.0482C132.068 12.9365 131.907 12.6809 131.714 12.3935C132.1 12.5532 132.309 11.5312 132.758 12.2817Z" fill="#2E3540"/>
<path d="M132.758 12.2818C133.208 12.4575 133.465 12.6651 132.903 13.0643C132.646 12.8247 132.806 12.5373 132.758 12.2818Z" fill="#2E3540"/>
<path d="M131.843 10.5728C132.357 10.7644 132.662 10.8762 133.047 11.0199C132.501 11.3074 132.212 11.1158 131.843 10.5728Z" fill="#2E3540"/>
<path d="M137.254 6.13361C137.238 6.30927 137.142 6.38911 136.981 6.42105C136.933 6.40508 136.869 6.40508 136.821 6.38911C136.933 6.26136 137.062 6.11764 137.254 6.13361Z" fill="#2E3540"/>
<path d="M138.651 8.67283C138.764 8.35344 138.94 8.09794 139.342 8.08197C139.197 8.25763 139.069 8.43329 138.924 8.60895C138.844 8.62492 138.748 8.64089 138.651 8.67283Z" fill="#2E3540"/>
<path d="M136.42 10.8922C136.42 10.8763 136.404 10.8443 136.404 10.8284C136.532 10.493 135.633 10.7805 136.066 10.2535C136.388 9.85426 136.725 9.61472 137.207 10.0459C137.223 10.0619 137.255 10.0619 137.271 10.0619C137.046 10.3812 136.773 10.6687 136.42 10.8922Z" fill="#2E3540"/>
<path d="M135.151 11.0199C135.311 10.9401 135.279 10.461 135.681 10.8123C135.841 10.9401 136.163 10.8762 136.42 10.8922C136.42 10.9401 136.403 10.972 136.42 11.0199C136.082 11.1956 135.954 11.6108 135.568 11.7225C135.344 11.5469 135.408 11.1956 135.151 11.0199Z" fill="#2E3540"/>
<path d="M123.765 74.3693C123.781 74.2096 123.717 74.0499 123.846 73.9062C124.841 75.3913 124.825 75.5191 124.167 76.3814C124.119 76.3335 124.087 76.2696 124.038 76.2217C123.814 75.8065 123.846 75.3434 123.846 74.8963C123.83 74.7046 123.846 74.529 123.765 74.3693Z" fill="#2E3540"/>
<path d="M124.038 74.6408C124.038 75.1677 124.038 75.6788 124.038 76.2057C123.765 75.9502 123.508 75.6788 123.348 75.3434C123.54 75.0719 123.476 74.545 124.038 74.6408Z" fill="#2E3540"/>
<path d="M124.038 74.6409C123.637 74.7047 123.798 75.3275 123.348 75.3435C123.3 75.3275 123.268 75.3116 123.219 75.2956C123.171 75.2956 123.139 75.2796 123.139 75.2637C123.139 75.2317 123.139 75.2157 123.155 75.2157C123.059 75.0401 122.946 74.8485 122.85 74.6728C123.203 74.7367 123.525 74.6728 123.765 74.3694C123.894 74.4173 123.99 74.5131 124.038 74.6409Z" fill="#2E3540"/>
<path d="M135.151 11.0199C135.456 11.1636 135.569 11.4032 135.569 11.7225C135.488 11.8183 135.392 11.8982 135.312 11.994C135.215 12.0898 135.119 12.0898 135.023 12.01C135.215 11.7066 134.428 11.2594 135.151 11.0199Z" fill="#2E3540"/>
<path d="M134.461 13C134.413 12.7125 134.509 12.5369 134.846 12.5528C134.782 12.7604 134.638 12.8882 134.461 13Z" fill="#2E3540"/>
<path d="M135.006 12.01C135.103 12.01 135.199 11.9941 135.295 11.9941C135.311 12.2176 135.151 12.3135 134.99 12.3933C135.006 12.2656 135.006 12.1378 135.006 12.01Z" fill="#2E3540"/>
<path d="M126.029 77.5151C126.11 77.6269 126.19 77.7546 126.27 77.8664C126.286 77.9462 126.286 78.0421 126.302 78.1219C126.286 78.3135 126.318 78.5371 126.013 78.5531C125.869 78.4572 125.756 78.3455 125.708 78.1858C125.869 77.9941 126.061 77.8025 126.029 77.5151Z" fill="#2E3540"/>
<path d="M137.255 8.08172C137.432 7.55474 138.026 7.96994 138.299 7.50684C138.299 8.35319 138.01 8.48095 137.255 8.08172Z" fill="#2E3540"/>
</svg>
