<svg width="171" height="61" viewBox="0 0 171 61" fill="none" xmlns="http://www.w3.org/2000/svg">
<path d="M165.421 61C112.24 61 59.0764 61 5.89463 61C5.65289 60.8884 5.41116 60.7582 5.15083 60.6837C2.00826 59.6048 0 56.7957 0 53.4843C0 38.2296 0 22.9936 0.018595 7.73894C0.018595 6.93901 0.14876 6.13907 0.334711 5.35773C0.966942 2.62306 4.1281 0 7.73554 0C43.4566 0.0558097 79.1777 0.0372065 114.88 0.0372065C131.058 0.0372065 147.217 0.0372065 163.395 0.0186032C165.7 0.0186032 167.69 0.762733 169.159 2.51144C169.921 3.40439 170.386 4.55779 171 5.58097C171 22.2681 171 38.9366 171 55.6237C170.479 56.5166 170.033 57.4468 169.438 58.2839C168.471 59.6792 166.928 60.3489 165.421 61ZM141.508 30.6023C141.508 27.0863 138.812 24.3144 135.335 24.2958C131.82 24.2772 128.975 27.0863 129.012 30.5651C129.05 34.0253 131.876 36.8344 135.298 36.7972C138.738 36.76 141.49 34.0253 141.508 30.6023ZM156.012 30.5093C156.012 27.0119 153.279 24.2958 149.783 24.3144C146.306 24.3144 143.628 27.0491 143.628 30.6023C143.628 34.0997 146.417 36.8716 149.876 36.8158C153.372 36.7414 156.012 34.0439 156.012 30.5093ZM156.012 15.9988C156.012 12.4642 153.316 9.7853 149.783 9.7853C146.324 9.7853 143.609 12.5014 143.609 15.9616C143.609 19.5334 146.25 22.1937 149.802 22.1937C153.353 22.1937 156.012 19.552 156.012 15.9988ZM156.012 45.0384C156.012 41.5968 153.279 38.8249 149.857 38.8249C146.362 38.8063 143.628 41.5596 143.609 45.057C143.609 48.5916 146.324 51.3263 149.82 51.3263C153.298 51.3077 156.012 48.573 156.012 45.0384ZM67.8533 23.8679C69.1364 22.882 69.2851 21.6356 68.9132 20.3147C68.5227 18.9753 67.407 18.3986 66.1612 18.3242C63.8182 18.194 61.4752 18.2126 59.1322 18.2312C58.9463 18.2312 58.593 18.7149 58.593 18.9753C58.5558 22.6215 58.5744 26.2678 58.5558 29.9326C58.5558 30.4163 58.7231 30.6953 59.2438 30.6953C61.4752 30.6581 63.688 30.7139 65.9194 30.5651C67.4628 30.4721 68.6901 29.6722 69.155 28.0909C69.6198 26.4538 69.4711 24.9841 67.8533 23.8679ZM107.293 30.6395C106.996 30.007 106.81 29.5977 106.605 29.1885C105.601 27.2351 104.597 25.2818 103.537 23.3657C103.221 22.789 103.295 22.4541 103.705 22.0076C104.597 21.0217 105.452 19.9985 106.308 18.9939C106.475 18.8079 106.587 18.566 106.81 18.194C105.527 18.194 104.448 18.2312 103.37 18.1754C102.756 18.1568 102.329 18.3614 101.957 18.8637C101.138 19.9799 100.264 21.0403 99.3905 22.1751C99.3905 21.0589 99.3905 19.9985 99.3905 18.9567C99.3905 18.4172 99.186 18.1754 98.6095 18.194C97.9215 18.2312 97.2521 18.2498 96.564 18.194C95.8017 18.1382 95.6157 18.4544 95.6157 19.1613C95.6529 22.1006 95.6343 25.0399 95.6343 27.9793C95.6343 30.7883 95.6343 30.7883 98.4607 30.6767C98.4979 30.6767 98.5165 30.6767 98.5537 30.6767C99.1302 30.7139 99.4091 30.4721 99.3905 29.8768C99.3719 29.1885 99.4277 28.5188 99.3719 27.8304C99.2975 26.8817 99.7624 26.2864 100.525 25.6911C101.25 27.1421 101.901 28.5188 102.626 29.8954C102.775 30.193 103.091 30.6023 103.351 30.6209C104.597 30.6767 105.824 30.6395 107.293 30.6395ZM46.0227 30.6395C45.8554 30.1186 45.781 29.7838 45.6694 29.4861C44.5909 26.5282 43.4938 23.5703 42.4153 20.6124C41.5227 18.1754 41.5227 18.2126 38.9938 18.1568C38.1012 18.1382 37.7479 18.4916 37.469 19.2543C36.2417 22.6959 34.9773 26.1003 33.7314 29.5419C33.6198 29.8582 33.5455 30.1744 33.3967 30.6395C34.6426 30.6395 35.7769 30.6581 36.9112 30.6209C37.0971 30.6209 37.3202 30.2861 37.4132 30.0628C38.064 28.5188 38.064 28.5188 39.7376 28.5188C39.9236 28.5188 40.1095 28.556 40.2955 28.5188C41.1694 28.3513 41.5785 28.742 41.7645 29.5977C41.8574 29.9884 42.2107 30.5837 42.4897 30.6023C43.6054 30.7139 44.7211 30.6395 46.0227 30.6395ZM82.6178 30.6395C82.4876 30.1558 82.4318 29.8954 82.3388 29.635C81.2417 26.6584 80.1446 23.6633 79.0475 20.6868C78.0992 18.1382 78.0992 18.1754 75.4215 18.1568C74.7149 18.1568 74.3802 18.4172 74.157 19.0497C72.9669 22.3983 71.7397 25.7283 70.531 29.0582C70.3636 29.5047 70.2149 29.9698 69.9731 30.6023C71.2934 30.6023 72.4463 30.6209 73.5992 30.5837C73.7665 30.5837 73.9897 30.2303 74.064 29.9884C74.6405 28.5188 74.6219 28.5002 76.2397 28.5002C76.4628 28.5002 76.686 28.5374 76.8905 28.5002C77.7831 28.3513 78.2293 28.7048 78.4153 29.6163C78.4897 29.9884 78.8616 30.5651 79.1591 30.6023C80.2376 30.7139 81.3533 30.6395 82.6178 30.6395ZM23.5041 24.3702C23.5041 25.6167 23.5041 26.8445 23.5041 28.0909C23.5041 30.8256 23.5041 30.807 26.2562 30.6953C26.9628 30.6581 27.1674 30.3791 27.1302 29.728C27.093 28.928 27.1302 28.1095 27.1116 27.3095C27.093 26.8259 27.2975 26.6398 27.7624 26.6584C28.3574 26.677 28.9339 26.677 29.5289 26.6584C32.0021 26.584 33.657 25.1702 33.8244 23.0308C34.0289 20.1845 32.969 18.6218 30.2169 18.287C28.1715 18.0451 26.0702 18.194 24.0062 18.2126C23.8202 18.2126 23.5227 18.6962 23.5041 18.9753C23.4855 20.7612 23.5041 22.5657 23.5041 24.3702ZM93.9979 21.803C93.4029 19.4776 91.9153 18.2126 89.7211 18.0079C86.9504 17.7475 84.7376 18.9009 83.7335 21.1333C83.0455 22.6773 82.8967 24.2958 83.1942 25.9515C83.6033 28.2025 84.6818 29.9698 87.0434 30.6023C89.312 31.2162 91.4132 30.9186 93.0868 29.1141C94.3326 27.756 94.2955 27.6258 92.6963 26.7701C92.4731 26.6584 92.2314 26.5654 92.0455 26.4166C91.3574 25.8957 90.874 25.9887 90.4277 26.7887C90.0558 27.4398 89.405 27.8118 88.624 27.663C87.8244 27.4956 87.2851 26.9561 87.1736 26.1561C87.0434 25.2074 86.9876 24.2586 87.0248 23.3099C87.062 22.2123 87.7128 21.4123 88.4752 21.2821C89.4979 21.0961 90.0744 21.6542 90.5207 22.5099C90.6322 22.7145 91.0785 22.9378 91.2831 22.882C92.1942 22.5657 93.0682 22.1751 93.9979 21.803ZM44.4793 18.194C44.7211 18.6776 44.8512 18.9753 45.0186 19.2543C46.0041 20.9286 46.9525 22.6401 48.0124 24.2772C48.7376 25.412 49.0351 26.5654 49.0165 27.9235C48.9979 31.1232 48.3471 30.6023 51.9174 30.6581C51.9545 30.6581 51.9731 30.6581 52.0103 30.6581C52.5496 30.6767 52.7913 30.4163 52.7727 29.8768C52.7541 29.0024 52.8099 28.1467 52.7541 27.2723C52.6983 26.3608 52.9401 25.598 53.4235 24.8353C54.595 22.975 55.6922 21.0775 56.8078 19.1799C56.9566 18.9195 57.0682 18.659 57.3099 18.1754C56.1384 18.1754 55.1715 18.2312 54.2045 18.1568C53.4236 18.1009 53.0145 18.3986 52.6983 19.0869C52.1405 20.2961 51.5269 21.4867 50.8946 22.7332C50.2252 21.3937 49.6302 20.1287 48.9793 18.9009C48.8306 18.6218 48.5517 18.2312 48.3099 18.2312C47.1198 18.1568 45.8926 18.194 44.4793 18.194ZM120.719 38.8249C117.279 38.8435 114.471 41.6712 114.508 45.1314C114.545 48.5916 117.372 51.3635 120.831 51.3263C124.252 51.2891 126.986 48.4986 126.986 45.0756C126.986 41.5968 124.178 38.8063 120.719 38.8249ZM135.316 22.1937C138.793 22.1937 141.508 19.4962 141.508 16.036C141.527 12.52 138.812 9.7853 135.298 9.7853C131.802 9.7853 128.975 12.5572 129.031 15.9988C129.087 20.1659 132.62 22.4541 135.316 22.1937ZM141.508 45.1314C141.527 41.6154 138.793 38.8249 135.316 38.8249C131.857 38.8063 129.05 41.5968 129.012 45.057C128.994 48.4614 131.764 51.2705 135.186 51.3263C138.682 51.3635 141.49 48.6102 141.508 45.1314ZM120.793 24.2958C117.316 24.2772 114.527 27.0305 114.508 30.4907C114.49 33.9323 117.298 36.7972 120.719 36.7972C124.178 36.7972 126.986 34.0253 127.004 30.5837C127.004 27.1049 124.252 24.3144 120.793 24.2958ZM120.793 22.1937C124.252 22.1937 126.986 19.4776 126.986 16.0174C127.004 12.5386 124.252 9.7853 120.738 9.7853C117.223 9.7853 114.471 12.5386 114.49 16.0174C114.508 19.5148 117.26 22.1937 120.793 22.1937ZM17.4979 17.4126C15.3037 17.4126 13.5558 19.1613 13.5558 21.3565C13.5558 23.4959 15.3781 25.319 17.5165 25.319C19.6736 25.319 21.4401 23.5331 21.4587 21.3379C21.4959 19.1799 19.7107 17.4126 17.4979 17.4126Z" fill="#2E3540"/>
<path d="M62.126 27.8677C62.126 27.0119 62.126 26.3608 62.126 25.5609C63.0743 25.5609 63.9855 25.4492 64.878 25.6167C65.2499 25.6911 65.7148 26.2864 65.7706 26.6771C65.8078 26.9933 65.3057 27.6072 64.971 27.6816C64.097 27.8677 63.1487 27.8305 62.126 27.8677Z" fill="#2E3540"/>
<path d="M62.126 22.8075C62.126 22.175 62.126 21.6913 62.126 21.0774C63.0557 21.0774 63.9297 21.0216 64.8037 21.1146C65.064 21.1518 65.4917 21.6541 65.4731 21.896C65.4359 22.2122 65.064 22.7145 64.7851 22.7517C63.9297 22.8819 63.0743 22.8075 62.126 22.8075Z" fill="#2E3540"/>
<path d="M38.8081 25.5422C39.1056 24.4446 39.366 23.5145 39.6263 22.5843C39.6821 22.5843 39.7379 22.5843 39.7936 22.5843C40.054 23.5517 40.2957 24.519 40.5746 25.5608C39.9424 25.5422 39.4403 25.5422 38.8081 25.5422Z" fill="#2E3540"/>
<path d="M77.1694 25.5423C76.5186 25.5423 76.0351 25.5423 75.533 25.5423C75.5144 25.3562 75.4773 25.226 75.5144 25.1144C75.7562 24.2214 75.9979 23.3471 76.2954 22.2495C76.6116 23.4587 76.8719 24.4633 77.1694 25.5423Z" fill="#2E3540"/>
<path d="M27.2233 21.1891C27.8184 21.1891 28.432 21.1891 29.027 21.1891C29.7523 21.1891 30.1799 21.5239 30.2357 22.2867C30.2915 23.1052 29.9382 23.5889 29.1386 23.7191C29.1014 23.7191 29.0828 23.7191 29.0456 23.7377C27.1304 23.9796 26.7213 23.4401 27.2233 21.1891Z" fill="#2E3540"/>
<path d="M120.701 50.2286C117.781 50.21 115.587 47.9776 115.587 45.0197C115.587 42.1548 117.911 39.848 120.775 39.848C123.639 39.848 125.982 42.2292 125.963 45.1313C125.926 48.0148 123.62 50.2472 120.701 50.2286Z" fill="#2E3540"/>
<path d="M135.297 10.8271C138.217 10.8271 140.467 13.0967 140.467 16.0174C140.467 18.9195 138.198 21.1705 135.279 21.1705C132.359 21.1705 130.091 18.8637 130.109 15.9802C130.128 13.0409 132.359 10.8085 135.297 10.8271Z" fill="#2E3540"/>
<path d="M130.109 45.0013C130.165 42.0434 132.508 39.7924 135.428 39.8482C138.31 39.9041 140.504 42.2853 140.448 45.299C140.392 48.0709 138.012 50.2661 135.111 50.2102C132.248 50.173 130.054 47.8848 130.109 45.0013Z" fill="#2E3540"/>
<path d="M120.719 35.6811C117.799 35.6811 115.605 33.5045 115.587 30.6024C115.568 27.6259 117.818 25.3563 120.793 25.3563C123.657 25.3563 125.981 27.7003 125.963 30.5838C125.925 33.7091 123.173 35.9229 120.719 35.6811Z" fill="#2E3540"/>
<path d="M120.719 21.1705C117.781 21.1705 115.568 18.9195 115.587 15.9802C115.605 13.0595 117.855 10.8271 120.775 10.8271C123.657 10.8457 125.963 13.1525 125.944 16.036C125.944 18.9195 123.638 21.1705 120.719 21.1705Z" fill="#2E3540"/>
<path d="M20.3617 21.3751C20.3617 22.9936 19.0973 24.2772 17.5167 24.2958C15.9547 24.3144 14.6159 22.9192 14.6345 21.3007C14.6531 19.6636 15.8989 18.4544 17.5539 18.473C19.1717 18.473 20.3803 19.7194 20.3617 21.3751Z" fill="#2E3540"/>
</svg>
