<svg width="219" height="59" viewBox="0 0 219 59" fill="none" xmlns="http://www.w3.org/2000/svg">
<path d="M160.289 29.8762C160.289 25.3383 160.289 20.7846 160.289 16.2467C160.289 16.1049 160.304 15.9474 160.289 15.8055C160.225 15.3801 160.448 15.2698 160.831 15.2068C162.794 14.8759 164.756 14.6396 166.735 14.545C168.649 14.4505 170.548 14.482 172.447 14.7499C173.356 14.8759 174.218 15.128 175 15.585C175.287 15.7425 175.526 15.7583 175.829 15.6322C178.957 14.419 182.196 14.1669 185.451 14.8286C187.78 15.3013 189.599 16.5461 190.493 18.8623C190.94 20.0441 191.019 21.2889 191.019 22.5336C191.035 29.6399 191.035 36.7461 191.019 43.8366C191.019 44.4984 191.019 44.5141 190.301 44.5141C188.434 44.5141 186.584 44.5141 184.717 44.5141C184.031 44.5141 184.015 44.5141 184.015 43.8208C184.015 37.1085 184.015 30.4119 184.015 23.6996C184.015 23.353 184.015 23.0063 183.951 22.6597C183.823 21.7931 183.329 21.2101 182.483 20.9422C181.238 20.5483 180.042 20.8792 178.861 21.2416C178.622 21.3204 178.622 21.5094 178.638 21.73C178.733 22.7385 178.685 23.7626 178.685 24.7868C178.685 31.0895 178.685 37.4079 178.685 43.7105C178.685 44.5614 178.797 44.5141 177.888 44.5141C176.372 44.5141 174.872 44.5141 173.356 44.5141C172.511 44.5141 172.606 44.5457 172.606 43.7421C172.606 39.2987 172.606 34.8553 172.606 30.4119C172.606 28.2533 172.606 26.0946 172.606 23.936C172.606 23.479 172.574 23.0378 172.495 22.5967C172.303 21.5567 171.665 20.9265 170.612 20.7374C169.591 20.5483 168.554 20.6428 167.532 20.7374C167.277 20.7689 167.197 20.8949 167.197 21.1313C167.213 21.3361 167.197 21.5252 167.197 21.73C167.197 29.0254 167.197 36.3364 167.197 43.6318C167.197 44.5929 167.373 44.5299 166.256 44.5299C164.565 44.5299 162.889 44.5299 161.198 44.5299C160.081 44.5299 160.257 44.5929 160.257 43.6318C160.289 39.0151 160.289 34.4457 160.289 29.8762Z" fill="#2E3540"/>
<path d="M116.363 29.7502C116.363 27.0716 116.363 24.393 116.363 21.6986C116.363 20.8792 116.443 20.0599 116.682 19.2721C117.272 17.2395 118.613 15.9632 120.655 15.3487C121.644 15.0493 122.681 14.9705 123.702 14.9705C126.447 14.9547 129.191 14.9705 131.92 14.9705C132.047 14.9705 132.175 14.9705 132.303 14.9705C132.542 14.9705 132.67 15.065 132.67 15.3171C132.67 16.9086 132.67 18.5 132.67 20.0914C132.67 20.3593 132.542 20.4381 132.303 20.4381C132.127 20.4381 131.952 20.4381 131.776 20.4381C129.51 20.4381 127.245 20.4381 124.979 20.4381C123.718 20.4381 123.335 20.832 123.335 22.0925C123.335 23.4633 123.335 24.8184 123.335 26.1892C123.335 27.0243 123.256 26.9613 124.085 26.9613C126.303 26.9613 128.505 26.9613 130.723 26.9613C130.898 26.9613 131.074 26.9613 131.25 26.9613C131.505 26.9456 131.616 27.0716 131.601 27.3237C131.601 27.4025 131.601 27.4655 131.601 27.5443C131.601 28.9624 131.601 30.3805 131.601 31.7986C131.601 32.3973 131.585 32.4131 130.978 32.4131C128.744 32.4131 126.495 32.4131 124.261 32.4131C124.085 32.4131 123.91 32.4131 123.734 32.4131C123.447 32.3973 123.335 32.5076 123.335 32.807C123.351 34.493 123.319 36.1789 123.351 37.8807C123.367 38.4952 123.718 38.8261 124.325 38.9206C124.596 38.9679 124.883 38.9679 125.154 38.9679C127.372 38.9679 129.574 38.9679 131.792 38.9679C131.968 38.9679 132.143 38.9679 132.319 38.9679C132.574 38.9679 132.67 39.0782 132.67 39.3303C132.67 40.9217 132.67 42.5131 132.67 44.1045C132.67 44.4039 132.542 44.4984 132.271 44.4984C132.127 44.4984 131.968 44.4984 131.824 44.4984C129.127 44.4984 126.447 44.5142 123.75 44.4984C122.953 44.4984 122.139 44.4512 121.357 44.2936C118.421 43.7106 116.586 41.6623 116.427 38.7C116.363 37.3607 116.395 36.0214 116.395 34.6821C116.363 33.0276 116.363 31.3889 116.363 29.7502Z" fill="#2E3540"/>
<path d="M208.938 21.2733C209.082 20.4697 209.369 19.7922 209.592 19.0831C209.975 17.8541 210.39 16.6251 210.757 15.3961C210.853 15.0967 210.996 14.9549 211.331 14.9549C213.725 14.9707 216.102 14.9707 218.495 14.9549C218.91 14.9549 219.022 15.1282 218.99 15.4906C218.974 15.6167 218.99 15.7427 218.99 15.8688C218.99 25.1022 218.99 34.3356 218.99 43.5847C218.99 44.5459 219.166 44.4828 218.049 44.4828C216.31 44.4828 214.586 44.4828 212.847 44.4828C211.938 44.4828 212.033 44.5459 212.033 43.695C212.033 38.6056 212.033 33.5162 212.033 28.4268C212.033 26.2366 212.033 24.0622 212.033 21.8721C212.033 21.3048 212.017 21.2891 211.459 21.2891C210.629 21.2733 209.8 21.2733 208.938 21.2733Z" fill="#2E3540"/>
<path d="M195.631 21.2733C195.998 20.0916 196.333 19.0359 196.684 17.9802C196.955 17.1293 197.242 16.2785 197.498 15.4276C197.593 15.0809 197.769 14.9549 198.136 14.9549C200.497 14.9707 202.859 14.9549 205.22 14.9707C205.731 14.9707 205.731 14.9864 205.747 15.5221C205.747 15.6482 205.747 15.7742 205.747 15.9003C205.747 25.1337 205.747 34.3671 205.747 43.5847C205.747 44.5931 205.89 44.4828 204.805 44.4828C203.002 44.4828 201.183 44.4828 199.38 44.4828C198.758 44.4828 198.758 44.4671 198.758 43.8683C198.758 41.3315 198.758 38.8104 198.758 36.2736C198.758 31.6097 198.758 26.9457 198.758 22.2817C198.758 22.1557 198.758 22.0296 198.758 21.9036C198.758 21.2733 198.742 21.2733 198.088 21.2733C197.29 21.2733 196.524 21.2733 195.631 21.2733Z" fill="#2E3540"/>
<path d="M60.7885 12.4811C60.7885 12.1502 60.6769 11.9453 60.3897 11.7563C58.3473 10.3854 56.1933 9.2352 53.8957 8.32132C53.7202 8.25829 53.5447 8.10072 53.3053 8.27405C53.3053 9.77093 53.3053 11.2836 53.3053 12.7962C53.3053 13.0956 53.4649 13.2374 53.7042 13.3477C54.3743 13.6786 55.0445 14.041 55.7146 14.3719C56.0657 14.5452 56.2093 14.7658 56.2252 15.1755C56.2731 16.5935 56.2571 18.0116 56.2412 19.414C56.2252 21.0999 56.1614 22.7859 55.8901 24.4561C55.4593 26.9614 54.6137 29.2934 52.9543 31.2945C51.7257 32.7756 50.4173 34.178 48.9494 35.4385C45.7423 38.2274 42.3756 40.8272 38.9771 43.3956C37.3017 44.6561 35.6423 45.9482 33.9031 47.1299C33.7436 47.1299 33.6159 47.2402 33.4245 47.2875C33.6159 47.1929 33.6319 47.0511 33.6798 46.9251C35.2913 45.5385 36.9188 44.1677 38.5144 42.7811C40.5886 40.9848 42.7586 39.2673 44.6573 37.282C46.9071 34.9343 48.742 32.3187 49.9865 29.3092C51.1832 26.4099 51.5661 23.3689 51.5661 20.2806C51.5821 15.0336 51.5661 9.80244 51.5661 4.55548C51.5661 3.73614 51.614 3.87795 50.896 3.61008C44.4818 1.29386 37.8442 0.0490844 30.9992 0.0018145C26.5954 -0.0296988 22.2076 0.34846 17.8836 1.19932C15.1392 1.73504 12.4586 2.45985 9.87382 3.5313C9.36324 3.73614 9.23559 4.004 9.23559 4.52397C9.25155 10.1648 9.23559 15.8057 9.25155 21.4308C9.25155 23.4004 9.53875 25.3385 10.0972 27.2293C11.2301 31.1212 13.416 34.3828 16.2082 37.2663C17.9953 39.1098 20.0057 40.7485 21.9364 42.4502C23.6436 43.9471 25.3828 45.4282 27.0901 46.9251C27.2815 47.0826 27.5687 47.2087 27.5209 47.5711C27.3613 47.5711 27.2656 47.4923 27.1698 47.4293C22.1916 43.884 17.2613 40.2915 12.5544 36.3839C10.4323 34.6191 8.48567 32.6968 7.00179 30.3491C5.83702 28.5056 5.10306 26.5202 4.86372 24.3616C4.54461 21.2733 4.5127 18.1692 4.56056 15.0652C4.56056 14.75 4.67225 14.5609 4.95946 14.4349C5.61364 14.104 6.23591 13.7416 6.8901 13.4422C7.27304 13.2689 7.44855 13.0641 7.44855 12.6071C7.41664 11.2993 7.43259 9.97576 7.43259 8.65221C7.43259 8.49464 7.49642 8.30556 7.33686 8.19526C7.25708 8.19526 7.20921 8.17951 7.16135 8.19526C4.76799 9.14066 2.50227 10.3539 0.348251 11.8035C0.108915 11.9611 0.0291361 12.1502 0.0291361 12.418C0.0770033 15.8687 -0.146377 19.3194 0.188693 22.7701C0.396118 24.9761 0.890745 27.1347 1.91191 29.1358C3.26815 31.7987 5.18284 34.0204 7.51237 35.8797C8.72501 36.8408 9.96955 37.7705 11.2301 38.6843C16.2402 42.3556 21.4258 45.7748 26.5316 49.2886C26.6912 49.3989 26.8986 49.4619 26.9624 49.714C25.303 51.0533 23.6277 52.4084 21.9523 53.7634C21.3939 54.2204 20.8354 54.6931 20.3886 55.2603C20.0536 55.6858 19.7983 56.1427 19.7823 56.6784C19.7664 57.2929 19.7823 57.9232 19.7664 58.5377C19.7664 58.8213 19.8621 58.9474 20.1653 58.9316C20.3727 58.9159 20.5642 58.9316 20.7716 58.9316C26.9784 58.9316 33.2011 58.9316 39.4079 58.9316C39.8865 58.9316 40.4769 59.1365 40.796 58.8371C41.147 58.5062 40.8758 57.8917 40.9237 57.419C41.0513 56.19 40.5248 55.2446 39.5993 54.4882C38.3229 53.4326 37.0305 52.4241 35.7859 51.3369C35.3232 50.943 34.9881 50.9272 34.4616 51.1794C31.6853 52.4714 28.909 53.7162 26.1168 54.9925C25.9412 55.1028 25.7179 55.0397 25.5423 55.1658L25.4945 55.2131L25.5104 55.15C25.654 55.1028 25.7338 54.9609 25.7976 54.8349C30.6003 51.5733 35.4189 48.3274 40.2695 45.1288C43.8276 42.7811 47.3538 40.4176 50.7684 37.8808C52.6352 36.4942 54.4063 34.9973 55.9699 33.2641C58.7941 30.1285 60.3737 26.5045 60.6449 22.2974C60.9162 19.0358 60.7566 15.7584 60.7885 12.4811ZM29.9302 36.2106C26.739 36.2106 23.5479 36.1948 20.3567 36.1948C20.1014 36.1948 19.8621 36.1948 19.6068 36.1948C19.5111 35.9112 19.7345 35.8166 19.8462 35.6906C20.3567 35.1233 20.8833 34.5404 21.4417 34.0046C21.7608 33.7053 21.8566 33.3744 21.8566 32.9489C21.8406 29.7976 21.8566 26.6463 21.8566 23.495C21.8566 18.7995 21.8566 14.104 21.8725 9.40852C21.8725 8.90431 21.7449 8.5104 21.3779 8.14799C20.7397 7.53348 20.1653 6.85595 19.5589 6.20993C19.5909 6.16266 19.6068 6.11539 19.6387 6.06812C19.894 6.06812 20.1334 6.06812 20.3886 6.06812C23.3245 6.06812 26.2763 6.0366 29.2122 6.08387C31.0471 6.11539 32.882 6.08387 34.7169 6.2572C38.7856 6.66687 41.9448 9.75517 41.897 14.0252C41.8491 18.6734 41.8651 23.3059 41.897 27.9541C41.9129 31.8302 39.6153 34.7767 35.4987 35.7851C33.6638 36.2106 31.797 36.2106 29.9302 36.2106Z" fill="#2E3540"/>
<path d="M25.3989 55.1344C25.3989 55.2132 25.3989 55.2762 25.4149 55.355C25.3511 55.4338 25.2234 55.4653 25.1915 55.3866C25.0958 55.2132 25.2872 55.1975 25.3989 55.1344Z" fill="#2E3540"/>
<path d="M156.3 23.5422C156.3 22.975 156.284 22.392 156.204 21.8405C155.917 19.6503 155.007 17.8068 153.093 16.5463C151.593 15.5536 149.886 15.1597 148.114 15.0336C146.28 14.9076 144.445 14.9863 142.61 14.9706C140.695 14.9548 138.78 14.9706 136.882 14.9706C136.036 14.9706 136.132 14.9391 136.132 15.7427C136.132 15.8687 136.132 15.9948 136.132 16.1208C136.132 20.643 136.132 25.1651 136.132 29.6715C136.132 34.3828 136.132 39.1098 136.132 43.821C136.132 44.467 136.132 44.467 136.786 44.467C138.621 44.467 140.456 44.467 142.291 44.467C143.248 44.467 143.088 44.4355 143.088 43.6477C143.088 40.7642 143.088 37.8807 143.088 35.013C143.088 34.1622 142.977 34.2409 143.902 34.2252C145.131 34.2252 146.359 34.2252 147.604 34.2252C147.987 34.2252 148.354 34.2409 148.737 34.2252C149.12 34.1937 149.231 34.367 149.199 34.7136C149.183 34.887 149.199 35.0603 149.199 35.2336C149.199 38.0383 149.199 40.843 149.199 43.6477C149.199 44.5143 149.136 44.467 149.997 44.467C151.752 44.467 153.523 44.467 155.279 44.467C155.406 44.467 155.534 44.467 155.662 44.467C156.3 44.4513 156.3 44.4513 156.316 43.7895C156.316 43.6634 156.316 43.5374 156.316 43.4113C156.316 40.0551 156.316 36.7147 156.316 33.3586C156.3 30.097 156.3 26.8196 156.3 23.5422ZM149.199 28.2377C149.199 28.7734 149.183 28.7892 148.673 28.7892C146.998 28.7892 145.306 28.7892 143.631 28.7892C143.12 28.7892 143.104 28.7734 143.104 28.2377C143.104 26.9299 143.104 25.6063 143.104 24.2985C143.104 22.9907 143.12 21.6672 143.104 20.3594C143.104 19.9654 143.232 19.8394 143.615 19.8551C144.796 19.9182 145.976 19.7606 147.141 19.9497C148.37 20.1545 148.992 20.7848 149.152 21.998C149.183 22.1871 149.199 22.392 149.199 22.5968C149.199 24.4561 149.199 26.3469 149.199 28.2377Z" fill="#2E3540"/>
<path d="M113.187 36.4784C113.187 36.0057 113.14 35.533 113.076 35.0761C112.805 33.3586 111.879 32.1611 110.156 31.6569C110.012 31.6096 109.885 31.5781 109.741 31.5466C109.821 31.3102 110.044 31.263 110.204 31.1684C111.608 30.3018 112.438 29.0728 112.533 27.4499C112.677 24.9288 112.709 22.392 112.485 19.8709C112.294 17.602 110.986 16.0578 108.8 15.3803C107.858 15.0809 106.869 15.0021 105.896 15.0021C101.907 14.9864 97.9019 14.9864 93.9129 14.9864C93.3704 14.9864 93.3545 15.0021 93.3545 15.5851C93.3545 17.145 93.3545 18.7207 93.3545 20.2806C93.3545 28.0801 93.3545 35.8639 93.3545 43.6634C93.3545 44.4985 93.179 44.4985 94.2161 44.4985C95.9074 44.4985 97.5827 44.4985 99.2741 44.4985C100.519 44.4985 100.359 44.6561 100.359 43.4429C100.359 40.5909 100.359 37.739 100.359 34.8712C100.359 34.2725 100.375 34.2725 100.981 34.2567C101.987 34.2567 102.992 34.2567 103.997 34.2567C105.656 34.2567 106.135 34.7452 106.135 36.3996C106.135 38.8892 106.135 41.363 106.135 43.8525C106.135 44.4828 106.135 44.4828 106.725 44.4985C108.688 44.4985 110.65 44.4985 112.613 44.4985C113.219 44.4985 113.219 44.4828 113.219 43.8683C113.187 41.3945 113.203 38.9365 113.187 36.4784ZM105.513 26.2996C105.513 26.6148 105.497 26.9457 105.417 27.2608C105.162 28.2377 104.603 28.7262 103.55 28.7734C102.625 28.8049 101.699 28.7734 100.758 28.7892C100.375 28.8049 100.295 28.6316 100.311 28.3007C100.327 26.9614 100.311 25.6221 100.311 24.2828C100.311 22.9907 100.311 21.6987 100.311 20.4224C100.311 19.8552 100.327 19.8552 100.902 19.8552C101.651 19.8552 102.401 19.8394 103.167 19.8552C104.747 19.8867 105.513 20.6588 105.513 22.2187C105.529 23.5737 105.513 24.9288 105.513 26.2996Z" fill="#2E3540"/>
<path d="M89.6846 22.3607C89.6367 19.6505 88.3283 17.5864 85.9031 16.2471C84.1001 15.2387 82.1216 14.9866 80.0792 14.9708C76.4094 14.9551 72.7396 14.9708 69.0698 14.9708C68.8304 14.9708 68.5751 14.9078 68.272 15.0811C68.7985 15.7902 69.2932 16.4992 69.8357 17.1767C70.0909 17.5076 70.2186 17.8385 70.2186 18.264C70.2026 25.9059 70.2026 33.5636 70.2186 41.2056C70.2186 41.5995 70.1069 41.9147 69.8676 42.2298C69.341 42.9231 68.8304 43.6321 68.2241 44.4515C68.4954 44.4672 68.639 44.4987 68.7826 44.4987C72.5481 44.4987 76.3296 44.5145 80.0952 44.4987C81.4195 44.483 82.7438 44.3727 84.0362 43.9945C87.4348 42.9704 89.6527 40.3075 89.6846 36.9828C89.7324 32.0983 89.7484 27.2295 89.6846 22.3607ZM82.7279 36.5101C82.7279 38.007 81.5791 39.0942 79.9356 39.1572C79.1857 39.1888 78.4198 39.1415 77.6699 39.173C77.271 39.1888 77.1434 39.0469 77.1593 38.6688C77.1753 36.9356 77.1593 35.1866 77.1593 33.4533C77.1593 32.1928 77.1593 30.9165 77.1593 29.656C77.1593 26.7725 77.1593 23.9048 77.1593 21.0214C77.1593 20.8165 77.1593 20.6274 77.1593 20.4226C77.1593 20.2335 77.271 20.1547 77.4465 20.1547C78.5475 20.1705 79.6644 20.0444 80.7494 20.3123C81.9301 20.5959 82.7119 21.6201 82.7119 22.8334C82.7438 27.387 82.7438 31.9407 82.7279 36.5101Z" fill="#2E3540"/>
<path d="M34.7333 20.7219C34.7333 22.9278 34.7333 25.1337 34.7333 27.3397C34.7333 27.7651 34.6854 28.1748 34.6216 28.6002C34.4142 29.7347 33.6961 30.4752 32.5473 30.6801C31.4304 30.8692 30.2976 30.7431 29.1647 30.7746C28.9413 30.7746 28.8456 30.6643 28.8616 30.4595C28.8616 30.3177 28.8616 30.1601 28.8616 30.0183C28.8616 24.015 28.8616 18.0117 28.8616 12.0085C28.8616 11.9612 28.8616 11.9139 28.8616 11.8666C28.8775 11.2364 28.8775 11.2206 29.5317 11.2206C30.2657 11.2206 30.9837 11.2206 31.7176 11.2206C32.2601 11.2206 32.7707 11.3152 33.2494 11.5515C34.2067 12.0085 34.7652 12.7333 34.7492 13.8362C34.7173 16.1052 34.7333 18.4214 34.7333 20.7219Z" fill="#2E3540"/>
</svg>
