<svg width="137" height="83" viewBox="0 0 137 83" fill="none" xmlns="http://www.w3.org/2000/svg">
<g clip-path="url(#clip0)">
<path d="M77.717 0C86.0099 3.33908 88.6637 7.29828 88.6637 16.3138C88.6637 21.3224 88.6637 26.331 88.6637 31.3397C88.6163 39.9736 82.7401 45.8885 74.2102 45.8885C68.4288 45.8885 62.6948 45.8885 56.9134 45.8885C48.81 45.8408 42.6969 39.9259 42.6495 32.1506C42.5547 24.4707 48.7152 18.2695 56.7239 18.1264C63.1687 17.9833 69.6609 18.031 76.1531 18.1264C78.333 18.1741 79.2808 17.6017 79.186 15.2167C79.0438 10.9236 77.6696 9.25402 73.3572 9.20632C66.6281 9.11092 59.9463 9.11092 53.2171 9.20632C51.0847 9.25402 50.0421 8.4908 49.6156 6.43966C49.1891 4.2454 48.4783 2.14655 47.9096 0C57.8612 0 67.8128 0 77.717 0ZM65.7277 36.5868C68.0971 36.5868 70.4665 36.5868 72.836 36.5868C77.6696 36.5391 79.3282 34.7264 79.1386 29.8609C79.0912 28.3822 78.6173 27.6667 77.0535 27.7144C70.0874 27.7621 63.1687 27.6667 56.2026 27.7621C53.5962 27.8098 52.0324 29.7178 52.1746 32.3414C52.3168 34.9172 54.0701 36.4914 57.1978 36.5868C60.0411 36.6822 62.8844 36.5868 65.7277 36.5868Z" fill="#2E353F"/>
<path d="M63.5477 83C56.2973 80.3765 55.3495 73.1259 57.7189 68.4512C60.2305 63.5379 65.6802 62.1546 71.509 65.3029C71.509 63.8719 71.4616 62.6793 71.509 61.4391C71.5564 59.5788 73.0254 58.2431 74.8735 58.2908C75.9161 58.2908 75.9635 59.054 75.9635 59.7696C75.9635 66.7339 76.0109 73.746 75.9635 80.7104C75.9635 82.4276 74.1153 83.6201 72.5989 82.4276C70.6086 80.9012 69.7082 82.4753 68.3339 82.9523C66.6754 83 65.1115 83 63.5477 83ZM71.5564 73.3167C71.5564 69.8822 69.6608 67.7834 66.4858 67.7834C63.1686 67.7357 61.1783 69.8345 61.1783 73.3167C61.1783 76.7035 63.4056 79.0885 66.4858 78.9931C69.5187 78.8977 71.5564 76.6081 71.5564 73.3167Z" fill="#2E353F"/>
<path d="M0.0474136 70.5977C1.3269 67.1156 3.41199 64.5397 7.20307 63.6334C8.48256 63.3472 9.66727 63.2995 10.9468 63.6334C12.7001 64.0627 14.1692 65.3983 16.3017 64.015C17.6759 63.1087 19.2397 64.0627 19.145 66.4C19.0028 70.9316 19.145 75.4633 19.0976 79.9949C19.0976 82.523 17.9602 83.6202 15.7804 82.523C13.9322 81.6167 12.7949 82.3799 11.3733 83C7.96128 83 4.5967 82.9523 1.18474 83.0477C0.14219 83.0954 -0.0473633 82.8569 -0.0473633 81.8075C0.0948021 78.0391 0.0474136 74.3184 0.0474136 70.5977ZM4.40715 73.1259C4.35976 76.5127 6.49224 78.8977 9.61988 78.9931C12.558 79.0408 15.0222 76.465 15.0222 73.269C15.0222 70.1207 12.7949 67.7834 9.76205 67.7834C6.58702 67.7357 4.45454 69.8822 4.40715 73.1259Z" fill="#2E353F"/>
<path d="M86.247 83.0001C80.4657 80.138 78.191 76.2265 79.3283 71.2179C80.4183 66.5432 84.3041 63.3949 89.0903 63.3949C93.9713 63.3472 98.1415 66.6863 99.0419 71.3133C99.9423 75.988 97.6676 80.3765 93.2131 82.3799C92.7866 82.5708 92.3601 82.7616 91.9336 83.0001C90.0381 83.0001 88.1426 83.0001 86.247 83.0001ZM89.4221 67.7834C86.0101 67.688 83.6881 69.8822 83.6407 73.269C83.5459 76.3219 86.0575 78.9455 89.0903 78.9932C92.1706 79.0409 94.6348 76.6558 94.7296 73.5075C94.7769 70.2162 92.5971 67.8311 89.4221 67.7834Z" fill="#2E353F"/>
<path d="M125.58 83C124.632 82.6184 123.637 82.3799 122.736 81.9028C121.883 81.4258 120.367 81.235 121.172 79.6132C121.836 78.2776 122.499 77.3235 124.253 78.3253C126.006 79.3747 128.044 79.2316 130.034 79.0885C131.171 78.9931 132.404 78.7546 132.451 77.3235C132.546 75.9402 131.266 75.7971 130.318 75.5586C129.181 75.2724 127.996 75.2247 126.812 74.9862C123.494 74.3184 121.362 72.2672 121.315 69.6437C121.267 66.7339 123.352 64.4919 126.717 63.681C129.465 63.0609 132.024 63.5379 134.583 64.4442C135.579 64.7781 136.858 65.112 136.1 66.7339C135.531 67.9264 135.01 69.0235 133.304 68.2603C131.882 67.6402 130.318 67.2586 128.707 67.4017C127.57 67.4971 126.338 67.7356 126.243 69.1189C126.101 70.6931 127.428 70.7885 128.518 70.9316C131.74 71.4563 135.01 71.7902 137 74.8908C137 77.1804 136.953 79.5178 137.048 81.8074C137.095 82.8569 136.858 83.0477 135.815 83.0477C132.404 82.9523 128.992 83 125.58 83Z" fill="#2E353F"/>
<path d="M108.519 82.9999C103.07 80.2809 101.174 77.2281 101.79 71.7901C102.169 68.2603 104.017 65.6844 107.287 64.3011C110.699 62.8223 114.064 63.1085 117.191 65.2551C117.807 65.6844 118.66 66.3045 117.902 67.1631C117.191 67.974 116.67 69.3574 115.154 68.9758C114.727 68.8804 114.301 68.5465 113.874 68.3557C111.315 67.2108 108.709 67.7832 107.24 69.739C105.771 71.7424 105.818 75.1292 107.382 77.085C108.898 78.993 111.6 79.6608 113.969 78.1821C115.912 76.9419 116.954 77.8482 117.76 79.2792C118.755 80.9965 116.907 81.3304 116.054 82.0459C115.533 82.4752 114.822 82.7137 114.159 82.9999C112.31 82.9999 110.415 82.9999 108.519 82.9999Z" fill="#2E353F"/>
<path d="M23.1255 73.1736C23.1255 70.9316 23.0781 68.7373 23.1255 66.4954C23.1255 65.5891 22.7938 64.3965 23.9785 64.0626C25.0684 63.7287 26.4427 63.3948 27.2957 64.4919C28.0065 65.446 28.3856 64.8736 29.0017 64.5396C32.1767 62.7747 35.257 63.1086 38.0529 65.3029C38.9059 65.9707 39.3324 66.3046 40.3275 65.446C43.0287 63.1086 46.2037 62.7747 49.3787 64.2534C52.459 65.6845 53.5963 68.3557 53.5963 71.6471C53.5963 74.6046 53.5489 77.5144 53.5963 80.4718C53.6437 82.0937 52.9802 82.7615 51.369 82.7138C49.7578 82.7138 49.0944 82.1414 49.1418 80.5195C49.2365 77.8006 49.1892 75.1293 49.1418 72.4103C49.047 69.4052 47.8149 67.9741 45.3981 67.831C42.6022 67.6879 40.754 69.1667 40.5171 72.1718C40.3275 74.9385 40.3749 77.7052 40.4223 80.5195C40.4697 82.1891 39.8062 82.7615 38.195 82.7615C36.5364 82.7615 35.9204 82.0937 35.9678 80.5195C36.0152 77.8006 36.0152 75.1293 35.9678 72.4103C35.9204 69.2621 34.6409 67.8787 32.0345 67.8787C29.1912 67.8787 27.6274 69.4529 27.58 72.5534C27.5326 75.177 27.4853 77.8006 27.58 80.4241C27.6274 82.1414 26.964 82.8092 25.2106 82.8092C23.4572 82.8092 23.0781 81.9983 23.0781 80.4718C23.1729 77.9437 23.1255 75.5586 23.1255 73.1736Z" fill="#2E353F"/>
<path d="M98.4733 27.6667C92.2654 27.619 92.9289 28.4776 92.8815 22.1811C92.8815 21.3702 92.8815 20.6069 92.9289 19.796C92.9289 18.6035 93.5923 18.0788 94.7296 18.0788C95.0613 18.0788 95.3457 18.0311 95.6774 18.0788C97.6677 18.3173 100.179 17.1248 101.506 18.7943C103.117 20.8931 103.307 23.8029 103.97 26.3788C104.207 27.3328 103.544 27.6667 102.738 27.6667C101.269 27.7144 99.895 27.6667 98.4733 27.6667Z" fill="#2E353F"/>
</g>
<defs>
<clipPath id="clip0">
<rect width="137" height="83" fill="white"/>
</clipPath>
</defs>
</svg>
