<svg width="165" height="31" viewBox="0 0 165 31" fill="none" xmlns="http://www.w3.org/2000/svg">
<g clip-path="url(#clip0)">
<path d="M0.0683594 14.4662C0.157434 13.7941 0.212249 13.122 0.342434 12.4567C0.863177 9.70717 2.01429 7.25639 3.88485 5.14506C5.60468 3.19665 7.68765 1.81172 10.1954 1.06495C13.0184 0.229919 15.814 0.372485 18.5273 1.5198C21.9944 2.97941 24.3925 5.51845 25.9342 8.88572C27.0236 11.255 27.4827 13.7601 27.3251 16.3535C27.1127 19.8701 25.8931 23.0066 23.536 25.6814C21.4531 28.0507 18.8631 29.5578 15.7386 30.1145C15.3138 30.1892 14.8821 30.2299 14.4573 30.2842C13.9297 30.2842 13.409 30.2842 12.8814 30.2842C12.1482 30.1756 11.4151 30.1009 10.6956 29.9108C7.98228 29.2116 5.73486 27.7927 3.89856 25.7085C2.00744 23.5632 0.856325 21.0649 0.335583 18.2747C0.212249 17.5958 0.157434 16.9102 0.0683594 16.2313C0.0683594 15.6406 0.0683594 15.05 0.0683594 14.4662ZM11.0725 23.4954C11.7234 23.5089 12.2236 23.251 12.6073 22.7961C13.128 22.1715 13.6351 21.5266 14.1284 20.8749C17.0542 17.0188 19.7744 13.0269 22.4534 9.00792C22.5494 8.86536 22.6179 8.70921 22.6864 8.55307C22.7481 8.41729 22.7344 8.28151 22.6316 8.17289C22.5151 8.05069 22.3712 8.09821 22.2547 8.1661C22.0903 8.26115 21.919 8.36298 21.7683 8.48518C18.4382 11.0921 15.1425 13.7398 11.8604 16.4146C11.141 17.0052 10.6202 17.0052 9.85284 16.4621C8.42765 15.4438 7.00931 14.4186 5.58412 13.3935C5.37856 13.2442 5.17301 13.1084 4.92634 13.0337C4.20004 12.7961 3.6793 13.217 3.78208 13.9638C3.81634 14.2014 3.91911 14.4186 4.04245 14.6223C4.28226 15.0229 4.52208 15.4166 4.76189 15.8172C6.22134 18.2272 7.85209 20.515 9.57876 22.7418C9.95562 23.2306 10.4627 23.5225 11.0725 23.4954Z" fill="#2E353F"/>
<path d="M66.0453 30.2775C65.5178 30.1825 64.9902 30.1214 64.4763 29.9584C63.1059 29.5104 62.1809 28.6007 61.6053 27.3244C61.0503 26.0888 60.8037 24.7785 60.7625 23.4343C60.605 18.4242 60.7077 13.414 60.7077 8.4038C60.7077 6.72016 60.879 5.03652 61.5711 3.4615C62.3933 1.56741 63.8802 0.630546 65.922 0.454036C66.7716 0.379358 67.6076 0.399725 68.4435 0.555869C70.3552 0.915679 71.5748 2.07657 72.2326 3.86205C72.6711 5.05689 72.8698 6.29246 72.9041 7.5484C73.0411 12.4024 72.952 17.2497 72.952 22.1037C72.952 23.4887 72.8356 24.8804 72.4313 26.2314C72.1504 27.1614 71.7598 28.0304 71.0746 28.75C70.2044 29.6597 69.115 30.0806 67.8885 30.2232C67.7789 30.2368 67.6624 30.2572 67.5528 30.2775C67.0457 30.2775 66.5455 30.2775 66.0453 30.2775ZM65.5109 15.3217C65.5109 18.0168 65.5109 20.7052 65.5109 23.4004C65.5109 23.7738 65.5589 24.1472 65.6548 24.507C65.8192 25.1451 66.1344 25.3895 66.7648 25.3963C67.45 25.4031 67.7789 25.1655 67.9707 24.5274C68.0941 24.12 68.1352 23.7059 68.1352 23.285C68.142 17.9897 68.142 12.6944 68.1352 7.39905C68.1352 6.98492 68.0941 6.56401 67.9707 6.15668C67.772 5.52532 67.4294 5.27413 66.7579 5.28771C66.1413 5.30129 65.8124 5.56605 65.6479 6.19063C65.552 6.55044 65.504 6.92382 65.504 7.29721C65.5109 9.97881 65.5109 12.6468 65.5109 15.3217Z" fill="#2E353F"/>
<path d="M120.442 30.2774C119.942 30.1892 119.428 30.1416 118.935 29.9855C117.482 29.5374 116.516 28.5802 115.92 27.2224C115.44 26.1294 115.249 24.9753 115.139 23.8008C115.05 22.864 115.077 21.9271 115.077 20.9902C115.07 14.6019 115.077 8.2068 115.077 1.81848C115.077 1.66233 115.077 1.4994 115.077 1.34326C115.091 0.888404 115.283 0.637216 115.728 0.630427C116.872 0.603271 118.01 0.603271 119.154 0.630427C119.613 0.637216 119.812 0.895193 119.839 1.35684C119.846 1.50619 119.846 1.64876 119.846 1.79811C119.846 8.72954 119.846 15.6678 119.846 22.5992C119.846 23.1898 119.874 23.7737 119.99 24.3507C120.202 25.3826 120.778 25.4777 121.593 25.3555C121.881 25.3147 122.08 25.1179 122.21 24.8599C122.422 24.4322 122.484 23.9773 122.484 23.5089C122.491 20.9835 122.498 18.4648 122.498 15.9393C122.498 11.2414 122.498 6.55032 122.498 1.85242C122.498 0.752627 122.649 0.603271 123.759 0.603271C124.629 0.603271 125.492 0.603271 126.362 0.603271C127.075 0.603271 127.308 0.834093 127.308 1.54014C127.308 8.50551 127.315 15.4777 127.301 22.4431C127.294 24.0045 127.109 25.5591 126.52 27.0323C125.739 28.9943 124.259 30.033 122.155 30.2299C122.087 30.2367 122.025 30.257 121.957 30.2774C121.443 30.2774 120.942 30.2774 120.442 30.2774Z" fill="#2E353F"/>
<path d="M95.09 30.2773C94.6652 30.189 94.2335 30.1687 93.8155 30.0532C92.082 29.5848 91.0062 28.4443 90.417 26.8082C90.0333 25.7627 89.8346 24.6697 89.8003 23.5563C89.6427 18.3221 89.7387 13.0879 89.7524 7.86044C89.7524 6.21075 89.9853 4.56784 90.7596 3.06071C91.5612 1.49927 92.8631 0.671033 94.5898 0.45379C94.9187 0.413056 95.2407 0.379112 95.5696 0.338379C95.7546 0.338379 95.9328 0.338379 96.1178 0.338379C96.5152 0.385901 96.9126 0.419845 97.3031 0.480945C99.3244 0.813599 100.606 2.00165 101.277 3.88217C101.654 4.93444 101.812 6.02745 101.894 7.13403C101.962 8.06411 101.949 8.98739 101.949 9.91068C101.949 10.5013 101.764 10.7321 101.168 10.7593C100.085 10.8068 98.9955 10.8204 97.9129 10.7525C97.3305 10.7186 97.1866 10.5217 97.1798 9.95141C97.1661 8.93308 97.2141 7.91475 97.1181 6.90321C97.0839 6.53661 97.0222 6.18359 96.8783 5.85094C96.6933 5.40287 96.3233 5.24673 95.8642 5.23994C95.3983 5.23315 95.0077 5.35535 94.7885 5.8102C94.5144 6.39405 94.487 7.01862 94.487 7.63641C94.4733 12.7484 94.4733 17.8604 94.487 22.9792C94.487 23.5156 94.5213 24.0655 94.6926 24.5882C94.8707 25.1517 95.1927 25.3893 95.8026 25.3893C96.4398 25.3961 96.7824 25.1653 96.9605 24.595C97.1387 24.0247 97.1524 23.4341 97.1729 22.8503C97.2003 22.1374 97.1729 21.4246 97.1798 20.7118C97.1866 20.1347 97.3854 19.9378 97.9678 19.9378C99.0435 19.9378 100.112 19.9378 101.188 19.9378C101.675 19.9378 101.928 20.1483 101.935 20.6235C101.969 22.6059 101.956 24.5814 101.353 26.5027C100.647 28.7634 99.1394 29.9921 96.7481 30.2298C96.6933 30.2365 96.6385 30.2569 96.5837 30.2705C96.0972 30.2773 95.597 30.2773 95.09 30.2773Z" fill="#2E353F"/>
<path d="M146.952 30.2774C146.554 30.1891 146.143 30.1552 145.746 30.0397C143.731 29.4695 142.532 28.1049 141.888 26.1972C141.498 25.0499 141.374 23.8619 141.381 22.6535C141.388 21.8727 141.676 21.5876 142.457 21.5808C143.361 21.5808 144.259 21.5808 145.163 21.5808C145.897 21.5808 146.13 21.8049 146.136 22.5313C146.15 23.2441 146.109 23.9569 146.376 24.6426C146.575 25.1586 146.89 25.3758 147.438 25.3826C148.123 25.3894 148.493 25.145 148.637 24.4661C148.994 22.8571 148.788 21.3296 147.904 19.904C147.041 18.5258 146.013 17.2699 145.02 15.9868C144.095 14.7784 143.176 13.5632 142.471 12.2122C141.888 11.1056 141.525 9.9447 141.443 8.68876C141.354 7.43282 141.32 6.18367 141.6 4.94131C141.97 3.31877 142.765 1.97457 144.259 1.11917C145.355 0.494599 146.548 0.331666 147.795 0.406344C148.72 0.460655 149.597 0.664321 150.412 1.11239C151.659 1.79806 152.461 2.86391 152.954 4.1538C153.454 5.46405 153.612 6.82861 153.55 8.22033C153.523 8.80417 153.256 9.06894 152.666 9.07573C151.686 9.0893 150.7 9.09609 149.72 9.07573C149.028 9.06215 148.863 8.8517 148.843 8.15244C148.822 7.46677 148.843 6.7743 148.603 6.10899C148.377 5.47763 148.028 5.24681 147.363 5.27396C146.787 5.30112 146.452 5.57946 146.308 6.20404C145.945 7.78584 146.15 9.26582 147.013 10.6711C147.938 12.1715 149.083 13.5089 150.145 14.9074C151.145 16.2312 152.118 17.5686 152.803 19.0893C153.221 20.0194 153.461 20.997 153.516 22.0085C153.584 23.2712 153.619 24.534 153.338 25.7899C152.769 28.3222 151.042 29.8972 148.445 30.223C148.404 30.2298 148.356 30.2502 148.315 30.2638C147.87 30.2774 147.411 30.2774 146.952 30.2774Z" fill="#2E353F"/>
<path d="M37.8838 30.2775C37.4179 30.1756 36.9451 30.1349 36.4792 29.9855C34.7114 29.4289 33.5946 28.2204 32.9368 26.5572C32.4229 25.2401 32.2653 23.862 32.3133 22.4635C32.3338 21.8728 32.6284 21.5945 33.2246 21.5945C34.2181 21.5877 35.2116 21.5877 36.2051 21.5945C36.7533 21.6013 36.952 21.7914 37.0273 22.3345C37.1164 22.9251 36.9999 23.5361 37.1438 24.1267C37.1849 24.2897 37.2192 24.4594 37.274 24.6155C37.4796 25.1926 37.8222 25.4166 38.4457 25.3963C39.0486 25.3827 39.3844 25.1519 39.5283 24.5544C39.912 22.9862 39.7544 21.4927 38.9048 20.0738C38.0277 18.6074 36.9314 17.3039 35.8968 15.953C34.8416 14.5748 33.8001 13.1831 33.0738 11.5945C32.6079 10.5694 32.3681 9.48995 32.3201 8.37658C32.2721 7.22247 32.231 6.06836 32.512 4.93462C32.9916 2.98622 34.0125 1.46551 35.9996 0.766259C38.1579 0.0126947 41.0425 0.372505 42.6527 2.17155C43.612 3.24419 44.0779 4.5205 44.3246 5.90543C44.4548 6.64542 44.489 7.3854 44.4685 8.13218C44.4685 8.82464 44.1944 9.10299 43.4955 9.10299C42.5842 9.10978 41.6661 9.10299 40.7548 9.10299C40.6177 9.10299 40.4807 9.08262 40.3505 9.06225C39.9599 8.99436 39.8161 8.81785 39.7818 8.4241C39.7338 7.79274 39.7681 7.15458 39.6448 6.53001C39.6174 6.38744 39.5762 6.24487 39.5283 6.10231C39.3296 5.52525 38.9801 5.28085 38.3772 5.29443C37.781 5.30122 37.4248 5.53204 37.2809 6.12267C36.9451 7.47366 36.9725 8.80428 37.6303 10.0806C38.3703 11.513 39.3912 12.7486 40.3711 14.0045C41.4468 15.3827 42.5157 16.7608 43.3585 18.3019C44.0368 19.5443 44.4274 20.8749 44.4753 22.2802C44.5164 23.3392 44.5576 24.4051 44.3452 25.4574C43.845 27.9353 42.3787 29.7411 39.7681 30.1892C39.6037 30.2164 39.4324 30.2435 39.2679 30.2707C38.802 30.2775 38.3429 30.2775 37.8838 30.2775Z" fill="#2E353F"/>
<path d="M160.382 30.2773C159.984 30.1891 159.573 30.1551 159.183 30.0058C157.867 29.5034 157.175 28.519 157.018 27.1613C156.929 26.3873 156.956 25.6066 157.278 24.8666C157.675 23.9501 158.361 23.4138 159.333 23.1966C159.56 23.149 159.662 23.2101 159.642 23.4477C159.642 23.4817 159.635 23.5156 159.642 23.5496C159.717 24.0587 159.614 24.405 159.018 24.5611C158.484 24.7037 158.169 25.145 158.052 25.6949C157.881 26.5163 157.881 27.3106 158.422 28.0234C158.689 28.3833 159.053 28.6141 159.464 28.7634C160.491 29.1368 161.526 29.1232 162.547 28.7634C163.465 28.4376 163.972 27.7315 164.013 26.7607C164.068 25.4776 163.589 24.7648 162.369 24.3507C162.143 24.276 162.054 24.1674 162.074 23.9365C162.088 23.76 162.088 23.5767 162.074 23.3934C162.047 23.0879 162.191 23.0608 162.444 23.1287C163.945 23.5292 164.959 24.8191 165 26.3602C165.021 27.1545 164.973 27.9216 164.541 28.6209C163.931 29.6052 162.999 30.0533 161.882 30.2162C161.793 30.2298 161.704 30.2502 161.615 30.2706C161.204 30.2773 160.793 30.2773 160.382 30.2773Z" fill="#2E353F"/>
<path d="M154.009 30.2773C154.002 29.8428 153.996 29.4015 153.989 28.967C153.982 28.7837 154.064 28.6955 154.249 28.7023C154.564 28.7023 154.886 28.7091 155.202 28.7023C155.387 28.7023 155.469 28.7905 155.462 28.967C155.455 29.4015 155.448 29.8428 155.441 30.2773C154.969 30.2773 154.489 30.2773 154.009 30.2773Z" fill="#2E353F"/>
<path d="M129.548 15.3486C129.548 10.8612 129.548 6.36694 129.548 1.8795C129.548 0.766129 129.706 0.609985 130.83 0.609985C133.433 0.609985 136.037 0.609985 138.641 0.609985C139.49 0.609985 139.696 0.813651 139.703 1.64868C139.703 2.58555 139.703 3.5292 139.703 4.46606C139.703 5.30109 139.497 5.50476 138.648 5.51155C137.428 5.51833 136.202 5.51155 134.982 5.51155C134.399 5.51155 134.365 5.54549 134.365 6.13612C134.365 7.93517 134.365 9.73422 134.365 11.5333C134.365 12.0628 134.447 12.1375 134.989 12.1375C136.277 12.1375 137.572 12.1375 138.86 12.1375C139.463 12.1375 139.696 12.3547 139.703 12.9521C139.717 14.0248 139.717 15.1042 139.703 16.1769C139.696 16.7539 139.442 16.9915 138.846 16.9915C137.544 16.9983 136.243 16.9915 134.941 16.9915C134.427 16.9915 134.365 17.0526 134.365 17.5618C134.365 19.9175 134.365 22.2665 134.365 24.6222C134.365 25.1314 134.461 25.2332 134.989 25.2332C136.277 25.24 137.572 25.2332 138.86 25.2332C139.463 25.2332 139.689 25.4504 139.696 26.0479C139.703 27.1205 139.703 28.1999 139.696 29.2726C139.689 29.8361 139.442 30.0805 138.867 30.0805C136.023 30.0872 133.18 30.0872 130.336 30.0805C129.857 30.0805 129.651 29.8972 129.583 29.4219C129.555 29.2183 129.542 29.0146 129.542 28.8109C129.548 24.3303 129.548 19.8361 129.548 15.3486Z" fill="#2E353F"/>
<path d="M104.251 15.3418C104.251 10.8068 104.251 6.27187 104.251 1.73691C104.251 1.60113 104.251 1.46535 104.251 1.32958C104.272 0.89509 104.457 0.637113 104.881 0.630324C106.046 0.603169 107.211 0.609958 108.369 0.637113C108.78 0.643902 108.972 0.89509 109.006 1.30242C109.02 1.45178 109.013 1.59434 109.013 1.7437C109.013 9.27255 109.013 16.8082 109.013 24.337C109.013 25.1992 109.054 25.24 109.917 25.24C111.069 25.24 112.227 25.24 113.378 25.24C113.933 25.24 114.145 25.4436 114.152 26.0003C114.159 27.039 114.159 28.0845 114.159 29.1232C114.159 29.9039 113.96 30.094 113.158 30.094C111.322 30.094 109.486 30.094 107.643 30.094C106.841 30.094 106.046 30.094 105.244 30.094C104.436 30.094 104.251 29.9107 104.251 29.1232C104.251 24.5203 104.251 19.9311 104.251 15.3418Z" fill="#2E353F"/>
<path d="M163.122 5.30787C162.622 5.10421 162.204 4.93449 161.779 4.77155C160.347 4.21487 158.915 3.65139 157.476 3.10149C157.25 3.01324 157.154 2.86388 157.154 2.63985C157.154 2.38187 157.148 2.11711 157.154 1.85913C157.154 1.43143 157.175 1.41785 157.593 1.41785C159.285 1.41785 160.971 1.41785 162.663 1.41785C163.259 1.41785 163.849 1.42464 164.445 1.41106C164.726 1.40428 164.822 1.5129 164.835 1.78445C164.863 2.66701 164.87 2.66701 163.986 2.66701C162.513 2.66701 161.039 2.66701 159.566 2.66701C159.559 2.68737 159.553 2.70095 159.553 2.72132C159.95 2.87746 160.341 3.0336 160.738 3.18975C161.999 3.68534 163.259 4.1945 164.527 4.67651C164.842 4.79871 164.849 5.00916 164.842 5.26714C164.828 5.5387 164.89 5.82383 164.52 5.96639C162.896 6.59097 161.272 7.2427 159.655 7.88764C159.607 7.90801 159.553 7.92838 159.505 8.01663C159.621 8.01663 159.738 8.01663 159.854 8.01663C161.348 8.01663 162.848 8.01663 164.342 8.01663C164.835 8.01663 164.849 8.03021 164.849 8.50543C164.856 9.23863 164.856 9.23863 164.123 9.23863C161.999 9.23863 159.875 9.23863 157.751 9.23863C157.209 9.23863 157.175 9.20468 157.175 8.65479C157.175 7.72471 157.168 7.71792 158.018 7.37848C159.607 6.74711 161.197 6.11575 162.78 5.48439C162.855 5.44365 162.944 5.39613 163.122 5.30787Z" fill="#2E353F"/>
<path d="M164.993 16.2788C165.061 18.4852 163.486 20.0534 161.197 20.1145C160.478 20.1349 159.785 20.0399 159.128 19.7547C157.716 19.1437 156.935 17.8199 156.983 16.2449C157.024 14.9414 157.463 13.8552 158.593 13.1288C160.203 12.0833 163.122 12.1919 164.39 14.1064C164.835 14.7785 165.034 15.5185 164.993 16.2788ZM164.013 16.3196C164.02 14.9211 163.335 14.0453 161.958 13.7126C161.375 13.5701 160.786 13.5837 160.19 13.6651C159.1 13.8213 158.251 14.5748 158.025 15.6067C157.75 16.8491 158.141 17.9217 159.135 18.5056C160.005 19.0147 160.964 19.0962 161.944 18.8654C163.328 18.5531 164.006 17.7113 164.013 16.3196Z" fill="#2E353F"/>
<path d="M46.168 15.3419C46.168 10.8273 46.168 6.31271 46.168 1.8049C46.168 0.766204 46.3324 0.61006 47.3808 0.61006C48.2578 0.61006 49.1417 0.61006 50.0187 0.61006C50.7519 0.61006 50.9848 0.840882 50.9848 1.56729C50.9848 4.792 50.9848 8.01671 50.9848 11.2346C50.9848 11.3908 50.9917 11.5537 50.9848 11.7099C50.9711 11.9814 51.115 12.1172 51.3685 12.124C51.9989 12.1308 52.6224 12.1308 53.2528 12.124C53.4926 12.1172 53.6297 11.9882 53.6228 11.7302C53.616 11.4587 53.6297 11.1871 53.6297 10.9156C53.6297 7.92846 53.6297 4.94136 53.6297 1.95426C53.6297 1.866 53.6297 1.77096 53.6297 1.6827C53.6365 0.79336 53.8215 0.603271 54.7123 0.603271C55.6373 0.603271 56.5623 0.603271 57.4873 0.603271C58.1519 0.603271 58.3369 0.766204 58.4191 1.41115C58.4397 1.55371 58.4397 1.70307 58.4397 1.85242C58.4397 10.8545 58.4397 19.8565 58.4397 28.8653C58.4397 29.9583 58.3095 30.0873 57.1995 30.0873C56.295 30.0873 55.3974 30.0873 54.493 30.0873C53.89 30.0873 53.6982 29.9108 53.6365 29.3134C53.6228 29.1708 53.6297 29.0215 53.6297 28.8721C53.6297 25.1382 53.6297 21.4044 53.6297 17.6773C53.6297 17.012 53.6091 16.9984 52.9308 16.9984C52.4717 16.9984 52.0195 16.9984 51.5604 16.9984C51.0328 16.9984 50.9848 17.0459 50.9848 17.5619C50.9848 19.9515 50.9848 22.3344 50.9848 24.7241C50.9848 26.1837 50.9848 27.6433 50.9848 29.1029C50.9848 29.904 50.7793 30.1009 49.9708 30.1009C48.9978 30.1009 48.0317 30.1009 47.0587 30.1009C46.442 30.1009 46.2159 29.8837 46.1817 29.2727C46.1748 29.1369 46.1748 29.0011 46.1748 28.8653C46.168 24.3507 46.168 19.8497 46.168 15.3419Z" fill="#2E353F"/>
<path d="M75.2058 15.3622C75.2058 10.8612 75.2058 6.36014 75.2058 1.85233C75.2058 1.70298 75.2058 1.56041 75.2058 1.41105C75.2264 0.867945 75.4593 0.630335 76.0143 0.609968C76.5077 0.59639 76.9942 0.603179 77.4875 0.603179C78.6386 0.603179 79.7966 0.576024 80.9477 0.609968C82.229 0.643912 83.4623 0.881523 84.5586 1.60114C85.8399 2.44296 86.5388 3.66496 86.9568 5.08383C87.272 6.16326 87.4296 7.26985 87.4364 8.3968C87.4433 9.83604 87.4638 11.2685 87.4296 12.7077C87.3953 14.2895 87.1349 15.8374 86.3881 17.2631C85.5042 18.9535 84.0721 19.8904 82.1879 20.1823C81.6466 20.2637 81.0984 20.2977 80.5503 20.3113C80.0706 20.318 80.0227 20.3588 80.0227 20.8476C80.0158 23.5088 80.0227 26.1633 80.0158 28.8245C80.0158 29.0282 80.009 29.2318 79.9747 29.4287C79.9062 29.8632 79.7143 30.0669 79.2758 30.0737C78.1453 30.094 77.0147 30.094 75.8842 30.0737C75.4456 30.0669 75.2469 29.8428 75.2127 29.4083C75.199 29.2522 75.2058 29.0893 75.2058 28.9331C75.2058 24.4117 75.2058 19.8836 75.2058 15.3622ZM80.0227 10.447C80.0227 10.6982 80.0227 10.9426 80.0227 11.1938C80.0227 12.5176 80.0364 13.8347 80.0158 15.1585C80.009 15.4912 80.146 15.6337 80.4681 15.6473C81.3588 15.6745 82.0097 15.4504 82.3523 14.5271C82.5168 14.0859 82.5784 13.631 82.6127 13.1694C82.7155 11.7369 82.6812 10.3045 82.6675 8.86523C82.6607 8.26102 82.6264 7.65002 82.5373 7.04581C82.3455 5.78987 81.7494 5.27392 80.5366 5.30107C80.0638 5.31465 80.0364 5.33502 80.0295 5.81024C80.0227 7.35131 80.0227 8.89918 80.0227 10.447Z" fill="#2E353F"/>
</g>
<defs>
<clipPath id="clip0">
<rect width="165" height="30" fill="white" transform="translate(0 0.277344)"/>
</clipPath>
</defs>
</svg>
