<svg width="122" height="36" viewBox="0 0 122 36" fill="none" xmlns="http://www.w3.org/2000/svg">
<path d="M0 34.3813C0.352971 33.0529 1.26187 32.5074 2.47079 31.8212C3.73266 31.1174 4.8004 29.4986 5.25926 28.0646C6.91822 22.9004 8.28598 17.6394 9.75081 12.4135C10.2891 10.5044 10.8185 8.60413 11.3392 6.68624C12.0539 4.03814 11.7186 3.29033 9.3096 2.08505C9.38902 0.0703816 9.45961 0 11.3304 0C16.1749 0 21.0106 0 25.8551 0C26.2522 0 26.6581 0.0439884 27.1081 0.0703814C27.1346 1.28446 26.7993 2.05866 25.5992 2.58652C24.8491 2.91203 24.0461 3.73022 23.799 4.50441C22.6254 8.21704 21.6283 11.9824 20.8429 15.9502C21.9901 15.0968 23.146 14.2522 24.2844 13.3813C27.7258 10.7684 31.1761 8.15545 34.5999 5.51615C36.7178 3.87978 36.6383 3.29033 34.2558 2.05866C34.2911 0.0615837 34.2911 0.0439884 36.2766 0.0351907C41.7741 0.0175954 47.2716 0.026393 52.8132 0.026393C52.9015 1.39003 52.4956 2.13784 51.0837 2.41057C50.2277 2.57772 49.3806 3.11438 48.6746 3.66863C43.636 7.62759 38.6238 11.6305 33.6116 15.6247C33.4969 15.7127 33.4175 15.8534 33.2234 16.091C35.6324 19.742 38.0502 23.437 40.5034 27.0969C41.2358 28.1878 41.9506 29.3579 42.9212 30.2112C44.0596 31.223 45.4626 31.9356 46.9451 32.9121C46.9804 34.0382 46.5127 34.8476 44.7567 34.7245C42.5241 34.5661 40.2739 34.6101 38.0326 34.7157C32.5792 34.9796 28.6965 32.4283 25.7669 28.0822C23.8079 25.179 21.8489 22.2845 19.7222 19.135C19.3163 20.4986 18.9457 21.6599 18.6104 22.8388C18.1074 24.5983 17.6397 26.3579 17.1455 28.1174C16.4043 30.7479 16.5102 31.0294 19.0428 32.4283C18.8927 33.0881 18.7339 33.8095 18.5398 34.6717C12.3275 34.6717 6.16816 34.6717 0.0176485 34.6717C0 34.5837 0 34.4781 0 34.3813ZM14.2247 3.06159C14.0041 3.07039 13.7747 3.07919 13.5541 3.09678C10.9597 12.5455 8.3654 21.9854 5.76224 31.4341C5.95638 31.5309 6.15051 31.6277 6.34465 31.7156C6.80351 31.0558 7.48298 30.4576 7.68593 29.7186C9.96259 21.5807 12.1951 13.4253 14.3747 5.26101C14.5512 4.59239 14.2865 3.8006 14.2247 3.06159ZM32.9498 33.2992C33.0822 33.1321 33.2145 32.9561 33.3469 32.789C28.4759 28.874 25.6433 23.3491 21.7871 18.4399C21.4871 18.8974 21.2135 19.4869 21.3988 19.7596C23.7373 23.1203 26.0316 26.5338 28.5994 29.7186C29.7466 31.1526 31.4762 32.1203 32.9498 33.2992Z" fill="#2E353F"/>
<path d="M113.812 0C116.029 0.397629 118.255 0.786422 120.472 1.20172C120.952 1.29009 121.415 1.47565 122 1.65237C121.267 4.29439 120.586 6.83922 119.844 9.36637C119.495 10.5416 118.805 10.2146 118.142 9.63146C112.808 4.88642 101.984 6.07047 97.6276 11.8759C93.1407 17.858 95.6373 25.7752 102.822 28.3289C106.837 29.7603 110.861 29.3185 114.886 28.3465C115.715 28.1433 116.527 27.887 117.609 27.5778C117.085 29.8752 116.631 32.0401 116.081 34.1784C116.012 34.4612 115.514 34.7793 115.174 34.8411C108.836 35.9545 102.481 36.6172 96.1174 35.1681C91.9274 34.2138 88.1912 32.3758 85.6161 28.7442C81.7664 23.3187 82.2203 16.1526 86.7247 10.4532C90.6703 5.46077 95.9603 2.6597 102.001 1.22823C104.288 0.680387 106.645 0.397629 108.967 0C110.582 0 112.197 0 113.812 0ZM102.551 2.80107C96.5277 3.45495 89.1252 8.31486 86.3057 13.325C82.9187 19.3513 83.8702 26.3937 88.7062 30.264C93.5336 34.1254 99.2076 34.7793 104.402 34.6467C101.285 33.825 97.4356 33.1623 93.8565 31.7838C85.9129 28.7088 83.4075 20.3409 87.9904 13.0599C89.9982 9.87003 92.8527 7.62564 96.0738 5.8584C98.099 4.74504 100.246 3.87025 102.551 2.80107Z" fill="#2E353F"/>
<path d="M78.2948 21.8674C74.4238 19.2165 70.2441 20.7841 66.1349 20.2293C65.3149 23.3293 64.4772 26.2884 63.7541 29.2739C63.3308 31.0089 64.6623 31.7927 65.7998 32.4708C65.985 34.4788 64.9445 34.7694 63.2956 34.7342C58.8249 34.6285 54.3453 34.6989 49.6807 34.6989C50.5007 31.6694 51.2767 28.7896 52.0703 25.9273C53.8604 19.4631 55.668 13.0077 57.4581 6.54348C58.1459 4.05115 57.7491 3.23211 55.3947 2.07841C55.4564 0.0352273 55.4829 0 57.3964 0C66.8668 0 76.3373 0.00880683 85.8077 0.00880683C86.2574 0.00880683 86.7072 0.00880683 87.4126 0.00880683C86.6719 2.9591 85.9841 5.74206 85.2522 8.51621C85.0229 9.4057 84.3792 9.41451 83.956 8.754C82.8714 7.11593 81.3106 6.87814 79.547 6.91337C76.7517 6.96621 73.9476 6.96621 71.1435 6.91337C70.2264 6.89575 69.7767 7.15115 69.5651 8.08468C69.1507 9.90769 68.6039 11.6955 68.0572 13.7122C72.1576 13.7122 76.0992 13.7122 80.3142 13.7122C79.6175 16.548 78.965 19.1549 78.2948 21.8674ZM60.4121 2.69489C60.174 2.7037 59.9447 2.72131 59.7067 2.73012C56.9819 12.5762 54.2572 22.4134 51.5236 32.3035C52.617 32.6646 52.9962 32.3123 53.2343 31.4492C55.6769 22.5895 58.1723 13.7387 60.5884 4.87018C60.756 4.20086 60.4738 3.41705 60.4121 2.69489Z" fill="#2E353F"/>
</svg>
