<svg width="174" height="53" viewBox="0 0 174 53" fill="none" xmlns="http://www.w3.org/2000/svg">
<g clip-path="url(#clip0)">
<path d="M76.031 24.7905C76.031 31.2018 75.9235 37.6131 76.031 44.1312C76.1385 47.0163 74.9556 48.726 72.1595 49.7945C67.1052 51.611 61.9432 53.2139 56.4587 52.6796C47.5328 51.8248 40.5427 47.4437 40.4352 36.6514C40.4352 32.0566 39.7899 27.355 41.6181 22.8671C43.2312 18.9135 45.8122 16.2421 50.0063 14.9598C54.8456 13.5707 59.5773 13.4639 64.4167 14.853C65.0619 15.0667 65.8147 15.0667 66.5675 15.1735C67.9655 15.3873 68.8258 14.7461 68.8258 13.357C68.8258 10.4719 68.8258 7.58685 68.8258 4.70177C68.8258 1.92355 69.7937 0.961853 72.4822 0.961853C75.0631 0.961853 76.1385 1.92355 76.1385 4.48806C76.031 11.3268 76.031 18.0586 76.031 24.7905ZM47.4253 32.9115H47.5328C47.5328 33.8731 47.4253 34.728 47.5328 35.6897C47.7479 37.5062 47.6404 39.5365 48.3932 41.0324C50.2213 44.7723 53.5551 46.9094 57.7492 46.6957C60.2226 46.5889 62.5885 45.9477 65.0619 45.4135C67.8579 44.7723 68.8258 43.7038 68.9333 40.9256C69.0409 35.476 68.9333 30.0264 68.9333 24.5768C68.9333 22.974 68.073 22.0123 66.5675 21.3711C63.3413 19.982 60.115 19.7683 56.6738 19.8752C53.9853 19.982 51.8344 21.0506 50.0063 22.8671C49.1459 23.7219 48.3932 24.7905 48.1781 25.9659C47.6404 28.103 47.6404 30.5606 47.4253 32.9115Z" fill="#2E353F"/>
<path d="M116.251 36.0098C116.251 39.3223 116.143 42.5279 116.251 45.8404C116.251 47.4432 115.821 48.6186 114.423 49.2598C113.025 50.0077 111.519 50.8626 109.906 51.29C104.959 52.5723 99.9047 53.534 94.8503 52.786C91.5165 52.2517 88.2903 51.29 85.4943 48.9392C81.3002 45.1993 80.87 34.1932 88.1828 31.2013C93.8824 28.8505 99.582 28.5299 105.389 29.8122C108.723 30.5602 109.261 30.1327 109.153 26.7134C108.938 22.6529 106.895 20.4089 102.916 19.8747C98.8293 19.3404 94.7427 19.5541 90.8713 21.0501C88.2903 22.0118 85.9244 21.2638 85.4943 19.4473C85.0641 17.6307 86.7848 15.8142 89.2582 15.1731C94.5277 13.6771 99.7971 13.4634 105.174 14.1045C111.949 14.8525 116.036 19.5541 116.251 26.286C116.251 29.3848 116.251 32.6973 116.251 36.0098ZM109.261 40.4977C109.261 39.8565 109.261 39.3223 109.261 38.6811C109.368 36.1166 108.508 35.1549 105.927 34.8344C104.959 34.7275 104.099 34.6206 103.238 34.4069C100.012 33.6589 96.786 33.8727 93.6673 34.8344C90.9788 35.6892 89.0431 38.3606 89.3657 40.9251C89.5808 43.4896 92.0542 46.2678 94.6352 46.5884C97.7539 46.9089 100.98 47.0158 104.099 46.5884C108.615 46.161 109.261 45.1993 109.261 40.4977Z" fill="#2E353F"/>
<path d="M33.8747 35.5824C33.8747 39.2154 33.9822 42.8485 33.7672 46.3747C33.6596 47.3364 32.5842 48.5118 31.7239 49.1529C28.0675 51.5037 23.8735 52.038 19.6794 52.5723C15.7004 52.9997 11.6139 52.8928 7.74244 51.3969C1.61265 49.2598 -1.93617 43.1691 1.07495 36.1166C2.68806 32.4836 5.69918 30.667 9.46309 30.0259C12.1516 29.5985 14.8401 29.0642 17.4211 29.0642C19.3568 29.0642 21.2925 29.7053 23.2282 30.0259C26.1318 30.4533 26.9921 29.5985 26.8846 26.7134C26.6695 22.5461 24.6262 20.1953 20.5397 19.8747C17.0984 19.661 13.6572 19.8747 10.3234 20.0884C9.78571 20.0884 9.24801 20.7295 8.71031 20.7295C7.41982 20.9433 6.12934 21.2638 4.83886 21.0501C4.08608 20.8364 3.3333 19.7678 3.11822 18.913C3.01068 18.2719 3.65592 16.9896 4.19362 16.6691C12.1516 13.036 20.3246 12.1812 28.3902 16.3485C32.2616 18.3787 33.337 22.1187 33.5521 26.1791C33.7672 29.2779 33.5521 32.4836 33.5521 35.6892C33.7672 35.5824 33.7672 35.5824 33.8747 35.5824ZM17.0984 33.7658C12.2591 33.659 10.7536 34.7275 8.60277 36.4372C6.98966 37.7195 6.23688 39.4291 6.77458 41.4594C7.84998 45.7336 11.829 47.657 15.5929 47.657C18.1738 47.657 20.7548 47.1227 23.2282 46.4816C24.7338 46.161 26.562 45.6267 26.6695 43.7033C26.8846 41.3525 26.7771 39.0017 26.562 36.6509C26.562 36.0098 25.7016 35.0481 25.0564 34.9412C22.4754 34.5138 19.7869 34.1933 17.0984 33.7658Z" fill="#2E353F"/>
<path d="M123.349 34.5141C123.349 30.0262 123.456 25.4314 123.349 20.9435C123.349 19.0201 123.994 17.631 125.715 16.883C133.135 13.6774 140.77 12.6088 148.836 14.5322C155.718 16.2419 158.944 22.0121 159.052 28.2097C159.159 34.9415 159.159 41.5665 159.052 48.2984C159.052 51.8246 156.041 53.5343 152.922 51.8246C151.524 51.0766 151.309 49.7943 151.309 48.5121C151.309 43.0625 151.417 37.6129 151.202 32.1633C151.094 29.7056 150.986 27.1411 150.234 24.8972C149.373 22.3326 146.9 20.9435 144.319 20.4093C140.34 19.5544 136.469 19.9818 132.705 21.6915C131.199 22.4395 130.984 23.8286 130.984 25.3246C130.984 32.4839 130.984 39.6431 130.984 46.8024C130.984 47.5504 130.984 48.2984 130.984 48.9395C130.769 51.1835 129.371 52.6794 127.328 52.5726C125.069 52.5726 123.456 50.9697 123.349 48.7258C123.349 44.0242 123.349 39.2157 123.349 34.5141Z" fill="#2E353F"/>
<path d="M173.355 33.4456C173.355 38.4678 173.355 43.3831 173.355 48.4053C173.355 51.0767 171.957 52.7863 169.914 52.7863C167.548 52.8932 165.935 51.0767 165.935 48.4053C165.935 38.2541 165.935 28.2097 165.935 18.0585C165.935 15.6009 167.44 13.8912 169.483 13.8912C171.527 13.8912 173.355 15.8146 173.355 17.9517C173.355 23.2944 173.355 28.4234 173.355 33.4456Z" fill="#2E353F"/>
<path d="M169.268 7.90726C167.117 7.90726 165.074 5.77016 165.181 3.73992C165.289 1.81653 167.44 0 169.483 0C171.634 0.106855 173.892 1.92339 174 3.73992C174.107 5.66331 171.419 8.01411 169.268 7.90726Z" fill="#2E353F"/>
</g>
<defs>
<clipPath id="clip0">
<rect width="174" height="53" fill="white"/>
</clipPath>
</defs>
</svg>
