<svg width="98" height="83" fill="none" xmlns="http://www.w3.org/2000/svg"><g clip-path="url(#clip0)" fill="#2E353F"><path d="M51.697.86c2.385.514 4.81.83 7.116 1.582 13 4.275 21.308 13.1 24.091 26.397 2.624 12.625-1.113 23.587-10.813 32.294-12.324 11.041-31.883 10.883-44.922-.198-14.192-12.11-16.339-33.085-4.73-47.61 5.605-7.004 13.038-10.962 21.983-12.11.438-.039.875-.237 1.312-.356h5.963zM29.435 15.185c3.18-1.9 6.003-4.037 9.183-5.383 3.18-1.345 6.679-1.86 10.177-2.73V2.086c-9.024.159-16.657 3.166-23.137 9.42 1.431 1.384 2.703 2.65 3.777 3.68zm43.809 43.216c6.043-6.332 9.143-13.812 9.223-22.598H77.02c-.319 7.243-2.982 13.456-7.951 18.68 1.391 1.306 2.663 2.533 4.174 3.918zm-47.069.04c6.44 6.015 13.835 9.3 22.58 9.695v-5.421c-7.354-.317-13.635-3.008-18.843-7.836a323.51 323.51 0 0 0-3.737 3.561zm-1.272-46.185c-5.566 6.095-8.428 13.14-8.746 21.173 0 .396.278.791.398 1.187.357-.158.755-.316 1.073-.554.556-.396 1.034-.87 1.59-1.346.557.713.954 1.188 1.51 1.9.438-.95.955-1.702 1.074-2.533.437-3.918 1.59-7.598 3.657-10.923 1.034-1.701 2.267-3.324 3.38-4.907a127.636 127.636 0 0 1-3.936-3.997zm52.118 22.36h5.446c-.398-8.746-3.618-16.028-9.462-22.241-1.311 1.227-2.544 2.374-3.776 3.562 5.009 5.342 7.474 11.556 7.792 18.68zm-27.153 33.52c8.707-.118 16.14-3.047 22.342-8.706-1.351-1.425-2.584-2.77-3.816-4.076-.239.079-.358.079-.437.158-.835.91-1.59 1.9-2.465 2.77-1.869 1.781-3.499 3.324-6.719 3.008-2.862-.277-5.843 1.068-8.905 1.702v5.144zm0-60.866c7.236.395 13.278 3.284 18.526 7.756 1.192-1.226 2.306-2.414 3.538-3.68-6.122-5.66-13.437-8.825-22.064-9.26V7.27zM17.072 35.606c-2.902 2.454 3.1 17.572 8.428 21.767 1.193-1.148 2.346-2.256 3.578-3.443-3.1-3.443-5.327-7.361-6.52-11.794-.238-.83-.993-1.583-1.63-2.295-.795-.87-1.67-1.623-2.584-2.533-.278.317-.636.713-1.232 1.425-.04-1.266-.04-2.137-.04-3.127zm17.174-15.592c4.095-3.879 8.945-5.857 14.51-6.213V8.892c-5.844-.514-14.311 3.087-18.088 7.638 1.113 1.108 2.266 2.216 3.578 3.483zm-3.538 33.995c5.168 4.749 11.012 7.361 18.048 7.48v-5.066c-4.094-.277-7.831-1.385-11.21-3.562-4.572-2.968-3.578-2.137-6.838 1.148zm21.428-18.68c.238-.87.795-1.82.516-2.216-.795-1.187-1.948-2.137-2.981-3.166-.12.08-.239.159-.318.238-.04-.633-.08-1.267-.16-2.256a100.63 100.63 0 0 1-3.617.95c.04.237.08.514.16.752.874-.12 1.748-.277 2.583-.396-.199.87-3.776 5.026-4.651 5.699-.557.435-1.193 1.424-1.074 2.018.676 3.72 4.93 5.976 8.587 4.71.12-.792.2-1.623.279-2.058 1.391-.594 2.464-1.069 3.935-1.702a67.797 67.797 0 0 1-3.26-2.572zM29.832 17.165c-4.571 5.066-6.837 10.765-7.116 17.453h4.373c1.79-4.67 2.425-10.012 6.4-13.693-1.271-1.346-2.384-2.454-3.657-3.76zm41.544 18.64c-1.909 5.264-3.737 10.29-5.526 15.356.198 0 .437-.04.636-.04a122.92 122.92 0 0 1 1.63 2.375c2.464-1.069.437-3.918 2.186-5.343l.954 1.662c2.902-4.116 4.77-10.013 4.453-14.01h-4.334zM64.617 20.33c3.936 4.195 5.765 9.024 6.043 14.366h5.049c.278-4.353-1.75-10.764-4.413-14.01a45.81 45.81 0 0 1-.795 1.109c-1.908-.634-2.902-4.116-5.884-1.465zm-25.999 4.037c2.902-2.85 6.4-4.037 10.098-4.432v-4.71c-4.572-.316-10.138 2.058-13.596 5.699 1.113 1.108 2.226 2.177 3.498 3.443zM59.926 11.11c0-.197.04-.395.04-.593-3.34-.673-6.679-1.385-10.058-2.098v5.383c5.447.277 10.098 2.295 13.755 5.5.676-.356 1.113-.593 1.63-.83a1228.583 1228.583 0 0 1-7.076-6.65 39.807 39.807 0 0 0 1.71-.712zm-10.058 8.193a1756.93 1756.93 0 0 0 9.621 3.957c.954-.712 2.067-1.504 2.982-2.216-3.022-4.71-7.593-5.62-12.602-6.055v4.314zm-12.443 6.53c-1.192-1.584-2.186-2.85-3.498-4.591-1.47 2.928-2.743 5.382-3.896 7.836-.397.83-.795 1.74.477 2.493.795.475 1.272 1.543 1.909 2.295.278.317.556.673.954.792.159.04.675-.356.715-.633.16-.713.199-1.504.278-2.454-.675.079-1.192.119-1.51.158 1.67-2.097 3.3-4.235 4.572-5.897zm11.25 17.808a289.607 289.607 0 0 0-5.008-2.176c-1.312 1.266-2.584 2.572-4.015 3.997 2.703 1.939 5.207 4.393 9.024 2.77v-4.59zm-13.714 6.214a664.847 664.847 0 0 0 8.706 5.026c-1.272-4.116 2.465-3.166 3.419-4.354a819.533 819.533 0 0 1-8.627-4.116c-.835.792-1.948 1.9-3.498 3.444zm32.2-18.997c3.34-3.363-1.59-3.086-1.59-5.065.477-.08.954-.198 1.909-.356-.915-.357-1.392-.515-1.869-.713.12-.079.239-.118.358-.198a116.52 116.52 0 0 0-1.789-3.205c-1.431 1.306-2.624 2.335-4.413 3.957 2.107 1.386 4.055 2.691 5.963 3.958a6.035 6.035 0 0 0-.437.633c.199-.316.437-.673.875-1.345.477 1.266 1.153 2.216 1.073 3.126-.08.99-.874 1.9-1.431 3.047h3.737c-.16-1.345-.278-2.533-.438-3.72-.516 0-.993-.04-1.947-.119zm-18.366-9.695c-3.896-.04-8.428 2.176-9.104 4.392 1.67.831 4.175.198 4.81 2.612 1.472-.514 2.823-.99 4.254-1.503.04-1.742.04-3.562.04-5.502zm-5.884 19.075c-.954-1.504-1.51-3.364-2.742-4.116-1.273-.752-3.22-.435-5.01-.594.279 3.562 1.352 6.411 3.539 8.786 1.47-1.346 2.782-2.652 4.213-4.076zm9.422-12.387c1.272.079 2.227.158 3.18.198-.675-2.019 3.42-1.108 2.147-3.483.2-.04.358-.119.795-.238-2.703-2.018-5.406-3.205-8.626-3.245v6.174c1.232-.514 2.266-.95 3.498-1.464-.278.633-.517 1.108-.994 2.058zM37.306 45.54c-1.073-3.087-2.067-6.095-3.18-9.063-.16-.396-.716-.633-1.113-.95-.239 4.551-.875 8.905 1.272 12.902a141.846 141.846 0 0 0 3.021-2.89zm25.045 2.018c-.04.159-.08.356-.119.515.557.04 1.312.356 1.59.079 1.034-.91 2.107-1.86 2.862-3.008 1.869-2.81 2.704-5.976 2.783-9.3h-3.021c.676.95 1.153 1.662 1.67 2.454-.398.316-.716.672-1.114.87-1.63.95-2.862 2.019-2.186 4.274.477 1.781-.914 3.8-2.465 4.116zm-12.443 8.865v5.264a938.95 938.95 0 0 1 6.4-.95c-.437-2.098-1.351-3.641-3.378-4.63-.716.04-1.83.158-3.022.316zM31.94 51.08c-2.067-1.464-4.015-2.849-5.963-4.234a1.562 1.562 0 0 1-.397.317c1.391 1.978 2.782 3.997 4.333 6.213.716-.792 1.232-1.385 2.027-2.296zm5.526-18.956c1.074-.831 1.233-2.77-.755-3.879-.557 2.137-1.034 4.156-1.59 6.372h3.26c.238-.277.437-.514.675-.791-.556-.554-1.113-1.188-1.59-1.702zm12.483 11.279v2.85c.994-.357 1.948-.555 2.663-1.07.517-.316.835-1.028 1.034-1.661.04-.198-.636-.594-1.153-1.109v2.375c-.914-.475-1.71-.91-2.544-1.385zm9.58 3.285a1047.254 1047.254 0 0 1-6.718 3.482c3.101.317 6.4-1.425 6.719-3.482zm38.283-1.9c-1.55 8.31-7.99 12.268-14.232 15.949.914-6.372 1.908-12.941 2.862-19.51.2.039.358.039.557.078.159 4.75 2.703 9.498.199 14.406 2.981-5.145 8.785-8.153 10.614-14.09v3.167zm-97-1.978c1.988 2.65 3.936 5.342 5.963 7.954 1.59 2.058 3.34 3.997 5.089 6.015-3.022-4.907-.756-9.854.238-14.88.994 6.45 1.948 12.941 2.902 19.194C9.2 59.273 3.277 53.099.812 45.975V42.81z"/><path d="M.812 32.124c.318-1.108.596-2.256.755-2.85 1.75 5.106 3.618 10.607 5.486 15.989-1.272-5.58 2.386-9.696 4.731-14.247.199.04.358.079.557.119-1.352 6.292-2.704 12.624-4.015 18.64C4.827 46.093 1.448 41.858.812 36.08v-3.957zM78.134 75.3c-3.976 4.394-10.456 5.185-16.22 2.098-1.75-.95-3.34-2.137-4.97-3.245-1.55-1.029-3.18-1.504-4.85-.99 3.062 2.217 6.163 4.472 9.224 6.728.318.238.517.554.954.99l-1.988 1.978c-1.272-1.424-2.306-2.77-3.578-3.878-1.749-1.504-3.657-2.81-5.486-4.234-1.192-.95-2.425-.95-3.617-.04-3.101 2.454-6.162 4.907-9.462 7.52-.238-.199-.874-.634-1.908-1.425 3.657-2.652 7.116-5.145 10.614-7.678-1.67-.594-3.14.08-4.532.91-1.908 1.187-3.697 2.533-5.645 3.641-5.685 3.166-12.284 2.256-16.577-2.414 5.009 2.295 9.461 1.425 13.954-.712 4.73-2.256 9.62-3.68 14.947-2.098.676.198 1.51-.237 2.306-.356 3.975-.752 7.752-.198 11.449 1.425.676.277 1.312.593 1.988.87 4.333 1.98 8.746 2.969 13.397.91zm-57.405-8.43c-4.77-5.302-3.658-6.331-5.447-15.236.16-.079.318-.158.438-.237 1.391 2.572 2.862 5.105 4.094 7.757 1.55 3.364 2.942 6.807 4.254 9.973-9.82-.673-16.736-4.472-19.797-13.654 4.253 6.293 11.806 6.649 16.458 11.398zm53.787 1.98c1.272-2.929 2.465-5.857 3.777-8.786 1.43-3.126 2.942-6.253 4.73-9.221-1.073 5.501-.357 11.596-3.26 13.812 2.664-2.968 10.416-3.404 14.471-9.855-2.107 7.995-9.183 13.258-19.718 14.05z"/><path d="M31.423 71.62c-5.606-1.108-7.077-5.818-9.382-10.408 5.525 3.443 8.587 9.617 15.742 10.606-2.266.594-4.015 1.068-5.844 1.464-1.868.396-3.736.831-5.645 1.03-5.804.593-10.376-1.703-13.914-6.293 5.844 3.799 12.761 1.86 19.043 3.601zm55.218-4.63c-2.624 4.828-9.223 7.915-14.868 6.965-3.22-.554-6.44-1.306-9.78-2.216 6.282-1.583 9.184-7.361 14.55-11.002-2.106 4.59-3.378 9.102-8.706 10.487 6.242-1.583 13.12.159 18.804-4.234zm-.318-36.766c2.028 4.235 5.963 7.638 5.645 12.823 1.67-4.789 3.34-9.617 4.97-14.287 2.265 8.232-1.114 14.84-6.68 20.381-1.232-5.659-2.544-11.556-3.816-17.452-.119-.475-.08-.99-.119-1.465z"/><path d="M92.088 36.794c-1.83-5.897-7.593-9.459-8.468-15.632 4.413 3.284 6.4 5.5 8.348 9.775V15.66c5.407 6.688 3.14 13.811.12 21.133zM5.94 16.769c.199 5.065.398 10.29.636 15.988.636-5.501 4.93-7.915 8.07-11.437-.795 6.41-6.32 10.131-8.268 16.344C4.986 32.757 2.56 28.8 3.118 24.05c.318-2.612 1.232-5.342 2.822-7.281z"/><path d="M79.326 12.495c3.34 2.69 6.321 5.144 9.223 7.519-1.55-3.562-1.113-8.073-4.333-11.358 2.783.593 5.645 3.561 6.003 6.925.358 3.166.08 6.412.08 9.3-2.465-2.136-5.288-4.432-7.991-6.846-1.55-1.346-2.505-3.087-2.982-5.54zm-60.546.355c-1.112 6.65-7.79 8.43-10.852 13.338 0-3.602-.278-7.045.08-10.37.318-3.125 2.504-5.184 4.85-6.41a1120.4 1120.4 0 0 1-3.38 11.358 4232.01 4232.01 0 0 1 9.303-7.915z"/><path d="M74.755 4.104c6.32 1.465 9.859 5.383 11.051 11.715-4.77-2.968-7.394-7.717-11.051-11.715zM12.46 16.096c.835-6.134 4.452-10.171 10.256-11.28-3.418 3.958-5.684 8.668-10.256 11.28zm33.552 18.521c.16 2.177-.636 2.929-2.902 2.414 1.074-.87 1.988-1.622 2.902-2.414z"/></g><defs><clipPath id="clip0"><path fill="#fff" transform="translate(.812 .86)" d="M0 0h97v82H0z"/></clipPath></defs></svg>