<svg width="120" height="48" fill="none" xmlns="http://www.w3.org/2000/svg"><g clip-path="url(#clip0)" fill="#2E3540"><path d="M52.737.973c.65.1 1.311.174 1.962.312 1.953.431 3.673 1.34 5.226 2.57.083.065.186.11.279.157-.028.046-.056.082-.084.128H28.087c-.604 0-.604 0-.604-.606L27.455.973h25.282zM27.455 47.972c.01-.9.037-1.8.028-2.699 0-.358.093-.477.474-.477 10.637.009 21.274.009 31.912.009.084 0 .176.009.26.018.019.046.047.092.065.138-.79.514-1.562 1.065-2.39 1.524-1.431.799-2.956 1.313-4.611 1.396-.15.009-.298.073-.447.1-8.433-.009-16.867-.009-25.291-.009zM24.107.973c-.009.835-.027 1.68-.037 2.515-.01.652 0 .652-.65.652H1.55c-.196 0-.4.028-.595.037V.973h23.152zM1.14 47.972c.01-.881.047-1.772.029-2.653-.01-.395.093-.533.52-.523 7.355.009 14.7.009 22.056 0 .418 0 .52.137.52.523-.018.881.02 1.772.029 2.653H1.14zM.955 7.308h22.213c.158 0 .307.009.465 0 .316-.019.447.1.437.422a45.349 45.349 0 0 0 0 2.25c.01.33-.13.413-.437.413-1.33-.01-2.668-.01-3.998-.01H1.605c-.213 0-.427.028-.641.037-.01-1.028-.01-2.075-.01-3.112zM85.653.972c.279.817.558 1.644.837 2.46.074.212.14.423.232.708H67.577c-.614 0-.614 0-.614-.606 0-.854 0-1.708-.009-2.57 6.24.008 12.47.008 18.699.008zm34.116 0c-.01.9-.047 1.8-.037 2.7 0 .349-.093.477-.465.477-6.258-.01-12.507-.01-18.764-.01-.103 0-.205-.017-.382-.036.298-.835.586-1.634.865-2.442.074-.23.121-.468.186-.698 6.202.01 12.404.01 18.597.01zM103.32 47.973c.009-.854.028-1.708.037-2.562.009-.606 0-.606.604-.606h15.408c.195 0 .4-.027.595-.037v3.214c-5.551-.01-11.102-.01-16.644-.01zm-36.17-.001c0-.9.009-1.808-.01-2.708-.01-.358.121-.468.493-.468 5.123.009 10.256.009 15.38 0 .371 0 .483.119.474.477-.01.9.009 1.8.018 2.709-5.449-.01-10.897-.01-16.356-.01zm52.804-6.335h-15.9c-.706 0-.706 0-.706-.697v-1.7c0-.68 0-.68.669-.68h15.342c.196 0 .4-.027.595-.036v3.112zM83.487 21.273c0 .404-.01.808 0 1.212.009.294-.103.404-.41.404-3.022-.01-6.043-.01-9.066 0-.334 0-.427-.12-.418-.432.019-.707.037-1.405-.01-2.112-.027-.45.159-.532.568-.532 4.51.01 9.02.01 13.52.01 1.376 0 2.761.027 4.137-.02.503-.018.716.166.856.607.214.68.474 1.34.716 2.01.037 0 .084.01.12.01.057-.129.131-.248.177-.377.224-.615.456-1.23.66-1.855.094-.266.233-.385.53-.385 5.961.01 11.93.01 17.891 0 .334 0 .474.092.465.44a44.395 44.395 0 0 0 0 2.25c0 .276-.103.377-.382.377-3.04-.01-6.071-.01-9.112 0-.307 0-.409-.12-.4-.404.019-.404 0-.808 0-1.203l-.167-.028c-.149.404-.326.799-.447 1.212-.102.35-.288.44-.632.44-5.793-.008-11.586-.008-17.378 0-.363 0-.521-.137-.623-.458-.121-.404-.289-.79-.437-1.194-.038.01-.103.019-.158.028zM45.819 38.561h17.76c.604 0 .632.01.465.579-.205.688-.447 1.359-.688 2.038-.121.34-.363.468-.754.468-11.53-.009-23.06-.009-34.58 0-.4 0-.549-.11-.54-.523.029-.688.029-1.377 0-2.066-.018-.422.14-.505.54-.505 5.923.01 11.855.01 17.797.01zm0-28.168h-17.62c-.716 0-.716 0-.716-.726 0-.642.009-1.285-.01-1.928-.009-.321.121-.45.437-.422.112.009.214 0 .326 0H62.35c.781 0 .846.018 1.116.753.242.642.4 1.313.605 1.965.093.275-.019.367-.289.358H45.82zm16.532 18.73H34.773c-.68 0-.68 0-.68-.68V26.7c0-.634 0-.634.624-.634h21.507c1.023 0 2.045-.009 3.068.01.177 0 .39.027.52.128.93.762 1.796 1.598 2.419 2.635.046.065.065.138.12.285zm.047-9.301c-.707 1.258-1.637 2.149-2.64 2.966-.103.082-.289.092-.438.092-8.257 0-16.504 0-24.761.009-.39 0-.474-.147-.465-.487.018-.688.028-1.377 0-2.066-.019-.404.12-.523.53-.523 2.65.018 5.3.01 7.94.01h19.834zm-49.681 18.74c3.654 0 7.309.009 10.963-.01.437 0 .604.092.586.551a21.863 21.863 0 0 0 0 2.066c.009.367-.13.478-.484.478-1.692-.01-3.375-.01-5.067-.01H1.857c-.67 0-.67 0-.67-.651 0-.643.028-1.286-.01-1.929-.018-.413.131-.514.53-.514 3.664.019 7.337.019 11.01.019zM89.01 10.393h-.614c-6.937 0-13.883 0-20.819.009-.465 0-.632-.11-.614-.588.038-.67.019-1.35.01-2.02-.01-.348.111-.495.483-.486.605.018 1.209.009 1.813.009 5.998 0 11.995.01 17.983-.01.512 0 .744.157.884.625.241.79.558 1.57.874 2.46zm8.861 0c.363-1.01.688-1.938 1.032-2.865.037-.092.168-.165.28-.193.13-.037.278-.018.418-.018h19.461c.669 0 .669 0 .669.643 0 .67-.009 1.35.01 2.02.009.32-.112.422-.437.422-.93-.018-1.86-.01-2.79-.01H97.871zm-6.592 6.243H74.216c-.613 0-.613 0-.613-.597 0-.66.018-1.313-.01-1.974-.018-.385.121-.495.502-.495 2.892.009 5.793.009 8.685.009 2.297 0 4.584.009 6.88-.01.373 0 .559.102.68.45.288.845.604 1.69.939 2.617zm4.37-.046c.344-.964.678-1.9 1.022-2.828.028-.082.177-.147.28-.183.083-.028.185-.01.278-.01 5.161 0 10.312 0 15.473-.009.39 0 .558.092.539.505a31.635 31.635 0 0 0 0 2.112c.009.33-.084.46-.437.46-5.588-.01-11.177-.01-16.774-.01-.112.01-.214-.018-.381-.037zM75.341 38.561c2.539 0 5.077.01 7.625-.009.4 0 .558.092.54.514a21.863 21.863 0 0 0 0 2.066c.027.468-.206.514-.587.514-4.23-.009-8.461-.009-12.692-.009-.865 0-1.739-.009-2.603 0-.335.01-.484-.11-.475-.45a41.72 41.72 0 0 0 0-2.157c-.009-.395.158-.478.53-.478 2.548.01 5.105.01 7.662.01zm10.126-12.459h15.956c-.353.974-.669 1.91-1.041 2.828-.047.11-.326.193-.502.193-1.507.018-3.004.01-4.51.01-2.743 0-5.486-.01-8.229.008-.456 0-.65-.156-.781-.56-.27-.808-.577-1.607-.893-2.479zm2.287 6.234h11.41c-.112.331-.214.625-.326.919-.214.606-.418 1.212-.67 1.808-.055.138-.278.303-.427.303-2.855.019-5.7.019-8.555 0-.14 0-.353-.11-.4-.21-.353-.91-.678-1.828-1.032-2.82zM59.19 13.57c1.562 0 3.124.018 4.687-.01.474-.009.622.166.539.588-.149.735-.316 1.46-.474 2.185-.066.294-.28.303-.53.303-1.86-.009-3.71 0-5.57 0-1.144 0-2.288-.009-3.431.01-.372.009-.53-.092-.512-.487.028-.652.01-1.313.01-1.974 0-.615 0-.615.604-.615h4.677zm-.075 21.806c-1.562 0-3.124-.019-4.686.009-.437.009-.567-.129-.54-.551.029-.698.02-1.405 0-2.112-.009-.33.122-.422.438-.422 3.05.009 6.1 0 9.15.018.148 0 .409.147.436.276.196.734.344 1.478.502 2.221.093.45-.111.57-.557.56-1.581-.009-3.162 0-4.742 0zm-20.093-18.74c-1.488 0-2.966-.009-4.454.01-.372 0-.493-.11-.483-.469.018-.734.018-1.469 0-2.203-.01-.294.111-.404.409-.404 3.05.009 6.09.009 9.14 0 .297 0 .409.11.409.404-.01.743-.019 1.496 0 2.249.01.321-.112.422-.437.422-1.516-.018-3.05-.009-4.584-.009zm.056 18.74c-1.497 0-3.004-.01-4.5.009-.363 0-.494-.101-.484-.469.018-.734.018-1.469 0-2.203-.01-.294.093-.404.4-.404 3.05.009 6.09.009 9.14 0 .297 0 .418.092.409.395-.01.734-.028 1.469 0 2.203.019.404-.158.487-.52.478-1.48-.019-2.958-.01-4.445-.01zm-26.454-18.74c-1.45 0-2.91-.018-4.36.01-.484.008-.614-.148-.587-.598.038-.67.019-1.34 0-2.02-.009-.32.084-.468.437-.468 3.004.01 6.007.01 9.01 0 .307 0 .447.083.447.413a45.346 45.346 0 0 0 0 2.25c.01.33-.13.413-.437.413-1.507-.01-3.004 0-4.51 0zM78.54 29.123c-1.488 0-2.976-.01-4.454.01-.353 0-.502-.093-.484-.47.028-.734.019-1.468 0-2.203-.009-.293.093-.404.4-.404 3.032.01 6.063.01 9.103 0 .316 0 .39.138.39.414-.008.716-.018 1.432 0 2.157.01.377-.11.505-.501.496-1.488-.01-2.976 0-4.454 0zm29.754 0c-1.487 0-2.966-.01-4.454.01-.39.008-.511-.12-.502-.497.028-.716.019-1.432 0-2.157-.009-.322.121-.423.437-.423 3.004.01 6.007.01 9.001 0 .344 0 .465.11.447.45a42.598 42.598 0 0 0 0 2.204c.009.33-.121.422-.438.422-1.487-.009-2.984-.009-4.491-.009zM12.67 32.318c1.47 0 2.939.01 4.408-.01.353 0 .502.084.483.46a33.382 33.382 0 0 0 0 2.158c.01.33-.093.459-.446.459-3.003-.01-6.007-.01-9.01 0-.307 0-.446-.083-.437-.413.019-.753.019-1.497 0-2.25-.01-.34.14-.413.446-.413 1.525.009 3.04.009 4.556.009zm65.87 3.058c-1.488 0-2.976-.01-4.454.009-.344 0-.502-.083-.493-.46.028-.716.019-1.432 0-2.157-.01-.33.084-.46.447-.46 3.003.01 6.006.01 9.01 0 .306 0 .446.084.446.414a45.35 45.35 0 0 0 0 2.25c.01.33-.14.413-.446.413-1.507-.01-3.004-.01-4.51-.01zm29.764-3.058c1.487 0 2.975.01 4.454-.009.372 0 .492.11.474.468a34.46 34.46 0 0 0 0 2.204c.009.303-.102.404-.409.404-3.022-.01-6.035-.01-9.057 0-.325 0-.437-.11-.428-.432a42.58 42.58 0 0 0 0-2.203c-.009-.34.112-.45.456-.45 1.506.027 3.003.018 4.51.018zm-95.726-3.195c-1.47 0-2.939-.01-4.408.01-.353 0-.502-.083-.483-.46.027-.734.018-1.469 0-2.203-.01-.294.093-.404.4-.404 3.03.009 6.062.009 9.093 0 .316 0 .4.128.39.413-.009.707-.027 1.405 0 2.112.02.413-.102.56-.539.55-1.487-.027-2.975-.018-4.453-.018zm.046-6.243c-1.488 0-2.966-.01-4.454.009-.39.009-.502-.129-.493-.505.028-.698.019-1.405 0-2.112-.01-.321.075-.459.437-.459 3.004.01 6.007.01 9.001 0 .353 0 .456.12.446.46a33.38 33.38 0 0 0 0 2.157c.019.376-.13.468-.483.459-1.479-.019-2.966-.01-4.454-.01zm84.289 15.718c-.353.983-.679 1.91-1.041 2.837-.037.11-.27.193-.419.202-1.32.019-2.631.019-3.951 0-.14 0-.372-.092-.41-.202-.362-.918-.697-1.854-1.05-2.837h6.871zm-4.574 6.244h2.324a884.85 884.85 0 0 1-1.078 2.993h-.14c-.362-.983-.734-1.965-1.106-2.993z"/></g><defs><clipPath id="clip0"><path fill="#fff" transform="translate(.955 .973)" d="M0 0h119v47H0z"/></clipPath></defs></svg>