<svg width="236" height="67" viewBox="0 0 236 67" fill="none" xmlns="http://www.w3.org/2000/svg">
<g clip-path="url(#clip0)">
<path d="M72.3354 55.9252C72.3354 52.7029 72.3354 49.4806 72.3354 46.2438C72.3354 45.431 72.4649 45.3004 73.2563 45.3004C74.3068 45.3004 75.3572 45.3004 76.4076 45.3004C77.0551 45.3004 77.2134 45.46 77.2134 46.1132C77.2134 48.392 77.2278 50.6853 77.199 52.9642C77.199 53.3706 77.2997 53.5157 77.717 53.5157C79.7172 53.5012 81.7317 53.5012 83.7318 53.5157C84.1491 53.5157 84.2642 53.3851 84.2642 52.9787C84.2498 50.7289 84.2498 48.4936 84.2498 46.2438C84.2498 45.4455 84.4081 45.3004 85.1851 45.3004C86.2212 45.3004 87.2572 45.3004 88.2788 45.3004C88.9839 45.3004 89.1278 45.431 89.1278 46.1277C89.1278 52.7029 89.1278 59.2636 89.1278 65.8387C89.1278 66.5935 89.0127 66.6951 88.2501 66.7096C87.214 66.7096 86.178 66.7096 85.1563 66.7096C84.3649 66.7096 84.2354 66.5645 84.2354 65.7516C84.2354 63.3132 84.221 60.8602 84.2498 58.4217C84.2498 57.9282 84.1203 57.7831 83.6167 57.7976C81.6741 57.8266 79.7172 57.8266 77.7746 57.7976C77.271 57.7831 77.1559 57.9572 77.1702 58.4362C77.199 60.9037 77.1846 63.3712 77.1846 65.8242C77.1846 66.579 77.0695 66.7096 76.3357 66.7096C75.2996 66.7096 74.2636 66.7096 73.2419 66.7096C72.4218 66.7096 72.3066 66.5935 72.3066 65.7807C72.3354 62.4858 72.3354 59.2055 72.3354 55.9252Z" fill="#2E3540"/>
<path d="M42.2764 55.9688C42.2764 54.2851 42.2764 52.6014 42.2764 50.9177C42.2764 50.3371 42.3339 49.7565 42.4634 49.1904C42.9958 46.8245 44.5931 45.4456 47.1975 45.1553C49.7157 44.8795 52.2338 45.0537 54.7376 45.4021C55.1692 45.4601 55.3419 45.6924 55.3419 46.1278C55.3275 46.9116 55.3275 47.6954 55.3419 48.4792C55.3563 49.0453 55.0829 49.2485 54.5361 49.2485C52.6511 49.234 50.7661 49.234 48.8811 49.2485C48.2336 49.2485 47.5429 49.3356 47.327 50.0903C46.9817 51.237 47.1544 52.4417 47.1544 53.6174C47.1544 53.9658 47.4853 53.8206 47.6724 53.8206C49.8164 53.8351 51.9604 53.8206 54.1044 53.8206C55.011 53.8206 55.1117 53.9222 55.1117 54.8076C55.1117 55.4898 55.1117 56.172 55.1117 56.8542C55.1117 57.5654 54.9534 57.7251 54.2195 57.7396C52.0755 57.7396 49.9315 57.7541 47.7875 57.7251C47.2695 57.7251 47.0824 57.8412 47.1256 58.3928C47.1831 59.3362 47.14 60.2797 47.1975 61.2086C47.2551 62.2827 47.7012 62.7036 48.7804 62.7182C50.651 62.7327 52.5216 62.7327 54.3778 62.7327C55.2268 62.7327 55.3419 62.8488 55.3419 63.7052C55.3419 64.4454 55.3419 65.1857 55.3419 65.9259C55.3419 66.3033 55.198 66.5355 54.8095 66.5791C52.0467 66.971 49.2696 67.2322 46.5068 66.6952C43.8448 66.1727 42.4634 64.4164 42.3195 61.6876C42.3051 61.5279 42.3051 61.3683 42.3051 61.2086C42.2764 59.4669 42.2764 57.7106 42.2764 55.9688Z" fill="#2E3540"/>
<path d="M58.2197 53.9367C58.2197 51.3675 58.2197 48.813 58.2197 46.2438C58.2197 45.4165 58.3492 45.3004 59.1406 45.3004C60.1479 45.3004 61.1695 45.3004 62.1768 45.3004C62.9394 45.3004 63.1121 45.46 63.1121 46.2584C63.1121 50.5837 63.1121 54.9091 63.1121 59.2345C63.1121 59.9167 63.0977 60.5989 63.1409 61.2811C63.1984 62.2536 63.6445 62.7036 64.6086 62.7181C66.2202 62.7471 67.8174 62.7326 69.429 62.7326C70.278 62.7326 70.4219 62.8777 70.4219 63.7486C70.4219 64.4744 70.4219 65.1856 70.4219 65.9113C70.4219 66.2597 70.2924 66.5064 69.9471 66.5645C67.1843 66.9854 64.4215 67.3192 61.6876 66.4919C59.5723 65.8533 58.3492 64.1695 58.2773 61.8036C58.2053 59.1765 58.2629 56.5638 58.2629 53.9367C58.2485 53.9367 58.2341 53.9367 58.2197 53.9367Z" fill="#2E3540"/>
<path d="M7.9429 21.3222C9.36745 20.3497 10.792 19.3772 12.2309 18.4192C15.9434 15.9227 19.6558 13.4407 23.3827 10.9587C23.5554 10.8425 23.7136 10.6684 23.9439 10.6393C23.9727 10.6684 24.0014 10.6974 24.0158 10.7264C24.1165 10.9296 24.1165 11.1474 24.1165 11.3651C24.1165 14.5873 24.1309 17.8096 24.1165 21.0319C24.1309 21.1335 24.1309 21.2496 24.0734 21.3367C24.0158 21.4093 23.9439 21.4818 23.8575 21.5399C21.4257 23.093 19.0515 24.7331 16.6485 26.3298C16.4326 26.4749 16.2312 26.6491 15.9866 26.7217C15.929 26.7362 15.8714 26.7362 15.8139 26.7362C15.5693 26.6926 15.3822 26.5475 15.1808 26.4169C12.9216 24.9073 10.6625 23.3833 8.41775 21.8592C8.2163 21.7286 7.92851 21.656 7.9429 21.3222Z" fill="#2E3540"/>
<path d="M15.8138 26.6493C15.8569 26.6493 15.9001 26.6493 15.9289 26.6493C16.2311 26.6783 16.4757 26.867 16.7203 27.0267C19.0226 28.5652 21.3105 30.1328 23.6272 31.6569C23.7135 31.7149 23.8143 31.773 23.8862 31.8601C23.9006 31.8891 23.915 31.9036 23.9294 31.9327C23.9294 35.4888 23.9294 39.0449 23.9294 42.5719C23.7423 42.6736 23.656 42.5574 23.5552 42.4849C18.3895 39.0304 13.2093 35.5613 8.04351 32.1068C7.97156 32.0633 7.92839 32.0052 7.85645 31.9617C7.94278 31.6859 8.20179 31.5843 8.41763 31.4537C10.6912 29.9877 12.9215 28.4491 15.1662 26.9396C15.3821 26.809 15.5691 26.6783 15.8138 26.6493Z" fill="#2E3540"/>
<path d="M23.9443 10.6539C23.9443 7.11227 23.9443 3.57067 23.9443 0.0290772C24.117 -0.0434965 24.2177 0.0871361 24.3185 0.15971C29.4267 3.57067 34.5349 6.99615 39.6431 10.4071C39.7439 10.4652 39.8302 10.5523 39.9165 10.6393C39.8878 10.8135 39.7439 10.9006 39.6144 10.9877C37.2401 12.5553 34.909 14.2245 32.5204 15.7921C32.3333 15.9082 32.1607 16.0243 31.9448 16.1114C31.8873 16.1259 31.8297 16.1114 31.7722 16.0969C31.0671 15.4873 30.2613 15.0083 29.4842 14.5003C27.7863 13.4117 26.1315 12.2505 24.448 11.1328C24.2465 10.9877 24.0595 10.8571 23.9443 10.6539Z" fill="#2E3540"/>
<path d="M31.858 16.0243C31.8868 16.0243 31.9156 16.0388 31.9444 16.0388C32.3185 16.0097 32.5775 16.271 32.8509 16.4452C35.182 17.9692 37.4699 19.5513 39.7866 21.0899C39.8585 21.1334 39.9017 21.1915 39.9305 21.2786C38.8801 21.9898 37.844 22.7155 36.7792 23.4268C32.6782 26.17 28.5917 28.9133 24.4763 31.6566C24.3036 31.7727 24.1597 31.9614 23.9151 31.9469H23.9295C23.7712 31.7727 23.7568 31.555 23.7568 31.3228C23.7568 28.2311 23.7568 25.1395 23.7568 22.0479C23.7568 21.8011 23.8 21.5689 23.9295 21.3657C23.9727 21.3366 24.0015 21.3076 24.0446 21.2786C24.0878 21.0028 24.318 20.8867 24.5051 20.7706C26.7642 19.2756 28.9802 17.708 31.2681 16.271C31.4551 16.1259 31.599 15.9226 31.858 16.0243Z" fill="#2E3540"/>
<path d="M93.0564 55.9834C93.0564 52.7175 93.0564 49.4517 93.0564 46.1859C93.0564 45.3586 93.1283 45.286 93.9341 45.286C94.9989 45.286 96.0782 45.3005 97.143 45.286C97.6898 45.2715 97.9344 45.5182 97.9344 46.0698C97.9344 52.674 97.9344 59.2782 97.9344 65.8969C97.9344 66.5646 97.7761 66.6952 97.1142 66.6952C96.0206 66.6952 94.927 66.6952 93.8334 66.6952C93.1427 66.6952 93.042 66.5936 93.042 65.8969C93.0564 62.5876 93.0564 59.2927 93.0564 55.9834Z" fill="#2E3540"/>
<path d="M39.9304 21.264C38.9088 20.814 38.0598 20.0883 37.1389 19.4787C35.3978 18.3465 33.6711 17.1854 31.9443 16.0387C33.0091 15.313 34.0596 14.5872 35.1244 13.8615C36.7216 12.7874 38.3188 11.7133 39.916 10.6247C41.8011 11.873 43.6861 13.1212 45.5855 14.3695C46.3625 14.8775 47.1251 15.4 47.9741 15.9661C45.2257 17.7659 42.5781 19.5077 39.9304 21.264Z" fill="#2E3540"/>
<path d="M15.814 26.6491C13.1952 28.4635 10.5475 30.2488 7.85672 31.9615C5.22346 30.2198 2.6046 28.478 0.000125258 26.7507C-0.0142641 26.5475 0.11524 26.5185 0.215966 26.4605C2.71972 24.7767 5.22346 23.1075 7.7416 21.4238C7.79916 21.3803 7.8855 21.3513 7.95744 21.3222C10.0151 22.7302 12.0728 24.1381 14.1449 25.5315C14.6917 25.9234 15.2529 26.2863 15.814 26.6491Z" fill="#2E3540"/>
<path d="M108.597 48.8856C108.597 50.2065 108.611 51.4983 108.597 52.7901C108.597 53.0804 108.755 53.5158 108.467 53.6174C108.007 53.7916 107.489 53.719 107 53.6465C106.813 53.6174 106.841 53.3997 106.841 53.24C106.841 50.8016 106.841 48.3486 106.841 45.9101C106.841 45.5182 107.028 45.3585 107.417 45.315C108.237 45.2279 108.813 45.4021 109.23 46.2585C109.82 47.5067 110.568 48.6679 111.259 49.8581C111.345 50.0178 111.388 50.2355 111.676 50.3226C111.676 48.9727 111.662 47.6664 111.676 46.3601C111.691 45.2134 111.475 45.3295 112.727 45.3295C112.77 45.3295 112.813 45.3295 112.842 45.3295C113.274 45.2714 113.446 45.4311 113.446 45.8956C113.432 48.2615 113.432 50.6274 113.446 52.9933C113.446 53.4868 113.259 53.6755 112.755 53.7335C111.878 53.8061 111.331 53.5594 110.928 52.7175C110.381 51.5708 109.676 50.4822 109.043 49.3791C108.928 49.2049 108.899 48.9727 108.597 48.8856Z" fill="#2E3540"/>
<path d="M111.662 63.3861C111.662 61.8766 111.677 60.4396 111.648 59.0027C111.633 58.5237 111.734 58.3205 112.266 58.3495C113.619 58.393 113.418 58.1898 113.432 59.5397C113.446 61.6443 113.432 63.749 113.432 65.8391C113.432 66.6519 113.36 66.6519 112.597 66.7245C111.763 66.8116 111.302 66.4777 110.928 65.7375C110.338 64.5763 109.662 63.4732 109 62.3556C108.914 62.1959 108.871 61.9782 108.583 61.8911C108.583 63.2845 108.554 64.6634 108.597 66.0278C108.612 66.5648 108.468 66.7245 107.935 66.6955C106.683 66.6374 106.827 66.8696 106.827 65.5778C106.827 63.4296 106.827 61.296 106.827 59.1478C106.827 58.393 106.899 58.3785 107.647 58.306C108.396 58.2334 108.842 58.5092 109.187 59.1913C109.82 60.4396 110.554 61.6298 111.245 62.8345C111.331 63.0232 111.389 63.2264 111.662 63.3861Z" fill="#2E3540"/>
<path d="M136.714 61.8764C136.714 63.3424 136.699 64.7358 136.728 66.1437C136.743 66.5937 136.599 66.7388 136.153 66.7243C134.757 66.6808 134.958 66.913 134.958 65.5196C134.944 63.4004 134.958 61.2813 134.958 59.1476C134.958 58.4364 135.045 58.4074 135.75 58.3348C136.527 58.2477 136.973 58.538 137.333 59.2492C138.052 60.6426 138.872 61.9925 139.649 63.3424C139.894 63.2698 139.793 63.0956 139.793 62.994C139.808 61.6296 139.808 60.2653 139.793 58.9154C139.793 58.509 139.879 58.3348 140.311 58.3493C141.793 58.3929 141.534 58.1606 141.549 59.5685C141.563 61.6732 141.549 63.7778 141.549 65.8679C141.549 66.6517 141.491 66.6517 140.743 66.7243C139.923 66.7969 139.433 66.5211 139.059 65.7663C138.484 64.6052 137.793 63.502 137.146 62.3844C137.045 62.2102 137.002 62.007 136.714 61.8764Z" fill="#2E3540"/>
<path d="M160.168 48.9292C160.168 50.2791 160.139 51.6435 160.182 52.9934C160.197 53.5594 160.024 53.7191 159.477 53.6901C158.24 53.632 158.413 53.8497 158.413 52.6015C158.398 50.4388 158.413 48.2761 158.413 46.1134C158.413 45.3731 158.484 45.3586 159.175 45.286C159.952 45.1989 160.398 45.5037 160.758 46.2005C161.477 47.5939 162.298 48.9292 163.089 50.3226C163.29 50.1485 163.204 49.9598 163.204 49.8001C163.219 48.4793 163.219 47.1584 163.204 45.8376C163.204 45.4602 163.319 45.3151 163.708 45.3005C164.974 45.2715 164.974 45.257 164.974 46.5488C164.974 48.668 164.96 50.7871 164.988 52.9208C164.988 53.4869 164.787 53.661 164.226 53.7046C163.377 53.7771 162.888 53.5014 162.485 52.7176C161.823 51.4112 161.046 50.163 160.312 48.8857C160.254 48.9147 160.211 48.9292 160.168 48.9292Z" fill="#2E3540"/>
<path d="M172.011 63.3132C172.011 61.8472 172.026 60.3958 171.997 58.9298C171.997 58.4798 172.126 58.3347 172.572 58.3347C174.04 58.3782 173.767 58.175 173.781 59.5249C173.795 61.6295 173.781 63.7342 173.781 65.8388C173.781 66.6661 173.738 66.6516 172.946 66.7242C172.141 66.7968 171.68 66.521 171.306 65.7952C170.63 64.4744 169.838 63.1971 169.076 61.8618C168.917 62.0795 168.975 62.2536 168.975 62.4133C168.975 63.6616 168.961 64.8953 168.975 66.1436C168.975 66.5355 168.889 66.7097 168.443 66.7242C167.205 66.7242 167.205 66.7532 167.205 65.505C167.205 63.3858 167.205 61.2521 167.205 59.133C167.205 58.4072 167.263 58.4072 167.982 58.3347C168.73 58.2621 169.176 58.5088 169.522 59.2055C170.256 60.6135 171.076 61.9779 171.867 63.3568C171.925 63.3423 171.968 63.3277 172.011 63.3132Z" fill="#2E3540"/>
<path d="M180.629 49.5244C180.629 50.7291 180.615 51.9338 180.644 53.124C180.658 53.5885 180.5 53.7046 180.054 53.6901C178.716 53.6756 178.716 53.7046 178.716 52.3693C178.716 51.7742 178.701 51.1645 178.716 50.5694C178.73 50.2791 178.629 50.1775 178.341 50.192C177.665 50.2066 176.989 50.2066 176.313 50.192C176.025 50.1775 175.938 50.2936 175.938 50.5694C175.953 51.4258 175.924 52.2967 175.953 53.1531C175.967 53.5304 175.867 53.6901 175.449 53.6901C173.722 53.6466 174.053 53.9514 174.039 52.2822C174.025 50.163 174.053 48.0293 174.025 45.9102C174.025 45.4167 174.183 45.3006 174.643 45.3006C175.953 45.3151 175.938 45.2861 175.953 46.5779C175.967 47.2165 175.679 48.0584 176.082 48.4213C176.428 48.7406 177.248 48.5083 177.867 48.5229C178.011 48.5229 178.14 48.5083 178.284 48.5229C178.615 48.5664 178.73 48.4358 178.716 48.0874C178.687 47.3326 178.716 46.5634 178.701 45.8086C178.701 45.4602 178.816 45.3151 179.176 45.3006C180.615 45.2425 180.615 45.228 180.615 46.694C180.629 47.6375 180.629 48.5809 180.629 49.5244Z" fill="#2E3540"/>
<path d="M149.491 51.4547C149.491 51.9192 149.448 52.3837 149.506 52.8336C149.578 53.4142 149.333 53.6174 148.801 53.661C148.096 53.719 147.376 53.8351 146.671 53.8061C145.175 53.7481 144.052 52.8627 143.75 51.3822C143.491 50.1049 143.491 48.784 143.764 47.5067C144.038 46.2439 144.988 45.4311 146.268 45.286C147.218 45.1698 148.168 45.2714 149.103 45.4311C149.42 45.4892 149.549 45.6343 149.52 45.9536C149.491 46.1714 149.506 46.3891 149.52 46.6068C149.535 46.8971 149.42 46.9987 149.146 46.9697C148.455 46.9261 147.765 46.8971 147.06 46.8971C146.168 46.8971 145.736 47.2309 145.606 48.0728C145.477 49.0163 145.448 49.9887 145.621 50.9467C145.793 51.9337 146.441 52.3256 147.405 52.1224C147.664 52.0643 147.65 51.9192 147.65 51.7305C147.65 51.0773 147.664 50.4097 147.65 49.7565C147.635 49.3936 147.779 49.263 148.139 49.263C149.837 49.292 149.463 49.0888 149.506 50.5403C149.491 50.8451 149.491 51.1499 149.491 51.4547Z" fill="#2E3540"/>
<path d="M124.367 63.1974C124.195 63.1974 124.008 63.1829 123.835 63.1974C123.518 63.2409 123 63.0232 122.914 63.328C122.77 63.807 122.784 64.3585 122.943 64.8666C123.029 65.1278 123.302 65.1569 123.547 65.1569C124.209 65.1569 124.856 65.1714 125.518 65.1569C125.921 65.1423 126.08 65.273 126.094 65.7084C126.094 66.6374 126.123 66.6519 125.202 66.7535C124.353 66.8551 123.504 66.8986 122.655 66.7244C121.633 66.5212 121.029 65.8826 121 64.823C120.957 63.299 120.957 61.7749 121 60.2654C121.029 59.1333 121.705 58.4511 122.885 58.3204C123.835 58.2188 124.785 58.2479 125.734 58.393C125.979 58.4366 126.065 58.5236 126.094 58.7704C126.223 59.7864 126.137 59.9025 125.101 59.9025C124.612 59.9025 124.108 59.9025 123.619 59.9025C123.101 59.9025 122.842 60.1493 122.885 60.6718C122.9 60.7879 122.9 60.9186 122.885 61.0347C122.799 61.5427 122.971 61.7459 123.518 61.7024C124.166 61.6443 124.828 61.7024 125.475 61.6878C125.849 61.6733 126.051 61.7894 126.008 62.1959C125.993 62.3991 125.993 62.6023 126.008 62.791C126.022 63.0958 125.893 63.2264 125.59 63.2119C125.159 63.1829 124.77 63.1974 124.367 63.1974Z" fill="#2E3540"/>
<path d="M232.978 58.3493C233.813 58.3493 234.648 58.3638 235.482 58.3493C235.871 58.3347 236.043 58.4799 236 58.8718C235.986 59.046 235.986 59.2347 236 59.4088C236.043 59.8443 235.842 59.9604 235.439 59.9459C234.964 59.9314 234.331 59.7862 234.058 60.033C233.727 60.3523 233.957 61.0055 233.942 61.5135C233.928 63.052 233.928 64.5906 233.942 66.1292C233.942 66.5646 233.813 66.7097 233.367 66.7097C232.029 66.7097 232.029 66.7243 232.029 65.3454C232.029 63.7052 232.014 62.065 232.043 60.4249C232.043 60.033 231.942 59.8733 231.554 59.9169C231.295 59.9459 231.036 59.9169 230.777 59.9169C229.971 59.9169 230.014 59.9169 229.957 59.0895C229.913 58.4799 230.1 58.2767 230.719 58.3202C231.467 58.3928 232.23 58.3493 232.978 58.3493Z" fill="#2E3540"/>
<path d="M116.353 63.3132C116.353 62.3553 116.339 61.3973 116.367 60.4393C116.382 60.0765 116.31 59.8733 115.892 59.9313C115.662 59.9603 115.418 59.9313 115.173 59.9313C114.31 59.9313 114.338 59.9313 114.295 59.0459C114.266 58.4944 114.425 58.3202 114.986 58.3347C116.569 58.3782 118.152 58.3637 119.749 58.3347C120.195 58.3347 120.368 58.4653 120.324 58.9153C120.296 59.1185 120.31 59.3217 120.324 59.5104C120.339 59.8152 120.195 59.9458 119.893 59.9313C119.849 59.9313 119.806 59.9313 119.778 59.9313C119.303 59.9458 118.684 59.7716 118.396 60.0184C118.065 60.3087 118.295 60.9619 118.295 61.4554C118.281 63.0084 118.281 64.576 118.295 66.1291C118.295 66.5791 118.166 66.7097 117.72 66.7097C116.367 66.7097 116.367 66.7242 116.367 65.3453C116.353 64.6776 116.353 63.9954 116.353 63.3132Z" fill="#2E3540"/>
<path d="M151.017 63.2551C151.017 62.2972 151.003 61.3392 151.017 60.3667C151.017 60.0474 150.959 59.8732 150.6 59.9313C150.427 59.9603 150.24 59.9458 150.067 59.9313C148.844 59.9022 148.988 60.207 148.974 58.7556C148.974 58.4217 149.118 58.3492 149.405 58.3492C151.118 58.3492 152.816 58.3637 154.528 58.3492C154.859 58.3492 154.974 58.4653 154.974 58.8136C154.945 60.178 155.089 59.9313 153.88 59.9458C152.931 59.9603 152.931 59.9458 152.931 60.9183C152.931 62.66 152.916 64.4018 152.945 66.1436C152.945 66.5935 152.816 66.7241 152.37 66.7241C151.031 66.7241 151.031 66.7387 151.031 65.3598C151.017 64.663 151.017 63.9518 151.017 63.2551Z" fill="#2E3540"/>
<path d="M182.27 61.7166C182.27 60.7586 182.285 59.8006 182.27 58.8426C182.27 58.4798 182.385 58.3491 182.745 58.3346C184.184 58.2766 184.184 58.2621 184.184 59.7135C184.184 61.2085 184.184 62.7181 184.184 64.2131C184.184 65.0259 184.314 65.142 185.119 65.142C185.494 65.142 185.868 65.142 186.256 65.142C187.048 65.142 187.048 65.142 187.048 65.9694C187.048 66.071 187.048 66.1726 187.048 66.2742C187.062 66.5064 186.976 66.6516 186.731 66.6806C185.896 66.7967 185.076 66.8693 184.242 66.7532C182.932 66.5645 182.328 65.8678 182.299 64.5324C182.242 63.6035 182.27 62.66 182.27 61.7166Z" fill="#2E3540"/>
<path d="M103.431 49.4955C103.431 48.2762 103.446 47.057 103.417 45.8378C103.403 45.4313 103.561 45.3152 103.935 45.3297C105.633 45.3733 105.316 45.112 105.331 46.6941C105.345 48.7988 105.316 50.9034 105.345 52.9935C105.345 53.516 105.244 53.7338 104.654 53.7192C103.417 53.6757 103.417 53.7047 103.417 52.4419C103.431 51.4549 103.431 50.4679 103.431 49.4955Z" fill="#2E3540"/>
<path d="M122.512 49.5097C122.512 48.305 122.526 47.1003 122.497 45.9101C122.483 45.4746 122.612 45.315 123.058 45.315C124.411 45.315 124.411 45.3005 124.411 46.6648C124.411 48.813 124.397 50.9467 124.425 53.0949C124.425 53.5739 124.296 53.719 123.821 53.7045C122.512 53.69 122.512 53.7045 122.512 52.3836C122.512 51.4257 122.512 50.4677 122.512 49.5097Z" fill="#2E3540"/>
<path d="M184.054 49.5097C184.054 50.7289 184.04 51.9482 184.054 53.1819C184.054 53.5593 183.968 53.7045 183.551 53.719C182.126 53.748 182.126 53.7625 182.126 52.311C182.126 50.1629 182.141 48.0292 182.112 45.881C182.112 45.4746 182.213 45.3149 182.644 45.3149C184.04 45.3004 184.04 45.2859 184.04 46.6938C184.054 47.6228 184.054 48.5662 184.054 49.5097Z" fill="#2E3540"/>
<path d="M199.796 62.5297C199.796 63.7489 199.782 64.9682 199.796 66.1874C199.796 66.5793 199.681 66.6954 199.293 66.7099C197.883 66.7245 197.883 66.739 197.883 65.302C197.883 63.1829 197.897 61.0637 197.868 58.9446C197.868 58.4656 198.012 58.335 198.473 58.335C199.782 58.3495 199.782 58.335 199.782 59.6558C199.796 60.6138 199.796 61.5717 199.796 62.5297Z" fill="#2E3540"/>
<path d="M103.431 62.5003C103.431 61.2811 103.445 60.0618 103.431 58.8426C103.431 58.4942 103.517 58.3346 103.891 58.3491C105.69 58.3926 105.33 58.1023 105.344 59.7715C105.373 61.8762 105.33 63.9663 105.359 66.0709C105.359 66.5644 105.229 66.7386 104.726 66.7241C103.431 66.695 103.431 66.7241 103.431 65.4468C103.431 64.4598 103.431 63.4728 103.431 62.5003Z" fill="#2E3540"/>
<path d="M157.794 62.5007C157.794 63.7199 157.779 64.9392 157.808 66.1584C157.808 66.5793 157.664 66.71 157.261 66.71C155.894 66.7245 155.894 66.739 155.894 65.3311C155.894 63.1974 155.909 61.0492 155.88 58.9156C155.88 58.4656 155.995 58.335 156.441 58.335C157.794 58.3495 157.794 58.3204 157.794 59.6848C157.794 60.6283 157.794 61.5717 157.794 62.5007Z" fill="#2E3540"/>
<path d="M39.5127 52.6884C39.1818 48.3049 36.4334 45.5762 32.131 45.1407C29.5985 44.8795 27.0947 45.1407 24.591 45.4455C23.742 45.5471 23.5693 45.7939 23.5693 46.6793C23.5693 49.7854 23.5693 52.8916 23.5693 55.9977C23.5693 59.1474 23.5693 62.2826 23.5693 65.4323C23.5693 66.1581 23.7708 66.4774 24.3751 66.55C27.1379 66.9128 29.9007 67.1741 32.6778 66.8112C36.4046 66.3032 38.966 63.7051 39.4264 59.9603C39.7286 57.5363 39.6854 55.0978 39.5127 52.6884ZM34.5772 59.4087C34.2175 61.7601 33.0807 62.7035 30.7065 62.7906C30.1165 62.8052 29.5121 62.7326 28.9222 62.7471C28.5049 62.7616 28.4473 62.5729 28.4473 62.21C28.4617 60.1054 28.4473 58.0008 28.4473 55.9107C28.4473 53.8641 28.4617 51.832 28.4329 49.7854C28.4329 49.379 28.5337 49.2194 28.951 49.2339C29.6704 49.2629 30.3755 49.2048 31.095 49.2484C32.9656 49.3355 34.1455 50.366 34.5196 52.2239C34.6348 52.7755 34.6779 53.327 34.6779 53.8931C34.6635 55.7365 34.865 57.5944 34.5772 59.4087Z" fill="#2E3540"/>
<path d="M132.181 53.2111C131.706 52.3547 131.26 51.4838 130.8 50.6274C130.67 50.3807 130.627 50.2501 130.929 50.0904C131.98 49.4808 132.152 48.4793 132.023 47.3907C131.879 46.3166 131.217 45.6779 130.195 45.4167C129.001 45.1264 127.792 45.257 126.584 45.3586C126.066 45.4021 125.907 45.6489 125.907 46.1279C125.922 47.2745 125.907 48.4067 125.907 49.5533C125.907 50.4823 125.893 51.3967 125.907 52.3111C125.936 53.9658 125.605 53.6465 127.346 53.7046C127.735 53.7191 127.821 53.5304 127.807 53.1965C127.792 52.5289 127.85 51.8757 127.792 51.208C127.735 50.5984 128.023 50.5694 128.483 50.6129C128.742 50.642 128.814 50.7871 128.915 50.9613C129.159 51.4403 129.418 51.9192 129.663 52.3982C130.382 53.7626 130.382 53.7481 131.908 53.7046C132.354 53.69 132.368 53.5449 132.181 53.2111ZM129.102 49.0453C129.087 49.0453 129.059 49.0453 129.044 49.0598C127.821 49.1905 127.821 49.1905 127.821 47.9858C127.821 46.781 127.951 46.6794 129.131 46.8826C129.879 47.0133 130.181 47.3471 130.152 48.0293C130.138 48.6825 129.864 48.9437 129.102 49.0453Z" fill="#2E3540"/>
<path d="M229.669 66.2453C229.209 65.3889 228.748 64.518 228.288 63.6617C228.158 63.4294 228.072 63.2843 228.403 63.0956C229.525 62.4424 229.655 61.3538 229.468 60.2217C229.28 59.1331 228.532 58.596 227.525 58.3783C226.46 58.1461 225.395 58.2186 224.331 58.3348C223.41 58.4364 223.41 58.4509 223.41 59.4088C223.41 60.4684 223.41 61.528 223.41 62.5876C223.41 63.4875 223.41 64.3874 223.41 65.2873C223.41 66.7823 223.41 66.7823 224.877 66.6952C225.223 66.6807 225.323 66.5501 225.309 66.2163C225.295 65.5631 225.309 64.8954 225.309 64.2277C225.309 63.5601 225.367 63.531 226.014 63.6181C226.23 63.6471 226.316 63.7778 226.388 63.9374C226.633 64.4164 226.892 64.8954 227.136 65.3744C227.856 66.7388 227.856 66.7388 229.367 66.6807C229.381 66.6807 229.41 66.6807 229.424 66.6807C229.827 66.7388 229.827 66.5646 229.669 66.2453ZM227.511 61.557C227.367 61.9489 226.877 62.1086 225.928 62.1086C225.439 62.2247 225.165 62.0215 225.28 61.3829C225.309 61.2087 225.251 61.02 225.295 60.8458C225.367 60.541 225.064 60.1346 225.453 59.9314C225.899 59.6991 227.093 59.9314 227.381 60.2507C227.712 60.6426 227.683 61.1071 227.511 61.557Z" fill="#2E3540"/>
<path d="M133.807 66.2598C133.332 65.3889 132.886 64.489 132.396 63.6181C132.267 63.3714 132.267 63.2698 132.526 63.1101C133.519 62.4425 133.878 61.4555 133.591 60.1782C133.346 59.1041 132.612 58.5815 131.591 58.3783C130.454 58.1606 129.303 58.2622 128.152 58.3783C127.677 58.4219 127.504 58.6541 127.518 59.1186C127.533 60.2798 127.518 61.4409 127.518 62.6021C127.518 63.5165 127.518 64.4455 127.518 65.3599C127.518 66.7969 127.518 66.7969 128.972 66.7243C129.303 66.7098 129.432 66.5937 129.418 66.2598C129.403 65.6067 129.461 64.939 129.403 64.2858C129.346 63.6617 129.634 63.6181 130.108 63.6617C130.339 63.6907 130.411 63.8068 130.497 63.9665C130.742 64.4455 131.001 64.9245 131.245 65.4035C131.965 66.7678 131.965 66.7678 133.476 66.7243C133.49 66.7243 133.519 66.7243 133.533 66.7243C133.936 66.7388 133.994 66.5792 133.807 66.2598ZM130.67 62.0796C129.461 62.2392 129.418 62.2247 129.418 60.991C129.418 59.8008 129.504 59.7282 130.684 59.9169C131.461 60.033 131.763 60.3378 131.749 61.02C131.749 61.7022 131.475 61.9635 130.67 62.0796Z" fill="#2E3540"/>
<path d="M207.567 66.2017C207.106 65.3599 206.675 64.518 206.214 63.6762C206.085 63.4439 206.013 63.2988 206.329 63.1101C207.466 62.4569 207.567 61.3683 207.38 60.2217C207.207 59.1476 206.444 58.596 205.423 58.3928C204.286 58.1606 203.135 58.2622 201.984 58.3783C201.494 58.4219 201.293 58.6251 201.307 59.1331C201.336 60.2942 201.322 61.4554 201.322 62.6166C201.322 63.531 201.322 64.46 201.322 65.3744C201.322 66.8114 201.322 66.8114 202.789 66.7243C203.12 66.7098 203.236 66.5791 203.236 66.2598C203.221 65.6066 203.236 64.939 203.236 64.2858C203.236 63.6181 203.293 63.5891 203.941 63.6762C204.171 63.7052 204.243 63.8358 204.315 63.9955C204.559 64.4745 204.804 64.9535 205.063 65.4325C205.782 66.7968 205.782 66.7823 207.293 66.7533C207.768 66.7097 207.768 66.5501 207.567 66.2017ZM204.473 62.0796C203.264 62.2537 203.221 62.2247 203.221 60.991C203.221 59.8007 203.307 59.7282 204.487 59.9169C205.264 60.033 205.552 60.3378 205.552 61.02C205.538 61.7022 205.279 61.9634 204.473 62.0796Z" fill="#2E3540"/>
<path d="M121.115 47.8551C120.856 46.3746 119.863 45.4457 118.381 45.286C117.489 45.1844 116.597 45.286 115.705 45.3295C115.115 45.3586 114.885 45.6053 114.914 46.2295C114.957 47.3036 114.928 48.3922 114.928 49.4808C114.928 50.6565 114.942 51.8467 114.928 53.0224C114.914 53.4578 115.101 53.6465 115.503 53.6755C116.309 53.7336 117.129 53.8497 117.935 53.8062C119.849 53.69 120.943 52.7321 121.158 50.8597C121.274 49.8581 121.288 48.8421 121.115 47.8551ZM119.187 51.1064C118.971 51.9483 117.691 52.5143 116.957 52.1224C116.77 52.0208 116.842 51.8467 116.842 51.7015C116.827 50.9758 116.842 50.2646 116.842 49.5388C116.842 48.7986 116.856 48.0583 116.827 47.3181C116.813 46.9407 116.942 46.8536 117.302 46.8391C118.727 46.7955 119.273 47.2745 119.302 48.7115C119.302 49.5243 119.389 50.3226 119.187 51.1064Z" fill="#2E3540"/>
<path d="M172.672 47.884C172.442 46.3455 171.406 45.4165 169.909 45.2714C168.96 45.1843 168.01 45.2423 167.06 45.3439C166.629 45.3875 166.485 45.5617 166.499 45.9971C166.513 47.1728 166.513 48.363 166.513 49.5387C166.513 50.6854 166.513 51.8175 166.513 52.9642C166.513 52.9787 166.513 53.0077 166.513 53.0222C166.456 53.4141 166.643 53.6173 167.031 53.6609C167.88 53.7335 168.729 53.8496 169.593 53.7915C171.363 53.6609 172.456 52.761 172.701 51.1208C172.83 50.0467 172.83 48.9581 172.672 47.884ZM170.801 50.7579C170.715 51.832 169.535 52.5287 168.557 52.1368C168.341 52.0497 168.413 51.8756 168.413 51.7304C168.398 50.9902 168.413 50.2499 168.413 49.5097C168.413 48.7694 168.427 48.0292 168.413 47.2889C168.398 46.9406 168.528 46.8535 168.859 46.839C170.283 46.7809 170.816 47.2599 170.845 48.7114C170.845 49.3936 170.845 50.0903 170.801 50.7579Z" fill="#2E3540"/>
<path d="M222.287 62.6457C222.287 61.9781 222.287 61.3975 222.186 60.8169C221.898 59.1622 220.762 58.2478 218.977 58.2478C217.208 58.2478 216.013 59.1767 215.769 60.8169C215.596 61.949 215.596 63.0957 215.769 64.2278C216.013 65.8245 217.179 66.7824 218.862 66.7969C220.661 66.826 221.855 65.9406 222.172 64.344C222.301 63.7634 222.316 63.1538 222.287 62.6457ZM220.287 64.0101C220.157 64.7794 219.711 65.1278 218.977 65.1278C218.258 65.1278 217.798 64.7504 217.682 63.9811C217.61 63.5021 217.625 63.0231 217.596 62.5586C217.625 62.0651 217.61 61.5862 217.682 61.1072C217.783 60.3234 218.215 59.9605 218.949 59.946C219.74 59.9315 220.172 60.2798 220.287 61.0781C220.445 62.0506 220.445 63.0376 220.287 64.0101Z" fill="#2E3540"/>
<path d="M165.68 60.8604C165.421 59.2493 164.298 58.2913 162.615 58.2623C160.773 58.2188 159.55 59.0896 159.262 60.7298C159.046 61.92 159.061 63.1247 159.262 64.3149C159.521 65.81 160.643 66.7389 162.183 66.8115C164.01 66.8841 165.162 66.1293 165.593 64.5617C165.78 63.894 165.795 63.2118 165.78 62.4861C165.795 61.9636 165.766 61.412 165.68 60.8604ZM163.766 63.9811C163.651 64.7649 163.176 65.1423 162.413 65.1133C161.694 65.0987 161.277 64.7068 161.147 63.9376C161.118 63.7924 161.104 63.6618 161.104 63.5166C161.104 63.1828 161.104 62.8344 161.104 62.5006C161.089 62.5006 161.075 62.5006 161.061 62.5006C161.089 62.0216 161.089 61.5426 161.161 61.0636C161.276 60.2944 161.708 59.9315 162.456 59.9315C163.205 59.9315 163.651 60.2798 163.766 61.0346C163.91 62.0216 163.91 63.0086 163.766 63.9811Z" fill="#2E3540"/>
<path d="M139.821 53.0225C139.303 50.8598 138.8 48.7116 138.267 46.5489C138.037 45.591 137.519 45.2426 136.426 45.2281C135.303 45.2281 134.785 45.591 134.541 46.578C134.037 48.6536 133.533 50.7292 133.044 52.8193C132.828 53.7627 132.67 53.7047 133.749 53.7047C135.044 53.7047 134.756 53.8353 134.987 52.8483C135.274 51.6581 135.26 51.6581 136.469 51.6581C137.548 51.6581 137.534 51.6581 137.778 52.7032C138.052 53.8498 137.778 53.6902 138.958 53.7047C139.059 53.7047 139.16 53.7047 139.26 53.7047C139.98 53.6902 139.98 53.6902 139.821 53.0225ZM136.656 50.105C136.584 50.0905 136.498 50.105 136.411 50.105C135.591 50.105 135.591 50.105 135.764 49.2922C135.922 48.5665 136.08 47.8553 136.239 47.1295C136.267 47.0134 136.282 46.8683 136.426 46.8683C136.569 46.8683 136.584 47.0279 136.598 47.144C136.771 47.9423 136.915 48.7552 137.131 49.539C137.275 50.0179 137.131 50.1631 136.656 50.105Z" fill="#2E3540"/>
<path d="M157.362 53.153C156.815 51.0049 156.326 48.8422 155.808 46.6795C155.477 45.3151 153.793 44.7055 152.642 45.5328C152.354 45.736 152.182 46.0263 152.095 46.3601C152.023 46.6069 151.966 46.8682 151.908 47.1149C151.433 49.1179 150.959 51.121 150.484 53.124C150.441 53.2982 150.297 53.6175 150.541 53.6465C151.088 53.7191 151.664 53.7481 152.196 53.632C152.527 53.5594 152.441 53.0805 152.513 52.7902C152.8 51.6435 152.786 51.6435 153.908 51.6435C155.045 51.6435 155.045 51.6435 155.247 52.4999C155.52 53.7191 155.52 53.7191 156.93 53.7046C157.362 53.7046 157.491 53.6175 157.362 53.153ZM154.412 50.1049C154.254 50.0904 154.095 50.1049 153.937 50.1049C153.088 50.1049 153.088 50.1049 153.275 49.2776C153.434 48.5664 153.592 47.8406 153.75 47.1294C153.779 47.0133 153.779 46.8536 153.923 46.8681C154.052 46.8827 154.081 47.0278 154.11 47.1439C154.297 48.0148 154.484 48.8857 154.685 49.7566C154.743 50.0033 154.7 50.134 154.412 50.1049Z" fill="#2E3540"/>
<path d="M181.436 66.0277C180.932 63.894 180.429 61.7458 179.911 59.6122C179.666 58.5961 179.177 58.2478 178.054 58.2478C176.932 58.2478 176.428 58.5961 176.184 59.5976C175.723 61.4846 175.292 63.3715 174.831 65.2439C174.471 66.7534 174.457 66.7389 176.011 66.7099C176.342 66.6953 176.515 66.6083 176.572 66.2599C176.63 65.839 176.731 65.4326 176.831 65.0261C176.874 64.8665 176.86 64.6488 177.119 64.6488C177.795 64.6633 178.529 64.5036 179.119 64.7359C179.493 64.881 179.378 65.6793 179.537 66.1728C179.537 66.1873 179.537 66.2164 179.551 66.2309C179.58 66.5647 179.738 66.7389 180.098 66.6953C180.27 66.6808 180.457 66.6953 180.63 66.6953C180.731 66.6953 180.832 66.6953 180.932 66.6953C181.594 66.7099 181.594 66.6953 181.436 66.0277ZM178.342 63.0957C177.982 63.0231 177.277 63.3279 177.306 62.8925C177.364 61.8619 177.709 60.8604 177.925 59.8299C177.997 59.8444 178.069 59.8444 178.141 59.8589C178.357 60.8604 178.601 61.8619 178.788 62.8635C178.86 63.2408 178.486 63.1247 178.342 63.0957Z" fill="#2E3540"/>
<path d="M196.904 66.2597C196.343 63.9519 195.811 61.6295 195.235 59.3362C195.048 58.5814 194.472 58.2621 193.523 58.2476C192.458 58.2331 191.868 58.5089 191.666 59.2927C191.062 61.6295 190.53 63.9809 189.954 66.3323C189.925 66.4775 189.868 66.6516 190.069 66.6661C190.616 66.6807 191.192 66.7532 191.724 66.6371C192.055 66.5645 191.969 66.0565 192.04 65.7372C192.285 64.6486 192.285 64.6486 193.436 64.6486C194.559 64.6486 194.544 64.6486 194.818 65.7517C195.077 66.8403 194.818 66.6952 195.983 66.7097C196.185 66.7097 196.386 66.6952 196.573 66.7097C196.918 66.7387 196.976 66.55 196.904 66.2597ZM193.854 63.0955C193.451 62.9939 192.688 63.3713 192.702 62.8923C192.746 61.8618 193.105 60.8603 193.336 59.8442C193.407 59.8587 193.479 59.8587 193.551 59.8733C193.767 60.8603 193.983 61.8473 194.199 62.8343C194.285 63.1826 194.012 63.1391 193.854 63.0955Z" fill="#2E3540"/>
<path d="M149.218 66.0564C148.685 63.9082 148.181 61.7455 147.663 59.5974C147.433 58.6394 146.915 58.262 145.836 58.262C144.685 58.2475 144.181 58.5958 143.922 59.5683C143.836 59.9022 143.764 60.2215 143.692 60.5553C143.246 62.4132 142.8 64.2856 142.354 66.1435C142.311 66.3177 142.167 66.637 142.411 66.666C142.958 66.7386 143.534 66.7676 144.066 66.6515C144.383 66.5935 144.311 66.1145 144.383 65.8097C144.656 64.6485 144.656 64.6485 145.836 64.6485C146.944 64.6485 146.944 64.6485 147.174 65.7226C147.419 66.8547 147.203 66.6805 148.311 66.6951C148.426 66.6951 148.556 66.6805 148.671 66.6951C149.218 66.7822 149.361 66.608 149.218 66.0564ZM146.282 63.1099C144.915 63.2115 144.915 63.2115 145.217 61.9052C145.376 61.2375 145.534 60.5844 145.692 59.9312C145.692 59.9022 145.75 59.8876 145.807 59.8441C146.009 60.0038 145.994 60.265 146.038 60.4828C146.21 61.2375 146.354 62.0068 146.556 62.7616C146.613 63.0519 146.541 63.0954 146.282 63.1099Z" fill="#2E3540"/>
<path d="M212.66 58.3784C211.581 58.1461 210.488 58.2622 209.408 58.3493C208.775 58.3929 208.603 58.6832 208.617 59.2783C208.646 60.3959 208.631 61.5135 208.631 62.6457C208.631 63.5456 208.617 64.4455 208.631 65.3454C208.66 66.9711 208.3 66.6808 210.07 66.7243C210.401 66.7388 210.531 66.6082 210.516 66.2744C210.502 65.6357 210.545 64.9971 210.502 64.3584C210.459 63.8504 210.66 63.7488 211.106 63.7924C211.596 63.8504 212.099 63.7778 212.588 63.6907C213.984 63.415 214.761 62.457 214.776 61.0346C214.776 59.5976 214.071 58.6832 212.66 58.3784ZM212.862 61.2523C212.79 61.7167 212.531 62.007 212.07 62.1086C212.027 62.1232 211.999 62.1232 211.955 62.1232C210.675 62.3844 210.531 62.2683 210.531 60.991C210.531 60.9475 210.531 60.9039 210.531 60.8749C210.531 59.7427 210.531 59.7427 211.668 59.8153C212.56 59.9024 212.991 60.4249 212.862 61.2523Z" fill="#2E3540"/>
</g>
<defs>
<clipPath id="clip0">
<rect width="236" height="67" fill="white"/>
</clipPath>
</defs>
</svg>
