<svg width="159" height="63" viewBox="0 0 159 63" fill="none" xmlns="http://www.w3.org/2000/svg">
<g clip-path="url(#clip0)">
<path d="M77.1547 24.6645C78.287 24.0068 79.3788 23.2081 80.6728 22.9732C83.099 22.5504 84.7974 24.1007 84.4739 26.9195C84.0291 31.0068 83.2203 35.094 81.4007 38.7115C79.581 42.3759 76.993 42.8457 73.0301 40.3088C72.3022 43.1746 71.6148 45.9464 70.8869 48.7652C70.5634 49.9866 67.6924 50.9262 66.8836 50.0806C66.4388 49.6108 66.7623 49.047 66.8432 48.5772C68.7842 40.6376 70.7252 32.698 72.7066 24.7584C73.1514 23.0202 75.3755 22.6443 76.6695 24.1007C76.629 24.3826 76.4269 24.7584 76.5482 24.8994C76.8312 25.2282 76.9525 24.7584 77.1547 24.6645ZM80.1471 28.9866C80.2684 27.0135 79.9853 25.9799 78.57 26.2148C77.3569 26.4497 76.2651 26.9195 75.9012 28.5638C75.3755 30.9128 74.7689 33.2148 74.2028 35.5168C73.9197 36.6913 73.3536 37.9598 74.8498 38.6175C76.2247 39.2282 77.276 38.6645 77.8826 37.2551C79.1362 34.4833 79.6214 31.3826 80.1471 28.9866Z" fill="#2E353F"/>
<path d="M122.04 36.0808C120.544 41.2016 114.923 43.7385 111.082 41.2485C109.424 40.168 108.939 38.4298 109.302 36.4566C109.869 33.7318 110.435 30.96 111.324 28.3761C112.821 24.0069 117.956 21.7049 121.717 23.5371C123.456 24.3828 124.305 25.9801 124.062 28.2351C123.456 33.4499 123.294 33.6378 118.805 33.6378C117.875 33.6378 116.905 33.6378 115.975 33.6378C114.034 33.6378 113.225 34.6244 113.346 36.8794C113.387 37.6781 113.67 38.2418 114.317 38.4767C115.328 38.8056 116.622 38.8996 117.147 37.866C118.36 35.2821 120.221 36.1277 122.04 36.0808ZM114.923 30.0204C116.136 30.0204 117.228 29.9264 118.28 30.0204C119.412 30.1143 119.897 29.5506 119.938 28.3291C119.978 27.0136 119.331 26.4969 118.32 26.4499C116.419 26.3559 115.368 27.4834 114.923 30.0204Z" fill="#2E353F"/>
<path d="M146.302 36.0336C145.13 41.7651 138.7 43.1745 135.506 41.2953C133.646 40.2148 133.16 38.3356 133.605 36.1745C134.09 33.7316 134.656 31.3356 135.384 28.9866C136.84 24.2416 141.773 21.7047 145.817 23.443C147.677 24.2416 148.607 26.1678 148.284 28.4698C147.516 33.5906 147.516 33.5906 143.027 33.5906C142.016 33.5906 141.005 33.6376 139.994 33.5906C138.902 33.5436 138.013 33.5906 137.851 35.2819C137.73 36.3624 137.164 37.5369 138.215 38.2416C139.266 38.9463 140.763 38.9463 141.369 37.8188C142.623 35.3759 144.442 36.1745 146.302 36.0336ZM141.49 30.0201C142.704 29.8792 144.2 30.5839 144.24 28.3289C144.281 26.8725 143.431 26.4967 142.38 26.4967C140.843 26.4497 139.226 27.8121 139.388 29.2685C139.59 30.8658 140.924 29.5034 141.49 30.0201Z" fill="#2E353F"/>
<path d="M134.778 17.8993C132.554 26.7315 130.492 35.3758 128.227 43.9262C126.812 49.3758 122.728 51.8658 117.915 50.5503C115.57 49.8926 114.357 47.3557 115.287 44.7718C115.934 42.9396 117.39 44.2081 118.441 43.8792C119.371 43.6443 119.371 44.349 119.209 45.1476C119.048 46.0403 119.412 46.698 120.18 46.8859C121.434 47.2148 122.647 47.0738 123.496 45.8054C123.9 45.1946 124.062 44.396 124.224 43.6443C126.084 36.2215 127.984 28.7987 129.804 21.3758C130.815 17.4295 130.815 17.4295 134.778 17.8993Z" fill="#2E353F"/>
<path d="M102.994 22.9261C107.24 22.9261 108.939 24.8053 108.575 28.2818C108.372 30.067 107.402 29.7851 106.553 29.5972C105.825 29.4563 104.288 30.7247 104.49 28.3288C104.571 27.3892 104.005 26.8724 103.277 26.7784C102.024 26.5435 100.568 26.7315 100.123 28.1409C99.1932 30.8657 98.5866 33.7784 97.9396 36.6442C97.7374 37.5838 98.3844 38.1006 99.0718 38.2415C100.325 38.5704 101.822 38.3825 102.226 36.9731C102.913 34.6241 104.369 35.1409 105.744 35.0469C106.634 34.9999 106.957 35.2818 106.634 36.4093C105.299 41.1073 98.9101 43.8321 95.3112 41.1543C94.098 40.2617 93.6128 38.8992 93.815 37.3489C94.2598 33.7784 94.9877 30.2549 96.4434 27.1073C97.98 23.9127 100.649 23.02 102.994 22.9261Z" fill="#2E353F"/>
<path d="M64.9021 22.8323C66.1556 22.7853 67.8136 23.443 68.7841 25.5571C69.0267 26.1209 69.7546 27.2014 68.7841 27.4833C67.7327 27.8122 66.6004 29.5974 65.4682 27.8122C64.8616 26.8726 64.2955 26.0739 63.2037 26.2618C62.4354 26.4028 61.7884 26.7786 61.5053 27.7182C61.1818 28.7988 61.7884 29.3155 62.4354 29.7853C63.4867 30.49 64.5786 31.1008 65.5895 31.8524C67.3687 33.2149 67.7731 34.8592 66.9644 37.1142C65.5491 41.0605 60.4539 43.2686 57.1785 41.2484C56.7337 40.9665 56.2889 40.5437 55.9654 40.0739C55.3184 39.1813 54.5096 37.8189 54.9544 36.9263C55.4801 35.7988 56.9763 36.1276 58.0681 35.7518C58.6343 35.5639 58.5938 36.2216 58.7556 36.6444C59.443 38.3826 60.8179 38.8994 62.2332 38.1008C63.4867 37.3961 63.6889 35.9397 62.5567 34.9531C61.7075 34.2014 60.6966 33.7316 59.7261 33.1209C57.0572 31.3826 56.5315 28.4699 58.5129 25.6981C59.9283 23.631 61.9501 22.8323 64.9021 22.8323Z" fill="#2E353F"/>
<path d="M155.684 38.6175C154.956 42.2349 154.188 42.7987 151.155 41.9531C149.255 41.4363 148.689 40.4497 149.174 38.2416C149.78 35.5168 150.427 32.839 151.155 30.1611C151.6 28.5638 152.045 27.1074 149.7 27.4833C150.144 25.792 149.942 23.8188 152.247 23.9598C153.096 24.0067 152.975 22.4564 153.218 21.6108C154.309 17.3826 154.269 17.3826 158.191 17.8524C157.828 19.4497 157.423 21 157.1 22.5504C156.938 23.349 156.736 24.1007 157.868 24.1477C158.353 24.1477 159.364 23.8188 159.041 24.9933C158.798 25.9329 159.122 27.7182 157.585 27.4833C155.887 27.2484 155.603 28.3759 155.32 29.8322C154.956 31.5705 154.471 33.2618 154.067 35C153.258 37.9128 153.258 37.9128 155.684 38.6175Z" fill="#2E353F"/>
<path d="M10.6352 33.2149C7.07675 33.2149 5.37837 30.8659 6.14669 27.7652C7.27893 23.0672 13.3445 19.3558 16.8222 21.282C19.1675 22.5974 19.8145 24.4296 18.6014 27.1545C16.7817 31.1478 13.6276 32.6041 10.6352 33.2149Z" fill="#2E353F"/>
<path d="M3.76061 52.5233C2.42617 52.4763 1.09174 52.2884 0.404302 50.832C-0.323572 49.2817 0.0808021 47.7314 0.889551 46.4629C3.03273 43.0334 5.90379 41.1072 9.62404 41.2012C12.6164 41.2481 13.8295 43.7851 12.2525 46.7918C10.3519 50.5032 7.3191 52.1005 3.76061 52.5233Z" fill="#2E353F"/>
<path d="M93.1276 23.443C91.7123 29.2215 90.4183 34.953 88.9221 40.6376C88.3155 42.8926 86.4554 41.6711 85.2423 41.6242C84.1101 41.5772 84.9997 40.2617 85.121 39.651C86.1319 35.1879 87.3855 30.8188 88.2751 26.3557C88.7604 23.9597 89.65 22.8792 91.7932 23.349C92.1975 23.396 92.6019 23.396 93.1276 23.443Z" fill="#2E353F"/>
<path d="M22.7258 13.1077C19.046 13.8124 16.7006 10.7587 17.8329 6.76545C19.0056 2.77216 22.6045 -0.0936073 26.3652 0.000352429C26.4056 1.08089 26.1226 2.11445 25.7991 3.148C24.8286 6.48357 23.1706 9.53726 22.7258 13.1077Z" fill="#2E353F"/>
<path d="M30.6517 17.8522C28.2659 17.8522 27.0527 15.9261 27.9019 13.3422C28.9129 10.3355 30.8539 8.55022 33.6036 8.17438C36.0299 7.84552 37.4047 9.91263 36.7173 12.5905C36.0299 15.3153 33.1184 17.8522 30.6517 17.8522Z" fill="#2E353F"/>
<path d="M18.844 30.255C19.1675 26.7785 23.6156 23.349 26.4867 24.3355C27.9424 24.8523 28.5086 26.0738 28.1446 27.812C27.5381 30.9127 23.8583 33.8255 21.1894 33.4026C19.5719 33.1677 18.6823 31.9463 18.844 30.255Z" fill="#2E353F"/>
<path d="M16.9837 48.6713C14.5171 48.7183 13.4657 46.8861 14.5171 44.631C15.8515 41.7183 18.116 40.2149 20.8657 39.98C22.928 39.7921 23.9794 41.7183 23.0089 43.8793C21.7149 46.7921 19.4504 48.2015 16.9837 48.6713Z" fill="#2E353F"/>
<path d="M22.7256 13.1074C23.1704 9.53691 24.7879 6.48322 25.7988 3.14765C26.1223 2.11409 26.4054 1.12752 26.365 0C30.2065 0.939597 31.4196 3.89933 29.5999 7.79866C28.1442 10.9463 25.718 12.5436 22.7256 13.1074Z" fill="#2E353F"/>
<path d="M41.0034 14.8927C42.0143 14.8927 42.8635 15.5034 42.9039 17.0538C42.9444 19.2618 40.3968 22.0336 38.294 22.0806C37.0405 22.1276 36.1913 21.5169 36.1509 19.9665C36.1104 17.7585 38.6984 14.9867 41.0034 14.8927Z" fill="#2E353F"/>
<path d="M31.703 33.8724C30.2068 33.8254 29.5194 32.7449 29.9642 31.0536C30.4899 29.0335 32.6735 27.1073 34.4932 27.0133C36.1916 26.9194 36.9599 28.1409 36.3937 30.0201C35.7872 31.9932 33.4418 33.9194 31.703 33.8724Z" fill="#2E353F"/>
<path d="M28.0637 45.3356C26.6888 45.2886 26.0014 44.1611 26.4462 42.6578C27.0123 40.6846 29.6003 38.6645 31.3391 38.8054C32.7544 38.8994 33.2397 39.745 32.8353 41.2953C32.3905 43.2215 29.8025 45.3826 28.0637 45.3356Z" fill="#2E353F"/>
<path d="M43.4702 25.1813C42.7423 25.1343 42.1357 24.7115 42.1357 23.49C42.1762 21.8457 44.2789 19.6377 45.7347 19.6847C46.5839 19.7316 47.1095 20.2014 47.15 21.235C47.2309 22.8323 45.1686 25.1343 43.4702 25.1813Z" fill="#2E353F"/>
<path d="M38.9818 34.2012C38.0922 34.2012 37.6069 33.7314 37.6069 32.6509C37.6474 31.0066 39.7906 28.8455 41.2867 28.9864C42.2168 29.0334 42.6212 29.5972 42.5403 30.6777C42.4594 32.2281 40.4376 34.2482 38.9818 34.2012Z" fill="#2E353F"/>
<path d="M36.3128 42.9396C35.6658 42.8927 35.1401 42.5638 35.1401 41.5302C35.1401 39.9799 37.2833 37.8188 38.8199 37.8658C39.5882 37.9128 40.1139 38.1947 40.1139 39.2282C40.1139 40.7316 37.8899 42.9866 36.3128 42.9396Z" fill="#2E353F"/>
<path d="M142.138 59.3825C143.068 58.9127 142.542 57.2215 143.917 57.1745C143.432 59.2886 142.825 61.2148 141.774 63C141.895 61.4966 141.612 60.1342 141.005 58.8658C140.803 58.4899 140.965 57.5973 140.197 57.8792C139.711 58.0671 139.226 58.349 139.105 59.1007C138.983 59.8054 139.388 60.698 138.539 61.3087C138.134 59.8523 137.77 58.255 138.66 57.3154C139.671 56.2819 141.41 57.4564 142.138 59.3825Z" fill="#2E353F"/>
<path d="M96.4027 60.9327C96.4027 59.5703 96.4027 58.2548 96.4027 56.8924C96.4027 56.4696 96.4836 55.8589 95.9174 55.8119C95.5535 55.7649 95.0683 55.6709 94.8256 56.1877C94.583 56.7515 94.8256 57.0333 95.3109 57.1273C95.4322 57.1743 95.4726 57.3152 95.5939 57.4562C93.8147 58.0199 95.1896 60.087 93.9764 61.6844C94.0573 59.2884 92.9251 57.4562 94.1382 55.6709C94.7852 54.7313 95.9579 54.9193 96.524 55.577C97.8584 57.1743 96.9284 59.1005 97.0901 60.8857C96.8475 60.9327 96.6049 60.9327 96.4027 60.9327Z" fill="#2E353F"/>
<path d="M92.7637 17.8524C93.0063 18.1343 94.2195 16.8189 94.3408 18.4632C94.5025 20.5773 93.5725 21.6108 91.591 21.4699C91.0249 21.4229 89.7309 22.3625 89.8522 20.6242C89.9735 18.933 90.2162 17.0068 92.7637 17.8524Z" fill="#2E353F"/>
<path d="M111.567 59.8054C111.567 60.3692 111.607 60.8859 111.567 61.4497C111.526 61.8255 111.446 62.2483 111.041 62.3423C110.313 62.5302 110.596 61.9665 110.556 61.5437C110.516 61.1208 110.192 61.2618 109.909 61.2618C108.332 61.2618 108.251 59.9933 108.372 58.6309C108.494 57.1745 109.302 57.1275 110.394 57.0806C112.052 57.0336 111.486 58.349 111.607 59.2886C111.607 59.4765 111.567 59.6175 111.567 59.8054ZM110.718 59.1947C110.637 58.5839 110.637 57.8792 109.99 57.7853C109.383 57.6913 109.302 58.349 109.262 58.9128C109.262 59.4765 109.1 60.2752 109.828 60.4161C110.516 60.5571 110.556 59.7584 110.718 59.1947Z" fill="#2E353F"/>
<path d="M104.45 61.4496C104.328 59.8523 103.884 58.3959 104.652 57.3154C104.854 57.0335 106.269 56.6107 106.876 57.2684C107.846 58.3489 107.361 59.8053 107.24 61.3556C106.714 60.3691 106.714 60.3691 106.552 59.2885C106.472 58.7717 106.633 58.0671 105.946 58.114C105.38 58.161 105.258 58.7248 105.178 59.2885C105.056 59.8993 105.339 60.6509 104.45 61.4496Z" fill="#2E353F"/>
<path d="M47.5948 27.4363C46.7861 27.3423 46.3817 26.8725 46.5434 26.0269C46.9074 24.4295 47.797 23.443 49.2528 23.302C50.0211 23.2081 50.385 23.8188 50.2232 24.6644C49.8997 26.2618 48.8888 27.0604 47.5948 27.4363Z" fill="#2E353F"/>
<path d="M45.8963 30.3961C46.7454 30.4431 47.1498 30.9599 46.9476 31.7585C46.5837 33.3558 45.5728 34.2485 44.2383 34.4364C43.5104 34.5773 43.1061 33.9196 43.2678 33.074C43.6318 31.5236 44.6831 30.772 45.8963 30.3961Z" fill="#2E353F"/>
<path d="M42.6615 41.1545C41.9336 41.1075 41.5696 40.6847 41.691 39.933C42.0145 38.2887 43.0254 37.49 44.3598 37.2082C45.0877 37.0672 45.573 37.631 45.3303 38.4766C44.926 40.027 43.915 40.8256 42.6615 41.1545Z" fill="#2E353F"/>
<path d="M121.312 59.1007C121.191 60.5101 120.665 61.4027 119.412 61.3557C118.28 61.3087 117.754 60.4631 117.754 59.1946C117.754 57.7852 118.36 57.0335 119.614 57.0335C120.787 57.0335 121.151 58.0201 121.312 59.1007ZM120.342 59.0067C120.14 58.5839 120.301 57.7382 119.533 57.7382C118.724 57.7852 118.644 58.5369 118.644 59.2886C118.644 59.9463 118.886 60.557 119.574 60.5101C120.301 60.4631 120.221 59.7114 120.342 59.0067Z" fill="#2E353F"/>
<path d="M151.802 61.5907C150.508 60.3222 151.681 58.2551 150.508 58.2081C148.972 58.1142 150.104 60.3222 149.174 61.3088C148.527 59.9934 148.567 58.584 149.012 57.4565C149.174 57.0806 150.751 56.6578 151.357 57.3155C152.368 58.3961 151.721 59.8524 151.802 61.5907Z" fill="#2E353F"/>
<path d="M99.274 62.953C99.5975 60.8389 98.5057 59.1477 97.98 57.1275C99.4357 57.2685 99.0313 58.9597 99.7592 59.3826C100.528 58.9128 100.042 57.2685 101.417 57.1275C100.932 59.2416 100.406 61.2148 99.274 62.953Z" fill="#2E353F"/>
<path d="M145.696 61.3556C144.119 60.1341 144.119 58.9596 144.726 57.8321C145.292 56.7046 146.343 56.7046 147.192 57.3623C148.082 58.067 148.041 59.1945 147.718 60.275C147.516 60.8388 147.111 61.2147 146.626 60.8858C145.898 60.369 146.909 60.416 146.909 60.0401C146.95 59.2415 147.111 58.4898 146.545 57.8791C146.424 57.7381 146.02 57.7381 145.817 57.8791C145.211 58.3019 145.251 59.0536 145.373 59.7583C145.373 60.0871 145.494 60.416 145.696 61.3556Z" fill="#2E353F"/>
<path d="M130.451 56.9865C131.826 57.4563 131.543 58.6778 132.23 59.1945C133.08 59.0066 132.594 57.3153 133.524 57.1274C133.969 57.3153 133.929 57.6442 133.807 57.9261C133.282 59.0066 133.322 61.2616 132.311 61.0737C131.058 60.8388 131.017 58.7247 130.451 56.9865Z" fill="#2E353F"/>
<path d="M128.47 60.9331C127.176 60.8861 127.095 59.9465 127.014 58.9599C126.974 58.3962 127.054 57.6445 127.54 57.5975C128.227 57.5035 129.198 57.4566 129.562 57.8794C130.411 58.866 129.481 58.866 128.874 58.9129C128.551 58.9599 128.227 59.0069 127.984 59.0539C127.782 59.8995 128.551 60.1814 128.47 60.9331Z" fill="#2E353F"/>
<path d="M135.344 59.1005C135.101 59.8992 135.829 60.1811 135.829 60.8388C135.668 60.8858 135.425 61.0737 135.263 60.9797C134.414 60.5099 134.252 59.6173 134.374 58.6307C134.414 58.114 134.495 57.5032 135.142 57.5502C135.385 57.5502 135.668 57.5502 135.91 57.6442C136.395 57.7851 137.245 56.9864 137.285 58.2549C137.326 59.2415 136.557 58.8656 136.072 58.9596C135.829 59.0066 135.546 59.0535 135.344 59.1005Z" fill="#2E353F"/>
<path d="M115.894 55.4832C117.632 57.5503 115.53 59.3355 115.813 61.2147C115.489 59.3355 114.519 57.5033 115.894 55.4832Z" fill="#2E353F"/>
<path d="M102.671 57.2215C103.156 58.4899 103.116 59.7584 102.63 61.0268C102.186 59.8054 102.145 58.5369 102.671 57.2215Z" fill="#2E353F"/>
<path d="M122.404 61.7316C121.757 57.2215 121.797 57.1276 124.466 57.3155C122.647 58.1611 123.253 59.9933 122.404 61.7316Z" fill="#2E353F"/>
<path d="M154.026 60.98C152.813 60.6981 152.813 59.8055 152.813 58.9598C152.813 58.3021 152.853 57.3625 153.622 57.5034C154.471 57.6444 153.905 58.3021 153.783 58.8659C153.703 59.4766 153.905 60.1343 154.026 60.98Z" fill="#2E353F"/>
<path d="M77.1549 24.6645C76.9931 24.8054 76.8718 25.2752 76.5887 24.8994C76.5079 24.7585 76.6696 24.3826 76.7101 24.1007C76.8718 24.2887 76.9931 24.4766 77.1549 24.6645Z" fill="#2E353F"/>
</g>
<defs>
<clipPath id="clip0">
<rect width="159" height="63" fill="white"/>
</clipPath>
</defs>
</svg>
