<svg width="180" height="45" viewBox="0 0 180 45" fill="none" xmlns="http://www.w3.org/2000/svg">
<g clip-path="url(#clip0)">
<path d="M35.0518 44.2774C35.0518 33.3369 35.0518 22.3567 35.0518 11.2576C36.4857 11.2576 37.7603 11.2576 39.3138 11.2576C39.5528 11.9711 39.8316 12.8035 40.2299 13.9531C42.0622 11.654 44.1732 10.4252 47.081 10.5837C50.9447 10.7819 52.8566 12.09 53.1752 15.8954C53.4939 19.899 53.4541 23.9423 53.2151 27.9459C53.0557 30.5225 52.0998 32.9405 49.2717 33.8125C46.3242 34.7243 43.4961 34.5657 40.668 32.1477C40.668 36.1513 40.668 40.1945 40.668 44.1981C38.7561 44.2774 36.9239 44.2774 35.0518 44.2774ZM47.5988 22.436C47.6386 22.436 47.7183 22.436 47.7581 22.436C47.6784 21.0089 47.6784 19.5423 47.5191 18.1152C47.3598 16.4504 46.2445 15.8162 44.6512 15.6972C42.9783 15.5783 41.2655 15.9747 41.1062 17.7189C40.8274 20.7711 40.8274 23.9026 41.146 26.9152C41.3054 28.6197 42.8588 29.4522 44.7309 29.2936C46.5233 29.1351 47.4793 28.1441 47.5988 26.3603C47.6386 25.0522 47.5988 23.7441 47.5988 22.436Z" fill="#2E3540"/>
<path d="M0 33.5746C1.47378 28.3422 2.98739 23.1098 4.42133 17.8377C5.73578 13.0809 7.05023 8.32417 8.28502 3.52777C8.56384 2.4575 9.00199 2.10075 10.0376 2.14039C11.8699 2.18003 13.742 2.14039 15.8132 2.14039C18.5616 12.6845 21.31 23.1494 24.0983 33.7728C22.1465 33.7728 20.3541 33.7728 18.3625 33.7728C17.8447 31.7908 17.4065 29.6503 16.7294 27.6287C16.57 27.1134 15.7336 26.4395 15.1759 26.3998C13.1843 26.2413 11.1927 26.3998 9.20115 26.3206C8.12569 26.2809 7.72737 26.6773 7.48838 27.7476C7.09006 29.7296 6.49259 31.7116 5.89511 33.9314C3.94335 33.971 1.95176 33.971 0 33.971C0 33.8521 0 33.6935 0 33.5746ZM12.3479 8.56201C12.2284 8.56201 12.069 8.56201 11.9495 8.56201C10.9936 12.962 10.0376 17.362 9.08166 21.8016C11.3521 21.8016 13.1843 21.8016 15.2158 21.8016C14.2598 17.2431 13.3038 12.9224 12.3479 8.56201Z" fill="#2E3540"/>
<path d="M61.3412 0.277399C61.3412 4.4792 61.3412 8.72064 61.3412 12.4864C63.3726 11.8918 65.4837 10.8612 67.6346 10.7026C71.1398 10.4648 73.0517 12.1297 73.4102 15.5783C73.7687 18.908 73.6094 22.317 73.6492 25.6468C73.689 28.3026 73.6492 30.9188 73.6492 33.7333C71.8568 33.7333 70.1042 33.7333 68.0728 33.7333C68.0728 31.3945 68.0728 29.0558 68.0728 26.6774C68.0728 23.9819 68.1923 21.2468 67.9931 18.5513C67.9134 17.5999 67.1965 16.054 66.5592 15.8954C65.4439 15.6576 63.7311 15.8954 62.9743 16.6486C62.0183 17.5999 61.381 19.2648 61.3014 20.6522C61.0624 24.3387 61.2217 28.0648 61.2217 31.7513C61.2217 32.3855 61.1819 33.0594 61.142 33.7729C59.3098 33.7729 57.597 33.7729 55.5656 33.7729C55.5656 33.0197 55.5656 32.2666 55.5656 31.5134C55.5656 21.881 55.5656 12.2089 55.5656 2.5765C55.5656 1.78371 55.4859 0.990913 55.4062 0.19812C57.358 0.277399 59.3496 0.277399 61.3412 0.277399Z" fill="#2E3540"/>
<path d="M180 32.3855C177.531 32.9801 175.061 34.09 172.592 34.09C169.007 34.1296 167.692 32.4251 167.652 28.7783C167.613 24.299 167.652 19.8197 167.652 15.063C166.497 15.0233 165.382 14.944 164.187 14.9044C164.187 13.6359 164.187 12.4071 164.187 11.0594C165.302 11.0594 166.338 11.0594 167.613 11.0594C167.613 8.7999 167.613 6.65936 167.613 4.3999C169.644 4.3999 171.397 4.3999 173.388 4.3999C173.388 6.5008 173.388 8.6017 173.388 10.9008C174.942 10.9008 176.296 10.9008 177.809 10.9008C177.809 12.2882 177.809 13.4377 177.809 14.8648C176.535 14.8648 175.181 14.8648 173.587 14.8648C173.587 19.3044 173.508 23.5062 173.667 27.708C173.667 28.1837 174.902 28.9765 175.619 29.0161C176.615 29.0954 177.65 28.5801 178.765 28.3026C179.204 29.4125 179.602 30.4828 180 31.5531C180 31.8702 180 32.108 180 32.3855Z" fill="#2E3540"/>
<path d="M95.7158 2.25939C99.5397 2.25939 103.244 2.10083 106.948 2.29903C111.091 2.53686 113.521 5.272 113.6 9.4738C113.64 11.2576 113.6 13.0414 113.6 14.8252C113.56 19.0666 111.131 21.7621 106.869 22.1188C105.156 22.2774 103.443 22.1585 101.651 22.1585C101.651 26.2017 101.651 29.9279 101.651 33.8522C99.6592 33.8522 97.7871 33.8522 95.7556 33.8522C95.7158 23.3873 95.7158 12.9621 95.7158 2.25939ZM101.73 6.81795C101.73 10.7423 101.73 13.9134 101.73 17.3224C103.842 16.8864 106.67 18.1549 107.426 15.9747C108.223 13.6756 107.506 10.8612 107.466 8.28461C105.594 7.80894 103.762 7.33326 101.73 6.81795Z" fill="#2E3540"/>
<path d="M133.038 22.5549C133.038 23.427 133.038 24.2594 133.038 25.1315C133.038 31.9891 128.577 35.5567 121.726 34.1693C117.026 33.2179 114.795 30.5225 114.795 25.7657C114.795 23.7837 114.915 21.8017 114.755 19.8197C114.238 12.4071 120.252 9.79092 125.988 10.7026C130.808 11.4558 132.998 14.2702 132.998 19.1855C133.038 20.3351 133.038 21.445 133.038 22.5549ZM120.69 22.5549C120.69 23.8234 120.65 25.0522 120.69 26.3206C120.73 28.5008 121.367 29.1351 123.518 29.2143C126.068 29.3333 127.183 28.699 127.263 26.5188C127.422 23.7044 127.342 20.8504 127.263 18.036C127.183 15.8558 125.59 15.6576 123.877 15.7369C122.164 15.7765 120.81 16.2918 120.69 18.2342C120.611 19.6612 120.69 21.0882 120.69 22.5549Z" fill="#2E3540"/>
<path d="M145.267 33.8125C145.267 26.2413 145.267 18.7891 145.267 11.1783C146.979 11.1783 148.573 11.1783 150.365 11.1783C150.524 11.6936 150.724 12.2882 151.002 13.1603C152.675 10.9801 154.747 10.3458 157.216 10.5044C160.96 10.7422 163.191 12.6449 163.31 16.4107C163.47 22.1585 163.35 27.9062 163.35 33.7729C161.478 33.7729 159.646 33.7729 157.495 33.7729C157.495 33.1386 157.495 32.4648 157.495 31.7512C157.455 27.3909 157.455 23.0305 157.375 18.6702C157.375 17.4017 157.176 16.0936 155.623 15.6972C154.109 15.3404 152.755 15.8558 152.078 17.2431C151.52 18.3927 151.042 19.7008 151.002 20.9296C150.883 25.1314 150.963 29.3729 150.963 33.7332C149.011 33.8125 147.139 33.8125 145.267 33.8125Z" fill="#2E3540"/>
<path d="M86.674 19.6215C87.2715 15.9747 85.9172 14.7062 82.5713 15.6179C81.8145 15.8161 81.0577 16.1333 80.3407 16.4504C79.6238 16.7675 78.9466 17.1639 78.0703 17.5999C77.433 16.3711 76.8355 15.1819 76.1584 13.7945C79.7034 11.4954 83.2883 9.90984 87.5503 10.9801C90.458 11.6936 92.2106 13.3585 92.2903 16.3315C92.4894 22.1188 92.3301 27.9062 92.3301 33.8522C90.936 33.8522 89.6614 33.8522 88.2673 33.8522C88.0681 32.9405 87.9088 32.0684 87.63 30.8396C85.4791 33.4954 83.129 34.8828 79.8628 34.0504C77.5127 33.4558 76.1584 32.1873 75.7203 29.8486C75.6804 29.6504 75.6804 29.4522 75.6804 29.254C75.6804 26.9549 74.8838 24.1008 75.9592 22.5152C76.8754 21.1279 79.9424 21.1675 82.0934 20.6522C83.607 20.2161 85.1604 19.9387 86.674 19.6215ZM86.7935 23.308C84.8019 23.7837 83.0095 24.1801 81.217 24.6161C81.217 25.4089 81.217 26.0035 81.217 26.5981C81.1772 28.0648 81.2569 29.4125 83.2485 29.5711C85.0011 29.69 86.5943 28.5801 86.7935 26.836C86.8732 25.8053 86.7935 24.7351 86.7935 23.308Z" fill="#2E3540"/>
<path d="M31.3076 33.8522C29.4753 33.8522 27.8422 33.8522 26.0498 33.8522C26.0498 22.872 26.0498 11.9711 26.0498 0.951294C27.7626 0.951294 29.4753 0.951294 31.3076 0.951294C31.3076 11.8918 31.3076 22.7927 31.3076 33.8522Z" fill="#2E3540"/>
<path d="M141.403 33.8522C139.531 33.8522 137.778 33.8522 135.906 33.8522C135.906 26.281 135.906 18.7891 135.906 11.1387C137.699 11.1387 139.451 11.1387 141.403 11.1387C141.403 18.6702 141.403 26.2017 141.403 33.8522Z" fill="#2E3540"/>
<path d="M141.482 2.33862C141.482 4.20169 141.482 5.98547 141.482 7.92781C139.61 7.92781 137.858 7.92781 135.946 7.92781C135.946 6.10439 135.946 4.28097 135.946 2.33862C137.738 2.33862 139.57 2.33862 141.482 2.33862Z" fill="#2E3540"/>
</g>
<defs>
<clipPath id="clip0">
<rect width="180" height="44" fill="white" transform="translate(0 0.277344)"/>
</clipPath>
</defs>
</svg>
