<svg width="166" height="73" viewBox="0 0 166 73" fill="none" xmlns="http://www.w3.org/2000/svg">
<path d="M58.8872 57.1806C58.8523 57.1806 58.8175 57.1806 58.8175 57.1806C58.6433 57.0409 58.6433 56.8664 58.6085 56.6918C58.6085 56.3776 58.6085 56.0634 58.6085 55.7842C58.6085 37.9103 58.6085 20.0364 58.6085 2.16248C58.6085 0.556623 58.6433 0.591533 57.006 0.591533C38.4036 0.591533 19.7664 0.591533 1.16402 0.591533C0.78082 0.591533 0.397625 0.696263 0.0492654 0.451894C0.0144295 0.382074 -0.0204064 0.347164 0.0144295 0.277344C19.6271 0.277344 39.2397 0.277344 58.8872 0.277344C58.922 0.312254 58.9568 0.347164 58.9917 0.416984C59.0265 0.626443 59.0265 0.800993 59.0265 1.01045C59.0265 19.4778 59.0265 37.9801 59.0265 56.4475C59.0265 56.6569 59.0613 56.8315 58.9917 57.0409C58.9568 57.0758 58.922 57.1107 58.8872 57.1806Z" fill="white"/>
<path d="M59.1056 0.277344C59.5986 0.277344 60.0564 0.277344 60.5493 0.277344C95.2347 0.277344 129.92 0.277344 164.606 0.277344C164.887 0.277344 165.134 0.277344 165.415 0.277344C165.415 0.48719 165.415 0.697036 165.415 0.906882C165.415 19.4782 165.415 38.0496 165.415 56.621C165.415 57.1806 165.415 57.1806 164.852 57.1806C129.744 57.1806 94.6009 57.1806 59.4929 57.1806C59.3521 57.1806 59.176 57.1806 59.0352 57.1806C59.0352 57.1456 59.0352 57.1106 59.0352 57.0756C59.1056 56.9008 59.0704 56.7259 59.0704 56.551C59.0704 37.9797 59.0704 19.4083 59.0704 0.836933C59.0704 0.627087 59.0352 0.452215 59.1056 0.277344Z" fill="#2E3540"/>
<path d="M0 57.1456C0 38.4458 0 19.781 0 1.08126C0 0.801636 0 0.556966 0 0.277344C0.244814 0.277344 0.489628 0.277344 0.769416 0.277344C19.9349 0.277344 39.0654 0.277344 58.2308 0.277344C59.0352 0.277344 59.0352 0.277344 59.0352 1.08126C59.0352 19.781 59.0352 38.4458 59.0352 57.1456C58.8603 57.1456 58.6855 57.1806 58.4756 57.1806C39.1703 57.1806 19.8999 57.1806 0.594549 57.1806C0.384708 57.1456 0.209841 57.1456 0 57.1456Z" fill="#2E353F"/>
<path d="M50.9569 63.7169C50.407 65.3659 49.8571 66.8745 49.3759 68.3831C48.9635 69.576 48.5167 70.7688 48.2074 71.9617C48.1387 72.1722 48.0356 72.2424 47.8294 72.2424C47.142 72.2424 46.4203 72.2073 45.7329 72.2424C45.3893 72.2424 45.2862 72.1722 45.1831 71.8214C44.6676 69.2251 44.1177 66.6289 43.5678 64.0677C43.5678 63.9976 43.5334 63.9274 43.4303 63.8572C43.3959 64.3484 43.3272 64.8396 43.2928 65.2957C43.121 67.506 42.9148 69.6812 42.8117 71.8915C42.8117 72.1722 42.7086 72.2775 42.3993 72.2775C41.6432 72.2775 40.8527 72.2775 40.0966 72.2775C39.8217 72.2775 39.7186 72.2424 39.753 71.8915C40.2685 68.348 40.5091 64.7694 40.6809 61.1557C40.7153 60.7698 40.8184 60.6646 41.1964 60.6646C42.5367 60.6996 43.8771 60.6996 45.1831 60.6646C45.4924 60.6646 45.5955 60.7698 45.6642 61.0856C46.0766 63.2608 46.489 65.436 46.9015 67.6112C46.9358 67.7165 46.9702 67.8217 47.0046 67.9621C47.1764 67.6463 47.2451 67.3657 47.3482 67.085C48.0012 65.0501 48.6542 63.0503 49.2728 61.0154C49.3416 60.7698 49.4447 60.6996 49.7196 60.6996C51.1287 60.6996 52.5378 60.6996 53.9812 60.6996C54.3249 60.6996 54.3593 60.84 54.3593 61.1206C54.2562 63.7169 54.1874 66.3131 54.0499 68.9094C54.0156 69.9268 53.9812 70.9443 54.0499 71.9266C54.0499 72.1722 54.0156 72.2775 53.7406 72.2775C52.8127 72.2775 51.8848 72.2775 50.9912 72.2775C50.6819 72.2775 50.6475 72.1371 50.6819 71.8564C50.8881 69.2251 51.0256 66.5938 51.0943 63.9625C51.0256 63.9274 50.9912 63.8923 50.9569 63.7169Z" fill="#2E353F"/>
<path d="M0.147499 64.5781C0.218716 63.7198 0.218716 62.4153 0.254325 61.1108C0.254325 60.7675 0.361151 60.6646 0.717239 60.6646C1.71428 60.6989 2.67572 60.6646 3.67276 60.6646C3.99324 60.6646 4.10007 60.7332 4.06446 61.0422C3.85081 63.1362 3.8152 65.2646 3.67276 67.3587C3.67276 67.4617 3.67276 67.5647 3.67276 67.702C3.67276 68.9378 4.13568 69.5214 5.23955 69.5558C6.73511 69.6244 7.4829 69.1095 7.58972 67.8393C7.73216 65.6079 7.87459 63.3422 7.87459 61.1108C7.87459 60.7675 7.94581 60.6646 8.3019 60.6646C9.29894 60.6989 10.3316 60.6646 11.3286 60.6646C11.5779 60.6646 11.7203 60.6989 11.6847 60.9735C11.3642 63.6512 11.3999 66.3288 11.115 69.0065C10.9726 70.311 10.2248 71.2036 8.97846 71.6498C6.77072 72.4394 4.49176 72.5081 2.24841 71.7185C0.610412 71.1692 -0.0661533 70.0364 0.00506412 68.3886C0.0406728 67.2557 0.0762816 66.1229 0.147499 64.5781Z" fill="#2E353F"/>
<path d="M161.945 71.5252C160.915 72.3156 159.743 72.3844 158.571 72.1782C156.902 71.9032 155.871 70.9409 155.587 69.3255C155.232 67.3321 155.729 65.5793 157.399 64.2733C158.642 63.311 160.134 63.036 161.697 63.1391C162.585 63.2079 162.372 63.2422 162.478 62.4861C162.514 62.0393 162.514 61.5581 162.514 61.077C162.514 60.7333 162.62 60.6646 162.94 60.6646C163.793 60.6989 164.681 60.6989 165.533 60.6646C165.888 60.6646 166.03 60.7333 165.995 61.1113C165.853 62.9673 165.746 64.8232 165.64 66.6791C165.533 68.2257 165.498 69.738 165.391 71.2846C165.355 72.1782 165.355 71.9719 164.645 72.0063C163.935 72.0063 163.189 72.0063 162.478 72.0063C162.017 72.0407 162.017 72.0407 161.945 71.5252Z" fill="#2E353F"/>
<path d="M145.736 64.2814C146.787 62.9665 148.176 62.8599 149.667 63.0731C151.293 63.3219 152.005 64.2103 151.971 65.9161C151.937 67.3377 151.869 68.7947 151.801 70.2162C151.767 70.7848 151.733 71.3179 151.733 71.8865C151.733 72.1708 151.666 72.2774 151.361 72.2774C150.48 72.2774 149.633 72.2418 148.752 72.2774C148.413 72.2774 148.379 72.1352 148.379 71.8509C148.481 70.6071 148.582 69.3988 148.582 68.155C148.582 67.7286 148.582 67.3376 148.549 66.9112C148.481 66.3781 148.379 65.8451 147.769 65.7029C147.125 65.5252 146.516 65.774 146.143 66.3071C145.804 66.8046 145.702 67.4087 145.635 67.9773C145.465 69.2567 145.465 70.536 145.431 71.8154C145.431 72.1352 145.364 72.2774 144.991 72.2774C144.11 72.2418 143.229 72.2774 142.348 72.2774C142.077 72.2774 142.009 72.2063 142.043 71.922C142.28 69.2211 142.416 66.4847 142.416 63.7483C142.416 63.393 142.518 63.2508 142.89 63.2864C143.67 63.3219 144.449 63.3219 145.262 63.2864C145.601 63.2864 145.736 63.393 145.702 63.7483C145.669 63.926 145.702 64.0682 145.702 64.2459C145.702 64.2459 145.736 64.2459 145.736 64.2814Z" fill="#2E353F"/>
<path d="M135.829 71.0283C135.722 70.993 135.65 71.0636 135.614 71.0989C134.148 72.5449 132.395 72.4743 130.607 71.8748C129.462 71.4868 129.176 70.464 129.176 69.406C129.212 67.9952 129.284 66.5845 129.355 65.1737C129.391 64.6094 129.391 64.0099 129.391 63.4456C129.391 63.1281 129.462 63.0223 129.82 63.0223C130.714 63.0576 131.608 63.0576 132.538 63.0223C132.86 63.0223 132.968 63.1281 132.932 63.4456C132.825 64.68 132.717 65.9144 132.717 67.1488C132.717 67.6073 132.717 68.0658 132.789 68.5242C132.86 68.9827 133.039 69.3707 133.54 69.5118C134.076 69.6528 134.577 69.5823 135.042 69.1943C135.471 68.8064 135.65 68.2774 135.758 67.7483C136.044 66.3729 136.044 64.9268 136.079 63.5514C136.079 63.0929 136.258 62.9871 136.687 62.9871C137.582 63.0223 138.476 62.9871 139.334 62.9871C139.585 62.9871 139.728 63.0223 139.692 63.3397C139.406 66.0202 139.299 68.7006 139.299 71.4163C139.299 71.8042 139.191 71.9453 138.762 71.9453C137.975 71.91 137.224 71.9453 136.437 71.9453C135.865 71.9453 135.865 71.9453 135.829 71.3457C135.865 71.2752 135.865 71.1694 135.829 71.0283Z" fill="#2E353F"/>
<path d="M64.4557 70.9659C63.2674 72.3131 61.7551 72.4194 60.1347 72.1713C58.5864 71.9231 57.8662 71.0723 57.8662 69.5478C57.8662 68.0588 57.9742 66.5699 58.0463 65.0809C58.0823 64.5136 58.0823 63.9819 58.0823 63.4146C58.0823 63.131 58.1903 63.0247 58.4783 63.0247C59.3786 63.0247 60.2788 63.0601 61.215 63.0247C61.5751 63.0247 61.6471 63.131 61.6471 63.4501C61.539 64.6554 61.467 65.8608 61.431 67.0662C61.431 67.5271 61.431 67.9879 61.503 68.4488C61.5751 68.9806 61.7551 69.4415 62.3672 69.5833C63.0154 69.7251 63.6275 69.5124 64.0236 68.9806C64.3117 68.5906 64.4197 68.1652 64.4917 67.7043C64.7438 66.3571 64.7438 64.9745 64.7798 63.5919C64.8158 62.9183 64.7078 62.9892 65.4279 62.9892C66.2921 62.9892 67.1923 62.9892 68.0565 62.9892C68.3086 62.9892 68.4166 63.0601 68.3806 63.3437C68.0925 66.109 67.9845 68.8742 67.9485 71.6395C67.9485 71.8877 67.8765 71.994 67.6244 71.994C66.6882 71.994 65.788 71.994 64.8518 71.994C64.5997 71.994 64.4917 71.8877 64.4917 71.6395C64.4917 71.4268 64.4917 71.2141 64.4917 71.0014C64.5277 71.0368 64.4917 71.0014 64.4557 70.9659Z" fill="#2E353F"/>
<path d="M86.1247 70.9948C86.0534 71.0304 86.0178 70.9948 85.9822 71.0304C84.6641 72.4184 83.061 72.454 81.3511 72.0625C80.2824 71.8134 79.6768 71.1016 79.5343 69.9983C79.4631 69.3933 79.4987 68.7882 79.5343 68.1832C79.6055 66.5817 79.6768 65.0157 79.748 63.4141C79.748 63.1294 79.8193 62.9871 80.1755 62.9871C81.0661 63.0227 81.9567 63.0227 82.8829 62.9871C83.2391 62.9871 83.2748 63.0938 83.2748 63.4141C83.2035 64.8377 83.0254 66.2969 83.0967 67.7205C83.0967 67.9697 83.1323 68.2188 83.1679 68.4679C83.2391 68.9662 83.3816 69.4288 83.9516 69.5712C84.5928 69.7136 85.1628 69.6068 85.5547 69.073C85.9465 68.6103 86.0534 68.0408 86.1603 67.4358C86.374 66.119 86.4096 64.7666 86.4096 63.4497C86.4096 63.1294 86.4809 62.9871 86.8727 62.9871C87.799 63.0227 88.7608 62.9871 89.687 62.9871C89.9364 62.9871 90.0432 63.0582 90.0076 63.343C89.7226 66.119 89.5801 68.8594 89.5801 71.6354C89.5801 71.9201 89.4733 71.9913 89.1883 71.9913C88.3333 71.9913 87.4427 71.9557 86.5878 71.9913C86.2315 71.9913 86.089 71.8846 86.1603 71.5287C86.1246 71.3507 86.1247 71.1728 86.1247 70.9948Z" fill="#2E353F"/>
<path d="M122.224 60.6646C123.626 60.6646 125.029 60.6646 126.432 60.6646C126.727 60.6646 126.838 60.7347 126.838 61.0505C126.764 61.682 126.764 62.3486 126.727 62.9801C126.727 63.2959 126.617 63.331 126.284 63.331C124.771 63.2608 123.257 63.2959 121.781 63.2959C121.485 63.2959 121.338 63.366 121.338 63.6467C121.338 63.9976 121.301 64.3484 121.264 64.6992C121.227 65.0501 121.412 65.0852 121.707 65.0852C122.925 65.0501 124.143 65.0852 125.325 65.0501C125.694 65.0501 125.804 65.1553 125.767 65.5062C125.694 66.1377 125.657 66.7692 125.657 67.4007C125.657 67.7165 125.546 67.7516 125.214 67.7516C123.959 67.7165 122.741 67.7165 121.485 67.7165C121.153 67.7165 121.043 67.8217 121.043 68.1375C121.006 69.3655 120.932 70.5934 120.895 71.8214C120.895 72.1371 120.821 72.2775 120.452 72.2775C119.418 72.2424 118.348 72.2424 117.314 72.2775C116.982 72.2775 116.871 72.1722 116.908 71.8564C117.314 68.3129 117.388 64.7343 117.499 61.1908C117.499 60.8049 117.61 60.6996 118.016 60.6996C119.418 60.6646 120.821 60.6646 122.224 60.6646Z" fill="#2E353F"/>
<path d="M94.2223 65.9C94.3577 65.1067 94.4592 64.3823 94.5608 63.6234C94.5946 63.4855 94.6962 63.4165 94.7977 63.382C96.49 62.9681 98.2162 62.8301 99.9424 63.2095C101.262 63.5199 101.736 64.2098 101.702 65.5896C101.635 67.6247 101.533 69.6253 101.466 71.6605C101.466 71.9019 101.398 72.0054 101.127 72.0054C100.247 72.0054 99.3332 72.0054 98.4531 72.0054C98.1824 72.0054 98.1147 71.9364 98.1147 71.6605C98.1824 70.7291 98.2501 69.7978 98.3178 68.8665C98.3516 68.3836 98.3516 68.3836 97.8778 68.5215C97.4716 68.625 97.0993 68.7285 96.6931 68.832C96.5577 68.8665 96.4223 68.901 96.3208 68.9699C95.9146 69.1769 95.7116 69.5218 95.8131 69.8668C95.9146 70.2117 96.1854 70.3842 96.6254 70.3842C96.8623 70.3842 97.0993 70.3497 97.3024 70.3152C97.5393 70.2807 97.6747 70.3152 97.5731 70.6256C97.4377 71.0051 97.3362 71.3845 97.2685 71.7639C97.2008 72.0399 97.0654 72.1434 96.8285 72.1779C96.1177 72.2813 95.4408 72.3503 94.73 72.1434C93.85 71.9019 93.173 71.3845 93.0038 70.4187C92.8007 69.3494 93.0377 68.3836 93.9854 67.7282C94.73 67.2108 95.61 67.0383 96.4562 66.8313C96.9977 66.6934 97.5393 66.5899 98.047 66.3484C98.2839 66.2105 98.5208 66.0725 98.4531 65.762C98.3855 65.4171 98.1147 65.3826 97.8439 65.3481C96.727 65.2446 95.6439 65.5206 94.5946 65.8655C94.4931 65.831 94.3915 65.831 94.2223 65.9Z" fill="#2E353F"/>
<path d="M19.375 60.6728C20.9705 60.6728 22.566 60.6728 24.1615 60.6728C24.4737 60.6728 24.5778 60.7431 24.5431 61.0594C24.4737 61.692 24.4737 62.3247 24.439 62.9573C24.439 63.2736 24.3003 63.3439 24.0228 63.3088C23.1904 63.2033 22.3232 63.2033 21.4908 63.2033C21.1786 63.2033 21.0746 63.2736 21.0746 63.5899C20.9358 66.3314 20.6584 69.0728 20.7277 71.8142C20.7277 72.2008 20.6237 72.3063 20.2768 72.2711C19.3057 72.236 18.3345 72.2711 17.3633 72.2711C17.0511 72.2711 16.9471 72.2008 16.9818 71.8494C17.2939 69.1079 17.398 66.3314 17.4674 63.5548C17.4674 63.2736 17.398 63.2033 17.1205 63.2033C16.2187 63.2385 15.3169 63.2385 14.4151 63.3088C14.1376 63.3439 13.9989 63.2736 14.0336 62.9573C14.1029 62.3247 14.1376 61.6569 14.1376 61.0242C14.1376 60.7079 14.2764 60.6376 14.5538 60.6728C16.184 60.6728 17.7795 60.6728 19.375 60.6728Z" fill="#2E353F"/>
<path d="M74.9995 67.2963C74.9995 67.7441 74.9663 68.1918 74.9995 68.6739C75.0327 69.5349 75.4306 69.8448 76.2597 69.7415C76.7572 69.6726 76.7572 69.6726 76.724 70.1892C76.6909 70.7058 76.6245 71.2224 76.5914 71.739C76.5914 71.9456 76.525 72.1178 76.2929 72.1522C75.3975 72.29 74.4689 72.3589 73.5735 72.1178C72.4127 71.8423 71.7826 70.9813 71.7495 69.7071C71.7163 68.5017 71.8489 67.3308 71.9153 66.1254C71.9484 65.54 71.9153 65.54 71.3846 65.54C70.5887 65.54 70.7214 65.6088 70.7545 64.8512C70.7545 64.4379 70.8209 63.9902 70.8209 63.5769C70.8209 63.3703 70.9204 63.267 71.1193 63.3014C71.252 63.3014 71.4178 63.3014 71.5505 63.3014C72.2137 63.3014 72.2137 63.3014 72.2469 62.5782C72.2801 61.8894 72.2801 61.8894 72.9434 61.7172C73.6066 61.5795 74.3031 61.4073 74.9663 61.2695C75.2317 61.2006 75.3311 61.2695 75.298 61.5795C75.2648 61.9927 75.2648 62.4404 75.2317 62.8537C75.1985 63.1981 75.2648 63.3359 75.6296 63.3014C76.0276 63.267 76.4256 63.3014 76.8235 63.3014C77.0557 63.3014 77.1552 63.3703 77.1552 63.6458C77.122 64.1968 77.0888 64.7479 77.0888 65.2989C77.0888 65.54 76.9562 65.5744 76.7904 65.5744C76.3592 65.5744 75.9281 65.5744 75.5301 65.5744C75.298 65.5744 75.1985 65.6777 75.1985 65.9188C75.099 66.3321 75.0658 66.8142 74.9995 67.2963C75.0327 67.2963 75.0327 67.2963 74.9995 67.2963Z" fill="#2E353F"/>
<path d="M29.3269 60.671C29.9569 60.671 30.5869 60.671 31.259 60.671C31.511 60.671 31.595 60.7413 31.553 60.9875C31.217 64.6101 30.923 68.2679 30.8809 71.8906C30.8809 72.1719 30.7549 72.2775 30.4189 72.2775C29.1589 72.2775 27.9408 72.2775 26.6807 72.2775C26.3447 72.2775 26.3027 72.1719 26.3027 71.9257C26.7228 68.3383 26.8908 64.7156 26.9748 61.093C26.9748 60.7413 27.1428 60.6358 27.5208 60.671C28.1508 60.671 28.7388 60.671 29.3269 60.671Z" fill="#2E353F"/>
<path d="M106.979 60.6996C107.455 60.6996 107.897 60.6996 108.373 60.6996C108.611 60.6996 108.747 60.7347 108.713 61.0505C108.577 62.9801 108.441 64.9098 108.305 66.8394C108.203 68.4884 108.135 70.1373 108.135 71.7863C108.135 72.1371 108.033 72.2775 107.659 72.2775C106.775 72.2424 105.925 72.2424 105.041 72.2775C104.701 72.2775 104.599 72.2073 104.633 71.8214C104.871 68.8743 105.041 65.8921 105.143 62.9099C105.177 62.2784 105.177 61.6469 105.177 61.0154C105.177 60.7698 105.279 60.6646 105.517 60.6646C106.027 60.6996 106.503 60.6996 106.979 60.6996Z" fill="#2E353F"/>
<path d="M90.9693 46.2122C90.1798 46.9486 89.4621 47.5448 88.6727 48.1059C86.7708 49.4035 84.6536 49.9997 82.3929 50.14C80.3115 50.2802 78.2661 50.2452 76.2207 49.7893C72.6322 48.9827 70.5509 46.7733 69.8691 43.3014C69.582 41.8986 69.5103 40.4608 69.582 39.0229C69.7973 33.6573 70.0485 28.3267 70.2997 22.961C70.3356 21.7336 70.3715 20.5062 70.4074 19.2437C70.4074 18.928 70.515 18.8579 70.838 18.8579C75.3953 18.8579 79.9527 18.8579 84.5459 18.8579C84.9048 18.8579 84.9765 18.9631 84.9407 19.3138C84.6177 23.943 84.2947 28.6073 84.2947 33.2715C84.2947 34.2885 84.2947 35.3055 84.5818 36.2875C85.1919 38.4969 87.632 39.1632 89.3545 37.5851C90.1798 36.8135 90.5746 35.8316 90.8616 34.8146C91.2922 33.2364 91.4358 31.6232 91.5434 30.0451C91.8305 26.468 91.9382 22.8909 91.974 19.3138C91.974 18.9982 92.0458 18.893 92.3688 18.893C97.1056 18.893 101.842 18.893 106.579 18.893C107.046 18.893 106.974 19.1385 106.938 19.384C106.759 21.2777 106.579 23.1364 106.4 25.0302C106.184 27.5201 106.041 30.01 105.897 32.5C105.61 37.9708 105.503 43.4417 105.503 48.9125C105.503 49.2632 105.395 49.4035 105.036 49.4035C100.515 49.4035 96.029 49.4035 91.5076 49.4035C91.1128 49.4035 91.0052 49.2983 91.0052 48.9125C91.0052 48.0358 90.9693 47.1591 90.9693 46.2122Z" fill="#FEFEFE"/>
<path d="M109.547 24.2185C109.652 22.2115 109.721 20.627 109.791 19.0425C109.791 18.7256 109.931 18.6552 110.21 18.6552C111.57 18.6552 112.931 18.6552 114.256 18.6552C114.605 18.6552 114.71 18.5848 114.745 18.1974C114.814 16.5073 114.919 14.8172 114.989 13.127C114.989 12.8454 115.093 12.7397 115.372 12.7045C119.07 11.9299 122.803 11.1552 126.5 10.3806C126.849 10.3102 127.198 10.2397 127.547 10.1693C127.826 10.0989 127.93 10.2045 127.896 10.4862C127.791 12.282 127.686 14.0777 127.582 15.8735C127.547 16.6482 127.512 17.458 127.442 18.2327C127.407 18.5848 127.512 18.6552 127.861 18.6552C129.5 18.6552 131.14 18.6552 132.814 18.6552C133.163 18.6552 133.268 18.7256 133.268 19.1129C133.093 22.2467 132.919 25.3805 132.779 28.5143C132.779 28.8312 132.605 28.8312 132.361 28.8312C130.791 28.8312 129.221 28.8312 127.616 28.8312C127.233 28.8312 127.128 28.9368 127.093 29.3241C127.023 31.5424 126.814 33.7607 126.849 35.979C126.849 36.4368 126.919 36.8593 127.093 37.317C127.372 38.1621 127.965 38.6198 128.837 38.6551C130.058 38.7255 131.209 38.4438 132.395 38.2325C132.849 38.1269 132.849 38.1269 132.779 38.6198C132.221 41.9649 131.663 45.31 131.105 48.655C131.07 48.9719 130.93 49.1127 130.616 49.1832C126.779 50.2747 122.942 50.5564 119.035 49.7465C117.221 49.3592 115.582 48.6198 114.291 47.1761C112.965 45.6973 112.407 43.9015 112.303 41.9649C112.163 39.7114 112.372 37.4227 112.512 35.1692C112.617 33.1973 112.756 31.1903 112.861 29.2185C112.896 28.9368 112.756 28.8664 112.512 28.8664C111.57 28.8664 110.628 28.8664 109.721 28.8664C109.373 28.8664 109.303 28.7608 109.303 28.4439C109.407 26.8946 109.512 25.3453 109.547 24.2185Z" fill="#FEFEFE"/>
<path d="M143.774 48.4709C141.591 48.4709 139.374 48.4709 137.191 48.4709C136.816 48.4709 136.748 48.4019 136.782 48.0223C137.157 44.0885 137.43 40.1547 137.635 36.2209C137.942 30.4583 138.078 24.6956 138.078 18.933C138.078 18.2773 138.078 18.2773 138.726 18.2773C142.989 18.2773 147.253 18.2773 151.482 18.2773C151.993 18.2773 151.993 18.2773 151.959 18.7949C151.516 24.3506 151.209 29.8717 151.038 35.4273C150.902 39.6026 150.868 43.7434 150.834 47.9188C150.834 48.4364 150.834 48.4364 150.288 48.4364C148.105 48.4709 145.957 48.4709 143.774 48.4709Z" fill="#FEFEFE"/>
<path d="M145.048 15.9548C142.837 15.9548 140.626 15.9548 138.415 15.9548C138.053 15.9548 137.944 15.8523 137.944 15.5108C138.089 12.9149 138.234 10.3191 138.343 7.7233C138.343 7.34758 138.488 7.24512 138.886 7.24512C143.272 7.24512 147.657 7.24512 152.043 7.24512C152.478 7.24512 152.586 7.34758 152.55 7.75745C152.405 10.3191 152.296 12.9149 152.188 15.4766C152.188 15.8523 152.043 15.9206 151.68 15.9206C149.469 15.9548 147.258 15.9548 145.048 15.9548Z" fill="#FEFEFE"/>
<path d="M44.4226 36.858C34.6923 36.858 24.9621 36.858 15.1973 36.858C15.4733 36.6114 15.7838 36.5056 16.0599 36.3647C18.6822 35.0607 21.3046 33.7568 23.9269 32.4881C24.341 32.2766 24.479 32.0299 24.479 31.5718C24.479 30.3031 24.3065 30.4793 25.5486 30.4793C28.6885 30.4793 31.8285 30.4793 35.0029 30.4793C35.6585 30.4793 35.693 30.4793 35.6585 31.1489C35.624 31.6423 35.7965 31.9242 36.245 32.1709C38.9364 33.651 41.5932 35.1664 44.2501 36.6818C44.2846 36.6818 44.3881 36.7171 44.4226 36.858Z" fill="white"/>
<path d="M30.3411 25.2451C29.7416 25.2451 29.1421 25.2451 28.5778 25.2451C28.3662 25.2451 28.1899 25.2099 28.0488 25.034C26.9909 23.8023 26.0387 22.4651 25.4744 20.9167C24.8396 19.0164 25.1218 17.2217 26.0739 15.4973C26.7087 14.336 27.5551 13.3507 28.331 12.295C29.001 11.4152 29.6711 10.5354 30.1295 9.47973C30.2001 9.30378 30.1648 8.98706 30.3411 8.98706C30.588 8.98706 30.5527 9.30378 30.6233 9.47973C31.2933 10.8874 32.316 12.0486 33.233 13.2803C34.1499 14.4768 35.0315 15.6733 35.4195 17.1513C35.8074 18.4885 35.7016 19.7906 35.2079 21.0926C34.6436 22.5706 33.7267 23.8023 32.7392 24.9636C32.5629 25.1747 32.3513 25.2451 32.0692 25.2451C31.5402 25.2451 30.9407 25.2451 30.3411 25.2451Z" fill="white"/>
<path d="M44.4226 43.3016C43.9382 43.9162 43.3155 44.4284 42.7965 44.9748C42.0354 45.7602 41.205 46.5456 40.4093 47.331C40.2363 47.5017 40.0633 47.57 39.8211 47.57C39.06 47.57 38.2988 47.57 37.5377 47.57C37.3993 47.57 37.2609 47.57 37.1225 47.5017C36.05 47.0919 34.9774 47.1261 33.9395 47.6383C33.213 47.9798 32.4864 47.9798 31.7599 47.6041C30.8949 47.1944 30.03 47.1602 29.0959 47.4676C28.1271 47.7749 27.193 47.8773 26.2589 47.3993C25.5323 47.0236 24.7712 47.0578 24.01 47.3993C23.7678 47.5017 23.5257 47.57 23.2489 47.57C22.2109 47.57 21.1384 47.57 20.1005 47.57C19.8583 47.57 19.6853 47.5358 19.5123 47.3651C18.3014 46.1017 17.0905 44.8382 15.8796 43.5406C15.8104 43.4723 15.7412 43.404 15.8104 43.3016C15.9488 43.2333 16.1218 43.2674 16.2602 43.2674C25.4977 43.2674 34.7699 43.2674 44.0074 43.2674C44.1112 43.2674 44.2842 43.1991 44.4226 43.3016Z" fill="white"/>
<path d="M16.0991 14.2304C17.7572 14.0941 19.1331 14.7756 20.509 15.5594C21.4615 16.1046 22.3082 16.8544 23.1196 17.57C23.2608 17.7063 23.3313 17.8767 23.3313 18.0812C23.296 20.4666 23.8958 22.7157 25.0247 24.8286C25.2011 25.2034 25.2011 25.2375 24.7425 25.2375C24.2839 25.2716 23.8958 25.2034 23.5783 24.7945C21.9907 22.9202 20.3326 21.0459 18.7098 19.2057C17.4397 17.7404 16.1344 16.275 14.8643 14.8097C14.7585 14.6734 14.5821 14.5711 14.6174 14.4008C14.6879 14.2304 14.8996 14.2304 15.076 14.2304C15.3935 14.1963 15.7463 14.2304 16.0991 14.2304Z" fill="white"/>
<path d="M44.642 14.2186C45.0665 14.2527 45.4911 14.2186 45.9156 14.2867C46.234 14.3548 46.234 14.4569 46.0571 14.6611C45.1019 15.7502 44.1468 16.8053 43.227 17.8944C41.2105 20.2088 39.1586 22.5232 37.1422 24.8376C36.8591 25.178 36.2577 25.3141 35.7978 25.212C35.5502 25.1439 35.6917 25.0078 35.7271 24.9057C35.9747 24.293 36.2931 23.7144 36.5408 23.1018C37.1422 21.5702 37.4959 19.9706 37.4606 18.3369C37.4606 17.9285 37.6021 17.6562 37.9204 17.3839C38.7341 16.7032 39.5832 16.0225 40.5029 15.4779C41.7411 14.6951 43.0855 14.1506 44.642 14.2186Z" fill="white"/>
<path d="M30.352 29.2696C27.2058 29.2696 24.0253 29.2696 20.8791 29.2696C20.3661 29.2696 20.3661 29.2696 20.6397 28.749C20.9133 28.2284 21.1869 27.7079 21.4605 27.2273C21.5631 27.0671 21.6657 26.9871 21.8367 26.9871C21.9393 26.9871 22.0419 26.9871 22.1102 26.9871C27.6504 26.9871 33.2247 26.9871 38.7648 26.9871C39.2435 26.9871 39.5171 27.1472 39.7223 27.6678C39.8591 28.1083 40.0643 28.5088 40.2695 28.9092C40.4063 29.1895 40.3037 29.3096 40.0643 29.3096C39.9275 29.3096 39.8249 29.3096 39.6881 29.3096C36.5419 29.2696 33.464 29.2696 30.352 29.2696Z" fill="white"/>
<path d="M30.2921 51.3742C28.0781 51.3742 25.8642 51.3742 23.6502 51.3742C23.3288 51.3742 23.0789 51.253 22.9003 50.9703C22.5432 50.4452 22.1504 49.9605 21.7576 49.4355C21.6862 49.3547 21.5791 49.2739 21.6505 49.1527C21.6862 48.9912 21.829 49.0316 21.9362 49.0316C22.7575 49.1124 23.5431 48.87 24.3287 48.6277C24.8286 48.4661 25.3642 48.5873 25.8285 48.87C26.614 49.3547 27.3996 49.4759 28.2567 49.0316C29.5065 48.3853 30.792 48.6681 32.0418 49.072C33.1131 49.4355 34.1843 49.3951 35.2199 48.7488C35.7912 48.3853 36.4697 48.3853 37.0411 48.7085C37.5767 49.0316 38.148 48.9912 38.7194 49.0316C38.8622 49.0316 39.1122 48.9508 39.1479 49.1124C39.2193 49.3143 39.0051 49.4355 38.8979 49.5566C38.4694 50.0817 38.0409 50.6068 37.6481 51.1318C37.4696 51.3742 37.2196 51.3742 36.9696 51.3742C34.7557 51.3742 32.5417 51.3742 30.2921 51.3742Z" fill="white"/>
<path d="M38.5776 25.8258C38.8606 25.3799 39.2498 25.0932 39.5681 24.7428C40.5233 23.7235 41.4784 22.6724 42.3274 21.5575C42.5043 21.3346 42.7519 21.239 43.0349 21.2072C44.7683 21.1435 46.4663 21.1435 48.0582 21.8124C48.5888 22.0353 49.084 22.2902 49.5439 22.6405C49.7562 22.7998 49.7208 22.8954 49.4732 22.9272C48.8718 23.0546 48.235 23.182 47.6337 23.3095C46.254 23.5961 44.8744 23.9465 43.4948 24.3287C41.9029 24.7428 40.3464 25.2525 38.7899 25.7621C38.7545 25.794 38.6838 25.794 38.5776 25.8258Z" fill="white"/>
<path d="M21.6266 25.8258C17.9946 24.6415 14.3626 23.6173 10.521 22.8811C11.3242 22.1769 12.1973 21.7928 13.1752 21.5047C14.5023 21.1206 15.8643 21.1847 17.1914 21.1847C17.5057 21.1847 17.7501 21.3127 17.9597 21.5688C19.0772 23.0731 20.3345 24.4495 21.6266 25.8258Z" fill="white"/>
<path d="M40.9155 26.8025C41.546 26.6328 42.1415 26.4971 42.7719 26.3274C43.7177 26.056 44.6284 25.7845 45.469 25.3434C45.7842 25.1737 46.0294 25.2416 46.3096 25.4113C47.3604 26.056 48.2711 26.8364 49.0067 27.8204C49.462 28.4312 49.8823 29.1098 50.2676 29.8903C47.1853 28.5669 44.103 27.5829 40.9155 26.8025Z" fill="white"/>
<path d="M19.2886 26.7432C18.3009 26.9549 17.379 27.1666 16.4901 27.4086C15.0085 27.8017 13.5598 28.2554 12.1441 28.7696C11.7161 28.9208 11.2552 29.1023 10.8272 29.2535C10.7284 29.2838 10.6625 29.3442 10.5638 29.2838C10.465 29.2233 10.5638 29.1325 10.5967 29.0418C11.4527 27.4993 12.6709 26.229 14.2842 25.3216C14.4159 25.2611 14.5476 25.2007 14.6793 25.2914C16.0621 25.9568 17.5436 26.3197 19.0581 26.6524C19.124 26.6827 19.1569 26.6827 19.2886 26.7432Z" fill="white"/>
<path d="M21.6056 38.616C21.9064 38.5794 22.0943 38.689 22.2823 38.8715C22.771 39.3827 23.2973 39.8939 23.8237 40.405C24.0116 40.5876 24.0116 40.7336 23.8237 40.9162C23.2973 41.4273 22.771 41.9385 22.2447 42.4132C21.9064 42.7418 21.3049 42.7418 20.9289 42.4497C20.4402 42.0115 19.9515 41.5369 19.4628 41.0987C19.2372 40.9162 19.2372 40.7701 19.4252 40.5511C19.8763 40.0399 20.3274 39.5287 20.741 39.0176C21.0041 38.7255 21.2673 38.5429 21.6056 38.616Z" fill="white"/>
<path d="M32.9663 38.6068C33.2329 38.5702 33.3996 38.6801 33.5996 38.8999C34.0329 39.4128 34.4662 39.8891 34.9328 40.3654C35.1328 40.5486 35.0994 40.7318 34.9328 40.9149C34.4662 41.4279 33.9995 41.9408 33.5329 42.4171C33.2329 42.7468 32.6996 42.7468 32.3996 42.4171C31.9997 41.9774 31.5997 41.5378 31.1664 41.0981C30.9664 40.8783 30.8998 40.7318 31.0998 40.4753C31.5331 39.9257 31.9663 39.3762 32.3996 38.8266C32.5663 38.6068 32.7663 38.6068 32.9663 38.6068Z" fill="white"/>
<path d="M27.1823 38.609C27.3853 38.5725 27.5883 38.6454 27.7575 38.8277C28.1973 39.338 28.671 39.8848 29.1108 40.3952C29.28 40.5774 29.2461 40.7597 29.1108 40.942C28.6371 41.4523 28.1635 41.9991 27.6898 42.473C27.453 42.7282 26.8778 42.7282 26.641 42.473C26.1673 41.9991 25.6936 41.4888 25.2538 41.0149C25.1184 40.8691 25.0846 40.7232 25.2199 40.541C25.6936 39.9577 26.1334 39.4109 26.6071 38.8277C26.7425 38.609 26.9455 38.609 27.1823 38.609Z" fill="white"/>
<path d="M38.3041 42.6453C38.031 42.682 37.8262 42.5718 37.6215 42.3882C37.2461 41.9843 36.8706 41.5804 36.4611 41.2132C36.1539 40.9194 36.1881 40.6991 36.427 40.3686C36.8365 39.8913 37.2119 39.3772 37.5873 38.8998C37.8945 38.5326 38.5088 38.4959 38.816 38.8264C39.2938 39.3405 39.7716 39.8913 40.2153 40.4053C40.3518 40.5522 40.3859 40.6991 40.2153 40.8827C39.7716 41.3601 39.3279 41.8741 38.8842 42.3515C38.7477 42.5718 38.543 42.7187 38.3041 42.6453Z" fill="white"/>
<path d="M45.5915 40.1301C45.5915 40.4845 45.5915 40.839 45.5915 41.1661C45.5915 41.3842 45.5146 41.4388 45.1684 41.466C43.6684 41.6841 43.0145 40.8935 42.1683 40.2937C42.0145 40.1846 42.0914 40.0756 42.2453 39.9665C42.8222 39.5576 43.3991 39.1486 43.9761 38.7397C44.1684 38.6033 45.2454 38.5488 45.4377 38.6579C45.5915 38.7397 45.5915 38.8487 45.5915 38.9578C45.5915 39.3667 45.5915 39.7484 45.5915 40.1301Z" fill="white"/>
<path d="M15.1973 40.0503C15.1973 39.6889 15.1973 39.3275 15.1973 38.9383C15.1973 38.6881 15.3288 38.6325 15.5918 38.6047C16.1179 38.5769 16.5454 38.6603 16.9071 39.0495C17.2359 39.3831 17.5976 39.6611 17.9593 39.9391C18.1894 40.1059 18.1566 40.2449 17.9593 40.3839C17.7291 40.5507 17.4989 40.7175 17.3345 40.9399C16.8742 41.4959 16.2495 41.5237 15.559 41.4959C15.2959 41.4681 15.1973 41.3847 15.1973 41.1901C15.1973 40.8287 15.1973 40.4395 15.1973 40.0503Z" fill="white"/>
<path d="M31.5632 38.6055C31.0702 39.0158 30.6477 39.3714 30.2603 39.6996C30.1547 39.7817 30.0491 39.7817 29.9787 39.6996C29.5209 39.3714 29.0632 39.0158 28.6406 38.6329C29.5913 38.6602 30.5068 38.5782 31.5632 38.6055Z" fill="white"/>
<path d="M22.8324 38.5999C23.7461 38.6828 24.6232 38.5999 25.5368 38.5999C25.7561 38.5999 25.7561 38.6828 25.6464 38.7934C25.281 39.0976 24.9155 39.4017 24.5501 39.6782C24.4039 39.7888 24.2942 39.7888 24.1481 39.6782C23.7095 39.3464 23.271 39.0146 22.7959 38.6828C22.7959 38.6552 22.7959 38.6275 22.8324 38.5999Z" fill="white"/>
<path d="M17.6092 38.5999C18.4974 38.5999 19.3856 38.5999 20.2737 38.5999C20.4958 38.5999 20.4958 38.6826 20.3848 38.7654C20.0147 39.0689 19.6076 39.4 19.2005 39.7035C19.1265 39.7587 19.0525 39.7862 18.9785 39.7311C18.4974 39.3724 18.0163 39.0413 17.5352 38.6826C17.5722 38.655 17.5722 38.6274 17.6092 38.5999Z" fill="white"/>
<path d="M33.9752 38.646C34.6025 38.646 35.2667 38.646 35.894 38.646C36.1154 38.646 36.3368 38.646 36.5582 38.6181C36.6689 38.6181 36.7796 38.5622 36.8165 38.646C36.8534 38.7298 36.7427 38.7577 36.7058 38.8136C36.3368 39.0929 36.0047 39.3722 35.6357 39.6514C35.525 39.7352 35.4143 39.819 35.2667 39.7073C34.8239 39.3722 34.3442 39.037 33.9014 38.674C33.9383 38.7019 33.9383 38.6739 33.9752 38.646Z" fill="white"/>
<path d="M39.7961 38.5999C40.7071 38.6812 41.6531 38.627 42.6691 38.627C42.2136 39.0067 41.7932 39.3322 41.4078 39.6849C41.3027 39.7663 41.1976 39.7934 41.0925 39.712C40.637 39.3865 40.2166 39.0339 39.7611 38.7084C39.7261 38.6541 39.7611 38.627 39.7961 38.5999Z" fill="white"/>
<path d="M42.6691 41.5033C41.6254 41.5033 40.7486 41.5033 39.8301 41.5033C39.7883 41.4864 39.7883 41.4696 39.7466 41.4528C40.2058 41.2846 40.6233 41.1165 41.0826 40.9483C41.2079 40.8979 41.3331 40.9315 41.4166 40.9651C41.7924 41.1501 42.2099 41.3015 42.6691 41.5033Z" fill="white"/>
<path d="M36.2394 41.5033C35.4491 41.5033 34.7575 41.5033 33.9014 41.5033C34.2965 41.2938 34.6588 41.1018 34.9881 40.9448C35.0868 40.8924 35.2186 40.9448 35.2844 40.9797C35.6137 41.1367 35.8772 41.2938 36.2394 41.5033Z" fill="white"/>
<path d="M24.8306 42.6157C24.5824 42.6157 24.3343 42.6157 24.1137 42.6157C23.9483 42.6157 23.9207 42.469 24.031 42.2735C24.2516 41.8336 24.4997 41.4426 24.7203 41.0516C24.803 40.9049 24.8857 40.856 24.9684 41.0516C25.189 41.4915 25.4095 41.8825 25.6301 42.2735C25.6577 42.3713 25.7404 42.4201 25.7128 42.5668C25.6852 42.6645 25.6025 42.6645 25.5198 42.6645C25.2993 42.6157 25.0787 42.6157 24.8306 42.6157Z" fill="white"/>
<path d="M18.3957 41.5033C18.1713 41.5033 17.9188 41.5033 17.6943 41.5033C17.6382 41.5033 17.5821 41.5033 17.554 41.4701C17.4979 41.4369 17.5821 41.4037 17.6101 41.3871C17.8346 41.2544 18.059 41.1217 18.2835 40.9724C18.3957 40.906 18.5079 40.906 18.5921 40.9724C18.7885 41.1051 19.0129 41.2378 19.2093 41.3705C19.2654 41.4037 19.3215 41.4369 19.2654 41.4701C19.2374 41.5033 19.1532 41.5033 19.069 41.5033C18.8727 41.5033 18.6202 41.5033 18.3957 41.5033Z" fill="white"/>
<path d="M31.5636 41.5033C30.7524 41.5033 30.0822 41.5033 29.4121 41.5033C29.1652 41.5033 29.2005 41.4354 29.3063 41.3845C29.5885 41.2489 29.8706 41.1132 30.1528 40.9776C30.2939 40.9267 30.3997 40.8928 30.5408 40.9606C30.8935 41.1302 31.1756 41.2998 31.5636 41.5033Z" fill="white"/>
<path d="M162.487 66.7622C162.374 67.318 162.412 67.8391 162.299 68.3949C162.224 68.8465 162.073 69.2634 161.697 69.576C161.245 69.9582 160.681 70.0277 160.079 69.8887C159.477 69.715 159.176 69.2634 159.063 68.7076C158.95 68.117 158.95 67.5612 159.138 66.9706C159.514 65.7548 160.756 65.0947 162.111 65.3726C162.374 65.4421 162.525 65.5463 162.487 65.8242C162.45 66.1021 162.487 66.4495 162.487 66.7622Z" fill="white"/>
</svg>
