<svg width="351" height="108" viewBox="0 0 351 108" fill="none" xmlns="http://www.w3.org/2000/svg">
<g clip-path="url(#clip0)">
<path d="M52.0373 0.621367C34.4459 29.889 35.0774 52.3905 53.9768 68.2157C69.5158 60.5054 78.4468 26.2474 56.8185 0.936072C76.4622 -1.35679 103.593 17.2333 107.743 45.2197C112.975 80.5792 85.5961 106.228 58.51 107.397C23.6205 108.88 -0.804409 84.7827 0.345794 50.0976C1.22536 23.5499 27.9056 -1.9862 52.0373 0.621367Z" fill="#2E3540"/>
<path d="M118.117 8.33217C124.657 8.33217 130.679 8.17481 136.678 8.37712C141.955 8.55696 147.458 10.153 148.699 15.5479C149.669 19.774 147.797 24.6294 147.052 30.2267C151.924 32.4072 153.029 38.1168 151.315 44.366C149.691 50.3454 144.617 52.7507 138.843 53.0429C132.077 53.4025 125.266 53.1328 118.094 53.1328C118.117 38.2517 118.117 23.7303 118.117 8.33217ZM126.056 47.5355C130.904 46.9736 135.347 46.9286 139.452 45.7372C141.166 45.2427 143.083 42.4103 143.286 40.4771C143.466 38.5439 142.001 35.0147 140.58 34.6326C136.227 33.4637 131.513 32.9916 127.07 33.4637C126.281 33.5536 126.033 39.4206 125.672 42.6351C125.537 43.804 125.83 45.0179 126.056 47.5355ZM125.943 26.4727C129.213 26.4727 132.416 27.2145 135.009 26.2704C137.603 25.3263 140.918 23.0334 141.504 20.7406C142.564 16.537 138.46 15.1433 135.099 14.5813C132.258 14.1093 129.258 14.4914 125.943 14.4914C125.943 18.6725 125.943 22.3366 125.943 26.4727Z" fill="#2E3540"/>
<path d="M242.609 19.8414C242.609 14.4914 242.609 9.52352 242.609 4.196C245.135 3.83633 247.233 3.54411 250.232 3.117C250.232 7.7252 250.232 11.8389 250.232 15.975C250.232 26.6075 250.165 37.2401 250.3 47.8727C250.345 51.2445 249.488 53.1777 245.767 53.3126C243.376 53.38 241.008 54.0544 238.595 54.1668C231.513 54.504 225.221 52.7056 221.816 45.9395C218.23 38.8361 218.523 31.5304 222.718 24.7418C225.762 19.8189 230.702 18.3128 236.272 18.6949C238.212 18.8298 240.151 19.3693 242.609 19.8414ZM242.632 46.6588C242.632 41.2189 242.407 36.0487 242.7 30.901C242.925 27.192 240.941 25.9332 237.918 25.3712C232.934 24.4271 228.717 27.237 227.95 32.4521C226.349 43.0846 230.882 49.4012 242.632 46.6588Z" fill="#2E3540"/>
<path d="M284.941 52.908C282.393 52.908 280.431 52.908 277.386 52.908C277.386 46.8387 277.589 40.6794 277.341 34.5426C277.025 27.3044 274.815 25.1239 269.109 25.2139C265.568 25.2813 264.102 26.63 264.215 30.3166C264.441 37.7122 264.283 45.1303 264.283 52.8405C261.667 52.8405 259.547 52.8405 256.885 52.8405C256.885 36.6782 256.885 20.5607 256.885 4.12857C259.163 3.79139 261.306 3.47668 264.215 3.0271C264.215 8.51197 264.215 13.7721 264.215 19.3019C266.358 19.0546 267.734 18.8748 269.109 18.7399C278.987 17.7508 284.648 22.5164 284.896 32.2947C285.077 39.1059 284.941 45.8721 284.941 52.908Z" fill="#2E3540"/>
<path d="M173.304 32.1374C173.079 25.079 170.553 24.0225 158.036 25.8882C157.878 23.955 157.697 22.0443 157.517 19.729C160.697 19.2344 163.448 18.5601 166.2 18.4477C176.462 17.9756 181.265 22.2916 181.604 32.4746C181.829 39.0609 181.649 45.6697 181.649 53.0653C174.319 53.0653 167.553 53.5823 160.9 52.8855C156.119 52.391 154.066 48.5246 153.954 43.6916C153.818 38.5889 155.893 34.9473 160.877 33.7559C164.937 32.7893 169.154 32.6319 173.304 32.1374ZM174.432 39.6004C173.778 38.8811 173.124 38.1393 172.47 37.4199C169.019 38.6338 165.478 39.6678 162.208 41.2414C161.734 41.4662 162.118 45.4899 162.885 45.8046C165.681 46.9286 169.312 48.4122 171.635 47.4231C173.372 46.6813 173.552 42.3428 174.432 39.6004Z" fill="#2E3540"/>
<path d="M292.519 25.6185C292.249 23.9101 291.955 22.2017 291.572 19.8189C294.752 19.3243 297.661 18.5825 300.571 18.4477C310.765 17.9756 315.23 21.797 315.817 31.8901C316.2 38.6788 315.884 45.4899 315.884 53.5374C309.096 53.5374 302.894 53.9869 296.804 53.4025C290.895 52.863 288.144 48.7269 288.212 42.9048C288.279 37.1277 291.798 34.0706 297.075 33.0815C300.39 32.4521 303.863 32.587 307.269 32.3846C308.126 25.3712 305.713 24.2248 292.519 25.6185ZM308.645 39.3531C308.149 38.7687 307.675 38.1842 307.179 37.5998C303.638 38.6563 300.029 39.5105 296.692 40.9941C296.195 41.2189 296.534 45.7147 297.346 46.0294C300.165 47.1309 303.931 48.4346 306.254 47.3781C307.923 46.5914 307.9 42.1405 308.645 39.3531Z" fill="#2E3540"/>
<path d="M329.326 52.908C326.371 52.908 324.229 52.908 321.748 52.908C321.748 42.0956 321.748 31.508 321.748 20.0212C326.664 19.5267 331.626 18.4702 336.543 18.695C345.699 19.0771 349.466 22.9435 350.075 32.3397C350.503 38.9261 350.165 45.5798 350.165 52.6832C347.594 52.6832 345.316 52.6832 342.091 52.6832C342.091 46.2317 342.113 39.6679 342.091 33.104C342.068 29.0803 340.738 25.9557 336.227 25.3487C331.829 24.7418 328.83 25.3487 329.213 31.1483C329.687 38.0943 329.326 45.1303 329.326 52.908Z" fill="#2E3540"/>
<path d="M195.068 52.9305C192.023 52.9305 189.858 52.9305 186.971 52.9305C186.971 42.7475 186.881 32.7668 187.107 22.7861C187.129 21.7296 188.911 19.9538 190.038 19.7964C194.594 19.1895 199.263 18.4926 203.796 18.9422C211.734 19.729 215.207 23.5504 215.636 31.508C215.997 38.4765 215.704 45.4899 215.704 52.8405C213.2 52.8405 211.103 52.8405 207.9 52.8405C207.9 48.1199 207.968 43.4218 207.878 38.7237C207.81 35.734 207.878 32.6319 207.201 29.7546C206.141 25.1914 202.285 25.2139 198.518 25.2813C194.256 25.3262 195.135 28.4059 195.113 30.8561C195.045 38.0044 195.068 45.1977 195.068 52.9305Z" fill="#2E3540"/>
<path d="M117.959 60.5059C125.266 60.888 131.852 60.843 138.302 61.6972C142.925 62.3042 146.511 65.114 147.391 70.1269C148.248 74.9374 146.669 78.8262 142.474 81.2315C144.662 83.6817 147.616 85.7947 148.857 88.6496C151.879 95.5281 148.315 103.081 140.85 104.655C134.648 105.981 128.085 105.824 121.68 105.734C120.417 105.711 118.117 103.059 118.072 101.597C117.846 88.5372 117.959 75.4993 117.959 60.5059ZM122.74 103.081C128.379 102.542 133.521 102.407 138.527 101.463C142.948 100.631 145.429 97.3714 145.271 92.8082C145.09 87.8853 141.955 85.0529 137.264 84.6258C132.551 84.1987 127.77 84.5359 122.74 84.5359C122.74 90.5378 122.74 96.0676 122.74 103.081ZM122.447 81.1641C128.108 80.6695 132.776 80.7145 137.219 79.7254C142.407 78.579 144.594 73.2065 142.226 68.958C140.196 65.3164 130.521 62.5065 125.086 64.1924C120.147 65.7435 123.079 69.947 122.515 72.9367C122.109 75.2296 122.447 77.6573 122.447 81.1641Z" fill="#2E3540"/>
<path d="M225.65 85.952C232.258 93.1903 237.603 99.0123 242.97 104.857C242.474 105.396 241.955 105.936 241.459 106.475C233.611 103.351 230.769 93.7523 222.019 90.313C222.019 95.5955 222.019 100.631 222.019 105.644C221.365 105.913 220.711 106.183 220.057 106.453C219.177 105.262 217.553 104.093 217.553 102.901C217.395 88.2449 217.373 73.5886 217.598 58.9323C217.621 57.651 219.425 56.4146 220.417 55.1558C220.891 55.4031 221.365 55.6504 221.861 55.8752C221.861 65.631 221.861 75.3869 221.861 86.2892C228.13 80.8268 233.566 76.0838 239.024 71.3407C239.52 71.9027 240.016 72.4647 240.512 73.0491C235.46 77.41 230.453 81.7485 225.65 85.952Z" fill="#2E3540"/>
<path d="M173.011 85.5475C173.8 76.9381 172.785 76.2862 156.84 75.432C156.795 74.87 156.705 73.8135 156.705 73.8135C161.464 73.3414 166.583 71.7229 170.823 73.0042C173.597 73.836 176.394 78.6914 176.89 82.0857C177.86 88.5822 177.341 95.3034 177.093 101.935C177.048 103.283 175.514 105.644 174.522 105.711C169.538 106.138 164.396 106.543 159.502 105.801C155.194 105.149 152.803 101.777 152.646 97.0792C152.488 92.3137 154.157 88.4473 158.825 87.2334C163.245 86.087 167.914 86.1095 173.011 85.5475ZM174.657 102.564C173.327 97.5962 173.349 91.5494 170.959 90.358C167.846 88.807 162.591 90.6053 158.735 92.1338C157.585 92.5834 156.818 97.6862 157.9 99.417C161.464 105.239 167.418 102.452 174.657 102.564Z" fill="#2E3540"/>
<path d="M209.051 106.498C208.194 105.284 206.683 104.138 206.592 102.879C206.277 98.6752 206.48 94.4491 206.457 90.2456C206.434 76.3536 203.006 73.6336 188.347 76.6908C188.347 84.6483 188.46 92.8307 188.257 100.991C188.212 102.654 187.084 104.295 186.475 105.936C185.776 104.362 184.513 102.811 184.468 101.238C184.265 93.4151 184.581 85.57 184.287 77.7473C184.152 74.0832 185.595 72.6445 189.001 72.4198C191.008 72.2849 192.993 71.7903 194.978 71.633C204.72 70.8687 209.75 75.0723 210.742 84.7832C210.855 85.9746 210.81 87.1884 210.81 88.4023C210.81 93.9996 210.81 99.5968 210.81 105.194C210.246 105.644 209.66 106.071 209.051 106.498Z" fill="#2E3540"/>
</g>
<defs>
<clipPath id="clip0">
<rect width="350" height="107" fill="white" transform="translate(0.300049 0.442017)"/>
</clipPath>
</defs>
</svg>
