<svg width="159" height="47" fill="none" xmlns="http://www.w3.org/2000/svg"><path d="M6.83 6.713c-.11-.348-.233-.669-.308-.996-.355-1.543.11-2.84 1.263-3.878 1.243-1.12 2.663-1.29 4.186-.615 1.201.533 2.376 1.12 3.59 1.611a18.876 18.876 0 0 0 7.381 1.434 77.479 77.479 0 0 0 3.782-.109c1.823-.11 3.564-.58 5.25-1.256 1.032-.41 2.028-.888 3.039-1.352.744-.341 1.481-.69 2.328-.717 1.154-.034 2.103.437 2.86 1.256 1.154 1.236 1.407 2.683.8 4.267-.028.082-.062.157-.09.24-.006.027.008.06.021.156.143-.047.287-.075.417-.13 2.485-1.017 4.786.697 5.339 2.697.177.642.157 1.29-.048 1.919a10.8 10.8 0 0 1-.621 1.509c-.847 1.713-1.584 3.475-2.062 5.332-.342 1.345-.553 2.704-.567 4.096-.007 1.243-.014 2.486.02 3.735.055 2.09.533 4.09 1.29 6.022.458 1.153.998 2.28 1.51 3.413.334.738.594 1.482.573 2.308-.054 1.884-1.96 3.96-4.342 3.673-.369-.04-.73-.164-1.092-.26-.13-.033-.253-.081-.485-.156.075.225.116.382.17.525.902 2.404-.553 4.602-2.553 5.257-.84.273-1.693.205-2.506-.136-.662-.273-1.297-.608-1.945-.908-1.687-.785-3.42-1.448-5.257-1.83-1.14-.232-2.288-.39-3.455-.39-1.584-.006-3.175-.06-4.752.124-1.98.232-3.87.785-5.7 1.57-1.032.444-2.035.956-3.073 1.393-1.543.648-2.963.375-4.158-.779-1.195-1.153-1.543-2.573-1.024-4.178.055-.177.123-.348.219-.608-.185.041-.308.048-.417.096-1.563.587-2.99.369-4.226-.778-1.16-1.079-1.618-2.567-1.03-4.097.279-.73.64-1.433.969-2.143.846-1.83 1.556-3.715 1.898-5.708.163-.867.239-1.755.307-2.642.102-1.482.061-2.963-.048-4.445-.157-2.13-.703-4.165-1.523-6.13-.395-.943-.846-1.865-1.27-2.793-.3-.656-.552-1.311-.56-2.055-.006-1.304.581-2.301 1.564-3.072 1.181-.936 2.499-1.1 3.905-.54.096.041.192.075.287.11.028 0 .062-.021.144-.042zm2.73 31.379l.09.11c.115-.083.238-.165.347-.253 3.612-3.045 7.217-6.104 10.842-9.135.478-.403 1.038-.724 1.591-1.01.655-.335 1.366-.404 2.096-.253.88.184 1.618.628 2.294 1.194 3.619 3.038 7.23 6.09 10.842 9.135.136.116.287.219.43.328.027-.027.055-.048.082-.075-.096-.13-.178-.266-.28-.39a9041.25 9041.25 0 0 1-7.688-9.189c-.634-.758-1.297-1.502-1.877-2.3-.785-1.093-1.113-2.302-.628-3.626.245-.662.621-1.25 1.072-1.796 2.007-2.396 4.007-4.786 6.015-7.182l3.154-3.769c.082-.095.246-.184.157-.41-.157.13-.294.226-.417.335-1.147.963-2.3 1.932-3.448 2.902l-7.353 6.206c-.539.457-1.126.833-1.788 1.079-.703.266-1.427.3-2.158.088-.737-.211-1.379-.594-1.96-1.078a1777.054 1777.054 0 0 1-5.359-4.52c-1.89-1.59-3.782-3.188-5.68-4.78-.096-.074-.205-.136-.307-.204l-.082.082c.232.28.464.56.703.84 2.888 3.454 5.783 6.909 8.67 10.364.465.553.861 1.147 1.107 1.83.225.634.314 1.276.143 1.959-.211.853-.642 1.577-1.195 2.24-2.724 3.263-5.455 6.512-8.179 9.776a789.59 789.59 0 0 0-1.235 1.502z" fill="#657181"/><path d="M92.868 3.376c.164-.007.328-.028.491-.028 6.589 0 13.177-.013 19.766.007 2.143.007 4.253.273 6.26 1.086 2.765 1.12 4.486 3.113 5.1 6.062.41 1.98.307 3.899-.546 5.749-.799 1.734-2.075 3.072-3.591 4.192a16.94 16.94 0 0 1-3.038 1.782c-.103.048-.198.116-.376.225.266.082.458.144.649.198 2.232.656 4.315 1.605 6.062 3.182 2.09 1.884 3.325 4.212 3.571 7.032.191 2.205-.177 4.322-1.195 6.302-1.071 2.082-2.778 3.461-4.943 4.294-1.556.6-3.181.894-4.854.894h-23.09c-.15 0-.314.02-.457-.013-.096-.02-.253-.123-.246-.178.014-.116.096-.232.177-.32.048-.055.157-.048.24-.069 1.338-.28 2.109-1.12 2.389-2.424.102-.478.143-.976.15-1.467.027-2.711.034-5.428.055-8.139.013-1.809.034-3.618.04-5.427.014-3.346.028-6.691.035-10.037.007-2.847.027-5.7.02-8.547a8.6 8.6 0 0 0-.184-1.673c-.232-1.209-.942-1.973-2.178-2.212-.3-.048-.293-.062-.307-.471zm13.559 19.396c-.055-.211 0-.32.164-.355.15-.027.307-.034.457-.048 2.048-.157 4.001-.669 5.797-1.68 1.898-1.064 3.222-2.614 3.782-4.744.539-2.055.355-4.103-.287-6.104-.628-1.952-1.87-3.386-3.768-4.212a8.94 8.94 0 0 0-3.278-.73c-1.379-.049-2.765-.028-4.144-.028-.184 0-.375.027-.56.061-.607.116-.812.349-.839.97a136.79 136.79 0 0 0-.096 2.86c-.055 2.458-.096 4.91-.143 7.367-.048 2.642-.103 5.284-.151 7.927-.034 2.096-.075 4.198-.095 6.294-.027 2.527-.048 5.053-.075 7.572-.007.478-.028.956-.028 1.434 0 .628.007 1.263.035 1.89.027.609.32 1.06.914 1.216.492.137.997.253 1.502.273 1.502.062 3.005.096 4.5.082 1.119-.013 2.246-.102 3.352-.328 2.915-.6 4.738-2.348 5.51-5.195.539-2.007.553-4.042.157-6.083-.567-2.936-2.144-5.12-4.786-6.527-1.939-1.038-4.049-1.502-6.213-1.741a154.16 154.16 0 0 1-1.707-.17zM52.977 44.36c-.041-.463-.041-.484.294-.559a5.046 5.046 0 0 0 1.624-.724c.506-.341.847-.771.888-1.413.075-1.222.205-2.451.239-3.673a440.7 440.7 0 0 0 .143-9.06c.02-3.892-.007-7.783-.02-11.668 0-1.024-.014-2.048-.041-3.072-.068-2.403-.15-4.807-.225-7.21-.055-1.713-.86-2.642-2.397-3.093-.3-.088-.3-.095-.286-.498.143-.014.286-.034.436-.034 6.398 0 12.802-.068 19.199.02 4.84.069 9.148 1.72 12.815 4.916 2.601 2.267 4.356 5.086 5.373 8.377.963 3.107 1.195 6.288.887 9.51-.43 4.52-1.993 8.583-4.97 12.05-2.24 2.609-4.99 4.48-8.288 5.497a14.297 14.297 0 0 1-4.233.642c-6.944-.007-13.894 0-20.837 0-.205-.007-.403-.007-.601-.007zm10.576-20.966c0 4.472-.007 8.937.006 13.409.007 1.31.096 2.622.116 3.933.014.867.533 1.563 1.373 1.74.71.15 1.447.24 2.17.287 2.67.185 5.313 0 7.907-.73 1.55-.437 2.888-1.188 4.021-2.328 1.304-1.318 2.287-2.84 3.025-4.527 1.495-3.386 2.02-6.95 1.857-10.63-.096-2.137-.349-4.247-.813-6.336-.525-2.362-1.31-4.622-2.594-6.69-2.396-3.851-5.926-5.865-10.37-6.37-1.086-.123-2.179-.164-3.264-.219a25.613 25.613 0 0 0-2.048-.007c-.717.02-.997.287-1.113 1.01a8.16 8.16 0 0 0-.103.915c-.04.888-.068 1.776-.088 2.656a329.92 329.92 0 0 0-.069 5.271c-.027 2.888-.014 5.755-.014 8.616zm65.514 20.529v-7.776c.328-.13.478-.02.54.245.068.28.123.567.198.847.232.935.717 1.714 1.427 2.376 2.403 2.253 5.305 3.188 8.534 3.29 1.229.042 2.458-.02 3.666-.286 2.26-.492 4.206-1.495 5.537-3.462.758-1.12 1.181-2.369 1.393-3.7.198-1.195.177-2.383-.137-3.55-.566-2.137-1.898-3.605-3.987-4.315-1.318-.45-2.676-.799-4.021-1.168-2.274-.614-4.54-1.215-6.691-2.205-2.198-1.017-4.069-2.423-5.373-4.499-1.222-1.953-1.68-4.076-1.4-6.363.157-1.297.465-2.547 1.004-3.735.942-2.082 2.437-3.639 4.424-4.738 1.447-.799 3.011-1.276 4.622-1.584a21.94 21.94 0 0 1 4.479-.382c2.765.048 5.516.26 8.234.806.498.102.99.266 1.495.327.416.055.846.02 1.27-.013a1.31 1.31 0 0 0 .853-.417c.137-.15.287-.239.546-.102l.164 7.203c-.471.075-.478.082-.573-.226-.553-1.836-1.721-3.195-3.346-4.171-1.413-.847-2.956-1.311-4.588-1.468a20.272 20.272 0 0 0-2.655-.116c-2.192.061-4.22.642-5.886 2.13-1.522 1.365-2.321 3.1-2.369 5.148a9.688 9.688 0 0 0 .144 1.83c.245 1.44 1.072 2.519 2.259 3.331.827.567 1.735.956 2.67 1.27 1.796.608 3.632 1.052 5.476 1.468 1.863.416 3.7.922 5.407 1.83 3.222 1.707 5.23 4.308 5.769 7.954.321 2.184.246 4.349-.403 6.479-.826 2.703-2.512 4.724-4.916 6.172-1.925 1.16-4.035 1.795-6.247 2.157a25.757 25.757 0 0 1-4.635.342c-1.175-.028-2.356-.09-3.516-.26-1.755-.26-3.489-.621-5.23-.963-.635-.122-1.256-.314-1.885-.477-.047-.014-.095-.035-.143-.048-.744-.191-1.058-.082-1.481.553-.144.232-.294.396-.629.266z" fill="#2E353F"/></svg>