<svg width="200" height="41" viewBox="0 0 200 41" fill="none" xmlns="http://www.w3.org/2000/svg">
<path d="M40.2328 0.693481C41.0677 0.77489 41.9025 0.831876 42.7152 0.95399C44.9971 1.27963 46.9451 2.04487 48.7596 3.12761C51.075 4.50342 52.0991 6.32697 52.6445 8.35405C52.8671 9.18442 52.9785 10.0474 52.9785 10.894C52.9785 12.2454 52.7558 13.5968 52.3662 14.9237C51.5981 17.5533 50.2735 20.0362 48.5592 22.4052C47.0342 24.5056 45.242 26.4757 43.2049 28.3318C41.8358 29.5773 40.3887 30.7659 38.7968 31.8568C36.8266 33.2163 34.7561 34.4863 32.552 35.6342C30.3591 36.7739 28.0772 37.7915 25.6616 38.6544C25.0048 38.8905 24.337 39.094 23.5689 39.3464C23.6579 38.516 23.7136 37.7508 23.8472 36.9855C24.3036 34.3235 25.4278 31.7917 26.6301 29.268C28.1551 26.0605 29.4909 22.8041 30.9046 19.5722C31.0938 19.1326 31.3498 18.693 31.4278 18.2371C31.6393 17.0322 30.8378 16.2914 29.1903 16.2344C28.1328 16.2019 27.0531 16.2833 25.9956 16.3972C22.5448 16.7717 19.7174 18.115 16.9679 19.5722C14.8417 20.7038 12.8826 21.9819 11.0459 23.3496C10.3668 23.8543 9.93271 24.4893 9.71008 25.1813C9.53198 25.7267 9.87706 26.0523 10.634 26.0198C11.224 25.9953 11.8139 25.9139 12.3705 25.7918C13.3278 25.5802 14.2295 25.2952 15.0866 24.8963C15.6543 24.6358 16.3445 24.473 17.0124 24.3672C17.6803 24.2695 18.2035 24.5463 18.4484 25.0022C18.6265 25.3359 18.7489 25.6941 18.7934 26.0442C19.183 29.7564 18.4706 33.3791 16.9345 36.9123C16.4113 38.1334 15.6877 39.3057 15.0978 40.5105C14.9308 40.8362 14.6525 40.942 14.2406 40.942C11.1794 40.9339 8.22959 40.5757 5.6248 39.2976C2.79738 37.9136 1.12765 35.9354 0.504284 33.5012C0.270521 32.6057 0.114679 31.694 0.0924159 30.7822C0.0812843 29.8867 0.259389 28.9831 0.404099 28.0794C0.626731 26.6141 1.19444 25.2057 1.82894 23.8217C2.5191 22.3238 3.42075 20.8829 4.43372 19.4826C5.91422 17.4393 7.66188 15.518 9.6099 13.7026C11.1461 12.2698 12.8158 10.9266 14.6191 9.68102C16.7007 8.24008 18.8936 6.90498 21.2424 5.70013C24.1477 4.21034 27.1866 2.91594 30.515 2.00416C32.9973 1.32033 35.5353 0.856299 38.1957 0.742327C38.2959 0.742327 38.385 0.709763 38.4852 0.693481C39.0751 0.693481 39.654 0.693481 40.2328 0.693481ZM29.7803 12.7094C31.194 12.6606 32.552 12.221 33.8099 11.5778C36.2143 10.3323 37.7616 8.68783 38.1067 6.50607C38.2959 5.3175 37.372 4.32432 35.936 4.08009C35.09 3.93355 34.2663 4.03124 33.4648 4.25105C31.0604 4.90232 29.3016 6.12345 27.9658 7.69464C27.1866 8.60642 26.708 9.59961 26.7636 10.6986C26.8082 11.9686 27.8768 12.7257 29.7803 12.7094Z" fill="#75818F"/>
<path d="M157.507 36.9316C157.067 36.8072 156.615 36.7138 156.188 36.5375C155.387 36.1953 154.721 35.5315 154.372 34.2559C154.12 33.3329 154.133 32.3684 154.281 31.4142C154.533 29.7756 155.051 28.417 155.93 27.4629C156.44 26.9132 156.996 26.5191 157.585 26.2495C158.535 25.8139 159.504 25.5754 160.48 25.5131C161.625 25.4509 162.769 25.4302 163.919 25.4094C164.126 25.4094 164.236 25.3265 164.255 24.9738C164.288 24.3827 164.385 23.7915 164.346 23.2211C164.275 22.184 163.868 21.5618 163.189 21.3958C162.336 21.1884 161.489 21.2092 160.681 21.821C160.228 22.1633 159.918 22.7026 159.685 23.3974C159.64 23.5219 159.55 23.6982 159.478 23.6982C158.502 23.7189 157.526 23.7086 156.524 23.7086C156.718 22.7856 157.016 22.0181 157.423 21.3647C158.237 20.058 159.233 19.332 160.338 18.9483C161.993 18.3675 163.654 18.2534 165.316 18.9172C166.117 19.2283 166.809 19.8609 167.229 21.0743C167.565 22.0492 167.643 23.1071 167.5 24.1545C167.145 26.6332 166.718 29.0911 166.343 31.5698C166.104 33.1151 165.91 34.6811 165.69 36.2368C165.678 36.3301 165.6 36.4649 165.555 36.4649C164.527 36.4753 163.506 36.4753 162.458 36.4753C162.562 35.6871 162.659 34.93 162.769 34.09C162.626 34.2559 162.523 34.37 162.426 34.4944C161.263 35.9775 159.931 36.7553 158.451 36.8798C158.38 36.8901 158.308 36.9212 158.237 36.942C157.992 36.9316 157.746 36.9316 157.507 36.9316ZM163.693 28.3237C163.499 28.3237 163.331 28.3237 163.163 28.3237C161.967 28.3444 160.758 28.2303 159.575 28.6037C158.548 28.9252 157.804 29.7652 157.572 31.5179C157.436 32.5343 157.694 33.3225 158.308 33.6544C158.515 33.7685 158.729 33.8514 158.942 33.8825C160.455 34.0588 161.76 33.3744 162.756 31.4765C163.228 30.5846 163.519 29.5371 163.693 28.3237Z" fill="#2E353F"/>
<path d="M124.23 19.789C122.433 19.789 120.662 19.789 118.89 19.789C118.865 19.343 118.865 18.9178 118.806 18.503C118.658 17.3622 118.192 16.6777 117.501 16.4184C116.499 16.0451 115.516 16.2214 114.566 16.8229C112.969 17.8496 112.026 19.8616 111.412 22.3299C111.017 23.927 110.772 25.5656 110.81 27.308C110.869 29.7037 111.761 31.1038 113.196 31.4149C114.107 31.6119 114.993 31.4771 115.839 30.8652C116.796 30.1807 117.455 29.0088 117.889 27.5154C117.973 27.2354 118.063 27.1213 118.263 27.1317C119.879 27.142 121.495 27.142 123.111 27.142C123.189 27.142 123.273 27.142 123.409 27.142C123.241 27.7436 123.105 28.3036 122.937 28.8325C122.207 31.2178 121.095 33.0224 119.647 34.2669C118.541 35.2211 117.346 35.7603 116.111 36.0819C114.663 36.4656 113.209 36.5485 111.748 36.4448C110.319 36.3411 108.936 35.9159 107.688 34.7232C106.415 33.4995 105.639 31.7157 105.439 29.3303C105.284 27.4947 105.445 25.7108 105.775 23.9374C106.118 22.0914 106.589 20.3387 107.262 18.7519C108.257 16.4184 109.55 14.6139 111.14 13.359C112.265 12.4774 113.454 11.907 114.689 11.5648C115.949 11.2225 117.223 11.1811 118.496 11.2744C119.692 11.3574 120.881 11.6478 121.993 12.4152C123.493 13.4523 124.366 15.2569 124.34 17.9844C124.34 18.2852 124.327 18.5756 124.307 18.866C124.294 19.1875 124.262 19.4779 124.23 19.789Z" fill="#2E353F"/>
<path d="M150.674 22.9937C151.081 23.17 151.443 23.2945 151.786 23.4915C152.736 24.0412 153.421 25.0161 153.622 26.6858C153.777 28.034 153.583 29.2993 153.253 30.5231C152.594 32.9706 151.437 34.5678 149.918 35.5426C148.696 36.3205 147.416 36.476 146.124 36.476C143.331 36.4864 140.532 36.476 137.74 36.476C137.681 36.476 137.63 36.4657 137.552 36.4553C137.733 35.3663 137.908 34.3085 138.089 33.2403C139.071 27.3288 140.06 21.4277 141.049 15.5162C141.269 14.1887 141.502 12.8612 141.721 11.5234C141.76 11.2952 141.812 11.1915 141.974 11.1915C144.527 11.2019 147.08 11.1811 149.633 11.2122C150.532 11.2226 151.437 11.316 152.335 11.4404C152.995 11.5337 153.622 11.8449 154.165 12.519C154.882 13.4109 155.16 14.5932 155.083 15.9933C155.012 17.4348 154.721 18.7623 154.158 19.9135C153.454 21.3551 152.51 22.1848 151.437 22.7033C151.198 22.7967 150.959 22.8796 150.674 22.9937ZM141.586 32.4936C141.715 32.4936 141.812 32.4936 141.909 32.4936C143.053 32.4936 144.204 32.5143 145.348 32.4832C145.988 32.4624 146.634 32.3898 147.274 32.2654C148.754 31.9543 149.633 30.6268 149.879 28.2726C150.008 27.0384 149.821 26.0946 148.929 25.5657C148.186 25.1198 147.416 25.099 146.647 25.0679C145.451 25.0264 144.255 25.0575 143.06 25.0368C142.885 25.0368 142.807 25.1094 142.762 25.3998C142.471 27.194 142.168 28.9778 141.864 30.772C141.767 31.3216 141.683 31.8817 141.586 32.4936ZM143.46 21.2618C143.557 21.2721 143.609 21.2825 143.654 21.2825C144.811 21.2825 145.962 21.324 147.119 21.2618C147.824 21.2306 148.528 21.1062 149.22 20.8884C150.28 20.5669 150.978 19.5402 151.185 17.7978C151.308 16.7711 151.224 15.8999 150.429 15.5162C149.873 15.2466 149.284 15.1014 148.703 15.0806C147.365 15.0184 146.02 15.0599 144.682 15.0599C144.617 15.0599 144.559 15.0806 144.488 15.0806C144.146 17.1445 143.803 19.1772 143.46 21.2618Z" fill="#2E353F"/>
<path d="M96.5378 19.7986C94.715 19.7986 92.9438 19.7986 91.1597 19.7986C91.1468 19.4667 91.1403 19.1452 91.1145 18.8237C90.9917 17.1955 90.3582 16.5317 89.5308 16.3347C88.2251 16.0132 87.0033 16.428 85.898 17.6207C84.9413 18.6578 84.3014 20.1097 83.836 21.7795C83.474 23.0655 83.2154 24.4137 83.1249 25.8242C83.028 27.2968 83.0409 28.7488 83.6744 29.9933C84.0493 30.7296 84.547 31.1341 85.1094 31.3104C86.7125 31.8186 88.1798 31.4141 89.3563 29.454C89.7053 28.8732 89.9251 28.0954 90.216 27.4109C90.2677 27.2968 90.3582 27.1516 90.4358 27.1516C92.1423 27.1413 93.8423 27.1413 95.5488 27.1413C95.5811 27.1413 95.607 27.1516 95.7104 27.1828C95.4325 28.0747 95.1998 28.9458 94.9024 29.7651C94.1914 31.7149 93.1765 33.1979 91.9419 34.2662C91.0757 35.0129 90.1513 35.5625 89.1817 35.8322C88.3543 36.0707 87.5205 36.2781 86.6801 36.3715C85.7816 36.4752 84.8702 36.5167 83.9717 36.4337C82.4656 36.3092 81.0047 35.8322 79.7184 34.4528C78.5548 33.1979 77.889 31.4556 77.7145 29.2258C77.5788 27.4628 77.7274 25.7516 78.0312 24.0611C78.3609 22.215 78.8328 20.4623 79.4986 18.8652C80.0545 17.5273 80.7203 16.3451 81.5024 15.3287C82.4139 14.1568 83.4158 13.2441 84.5147 12.6011C85.4003 12.0826 86.3052 11.7092 87.2425 11.5018C88.406 11.2321 89.576 11.1907 90.7396 11.284C92.1035 11.3981 93.448 11.6988 94.6762 12.7463C95.9237 13.8042 96.6025 15.4635 96.6154 17.7555C96.6219 18.4193 96.5701 19.0934 96.5378 19.7986Z" fill="#2E353F"/>
<path d="M197.526 36.455C197.41 36.4653 197.345 36.4757 197.28 36.4757C195.988 36.4757 194.695 36.4757 193.402 36.4757C193.26 36.4757 193.169 36.4135 193.085 36.2164C191.896 33.5511 190.694 30.8961 189.498 28.2411C189.317 27.8367 189.129 27.4322 188.91 26.9448C188.787 27.6604 188.677 28.3034 188.573 28.936C188.166 31.3628 187.765 33.7793 187.352 36.2061C187.332 36.3098 187.248 36.455 187.19 36.455C186.188 36.4653 185.186 36.4653 184.165 36.4653C184.352 35.3349 184.527 34.2459 184.708 33.157C185.678 27.3492 186.647 21.5415 187.617 15.7337C187.856 14.3129 188.089 12.9024 188.341 11.4816C188.36 11.3675 188.451 11.2016 188.509 11.2016C189.511 11.1808 190.513 11.1912 191.54 11.1912C190.719 16.107 189.905 20.9918 189.084 25.8765C189.097 25.8973 189.11 25.9077 189.129 25.9284C189.433 25.5862 189.737 25.2439 190.034 24.8913C191.708 22.9415 193.383 20.9918 195.057 19.0524C195.128 18.9694 195.231 18.9072 195.322 18.9072C196.608 18.8969 197.888 18.8969 199.252 18.8969C197.048 21.4377 194.902 23.9164 192.723 26.4262C194.32 29.7553 195.91 33.074 197.526 36.455Z" fill="#2E353F"/>
<path d="M68.4323 36.4557C69.8479 28.0033 71.2506 19.6132 72.6533 11.2127C74.4244 11.2127 76.202 11.2127 78.012 11.2127C77.9215 11.7727 77.8439 12.312 77.7534 12.8513C76.7967 18.5657 75.8465 24.2698 74.8898 29.9842C74.5537 31.9962 74.2111 34.0082 73.8814 36.0305C73.8297 36.352 73.7457 36.4765 73.5259 36.4765C71.9293 36.4557 70.3262 36.4661 68.7296 36.4661C68.6456 36.4557 68.568 36.4557 68.4323 36.4557Z" fill="#2E353F"/>
<path d="M96.1691 36.3935C97.5718 28.0137 98.9745 19.6132 100.377 11.2127C102.155 11.2127 103.932 11.2127 105.736 11.2127C105.613 11.9594 105.503 12.6854 105.38 13.4113C104.85 16.5952 104.32 19.7791 103.784 22.963C103.105 27.0285 102.42 31.0939 101.741 35.1593C101.683 35.5223 101.631 35.8853 101.554 36.2379C101.534 36.3313 101.45 36.4453 101.398 36.4453C99.679 36.4557 97.9596 36.4453 96.2402 36.4453C96.2208 36.4453 96.2079 36.4246 96.1691 36.3935Z" fill="#2E353F"/>
<path d="M123.881 36.435C125.29 28.0241 126.693 19.6132 128.102 11.2127C129.892 11.2127 131.67 11.2127 133.467 11.2127C133.273 12.3742 133.073 13.515 132.885 14.6662C131.954 20.2355 131.03 25.8151 130.099 31.3843C129.834 32.9814 129.556 34.5682 129.291 36.155C129.259 36.352 129.227 36.4661 129.078 36.4661C127.371 36.4557 125.671 36.4557 123.965 36.4557C123.945 36.4557 123.92 36.4453 123.881 36.435Z" fill="#2E353F"/>
<path d="M171.23 18.9071C172.309 18.9071 173.356 18.9071 174.429 18.9071C174.307 19.9235 174.184 20.9087 174.061 21.9354C174.429 21.4376 174.766 20.9502 175.127 20.5354C176.007 19.5086 176.983 18.876 178.069 18.6478C178.961 18.4508 179.853 18.4404 180.738 18.7515C182.005 19.1975 183.033 20.3279 183.24 22.6822C183.337 23.7711 183.22 24.8393 183.04 25.8972C182.548 28.8322 182.05 31.7672 181.559 34.6918C181.462 35.2726 181.365 35.8637 181.262 36.4549C180.208 36.4549 179.168 36.4549 178.095 36.4549C178.198 35.8326 178.295 35.2311 178.392 34.6399C178.831 32.0161 179.271 29.3922 179.698 26.7683C179.833 25.949 179.859 25.109 179.782 24.2689C179.659 22.9207 179.058 22.1843 178.288 22.008C176.53 21.6139 175.147 22.7029 174.054 24.8601C173.44 26.0735 173.227 27.5462 172.988 29.0085C172.574 31.4871 172.167 33.9554 171.747 36.4549C170.674 36.4549 169.607 36.4549 168.521 36.4549C169.4 30.5745 170.59 24.8497 171.23 18.9071Z" fill="#2E353F"/>
</svg>
