<svg width="140" height="42.9" xmlns="http://www.w3.org/2000/svg"><style>.st3{fill:#404040}</style><path d="M107.6 24c-.2.7-.6 1.4-1.3 1.9-.7.5-1.4.8-2.1.8H77.7c-.7 0-1.3-.3-1.7-.8-.4-.5-.4-1.1-.2-1.9l5.9-21.3c.3-.8.7-1.4 1.3-1.9.7-.5 1.4-.8 2.1-.8h26.5c.8 0 1.3.3 1.7.8.4.5.4 1.1.2 1.9l-.7 2.5H86.3l-4.5 16.2h26.5l-.7 2.6zm8.3 2.6h-5.3L118 0h5.3l-7.4 26.6zM43.3 0H38l-4.8 17.4L11.9 0 4.5 26.7h5.3l4.8-17.3 21.3 17.3L43.3 0zm34.5.8c-.4-.5-.9-.8-1.7-.8H47l-1.4 5.2h26.5l-1.5 5.6H44.2l-4.4 15.8h5.3L47.9 16h23.8c.7 0 1.4-.3 2.1-.8.7-.5 1.1-1.1 1.3-1.9L78 2.7c.2-.8.2-1.4-.2-1.9z" fill="#232630"/><path fill="#5d6168" d="M133.3 0l6.7 13.3-14.1 13.4z"/><path fill="#83868e" d="M128.6 0l6.7 13.3-14.1 13.4z"/><path class="st3" d="M124.1 30.9c-.1-.1-.2-.3-.3-.4-.4-.4-.7-.7-1-.9-.2-.2-.5-.3-.7-.4-.2-.1-.5-.1-.8-.1-.5 0-.9.1-1.3.3-.4.2-.6.5-.7.9v.6h-.9l-.1.4h.9l-1 3.8h.6l1-3.8h4.1l-.3 1h-2.8c-.1 0-.2.1-.2.2s0 .2.3.5c.2.3.4.4.5.4.2 0 .3-.1.3-.1l.2-.7h1.6l-.7 2.4h.6l1-3.8h2.2l-.3 1.2h-.7c-.1 0-.2.1-.2.2 0 .2.1.4.3.6.3.3.5.4.6.4.1 0 .2-.1.3-.2v-.2l.6-2.1h1.5l-1 3.8h.6l1-3.8h1.8l-.4 1.3h-.6c-.1 0-.2.1-.2.2s.1.3.3.6c.2.3.4.4.6.4.1 0 .2 0 .3-.1v-.1l.1-.5h1.7l-.5 2h.6l1-3.8h.8l.1-.4h-10.8zm9.6.5l-.4 1.3h-1.7l.4-1.3h1.7zm-13.3-1.6c.2-.2.5-.2.8-.2.2 0 .5.1.8.2.1.1.3.1.4.2.3.2.6.4.8.7l.1.1c0 .1.1.1.2.2h-3.4v-.5c-.1-.3 0-.5.3-.7zM96 31.4h1.2l-.4 1.5h-1.5l.3-1.2c.1-.2 0-.4-.2-.6-.2-.1-.4-.2-.7-.2-.3 0-.5.1-.8.2-.2.1-.4.3-.4.6v.4h.6l.1-.1v-.4c0-.1.1-.2.2-.3.1-.1.2-.1.3-.1.2 0 .3 0 .3.1s.1.1 0 .2l-.3 1.3h-.6s-.1 0-.2.1l-.2.2c0 .1 0 .2.4.6.4.4.5.4.6.4.1 0 .2 0 .3-.1 0-.1 0-.1.1-.2l.2-.6h1.5l-.5 1.8c-.2 0-.4.1-.6.2-.1 0-.2.1-.3.2h-.1l.4.4c.1-.1.2-.1.2-.2.2-.1.3-.2.5-.2s.3 0 .4.1c.1.1.1.2.1.3-.1.2-.2.3-.4.5-.2.1-.5.2-.7.2-.4 0-.8-.1-1.1-.4l-.4-.4-.5.4c.2.2.3.3.5.4.4.3.9.4 1.5.4.4 0 .8-.1 1.1-.3.3-.2.5-.4.6-.7.1-.3 0-.5-.2-.7-.1-.1-.3-.2-.4-.2l1-3.7h2.2l-.3 1.2h-.7c-.1 0-.2.1-.2.2 0 .2.1.4.3.6.3.3.5.4.6.4.1 0 .2-.1.3-.2v-.2l.6-2.1h1.5l-1 3.8h.6l1-3.8h4.2l-.2.8h-2.1c-.3 0-.5.1-.8.2-.2.1-.4.3-.4.6-.1.5 0 1 .4 1.5.1.2.3.4.6.6l.5-.3c-.2-.2-.4-.4-.5-.6-.3-.4-.4-.8-.3-1.2 0-.1.1-.2.2-.3.1-.1.3-.1.5-.1h1.8L106 35h.6l1-3.8h1.5l-1 3.8h.6l1-3.8h4.1l-.3 1h-2.8c-.1 0-.2.1-.2.2s0 .2.3.6c.2.3.4.4.5.4.1 0 .2 0 .3-.1l.2-.7h1.6l-.7 2.4h.6l1-3.8h.8l.1-.4H96.1l-.1.6zm-11.7-1.3c-.2-.5-.5-.7-1-.8-.1 0-.3-.1-.5-.1-.4 0-.7.1-.9.2-.3.2-.4.4-.5.7v.6s0 .1.1.2H69.9l-.1.4h2.5l-.3 1c0 .1-.1.3-.3.3-.1.1-.3.1-.5.1-.1 0-.2 0-.3-.1-.1 0-.1-.1-.1-.1l-.3-.5-.5.3v.1c.1.1.1.3.1.4.1.3.3.6.5 1 .1.2.3.5.5.8.2.2.3.5.6.7l.5-.3-.2-.2c0-.1-.1-.1-.1-.1-.1-.1-.2-.2-.2-.3-.1-.1-.2-.2-.2-.3l-.4-.7c.2 0 .5 0 .8-.1.2-.1.4-.2.5-.3.1-.1.2-.3.2-.4l.3-1h1.6l-1 3.8h.6l1-3.8h1.4l-.4 1.5c-.1.3 0 .6.2.8.2.2.6.3 1 .3.2 0 .3 0 .5-.1.1 0 .2-.1.4-.1 0 .2.1.4.3.5l.1.1c.2.2.5.4.8.4l-2.1 1.4h.9l1.6-1.2.8 1.2h.7L80.2 35c.3 0 .5-.1.7-.2.3-.1.6-.3.9-.6h.1l-.5-.3c-.4.4-.9.6-1.4.6-.4 0-.8-.1-1-.4-.2-.2-.3-.4-.3-.7v-.2c.1-.1.2-.3.3-.4.2-.1.4-.2.6-.2h1.8l.3-1.2h1.8l-1 3.8h.6l1-3.8h2c.1.1.1.2.2.2.1.2.1.4.1.5-.1.2-.2.4-.4.5-.2.1-.4.1-.6.1h-.3c-.1.4 0 .8.2 1.1.2.3.7.5 1.2.5.3 0 .7-.1 1-.2.1 0 .2-.1.3-.1l-.3 1.2h.6l1-3.8h.8l.1-.4h-5.9c.3-.4.3-.7.2-.9zm3 1.5c0-.1 0-.1-.1-.2h1.6l-.5 2c-.2.1-.3.2-.4.3-.3.2-.7.3-1 .3-.4 0-.7-.1-.8-.4 0-.1-.1-.2-.1-.4.2 0 .4-.1.6-.2.4-.2.7-.5.8-.9 0-.1 0-.3-.1-.5zm-5.1-1.8c.1-.1.3-.2.5-.2s.3 0 .4.1c.3.1.4.3.6.6.1.1.1.4.2.6H82c0-.1 0-.1-.1-.1 0-.2-.1-.4 0-.5.1-.2.2-.4.3-.5zm-3.9 3.4v.2s-.1 0-.2.1c-.2.1-.4.1-.7.1-.3 0-.4-.1-.6-.2-.1-.1-.2-.3-.1-.5l.3-1.2 1.3 1.5zm3.1-1.8l-.2.8h-1.3c-.3 0-.6.1-.8.2-.1 0-.1.1-.2.1l-.3.3-1.2-1.4h4zm-20.7-1.3c-.2-.5-.5-.7-1-.8-.1 0-.3-.1-.5-.1-.4 0-.7.1-.9.2-.3.2-.5.4-.5.7v.6s0 .1.1.2H46.3l-.1.4h1.2l-.4 1.5h-1.5l.3-1.2c.1-.2 0-.4-.2-.6-.2-.1-.4-.2-.7-.2-.3 0-.5.1-.8.2-.2.1-.4.3-.4.6v.4h.6v-.4c0-.1.1-.2.2-.3.1-.1.2-.1.3-.1.2 0 .3 0 .3.1s.1.1 0 .2l-.3 1.3h-.6c-.1 0-.1 0-.2.1-.1 0-.1.1-.2.2 0 0 0 .2.4.6.4.4.5.4.6.4.1 0 .2 0 .3-.1 0-.1 0-.1.1-.2l.2-.6h1.5l-.5 1.9h.6l1-3.8h1.5l-1 3.8h.5l1-3.8h3.1l-.3 1c0 .1-.1.3-.3.3-.1.1-.3.1-.5.1-.1 0-.2 0-.3-.1-.1 0-.1-.1-.2-.1l-.1-.5-.5.3c0 .1.1.2.2.4.1.3.3.6.5 1 .1.2.3.5.5.8.2.3.4.5.6.7l.5-.3-.1-.1-.3-.3-.1-.1c-.2-.2-.3-.4-.4-.5l-.4-.7c.2 0 .5 0 .8-.1.2-.1.4-.2.5-.3.1-.1.2-.3.2-.4l.3-1H58l-.2.8h-2.1c-.3 0-.6.1-.8.2-.2.1-.4.3-.4.6-.1.5 0 1 .4 1.5.1.2.4.4.6.6l.5-.3c-.2-.2-.4-.4-.5-.6-.3-.4-.4-.8-.3-1.2 0-.1.1-.2.2-.3.1-.1.3-.1.5-.1h1.8l-.7 2.6h.6l1-3.8h1.5l-1 3.8h.6l1-3.8h2c.1.1.1.2.2.2.1.2.1.4.1.5-.1.2-.2.4-.4.5-.2.1-.4.1-.6.1h-.3c-.1.4 0 .7.2 1.1.2.3.7.5 1.2.5.3 0 .7-.1 1-.2.1 0 .2-.1.3-.1l-.3 1.2h.6l1-3.8h.8l.1-.4h-5.9c.1-.4.1-.7 0-.9zm3 1.5c0-.1 0-.1-.1-.2h1.6l-.5 2c-.2.1-.3.2-.4.3-.3.2-.7.3-1 .3-.4 0-.7-.1-.8-.4 0-.1-.1-.2-.1-.4.2 0 .4-.1.6-.2.4-.2.7-.5.8-.9 0-.1 0-.3-.1-.5zm-5.1-1.8c.1-.1.3-.2.5-.2s.3 0 .4.1c.3.1.5.3.6.6.1.1.1.3.2.6h-1.9c0-.1-.1-.1-.1-.2-.1-.2-.1-.4 0-.5.1-.1.2-.3.3-.4zM0 42.7l1.2-4.5 2 2.6c.1.1.1.2.2.2.1.1.1.2.2.3l.8-3H5l-1.2 4.5-2.1-2.7-.2-.2c0-.1-.1-.2-.1-.3l-.8 3H0zm7.8 0l-.2-1.1H5.9l-.8 1.1h-.7l3.3-4.5.8 4.5h-.7zM6.4 41h1.2l-.2-1v-.5c-.1.1-.1.2-.1.3 0 .1-.1.2-.1.2l-.8 1zm4.3-2l-1 3.7H9l1-3.7H8.9l.1-.6h3l-.2.6h-1.1zm.8 3.7l1.2-4.3h.7l-1.2 4.3h-.7zm6.5-2.2c-.1.3-.2.6-.4.9-.2.3-.4.5-.7.7-.3.2-.6.4-.9.5-.3.1-.6.2-.9.2-.3 0-.6-.1-.8-.2-.2-.1-.5-.3-.6-.5-.2-.2-.3-.5-.3-.7 0-.3 0-.6.1-.9.1-.3.2-.6.4-.9.2-.3.4-.5.7-.7.3-.2.6-.4.9-.5.3-.1.6-.2.9-.2.3 0 .6.1.8.2.2.1.5.3.6.5.2.2.3.5.3.7 0 .4 0 .6-.1.9zm-.8 0c.1-.2.1-.4.1-.6 0-.2-.1-.4-.2-.5-.1-.2-.2-.3-.4-.3-.2-.1-.4-.1-.6-.1-.2 0-.4 0-.6.1-.2.1-.4.2-.6.4-.2.2-.4.3-.5.5l-.3.6c-.1.2-.1.4-.1.6 0 .2.1.4.2.5.1.2.2.3.4.4.2.1.4.1.6.1.2 0 .4 0 .6-.1.2-.1.4-.2.6-.4.2-.2.4-.3.5-.5.2-.2.3-.4.3-.7zm.9 2.2l1.2-4.5 2 2.6c.1.1.1.2.2.2.1.1.1.2.2.3l.8-3h.6l-1.2 4.5-2.1-2.7-.2-.2c0-.1-.1-.2-.1-.3l-.8 3h-.6zm7.8 0l-.2-1.1H24l-.8 1.1h-.7l3.3-4.5.8 4.5h-.7zM24.4 41h1.2l-.2-1v-.5c0 .1-.1.2-.1.3 0 .1-.1.2-.1.2l-.8 1zm2.7 1.7l1.2-4.3h.7l-1 3.7h1.6l-.2.6h-2.3zm6-1.9l-.5 1.9h-.7l1.2-4.3h1.1c.3 0 .5 0 .7.1.1 0 .3.1.3.2.1.1.2.2.2.4v.6c-.1.2-.1.4-.3.6-.1.2-.3.3-.4.4-.1.1-.3.1-.4.2-.2 0-.4.1-.7.1h-.5zm.2-.6h.2c.4 0 .7 0 .8-.1.2-.1.3-.2.3-.4.1-.2 0-.4-.1-.5-.1-.2-.3-.2-.7-.2h-.2l-.3 1.2zm4 2.5l-.2-1.1h-1.7l-.8 1.1h-.7l3.3-4.5.8 4.5h-.7zM35.8 41H37l-.2-1v-.5c0 .1-.1.2-.1.3 0 .1-.1.2-.1.2l-.8 1zm2.6 1.7l.5-2-.8-2.3h.7l.5 1.5v.3c0-.1.1-.1.1-.2s.1-.1.1-.2l1.3-1.4h.7l-2.1 2.3-.5 2h-.5zm6.4-2.1V40c0 .1-.1.2-.2.3-.1.1-.1.2-.2.3l-1.8 2.3-.5-2.3V40c0 .1-.1.2-.1.3 0 .1-.1.2-.1.3l-.9 2.1h-.6l2.3-4.5.5 2.7v.6c.1-.1.2-.3.3-.5 0-.1.1-.1.1-.1l2-2.7-.2 4.5h-.7l.1-2.1zm1.3 2.1l1.2-4.3h2.4l-.2.6h-1.7l-.3 1.1h1.7l-.2.6h-1.7l-.4 1.4h1.7l-.2.6h-2.3zm3.3 0l1.2-4.5 2 2.6c.1.1.1.2.2.2.1.1.1.2.2.3l.8-3h.6l-1.2 4.5-2.1-2.7s-.1-.1-.1-.2-.1-.2-.1-.3l-.8 3h-.7zm7.4-3.7l-1 3.7H55l1-3.7h-1.1l.2-.6h3l-.2.6h-1.1zm.7 2.8l.6-.3c0 .2.1.3.2.4.1.1.3.2.5.2s.4-.1.5-.2c.2-.1.3-.3.3-.5.1-.3-.1-.5-.4-.7-.1 0-.1-.1-.1-.1-.4-.2-.7-.4-.8-.6-.1-.2-.1-.4 0-.7.1-.4.3-.6.6-.9.3-.2.6-.3 1-.3.3 0 .6.1.7.2.2.1.3.3.3.5l-.6.3c0-.1-.1-.2-.2-.3-.1-.1-.2-.1-.3-.1-.2 0-.4 0-.5.1-.1.1-.2.2-.3.4-.1.3.1.5.5.7h.1c.4.2.6.4.7.6.1.2.1.4 0 .7-.1.4-.3.7-.7 1-.3.2-.7.4-1.1.4-.4 0-.6-.1-.8-.3-.1.1-.2-.2-.2-.5zm9.4-2.4c-.2-.2-.3-.3-.5-.4-.2-.1-.4-.1-.7-.1-.5 0-.9.2-1.3.5s-.6.7-.8 1.2c-.1.5-.1.9.1 1.2.2.3.5.5 1 .5.3 0 .5 0 .8-.1.3-.1.5-.2.8-.4l-.2.8c-.2.1-.5.2-.7.3-.2.1-.5.1-.8.1-.3 0-.6-.1-.9-.2-.3-.1-.5-.3-.6-.5-.2-.2-.2-.4-.3-.7 0-.3 0-.6.1-.9.1-.3.2-.6.4-.9.2-.3.4-.5.7-.7.3-.2.6-.4.9-.5.3-.1.6-.2.9-.2.3 0 .5 0 .7.1l.6.3-.2.6zm5 1.1c-.1.3-.2.6-.4.9-.2.3-.4.5-.7.7-.3.2-.6.4-.9.5-.3.1-.6.2-.9.2-.3 0-.6-.1-.8-.2-.3-.1-.5-.3-.6-.5-.2-.2-.3-.5-.3-.7 0-.3 0-.6.1-.9.1-.3.2-.6.4-.9.2-.3.4-.5.7-.7.3-.2.6-.4.9-.5.3-.1.6-.2.9-.2.3 0 .6.1.8.2.2.1.5.3.6.5.2.2.3.5.3.7 0 .4 0 .6-.1.9zm-.7 0c.1-.2.1-.4.1-.6 0-.2-.1-.4-.2-.5-.1-.2-.2-.3-.4-.3-.2-.1-.4-.1-.6-.1-.2 0-.4 0-.6.1-.2.1-.4.2-.6.4-.2.2-.4.3-.5.5l-.3.6c-.1.2-.1.4-.1.6 0 .2.1.4.2.5.1.2.2.3.4.4.2.1.4.1.6.1.2 0 .4 0 .6-.1.2-.1.4-.2.6-.4.2-.2.4-.3.5-.5.1-.2.2-.4.3-.7zm2.1.3l-.5 1.9h-.7l1.2-4.3h1c.3 0 .5 0 .7.1.1 0 .3.1.4.2.1.1.2.2.2.4v.5c-.1.3-.3.6-.5.8-.2.2-.5.3-.8.4l.9 2h-.8l-1.1-2zm.2-.6h.1c.4 0 .6 0 .8-.1.1-.1.2-.2.3-.5.1-.2 0-.4-.1-.5 0-.1-.3-.1-.6-.1h-.1l-.4 1.2zm3.3.6l-.5 1.9h-.7l1.2-4.3h1.1c.3 0 .5 0 .7.1.1 0 .3.1.3.2.1.1.2.2.2.4v.6c-.1.2-.1.4-.3.6-.1.2-.3.3-.4.4-.1.1-.3.1-.4.2-.2 0-.4.1-.7.1h-.5zm.2-.6h.2c.4 0 .7 0 .8-.1.2-.1.3-.2.3-.4.1-.2 0-.4-.1-.5 0-.2-.3-.2-.7-.2h-.2l-.3 1.2zm6.9.3c-.1.3-.2.6-.4.9-.2.3-.4.5-.7.7-.3.2-.6.4-.9.5-.3.1-.6.2-.9.2-.3 0-.6-.1-.8-.2-.3-.1-.5-.3-.6-.5-.2-.2-.3-.5-.3-.7 0-.3 0-.6.1-.9.1-.3.2-.6.4-.9.2-.3.4-.5.7-.7.3-.2.6-.4.9-.5.3-.1.6-.2.9-.2.3 0 .6.1.8.2.2.1.5.3.6.5.2.2.3.5.3.7 0 .4-.1.6-.1.9zm-.8 0c.1-.2.1-.4.1-.6 0-.2-.1-.4-.2-.5-.1-.2-.2-.3-.4-.3-.2-.1-.4-.1-.6-.1-.2 0-.4 0-.6.1-.2.1-.4.2-.6.4-.2.2-.4.3-.5.5l-.3.6c-.1.2-.1.4-.1.6 0 .2.1.4.2.5.1.2.2.3.4.4.2.1.4.1.6.1.2 0 .4 0 .6-.1.2-.1.4-.2.6-.4.2-.2.4-.3.5-.5.2-.2.3-.4.3-.7zm1.9.3l-.5 1.9h-.7l1.2-4.3h1c.3 0 .5 0 .7.1.1 0 .3.1.4.2.1.1.2.2.2.4v.5c-.1.3-.3.6-.5.8-.2.2-.5.3-.8.4l.9 2H86l-1-2zm.2-.6h.1c.4 0 .6 0 .8-.1.1-.1.2-.2.3-.5.1-.2 0-.4-.1-.5 0-.1-.3-.1-.6-.1h-.1l-.4 1.2z"/><path class="st3" d="M90.3 42.7l-.2-1.1h-1.7l-.8 1.1h-.7l3.3-4.5.8 4.5h-.7zM88.8 41H90l-.2-1v-.5c0 .1-.1.2-.1.3 0 .1-.1.2-.1.2l-.8 1zm4.4-2l-1 3.7h-.7l1-3.7h-1.1l.2-.6h3l-.3.6h-1.1zm.8 3.7l1.2-4.3h.7l-1.2 4.3H94zm6.4-2.2c-.1.3-.2.6-.4.9-.2.3-.4.5-.7.7-.3.2-.6.4-.9.5-.3.1-.6.2-.9.2-.3 0-.6-.1-.8-.2-.2-.1-.5-.3-.6-.5-.2-.2-.3-.5-.3-.7 0-.3 0-.6.1-.9.1-.3.2-.6.4-.9.2-.3.4-.5.7-.7.3-.2.6-.4.9-.5.3-.1.6-.2.9-.2.3 0 .6.1.8.2.2.1.5.3.6.5.2.2.3.5.3.7.1.4 0 .6-.1.9zm-.7 0c.1-.2.1-.4.1-.6 0-.2-.1-.4-.2-.5-.1-.2-.2-.3-.4-.3-.2-.1-.4-.1-.6-.1-.2 0-.4 0-.6.1-.2.1-.4.2-.6.4-.2.2-.4.3-.5.5l-.3.6c-.1.2-.1.4-.1.6 0 .2.1.4.2.5.1.2.2.3.4.4.2.1.4.1.6.1.2 0 .4 0 .6-.1.2-.1.4-.2.6-.4.2-.2.4-.3.5-.5.2-.2.3-.4.3-.7zm.7 2.2l1.2-4.5 2 2.6c.1.1.1.2.2.2.1.1.1.2.2.3l.8-3h.6l-1.2 4.5-2.1-2.7-.2-.2c0-.1-.1-.2-.1-.3l-.8 3h-.6zm11.2-2.2c-.1.3-.2.6-.4.9-.2.3-.4.5-.7.7-.3.2-.6.4-.9.5-.3.1-.6.2-.9.2-.3 0-.6-.1-.8-.2-.2-.1-.5-.3-.6-.5-.2-.2-.3-.5-.3-.7 0-.3 0-.6.1-.9.1-.3.2-.6.4-.9.2-.3.4-.5.7-.7.3-.2.6-.4.9-.5.3-.1.6-.2.9-.2.3 0 .6.1.8.2.2.1.5.3.6.5.2.2.3.5.3.7 0 .4 0 .6-.1.9zm-.7 0c.1-.2.1-.4.1-.6 0-.2-.1-.4-.2-.5-.1-.2-.2-.3-.4-.3-.2-.1-.4-.1-.6-.1-.2 0-.4 0-.6.1-.2.1-.4.2-.6.4-.2.2-.4.3-.5.5l-.3.6c-.1.2-.1.4-.1.6 0 .2.1.4.2.5.1.2.2.3.4.4.2.1.4.1.6.1.2 0 .4 0 .6-.1.2-.1.4-.2.6-.4.2-.2.4-.3.5-.5.1-.2.2-.4.3-.7zm.7 2.2l1.2-4.3h2.4l-.2.6h-1.7l-.3 1.1h1.7l-.2.6h-1.7l-.6 2h-.6zm5 0l1.2-4.3h.7l-1.2 4.3h-.7zm1.3 0l1.2-4.5 2 2.6c.1.1.1.2.2.2.1.1.1.2.2.3l.8-3h.6l-1.2 4.5-2.1-2.7-.2-.2c0-.1-.1-.2-.1-.3l-.8 3h-.6zm4.6 0l1.2-4.3h.9c.6 0 1 0 1.3.1l.6.3c.2.2.3.4.4.7 0 .3 0 .6-.1 1s-.3.7-.5 1c-.2.3-.5.5-.8.7-.2.1-.5.2-.7.3-.3.1-.6.1-1.1.1h-1.2zm.9-.6h.6c.3 0 .6 0 .7-.1.2 0 .3-.1.5-.2s.4-.3.5-.5c.1-.2.2-.4.3-.7.1-.3.1-.5.1-.7 0-.2-.1-.4-.2-.5-.1-.1-.2-.2-.4-.2s-.4-.1-.8-.1h-.6l-.7 3zm3.3.6l1.2-4.3h.7l-1.2 4.3h-.7zm4.5 0l-.2-1.1h-1.7l-.8 1.1h-.7l3.3-4.5.8 4.5h-.7zm-1.4-1.7h1.2l-.2-1v-.5c0 .1-.1.2-.1.3 0 .1-.1.2-.1.2l-.8 1z"/></svg>