<svg width="726" height="188" viewBox="0 0 726 188" fill="none" xmlns="http://www.w3.org/2000/svg">
<g clip-path="url(#clip0)">
<path d="M100.4 5.44202C103.7 10.142 104.1 15.842 105.6 21.142C113.8 50.542 121.9 80.042 130 109.542C130.2 110.142 130.6 110.642 131.3 112.142C134.5 101.742 137.4 92.142 140.3 82.542C147.7 57.842 155 33.142 162.4 8.54202C162.7 7.44202 162.6 5.74202 164.3 5.44202C165.9 6.34202 167.6 5.84202 169.2 5.84202C198.7 5.84202 228.2 5.94202 257.7 5.74202C261.9 5.74202 262.9 7.04202 262.9 11.042C262.8 65.842 262.8 120.642 262.8 175.542C262.8 181.242 262.8 181.342 257.4 181.342C240.6 181.342 223.7 181.342 206.9 181.342C203.5 181.342 201.7 180.642 201.8 176.642C201.9 134.642 201.9 92.642 201.9 50.642C201.9 50.242 201.9 49.942 201.9 49.942C201.7 51.242 201.8 52.842 201.8 54.442C201.8 94.942 201.8 135.442 201.8 175.942C201.8 177.742 202.4 179.642 201.3 181.342C199.7 179.842 200.6 177.842 200.6 176.142C200.5 134.842 200.6 93.542 200.6 52.342C200.6 50.942 200.5 49.442 200.4 48.042C198.7 48.142 198.8 49.342 198.6 50.242C185.7 92.642 172.9 135.042 160 177.442C159.7 178.542 159.1 179.542 158.7 180.642C156.6 181.442 154.5 181.342 152.3 181.342C136.7 181.442 121.1 181.242 105.5 181.442C101.2 171.942 98.9 161.742 95.9 151.842C85.3 117.442 74.9 82.842 64.5 48.442C64.4 48.142 64.1 47.942 63.9 47.642C63 49.342 63.5 51.142 63.5 52.942C63.5 94.242 63.5 135.542 63.4 176.842C63.4 178.442 64.1 180.142 62.7 181.542C61.8 180.742 62.1 179.742 62.1 178.742C62.1 136.242 62.1 93.842 62.1 51.342C62.1 92.442 62.1 133.442 62.1 174.542C62.1 181.342 62.1 181.442 55.3 181.442C39.5 181.442 23.7 181.442 7.80002 181.442C2.00002 181.442 1.60002 181.042 1.60002 175.142C1.60002 120.542 1.60002 65.942 1.60002 11.242C1.60002 9.64202 1.30002 7.84202 2.30002 6.34202C4.00002 5.44202 5.90002 5.84202 7.70002 5.84202C36.8 5.84202 66 5.84202 95.1 5.84202C96.8 5.84202 98.6 6.14202 100.4 5.44202Z" fill="#2E3540"/>
<path d="M351.6 83.442C351 90.342 351.1 97.242 351.6 104.142C350.7 105.042 351 106.342 350.9 107.442C351.1 106.342 350.6 105.142 351.6 104.142C353.3 111.742 355.1 119.342 360 125.742C369.8 138.542 383.6 141.742 398.6 141.442C418.3 140.942 428.4 133.142 434.6 114.542C434.7 114.142 435.2 113.842 435.5 113.442C460.1 113.142 484.7 113.342 509.2 113.342C510.7 113.342 512.2 113.242 513.5 114.342C509.1 144.242 492 164.042 464.8 175.742C445.4 184.042 424.9 186.742 404 187.242C385.9 187.642 367.8 187.042 350.1 182.542C350.5 181.842 351.2 181.942 351.9 181.942C352.4 181.942 352.9 181.942 353 181.942C352.1 181.942 350.7 181.542 349.5 182.342C309.2 174.142 281.7 148.442 278.2 106.842C277.9 103.742 277.8 100.542 277.6 97.342C278.2 95.042 278.3 92.742 277.5 90.342C278 68.542 283.6 48.542 298.8 32.242C311.2 18.942 327 11.042 344.4 6.94203C381.3 -1.85797 418.3 -1.95797 454.9 8.64203C476 14.742 493.7 26.042 504.8 45.942C510 55.342 513 65.542 513.5 76.342C512.6 77.942 511.1 77.842 509.6 77.842C486.1 77.842 462.6 77.842 439 77.842C463.3 77.842 487.5 77.842 511.8 77.842C512.5 77.842 513.1 77.942 513.6 78.442C512.6 80.642 510.7 79.542 509.2 79.542C486 79.642 462.9 79.542 439.7 79.642C436.1 79.642 434.8 78.542 434.2 75.042C431.2 57.542 418.8 46.842 401.1 46.242C394.4 46.042 387.8 46.042 381.3 47.842C364.4 52.642 355.3 64.142 352.2 81.142C352 81.942 351.8 82.742 351.6 83.442C351.1 82.942 351 82.342 351 81.642C351 81.142 351.1 80.642 351 79.742C350.9 81.342 350.6 82.542 351.6 83.442Z" fill="#2E3540"/>
<path d="M585.4 5.54204C593.1 15.742 599.3 26.942 606.2 37.542C610 43.242 609.9 43.342 613.8 37.742C620.7 27.942 627.5 18.142 634.4 8.34204C635.2 7.24204 635.5 5.44204 637.4 5.34204C639.1 6.14204 641 5.74204 642.8 5.74204C665.4 5.74204 688.1 5.74204 710.7 5.84204C712.5 5.84204 714.8 4.84204 716.1 7.24204C699.8 27.242 683.6 47.242 667.3 67.242C662.4 73.342 657.6 79.542 652.4 85.342C649.7 88.342 650 90.242 652.5 93.142C676.1 121.142 699.5 149.242 723 177.342C724 178.542 725 179.842 725.8 180.942C725.3 182.142 724.5 182.042 723.9 182.042C697.4 182.042 671 182.042 644.5 182.042C643.4 182.042 642.2 182.442 641.2 181.442C642.2 180.442 643.4 180.842 644.5 180.842C669.5 180.842 694.5 180.842 719.5 180.842C720.2 180.842 721 180.842 721 180.842C695.5 180.842 669.2 180.842 643 180.842C642.3 180.842 641.7 180.942 641.2 181.542C634.4 174.042 629.8 164.842 624 156.642C619.2 149.842 614.8 142.842 609.9 135.442C599.1 150.942 588.7 166.142 578.2 181.242C577.6 181.442 577 181.642 576.4 181.742C549.3 182.042 522.2 181.642 495.1 181.942C494.1 181.842 493.2 181.642 493.3 180.342C517.8 151.342 542.3 122.442 567 93.542C569.6 90.442 570 88.742 567.2 85.342C546.5 59.942 526.1 34.242 505.5 8.64204C505 8.04204 504.6 7.24204 504.2 6.54204C505.9 5.44204 507.8 6.04204 509.6 6.04204C533.1 6.04204 556.5 6.04204 580 6.04204C581.7 5.84204 583.6 6.14204 585.4 5.54204Z" fill="#2E3540"/>
<path d="M201.4 181.342C201.4 138.742 201.5 96.0421 201.5 53.4421C201.5 51.4421 201.5 49.5421 202.4 47.5421C202.4 49.2421 202.4 50.8421 202.4 52.5421C202.4 93.0421 202.4 133.542 202.4 173.942C202.4 180.342 202.4 180.342 209 180.342C225.2 180.342 241.3 180.242 257.5 180.442C261.5 180.542 262.5 179.242 262.5 175.342C262.4 120.742 262.4 66.0421 262.5 11.4421C262.5 8.14206 262.2 6.24206 258 6.34206C227.4 6.54206 196.7 6.54206 166.1 6.74206C165 6.74206 164.6 6.44206 164.4 5.54206C178.9 5.44206 193.4 5.34206 207.8 5.34206C225.1 5.34206 242.4 5.34206 259.8 5.34206C261.9 5.34206 264 4.64206 263.9 8.34206C263.8 65.6421 263.8 122.942 263.8 180.242C263.8 180.642 263.5 181.142 263.3 181.542C261.9 182.342 260.4 182.042 258.9 182.042C241.2 182.042 223.4 182.042 205.7 182.042C204.3 181.742 202.8 182.142 201.4 181.342Z" fill="#2E3540"/>
<path d="M2.4 6.34201C2.4 62.342 2.5 118.342 2.3 174.342C2.3 179.142 3.5 180.542 8.4 180.442C24.1 180.142 39.7 180.142 55.4 180.442C60.1 180.542 61.6 179.342 61.6 174.442C61.4 133.642 61.5 92.742 61.5 51.942C61.5 50.142 61.5 48.342 61.5 46.542C61.8 46.542 62.2 46.542 62.5 46.542C62.5 48.242 62.5 49.842 62.5 51.542C62.5 92.742 62.5 133.842 62.5 175.042C62.5 177.242 62.6 179.342 62.7 181.542C55.6 182.442 48.5 181.842 41.4 181.842C29.5 181.942 17.6 181.942 5.7 181.842C4.1 181.842 2.4 182.242 0.8 181.342C0.7 181.142 0.6 180.942 0.5 180.742C0.5 180.642 0.6 180.542 0.6 180.342C1.5 178.442 1 176.442 1 174.442C1 118.642 0.9 62.842 1 7.04201C1.2 6.24201 1.7 6.04201 2.4 6.34201Z" fill="#2E3540"/>
<path d="M1.40001 6.34204C1.40001 62.442 1.40001 118.542 1.40001 174.642C1.40001 176.542 2.10001 178.642 0.500012 180.342C0.400012 178.842 0.300012 177.342 0.300012 175.842C0.300012 120.642 0.300012 65.342 0.400012 10.142C0.400012 8.54204 -0.899988 6.44204 1.50001 5.34204C1.80001 5.54204 1.90001 5.74204 1.80001 6.04204C1.70001 6.24204 1.50001 6.34204 1.40001 6.34204Z" fill="#2E3540"/>
<path d="M513.5 114.342C489.2 114.342 465 114.342 440.7 114.342C438.9 114.342 437 114.942 435.5 113.442C436.6 112.242 438 112.742 439.2 112.742C462.7 112.742 486.3 112.742 509.8 112.842C511 112.842 513.3 111.242 513.5 114.342Z" fill="#2E3540"/>
<path d="M105.4 181.442C106.7 179.842 108.4 180.442 110 180.342C125.9 180.242 141.9 180.142 157.8 180.042C158.1 180.042 158.3 180.442 158.6 180.642C158.4 182.342 157 182.042 155.9 182.042C139.6 182.042 123.4 182.042 107.1 182.042C106.6 182.042 106 181.642 105.4 181.442Z" fill="#2E3540"/>
<path d="M1.40002 6.34199C1.40002 6.04199 1.40002 5.74199 1.40002 5.34199C34.4 5.04199 67.4 4.84199 100.4 5.44199C98.7 6.94199 96.6 6.24199 94.7 6.24199C64 6.24199 33.2 6.24199 2.50002 6.24199C2.10002 6.34199 1.80002 6.34199 1.40002 6.34199Z" fill="#2E3540"/>
<path d="M585.4 5.54203C583.8 6.94203 581.9 6.34204 580.1 6.34204C554.8 6.44204 529.5 6.44203 504.2 6.44203C503 5.14204 504.4 5.24203 504.9 5.24203C531.8 5.34203 558.6 4.64203 585.4 5.54203Z" fill="#2E3540"/>
<path d="M716.2 7.24206C714.3 5.94206 712 6.34206 709.9 6.34206C687.5 6.34206 665.1 6.34206 642.6 6.34206C640.8 6.34206 638.9 6.94206 637.4 5.44206C663.2 5.34206 689.1 5.24206 714.9 5.24206C716.4 5.14206 718.6 4.94206 716.2 7.24206Z" fill="#2E3540"/>
<path d="M513.6 78.342C488.2 78.342 462.8 78.342 436.3 78.342C439 76.842 440.7 77.342 442.3 77.342C463.9 77.342 485.5 77.342 507.1 77.342C509.3 77.342 511.4 77.542 513.4 76.342C514 76.942 514.2 77.642 513.6 78.342Z" fill="#2E3540"/>
<path d="M0.700012 181.342C21.3 181.342 41.9 181.442 62.6 181.442C62 182.242 61.1 182.042 60.3 182.042C41.3 182.042 22.4 182.042 3.40001 182.042C2.40001 182.042 1.30001 182.442 0.700012 181.342Z" fill="#2E3540"/>
<path d="M201.4 181.342C222.1 181.342 242.7 181.342 263.4 181.242C262.8 182.442 261.7 181.942 260.8 181.942C241.9 181.942 223 181.942 204.1 181.942C203.1 182.042 202.1 182.442 201.4 181.342Z" fill="#2E3540"/>
<path d="M277.4 90.342C278.9 92.642 278.9 94.942 277.5 97.342C277 94.942 277.1 92.642 277.4 90.342Z" fill="#2E3540"/>
<path d="M349.4 182.242C350.9 180.642 352.7 181.542 354.4 182.042C353 182.142 351.5 182.342 350.1 182.442L349.7 182.542L349.4 182.242Z" fill="#2E3540"/>
<path d="M376.7 2.64197C390.3 2.64197 403.8 2.64197 417.4 2.64197C417.4 2.84197 417.4 2.94197 417.4 3.14197C403.8 3.14197 390.2 3.14197 376.7 3.14197C376.6 2.94197 376.7 2.74197 376.7 2.64197Z" fill="#2E3540"/>
<path d="M386.5 44.642C393.1 44.642 399.6 44.642 406.2 44.642C406.2 44.742 406.2 44.942 406.2 45.042C399.6 45.042 393.1 45.042 386.5 45.042C386.5 44.842 386.5 44.742 386.5 44.642Z" fill="#2E3540"/>
<path d="M351.6 83.442C350.2 82.242 350.1 80.842 351.1 78.842C351.3 80.642 351.4 82.042 351.6 83.442Z" fill="#2E3540"/>
<path d="M351.5 104.142C351.4 105.542 351.2 106.942 351.1 108.742C350.1 106.842 350.1 105.442 351.5 104.142Z" fill="#2E3540"/>
<path d="M577.3 181.042C558.8 181.142 540.4 181.242 521.9 181.342C512.8 181.342 503.6 181.242 494.5 181.242C495.5 180.042 496.9 180.342 498.2 180.342C523.5 180.342 548.7 180.342 574 180.342C575.1 180.342 576.3 180.142 577.3 181.042Z" fill="#2E3540"/>
<path d="M641.2 181.442C642.3 180.042 643.9 180.342 645.3 180.342C670.8 180.342 696.3 180.342 721.8 180.342C722.3 180.342 722.7 180.542 723.2 181.442C695.9 181.442 668.6 181.442 641.2 181.442Z" fill="#2E3540"/>
</g>
<defs>
<clipPath id="clip0">
<rect width="725.8" height="186.8" fill="white" transform="translate(0 0.541992)"/>
</clipPath>
</defs>
</svg>
